<?xml version="1.0" encoding="UTF-8"?>
<svg width="16px" height="15px" viewBox="0 0 16 15" version="1.1" xmlns="http://www.w3.org/2000/svg" xmlns:xlink="http://www.w3.org/1999/xlink">
    <!-- Generator: Sketch 47.1 (45422) - http://www.bohemiancoding.com/sketch -->
    <title>car</title>
    <desc>Created with Sketch.</desc>
    <defs></defs>
    <g id="Page-1" stroke="none" stroke-width="1" fill="none" fill-rule="evenodd">
        <g id="2-5-pattaya-guest-houses" transform="translate(-487.000000, -4243.000000)" fill-rule="nonzero" fill="#A0ABBC">
            <g id="Group-3" transform="translate(477.000000, 4233.000000)">
                <g id="car" transform="translate(10.000000, 10.000000)">
                    <path d="M14.1333333,0.908496732 C13.9555207,0.375163399 13.4222222,0.0196078431 12.8888889,0.0196078431 L3.11111111,0.0196078431 C2.48888889,0.0196078431 2.04444444,0.375163399 1.86666667,0.908496732 L0,6.24183007 L0,13.3529412 C0,13.8862745 0.355555556,14.2418301 0.888888889,14.2418301 L1.77777778,14.2418301 C2.31111111,14.2418301 2.66666667,13.8862745 2.66666667,13.3529412 L2.66666667,12.4640523 L13.3333333,12.4640523 L13.3333333,13.3529412 C13.3333333,13.8862745 13.6888889,14.2418301 14.2222222,14.2418301 L15.1111111,14.2418301 C15.6444444,14.2418301 16,13.8862745 16,13.3529412 L16,6.24183007 L14.1333333,0.908496732 Z M3.11111111,9.79738562 C2.4,9.79738562 1.77777778,9.1751634 1.77777778,8.46405229 C1.77777778,7.75294118 2.4,7.13071895 3.11111111,7.13071895 C3.82222222,7.13071895 4.44444444,7.75294118 4.44444444,8.46405229 C4.44444444,9.1751634 3.82222222,9.79738562 3.11111111,9.79738562 Z M12.8888889,9.79738562 C12.1777778,9.79738562 11.5555556,9.1751634 11.5555556,8.46405229 C11.5555556,7.75294118 12.1777778,7.13071895 12.8888889,7.13071895 C13.6,7.13071895 14.2222222,7.75294118 14.2222222,8.46405229 C14.2222222,9.1751634 13.6,9.79738562 12.8888889,9.79738562 Z M1.77777778,5.35294118 L3.11111111,1.35294118 L12.8888889,1.35294118 L14.2222222,5.35294118 L1.77777778,5.35294118 Z" id="Shape"></path>
                </g>
            </g>
        </g>
    </g>
</svg>