<?xml version="1.0" encoding="UTF-8"?>
<svg width="80px" height="77px" viewBox="0 0 80 77" version="1.1" xmlns="http://www.w3.org/2000/svg" xmlns:xlink="http://www.w3.org/1999/xlink">
    <!-- Generator: Sketch 47.1 (45422) - http://www.bohemiancoding.com/sketch -->
    <title>chisinau</title>
    <desc>Created with Sketch.</desc>
    <defs></defs>
    <g id="Page-1" stroke="none" stroke-width="1" fill="none" fill-rule="evenodd">
        <g id="1-1-home" transform="translate(-595.000000, -2128.000000)" fill-rule="nonzero" fill="#D1D1D1">
            <g id="chisinau" transform="translate(595.000000, 2128.000000)">
                <path d="M63.5944828,17.3186207 C66.92,12.9117241 68.9655172,7.08965517 68.9655172,0.689655172 L66.2068966,0.689655172 C66.2068966,12.5531034 58.5558621,22.2331034 49.0096552,22.7131034 C47.9282759,22.0772414 46.7158621,21.6482759 45.4206897,21.4744828 C44.7903448,16.7572414 40.7503448,13.1034483 35.862069,13.1034483 C32.8537931,13.1034483 30.0855172,14.5144828 28.2813793,16.8137931 C26.5131034,14.56 23.7710345,13.1034483 20.6896552,13.1034483 C15.3655172,13.1034483 11.0344828,17.4344828 11.0344828,22.7586207 C11.0344828,24.8841379 11.7324138,26.8951724 12.9682759,28.5393103 C8.70482759,29.5406897 5.51724138,33.3668966 5.51724138,37.9310345 C5.51724138,40.9544828 6.91586207,43.6551724 9.09793103,45.4262069 C5.40551724,46.7834483 2.75862069,50.3255172 2.75862069,54.4827586 C2.75862069,56.1268966 3.1737931,57.702069 3.95724138,59.12 C1.56275862,60.8786207 0,63.7048276 0,66.8965517 C0,72.2206897 4.33103448,76.5517241 9.65517241,76.5517241 C13.1103448,76.5517241 16.137931,74.7213793 17.8455172,71.9862069 C19.4731034,73.1475862 21.4344828,73.7931034 23.4496552,73.7931034 C27.3158621,73.7931034 30.6482759,71.5034483 32.1889655,68.2151724 C33.697931,69.1489655 35.4344828,69.6551724 37.2413793,69.6551724 C41.5351724,69.6551724 45.1806897,66.8358621 46.4303448,62.9517241 C47.8358621,63.72 49.4110345,64.137931 51.0344828,64.137931 C56.3586207,64.137931 60.6896552,59.8068966 60.6896552,54.4827586 C60.6896552,52.3862069 60.0096552,50.4482759 58.8703448,48.8634483 C61.6593103,47.1241379 63.4482759,44.0482759 63.4482759,40.6896552 C63.4482759,35.3655172 59.1627586,31.0027586 53.7931034,31.0455172 C53.7931034,31.0413793 53.7931034,31.0386207 53.7931034,31.0344828 C53.7931034,28.8124138 53.0317241,26.7696552 51.7655172,25.1365517 C55.1144828,24.4496552 58.1848276,22.7986207 60.782069,20.4234483 C61.6882759,29.4675862 69.3406897,36.5517241 78.6206897,36.5517241 L80,36.5517241 L80,35.1724138 C80,25.8 72.7696552,18.0965517 63.5944828,17.3186207 Z M50.9158621,32.2937931 C50.9144828,32.297931 50.9117241,32.302069 50.9117241,32.3062069 C50.8868966,32.4413793 50.8386207,32.5682759 50.8055172,32.7006897 C50.7462069,32.9365517 50.6868966,33.1724138 50.6055172,33.3972414 C50.5393103,33.5793103 50.4537931,33.7517241 50.3724138,33.9255172 C50.2951724,34.0910345 50.217931,34.2551724 50.1282759,34.4137931 C50.0262069,34.5931034 49.9144828,34.7668966 49.7972414,34.9365517 C49.7034483,35.0717241 49.6041379,35.2027586 49.5006897,35.3310345 C49.3682759,35.4951724 49.2344828,35.657931 49.0868966,35.8096552 C48.9682759,35.9324138 48.84,36.0427586 48.7131034,36.1558621 C48.5641379,36.2896552 48.4193103,36.4275862 48.2593103,36.5475862 C47.9724138,36.7613793 47.6731034,36.9572414 47.3544828,37.1255172 C47.2675862,37.1724138 47.1710345,37.2027586 47.0827586,37.2455172 C46.8137931,37.3724138 46.5393103,37.4896552 46.2524138,37.582069 C46.1462069,37.6165517 46.0358621,37.64 45.9282759,37.6689655 C45.5875862,37.76 45.2441379,37.8413793 44.8841379,37.88 C44.8496552,37.8606897 44.8137931,37.8468966 44.7793103,37.8275862 C44.1158621,37.4482759 43.4041379,37.1462069 42.6537931,36.9310345 C42.5531034,36.902069 42.4510345,36.8786207 42.3489655,36.8524138 C42.0675862,36.782069 41.7806897,36.7241379 41.4896552,36.6786207 C41.3834483,36.662069 41.2772414,36.6427586 41.1696552,36.6289655 C40.7944828,36.5834483 40.4137931,36.5531034 40.0275862,36.5517241 C40.0206897,36.5517241 40.0137931,36.5503448 40.0068966,36.5503448 C39.3751724,36.0772414 38.8413793,35.5062069 38.4124138,34.8689655 L38.3241379,34.7310345 C37.7793103,33.8786207 37.4372414,32.9365517 37.3075862,31.9310345 L37.2841379,31.7696552 C37.257931,31.5282759 37.2413793,31.2827586 37.2413793,31.0344828 C37.2413793,27.2317241 40.3351724,24.137931 44.137931,24.137931 C47.9406897,24.137931 51.0344828,27.2317241 51.0344828,31.0344828 C51.0344828,31.4648276 50.9917241,31.8855172 50.9158621,32.2937931 Z M46.017931,49.5268966 C45.8937931,49.7544828 45.7517241,49.9710345 45.6027586,50.182069 C45.5558621,50.2482759 45.5103448,50.3158621 45.4606897,50.382069 C45.3282759,50.5572414 45.182069,50.7227586 45.0317241,50.8841379 C44.9544828,50.9668966 44.88,51.0524138 44.7986207,51.1310345 C44.6593103,51.2675862 44.5103448,51.3917241 44.36,51.5172414 C44.257931,51.6013793 44.1572414,51.6882759 44.0496552,51.7668966 C43.902069,51.8758621 43.7434483,51.9710345 43.5862069,52.0689655 C43.4648276,52.1434483 43.3462069,52.222069 43.2206897,52.2882759 C43.1834483,52.3075862 43.142069,52.3227586 43.1048276,52.3406897 C43.0841379,52.3255172 43.0606897,52.3144828 43.04,52.2993103 C42.262069,51.7117241 41.3958621,51.2413793 40.4606897,50.9089655 C40.4,50.8868966 40.342069,50.8634483 40.2813793,50.8427586 C39.8441379,50.697931 39.3944828,50.5848276 38.9324138,50.502069 C38.8455172,50.4868966 38.7586207,50.4744828 38.6703448,50.462069 C38.2041379,50.3931034 37.7282759,50.3448276 37.2413793,50.3448276 C36.7365517,50.3448276 36.2331034,50.3848276 35.7365517,50.4634483 C35.7434483,50.417931 35.7406897,50.3724138 35.7475862,50.3268966 C35.8151724,49.8758621 35.862069,49.422069 35.862069,48.9655172 C35.862069,48.5889655 35.8344828,48.2193103 35.7931034,47.8537931 C35.7793103,47.7296552 35.7558621,47.6068966 35.7365517,47.4827586 C35.6993103,47.2413793 35.6551724,47.0027586 35.6,46.7668966 C35.5682759,46.6289655 35.5324138,46.4910345 35.4937931,46.3544828 C35.4289655,46.1213793 35.3531034,45.8951724 35.2703448,45.6689655 C35.2275862,45.5531034 35.1889655,45.4344828 35.142069,45.32 C35.0041379,44.982069 34.8510345,44.6537931 34.6772414,44.3365517 C34.6758621,44.3337931 34.6744828,44.3310345 34.6731034,44.3282759 C34.7448276,44.2758621 34.8055172,44.2082759 34.8758621,44.1531034 C35.1765517,43.92 35.4648276,43.6772414 35.7324138,43.4137931 C35.7986207,43.3475862 35.8593103,43.2772414 35.9241379,43.2096552 C36.2013793,42.92 36.462069,42.617931 36.6993103,42.297931 C36.7406897,42.2413793 36.7793103,42.1848276 36.8193103,42.1282759 C37.0703448,41.7765517 37.2951724,41.4096552 37.4965517,41.0262069 C37.5158621,40.9889655 37.5365517,40.9503448 37.5558621,40.9131034 C37.7696552,40.4910345 37.9544828,40.0565517 38.1048276,39.6041379 C38.1062069,39.5986207 38.1089655,39.5944828 38.1117241,39.5889655 C38.7434483,39.4041379 39.3751724,39.3103448 40,39.3103448 C40.4234483,39.3103448 40.8331034,39.3613793 41.2358621,39.4358621 C41.3558621,39.457931 41.4744828,39.4868966 41.5931034,39.5144828 C41.8896552,39.5848276 42.1793103,39.6758621 42.4593103,39.7834483 C42.5641379,39.8234483 42.6717241,39.857931 42.7751724,39.9034483 C43.1489655,40.0689655 43.5103448,40.2593103 43.8455172,40.4855172 L43.8551724,40.4924138 C44.1586207,40.697931 44.4331034,40.9406897 44.7006897,41.1903448 C44.9586207,41.4331034 45.1862069,41.6993103 45.4027586,41.9737931 C45.4731034,42.0634483 45.5531034,42.142069 45.617931,42.2358621 C45.8468966,42.56 46.0386207,42.9062069 46.2096552,43.262069 C46.2386207,43.3241379 46.28,43.3793103 46.3075862,43.4413793 C46.4855172,43.8441379 46.617931,44.2634483 46.7158621,44.6937931 C46.7227586,44.7241379 46.7365517,44.7517241 46.7434483,44.782069 C46.8372414,45.2234483 46.8827586,45.6772414 46.8868966,46.1337931 L46.857931,46.617931 C46.7986207,47.6151724 46.5213793,48.5641379 46.0744828,49.4151724 C46.057931,49.4524138 46.0386207,49.4896552 46.017931,49.5268966 Z M26.8055172,55.0965517 C26.5144828,54.9875862 26.217931,54.8937931 25.9144828,54.8137931 C25.8331034,54.7917241 25.7531034,54.7710345 25.6703448,54.7517241 C25.3889655,54.6855172 25.1034483,54.6331034 24.8137931,54.5917241 C24.7268966,54.5793103 24.6427586,54.5627586 24.5558621,54.5517241 C24.1917241,54.5103448 23.8234483,54.4827586 23.4482759,54.4827586 C23.0551724,54.4827586 22.6468966,54.5117241 22.2137931,54.5724138 C22.1655172,54.537931 22.1172414,54.5034483 22.0689655,54.4675862 C22.0689655,54.1544828 22.0524138,53.8427586 22.0206897,53.5337931 C22,53.3255172 21.9641379,53.1213793 21.9296552,52.9158621 C21.9131034,52.8193103 21.9048276,52.7213793 21.8855172,52.6262069 C21.8358621,52.3724138 21.7710345,52.1241379 21.702069,51.8772414 C21.6896552,51.8331034 21.6813793,51.7875862 21.6675862,51.7434483 C21.5903448,51.4813793 21.497931,51.2262069 21.4,50.9737931 C21.3889655,50.9448276 21.3793103,50.9144828 21.3682759,50.8855172 C21.2662069,50.6331034 21.1517241,50.3875862 21.0289655,50.1462069 C21.0137931,50.1158621 21,50.0855172 20.9848276,50.0551724 C20.8648276,49.822069 20.7324138,49.5972414 20.5931034,49.3765517 C20.5682759,49.3365517 20.5462069,49.2951724 20.52,49.2565517 C20.3848276,49.0468966 20.2386207,48.8468966 20.0882759,48.6482759 C20.0510345,48.6 20.0165517,48.5503448 19.9793103,48.502069 C19.8303448,48.3144828 19.6731034,48.1351724 19.5103448,47.9586207 C19.4758621,47.9213793 19.4455172,47.88 19.4096552,47.8427586 C19.4910345,47.3462069 19.6275862,46.8606897 19.8165517,46.3917241 C20.2,46.1806897 20.5627586,45.9365517 20.9131034,45.6758621 C20.9448276,45.6524138 20.9765517,45.6289655 21.0082759,45.6055172 C21.702069,45.0772414 22.32,44.4593103 22.8482759,43.7655172 C22.8731034,43.7337931 22.8965517,43.702069 22.92,43.6689655 C23.1765517,43.3241379 23.4165517,42.9655172 23.6262069,42.5875862 C23.6593103,42.5737931 23.6910345,42.56 23.7241379,42.5462069 C24.0841379,42.4055172 24.4510345,42.2937931 24.8234483,42.2165517 C24.8855172,42.2041379 24.9489655,42.1958621 25.0124138,42.1848276 C25.4055172,42.1144828 25.8027586,42.0689655 26.2068966,42.0689655 C26.6455172,42.0689655 27.0717241,42.12 27.4882759,42.1986207 C27.542069,42.2082759 27.5972414,42.2151724 27.6496552,42.2262069 C28.0441379,42.3103448 28.4262069,42.4331034 28.7931034,42.582069 C28.8551724,42.6068966 28.9158621,42.6331034 28.9765517,42.6593103 C29.3365517,42.817931 29.6827586,43.0041379 30.0082759,43.2193103 C30.057931,43.2524138 30.1062069,43.2910345 30.1558621,43.3255172 C30.4468966,43.5296552 30.72,43.7572414 30.9751724,44.0027586 C31.0206897,44.0468966 31.0689655,44.0841379 31.1131034,44.1296552 C31.3544828,44.3751724 31.5668966,44.6468966 31.7696552,44.9255172 C31.8813793,45.0786207 31.9806897,45.2386207 32.0786207,45.3986207 C32.2041379,45.6041379 32.32,45.8151724 32.4234483,46.0344828 C32.4937931,46.182069 32.5613793,46.3310345 32.6206897,46.4841379 C32.7227586,46.7475862 32.8041379,47.0193103 32.8731034,47.2965517 C32.9062069,47.4262069 32.9462069,47.5531034 32.9710345,47.6841379 C33.0524138,48.1006897 33.1034483,48.5268966 33.1034483,48.9655172 C33.1034483,49.3806897 33.0551724,49.7958621 32.9737931,50.2082759 C32.9365517,50.3958621 32.8675862,50.582069 32.8137931,50.7682759 C32.7393103,51.0262069 32.6772414,51.2841379 32.5710345,51.5393103 C30.9986207,52.4041379 29.7131034,53.7144828 28.8303448,55.3117241 C28.5365517,55.4386207 28.2551724,55.5406897 27.9848276,55.6193103 C27.6537931,55.4427586 27.3089655,55.2896552 26.9572414,55.1517241 C26.9075862,55.1324138 26.8565517,55.1158621 26.8055172,55.0965517 Z M24.8275862,37.9310345 C24.8275862,37.502069 24.7903448,37.0827586 24.7351724,36.6689655 C24.7227586,36.577931 24.7089655,36.4882759 24.6937931,36.3986207 C24.6303448,36.0027586 24.5475862,35.6151724 24.4372414,35.2358621 C24.4317241,35.2165517 24.4275862,35.1972414 24.422069,35.177931 C24.297931,34.76 24.142069,34.3558621 23.9641379,33.9627586 C23.937931,33.9062069 23.9089655,33.8510345 23.8827586,33.7931034 C23.7172414,33.4455172 23.5324138,33.1089655 23.3282759,32.7848276 C23.3075862,32.7517241 23.2924138,32.7131034 23.2703448,32.68 C23.4717241,32.3917241 23.7006897,32.1117241 23.9544828,31.8441379 C24.0303448,31.8165517 24.102069,31.7806897 24.177931,31.7503448 C24.337931,31.6882759 24.4965517,31.622069 24.6537931,31.5517241 C24.7806897,31.4937931 24.9062069,31.4331034 25.0317241,31.3696552 C25.1889655,31.2910345 25.342069,31.2082759 25.4937931,31.12 C25.6151724,31.0510345 25.7337931,30.977931 25.8510345,30.902069 C25.9944828,30.8110345 26.1365517,30.7158621 26.2744828,30.617931 C26.3958621,30.5310345 26.5144828,30.4413793 26.6331034,30.3503448 C26.7572414,30.2524138 26.8786207,30.1531034 26.9972414,30.0510345 C27.057931,29.9986207 27.1241379,29.9517241 27.1834483,29.897931 C28.0855172,29.6524138 28.9903448,29.6193103 29.862069,29.7324138 C30.1489655,29.7696552 30.4344828,29.8206897 30.7117241,29.8937931 C30.817931,29.9213793 30.9227586,29.9531034 31.0262069,29.9848276 C31.3337931,30.0813793 31.6344828,30.1972414 31.9255172,30.3365517 C31.9793103,30.3613793 32.0344828,30.3848276 32.0868966,30.4110345 C32.8151724,30.7834483 33.4813793,31.2841379 34.0482759,31.9034483 L34.1351724,31.9986207 C34.302069,32.1903448 34.4703448,32.382069 34.6151724,32.5944828 C34.6358621,32.7227586 34.6689655,32.8468966 34.6951724,32.9724138 C34.7489655,33.2372414 34.8124138,33.497931 34.8882759,33.7544828 C34.9503448,33.9668966 35.0137931,34.1793103 35.0910345,34.3875862 C35.1517241,34.5503448 35.222069,34.7075862 35.2910345,34.8662069 C35.36,35.0248276 35.4317241,35.1806897 35.5089655,35.3365517 C35.5917241,35.502069 35.6772414,35.6648276 35.7682759,35.8248276 C35.7889655,35.8606897 35.8055172,35.8993103 35.8275862,35.9351724 C35.8482759,36.1393103 35.862069,36.3448276 35.862069,36.5517241 C35.862069,37.0151724 35.8055172,37.4689655 35.7172414,37.9117241 L35.6482759,38.1931034 C35.2965517,39.6262069 34.4965517,40.8882759 33.3944828,41.8193103 C33.3586207,41.8496552 33.3213793,41.8786207 33.2855172,41.9089655 C33.1944828,41.982069 33.0855172,42.0344828 32.9903448,42.1034483 C32.7806897,41.8965517 32.5627586,41.6965517 32.3351724,41.5089655 C32.1048276,41.3186207 31.8648276,41.1406897 31.6193103,40.9737931 C31.6137931,40.9696552 31.6082759,40.9655172 31.6027586,40.9613793 C30.8262069,40.4344828 29.9793103,40.0275862 29.0855172,39.7489655 C29.0827586,39.7475862 29.0786207,39.7462069 29.0758621,39.7448276 C28.8082759,39.662069 28.5365517,39.5944828 28.2606897,39.5351724 C28.2206897,39.5268966 28.1834483,39.5144828 28.1434483,39.5062069 C27.8910345,39.4551724 27.6344828,39.4206897 27.377931,39.3889655 C27.3131034,39.3806897 27.2496552,39.3668966 27.1848276,39.36 C26.862069,39.3268966 26.5351724,39.3103448 26.2068966,39.3103448 C25.7558621,39.3103448 25.3103448,39.3531034 24.8703448,39.4137931 C24.817931,39.4206897 24.7627586,39.417931 24.7103448,39.4262069 C24.7172414,39.3806897 24.7144828,39.3351724 24.7213793,39.2896552 C24.7834483,38.8455172 24.8275862,38.3931034 24.8275862,37.9310345 Z M29.7806897,19.5103448 C30.9737931,17.2772414 33.3048276,15.862069 35.862069,15.862069 C39.2331034,15.862069 42.0468966,18.2937931 42.6427586,21.4951724 C42.5931034,21.5034483 42.5462069,21.5213793 42.4965517,21.5296552 C42.0689655,21.6027586 41.6468966,21.6965517 41.2413793,21.8248276 C41.2151724,21.8331034 41.1889655,21.8455172 41.1627586,21.8537931 C40.777931,21.9793103 40.4068966,22.1324138 40.0441379,22.3034483 C39.9544828,22.3448276 39.8662069,22.3875862 39.777931,22.4317241 C39.4041379,22.622069 39.0413793,22.8303448 38.6965517,23.0648276 C38.657931,23.0910345 38.6234483,23.1213793 38.5848276,23.1475862 C38.2731034,23.3668966 37.977931,23.6068966 37.6951724,23.862069 C37.6234483,23.9255172 37.5531034,23.9889655 37.4827586,24.0551724 C37.1834483,24.3406897 36.8993103,24.6427586 36.6372414,24.9641379 C36.5986207,25.0110345 36.5655172,25.062069 36.5282759,25.1103448 C36.3006897,25.4027586 36.0910345,25.7075862 35.897931,26.0248276 C35.8496552,26.1034483 35.8,26.1806897 35.7544828,26.262069 C35.5475862,26.6234483 35.3627586,26.9972414 35.2027586,27.3848276 C35.1751724,27.4537931 35.1531034,27.5241379 35.1255172,27.5931034 C34.9931034,27.937931 34.8827586,28.2910345 34.7903448,28.6524138 C34.7751724,28.7103448 34.7503448,28.7627586 34.7365517,28.8206897 C34.0151724,28.28 33.2206897,27.857931 32.3834483,27.5393103 C32.3048276,27.5089655 32.2248276,27.4827586 32.1434483,27.4551724 C31.7517241,27.3172414 31.3517241,27.2055172 30.942069,27.12 C30.8634483,27.1034483 30.7875862,27.0827586 30.7089655,27.0689655 C30.6234483,27.0537931 30.5406897,27.0262069 30.4537931,27.0124138 C30.1931034,26.6868966 29.9668966,26.3489655 29.777931,26.0027586 C29.7889655,25.9710345 29.7931034,25.9365517 29.8041379,25.9048276 C29.9613793,25.4496552 30.0882759,24.9806897 30.1765517,24.4965517 C30.1917241,24.4165517 30.2,24.3365517 30.2137931,24.2565517 C30.2937931,23.7682759 30.3448276,23.2703448 30.3448276,22.7586207 C30.3448276,22.2468966 30.2937931,21.7489655 30.2165517,21.2593103 C30.2041379,21.177931 30.1944828,21.097931 30.1793103,21.017931 C30.0910345,20.5337931 29.9641379,20.0648276 29.8055172,19.6082759 C29.7944828,19.5751724 29.7917241,19.542069 29.7806897,19.5103448 Z M20.6896552,15.862069 C23.5241379,15.862069 25.9627586,17.5848276 27.0206897,20.0358621 C27.1862069,20.422069 27.3062069,20.8193103 27.4,21.222069 C27.4110345,21.2689655 27.4331034,21.3117241 27.4427586,21.36 C27.537931,21.817931 27.5862069,22.2855172 27.5862069,22.7586207 C27.5862069,23.2317241 27.537931,23.6993103 27.4427586,24.1572414 C27.4331034,24.2055172 27.4110345,24.2468966 27.4,24.2951724 C27.3075862,24.697931 27.1875862,25.0951724 27.0206897,25.4813793 C26.5131034,26.6551724 25.6855172,27.6551724 24.6524138,28.3848276 C24.5806897,28.4358621 24.5075862,28.4868966 24.4344828,28.5337931 C24.1172414,28.7406897 23.7834483,28.9255172 23.4331034,29.0786207 C23.3710345,29.1048276 23.3075862,29.1255172 23.2455172,29.1517241 C22.4524138,29.4689655 21.5931034,29.6551724 20.6896552,29.6551724 C20.4827586,29.6551724 20.28,29.6427586 20.0786207,29.622069 C20.0455172,29.6027586 20.0096552,29.5862069 19.9751724,29.5668966 C19.8041379,29.4675862 19.6289655,29.3765517 19.4510345,29.2882759 C19.3572414,29.2413793 19.2634483,29.1958621 19.1696552,29.1517241 C18.9875862,29.0689655 18.8041379,28.9931034 18.6165517,28.9213793 C18.5255172,28.8868966 18.4331034,28.8524138 18.3406897,28.8206897 C18.1393103,28.7503448 17.9365517,28.6868966 17.7296552,28.6303448 C17.6537931,28.6096552 17.5793103,28.5903448 17.5034483,28.5724138 C17.2758621,28.5158621 17.0468966,28.4662069 16.8124138,28.4262069 C16.7917241,28.422069 16.7724138,28.4165517 16.7517241,28.4137931 C14.8937931,27.12 13.7931034,25.0262069 13.7931034,22.7586207 C13.7931034,18.9558621 16.8868966,15.862069 20.6896552,15.862069 Z M8.27586207,37.9310345 C8.27586207,34.1282759 11.3696552,31.0344828 15.1724138,31.0344828 C15.5793103,31.0344828 15.9724138,31.0868966 16.36,31.1544828 C16.4717241,31.1737931 16.5834483,31.1917241 16.6937931,31.2165517 C17.0455172,31.2965517 17.3862069,31.4027586 17.7144828,31.5337931 C17.8082759,31.5710345 17.9006897,31.6110345 17.9931034,31.6524138 C18.3434483,31.8110345 18.6841379,31.9875862 19,32.2 L19.0386207,32.2248276 C19.6937931,32.6703448 20.2537931,33.2372414 20.7227586,33.8744828 C20.8262069,34.0151724 20.9227586,34.16 21.0151724,34.3062069 C21.1531034,34.5282759 21.2786207,34.76 21.3903448,34.9972414 C21.4551724,35.1337931 21.5213793,35.2703448 21.577931,35.4110345 C21.6868966,35.6882759 21.7710345,35.9765517 21.8441379,36.2689655 C21.8744828,36.3903448 21.9144828,36.5089655 21.937931,36.6317241 C22.017931,37.0537931 22.0689655,37.4868966 22.0689655,37.9310345 C22.0689655,38.3572414 22.017931,38.7710345 21.9434483,39.1765517 C21.9296552,39.2482759 21.9227586,39.32 21.9062069,39.3903448 C21.8317241,39.7337931 21.72,40.0634483 21.5958621,40.3862069 C21.5434483,40.5227586 21.4896552,40.657931 21.4275862,40.7917241 C21.3434483,40.9751724 21.24,41.1462069 21.1406897,41.3213793 C21.0331034,41.5089655 20.9351724,41.702069 20.8110345,41.8786207 C20.697931,42.04 20.5627586,42.182069 20.4358621,42.3324138 C20.1737931,42.6455172 19.8855172,42.9337931 19.5724138,43.1958621 C19.422069,43.3213793 19.2813793,43.4565517 19.12,43.5682759 C18.942069,43.6937931 18.7475862,43.7931034 18.5572414,43.9006897 C17.5544828,44.4744828 16.4082759,44.8275862 15.1724138,44.8275862 C11.3696552,44.8275862 8.27586207,41.7337931 8.27586207,37.9310345 Z M6.38068966,57.8151724 C5.8137931,56.7986207 5.51724138,55.6634483 5.51724138,54.4827586 C5.51724138,50.68 8.61103448,47.5862069 12.4137931,47.5862069 C14.2344828,47.5862069 15.8827586,48.3089655 17.1158621,49.4675862 C17.3737931,49.7089655 17.6013793,49.9751724 17.8165517,50.2496552 C17.8868966,50.3393103 17.9682759,50.4193103 18.0344828,50.5131034 C18.262069,50.8344828 18.4524138,51.1793103 18.622069,51.5337931 C18.6524138,51.5972414 18.6951724,51.6551724 18.7227586,51.72 C18.8993103,52.12 19.0317241,52.5393103 19.1296552,52.9655172 C19.1365517,52.9972414 19.1517241,53.0275862 19.1586207,53.0593103 C19.257931,53.5241379 19.3103448,54.0013793 19.3103448,54.4827586 C19.3103448,54.8013793 19.2827586,55.1268966 19.2289655,55.4675862 C18.5310345,55.8096552 17.8910345,56.2524138 17.2937931,56.7503448 C17.177931,56.8455172 17.0551724,56.9324138 16.9448276,57.0344828 C16.7572414,57.2055172 16.5889655,57.3958621 16.4151724,57.582069 C16.2648276,57.742069 16.1103448,57.897931 15.9710345,58.0675862 C15.8303448,58.2413793 15.7048276,58.4262069 15.5765517,58.6096552 C15.4744828,58.7544828 15.3572414,58.8882759 15.2634483,59.0386207 C15.2331034,59.0165517 15.1986207,59.0013793 15.1668966,58.9806897 C14.8303448,58.7462069 14.4786207,58.5324138 14.1131034,58.3406897 C14.0055172,58.2841379 13.8951724,58.2344828 13.7862069,58.182069 C13.4648276,58.0289655 13.1351724,57.8924138 12.7958621,57.7751724 C12.7172414,57.7475862 12.6427586,57.7144828 12.5627586,57.6896552 C12.1613793,57.5627586 11.7462069,57.4689655 11.3241379,57.3944828 C11.2151724,57.3751724 11.1048276,57.36 10.9958621,57.3448276 C10.5544828,57.2841379 10.1103448,57.2413793 9.65517241,57.2413793 C9.13931034,57.2413793 8.63586207,57.2937931 8.14206897,57.3724138 C8.06068966,57.3848276 7.97931034,57.3944828 7.89931034,57.4096552 C7.41241379,57.4993103 6.94068966,57.6289655 6.48137931,57.7889655 C6.44827586,57.8 6.4137931,57.8027586 6.38068966,57.8151724 Z M9.65517241,73.7931034 C5.85241379,73.7931034 2.75862069,70.6993103 2.75862069,66.8965517 C2.75862069,64.1406897 4.39448276,61.7737931 6.73793103,60.6717241 C6.91586207,60.5889655 7.09655172,60.5144828 7.27862069,60.4482759 C7.46758621,60.377931 7.66068966,60.3213793 7.85655172,60.2675862 C8.07724138,60.2096552 8.29793103,60.1503448 8.52137931,60.1144828 C8.6537931,60.0924138 8.79310345,60.0882759 8.92827586,60.0731034 C9.85517241,59.9806897 10.7889655,60.0675862 11.6731034,60.3365517 C11.7572414,60.3627586 11.8413793,60.3862069 11.9241379,60.4151724 C12.1806897,60.5034483 12.4317241,60.6096552 12.6772414,60.7282759 C12.8193103,60.7986207 12.9572414,60.8744828 13.0924138,60.9544828 C13.2827586,61.0634483 13.4731034,61.1724138 13.6524138,61.2993103 C13.8606897,61.4482759 14.0524138,61.6151724 14.2413793,61.7862069 C14.3475862,61.8813793 14.4648276,61.9641379 14.5655172,62.0675862 C14.702069,62.2055172 14.8124138,62.3668966 14.9365517,62.5172414 C15.1117241,62.7282759 15.2896552,62.9365517 15.4372414,63.1641379 C15.5393103,63.3227586 15.617931,63.4951724 15.7075862,63.662069 C15.8234483,63.8758621 15.9462069,64.0868966 16.0386207,64.3117241 C16.1282759,64.5324138 16.1862069,64.7682759 16.2537931,65.0013793 C16.3075862,65.1889655 16.3793103,65.3724138 16.417931,65.5641379 C16.502069,65.9944828 16.5517241,66.44 16.5517241,66.8965517 C16.5517241,67.3337931 16.5006897,67.7586207 16.422069,68.1737931 C16.377931,68.4 16.3034483,68.622069 16.2358621,68.8455172 C16.1655172,69.0841379 16.1103448,69.3282759 16.0151724,69.5558621 L16.0041379,69.5875862 C14.9544828,72.0565517 12.5034483,73.7931034 9.65517241,73.7931034 Z M23.4482759,71.0344828 C21.7862069,71.0344828 20.2262069,70.4524138 18.9793103,69.3806897 C18.9862069,69.3544828 18.9889655,69.3268966 18.9958621,69.2993103 C19.08,68.9710345 19.1475862,68.6372414 19.1972414,68.297931 C19.2096552,68.2193103 19.2234483,68.1406897 19.2331034,68.062069 C19.2786207,67.68 19.3103448,67.2924138 19.3103448,66.8965517 C19.3103448,66.4096552 19.262069,65.9337931 19.1917241,65.4662069 C19.177931,65.377931 19.1668966,65.2910345 19.1517241,65.2027586 C19.0703448,64.742069 18.9572414,64.2924138 18.8124138,63.8565517 C18.7917241,63.7944828 18.7668966,63.7337931 18.7448276,63.6731034 C18.4124138,62.7393103 17.942069,61.8744828 17.3558621,61.0965517 C17.3462069,61.0841379 17.3393103,61.0689655 17.3296552,61.0565517 C17.4082759,60.902069 17.4731034,60.737931 17.5627586,60.5903448 C17.6068966,60.5172414 17.6468966,60.4427586 17.6937931,60.3724138 C17.9351724,60.0068966 18.2055172,59.662069 18.5117241,59.3489655 C18.5337931,59.3255172 18.5586207,59.3062069 18.5806897,59.2841379 C18.9048276,58.9627586 19.2565517,58.6675862 19.6413793,58.4137931 C19.6427586,58.4124138 19.6441379,58.4110345 19.6455172,58.4096552 C20.0482759,58.1434483 20.4813793,57.9172414 20.9393103,57.737931 L21.0413793,57.697931 C21.4193103,57.5544828 21.8096552,57.4441379 22.2110345,57.3696552 C22.3875862,57.3365517 22.5517241,57.3144828 22.7103448,57.2951724 C22.9558621,57.2675862 23.2,57.2413793 23.4482759,57.2413793 C23.8634483,57.2413793 24.2648276,57.2937931 24.6593103,57.3641379 C24.7834483,57.3862069 24.9075862,57.4124138 25.0303448,57.4427586 C25.3255172,57.5131034 25.6124138,57.6041379 25.8910345,57.7103448 C25.9903448,57.7489655 26.0937931,57.7751724 26.1917241,57.8193103 C26.9627586,58.1558621 27.6593103,58.6289655 28.2537931,59.2082759 C28.497931,59.4455172 28.7034483,59.7089655 28.9062069,59.9737931 C28.982069,60.0731034 29.0731034,60.1572414 29.1434483,60.2606897 C29.3006897,60.4896552 29.4165517,60.7406897 29.5448276,60.9848276 C30.0386207,61.9337931 30.3448276,62.9958621 30.3448276,64.137931 C30.3448276,64.5558621 30.2924138,64.96 30.222069,65.3572414 C30.2068966,65.4413793 30.1972414,65.5241379 30.1793103,65.6082759 C29.502069,68.7062069 26.7448276,71.0344828 23.4482759,71.0344828 Z M37.2413793,66.8965517 C35.6965517,66.8965517 34.2206897,66.3834483 33.0124138,65.44 C33.0165517,65.4124138 33.0151724,65.3848276 33.017931,65.3572414 C33.0689655,64.9572414 33.1034483,64.5517241 33.1034483,64.137931 C33.1034483,63.8206897 33.0855172,63.5062069 33.0551724,63.1944828 C33.0468966,63.1117241 33.0317241,63.0317241 33.022069,62.9489655 C32.9944828,62.7186207 32.9613793,62.4896552 32.9172414,62.2634483 C32.9006897,62.1806897 32.88,62.0993103 32.8606897,62.0165517 C32.8110345,61.7931034 32.7558621,61.5724138 32.6896552,61.3544828 C32.6662069,61.2786207 32.6413793,61.2041379 32.6165517,61.1296552 C32.5448276,60.9103448 32.4662069,60.6951724 32.3793103,60.4813793 C32.3503448,60.4096552 32.3186207,60.337931 32.2868966,60.2662069 C32.1972414,60.0606897 32.0993103,59.8593103 31.9944828,59.6593103 C31.9544828,59.582069 31.9131034,59.5062069 31.8703448,59.4317241 C31.7682759,59.2510345 31.6606897,59.0744828 31.5475862,58.9006897 C31.4896552,58.8124138 31.4331034,58.7227586 31.3724138,58.6358621 C31.2703448,58.4896552 31.1613793,58.3475862 31.0510345,58.2055172 C30.9682759,58.1006897 30.8868966,57.9944828 30.8,57.8924138 C30.7696552,57.8565517 30.7434483,57.8193103 30.7131034,57.7848276 C30.7710345,57.6124138 30.8537931,57.4537931 30.9241379,57.2882759 L31.08,56.9710345 C31.7489655,55.6110345 32.8648276,54.4937931 34.2234483,53.8262069 L34.5848276,53.6482759 C34.6855172,53.6068966 34.7834483,53.56 34.8868966,53.5241379 C35.1048276,53.4441379 35.3268966,53.3862069 35.5489655,53.3310345 C35.6634483,53.302069 35.7765517,53.2717241 35.8937931,53.2482759 C36.0951724,53.2082759 36.297931,53.182069 36.5006897,53.1613793 C36.6344828,53.1475862 36.7682759,53.1365517 36.9034483,53.1296552 C37.0965517,53.1213793 37.2882759,53.12 37.4813793,53.1268966 C37.7462069,53.1365517 38.0055172,53.1668966 38.262069,53.2055172 C38.5337931,53.2468966 38.8,53.3048276 39.0648276,53.377931 C39.2634483,53.4331034 39.462069,53.4896552 39.6537931,53.5613793 C39.8358621,53.6289655 40.0137931,53.7062069 40.1889655,53.7889655 C40.3917241,53.8855172 40.5875862,53.9944828 40.7793103,54.1103448 C40.9103448,54.1889655 41.0468966,54.2593103 41.1737931,54.3462069 C41.4524138,54.5406897 41.7089655,54.76 41.9558621,54.9917241 C42.2165517,55.2372414 42.4427586,55.5062069 42.6593103,55.7806897 C42.7337931,55.8758621 42.8193103,55.96 42.8896552,56.0593103 C43.0689655,56.3144828 43.2096552,56.5889655 43.3517241,56.8634483 C43.4234483,57.0041379 43.5144828,57.1324138 43.577931,57.2786207 C43.6910345,57.537931 43.76,57.8151724 43.8386207,58.0882759 C43.8882759,58.2593103 43.96,58.4206897 43.9972414,58.5972414 C44.0868966,59.0537931 44.137931,59.5227586 44.137931,60 C44.137931,63.8027586 41.0441379,66.8965517 37.2413793,66.8965517 Z M51.0344828,61.3793103 C49.537931,61.3793103 48.0910345,60.8896552 46.8965517,59.9889655 C46.8965517,59.982069 46.8951724,59.9765517 46.8951724,59.9710345 C46.8937931,59.5144828 46.8510345,59.0675862 46.7875862,58.6275862 C46.7751724,58.5475862 46.7641379,58.4675862 46.7503448,58.3875862 C46.5889655,57.4386207 46.2910345,56.5365517 45.8744828,55.702069 C45.8675862,55.6882759 45.8606897,55.6744828 45.8537931,55.6606897 C45.6317241,55.2234483 45.3793103,54.8055172 45.0965517,54.4082759 C45.0951724,54.4055172 45.0937931,54.4027586 45.0924138,54.4 C45.7517241,53.9889655 46.3462069,53.4951724 46.8813793,52.9448276 C46.9737931,52.8496552 47.062069,52.7517241 47.1503448,52.6537931 C47.3572414,52.4234483 47.5503448,52.1834483 47.7337931,51.9351724 C47.8151724,51.8248276 47.902069,51.72 47.977931,51.6068966 C48.1889655,51.2937931 48.3806897,50.9682759 48.5531034,50.6331034 C48.6551724,50.4372414 48.7406897,50.2331034 48.8289655,50.0303448 C48.8965517,49.8731034 48.9627586,49.7144828 49.022069,49.5531034 C49.1144828,49.3048276 49.2013793,49.0565517 49.2744828,48.8 C49.2855172,48.76 49.2924138,48.72 49.3034483,48.68 C49.3765517,48.4068966 49.4496552,48.1337931 49.4993103,47.8537931 C50.0151724,47.7213793 50.6593103,47.5862069 51.0344828,47.5862069 C51.4910345,47.5862069 51.9365517,47.6358621 52.3682759,47.7213793 C52.5586207,47.7586207 52.7393103,47.8289655 52.9241379,47.8827586 C53.1586207,47.9503448 53.3972414,48.0082759 53.6206897,48.0993103 C53.84,48.1889655 54.0468966,48.3103448 54.2565517,48.4234483 C54.4289655,48.5158621 54.6068966,48.5958621 54.7696552,48.702069 C54.9917241,48.8468966 55.1958621,49.0206897 55.4027586,49.1917241 C56.9337931,50.4565517 57.9310345,52.3462069 57.9310345,54.4827586 C57.9310345,58.2855172 54.8372414,61.3793103 51.0344828,61.3793103 Z M60.6896552,40.6896552 C60.6896552,43.2882759 59.1986207,45.6675862 56.9117241,46.8317241 C56.8868966,46.8124138 56.8593103,46.8 56.8344828,46.782069 C56.0565517,46.1944828 55.1903448,45.7241379 54.2551724,45.3917241 C54.1944828,45.3696552 54.1365517,45.3462069 54.0758621,45.3255172 C53.6386207,45.1806897 53.1889655,45.0675862 52.7268966,44.9848276 C52.64,44.9696552 52.5531034,44.9572414 52.4648276,44.9448276 C51.9972414,44.8758621 51.5213793,44.8275862 51.0344828,44.8275862 C51.0013793,44.8275862 50.8772414,44.8386207 50.7186207,44.8551724 C50.3337931,44.8675862 49.9503448,44.8965517 49.5696552,44.9558621 C49.5655172,44.9268966 49.5558621,44.897931 49.5517241,44.8689655 C49.5006897,44.5048276 49.4289655,44.1489655 49.3393103,43.8 C49.3227586,43.737931 49.3089655,43.6758621 49.2910345,43.6137931 C49.057931,42.7793103 48.7158621,41.9931034 48.28,41.2662069 C48.2565517,41.2262069 48.2331034,41.1875862 48.2082759,41.1489655 C47.9806897,40.782069 47.737931,40.4248276 47.4648276,40.0924138 C47.5034483,40.0786207 47.537931,40.057931 47.5751724,40.0441379 C47.8703448,39.9324138 48.1572414,39.8055172 48.4372414,39.6675862 C48.48,39.6455172 48.5213793,39.6234483 48.5641379,39.6013793 C48.8675862,39.4441379 49.1613793,39.2731034 49.4455172,39.0868966 C49.4510345,39.0827586 49.4565517,39.08 49.462069,39.0758621 C51.3268966,37.8427586 52.7365517,35.9903448 53.3889655,33.8082759 C57.337931,33.56 60.6896552,36.7531034 60.6896552,40.6896552 Z M63.5172414,20.0689655 C70.7296552,20.7544828 76.4868966,26.5117241 77.1724138,33.7241379 C69.96,33.0386207 64.2027586,27.2813793 63.5172414,20.0689655 Z" id="Shape"></path>
            </g>
        </g>
    </g>
</svg>