<?xml version="1.0" encoding="UTF-8"?>
<svg width="89px" height="64px" viewBox="0 0 89 64" version="1.1" xmlns="http://www.w3.org/2000/svg" xmlns:xlink="http://www.w3.org/1999/xlink">
    <!-- Generator: Sketch 47.1 (45422) - http://www.bohemiancoding.com/sketch -->
    <title>complex-feature-3</title>
    <desc>Created with Sketch.</desc>
    <defs>
        <linearGradient x1="0%" y1="50%" x2="99.981075%" y2="50%" id="linearGradient-1">
            <stop stop-color="#F47C22" offset="0%"></stop>
            <stop stop-color="#FFCD02" offset="100%"></stop>
        </linearGradient>
        <path d="M10.3952,13.3089 C10.0542,15.2499 8.3462,16.7239 6.3062,16.7239 C4.2662,16.7329 2.5682,15.2499 2.2262,13.3089 L10.3952,13.3089 Z" id="path-2"></path>
        <filter x="-336.6%" y="-512.4%" width="773.3%" height="1710.5%" filterUnits="objectBoundingBox" id="filter-3">
            <feOffset dx="0" dy="10" in="SourceAlpha" result="shadowOffsetOuter1"></feOffset>
            <feGaussianBlur stdDeviation="7.5" in="shadowOffsetOuter1" result="shadowBlurOuter1"></feGaussianBlur>
            <feColorMatrix values="0 0 0 0 1   0 0 0 0 0.792156863   0 0 0 0 0.0156862745  0 0 0 0.2 0" type="matrix" in="shadowBlurOuter1"></feColorMatrix>
        </filter>
        <path d="M16.5869,23.0681 L13.4509,23.0681 C12.5969,23.0681 11.9139,23.7601 11.9139,24.6051 L11.9139,36.2421 L18.1149,36.2421 L18.1239,36.2421 L18.1239,24.6051 C18.1239,23.7511 17.4319,23.0681 16.5869,23.0681" id="path-4"></path>
        <filter x="-442.8%" y="-132.8%" width="985.7%" height="517.5%" filterUnits="objectBoundingBox" id="filter-5">
            <feOffset dx="0" dy="10" in="SourceAlpha" result="shadowOffsetOuter1"></feOffset>
            <feGaussianBlur stdDeviation="7.5" in="shadowOffsetOuter1" result="shadowBlurOuter1"></feGaussianBlur>
            <feColorMatrix values="0 0 0 0 1   0 0 0 0 0.792156863   0 0 0 0 0.0156862745  0 0 0 0.2 0" type="matrix" in="shadowBlurOuter1"></feColorMatrix>
        </filter>
        <path d="M16.7666,16.7237 C18.8066,16.7237 20.5046,15.2497 20.8466,13.3087 L12.6776,13.3087 C13.0286,15.2497 14.7266,16.7237 16.7666,16.7237" id="path-6"></path>
        <filter x="-336.6%" y="-512.4%" width="773.3%" height="1710.5%" filterUnits="objectBoundingBox" id="filter-7">
            <feOffset dx="0" dy="10" in="SourceAlpha" result="shadowOffsetOuter1"></feOffset>
            <feGaussianBlur stdDeviation="7.5" in="shadowOffsetOuter1" result="shadowBlurOuter1"></feGaussianBlur>
            <feColorMatrix values="0 0 0 0 1   0 0 0 0 0.792156863   0 0 0 0 0.0156862745  0 0 0 0.2 0" type="matrix" in="shadowBlurOuter1"></feColorMatrix>
        </filter>
        <polygon id="path-8" points="35.728 2.1657 8.238 2.1657 3.134 11.1607 40.841 11.1607"></polygon>
        <filter x="-72.9%" y="-194.6%" width="245.9%" height="711.5%" filterUnits="objectBoundingBox" id="filter-9">
            <feOffset dx="0" dy="10" in="SourceAlpha" result="shadowOffsetOuter1"></feOffset>
            <feGaussianBlur stdDeviation="7.5" in="shadowOffsetOuter1" result="shadowBlurOuter1"></feGaussianBlur>
            <feColorMatrix values="0 0 0 0 1   0 0 0 0 0.792156863   0 0 0 0 0.0156862745  0 0 0 0.2 0" type="matrix" in="shadowBlurOuter1"></feColorMatrix>
        </filter>
        <path d="M27.2179,16.7237 C29.2579,16.7237 30.9559,15.2497 31.2979,13.3087 L23.1379,13.3087 C23.4799,15.2497 25.1779,16.7237 27.2179,16.7237" id="path-10"></path>
        <filter x="-337.0%" y="-512.4%" width="774.0%" height="1710.5%" filterUnits="objectBoundingBox" id="filter-11">
            <feOffset dx="0" dy="10" in="SourceAlpha" result="shadowOffsetOuter1"></feOffset>
            <feGaussianBlur stdDeviation="7.5" in="shadowOffsetOuter1" result="shadowBlurOuter1"></feGaussianBlur>
            <feColorMatrix values="0 0 0 0 1   0 0 0 0 0.792156863   0 0 0 0 0.0156862745  0 0 0 0.2 0" type="matrix" in="shadowBlurOuter1"></feColorMatrix>
        </filter>
        <path d="M37.6691,16.7327 C39.7091,16.7327 41.4071,15.2497 41.7581,13.3177 L33.5891,13.3177 C33.9311,15.2587 35.6291,16.7327 37.6691,16.7327" id="path-12"></path>
        <filter x="-336.6%" y="-512.4%" width="773.3%" height="1710.5%" filterUnits="objectBoundingBox" id="filter-13">
            <feOffset dx="0" dy="10" in="SourceAlpha" result="shadowOffsetOuter1"></feOffset>
            <feGaussianBlur stdDeviation="7.5" in="shadowOffsetOuter1" result="shadowBlurOuter1"></feGaussianBlur>
            <feColorMatrix values="0 0 0 0 1   0 0 0 0 0.792156863   0 0 0 0 0.0156862745  0 0 0 0.2 0" type="matrix" in="shadowBlurOuter1"></feColorMatrix>
        </filter>
    </defs>
    <g id="Page-1" stroke="none" stroke-width="1" fill="none" fill-rule="evenodd">
        <g id="3-1-apartments-main-1170" transform="translate(-159.000000, -4869.000000)">
            <g id="complex-feature-3" transform="translate(170.000000, 4872.000000)">
                <g id="Fill-1">
                    <use fill="black" fill-opacity="1" filter="url(#filter-3)" xlink:href="#path-2"></use>
                    <use fill="url(#linearGradient-1)" fill-rule="evenodd" xlink:href="#path-2"></use>
                </g>
                <g id="Fill-3">
                    <use fill="black" fill-opacity="1" filter="url(#filter-5)" xlink:href="#path-4"></use>
                    <use fill="url(#linearGradient-1)" fill-rule="evenodd" xlink:href="#path-4"></use>
                </g>
                <g id="Fill-5">
                    <use fill="black" fill-opacity="1" filter="url(#filter-7)" xlink:href="#path-6"></use>
                    <use fill="url(#linearGradient-1)" fill-rule="evenodd" xlink:href="#path-6"></use>
                </g>
                <g id="Fill-7">
                    <use fill="black" fill-opacity="1" filter="url(#filter-9)" xlink:href="#path-8"></use>
                    <use fill="url(#linearGradient-1)" fill-rule="evenodd" xlink:href="#path-8"></use>
                </g>
                <path d="M31.2438,23.0681 L25.2678,23.0681 C24.8278,23.0681 24.4588,23.4271 24.4588,23.8771 L24.4588,28.4601 C24.4588,28.9001 24.8188,29.2691 25.2678,29.2691 L31.2438,29.2691 C31.6838,29.2691 32.0528,28.9091 32.0528,28.4601 L32.0528,23.8771 C32.0528,23.4361 31.6928,23.0681 31.2438,23.0681" id="Fill-9" fill="#CCE7F5"></path>
                <g id="Fill-11">
                    <use fill="black" fill-opacity="1" filter="url(#filter-11)" xlink:href="#path-10"></use>
                    <use fill="url(#linearGradient-1)" fill-rule="evenodd" xlink:href="#path-10"></use>
                </g>
                <g id="Fill-13">
                    <use fill="black" fill-opacity="1" filter="url(#filter-13)" xlink:href="#path-12"></use>
                    <use fill="url(#linearGradient-1)" fill-rule="evenodd" xlink:href="#path-12"></use>
                </g>
                <path d="M34.2093,28.46 C34.2093,30.096 32.8793,31.426 31.2433,31.426 L25.2683,31.426 C23.6323,31.426 22.3023,30.096 22.3023,28.46 L22.3023,23.877 C22.3023,22.241 23.6323,20.911 25.2683,20.911 L31.2433,20.911 C32.8793,20.911 34.2093,22.241 34.2093,23.877 L34.2093,28.46 Z M32.4393,16.104 C31.3063,17.784 29.3923,18.889 27.2183,18.889 C25.0523,18.889 23.1293,17.784 21.9963,16.104 C20.8553,17.784 18.9413,18.889 16.7663,18.889 C14.5923,18.889 12.6693,17.784 11.5363,16.104 C10.4043,17.784 8.4813,18.889 6.3063,18.889 C6.1803,18.889 6.0553,18.889 5.9293,18.88 L5.9293,36.251 L9.7483,36.251 L9.7483,24.605 C9.7483,22.565 11.4103,20.911 13.4413,20.911 L16.5783,20.911 C18.6183,20.911 20.2713,22.574 20.2713,24.605 L20.2713,36.242 L38.0373,36.242 L38.0373,18.88 C37.9113,18.88 37.7953,18.889 37.6693,18.889 C35.4943,18.889 33.5713,17.784 32.4393,16.104 L32.4393,16.104 Z" id="Fill-15" fill="#FFFFFF"></path>
                <path d="M32.0546,28.46 C32.0546,28.909 31.6866,29.269 31.2456,29.269 L25.2696,29.269 C24.8206,29.269 24.4606,28.9 24.4606,28.46 L24.4606,23.877 C24.4606,23.428 24.8296,23.068 25.2696,23.068 L31.2456,23.068 C31.6956,23.068 32.0546,23.437 32.0546,23.877 L32.0546,28.46 Z M31.2456,20.911 L25.2696,20.911 C23.6346,20.911 22.3046,22.241 22.3046,23.877 L22.3046,28.46 C22.3046,30.096 23.6346,31.426 25.2696,31.426 L31.2456,31.426 C32.8816,31.426 34.2116,30.096 34.2116,28.46 L34.2116,23.877 C34.2116,22.241 32.8816,20.911 31.2456,20.911 L31.2456,20.911 Z" id="Fill-17" fill="#233A44"></path>
                <path d="M37.6711,16.7327 C35.6311,16.7327 33.9331,15.2587 33.5911,13.3177 L41.7601,13.3177 C41.4091,15.2497 39.7111,16.7327 37.6711,16.7327 L37.6711,16.7327 Z M38.0391,36.2427 L20.2731,36.2427 L20.2731,24.6047 C20.2731,22.5737 18.6201,20.9117 16.5801,20.9117 L13.4441,20.9117 C11.4131,20.9117 9.7501,22.5647 9.7501,24.6047 L9.7501,36.2517 L5.9311,36.2517 L5.9311,18.8807 C6.0571,18.8897 6.1831,18.8897 6.3081,18.8897 C8.4831,18.8897 10.4061,17.7837 11.5381,16.1037 C12.6711,17.7837 14.5941,18.8897 16.7691,18.8897 C18.9431,18.8897 20.8571,17.7837 21.9991,16.1037 C23.1311,17.7837 25.0541,18.8897 27.2201,18.8897 C29.3951,18.8897 31.3091,17.7837 32.4411,16.1037 C33.5731,17.7837 35.4961,18.8897 37.6711,18.8897 C37.7971,18.8897 37.9141,18.8807 38.0391,18.8807 L38.0391,36.2427 Z M18.1171,36.2427 L11.9161,36.2427 L11.9161,24.6047 C11.9161,23.7597 12.5991,23.0677 13.4531,23.0677 L16.5891,23.0677 C17.4341,23.0677 18.1261,23.7507 18.1261,24.6047 L18.1261,36.2427 L18.1171,36.2427 Z M2.2291,13.3087 L10.3971,13.3087 C10.0561,15.2497 8.3481,16.7237 6.3081,16.7237 C4.2681,16.7327 2.5701,15.2497 2.2291,13.3087 L2.2291,13.3087 Z M20.8481,13.3087 C20.5071,15.2497 18.8081,16.7237 16.7691,16.7237 C14.7291,16.7237 13.0301,15.2497 12.6801,13.3087 L20.8481,13.3087 Z M31.3001,13.3087 C30.9581,15.2497 29.2601,16.7237 27.2201,16.7237 C25.1801,16.7237 23.4811,15.2497 23.1401,13.3087 L31.3001,13.3087 Z M8.2401,2.1657 L35.7301,2.1657 L40.8431,11.1607 L3.1361,11.1607 L8.2401,2.1657 Z M43.9791,12.5807 C43.9791,12.3927 43.9351,12.2127 43.8361,12.0507 L37.2941,0.5477 C37.1051,0.2157 36.7451,-0.0003 36.3591,-0.0003 L7.6111,-0.0003 C7.2251,-0.0003 6.8661,0.2067 6.6771,0.5477 L0.1441,12.0507 C0.0541,12.2127 0.0001,12.3927 0.0001,12.5807 C0.0001,15.1597 1.5551,17.3707 3.7741,18.3507 L3.7741,37.3207 C3.7741,37.9137 4.2591,38.3987 4.8531,38.3987 L10.8111,38.3987 L10.8381,38.3987 L19.1951,38.3987 L19.2221,38.3987 L39.1181,38.3987 C39.7111,38.3987 40.1961,37.9137 40.1961,37.3207 L40.1961,18.4847 C40.1961,18.4397 40.1961,18.4037 40.1871,18.3687 C42.4161,17.3887 43.9791,15.1687 43.9791,12.5807 L43.9791,12.5807 Z" id="Fill-19" fill="#322F31"></path>
                <polygon id="Fill-22" fill="#3E5F6B" points="62.325 36.158 63.598 36.158 63.598 27.248 62.325 27.248"></polygon>
                <polygon id="Fill-24" fill="#FCB842" points="49.595 30.43 54.687 30.43 54.687 29.794 49.595 29.794"></polygon>
                <polygon id="Fill-25" fill="#F4266A" points="76.3288 14.3267 62.9618 9.4657 49.5948 14.3267 49.5948 14.5177 76.3288 14.5177"></polygon>
                <polygon id="Fill-26" fill="#FCB842" points="71.236 25.3388 54.687 25.3388 54.687 25.9748 61.689 25.9748 64.236 25.9748 71.236 25.9748"></polygon>
                <polygon id="Fill-27" fill="#FCB842" points="71.236 30.43 76.329 30.43 76.329 29.794 71.236 29.794"></polygon>
                <path d="M71.235,30.402 L76.328,30.402 L76.328,29.766 L71.235,29.766 L71.235,30.402 Z M76.964,20.855 C76.614,20.855 76.329,21.14 76.329,21.491 L76.329,28.492 L70.6,28.492 C70.248,28.492 69.964,28.778 69.964,29.13 L69.964,31.04 L69.964,36.768 C69.964,37.119 70.248,37.404 70.6,37.404 C70.951,37.404 71.236,37.119 71.236,36.768 L71.236,31.676 L76.329,31.676 L76.329,36.768 C76.329,37.119 76.614,37.404 76.964,37.404 C77.317,37.404 77.602,37.119 77.602,36.768 L77.602,31.04 L77.602,29.13 L77.602,21.491 C77.602,21.14 77.317,20.855 76.964,20.855 L76.964,20.855 Z" id="Fill-28" fill="#233A44"></path>
                <path d="M49.595,30.402 L54.687,30.402 L54.687,29.766 L49.595,29.766 L49.595,30.402 Z M55.323,28.492 L49.595,28.492 L49.595,21.491 C49.595,21.14 49.31,20.855 48.958,20.855 C48.607,20.855 48.321,21.14 48.321,21.491 L48.321,29.13 L48.321,31.04 L48.321,36.768 C48.321,37.119 48.607,37.404 48.958,37.404 C49.31,37.404 49.595,37.119 49.595,36.768 L49.595,31.676 L54.687,31.676 L54.687,36.768 C54.687,37.119 54.972,37.404 55.323,37.404 C55.675,37.404 55.96,37.119 55.96,36.768 L55.96,31.04 L55.96,29.13 C55.96,28.778 55.675,28.492 55.323,28.492 L55.323,28.492 Z" id="Fill-29" fill="#233A44"></path>
                <path d="M76.3285,14.4896 L49.5945,14.4896 L49.5945,14.2986 L62.9615,9.4386 L76.3285,14.2986 L76.3285,14.4896 Z M71.2355,25.3106 L71.2355,25.9466 L64.2355,25.9466 L61.6885,25.9466 L54.6865,25.9466 L54.6865,25.3106 L71.2355,25.3106 Z M62.3245,36.1306 L63.5975,36.1306 L63.5975,27.2206 L62.3245,27.2206 L62.3245,36.1306 Z M77.1825,13.2546 L63.5975,8.3156 L63.5975,7.4876 C63.5975,7.1366 63.3135,6.8516 62.9615,6.8516 C62.6105,6.8516 62.3255,7.1366 62.3255,7.4876 L62.3255,8.3156 L48.7405,13.2546 C48.4895,13.3466 48.3215,13.5856 48.3215,13.8536 L48.3215,15.1256 C48.3215,15.4776 48.6065,15.7626 48.9585,15.7626 L62.3255,15.7626 L62.3255,24.0376 L54.0505,24.0376 C53.6985,24.0376 53.4135,24.3226 53.4135,24.6736 L53.4135,26.5826 C53.4135,26.9356 53.6985,27.2206 54.0505,27.2206 L61.0525,27.2206 L61.0525,36.1306 L59.1425,36.1306 C58.7905,36.1306 58.5065,36.4156 58.5065,36.7686 C58.5065,37.1196 58.7905,37.4046 59.1425,37.4046 L61.6885,37.4046 L64.2355,37.4046 L66.7805,37.4046 C67.1325,37.4046 67.4165,37.1196 67.4165,36.7686 C67.4165,36.4156 67.1325,36.1306 66.7805,36.1306 L64.8715,36.1306 L64.8715,27.2206 L71.8735,27.2206 C72.2245,27.2206 72.5095,26.9356 72.5095,26.5826 L72.5095,24.6736 C72.5095,24.3226 72.2245,24.0376 71.8735,24.0376 L63.5975,24.0376 L63.5975,15.7626 L76.9645,15.7626 C77.3165,15.7626 77.6025,15.4776 77.6025,15.1256 L77.6025,13.8536 C77.6025,13.5856 77.4345,13.3466 77.1825,13.2546 L77.1825,13.2546 Z" id="Fill-30" fill="#322F31"></path>
            </g>
        </g>
    </g>
</svg>