<?xml version="1.0" encoding="UTF-8"?>
<svg width="51px" height="58px" viewBox="0 0 51 58" version="1.1" xmlns="http://www.w3.org/2000/svg" xmlns:xlink="http://www.w3.org/1999/xlink">
    <!-- Generator: Sketch 47.1 (45422) - http://www.bohemiancoding.com/sketch -->
    <title>complex-feature-4</title>
    <desc>Created with Sketch.</desc>
    <defs>
        <linearGradient x1="0%" y1="50%" x2="99.981075%" y2="50%" id="linearGradient-1">
            <stop stop-color="#F47C22" offset="0%"></stop>
            <stop stop-color="#FFCD02" offset="100%"></stop>
        </linearGradient>
        <path d="M18.5014,21.4313 L18.5014,9.8133 C15.2404,11.8613 11.7314,13.1803 8.0594,13.7123 C7.4144,13.8043 6.9614,14.3923 7.0174,15.0443 C7.2304,17.2913 7.5774,19.4323 8.0674,21.4243 L18.4944,21.4243 L18.4944,21.4313 L18.5014,21.4313 Z" id="path-2"></path>
        <filter x="-239.4%" y="-150.6%" width="578.7%" height="573.4%" filterUnits="objectBoundingBox" id="filter-3">
            <feOffset dx="0" dy="10" in="SourceAlpha" result="shadowOffsetOuter1"></feOffset>
            <feGaussianBlur stdDeviation="7.5" in="shadowOffsetOuter1" result="shadowBlurOuter1"></feGaussianBlur>
            <feColorMatrix values="0 0 0 0 1   0 0 0 0 0.792156863   0 0 0 0 0.0156862745  0 0 0 0.2 0" type="matrix" in="shadowBlurOuter1"></feColorMatrix>
        </filter>
        <path d="M20.947,23.8699 L20.947,36.0909 C25.512,34.0779 28.808,29.9729 30.758,23.8699 L20.947,23.8699 Z" id="path-4"></path>
        <filter x="-280.3%" y="-143.2%" width="660.6%" height="550.0%" filterUnits="objectBoundingBox" id="filter-5">
            <feOffset dx="0" dy="10" in="SourceAlpha" result="shadowOffsetOuter1"></feOffset>
            <feGaussianBlur stdDeviation="7.5" in="shadowOffsetOuter1" result="shadowBlurOuter1"></feGaussianBlur>
            <feColorMatrix values="0 0 0 0 1   0 0 0 0 0.792156863   0 0 0 0 0.0156862745  0 0 0 0.2 0" type="matrix" in="shadowBlurOuter1"></feColorMatrix>
        </filter>
    </defs>
    <g id="Page-1" stroke="none" stroke-width="1" fill="none" fill-rule="evenodd">
        <g id="3-1-apartments-main-1170" transform="translate(-610.000000, -4869.000000)">
            <g id="complex-feature-4" transform="translate(617.000000, 4868.000000)">
                <g id="Page-1">
                    <path d="M37.01,10.3164 C37.003,9.6574 36.485,9.0904 35.748,9.0904 C35.791,9.0904 35.833,9.0904 35.748,9.0904 C28.128,9.2534 22.946,5.7234 20.522,3.7164 C20.061,3.3344 19.388,3.3344 18.927,3.7164 C16.446,5.7724 11.101,9.2674 3.743,9.0904 C2.956,9.1464 2.502,9.5504 2.446,10.3164 C2.453,18.2414 4.126,37.1404 19.409,41.5564 C19.614,41.6134 19.841,41.6134 20.047,41.5564 C35.337,37.1404 37.003,18.2344 37.01,10.3164" id="Fill-1" fill="#EBEBEB"></path>
                    <g id="Group-5" transform="translate(0.000000, 0.040800)" fill="#322F31">
                        <path d="M19.4159,41.5154 C4.1189,37.0994 2.4529,18.1934 2.4459,10.2754 C2.5019,9.5034 2.9559,9.1134 3.7429,9.0494 C11.1009,9.2194 16.4459,5.7384 18.9269,3.6764 C19.3879,3.2934 20.0609,3.2934 20.5219,3.6764 C22.9529,5.6824 28.1419,9.2124 35.7479,9.0494 C35.8329,9.0494 35.7909,9.0494 35.7479,9.0494 C36.4849,9.0494 37.0029,9.6164 37.0099,10.2754 C37.0029,18.2004 35.3299,37.0994 20.0469,41.5154 C19.8409,41.5724 19.6069,41.5724 19.4159,41.5154 M35.6489,6.5964 C29.0709,6.7594 24.3139,3.6334 22.0809,1.7834 C20.7489,0.6844 18.6859,0.6844 17.3599,1.7834 C15.1419,3.6334 10.3849,6.7664 3.8069,6.5964 L3.7149,6.5964 C1.5529,6.6324 0.0639,8.2554 -0.0001,10.2754 C-0.0001,18.7604 1.8499,38.9914 18.7279,43.8614 C19.4659,44.0464 20.1319,44.0464 20.7199,43.8614 C37.6059,38.9914 39.4559,18.7534 39.4629,10.2754 C39.4629,8.3044 37.8959,6.5614 35.6489,6.5964" id="Fill-3"></path>
                    </g>
                    <g id="Fill-6">
                        <use fill="black" fill-opacity="1" filter="url(#filter-3)" xlink:href="#path-2"></use>
                        <use fill="url(#linearGradient-1)" fill-rule="evenodd" xlink:href="#path-2"></use>
                    </g>
                    <path d="M18.5014,36.0837 L18.5014,23.8697 L8.7544,23.8697 C10.7114,29.9807 13.9864,34.0707 18.5014,36.0837" id="Fill-8" fill="#FFFFFF"></path>
                    <path d="M31.4313,13.7189 C27.7453,13.1869 24.2293,11.8689 20.9473,9.8129 L20.9473,21.4239 L31.4383,21.4239 C31.9203,19.4249 32.2683,17.2919 32.4663,15.0449 C32.5233,14.3999 32.0763,13.8109 31.4313,13.7189" id="Fill-10" fill="#FFFFFF"></path>
                    <g id="Fill-12">
                        <use fill="black" fill-opacity="1" filter="url(#filter-5)" xlink:href="#path-4"></use>
                        <use fill="url(#linearGradient-1)" fill-rule="evenodd" xlink:href="#path-4"></use>
                    </g>
                    <path d="M35.7482,9.0829 L35.7482,9.0829 C35.6202,9.0829 35.6912,9.0829 35.7482,9.0829" id="Fill-14" fill="#194F82"></path>
                    <path d="M31.4454,21.4456 L20.9474,21.4456 L20.9474,9.8056 C24.2154,11.8616 27.7454,13.1876 31.4314,13.7186 C32.0764,13.8106 32.5304,14.3996 32.4734,15.0376 C32.2814,17.0856 31.9704,19.2696 31.4454,21.4456 L31.4454,21.4456 Z M20.9474,36.0906 L20.9474,23.8986 L30.7644,23.8986 C29.1344,29.0236 26.1854,33.7866 20.9474,36.0906 L20.9474,36.0906 Z M18.5014,21.4456 L8.0664,21.4456 C7.5424,19.2696 7.2094,17.0786 7.0244,15.0376 C6.9684,14.3856 7.4214,13.7966 8.0664,13.7046 C11.7384,13.1656 15.2404,11.8406 18.5084,9.7916 L18.5084,21.4456 L18.5014,21.4456 Z M18.5014,36.0836 C13.3264,33.7796 10.3844,29.0236 8.7474,23.8986 L18.5014,23.8986 L18.5014,36.0836 Z M31.7784,11.2946 C28.2484,10.7776 24.8744,9.4726 21.7484,7.4166 C20.5434,6.6236 18.9124,6.6236 17.7074,7.4166 C14.5884,9.4726 11.2284,10.7846 7.7124,11.2876 C5.7774,11.5786 4.4094,13.3216 4.5934,15.2716 C5.2524,22.3036 7.9254,34.6946 18.4024,38.6856 C19.2384,38.9966 20.1314,38.9826 21.0604,38.6856 C31.6434,34.6656 34.2804,22.2816 34.9044,15.2566 C35.0814,13.3216 33.7064,11.5786 31.7784,11.2946 L31.7784,11.2946 Z" id="Fill-16" fill="#322F31"></path>
                </g>
            </g>
        </g>
    </g>
</svg>