<?xml version="1.0" encoding="UTF-8"?>
<svg width="18px" height="20px" viewBox="0 0 18 20" version="1.1" xmlns="http://www.w3.org/2000/svg" xmlns:xlink="http://www.w3.org/1999/xlink">
    <!-- Generator: Sketch 47.1 (45422) - http://www.bohemiancoding.com/sketch -->
    <title>Page 1</title>
    <desc>Created with Sketch.</desc>
    <defs></defs>
    <g id="Page-1" stroke="none" stroke-width="1" fill="none" fill-rule="evenodd">
        <g id="stangher-coworking-apartments" transform="translate(-776.000000, -6124.000000)" fill="#B8B8B8">
            <g id="Page-1" transform="translate(776.000000, 6124.000000)">
                <path d="M17.6494353,14.0677778 L15.5605529,12.8944444 L17.3711412,11.8566667 C17.7042,11.6655556 17.8159647,11.2466667 17.6192588,10.9222222 C17.4225529,10.5977778 16.9911412,10.49 16.6580824,10.6811111 L14.1634941,12.1111111 L10.4037294,10 L14.1634941,7.88888889 L16.6580824,9.31888889 C16.7698471,9.38333333 16.8927882,9.41333333 17.0134941,9.41333333 C17.2537882,9.41333333 17.4884941,9.29333333 17.6192588,9.07777778 C17.8159647,8.75222222 17.7042,8.33444444 17.3711412,8.14333333 L15.5594353,7.10555556 L17.6494353,5.93222222 C17.9847294,5.74333333 18.0998471,5.32666667 17.9064941,5 C17.7120235,4.67333333 17.2828471,4.56111111 16.9475529,4.75 L14.8586706,5.92333333 L14.8396706,3.87888889 C14.8363176,3.50222222 14.5177882,3.19777778 14.1310824,3.20333333 C13.7443765,3.20666667 13.4325529,3.51444444 13.4359059,3.89111111 L13.4616118,6.70666667 L9.70184706,8.81777778 L9.70184706,4.59666667 L12.2232588,3.21111111 C12.5607882,3.02555556 12.6792588,2.60888889 12.4892588,2.28111111 C12.2981412,1.95333333 11.8700824,1.83666667 11.5325529,2.02222222 L9.70184706,3.02888889 L9.70184706,0.682222222 C9.70184706,0.305555556 9.38778824,0 8.99996471,0 C8.61325882,0 8.29808235,0.305555556 8.29808235,0.682222222 L8.29808235,3.02888889 L6.46849412,2.02333333 C6.13096471,1.83666667 5.70290588,1.95333333 5.51178824,2.28111111 C5.32178824,2.60888889 5.44025882,3.02555556 5.77778824,3.21111111 L8.29808235,4.59666667 L8.29808235,8.81777778 L4.53831765,6.70666667 L4.56514118,3.89111111 C4.56849412,3.51444444 4.25667059,3.20666667 3.86884706,3.20333333 L3.86325882,3.20333333 C3.47767059,3.20333333 3.16472941,3.50444444 3.16137647,3.87888889 L3.14237647,5.92333333 L1.05237647,4.75 C0.717082353,4.56111111 0.287905882,4.67333333 0.0945529412,5 C-0.0999176471,5.32666667 0.0152,5.74333333 0.351611765,5.93222222 L2.44049412,7.10555556 L0.629905882,8.14333333 C0.295729412,8.33444444 0.185082353,8.75333333 0.381788235,9.07777778 C0.512552941,9.29333333 0.746141176,9.41333333 0.986435294,9.41333333 C1.10825882,9.41333333 1.23008235,9.38333333 1.34296471,9.31888889 L3.83755294,7.88888889 L7.5962,10 L3.83643529,12.1111111 L1.34296471,10.6811111 C1.00878824,10.49 0.578494118,10.5977778 0.381788235,10.9222222 C0.183964706,11.2466667 0.295729412,11.6655556 0.629905882,11.8566667 L2.44049412,12.8944444 L0.350494118,14.0677778 C0.0152,14.2555556 -0.0999176471,14.6733333 0.0945529412,15 C0.2242,15.2188889 0.460023529,15.3411111 0.702552941,15.3411111 C0.821023529,15.3411111 0.942847059,15.3122222 1.05237647,15.25 L3.14237647,14.0766667 L3.16137647,16.1211111 C3.16472941,16.4955556 3.47767059,16.7966667 3.86214118,16.7966667 L3.86884706,16.7966667 C4.25667059,16.7933333 4.56849412,16.4855556 4.56402353,16.1088889 L4.53831765,13.2933333 L8.29808235,11.1822222 L8.29808235,15.4033333 L5.77778824,16.7888889 C5.44025882,16.9744444 5.32178824,17.3911111 5.51178824,17.7188889 C5.64143529,17.9411111 5.87837647,18.0655556 6.12314118,18.0655556 C6.24049412,18.0655556 6.35896471,18.0377778 6.46849412,17.9766667 L8.29808235,16.9711111 L8.29808235,19.3177778 C8.29808235,19.6944444 8.61325882,20 8.99996471,20 C9.38778824,20 9.70184706,19.6944444 9.70184706,19.3177778 L9.70184706,16.9711111 L11.5325529,17.9766667 C11.6409647,18.0377778 11.7594353,18.0655556 11.8767882,18.0655556 C12.1215529,18.0655556 12.3596118,17.9411111 12.4892588,17.7188889 C12.6792588,17.3911111 12.5607882,16.9744444 12.2232588,16.7888889 L9.70184706,15.4033333 L9.70184706,11.1822222 L13.4616118,13.2933333 L13.4347882,16.1077778 C13.4314353,16.4855556 13.7432588,16.7933333 14.1310824,16.7966667 C14.1333176,16.7977778 14.1344353,16.7977778 14.1366706,16.7977778 C14.5222588,16.7977778 14.8352,16.4955556 14.8385529,16.1211111 L14.8586706,14.0766667 L16.9475529,15.25 C17.0582,15.3122222 17.1789059,15.3411111 17.2973765,15.3411111 C17.5410235,15.3411111 17.7768471,15.2188889 17.9064941,15 C18.0998471,14.6733333 17.9847294,14.2555556 17.6494353,14.0677778" id="Fill-1"></path>
            </g>
        </g>
    </g>
</svg>