<?xml version="1.0" encoding="UTF-8"?>
<svg width="238px" height="242px" viewBox="0 0 238 242" version="1.1" xmlns="http://www.w3.org/2000/svg" xmlns:xlink="http://www.w3.org/1999/xlink">
    <!-- Generator: Sketch 47.1 (45422) - http://www.bohemiancoding.com/sketch -->
    <title>crihan-house</title>
    <desc>Created with Sketch.</desc>
    <defs></defs>
    <g id="Page-1" stroke="none" stroke-width="1" fill="none" fill-rule="evenodd">
        <g id="2-7-1-chisinau-guest-house-crihan" transform="translate(-889.000000, -872.000000)" fill="#C9C9C9">
            <g id="crihan-house" transform="translate(891.000000, 874.000000)">
                <path d="M111.780629,70.5080101 C111.401603,70.9246405 110.86447,71.1621377 110.301228,71.1621377 L91.5942029,71.1621377 C89.8380115,71.1621377 88.9345202,69.0606668 90.1427597,67.7861607 L155.708883,-1.37597693 C156.479253,-2.18859854 157.766649,-2.21047434 158.564183,-1.42449501 L228.743078,67.7376427 C230.017185,68.9932906 229.128076,71.1621377 227.339221,71.1621377 L207.683424,71.1621377 C207.146297,71.1621377 206.631745,70.9460876 206.255623,70.5626325 L157.215037,20.5658965 L111.780629,70.5080101 Z M96.2460926,67.1621377 L109.416914,67.1621377 L155.680925,16.3081131 C156.454306,15.4580028 157.783358,15.4330317 158.588127,16.2534906 L208.523184,67.1621377 L222.460525,67.1621377 L157.208853,2.85583677 L96.2460926,67.1621377 Z" id="Path-3" fill-rule="nonzero"></path>
                <path d="M2.50804014,72.1585145 L2.97936966,75.2380752 L125.714881,75.2380752 L125.714881,72.1585145 L2.50804014,72.1585145 Z M0.178649366,68.1585145 L127.714881,68.1585145 C128.819451,68.1585145 129.714881,69.053945 129.714881,70.1585145 L129.714881,77.2380752 C129.714881,78.3426447 128.819451,79.2380752 127.714881,79.2380752 L1.26218247,79.2380752 C0.274451307,79.2380752 -0.565363551,78.5170155 -0.714796617,77.5406536 L-1.79832972,70.4610929 C-1.98368069,69.2500515 -1.04649403,68.1585145 0.178649366,68.1585145 Z" id="Path-4" fill-rule="nonzero"></path>
                <path d="M97.3090902,127.855072 L122.057971,127.855072 L122.057971,80.8405797 L97.0821415,80.8405797 L97.3090902,127.855072 Z M95.0724638,76.8405797 L124.057971,76.8405797 C125.162541,76.8405797 126.057971,77.7360102 126.057971,78.8405797 L126.057971,129.855072 C126.057971,130.959642 125.162541,131.855072 124.057971,131.855072 L95.3187213,131.855072 C94.2179202,131.855072 93.3240583,130.965515 93.3187446,129.864727 L93.0724871,78.850234 C93.0671369,77.7419053 93.9641221,76.8405797 95.0724638,76.8405797 Z" id="Path-4-Copy-2" fill-rule="nonzero"></path>
                <path d="M28.0908366,235.681159 L93.0724638,235.681159 L93.0724638,80.8405797 L27.5147019,80.8405797 L28.0908366,235.681159 Z M25.5072464,76.8405797 L95.0724638,76.8405797 C96.1770333,76.8405797 97.0724638,77.7360102 97.0724638,78.8405797 L97.0724638,237.681159 C97.0724638,238.785729 96.1770333,239.681159 95.0724638,239.681159 L26.0982644,239.681159 C24.9965999,239.681159 24.1023773,238.790258 24.0982783,237.688601 L23.5072602,78.8480213 C23.5031395,77.7405522 24.3997696,76.8405797 25.5072464,76.8405797 Z" id="Path-4-Copy-9" fill-rule="nonzero"></path>
                <path d="M8.95850716,80.8405797 L9.1121431,235.681159 L23.5072464,235.681159 L23.5072464,80.8405797 L8.95850716,80.8405797 Z M6.95652174,76.8405797 L25.5072464,76.8405797 C26.6118159,76.8405797 27.5072464,77.7360102 27.5072464,78.8405797 L27.5072464,237.681159 C27.5072464,238.785729 26.6118159,239.681159 25.5072464,239.681159 L7.11412655,239.681159 C6.01033195,239.681159 5.11522275,238.786938 5.11412754,237.683144 L4.95652272,78.8425641 C4.95542598,77.7372201 5.85117719,76.8405797 6.95652174,76.8405797 Z" id="Path-4-Copy-13" fill-rule="nonzero"></path>
                <path d="M97.3108702,232.202899 L122.057971,232.202899 L122.057971,173.594203 L97.0803458,173.594203 L97.3108702,232.202899 Z M95.0724638,169.594203 L124.057971,169.594203 C125.162541,169.594203 126.057971,170.489633 126.057971,171.594203 L126.057971,234.202899 C126.057971,235.307468 125.162541,236.202899 124.057971,236.202899 L95.3187213,236.202899 C94.2172226,236.202899 93.3230692,235.312255 93.3187368,234.210765 L93.0724792,171.602069 C93.0681226,170.494435 93.9648209,169.594203 95.0724638,169.594203 Z" id="Path-4-Copy-6" fill-rule="nonzero"></path>
                <path d="M148.322622,232.202899 L173.072464,232.202899 L173.072464,189.826087 L148.097605,189.826087 L148.322622,232.202899 Z M146.086957,185.826087 L175.072464,185.826087 C176.177033,185.826087 177.072464,186.721517 177.072464,187.826087 L177.072464,234.202899 C177.072464,235.307468 176.177033,236.202899 175.072464,236.202899 L146.333214,236.202899 C145.23279,236.202899 144.339085,235.313927 144.333242,234.213518 L144.086985,187.836707 C144.081098,186.728003 144.978237,185.826087 146.086957,185.826087 Z" id="Path-4-Copy-8" fill-rule="nonzero"></path>
                <path d="M53.1636197,131.333333 L67.5652174,131.333333 L67.5652174,98.2318841 L53.0230067,98.2318841 L53.1636197,131.333333 Z M51.0144928,94.2318841 L69.5652174,94.2318841 C70.6697869,94.2318841 71.5652174,95.1273146 71.5652174,96.2318841 L71.5652174,133.333333 C71.5652174,134.437903 70.6697869,135.333333 69.5652174,135.333333 L51.1720976,135.333333 C50.0708444,135.333333 49.1767936,134.443072 49.1721156,133.341829 L49.0145108,96.2403799 C49.0098046,95.1325011 49.906604,94.2318841 51.0144928,94.2318841 Z" id="Path-4-Copy-10" fill-rule="nonzero"></path>
                <path d="M143.731864,131.333333 L175.391304,131.333333 L175.391304,108.666667 L143.472308,108.666667 L143.731864,131.333333 Z M141.449275,104.666667 L177.391304,104.666667 C178.495874,104.666667 179.391304,105.562097 179.391304,106.666667 L179.391304,133.333333 C179.391304,134.437903 178.495874,135.333333 177.391304,135.333333 L141.754635,135.333333 C140.658998,135.333333 139.767311,134.451799 139.754766,133.356234 L139.449406,106.689567 C139.436656,105.576117 140.335752,104.666667 141.449275,104.666667 Z" id="Path-4-Copy-12" fill-rule="nonzero"></path>
                <path d="M53.1636197,218.971014 L67.5652174,218.971014 L67.5652174,185.869565 L53.0230067,185.869565 L53.1636197,218.971014 Z M51.0144928,181.869565 L69.5652174,181.869565 C70.6697869,181.869565 71.5652174,182.764996 71.5652174,183.869565 L71.5652174,220.971014 C71.5652174,222.075584 70.6697869,222.971014 69.5652174,222.971014 L51.1720976,222.971014 C50.0708444,222.971014 49.1767936,222.080753 49.1721156,220.97951 L49.0145108,183.878061 C49.0098046,182.770182 49.906604,181.869565 51.0144928,181.869565 Z" id="Path-4-Copy-11" fill-rule="nonzero"></path>
                <path d="M197.021015,232.202899 L221.768116,232.202899 L221.768116,173.594203 L196.790491,173.594203 L197.021015,232.202899 Z M194.782609,169.594203 L223.768116,169.594203 C224.872685,169.594203 225.768116,170.489633 225.768116,171.594203 L225.768116,234.202899 C225.768116,235.307468 224.872685,236.202899 223.768116,236.202899 L195.028866,236.202899 C193.927368,236.202899 193.033214,235.312255 193.028882,234.210765 L192.782624,171.602069 C192.778268,170.494435 193.674966,169.594203 194.782609,169.594203 Z" id="Path-4-Copy-7" fill-rule="nonzero"></path>
                <path d="M97.2203826,167.275362 L111.623188,167.275362 L111.623188,138.811594 L97.0821969,138.811594 L97.2203826,167.275362 Z M95.0724638,134.811594 L113.623188,134.811594 C114.727758,134.811594 115.623188,135.707025 115.623188,136.811594 L115.623188,169.275362 C115.623188,170.379932 114.727758,171.275362 113.623188,171.275362 L95.2300686,171.275362 C94.129289,171.275362 93.2354361,170.385838 93.2300922,169.285072 L93.0724873,136.821304 C93.0671065,135.712954 93.9641006,134.811594 95.0724638,134.811594 Z" id="Path-4-Copy-4" fill-rule="nonzero"></path>
                <path d="M207.36531,167.275362 L221.768116,167.275362 L221.768116,138.811594 L207.227124,138.811594 L207.36531,167.275362 Z M205.217391,134.811594 L223.768116,134.811594 C224.872685,134.811594 225.768116,135.707025 225.768116,136.811594 L225.768116,169.275362 C225.768116,170.379932 224.872685,171.275362 223.768116,171.275362 L205.374996,171.275362 C204.274217,171.275362 203.380364,170.385838 203.37502,169.285072 L203.217415,136.821304 C203.212034,135.712954 204.109028,134.811594 205.217391,134.811594 Z" id="Path-4-Copy-5" fill-rule="nonzero"></path>
                <path d="M197.019235,127.855072 L221.768116,127.855072 L221.768116,80.8405797 L196.792286,80.8405797 L197.019235,127.855072 Z M194.782609,76.8405797 L223.768116,76.8405797 C224.872685,76.8405797 225.768116,77.7360102 225.768116,78.8405797 L225.768116,129.855072 C225.768116,130.959642 224.872685,131.855072 223.768116,131.855072 L195.028866,131.855072 C193.928065,131.855072 193.034203,130.965515 193.02889,129.864727 L192.782632,78.850234 C192.777282,77.7419053 193.674267,76.8405797 194.782609,76.8405797 Z" id="Path-4-Copy-3" fill-rule="nonzero"></path>
                <path d="M193.51469,75.2380752 L231.149909,75.2380752 L231.149909,72.1585145 L193.359868,72.1585145 L193.51469,75.2380752 Z M191.256793,68.1585145 L233.149909,68.1585145 C234.254479,68.1585145 235.149909,69.053945 235.149909,70.1585145 L235.149909,77.2380752 C235.149909,78.3426447 234.254479,79.2380752 233.149909,79.2380752 L191.612713,79.2380752 C190.547176,79.2380752 189.668737,78.4026896 189.615235,77.3384967 L189.259316,70.258936 C189.201875,69.1163687 190.112783,68.1585145 191.256793,68.1585145 Z" id="Path-4-Copy" fill-rule="nonzero"></path>
                <g id="balcony" transform="translate(131.014493, 40.579710)" fill-rule="nonzero">
                    <path d="M53.395874,31.7258659 L50.387619,31.7258659 L43.6191539,31.7258659 L43.6191539,15.8629329 C43.6191539,7.11608615 36.5344939,0 27.8260326,0 C19.1175714,0 12.0329113,7.11608615 12.0329113,15.8629329 L12.0329113,31.7258659 L5.26444624,31.7258659 L2.25619125,31.7258659 C1.01021542,31.7258659 0,32.7405468 0,33.9920303 C0,35.2435139 1.01021542,36.2581948 2.25619125,36.2581948 L3.00825499,36.2581948 L3.00825499,47.588908 C3.00825499,48.8403915 4.01847041,49.8550725 5.26444624,49.8550725 L50.3877277,49.8550725 C51.6337035,49.8550725 52.6439189,48.8403915 52.6439189,47.588908 L52.6439189,36.2581948 L53.3959827,36.2581948 C54.6419585,36.2581948 55.6521739,35.2435139 55.6521739,33.9920303 C55.6521739,32.7405468 54.6419585,31.7258659 53.395874,31.7258659 Z M12.0329113,45.3227435 L7.52052879,45.3227435 L7.52052879,36.2581948 L12.0328026,36.2581948 L12.0328026,45.3227435 L12.0329113,45.3227435 Z M25.5698414,4.76017908 L25.5698414,15.8629329 L16.5451851,15.8629329 C16.5451851,10.3911452 20.4270253,5.8130716 25.5698414,4.76017908 Z M16.5451851,20.3951527 L25.5698414,20.3951527 L25.5698414,31.7258659 L16.5451851,31.7258659 L16.5451851,20.3951527 Z M21.0575676,45.3227435 L16.5452938,45.3227435 L16.5452938,36.2581948 L21.0575676,36.2581948 L21.0575676,45.3227435 Z M30.0822239,45.3227435 L25.5698414,45.3227435 L25.5698414,36.2581948 L30.0822239,36.2581948 L30.0822239,45.3227435 Z M39.1068801,45.3227435 L34.5944977,45.3227435 L34.5944977,36.2581948 L39.1068801,36.2581948 L39.1068801,45.3227435 Z M39.1068801,31.7258659 L30.0822239,31.7258659 L30.0822239,20.3951527 L39.1068801,20.3951527 L39.1068801,31.7258659 Z M30.0822239,15.8629329 L30.0822239,4.76017908 C35.2250399,5.8130716 39.1068801,10.3910361 39.1068801,15.8629329 L30.0822239,15.8629329 Z M48.1315364,45.3227435 L43.6191539,45.3227435 L43.6191539,36.2581948 L48.1315364,36.2581948 L48.1315364,45.3227435 Z" id="Shape"></path>
                </g>
                <rect id="Rectangle-25" x="88.115942" y="131.014493" width="142.608696" height="5.79710145" rx="2.89855072"></rect>
                <rect id="Rectangle-25-Copy-2" x="86.9565217" y="234.202899" width="144.927536" height="5.79710145" rx="2.89855072"></rect>
                <rect id="Rectangle-25-Copy" x="25.5072464" y="165.797101" width="205.217391" height="5.79710145" rx="2.89855072"></rect>
                <rect id="Rectangle-26" x="122.898551" y="134.492754" width="4.63768116" height="37.1014493" rx="2.31884058"></rect>
                <rect id="Rectangle-26-Copy" x="134.492754" y="134.492754" width="4.63768116" height="37.1014493" rx="2.31884058"></rect>
                <rect id="Rectangle-26-Copy-2" x="146.086957" y="134.492754" width="4.63768116" height="37.1014493" rx="2.31884058"></rect>
                <rect id="Rectangle-26-Copy-3" x="157.681159" y="134.492754" width="4.63768116" height="37.1014493" rx="2.31884058"></rect>
                <rect id="Rectangle-26-Copy-4" x="169.275362" y="134.492754" width="4.63768116" height="37.1014493" rx="2.31884058"></rect>
                <rect id="Rectangle-26-Copy-5" x="180.869565" y="134.492754" width="4.63768116" height="37.1014493" rx="2.31884058"></rect>
                <rect id="Rectangle-26-Copy-6" x="192.463768" y="134.492754" width="4.63768116" height="37.1014493" rx="2.31884058"></rect>
                <rect id="Rectangle-26-Copy-7" x="121.73913" y="146.086957" width="6.95652174" height="5.79710145" rx="2.89855072"></rect>
                <rect id="Rectangle-26-Copy-8" x="133.333333" y="146.086957" width="6.95652174" height="5.79710145" rx="2.89855072"></rect>
                <rect id="Rectangle-26-Copy-9" x="144.927536" y="146.086957" width="6.95652174" height="5.79710145" rx="2.89855072"></rect>
                <rect id="Rectangle-26-Copy-10" x="156.521739" y="146.086957" width="6.95652174" height="5.79710145" rx="2.89855072"></rect>
                <rect id="Rectangle-26-Copy-11" x="168.115942" y="146.086957" width="6.95652174" height="5.79710145" rx="2.89855072"></rect>
                <rect id="Rectangle-26-Copy-12" x="179.710145" y="146.086957" width="6.95652174" height="5.79710145" rx="2.89855072"></rect>
                <rect id="Rectangle-26-Copy-13" x="191.304348" y="146.086957" width="6.95652174" height="5.79710145" rx="2.89855072"></rect>
                <circle id="Oval-12" cx="154.782609" cy="211.594203" r="2.89855072"></circle>
            </g>
        </g>
    </g>
</svg>