<?xml version="1.0" encoding="UTF-8"?>
<svg width="100px" height="100px" viewBox="0 0 100 100" version="1.1" xmlns="http://www.w3.org/2000/svg" xmlns:xlink="http://www.w3.org/1999/xlink">
    <!-- Generator: Sketch 47.1 (45422) - http://www.bohemiancoding.com/sketch -->
    <title>deal</title>
    <desc>Created with Sketch.</desc>
    <defs>
        <linearGradient x1="50%" y1="0%" x2="50%" y2="100%" id="linearGradient-1">
            <stop stop-color="#BBDBF7" offset="0%"></stop>
            <stop stop-color="#85B4EB" offset="100%"></stop>
        </linearGradient>
        <linearGradient x1="50%" y1="0%" x2="50%" y2="100%" id="linearGradient-2">
            <stop stop-color="#FFEBC9" offset="0%"></stop>
            <stop stop-color="#FED298" offset="100%"></stop>
        </linearGradient>
        <linearGradient x1="50%" y1="0%" x2="50%" y2="100%" id="linearGradient-3">
            <stop stop-color="#22B1BB" offset="0%"></stop>
            <stop stop-color="#0F7986" offset="100%"></stop>
        </linearGradient>
        <linearGradient x1="50%" y1="0%" x2="50%" y2="100%" id="linearGradient-4">
            <stop stop-color="#F9DEB4" offset="0%"></stop>
            <stop stop-color="#F0BA7D" offset="100%"></stop>
        </linearGradient>
        <linearGradient x1="50%" y1="0%" x2="50%" y2="100%" id="linearGradient-5">
            <stop stop-color="#FDEB84" offset="0%"></stop>
            <stop stop-color="#FDC405" offset="100%"></stop>
        </linearGradient>
    </defs>
    <g id="Page-1" stroke="none" stroke-width="1" fill="none" fill-rule="evenodd">
        <g id="5-1-contact-us" transform="translate(-765.000000, -354.000000)" fill-rule="nonzero">
            <g id="deal" transform="translate(765.000000, 354.000000)">
                <circle id="Oval" fill="url(#linearGradient-1)" cx="49.9998047" cy="49.9998047" r="49.9998047"></circle>
                <path d="M16.6837891,32.5201172 L33.3476562,40.8025391 C33.3476562,40.8025391 45.6425781,36.8234375 47.55625,37.4455078 C47.7421875,37.5058594 48.05625,37.6304687 48.4681641,37.8035156 L48.4697266,37.8044922 C52.2890625,39.4130859 64.6554687,45.3195312 64.6554687,45.3195312 L61.1306641,45.0945313 C62.5646484,46.9363281 64.5617187,49.3470703 65.6962891,50.05 C67.6066406,51.2328125 63.0572266,54.5992187 59.2371094,52.1421875 C55.4162109,49.6857422 54.4152344,46.6835938 54.4152344,46.6835938 L52.5257813,46.8787109 L65.7771484,59.0474609 L67.8822266,61.5707031 C69.7035156,63.7537109 67.4419922,66.9068359 64.4675781,65.9457031 C64.5150391,65.9816406 64.3466797,65.9324219 64.3912109,66.0533203 C64.5613281,66.5113281 64.9050781,67.6111328 64.5951172,68.1476562 C63.5060547,70.0355469 61.8660156,71.4882812 58.3919922,68.8423828 C59.2337891,69.4833984 59.7496094,70.9919922 59.165625,71.8691406 C58.3710937,73.0628906 57.4951172,73.6013672 56.5369141,73.8933594 C55.5271484,74.2011719 54.0044922,73.2361328 53.1638672,72.5957031 C54.0050781,73.2361328 54.4058594,74.7554687 53.8451172,75.65 C53.1550781,76.7509766 50.9628906,78.3689453 49.5730469,77.3097656 L45.20625,73.9839844 C45.20625,73.9839844 34.5765625,63.6912109 31.2921875,60.9519531 C28.0068359,58.2115234 23.5419922,52.6361328 23.5419922,52.6361328 L3.90839844,41.7416016 L16.6847656,32.5195312 L16.6837891,32.5201172 Z" id="Shape" fill="url(#linearGradient-2)"></path>
                <path d="M0.1828125,45.7384766 L14.5560547,55.3447266 L29.7470703,35.4001953 L11.4628906,18.1417969 C5.153125,25.7675781 1.06347656,35.2957031 0.182421875,45.7384766 L0.1828125,45.7384766 Z" id="Shape" fill="url(#linearGradient-3)"></path>
                <polygon id="Shape" fill="#FFFFFF" points="29.3427734 35.9306641 16.5396484 52.7392578 18.9939453 54.6091797 31.7970703 37.8"></polygon>
                <path d="M83.3162109,32.5201172 L66.6523438,40.8025391 C65.3203125,41.4644531 60.534375,38.3287109 56.596875,37.8507813 C53.7458984,37.5048828 50.3015625,38.6105469 50.5066406,38.7169922 L59.4330078,42.8431641 C59.4330078,42.8431641 63.784375,48.8679688 65.6949219,50.0498047 C67.6052734,51.2322266 63.0558594,54.5990234 59.2357422,52.1419922 C55.4148438,49.6855469 54.4138672,46.6833984 54.4138672,46.6833984 L46.5162109,47.4974609 L31.2900391,60.9527344 C29.1824219,62.8154297 29.8269531,63.7875 31.2443359,65.6042969 C31.8923828,66.4363281 34.2742188,66.1560547 35.2726563,65.7744141 C32.9667969,67.5285156 36.2916016,72.0460938 39.5513672,69.5613281 C37.5800781,71.0634766 40.4074219,76.3595703 44.3552734,73.3513672 C42.3859375,76.0060547 46.3998047,77.9369141 48.0875,77.4570313 L49.3099609,77.1095703 L48.9978516,76.871875 C48.896875,76.871875 45.6996094,73.5931641 45.5060547,73.1955078 C44.4123047,70.9505859 47.2945313,67.9105469 49.8785156,70.0841797 L52.1025391,71.7917969 L50.8140625,70.1580078 C49.1705078,68.0042969 50.4355469,65.7804688 52.0097656,65.10625 C53.1634766,64.6128906 54.3576172,65.1609375 55.3310547,66.1210938 L57.7875,68.0892578 L55.6947266,65.6439453 C55.6947266,65.6439453 53.6875,63.3765625 55.5298828,61.3517578 C57.3722656,59.3275391 59.8689453,61.7544922 59.8689453,61.7544922 L62.8076172,64.1839844 L60.2783203,61.2544922 C60.2783203,61.2544922 58.0876953,58.9515625 59.5621094,57.4107422 C61.6101563,55.2703125 64.1441406,57.3783203 66.1447266,59.4865234 C66.7195313,60.0925781 67.3117188,61.0234375 67.7611328,61.453125 C69.9691406,58.9679688 71.4548828,56.2742188 71.4548828,56.2742188 L96.0927734,41.740625 L83.3167969,32.5185547 L83.3162109,32.5201172 Z" id="Shape" fill="url(#linearGradient-4)"></path>
                <path d="M99.8169922,45.7380859 L85.4431641,55.3449219 L70.2529297,35.4003906 L88.5371094,18.1417969 C94.8472656,25.7669922 98.9359375,35.2953125 99.8175781,45.7380859 L99.8169922,45.7380859 Z" id="Shape" fill="url(#linearGradient-5)"></path>
                <polygon id="Shape" fill="#FFFFFF" points="70.6560547 35.9306641 83.4601563 52.7392578 81.0052734 54.6091797 68.2027344 37.8"></polygon>
                <path d="M13.1580078,50.0369141 C13.6605469,50.0369141 14.0683594,50.4447266 14.0683594,50.9472656 C14.0683594,51.4498047 13.6611328,51.8576172 13.1580078,51.8576172 C12.6554688,51.8576172 12.2476562,51.4503906 12.2476562,50.9472656 C12.2476562,50.4447266 12.6548828,50.0369141 13.1580078,50.0369141 Z M10.45,48.3400391 C10.9525391,48.3400391 11.3603516,48.7472656 11.3603516,49.2503906 C11.3603516,49.7529297 10.9525391,50.1607422 10.45,50.1607422 C9.94746094,50.1607422 9.53964844,49.7529297 9.53964844,49.2503906 C9.53964844,48.7478516 9.946875,48.3400391 10.45,48.3400391 Z" id="Shape" fill="#ECF0F1"></path>
                <path d="M87.3919922,50.5306641 C86.8894531,50.5306641 86.4816406,50.9384766 86.4816406,51.4410156 C86.4816406,51.9435547 86.8888672,52.3513672 87.3919922,52.3513672 C87.8945312,52.3513672 88.3023438,51.9441406 88.3023438,51.4410156 C88.3023438,50.9384766 87.8951172,50.5306641 87.3919922,50.5306641 Z M90.1,48.8339844 C89.5974609,48.8339844 89.1896484,49.2412109 89.1896484,49.7443359 C89.1896484,50.246875 89.5974609,50.6546875 90.1,50.6546875 C90.6025391,50.6546875 91.0103516,50.246875 91.0103516,49.7443359 C91.0103516,49.2417969 90.603125,48.8339844 90.1,48.8339844 Z" id="Shape" fill="#FFFFFF"></path>
            </g>
        </g>
    </g>
</svg>