<?xml version="1.0" encoding="UTF-8"?>
<svg width="70px" height="70px" viewBox="0 0 70 70" version="1.1" xmlns="http://www.w3.org/2000/svg" xmlns:xlink="http://www.w3.org/1999/xlink">
    <!-- Generator: Sketch 47.1 (45422) - http://www.bohemiancoding.com/sketch -->
    <title>equipment</title>
    <desc>Created with Sketch.</desc>
    <defs></defs>
    <g id="Page-1" stroke="none" stroke-width="1" fill="none" fill-rule="evenodd">
        <g id="2-5-pattaya-guest-houses" transform="translate(-829.000000, -1485.000000)" fill-rule="nonzero">
            <g id="equipment" transform="translate(829.000000, 1485.000000)">
                <polygon id="Shape" fill="#5A6470" points="0 48.2758621 20.5172414 48.2758621 20.5172414 70 0 70"></polygon>
                <polygon id="Shape" fill="#5A6470" points="51.8965517 37.4137931 70 37.4137931 70 70 51.8965517 70"></polygon>
                <polygon id="Shape" fill="#8CB3C4" points="0 37.4137931 20.5172414 37.4137931 20.5172414 48.2758621 0 48.2758621"></polygon>
                <polygon id="Shape" fill="#CFDFE8" points="20.5172414 37.4137931 51.8965517 37.4137931 51.8965517 70 20.5172414 70"></polygon>
                <polygon id="Shape" fill="#8CB3C4" points="25.3448276 51.8965517 47.0689655 51.8965517 47.0689655 65.1724138 25.3448276 65.1724138"></polygon>
                <g id="Group" transform="translate(25.344828, 41.034483)" fill="#5A6470">
                    <path d="M4.82758621,3.62068966 C4.82758621,4.95369754 3.74680099,6.03448276 2.4137931,6.03448276 C1.08078522,6.03448276 0,4.95369754 0,3.62068966 C0,2.28768177 1.08078522,1.20689655 2.4137931,1.20689655 C3.74680099,1.20689655 4.82758621,2.28768177 4.82758621,3.62068966 Z" id="Shape"></path>
                    <path d="M14.4827586,3.62068966 C14.4827586,4.95369754 13.4019734,6.03448276 12.0689655,6.03448276 C10.7359576,6.03448276 9.65517241,4.95369754 9.65517241,3.62068966 C9.65517241,2.28768177 10.7359576,1.20689655 12.0689655,1.20689655 C13.4019734,1.20689655 14.4827586,2.28768177 14.4827586,3.62068966 Z" id="Shape"></path>
                    <path d="M21.7241379,2.4137931 L19.3103448,2.4137931 C18.6438409,2.4137931 18.1034483,1.8734005 18.1034483,1.20689655 C18.1034483,0.540392608 18.6438409,0 19.3103448,0 L21.7241379,0 C22.3906419,0 22.9310345,0.540392608 22.9310345,1.20689655 C22.9310345,1.8734005 22.3906419,2.4137931 21.7241379,2.4137931 Z" id="Shape"></path>
                    <path d="M21.7241379,7.24137931 L19.3103448,7.24137931 C18.6438409,7.24137931 18.1034483,6.7009867 18.1034483,6.03448276 C18.1034483,5.36797881 18.6438409,4.82758621 19.3103448,4.82758621 L21.7241379,4.82758621 C22.3906419,4.82758621 22.9310345,5.36797881 22.9310345,6.03448276 C22.9310345,6.7009867 22.3906419,7.24137931 21.7241379,7.24137931 Z" id="Shape"></path>
                    <path d="M4.82758621,20.5172414 C4.3396417,20.5172414 3.89943086,20.2231782 3.71262123,19.7723599 C3.52581159,19.3215417 3.62952927,18.8023639 3.97427263,18.4570312 L7.59496228,14.8363416 C8.06876347,14.3790409 8.82130586,14.3855233 9.28685685,14.8510742 C9.75240769,15.3166252 9.75889009,16.0691676 9.30158944,16.5429688 L5.68089978,20.1636584 C5.45460668,20.3899515 5.14757884,20.5172414 4.82758621,20.5172414 Z" id="Shape"></path>
                    <path d="M12.0689655,20.5172414 C11.581021,20.5172414 11.1408102,20.2231782 10.9540005,19.7723599 C10.7671909,19.3215417 10.8709086,18.8023639 11.2156519,18.4570312 L14.8363416,14.8363416 C15.3101428,14.3790409 16.0626852,14.3855233 16.5282362,14.8510742 C16.993787,15.3166252 17.0002694,16.0691676 16.5429687,16.5429688 L12.9222791,20.1636584 C12.695986,20.3899515 12.3889581,20.5172414 12.0689655,20.5172414 L12.0689655,20.5172414 Z" id="Shape"></path>
                </g>
                <path d="M12.0689655,43.4482759 L8.44827586,43.4482759 C7.78177192,43.4482759 7.24137931,42.9078833 7.24137931,42.2413793 C7.24137931,41.5748754 7.78177192,41.0344828 8.44827586,41.0344828 L12.0689655,41.0344828 C12.7354695,41.0344828 13.2758621,41.5748754 13.2758621,42.2413793 C13.2758621,42.9078833 12.7354695,43.4482759 12.0689655,43.4482759 Z" id="Shape" fill="#CFDFE8"></path>
                <path d="M12.0689655,54.3103448 L8.44827586,54.3103448 C7.78177192,54.3103448 7.24137931,53.7699522 7.24137931,53.1034483 C7.24137931,52.4369443 7.78177192,51.8965517 8.44827586,51.8965517 L12.0689655,51.8965517 C12.7354695,51.8965517 13.2758621,52.4369443 13.2758621,53.1034483 C13.2758621,53.7699522 12.7354695,54.3103448 12.0689655,54.3103448 Z" id="Shape" fill="#CFDFE8"></path>
                <path d="M65.1724138,43.4482759 L56.7241379,43.4482759 C56.057634,43.4482759 55.5172414,42.9078833 55.5172414,42.2413793 C55.5172414,41.5748754 56.057634,41.0344828 56.7241379,41.0344828 L65.1724138,41.0344828 C65.8389177,41.0344828 66.3793103,41.5748754 66.3793103,42.2413793 C66.3793103,42.9078833 65.8389177,43.4482759 65.1724138,43.4482759 Z" id="Shape" fill="#CFDFE8"></path>
                <polygon id="Shape" fill="#8CB3C4" points="30.1724138 0 42.2413793 0 42.2413793 4.82758621 30.1724138 4.82758621"></polygon>
                <polygon id="Shape" fill="#5A6470" points="48.2758621 9.65517241 24.137931 9.65517241 30.1724138 4.82758621 42.2413793 4.82758621"></polygon>
                <polygon id="Shape" fill="#CFDFE8" points="24.137931 9.65517241 48.2758621 9.65517241 48.2758621 19.3103448 24.137931 19.3103448"></polygon>
                <polygon id="Shape" fill="#8CB3C4" points="25.3448276 32.5862069 36.2068966 32.5862069 36.2068966 37.4137931 25.3448276 37.4137931"></polygon>
                <polygon id="Shape" fill="#5A6470" points="36.2068966 32.5862069 47.0689655 32.5862069 47.0689655 37.4137931 36.2068966 37.4137931"></polygon>
                <path d="M43.4482759,15.6896552 L42.2413793,15.6896552 C41.5748754,15.6896552 41.0344828,15.1492626 41.0344828,14.4827586 C41.0344828,13.8162547 41.5748754,13.2758621 42.2413793,13.2758621 L43.4482759,13.2758621 C44.1147798,13.2758621 44.6551724,13.8162547 44.6551724,14.4827586 C44.6551724,15.1492626 44.1147798,15.6896552 43.4482759,15.6896552 Z" id="Shape" fill="#5A6470"></path>
            </g>
        </g>
    </g>
</svg>