<?xml version="1.0" encoding="UTF-8"?>
<svg width="35px" height="35px" viewBox="0 0 35 35" version="1.1" xmlns="http://www.w3.org/2000/svg" xmlns:xlink="http://www.w3.org/1999/xlink">
    <!-- Generator: Sketch 47.1 (45422) - http://www.bohemiancoding.com/sketch -->
    <title>Flickr</title>
    <desc>Created with Sketch.</desc>
    <defs></defs>
    <g id="Page-1" stroke="none" stroke-width="1" fill="none" fill-rule="evenodd">
        <g id="1-1-coworking-main-1170" transform="translate(-1032.000000, -7861.000000)" fill="#E3E3E3">
            <g id="Flickr" transform="translate(1032.000000, 7861.000000)">
                <path d="M0,17.5 C0,7.8350164 7.8350164,0 17.5,0 C27.1649836,0 35,7.8350164 35,17.5 C35,27.1649836 27.1649836,35 17.5,35 C7.8350164,35 0,27.1649836 0,17.5 Z M27.9237156,17.3531479 C27.9237156,14.8579593 25.8629628,12.8333333 23.3162413,12.8333333 C20.7670593,12.8333333 18.7050762,14.8579593 18.7050762,17.3531479 C18.7050762,19.8495431 20.7670593,21.874169 23.3162413,21.874169 C25.8629628,21.874169 27.9237156,19.8495431 27.9237156,17.3531479 Z M16.2174092,17.3531479 C16.2174092,14.8579593 14.155426,12.8333333 11.606244,12.8333333 C9.06075285,12.8333333 7,14.8579593 7,17.3531479 C7,19.8495431 9.06075285,21.874169 11.606244,21.874169 C14.155426,21.874169 16.2174092,19.8495431 16.2174092,17.3531479 Z" id="Combined-Shape"></path>
            </g>
        </g>
    </g>
</svg>