<?xml version="1.0" encoding="UTF-8"?>
<svg width="200px" height="200px" viewBox="0 0 200 200" version="1.1" xmlns="http://www.w3.org/2000/svg" xmlns:xlink="http://www.w3.org/1999/xlink">
    <!-- Generator: Sketch 47.1 (45422) - http://www.bohemiancoding.com/sketch -->
    <title>gears</title>
    <desc>Created with Sketch.</desc>
    <defs>
        <path d="M199.998474,99.4918824 C200.27008,153.927613 156.558227,198.83728 102.133179,199.977112 C94.6151734,200.134277 87.283325,199.456787 80.2185059,198.03772 C76.724243,197.335816 74.21875,194.247437 74.21875,190.681457 C74.21875,186.767578 71.0449219,183.59375 67.1295164,183.59375 L47.253418,183.59375 C45.8312988,183.59375 44.4427492,183.161926 43.2724,182.354736 C32.9345703,175.221252 24.005127,166.194153 16.9876098,155.770874 C16.0949707,154.446411 15.625,152.880859 15.625,151.281738 L15.625,129.789734 C15.625,124.987793 11.730957,121.09375 6.92901602,121.09375 C4.14733906,121.09375 1.78527813,119.071961 1.33209219,116.326904 C0.457763672,111.013794 5.68434189e-14,105.560303 5.68434189e-14,100 C5.68434189e-14,44.7708129 44.7708129,0 100,0 C155.058289,0 199.725342,44.4961547 199.998474,99.4918824 Z" id="path-1"></path>
        <filter x="-7.8%" y="-7.8%" width="115.5%" height="115.5%" filterUnits="objectBoundingBox" id="filter-2">
            <feGaussianBlur stdDeviation="15" in="SourceAlpha" result="shadowBlurInner1"></feGaussianBlur>
            <feOffset dx="0" dy="1" in="shadowBlurInner1" result="shadowOffsetInner1"></feOffset>
            <feComposite in="shadowOffsetInner1" in2="SourceAlpha" operator="arithmetic" k2="-1" k3="1" result="shadowInnerInner1"></feComposite>
            <feColorMatrix values="0 0 0 0 0   0 0 0 0 0   0 0 0 0 0  0 0 0 0.1 0" type="matrix" in="shadowInnerInner1"></feColorMatrix>
        </filter>
    </defs>
    <g id="Page-1" stroke="none" stroke-width="1" fill="none" fill-rule="evenodd">
        <g id="4-1-about-us" transform="translate(-327.000000, -1075.000000)" fill-rule="nonzero">
            <g id="gears" transform="translate(327.000000, 1075.000000)">
                <g id="Shape">
                    <use fill="#CDEBEE" fill-rule="evenodd" xlink:href="#path-1"></use>
                    <use fill="black" fill-opacity="1" filter="url(#filter-2)" xlink:href="#path-1"></use>
                </g>
                <path d="M83.2809449,20.4727172 C83.5372926,19.6472168 83.7875367,18.8705445 83.9538574,18.3990477 C86.2716676,11.8164062 89.4149781,5.73425312 93.2312012,0.233459375 C95.4681398,0.0839234375 97.7249145,0 100,0 C100.753784,0 101.506043,0.0122070312 102.255249,0.0289917187 C97.3571777,6.04248047 93.3990477,12.9638672 90.6799316,20.6390383 C90.5242922,21.0784914 90.2908324,21.8078613 90.0466918,22.5891113 C89.4714355,24.432373 87.5228883,25.4760742 85.6689453,24.9343871 C83.7661742,24.3774414 82.6904297,22.367859 83.2809449,20.4727172 Z M199.97406,97.8881836 C182.89032,111.763 159.501648,117.263794 136.630249,110.568237 C119.337463,105.506897 105.514527,94.3054199 96.8276977,80.0384523 L100.245666,78.1661988 C101.376343,77.545166 101.312256,75.8987426 100.134277,75.3692625 L89.0853883,70.4101562 C88.1393434,69.9859617 87.0498656,70.5825805 86.8988039,71.6079711 L85.1318359,83.5891723 C84.942627,84.8663328 86.2960816,85.8078004 87.4282836,85.1882934 L90.6051637,83.4472656 C100.175476,99.3164062 115.492248,111.779785 134.681702,117.384338 C157.748413,124.12262 181.434631,119.503784 199.765015,106.814575 C199.916077,104.562378 200,102.290344 200,100 C200,99.293518 199.987793,98.5900879 199.97406,97.8881836 L199.97406,97.8881836 Z M106.756592,183.111572 C104.907227,182.553101 102.95105,183.578491 102.357483,185.417175 C102.105713,186.195373 101.864624,186.923218 101.705933,187.361145 C100.083923,191.809082 98.0422973,195.99762 95.6466676,199.899292 C97.0901488,199.961853 98.5412598,200 100,200 C101.278687,200 102.55127,199.967957 103.817749,199.920654 C105.575562,196.659851 107.115173,193.237305 108.41217,189.663696 C108.583069,189.1922 108.839416,188.418579 109.103394,187.594605 C109.710693,185.707092 108.654785,183.685303 106.756592,183.111572 L106.756592,183.111572 Z M105.958557,136.428833 L107.836914,124.464416 C108.036804,123.188782 106.692505,122.235107 105.555725,122.845459 L102.362061,124.555969 C92.9382324,108.599854 77.7389527,95.9960938 58.6013793,90.2130125 C38.2797242,84.0728758 17.3934938,86.7874145 0.0823976562,96.1349488 C0.0335693359,97.4166871 0,98.7045289 0,100 C0,101.41449 0.0366210938,102.819824 0.0946046875,104.220581 C16.3848875,94.2260742 36.7263793,90.9957887 56.5902711,97.0108031 C73.8342285,102.232361 87.5534059,113.55896 96.1074828,127.906799 L92.6727297,129.748535 C91.5344238,130.357361 91.5847777,132.00531 92.7581789,132.545471 L103.761291,137.606812 C104.702759,138.040161 105.796814,137.452698 105.958557,136.428833 L105.958557,136.428833 Z M108.390808,142.773438 C106.584168,142.228699 104.678345,143.249512 104.13208,145.056152 C103.585816,146.862793 104.608154,148.770141 106.414795,149.31488 C108.221436,149.861145 110.127258,148.838806 110.673523,147.032166 C111.219787,145.227051 110.197449,143.319702 108.390808,142.773438 Z M106.794739,156.188965 C106.134033,157.957459 107.03125,159.925842 108.798218,160.586548 C110.565186,161.247254 112.535095,160.351562 113.195801,158.583069 C113.856506,156.816101 112.959289,154.847717 111.192322,154.187012 C109.425354,153.52478 107.45697,154.421997 106.794739,156.188965 L106.794739,156.188965 Z M111.468506,163.734436 C109.701538,163.07373 107.733154,163.970947 107.072449,165.737915 C106.410217,167.504883 107.307434,169.474793 109.074402,170.135498 C110.842895,170.796204 112.811279,169.898987 113.471985,168.132019 C114.132691,166.365051 113.237,164.396668 111.468506,163.734436 Z M110.379028,173.698425 C108.612061,173.036194 106.642151,173.933411 105.981445,175.700379 C105.32074,177.467346 106.217957,179.437256 107.984924,180.097961 C109.751892,180.758667 111.721802,179.86145 112.382507,178.094482 C113.043213,176.327515 112.145996,174.359131 110.379028,173.698425 L110.379028,173.698425 Z M84.4085695,65.2862547 C86.2197875,65.814209 88.1164551,64.7750855 88.6459352,62.9638672 C89.1738891,61.1526488 88.1347656,59.2544555 86.3235473,58.7265016 C84.5123289,58.1970215 82.6156617,59.2361449 82.0861816,61.0473633 C81.5567016,62.8585816 82.595825,64.756775 84.4085695,65.2862547 Z M85.8795164,51.8554688 C86.5234375,50.0823977 85.6079102,48.121643 83.8348391,47.4777223 C82.0617676,46.8322754 80.1010133,47.7478027 79.4570922,49.5208742 C78.8116453,51.2939453 79.7271727,53.2546996 81.5002441,53.8986207 C83.2733156,54.5440672 85.2340699,53.630066 85.8795164,51.8554688 Z M81.135559,44.354248 C82.9086305,44.9981688 84.8693848,44.0841676 85.5148316,42.3095703 C86.1587523,40.5364992 85.2447508,38.5757445 83.4701539,37.9318238 C81.6970824,37.2879027 79.7363281,38.2019043 79.092407,39.9749758 C78.4469605,41.7495727 79.3624879,43.7088012 81.135559,44.354248 Z M82.133484,34.3811035 C83.9080812,35.0265504 85.8673094,34.111023 86.5127562,32.3379516 C87.1566773,30.5648805 86.2426758,28.6041258 84.4680785,27.9586793 C82.6950074,27.3147582 80.7342531,28.2302855 80.090332,30.003357 C79.4448852,31.7764281 80.3604125,33.7371828 82.133484,34.3811035 Z" id="Shape" fill="#89B6CE"></path>
                <path d="M80.7678223,198.144531 C66.8899535,195.440674 54.0405273,189.86969 42.8573609,182.067871 C48.61145,180.079651 53.3630371,175.456238 55.2581789,169.18335 C58.3953859,158.799744 52.520752,147.83783 42.1371461,144.699097 C31.9992066,141.636658 21.3165281,147.163391 17.893982,157.087707 C9.50164805,145.039368 3.69262695,131.057739 1.27105703,115.943909 C2.47955312,116.212463 3.64685078,116.743469 4.67834453,117.547607 L7.57598867,119.80133 C10.1776125,118.084717 12.9257203,116.604614 15.7882691,115.37323 L15.4342652,111.921692 C14.9932859,107.629395 17.8085328,103.678894 22.0092773,102.693176 C26.1215211,101.730347 30.3237914,103.903198 31.9137574,107.815552 L33.2901,111.204529 C36.3693238,111.016846 39.4912719,111.102295 42.6254273,111.477661 L44.0399172,108.320618 C45.8038328,104.38385 50.2182008,102.36969 54.3487547,103.617859 C58.392334,104.840088 60.9436035,108.822632 60.3637695,113.005066 L59.8617555,116.636658 C62.6876832,118.043518 65.3442383,119.683838 67.8146363,121.530152 L70.613098,119.506836 C74.1104125,116.978455 78.9398195,117.442322 81.8939211,120.587158 C84.7839355,123.666382 85.0021363,128.392029 82.409668,131.726074 L80.1544188,134.623718 C81.8710328,137.223816 83.3526609,139.971924 84.5840453,142.834473 L88.0355836,142.480469 C92.3278809,142.03949 96.2783813,144.856262 97.2625734,149.057007 C98.2269289,153.167725 96.0540773,157.369995 92.1401977,158.959961 L88.7527465,160.336304 C88.9389039,163.415527 88.8534547,166.537476 88.4780883,169.671631 L91.635132,171.086121 C95.5718992,172.851562 97.5860594,177.26593 96.3378906,181.394959 C95.1171875,185.438537 91.1346437,187.989807 86.9506836,187.411499 L83.3206176,186.907959 C81.9122313,189.733887 80.2719117,192.390442 78.4271242,194.86084 L80.4504395,197.660828 C80.5648805,197.819519 80.6655883,197.982788 80.7678223,198.144531 L80.7678223,198.144531 Z" id="Shape" fill="#FDBF43"></path>
                <path d="M55.2581789,169.18335 C58.3969117,158.798218 52.5222777,147.836304 42.1371461,144.699097 C32.0007324,141.636658 21.3165281,147.163391 17.893982,157.087707 C14.6224977,152.391052 11.7446898,147.401428 9.30480938,142.163086 C17.8344727,131.317139 32.4356078,126.222229 46.4416504,130.455017 C64.6942141,135.969543 75.0183105,155.236816 69.5037844,173.487854 C67.3690797,180.555725 63.1698609,186.431885 57.7697754,190.663147 C52.5360109,188.221741 47.5509645,185.342407 42.8588867,182.067871 C48.61145,180.079651 53.3630371,175.456238 55.2581789,169.18335 Z" id="Shape" fill="#FDA800"></path>
                <path d="M15.1901246,152.986145 C13.017273,149.51477 11.0473633,145.903015 9.30480938,142.163086 C15.727234,133.996582 25.5905152,129.093933 36.0504148,128.973389 C26.5914918,132.720947 18.8705445,140.594482 15.6982422,151.092529 C15.5075074,151.722717 15.3427125,152.354431 15.1901246,152.986145 Z" id="Shape" fill="#FC9302"></path>
                <path d="M111.384582,0.648498438 C109.646606,3.55224609 109.745789,7.30133047 111.839295,10.1425172 L113.88855,12.9226684 C112.065125,15.4098512 110.449219,18.083191 109.068298,20.9213258 L105.433655,20.4513551 C101.245117,19.9111938 97.2854613,22.5006102 96.1013793,26.5533445 C94.8928832,30.6961059 96.9467164,35.0906371 100.900269,36.8194578 L104.071045,38.2049563 C103.723145,41.3421633 103.666687,44.4641113 103.881836,47.541809 L100.506592,48.9501953 C96.6094969,50.576782 94.4747926,54.7973633 95.4772949,58.9004516 C96.4996336,63.092041 100.4776,65.8706664 104.76532,65.3915406 L108.213806,65.0039672 C109.469605,67.8558352 110.977173,70.5902102 112.718201,73.1750488 L110.490418,76.0925293 C107.928467,79.4494629 108.190918,84.173584 111.108398,87.2253418 C114.091492,90.3442383 118.925476,90.7623289 122.398377,88.2019043 L125.178528,86.1526488 C127.665711,87.9760742 130.337524,89.5919801 133.175659,90.9729004 L132.707214,94.6075438 C132.167053,98.7976074 134.754944,102.755738 138.809204,103.93982 C142.950439,105.149841 147.346496,103.094482 149.075317,99.1409301 L150.460816,95.9716797 C153.598023,96.3180543 156.719971,96.3745117 159.797668,96.1593629 L161.206055,99.534607 C162.831116,103.431702 167.053223,105.566406 171.156311,104.56543 C175.3479,103.541565 178.126526,99.5651246 177.6474,95.2774047 L177.259827,91.8289184 C180.111695,90.5715941 182.84607,89.0640258 185.430908,87.3245238 L188.348389,89.552307 C191.67633,92.0913695 196.342468,91.8518066 199.395752,89.0075684 C194.33136,42.6940918 157.644653,5.89294453 111.384582,0.648498438 Z M175.003052,49.4003297 C171.961975,59.8144531 161.054993,65.7897949 150.640869,62.7487184 C140.228271,59.7061156 134.251404,48.7991332 137.294006,38.3850098 C140.335083,27.9724121 151.243591,21.9970703 161.656189,25.0381469 C172.068787,28.0807496 178.045654,38.987732 175.003052,49.4003297 Z" id="Shape" fill="#E8594A"></path>
                <path d="M145.643616,11.0031129 C135.090637,14.3844605 126.350403,22.7752687 123.010254,34.213257 C117.663574,52.5161742 128.166199,71.685791 146.469116,77.0324707 C164.48822,82.295227 183.348084,72.1969605 189.02893,54.4174195 C179.476929,35.7971191 164.256287,20.5673219 145.643616,11.0031129 L145.643616,11.0031129 Z M170.353699,48.0422973 C168.061829,55.8868406 159.844971,60.3897094 151.998902,58.0978395 C144.154358,55.8059691 139.653015,47.5891113 141.944885,39.7430422 C144.23523,31.8984984 152.453613,27.3971559 160.298157,29.6890258 C168.1427,31.9793703 172.644043,40.1977539 170.353699,48.0422973 L170.353699,48.0422973 Z" id="Shape" fill="#DD4F40"></path>
                <path d="M160.461426,78.1524656 C155.903625,78.729248 151.158142,78.4027102 146.469116,77.0324707 C128.166199,71.685791 117.663574,52.5146484 123.010254,34.213257 C126.350403,22.7752687 135.090637,14.3829344 145.643616,11.0031129 C146.890259,11.6424562 148.118591,12.3092652 149.333191,13.0004883 C141.030884,17.1447754 134.410095,24.6017457 131.604004,34.213257 C126.257324,52.5146484 136.759949,71.685791 155.062866,77.0309449 C156.858826,77.557373 158.662414,77.9266359 160.461426,78.1524656 Z" id="Shape" fill="#CD4739"></path>
                <path d="M68.2098391,46.4248656 C68.2144164,44.744873 68.0648805,43.0877687 67.7734375,41.4703367 L69.4793703,40.5319215 C71.4492797,39.4470215 72.3358156,37.0895387 71.57135,34.9746703 C70.7885742,32.8140258 68.5226441,31.5719605 66.2811281,32.0724488 L64.4775391,32.4752809 C63.6489867,31.0379027 62.6937867,29.6768187 61.6241453,28.4088133 L62.6358031,26.7349242 C63.798523,24.810791 63.3880617,22.3251344 61.6683961,20.877075 C59.9105836,19.3984984 57.3272703,19.4549562 55.6350707,21.0083008 L54.2816164,22.253418 C52.8594969,21.4309691 51.3519289,20.7290648 49.7695922,20.1614379 L49.8092652,18.2098391 C49.8550414,15.9606934 48.2574461,14.0136719 46.0433961,13.6199953 C43.7805176,13.2186891 41.5725707,14.5584105 40.8843992,16.7510984 L40.333557,18.5089109 C38.6520387,18.5058594 36.9964602,18.6538695 35.3790281,18.9453125 L34.4390867,17.2393797 C33.3541871,15.2694703 30.9967039,14.3829344 28.8833617,15.1474 C26.7227172,15.9301758 25.4791258,18.1961059 25.9811402,20.4376219 L26.3824461,22.2412109 C24.9465941,23.0697633 23.5855102,24.0249633 22.3175047,25.0946047 L20.6436156,24.0829469 C18.7194824,22.920227 16.2338258,23.3306883 14.7857664,25.0503539 C13.3056641,26.8081664 13.3621215,29.3914797 14.9169922,31.0821531 L16.1621094,32.4371336 C15.3396605,33.8592531 14.6377563,35.3652953 14.0701293,36.947632 L12.1185305,36.907959 C9.86938477,36.8637086 7.92236328,38.4613039 7.52868672,40.6753539 C7.12585469,42.9382324 8.46710195,45.1461793 10.6582641,45.8343508 L12.4160766,46.385193 C12.413025,48.0667113 12.5625609,49.7222898 12.8540039,51.3397219 L11.1480711,52.2781371 C9.17816172,53.3630371 8.2901,55.7205199 9.05609141,57.8353883 C9.83886719,59.9960328 12.1032715,61.238098 14.3463133,60.7376098 L16.1499023,60.3347777 C16.9784547,61.7721559 17.9336547,63.1332398 19.0032961,64.4012453 L17.9916383,66.0736086 C16.8273926,67.9992676 17.2393797,70.4833984 18.9590453,71.9314574 C20.7168578,73.4115602 23.3001711,73.3551023 24.9908445,71.800232 L26.345825,70.5566406 C27.7679445,71.3790895 29.2755125,72.0809938 30.8563234,72.6486207 L30.8166504,74.6002195 C30.7724,76.8478395 32.3699953,78.7963867 34.5840453,79.1900633 C36.845398,79.5913695 39.0548707,78.251648 39.7430422,76.0589602 L40.2938844,74.3011477 C41.973877,74.3041992 43.6309813,74.1561891 45.2484133,73.8647461 L46.1868285,75.5706789 C47.2717285,77.5405883 49.6292113,78.4271242 51.7440797,77.6611328 C53.9031984,76.8798828 55.1467895,74.6139527 54.6463012,72.3724367 L54.2434691,70.5688477 C55.6793211,69.7387695 57.0419313,68.7850953 58.3099367,67.7154539 L59.9823,68.7255859 C61.907959,69.8898316 64.3920898,69.4793703 65.8401488,67.7597047 C67.3202516,66.0018922 67.2637938,63.4185789 65.7089234,61.7263793 L64.465332,60.372925 C65.2877809,58.9508055 65.9896852,57.4432375 66.5573121,55.8609008 L68.5089109,55.9005738 C70.7565309,55.94635 72.7035523,54.3487547 73.0987547,52.1347047 C73.5000609,49.8718262 72.1603395,47.6638793 69.9676516,46.9757078 L68.2098391,46.4248656 Z M50.6118773,48.2376098 C49.6002195,53.9245605 44.1680906,57.7148438 38.4811402,56.7031859 C32.7941895,55.6915281 29.0039063,50.2609254 30.0155641,44.5724488 C31.0272219,38.885498 36.4593508,35.0952148 42.1463012,36.1068727 C47.833252,37.1185305 51.6235352,42.5506594 50.6118773,48.2376098 Z" id="Shape" fill="#4398D1"></path>
                <path d="M43.7240602,27.241516 C33.1405641,25.3585816 23.0331422,32.4111938 21.1502074,42.9946898 C19.267273,53.5781859 26.3198852,63.6856078 36.9033812,65.5685426 C47.4868773,67.451477 57.5942992,60.3988648 59.477234,49.8153688 C61.3601684,39.2318727 54.3075562,29.1244508 43.7240602,27.241516 Z M53.4454344,48.74115 C52.154541,55.9951781 45.2301023,60.8276367 37.9776,59.536743 C30.7235719,58.2458496 25.8911133,51.3214109 27.182007,44.0689086 C28.4729004,36.8164062 35.3973391,31.9824219 42.6498414,33.2733156 C49.9038695,34.564209 54.7363281,41.4886477 53.4454344,48.74115 Z" id="Shape" fill="#3A85B8"></path>
                <path d="M43.3959961,65.625 C41.2994383,65.9606934 39.1128539,65.9622191 36.9033812,65.5685426 C26.3198852,63.6856078 19.267273,53.5781859 21.1502074,42.9946898 C23.0117797,32.5332641 32.9086305,25.5279539 43.359375,27.1865844 C35.4080199,28.4606934 28.7673949,34.6206664 27.2766113,42.9946898 C27.0950316,44.0231324 26.9989016,45.0454711 26.9790648,46.0571289 C26.9729613,46.3058473 26.9729613,46.5545656 26.9790648,46.800232 C27.154541,55.9036254 33.7280273,63.9129641 43.0313109,65.5685426 C43.1533812,65.5899047 43.2739258,65.6051637 43.3959961,65.625 Z" id="Shape" fill="#3976A0"></path>
                <path d="M176.667786,164.196777 C174.728394,160.891723 171.411133,158.422852 167.34314,157.699585 C159.965515,156.385803 152.920532,161.302185 151.60675,168.679809 C150.65918,174.006653 152.958679,179.15802 157.086182,182.106018 C150.67749,186.57074 143.72406,190.306091 136.341858,193.186951 C135.345459,191.897583 134.436035,190.541077 133.61969,189.128113 L131.280518,189.649963 C128.372192,190.299988 125.43335,188.687134 124.41864,185.884094 C123.425293,183.14209 124.575805,180.084229 127.131653,178.675842 L129.344177,177.458191 C128.967285,175.360107 128.773498,173.21167 128.778076,171.031189 L126.496887,170.317078 C123.654175,169.424438 121.914673,166.558838 122.436523,163.624573 C122.947693,160.752869 125.474548,158.679199 128.390503,158.738709 L130.921936,158.789063 C131.658936,156.738281 132.569885,154.782105 133.634949,152.937317 L132.020569,151.18103 C130.004883,148.986816 129.931641,145.635986 131.851196,143.356323 C133.729553,141.123963 136.953735,140.59143 139.450073,142.100525 L141.619873,143.412781 C143.26477,142.025757 145.031738,140.786743 146.894836,139.710998 L146.372986,137.371826 C145.724488,134.463501 147.335816,131.524658 150.138855,130.509949 C152.880859,129.516602 155.938721,130.667114 157.347107,133.222961 L158.564758,135.435486 C160.662842,135.058594 162.811279,134.864807 164.99176,134.869385 L165.707398,132.588196 C166.598511,129.745484 169.464111,128.005981 172.398377,128.527832 C175.27008,129.039002 177.34375,131.565857 177.284241,134.481812 L177.233887,137.013245 C179.286194,137.750244 181.240845,138.661194 183.085632,139.727783 L184.841919,138.113403 C187.007141,136.123657 190.293884,136.029053 192.572021,137.869263 C188.633728,147.486877 183.242798,156.35376 176.667786,164.196777 L176.667786,164.196777 Z" id="Shape" fill="#7ECD00"></path>
                <path d="M182.881164,155.950928 C180.949402,158.807373 178.877258,161.560059 176.669312,164.196777 C174.728394,160.891723 171.411133,158.422852 167.34314,157.698059 C159.965515,156.385803 152.920532,161.302185 151.60675,168.679809 C150.65918,174.006653 152.958679,179.15802 157.087707,182.106018 C154.327393,184.028625 151.461792,185.806274 148.509216,187.44812 C143.675232,183.155823 140.625,176.896668 140.625,169.921875 C140.625,156.977844 151.118469,146.484375 164.0625,146.484375 C171.77124,146.484375 178.608704,150.20752 182.881164,155.950928 L182.881164,155.950928 Z" id="Shape" fill="#6BAE01"></path>
                <path d="M152.76947,184.944153 C151.371765,185.810852 149.951172,186.647034 148.509216,187.44812 C143.675232,183.155823 140.625,176.896668 140.625,169.921875 C140.625,156.977844 151.118469,146.484375 164.0625,146.484375 C165.193176,146.484375 166.300964,146.572876 167.388916,146.728516 C156.037903,148.35968 147.312927,158.119202 147.312927,169.921875 C147.312927,175.640869 149.36676,180.87616 152.76947,184.944153 L152.76947,184.944153 Z" id="Shape" fill="#5A9001"></path>
            </g>
        </g>
    </g>
</svg>