<?xml version="1.0" encoding="UTF-8"?>
<svg width="23px" height="22px" viewBox="0 0 23 22" version="1.1" xmlns="http://www.w3.org/2000/svg" xmlns:xlink="http://www.w3.org/1999/xlink">
    <!-- Generator: Sketch 47.1 (45422) - http://www.bohemiancoding.com/sketch -->
    <title>group</title>
    <desc>Created with Sketch.</desc>
    <defs>
        <linearGradient x1="0%" y1="50%" x2="99.981075%" y2="50%" id="linearGradient-1">
            <stop stop-color="#F47C22" offset="0%"></stop>
            <stop stop-color="#FFCD02" offset="100%"></stop>
        </linearGradient>
    </defs>
    <g id="Page-1" stroke="none" stroke-width="1" fill="none" fill-rule="evenodd">
        <g id="2-5-pattaya-guest-houses" transform="translate(-933.000000, -1919.000000)" fill-rule="nonzero" fill="url(#linearGradient-1)">
            <g id="group" transform="translate(933.000000, 1919.000000)">
                <path d="M10.5233846,14.63968 C13.0489615,15.4836 15.8868077,17.07288 15.8868077,18.70264 C15.8868077,19.13032 15.8868077,18.8716 15.8868077,19.29576 C15.8868077,21.45088 11.8007692,21.94104 7.96684615,21.94104 C4.13734615,21.94104 0,21.45088 0,19.29576 C0,18.87072 0,19.12944 0,18.70264 C0,17.12128 2.82369231,15.51792 5.22984615,14.63968 C5.40411538,14.57456 6.23476923,13.70688 5.77034615,12.47664 C4.57876923,11.24464 3.64903846,9.2532 3.64903846,7.29168 C3.64903846,4.28912 5.64384615,2.7148 7.94384615,2.7148 C10.2420769,2.7148 12.3288846,4.28912 12.3288846,7.29168 C12.3288846,9.24616 11.3142308,11.22968 10.1288462,12.46256 L10.1350385,12.46256 C9.68034615,13.85912 10.4075,14.60184 10.5233846,14.63968 Z M17.9214231,10.68056 C20.2957308,11.47344 22.9637308,12.96856 22.9646154,14.49976 C22.9646154,14.90104 22.9646154,14.65816 22.9646154,15.0568 C22.9646154,16.72704 20.3541154,17.33336 17.4189615,17.49528 C16.5856538,15.33928 13.6743846,13.92864 11.8113846,13.22728 C12.9808462,11.82984 14.099,9.66416 14.099,7.2908 C14.099,5.06792 13.2108462,3.41704 11.9201923,2.35664 C12.535,0.80784 13.9052692,0 15.4958077,0 C17.6560385,0 19.4341154,1.48016 19.4341154,4.30408 C19.4341154,6.13888 18.6653846,8.00624 17.5507692,9.16432 L17.5560769,9.16432 C17.1288077,10.47816 17.8135,10.64448 17.9214231,10.68056 Z" id="Combined-Shape"></path>
            </g>
        </g>
    </g>
</svg>