<?xml version="1.0" encoding="UTF-8"?>
<svg width="70px" height="42px" viewBox="0 0 70 42" version="1.1" xmlns="http://www.w3.org/2000/svg" xmlns:xlink="http://www.w3.org/1999/xlink">
    <!-- Generator: Sketch 47.1 (45422) - http://www.bohemiancoding.com/sketch -->
    <title>handshake</title>
    <desc>Created with Sketch.</desc>
    <defs></defs>
    <g id="Page-1" stroke="none" stroke-width="1" fill="none" fill-rule="evenodd">
        <g id="2-7-1-chisinau-guest-house-crihan" transform="translate(-562.000000, -5497.000000)" fill-rule="nonzero">
            <g id="handshake" transform="translate(562.000000, 5497.000000)">
                <path d="M57.0722417,20.0655677 L55.2975439,5.75129032 L51.9719298,6.15774194 L51.9732943,6.15543871 L45.5259259,2.5527871 C44.8382066,2.16855484 44.0489669,2.00136774 43.2631384,2.07344516 L33.0829825,3.00828387 C31.8315789,3.12317419 30.7133528,3.83216129 30.0819883,4.91115484 L22.9067836,17.173529 C22.3769396,18.0789677 22.792846,19.2402 23.7795322,19.6102065 L24.0730409,19.7202194 C24.6376803,19.9319806 25.2180117,20.0545935 25.7980702,20.1025548 L24.8888889,20.8887677 L23.0699805,22.4622774 L17.8966667,26.8438258 C16.9757505,27.6403355 16.8800975,29.0263355 17.6823002,29.9407161 L18.2070955,30.5375226 C19.2373099,31.7105419 21.0304288,31.8323419 22.2140156,30.8091677 L24.1912086,33.0609097 C24.8340351,33.7938774 25.7758285,34.1180903 26.6806433,34.0075355 C27.2244055,33.9411484 27.7549318,33.717329 28.1979922,33.3325548 L30.1730019,35.5844323 C30.8181481,36.3192968 31.7598051,36.6413419 32.6646199,36.5307871 C33.2083821,36.4642645 33.7390448,36.2426129 34.1822417,35.8579742 L35.255575,36.7789935 C36.2860624,37.9540452 38.0812281,38.0755742 39.2648148,37.0524 L40.7238986,35.788471 L52.9904094,26.3029742 L53.0036452,26.2909161 L57.8433333,26.2861742 L57.0722417,20.0655677 Z" id="Shape" fill="#F29F5C"></path>
                <path d="M51.8151462,22.6031806 L51.8019103,22.6152387 L39.5353996,32.1007355 L38.0763158,33.3646645 C36.8928655,34.3878387 35.0975634,34.2663097 34.067076,33.0912581 L32.9937427,32.1702387 C32.5505458,32.5548774 32.0197466,32.7766645 31.4761209,32.8430516 C30.571306,32.9536065 29.6297856,32.6315613 28.9845029,31.8966968 L27.0094932,29.6448194 C26.5662963,30.0294581 26.03577,30.2532774 25.4921442,30.3198 C24.5873294,30.4303548 23.6455361,30.1062774 23.0027096,29.3731742 L21.0255166,27.1214323 C20.0122222,27.997471 18.5532749,28.0316129 17.5076413,27.287671 C16.971384,28.0905484 17.01423,29.1787548 17.6827096,29.9407161 L18.2075049,30.5375226 C19.2377193,31.7105419 21.0308382,31.8323419 22.214425,30.8091677 L24.1916179,33.0609097 C24.8344444,33.7938774 25.7762378,34.1180903 26.6810526,34.0075355 C27.2248148,33.9411484 27.7552047,33.717329 28.1984016,33.3325548 L30.1734113,35.5845677 C30.8185575,36.3194323 31.7602144,36.6414774 32.6650292,36.5309226 C33.2087914,36.4644 33.7394542,36.2427484 34.1826511,35.8581097 L35.2559844,36.779129 C36.2864717,37.9541806 38.0816374,38.0757097 39.2652242,37.0525355 L40.724308,35.7886065 L52.9908187,26.3031097 L53.0040546,26.2910516 L57.8437427,26.2863097 L57.3083041,21.9676258 L51.8151462,22.6031806 Z" id="Shape" fill="#D37D42"></path>
                <path d="M54.0488694,28.7947935 L47.4766472,23.1681484 L45.6490058,21.6046645 L44.3412476,20.4863806 L38.71846,15.6739935 L39.3678363,10.1855419 C39.5875244,8.32927742 38.4106238,6.59142581 36.5963548,6.09298065 L24.3395322,2.72552903 C23.0426901,2.36920645 21.6720273,2.96669032 21.058538,4.15583226 L19.5171735,7.14325161 L12.9008772,6.69737419 L11.2061404,21.021271 L10.4695712,27.2460774 L16.9098441,27.6713613 L16.9232164,27.6834194 L30.3776803,39.1986 L31.8438596,40.4545355 C33.0330409,41.4712065 34.8275244,41.3397871 35.851462,40.1590452 L37.8136452,37.8983613 C38.2588889,38.2805613 38.7909162,38.4993677 39.3350877,38.5629097 C40.2404483,38.6685871 41.1803314,38.3412581 41.821384,37.602871 L43.7838402,35.3401548 C44.2290838,35.7223548 44.7608382,35.943329 45.3050097,36.0067355 C46.2103704,36.1124129 47.1503899,35.7830516 47.7891228,35.0464258 L49.7536257,32.7838452 C50.942807,33.8005161 52.7352437,33.6688258 53.7589084,32.4901161 L54.2804288,31.890329 C55.0775828,30.9717484 54.974152,29.5862903 54.0488694,28.7947935 Z" id="Shape" fill="#F9C295"></path>
                <g id="Group" transform="translate(30.838207, 26.961290)" fill="#E59F6A">
                    <path d="M23.2106628,1.83350323 L21.2087719,0.119632258 C21.8593762,0.976296774 21.8460039,2.19497419 21.1117544,3.04120645 L20.5581676,3.67784516 C19.471462,4.92903871 17.5687719,5.06885806 16.3063158,3.98959355 L14.2207797,6.39145161 C13.5427485,7.17332903 12.5448733,7.52287742 11.5837037,7.41083226 C11.0061014,7.34349677 10.4415984,7.10897419 9.96892788,6.7032 L7.88557505,9.10532903 C7.20508772,9.88910323 6.20748538,10.2364839 5.24631579,10.1244387 C4.66871345,10.0571032 4.10393762,9.82474839 3.63126706,9.41897419 L1.54818713,11.8189355 C1.15575049,12.2715871 0.655925926,12.5765613 0.118986355,12.7337226 L1.00578947,13.4933806 C2.19497076,14.5100516 3.98945419,14.3786323 5.01339181,13.1978903 L6.97557505,10.9372065 C7.42081871,11.3194065 7.952846,11.5382129 8.49701754,11.6017548 C9.40237817,11.7072968 10.3422612,11.3801032 10.9833138,10.6417161 L12.94577,8.379 C13.3910136,8.7612 13.922768,8.98217419 14.4669396,9.04558065 C15.3723002,9.15125806 16.3123197,8.82189677 16.9510526,8.08527097 L18.9155556,5.82269032 C20.1047368,6.83936129 21.8971735,6.70767097 22.9208382,5.52896129 L23.4423587,4.92917419 C24.2393762,4.01045806 24.1359454,2.625 23.2106628,1.83350323 Z" id="Shape"></path>
                    <path d="M19.5808967,5.06926452 L15.9796491,1.98619355 C15.5518713,1.61984516 14.9054971,1.66726452 14.5362573,2.09227742 C14.167154,2.51729032 14.2150487,3.15894194 14.6430994,3.52542581 L18.2379337,6.60307742 L18.9155556,5.82269032 C19.1860039,6.05396129 19.4885185,6.22263871 19.8052242,6.33630968 C20.0389669,5.92321935 19.9561404,5.39049677 19.5808967,5.06926452 Z" id="Shape"></path>
                    <path d="M13.8230214,8.8914 C14.0695906,8.47614194 13.9905848,7.9329871 13.609883,7.6070129 L10.3748733,4.8375871 C9.94682261,4.47123871 9.30072125,4.51865806 8.93148148,4.94367097 C8.56237817,5.36868387 8.6102729,6.01033548 9.03832359,6.37681935 L12.2733333,9.14624516 C12.2746979,9.14732903 12.2760624,9.14827742 12.2774269,9.14936129 L12.94577,8.37872903 C13.2122612,8.60756129 13.5102729,8.77732258 13.8230214,8.8914 Z" id="Shape"></path>
                </g>
                <g id="Group" transform="translate(15.828460, 2.032258)" fill="#F29F5C">
                    <path d="M1.41705653,25.6247419 L0.637504873,26.6468323 C-0.211364522,27.7598323 0.00914230019,29.3454 1.13009747,30.1883806 L1.13009747,30.1883806 C2.25105263,31.0312258 3.84795322,30.8122839 4.69695906,29.6992839 L5.47651072,28.6771935 C6.32538012,27.5641935 6.10487329,25.9786258 4.98391813,25.1356452 L4.98391813,25.1356452 C3.86296296,24.2928 2.26592593,24.5117419 1.41705653,25.6247419 Z" id="Shape"></path>
                    <path d="M6.16504873,27.7744645 L4.69695906,29.6992839 C3.84808967,30.8122839 4.06859649,32.3978516 5.18955166,33.2408323 L5.18955166,33.2408323 C6.31050682,34.0836774 7.90740741,33.8647355 8.75641326,32.7517355 L10.2245029,30.8269161 C11.0733723,29.7139161 10.8528655,28.1283484 9.73191033,27.2853677 L9.73191033,27.2853677 C8.61081871,26.4425226 7.01391813,26.6614645 6.16504873,27.7744645 Z" id="Shape"></path>
                    <path d="M10.757076,30.1284968 L8.7562768,32.7517355 C7.90740741,33.8647355 8.12791423,35.4503032 9.2488694,36.2932839 L9.2488694,36.2932839 C10.3698246,37.136129 11.9667251,36.9171871 12.815731,35.8041871 L14.8165302,33.1809484 C15.6653996,32.0679484 15.4448928,30.4823806 14.3239376,29.6394 L14.3239376,29.6394 C13.2029825,28.7964194 11.6060819,29.0154968 10.757076,30.1284968 Z" id="Shape"></path>
                    <path d="M14.9326511,33.0286645 L12.815731,35.8040516 C11.9668616,36.9170516 12.1873684,38.5026194 13.3083236,39.3456 L13.3083236,39.3456 C14.4292788,40.1884452 16.0261793,39.9695032 16.8751852,38.8565032 L18.9921053,36.0811161 C19.8409747,34.9681161 19.6204678,33.3825484 18.4995127,32.5395677 L18.4995127,32.5395677 C17.3784211,31.6967226 15.7815205,31.9156645 14.9326511,33.0286645 Z" id="Shape"></path>
                    <path d="M36.1448343,4.12318065 L29.6974659,0.520529032 C29.0097466,0.136296774 28.2205068,-0.0308903226 27.4346784,0.0411870968 L17.2545224,0.976025806 C16.0031189,1.09091613 14.8848928,1.79990323 14.2535283,2.87889677 L7.07832359,15.141271 C6.54847953,16.0468452 6.96438596,17.2079419 7.95107212,17.5779484 L8.2445809,17.6879613 C10.8746979,18.6742839 13.8449903,17.8349613 15.5578752,15.6215613 L18.3069786,12.0691742 C18.3069786,12.0691742 24.9152242,19.6661613 32.1908577,10.794271" id="Shape"></path>
                </g>
                <path d="M69.8560429,28.2002903 L66.4838986,1.00176774 C66.4507407,0.734322581 66.3119688,0.490858065 66.0980117,0.325025806 C65.8840546,0.159193548 65.6126511,0.0846774194 65.3431579,0.117464516 L57.4578558,1.08129677 C55.4098441,1.33167097 53.9488499,3.18969677 54.2010136,5.22303871 L56.9087719,27.0630387 C57.1418324,28.9431484 58.7589279,30.3249484 60.6202729,30.3249484 C60.7720078,30.3249484 60.9257895,30.3157355 61.080117,30.2969032 L68.9654191,29.333071 C69.5262378,29.2643806 69.9250877,28.7572645 69.8560429,28.2002903 Z" id="Shape" fill="#5C9CEE"></path>
                <path d="M69.8560429,28.2002903 L69.485848,25.2147677 C69.3180117,25.4593161 69.0500195,25.6340903 68.7309942,25.6731097 L60.4651267,26.6834129 C60.3032943,26.7031935 60.1421442,26.7128129 59.9830409,26.7128129 C58.5912281,26.7128129 57.3302729,25.9755097 56.632729,24.8377161 L56.9086355,27.0629032 C57.1416959,28.9430129 58.7587914,30.3248129 60.6201365,30.3248129 C60.7718713,30.3248129 60.925653,30.3156 61.0799805,30.2967677 L68.9652827,29.3329355 C69.5262378,29.2643806 69.9250877,28.7572645 69.8560429,28.2002903 Z" id="Shape" fill="#3580D3"></path>
                <path d="M12.4059649,1.08116129 L4.52066277,0.117329032 C4.25089669,0.0844064516 3.97976608,0.159058065 3.76580897,0.324890323 C3.55185185,0.490722581 3.41307992,0.734187097 3.37992203,1.00163226 L0.00777777778,28.2002903 C-0.0612670565,28.7572645 0.337582846,29.2643806 0.898401559,29.3329355 L8.7837037,30.2967677 C8.93816764,30.3156 9.09167641,30.3248129 9.24354776,30.3248129 C11.1047563,30.3248129 12.7219883,28.9428774 12.9550487,27.0629032 L15.662807,5.22290323 C15.9149708,3.18956129 14.4539766,1.33153548 12.4059649,1.08116129 Z" id="Shape" fill="#ED5575"></path>
                <path d="M0.00777777778,28.2002903 L0.37797271,25.2147677 C0.545808967,25.4593161 0.81380117,25.6340903 1.13282651,25.6731097 L9.39869396,26.6834129 C9.56052632,26.7031935 9.72167641,26.7128129 9.88077973,26.7128129 C11.2725926,26.7128129 12.5335478,25.9755097 13.2310916,24.8377161 L12.9551852,27.0629032 C12.7221248,28.9430129 11.1050292,30.3248129 9.24368421,30.3248129 C9.09194932,30.3248129 8.93816764,30.3156 8.78384016,30.2967677 L0.898538012,29.3329355 C0.337446394,29.2643806 -0.0612670565,28.7572645 0.00777777778,28.2002903 Z" id="Shape" fill="#CC3A60"></path>
                <g id="Group" transform="translate(4.366472, 21.812903)" fill="#EBEEF2">
                    <ellipse id="Oval" cx="58.9473684" cy="2.03239355" rx="1.9782846" ry="1.96424516"></ellipse>
                    <ellipse id="Oval" cx="2.07270955" cy="2.03239355" rx="1.9782846" ry="1.96424516"></ellipse>
                </g>
            </g>
        </g>
    </g>
</svg>