<?xml version="1.0" encoding="UTF-8"?>
<svg width="701px" height="350px" viewBox="0 0 701 350" version="1.1" xmlns="http://www.w3.org/2000/svg" xmlns:xlink="http://www.w3.org/1999/xlink">
    <!-- Generator: Sketch 47.1 (45422) - http://www.bohemiancoding.com/sketch -->
    <title>home-pattern-bg</title>
    <desc>Created with Sketch.</desc>
    <defs></defs>
    <g id="Page-1" stroke="none" stroke-width="1" fill="none" fill-rule="evenodd">
        <g id="1-1-home" transform="translate(0.000000, -249.000000)" fill="#F7F7F7">
            <g id="home-pattern-bg" transform="translate(-200.000000, 144.000000)">
                <g id="Page-1" transform="translate(380.000000, 105.000000)">
                    <path d="M10.5664711,330.089666 L60.9811613,330.089666 L60.9811613,150.73281 L10.5664711,150.73281 L10.5664711,330.089666 Z M62.9220711,334.000066 L8.6255613,334.000066 C7.55358894,334.000066 6.68465154,333.124731 6.68465154,332.044866 L6.68465154,148.77761 C6.68465154,147.697746 7.55358894,146.822411 8.6255613,146.822411 L62.9220711,146.822411 C63.9940434,146.822411 64.8629808,147.697746 64.8629808,148.77761 L64.8629808,332.044866 C64.8629808,333.124731 63.9940434,334.000066 62.9220711,334.000066 L62.9220711,334.000066 Z" id="Fill-1"></path>
                    <path d="M11.042365,77.7310995 L61.9582943,77.7310995 L61.9582943,67.9490801 L11.042365,67.9490801 L11.042365,77.7310995 Z M63.9178419,81.7234043 L9.08215812,81.7234043 C7.99952787,81.7234043 7.12195122,80.829735 7.12195122,79.7272519 L7.12195122,65.9535992 C7.12195122,64.8511161 7.99952787,63.9574468 9.08215812,63.9574468 L63.9178419,63.9574468 C65.0004721,63.9574468 65.8780488,64.8511161 65.8780488,65.9535992 L65.8780488,79.7272519 C65.8780488,80.829735 65.0004721,81.7234043 63.9178419,81.7234043 L63.9178419,81.7234043 Z" id="Fill-4"></path>
                    <path d="M12.3285529,64.4067823 L60.6640467,64.4067823 L55.6076051,54.6251326 L17.3849944,54.6251326 L12.3285529,64.4067823 Z M63.9181008,68.3989362 L63.9108491,68.3989362 L9.08175046,68.3989362 C8.39547202,68.3989362 7.75863727,68.0330223 7.40396119,67.4341321 C7.04928511,66.8359133 7.02752988,66.0913289 7.34792501,65.472968 L14.4678166,51.6991644 C14.8066707,51.0438765 15.4744902,50.6329787 16.2016421,50.6329787 L56.7909575,50.6329787 C57.5181094,50.6329787 58.1859288,51.0438765 58.5247829,51.6991644 L65.5721571,65.3313023 C65.7653172,65.6408184 65.8780488,66.0087465 65.8780488,66.4028592 C65.8780488,67.5053007 64.9999288,68.3989362 63.9181008,68.3989362 L63.9181008,68.3989362 Z" id="Fill-6"></path>
                    <path d="M19.0123247,51.0823142 L53.9883276,51.0823142 L53.9883276,41.3006645 L19.0123247,41.3006645 L19.0123247,51.0823142 Z M55.9267645,55.0744681 L17.0732355,55.0744681 C16.0022687,55.0744681 15.1341463,54.1808326 15.1341463,53.0783912 L15.1341463,39.3045876 C15.1341463,38.2021462 16.0022687,37.3085106 17.0732355,37.3085106 L55.9267645,37.3085106 C56.9977313,37.3085106 57.8658537,38.2021462 57.8658537,39.3045876 L57.8658537,53.0783912 C57.8658537,54.1808326 56.9977313,55.0744681 55.9267645,55.0744681 L55.9267645,55.0744681 Z" id="Fill-7"></path>
                    <path d="M20.2637824,36.971856 L52.729732,36.971856 L36.4964311,5.59991307 L20.2637824,36.971856 Z M55.9270916,40.8617021 L55.9205704,40.8617021 L17.072944,40.8617021 C16.3960402,40.8617021 15.7673935,40.5071282 15.4158991,39.9268568 C15.0644047,39.3459313 15.0402762,38.6236995 15.351991,38.0205313 L34.4826749,1.04932951 C34.8159098,0.404292789 35.4797712,0 36.2036278,0 L36.7898865,0 C37.5137432,0 38.1769524,0.404292789 38.5108394,1.04932951 L57.5691376,37.882496 C57.7576012,38.1821176 57.8658537,38.5366915 57.8658537,38.916779 C57.8658537,39.990968 56.9978778,40.8617021 55.9270916,40.8617021 L55.9270916,40.8617021 Z" id="Fill-8"></path>
                    <path d="M3.9280556,147.091205 L69.0719444,147.091205 L69.0719444,82.0896464 L3.9280556,82.0896464 L3.9280556,147.091205 Z M71.0359722,151.010638 L1.9640278,151.010638 C0.879287253,151.010638 0,150.133281 0,149.050922 L0,80.1299296 C0,79.0482292 0.879287253,78.1702128 1.9640278,78.1702128 L71.0359722,78.1702128 C72.1207127,78.1702128 73,79.0482292 73,80.1299296 L73,149.050922 C73,150.133281 72.1207127,151.010638 71.0359722,151.010638 L71.0359722,151.010638 Z" id="Fill-9"></path>
                    <path d="M26.7073171,323.340426 C25.7239464,323.340426 24.9268293,322.465061 24.9268293,321.385159 L24.9268293,158.295692 C24.9268293,157.21579 25.7239464,156.340426 26.7073171,156.340426 C27.6906877,156.340426 28.4878049,157.21579 28.4878049,158.295692 L28.4878049,321.385159 C28.4878049,322.465061 27.6906877,323.340426 26.7073171,323.340426" id="Fill-10"></path>
                    <path d="M46.2926829,323.340426 C45.3093123,323.340426 44.5121951,322.465061 44.5121951,321.385159 L44.5121951,158.295692 C44.5121951,157.21579 45.3093123,156.340426 46.2926829,156.340426 C47.2760536,156.340426 48.0731707,157.21579 48.0731707,158.295692 L48.0731707,321.385159 C48.0731707,322.465061 47.2760536,323.340426 46.2926829,323.340426" id="Fill-11"></path>
                    <path d="M36.6843152,90.0922211 C23.5354186,90.0922211 12.8383703,100.766547 12.8383703,113.88604 L12.8383703,114.406513 C12.8383703,127.526667 23.5354186,138.200332 36.6843152,138.200332 L37.2059287,138.200332 C50.3548253,138.200332 61.0518736,127.526667 61.0518736,114.406513 L61.0518736,113.88604 C61.0518736,100.766547 50.3548253,90.0922211 37.2059287,90.0922211 L36.6843152,90.0922211 Z M37.2059287,142.12766 L36.6843152,142.12766 C21.3655595,142.12766 8.90243902,129.691783 8.90243902,114.406513 L8.90243902,113.88604 C8.90243902,98.6007703 21.3648975,86.1648936 36.6843152,86.1648936 L37.2059287,86.1648936 C52.5246844,86.1648936 64.9878049,98.6007703 64.9878049,113.88604 L64.9878049,114.406513 C64.9878049,129.691783 52.5246844,142.12766 37.2059287,142.12766 L37.2059287,142.12766 Z" id="Fill-12"></path>
                    <path d="M52.3414421,124.361702 C51.9409137,124.361702 51.5370861,124.239983 51.1886858,123.986676 L35.5271675,112.618112 C35.0197435,112.249665 34.7195122,111.662123 34.7195122,111.036421 L34.7195122,96.1156333 C34.7195122,95.0352941 35.5977713,94.1595745 36.6812436,94.1595745 C37.7647158,94.1595745 38.6429749,95.0352941 38.6429749,96.1156333 L38.6429749,110.040956 L53.4974977,120.823953 C54.3737773,121.460182 54.5664533,122.683294 53.929039,123.55704 C53.5450069,124.082735 52.9471836,124.361702 52.3414421,124.361702" id="Fill-13"></path>
                </g>
                <g id="kremlin-copy" transform="translate(144.000000, 132.000000)" fill-rule="nonzero">
                    <path d="M111.105593,173.483115 C100.509309,173.483115 91.8890189,182.086414 91.8890189,192.660338 C91.8890189,203.234262 100.509309,211.837562 111.105593,211.837562 C121.701877,211.837562 130.322167,203.234262 130.322167,192.660338 C130.322167,182.086414 121.701877,173.483115 111.105593,173.483115 Z M111.105593,206.547293 C103.432216,206.547293 97.1901428,200.317341 97.1901428,192.660338 C97.1901428,185.003336 103.432216,178.773383 111.105593,178.773383 C118.77897,178.773383 125.021043,185.003336 125.021043,192.660338 C125.021043,200.317341 118.77897,206.547293 111.105593,206.547293 Z" id="Shape"></path>
                    <path d="M80.6241306,251.514576 C79.1603578,251.514576 77.9735687,252.698934 77.9735687,254.15971 L77.9735687,262.095113 C77.9735687,263.555888 79.1603578,264.740247 80.6241306,264.740247 C82.0879034,264.740247 83.2746925,263.555888 83.2746925,262.095113 L83.2746925,254.15971 C83.2746925,252.698934 82.0879034,251.514576 80.6241306,251.514576 Z" id="Shape"></path>
                    <path d="M96.0305219,251.514576 C94.5667491,251.514576 93.37996,252.698934 93.37996,254.15971 L93.37996,262.095113 C93.37996,263.555888 94.5667491,264.740247 96.0305219,264.740247 C97.4942947,264.740247 98.6810838,263.555888 98.6810838,262.095113 L98.6810838,254.15971 C98.6810838,252.698934 97.4942947,251.514576 96.0305219,251.514576 Z" id="Shape"></path>
                    <path d="M111.436913,251.514576 C109.97314,251.514576 108.786351,252.698934 108.786351,254.15971 L108.786351,262.095113 C108.786351,263.555888 109.97314,264.740247 111.436913,264.740247 C112.900686,264.740247 114.087475,263.555888 114.087475,262.095113 L114.087475,254.15971 C114.087475,252.698934 112.900686,251.514576 111.436913,251.514576 Z" id="Shape"></path>
                    <path d="M126.843305,251.514576 C125.379532,251.514576 124.192743,252.698934 124.192743,254.15971 L124.192743,262.095113 C124.192743,263.555888 125.379532,264.740247 126.843305,264.740247 C128.307077,264.740247 129.493866,263.555888 129.493866,262.095113 L129.493866,254.15971 C129.493866,252.698934 128.307077,251.514576 126.843305,251.514576 Z" id="Shape"></path>
                    <path d="M142.249696,251.514576 C140.785923,251.514576 139.599134,252.698934 139.599134,254.15971 L139.599134,262.095113 C139.599134,263.555888 140.785923,264.740247 142.249696,264.740247 C143.713469,264.740247 144.900258,263.555888 144.900258,262.095113 L144.900258,254.15971 C144.900258,252.698934 143.713469,251.514576 142.249696,251.514576 Z" id="Shape"></path>
                    <path d="M102.474038,10.6678265 L106.424038,12.2079559 L104.135278,15.7709518 C103.37788,16.9506817 103.672755,18.5146173 104.809183,19.3392379 C105.278333,19.6797989 105.823686,19.8444586 106.365726,19.8444586 C107.134389,19.8444586 107.8951,19.5118329 108.417261,18.8763394 L111.105593,15.6029858 L113.793925,18.8763394 C114.323375,19.5204296 115.104628,19.8371844 115.876604,19.8444586 C117.331763,19.833878 118.50795,18.6534868 118.50795,17.1993243 C118.50795,16.5856531 118.298555,16.0215783 117.947356,15.5725667 L115.786485,12.2086172 L119.736485,10.6684878 C121.044538,10.1592994 121.726395,8.71968511 121.293028,7.38719872 C120.858998,6.05471234 119.460827,5.29622009 118.101089,5.64537781 L113.998681,6.71665719 L113.751516,2.4910552 C113.670012,1.09244045 112.509728,0 111.105593,0 C109.701458,0 108.541174,1.09244045 108.45967,2.4910552 L108.212505,6.71665719 L104.110097,5.64537781 C102.751684,5.29489752 101.351525,6.05405105 100.918158,7.38719872 C100.484129,8.71902383 101.166648,10.1579769 102.474038,10.6678265 Z" id="Shape"></path>
                    <path d="M221.313308,238.245921 C220.424045,237.794264 219.357856,237.877586 218.551423,238.463483 L211.469121,243.60364 L204.380193,238.463483 C203.57376,237.878908 202.507571,237.794264 201.61897,238.246582 C200.731032,238.6989 200.171763,239.609488 200.171763,240.604058 L200.171763,258.128073 L189.47012,258.128073 L189.47012,240.604058 C189.47012,239.608826 188.910851,238.698239 188.02225,238.246582 C187.132987,237.794925 186.066798,237.878247 185.260364,238.464144 L178.178063,243.604302 L171.095761,238.464144 C170.289328,237.878908 169.223802,237.795587 168.333876,238.246582 C167.445938,238.698239 166.886669,239.608826 166.886669,240.604058 L166.886669,258.128073 L156.165146,258.128073 L156.165146,218.7817 C156.165146,217.320925 154.978357,216.136566 153.514584,216.136566 L152.189303,216.136566 L152.189303,203.527872 C152.189303,202.067097 151.002514,200.882738 149.538741,200.882738 C148.074968,200.882738 146.888179,202.067097 146.888179,203.527872 L146.888179,216.136566 L143.243657,216.136566 L143.243657,166.540299 C143.243657,165.079523 142.056867,163.895164 140.593095,163.895164 L135.954611,163.895164 L135.954611,103.387718 C135.954611,101.926943 134.767822,100.742584 133.304049,100.742584 L128.030094,100.742584 L113.710433,25.0302443 C113.47387,23.7804183 112.379851,22.8757824 111.105593,22.8757824 C109.831335,22.8757824 108.737316,23.7804183 108.500753,25.0302443 L94.1810923,100.741922 L88.9071367,100.741922 C87.4433638,100.741922 86.2565747,101.926281 86.2565747,103.387057 L86.2565747,163.894503 L81.6180913,163.894503 C80.1543185,163.894503 78.9675294,165.078862 78.9675294,166.539637 L78.9675294,216.135905 L74.9916865,216.135905 L74.9916865,203.527211 C74.9916865,202.066436 73.8048974,200.882077 72.3411245,200.882077 C70.8773517,200.882077 69.6905626,202.066436 69.6905626,203.527211 L69.6905626,216.135905 L68.3652816,216.135905 C66.9015088,216.135905 65.7147197,217.320264 65.7147197,218.781039 L65.7147197,258.127411 L56.3184776,258.127411 L56.3184776,240.603397 C56.3184776,239.608165 55.759209,238.697578 54.8706081,238.245921 C53.9820072,237.794264 52.915156,237.877586 52.1087226,238.463483 L45.026421,243.60364 L37.9441195,238.463483 C37.1383487,237.878247 36.0714975,237.794925 35.182234,238.245921 C34.2942957,238.697578 33.7343645,239.608165 33.7343645,240.603397 L33.7343645,258.127411 L23.0327207,258.127411 L23.0327207,240.603397 C23.0327207,239.608826 22.4734521,238.698239 21.5855138,238.245921 C20.6975756,237.794925 19.6307244,237.878908 18.8242909,238.462822 L11.7360257,243.602979 L4.65372413,238.462822 C3.8479533,237.877586 2.78110212,237.794264 1.89183859,238.24526 C1.00390034,238.696916 0.443969126,239.607504 0.443969126,240.602735 L0.443969126,304.747241 C0.443969126,306.208017 1.63075824,307.392376 3.09453107,307.392376 L220.10929,307.392376 C221.573063,307.392376 222.759852,306.208017 222.759852,304.747241 L222.759852,240.602735 C222.760515,239.608165 222.201246,238.697578 221.313308,238.245921 Z M71.0158435,221.426173 L84.1029932,221.426173 L84.1029932,240.07437 C84.1029932,241.535145 85.2897823,242.719504 86.7535551,242.719504 C88.2173279,242.719504 89.404117,241.535145 89.404117,240.07437 L89.404117,221.426173 L108.289371,221.426173 L108.289371,240.07437 C108.289371,241.535145 109.47616,242.719504 110.939933,242.719504 C112.403706,242.719504 113.590495,241.535145 113.590495,240.07437 L113.590495,221.426173 L132.475749,221.426173 L132.475749,240.07437 C132.475749,241.535145 133.662538,242.719504 135.126311,242.719504 C136.590083,242.719504 137.776873,241.535145 137.776873,240.07437 L137.776873,221.426173 L150.864022,221.426173 L150.864022,277.635276 L71.0158435,277.635276 L71.0158435,221.426173 Z M130.653487,142.402787 L123.364442,142.402787 L123.364442,106.032191 L130.653487,106.032191 L130.653487,142.402787 Z M118.063318,106.032191 L118.063318,142.402787 L104.147868,142.402787 L104.147868,106.032191 L118.063318,106.032191 Z M111.105593,39.7821581 L122.635537,100.741922 L99.5756485,100.741922 L111.105593,39.7821581 Z M98.846744,106.032191 L98.846744,142.402787 L91.5576986,142.402787 L91.5576986,106.032191 L98.846744,106.032191 Z M91.5576986,147.693056 L130.653487,147.693056 L130.653487,163.894503 L91.5576986,163.894503 L91.5576986,147.693056 Z M84.2686533,169.184772 L137.942533,169.184772 L137.942533,216.135905 L84.2686533,216.135905 L84.2686533,169.184772 Z M5.74575566,245.797118 L10.1774952,249.01294 C11.1065172,249.687449 12.3655341,249.686127 13.2945561,249.013601 L17.7335847,245.794473 L17.7335847,260.771884 C17.7335847,262.23266 18.9203738,263.417019 20.3841466,263.417019 L36.3869144,263.417019 C37.8506872,263.417019 39.0374763,262.23266 39.0374763,260.771884 L39.0374763,245.796457 L43.4692159,249.012279 C44.3982379,249.686788 45.6579174,249.686788 46.5869394,249.012279 L51.018679,245.796457 L51.018679,260.771884 C51.018679,262.23266 52.2054681,263.417019 53.6692409,263.417019 L65.7160449,263.417019 L65.7160449,302.102107 L5.74708094,302.102107 L5.74708094,245.797118 L5.74575566,245.797118 Z M71.0158435,302.102768 L71.0158435,282.925545 L150.864022,282.925545 L150.864022,302.102768 L71.0158435,302.102768 Z M217.459391,302.102768 L156.165146,302.102768 L156.165146,263.41768 L169.537231,263.41768 C171.001004,263.41768 172.187793,262.233321 172.187793,260.772546 L172.187793,245.797118 L176.619533,249.01294 C177.548555,249.687449 178.808234,249.687449 179.737256,249.01294 L184.168996,245.797118 L184.168996,260.772546 C184.168996,262.233321 185.355785,263.41768 186.819558,263.41768 L202.822325,263.41768 C204.286098,263.41768 205.472887,262.233321 205.472887,260.772546 L205.472887,245.795134 L209.911916,249.014262 C210.840938,249.687449 212.099955,249.68811 213.028977,249.013601 L217.460716,245.797779 L217.460716,302.102768 L217.459391,302.102768 Z" id="Shape"></path>
                    <path d="M117.731998,190.015204 L113.756155,190.015204 L113.756155,185.964842 C113.756155,184.504067 112.569366,183.319708 111.105593,183.319708 C109.64182,183.319708 108.455031,184.504067 108.455031,185.964842 L108.455031,192.660338 C108.455031,194.121114 109.64182,195.305472 111.105593,195.305472 L117.731998,195.305472 C119.195771,195.305472 120.38256,194.121114 120.38256,192.660338 C120.38256,191.199563 119.195771,190.015204 117.731998,190.015204 Z" id="Shape"></path>
                </g>
                <g id="Page-1" transform="translate(542.000000, 124.000000)">
                    <path d="M64.2149052,98.5756961 L116.243693,112.532029 C117.139808,112.772381 117.765214,113.580018 117.771461,114.5061 L117.944298,139.50199 L118.162253,169.872202 L119.146521,310.243864 L158.161171,310.113645 L159.586903,310.101869 L195.750089,309.982732 L195.739678,260.671833 C172.544817,246.586665 155.54224,228.948171 143.785855,206.782474 C127.579439,176.225246 122.284658,137.638745 128.045196,92.0938178 C125.781657,85.8169658 124.801553,78.201209 123.765225,70.150464 C123.216173,65.8843934 122.651155,61.4922593 121.875819,57.2622069 C93.2424932,59.7495359 57.0334943,63.4032983 42.9066746,66.9829464 C42.3437397,67.1256336 41.7460986,67.0245058 41.2615998,66.7051912 C41.1644224,66.6414668 31.3377034,60.2440925 22.7034901,60.2440925 C21.6886802,60.2440925 20.728012,60.3348305 19.8325916,60.5135359 L19.8388387,62.3442267 C19.8409211,62.8900399 19.6250484,63.4150734 19.2391152,63.802961 C18.853182,64.1901559 18.328424,64.4083427 17.781454,64.4104206 L5.17337851,64.4471314 C7.19536287,67.7310153 12.7691817,73.1406615 27.5450077,73.1406615 C31.7076717,73.1399689 36.3666346,72.6987468 41.3914011,71.8287704 C42.1327259,71.698551 42.8851568,71.984618 43.3557731,72.5706053 L64.2149052,98.5756961 Z M117.097466,314.369325 C115.963961,314.369325 115.042164,313.456404 115.033834,312.324604 L114.034989,169.901986 L113.817034,139.531082 L113.655303,116.10198 L62.4907002,102.377687 C62.0665902,102.264091 61.6896807,102.018198 61.4148074,101.676026 L40.8909374,76.088607 C36.089679,76.8650748 31.6056354,77.2585036 27.5450077,77.2591963 C3.15625303,77.259889 0.154165028,63.3832112 0.038246254,62.7923753 C-0.0797548927,62.1897643 0.0778113444,61.5649882 0.468603378,61.0905186 C0.859395411,60.6153564 1.44176578,60.3396791 2.05745411,60.3376012 L15.7046338,60.2981197 L15.6997749,58.9425912 C15.6969984,58.0559911 16.2634039,57.2663628 17.1060709,56.983759 C18.802511,56.4143955 20.6856704,56.1262504 22.7034901,56.1262504 C31.1725018,56.1262504 40.0933885,61.152165 42.7567438,62.7778296 C58.0281745,59.1226819 94.870909,55.4529884 123.375127,52.9989069 C124.422561,52.9074763 125.369347,53.617449 125.575502,54.6453511 C126.563935,59.5632113 127.222659,64.6784786 127.859171,69.6254304 C128.89064,77.6401573 129.86519,85.2101988 132.087082,91.1303328 C132.173848,91.3609874 132.218272,91.6061877 132.218272,91.8527734 C132.218272,91.9400481 132.212719,92.0384053 132.201613,92.1249873 C126.450098,137.025744 131.574819,174.953529 147.434173,204.855504 C158.996897,226.656864 175.819696,243.956649 198.863931,257.743974 C199.485867,258.115931 199.866941,258.786422 199.866941,259.510248 L199.878047,312.034381 C199.878741,313.169644 198.958332,314.090185 197.821357,314.094341 L159.610503,314.220404 L158.184771,314.231487 L117.104407,314.369325 L117.097466,314.369325 Z" id="Fill-1"></path>
                    <path d="M125.543332,56.9763892 C128.423254,64.8920663 134.953576,77.670191 145.325183,91.1125732 C158.963339,108.789856 176.058928,123.397979 194.927312,133.530157 L194.927312,114.319332 C194.927312,113.393251 195.546471,112.580765 196.441197,112.334179 L248.367949,98.0162792 L269.047303,71.8650379 C269.51306,71.27628 270.264103,70.9867497 271.005428,71.1093498 C275.864992,71.9142165 280.38166,72.3228838 284.429793,72.3228838 C299.516587,72.3221911 305.143853,66.8128024 307.168614,63.475584 L294.552209,63.5212993 C294.004545,63.5386157 293.479093,63.3086538 293.090383,62.9235368 C292.702368,62.5384199 292.483025,62.0154643 292.480942,61.4689585 L292.474695,59.6389603 C291.614675,59.4734155 290.69496,59.389604 289.726657,59.389604 C281.069537,59.389604 271.204641,65.9255096 271.106076,65.9913119 C270.622965,66.3140898 270.025324,66.4193735 269.461695,66.2815349 C252.353611,62.0722622 202.334313,57.9384889 174.040415,55.8487447 C172.96591,55.7690892 172.133655,54.8783331 172.12949,53.8026377 L172.00316,20.6465626 C171.972618,11.6600388 164.630864,4.34905082 155.637095,4.34905082 L155.562129,4.34974348 C151.175263,4.36428926 147.061188,6.08207706 143.975805,9.18587026 C140.894587,12.2841222 139.209253,16.3936525 139.228688,20.7560023 L139.343913,53.9252379 C139.347383,55.0030112 138.517905,55.9013866 137.440624,55.985198 C135.240249,56.1569768 132.889944,56.3516132 130.448015,56.5573321 L127.787436,56.7845234 C127.057911,56.8468625 126.270774,56.9140502 125.543332,56.9763892 M196.990944,138.990367 C196.670952,138.990367 196.350267,138.916253 196.055958,138.767332 C175.457817,128.326229 156.784482,112.715833 142.055163,93.6248378 C130.204377,78.2651828 123.186779,63.6217345 120.778168,55.7483095 C120.595613,55.152625 120.693484,54.5070693 121.043323,53.9917329 C121.393162,53.4763966 121.958873,53.1466922 122.580115,53.0954356 C122.998672,53.0601101 125.436436,52.8523132 127.435515,52.6812271 L130.100258,52.4533431 C131.857781,52.3058073 133.568104,52.1631201 135.209708,52.0308228 L135.101424,20.772626 C135.07713,15.3110306 137.187962,10.1652864 141.045906,6.28502538 C144.908708,2.39991579 150.058417,0.249910419 155.546164,0.231208697 L155.637095,0.231208697 C166.899263,0.231208697 176.092246,9.38258467 176.130423,20.6320168 L176.249118,51.8825943 C204.486099,53.9882697 251.834406,57.9620393 269.581084,62.0750328 C272.24791,60.4175061 281.215303,55.2710693 289.726657,55.2710693 C291.68617,55.2710693 293.520046,55.5467465 295.177615,56.0911744 C296.022365,56.3682369 296.593629,57.1530166 296.5971,58.0403094 L296.601265,59.3958379 L310.260244,59.3459667 C310.878015,59.3431961 311.460385,59.6161027 311.853954,60.0878017 C312.247522,60.5601933 312.409948,61.183584 312.295417,61.7868877 C312.182275,62.3853428 309.238493,76.4407259 284.429793,76.4414186 C280.49619,76.4414186 276.16416,76.079852 271.537127,75.3657232 L251.189564,101.097215 C250.917468,101.441465 250.541946,101.689436 250.119225,101.806495 L199.054575,115.886814 L199.054575,136.931099 C199.054575,137.647306 198.681831,138.311564 198.070307,138.686291 C197.739904,138.888546 197.365771,138.990367 196.990944,138.990367" id="Fill-4"></path>
                    <path d="M204.207043,262.725046 L197.975945,262.725046 C196.854443,262.725046 195.945357,261.805605 195.945357,260.671328 C195.945357,259.537051 196.854443,258.61761 197.975945,258.61761 L202.13001,258.61761 L199.509302,141.402342 L196.305986,139.587637 C195.327233,139.032933 194.978898,137.781913 195.526672,136.792011 C196.075128,135.80211 197.312059,135.449116 198.290812,136.00382 L202.504983,138.39188 C203.131986,138.747637 203.526765,139.410795 203.542474,140.137506 L206.236948,260.625045 C206.249242,261.177677 206.040924,261.711657 205.659122,262.106789 C205.276636,262.502612 204.753451,262.725046 204.207043,262.725046" id="Fill-7"></path>
                </g>
                <g id="Page-1" transform="translate(468.000000, 261.000000)">
                    <path d="M79.8955633,55.5085572 L99.6568291,55.5085572 L99.6568291,39.1007137 L79.8955633,39.1007137 L79.8955633,55.5085572 Z M101.35031,58.8709917 L78.2020823,58.8709917 C77.2667658,58.8709917 76.5086013,58.1183176 76.5086013,57.1897744 L76.5086013,37.4194965 C76.5086013,36.4909534 77.2667658,35.7382792 78.2020823,35.7382792 L101.35031,35.7382792 C102.285627,35.7382792 103.043791,36.4909534 103.043791,37.4194965 L103.043791,57.1897744 C103.043791,58.1183176 102.285627,58.8709917 101.35031,58.8709917 L101.35031,58.8709917 Z" id="Fill-1"></path>
                    <path d="M21.2816962,69.195577 L39.1632152,69.195577 L39.5727722,58.8707655 L19.7408734,58.8707655 L21.2816962,69.195577 Z M40.7917595,72.5580115 L19.8206203,72.5580115 C18.981,72.5580115 18.2684051,71.9478422 18.1453671,71.1233502 L16.1027089,57.4361042 C16.0309367,56.9526058 16.174481,56.4617559 16.4957468,56.0913565 C16.8175823,55.7215227 17.2858101,55.508331 17.777962,55.508331 L41.334038,55.508331 C41.7948608,55.508331 42.2357468,55.6949444 42.5547342,56.0246281 C42.8742911,56.3543118 43.0446076,56.7987911 43.0263797,57.2557112 L42.4835316,70.9429572 C42.4476456,71.844922 41.7008734,72.5580115 40.7917595,72.5580115 L40.7917595,72.5580115 Z" id="Fill-3"></path>
                    <path d="M21.1946582,35.7385054 L158.358076,35.7385054 L159.68757,29.4688601 L19.8651646,29.4688601 L21.1946582,35.7385054 Z M159.732,39.1009399 L19.8207342,39.1009399 C19.0198481,39.1009399 18.3283291,38.5439272 18.1637089,37.7658058 L16.1210506,28.1342914 C16.0156709,27.6383521 16.141557,27.122055 16.4628228,26.7284703 C16.7846582,26.3354511 17.2676962,26.1069911 17.7780759,26.1069911 L161.774658,26.1069911 C162.284468,26.1069911 162.768076,26.3354511 163.089342,26.7284703 C163.411177,27.122055 163.536494,27.6383521 163.431684,28.1342914 L161.389025,37.7663712 C161.223835,38.5439272 160.532886,39.1009399 159.732,39.1009399 L159.732,39.1009399 Z" id="Fill-5"></path>
                    <path d="M38.4326772,173.11567 L58.0840063,173.11567 L54.7631203,39.1006572 L43.7460949,39.1006572 L38.4326772,173.11567 Z M59.8196392,176.478104 L36.6714114,176.478104 C36.2105886,176.478104 35.7697025,176.292057 35.4507152,175.962373 C35.1311582,175.632124 34.9608418,175.187644 34.9790696,174.730724 L40.4257785,37.3538425 C40.4616646,36.4513121 41.2084367,35.7387882 42.1181203,35.7387882 L56.4155886,35.7387882 C57.3343861,35.7387882 58.0857152,36.4665805 58.1085,37.3781588 L61.5125506,174.755606 C61.523943,175.208568 61.3502089,175.646827 61.0317911,175.970855 C60.7128038,176.29545 60.2759051,176.478104 59.8196392,176.478104 L59.8196392,176.478104 Z" id="Fill-7"></path>
                    <path d="M140.389291,69.195577 L158.27081,69.195577 L159.811633,58.8707655 L139.979734,58.8707655 L140.389291,69.195577 Z M159.731886,72.5580115 L138.761316,72.5580115 C137.851633,72.5580115 137.104861,71.844922 137.068975,70.9429572 L136.526127,57.2557112 C136.507899,56.7987911 136.678215,56.3543118 136.997772,56.0246281 C137.316759,55.6949444 137.757646,55.508331 138.218468,55.508331 L161.774544,55.508331 C162.266696,55.508331 162.734924,55.7215227 163.056759,56.0913565 C163.378025,56.4617559 163.52157,56.9526058 163.449797,57.4361042 L161.407139,71.1233502 C161.284101,71.9478422 160.570937,72.5580115 159.731886,72.5580115 L159.731886,72.5580115 Z" id="Fill-10"></path>
                    <path d="M58.8967405,69.195577 L120.655538,69.195577 L120.911297,58.8707655 L58.640981,58.8707655 L58.8967405,69.195577 Z M122.308006,72.5580115 L57.2442722,72.5580115 C56.3254747,72.5580115 55.5741456,71.8302192 55.5513608,70.9180754 L55.2124367,57.2308294 C55.2010443,56.7778677 55.3747785,56.3401744 55.6931962,56.0155802 C56.0121835,55.6915514 56.4490823,55.508331 56.9053481,55.508331 L122.64693,55.508331 C123.103766,55.508331 123.540665,55.6915514 123.859652,56.0155802 C124.17807,56.3401744 124.351234,56.7778677 124.340411,57.2308294 L124.000918,70.9180754 C123.978703,71.8302192 123.227373,72.5580115 122.308006,72.5580115 L122.308006,72.5580115 Z" id="Fill-12"></path>
                    <path d="M11.5983797,26.1067083 L167.954013,26.1067083 L174.931291,5.12231214 C171.642304,6.67176901 166.154582,8.91339201 158.116101,11.1578425 C145.172051,14.7713569 122.808759,19.0787339 89.776481,19.0787339 C56.7436329,19.0787339 34.3803418,14.7713569 21.4368608,11.1578425 C13.3983797,8.91339201 7.91065823,6.67176901 4.62110127,5.12231214 L11.5983797,26.1067083 Z M169.178696,29.4691428 L10.3742658,29.4691428 C9.64344304,29.4691428 8.99464557,29.0037403 8.76565823,28.3149671 L0.0852151899,2.20831534 C-0.13978481,1.53141757 0.0897721519,0.786660383 0.657683544,0.350663578 C1.22616456,-0.0847677316 2.00939241,-0.118131949 2.61262025,0.268666773 C2.67072152,0.305989457 8.83287342,4.1711492 22.5931899,7.98767636 C35.3048354,11.513539 57.2790759,15.7162994 89.776481,15.7162994 C152.128253,15.7162994 176.699392,0.42361246 176.940342,0.268666773 C177.54357,-0.118131949 178.326797,-0.0847677316 178.894709,0.351229073 C179.46319,0.786660383 179.692747,1.53141757 179.467177,2.20831534 L170.786734,28.3149671 C170.557747,29.0037403 169.908949,29.4691428 169.178696,29.4691428 L169.178696,29.4691428 Z" id="Fill-14"></path>
                    <path d="M121.468671,173.11567 L141.12,173.11567 L135.806582,39.1006572 L124.789557,39.1006572 L121.468671,173.11567 Z M142.881266,176.478104 L119.733038,176.478104 C119.276772,176.478104 118.839873,176.29545 118.520886,175.970855 C118.202468,175.646827 118.028734,175.208568 118.040127,174.755606 L121.444177,37.3781588 C121.466962,36.4665805 122.218291,35.7387882 123.137089,35.7387882 L137.434557,35.7387882 C138.343671,35.7387882 139.091013,36.4513121 139.126899,37.3538425 L144.573608,174.730724 C144.591835,175.187644 144.421519,175.632124 144.101962,175.962373 C143.782975,176.292057 143.342089,176.478104 142.881266,176.478104 L142.881266,176.478104 Z" id="Fill-17"></path>
                </g>
                <g id="Page-1" transform="translate(761.000000, 340.000000)">
                    <path d="M24.7936069,91.0425651 C25.7185745,90.6873828 26.6731749,90.318724 27.662851,89.9362891 C39.8634125,85.2212891 56.5726998,78.7639193 70,78.7639193 C83.4273002,78.7639193 100.136587,85.2212891 112.337149,89.9362891 C113.326825,90.318724 114.281425,90.6873828 115.206393,91.0425651 L24.7936069,91.0425651 Z M35.9827214,26.1604036 C36.7849244,26.0918229 37.6403456,26.0555859 38.5529158,26.0555859 C39.2042333,26.0555859 40.0974514,26.0558854 41.1231102,26.1283594 L41.1231102,28.6011589 C41.1231102,30.0048177 39.9701512,31.1467318 38.5529158,31.1467318 C37.1356803,31.1467318 35.9827214,30.0048177 35.9827214,28.6011589 L35.9827214,26.1604036 Z M98.8768898,35.743737 C99.6790929,35.6751563 100.534514,35.6389193 101.447084,35.6389193 C102.098402,35.6389193 102.99162,35.6392188 104.017279,35.7116927 L104.017279,38.1844922 C104.017279,39.588151 102.86432,40.7300651 101.447084,40.7300651 C100.029849,40.7300651 98.8768898,39.588151 98.8768898,38.1844922 L98.8768898,35.743737 Z M137.732181,91.0425651 L130.475162,91.0425651 C127.677279,91.0425651 121.332527,88.5904297 113.985702,85.7513672 C110.817711,84.5270964 107.353391,83.188724 103.714903,81.8716146 L103.714903,44.8526953 C106.523974,43.9129297 108.552916,41.2799089 108.552916,38.1844922 L108.552916,36.5526302 C112.342894,37.8038542 116.029158,40.7686979 116.112613,47.7941797 C116.127127,49.025638 117.139482,50.0139193 118.379525,50.0139193 L118.406739,50.0139193 C119.659482,49.9992448 120.662462,48.9819141 120.647646,47.7414714 C120.547862,39.33 116.311577,33.8914583 108.552916,31.9478385 L108.552916,31.6474609 C111.375594,30.5277083 114.489762,30.0416536 117.631447,30.2848307 C123.006782,30.7005078 127.803369,33.1592318 131.136458,37.2081901 C131.584579,37.7526432 132.237408,38.0350521 132.895378,38.0347526 C133.399136,38.0347526 133.90622,37.8694401 134.326825,37.5292318 C135.297754,36.7451953 135.442894,35.3304557 134.651274,34.3691276 C130.526868,29.3594401 124.607559,26.3185286 117.98432,25.8061198 C113.537581,25.4629167 109.131361,26.3149349 105.259438,28.1866797 C106.325313,26.3191276 107.884363,24.5608854 109.770583,23.2096354 C112.280302,21.4121615 117.586998,18.7542839 124.926566,21.1507161 C126.117019,21.5391406 127.398488,20.8988542 127.79067,19.7207031 C128.182851,18.5425521 127.536371,17.2727604 126.347127,16.8843359 C119.487127,14.6445312 112.65676,15.5986719 107.1127,19.5697656 C106.882289,19.7347786 106.657322,19.9054818 106.434773,20.0791797 C108.265356,16.9340495 110.912052,14.7313802 114.048596,14.0192187 C115.269287,13.7422005 116.032181,12.5373958 115.752484,11.328099 C115.472786,10.1188021 114.258143,9.3638151 113.035335,9.64053385 C107.960259,10.7923307 103.838575,14.6271615 101.447084,19.9414193 C99.055594,14.6271615 94.9339093,10.7923307 89.8588337,9.64053385 C88.6363283,9.36261719 87.4210799,10.1191016 87.1416847,11.328099 C86.8622894,12.5370964 87.6248812,13.7422005 88.8455724,14.0192187 C91.9821166,14.7310807 94.6288121,16.9340495 96.4593952,20.0791797 C96.237149,19.9054818 96.011879,19.7344792 95.7814687,19.5697656 C90.2374082,15.5983724 83.4067387,14.6448307 76.547041,16.8843359 C75.3574946,17.2727604 74.7113175,18.5428516 75.1034989,19.7207031 C75.4959827,20.8988542 76.777149,21.5391406 77.9676026,21.1507161 C85.3065659,18.7542839 90.6138661,21.4115625 93.1235853,23.2096354 C95.0095032,24.5605859 96.5685529,26.3188281 97.6344276,28.1860807 C93.762203,26.3140365 89.3559827,25.4617187 84.9098488,25.8061198 C78.2866091,26.3182292 72.3673002,29.3594401 68.2428942,34.3691276 C67.4512743,35.3304557 67.5964147,36.7454948 68.5673434,37.5292318 C68.9882505,37.8691406 69.4950324,38.0347526 69.9987905,38.0347526 C70.6570626,38.0347526 71.3095896,37.7526432 71.7577106,37.2081901 C75.0907991,33.1592318 79.8873866,30.7005078 85.2627214,30.2848307 C88.4050108,30.0416536 91.5188769,30.5277083 94.3412527,31.6474609 L94.3412527,31.9478385 C86.5825918,33.8911589 82.3463067,39.33 82.2465227,47.7414714 C82.2317063,48.9819141 83.2349892,49.9992448 84.4874298,50.0139193 L84.5146436,50.0139193 C85.7546868,50.0139193 86.767041,49.025638 86.7815551,47.7941797 C86.8099784,45.3899609 86.8864795,39.0583724 94.3412527,36.6179167 L94.3412527,38.1841927 C94.3412527,41.2796094 96.3701944,43.9126302 99.1792657,44.8523958 L99.1792657,80.2792839 C89.5939525,77.0251432 79.1985745,74.2714323 70,74.2714323 C60.8014255,74.2714323 50.4060475,77.0251432 40.8207343,80.2792839 L40.8207343,35.269362 C43.6298056,34.3295964 45.6587473,31.6965755 45.6587473,28.6011589 L45.6587473,26.9692969 C49.4487257,28.2205208 53.1349892,31.1853646 53.2184449,38.2108464 C53.232959,39.4423047 54.2453132,40.4305859 55.4853564,40.4305859 L55.5125702,40.4305859 C56.7653132,40.4159115 57.7682937,39.3985807 57.7534773,38.158138 C57.6536933,29.7466667 53.4174082,24.308125 45.6587473,22.3645052 L45.6587473,22.0641276 C48.4814255,20.944375 51.5952916,20.4583203 54.7372786,20.7014974 C60.1126134,21.1171745 64.9092009,23.5758984 68.2422894,27.6248568 C68.6904104,28.1693099 69.3432397,28.4517187 70.0012095,28.4514193 C70.5049676,28.4514193 71.0120518,28.2861068 71.4326566,27.9458984 C72.4035853,27.161862 72.5487257,25.7471224 71.7571058,24.7857943 C67.6326998,19.7761068 61.7133909,16.7351953 55.0901512,16.2227865 C50.6434125,15.8795833 46.2371922,16.7316016 42.36527,18.6033464 C43.4311447,16.7357943 44.9901944,14.9775521 46.8764147,13.6263021 C49.3861339,11.8288281 54.6928294,9.17095052 62.0323974,11.5673828 C63.222851,11.9555078 64.5043197,11.3155208 64.8965011,10.1373698 C65.2886825,8.95921875 64.642203,7.68942708 63.452959,7.3010026 C56.592959,5.06119792 49.7622894,6.01533854 44.2185313,9.98643229 C43.988121,10.1514453 43.7631533,10.3221484 43.5406048,10.4958464 C45.3711879,7.35071615 48.0178834,5.14804687 51.1544276,4.43588542 C52.3751188,4.15886719 53.138013,2.9540625 52.8583153,1.74476562 C52.5786177,0.53546875 51.3639741,-0.21921875 50.1411663,0.0572005208 C45.0660907,1.2089974 40.944406,5.04382812 38.5529158,10.3580859 C36.1614255,5.04382812 32.0397408,1.2089974 26.9646652,0.0572005208 C25.7415551,-0.220117188 24.5269114,0.535768229 24.2475162,1.74476562 C23.9678186,2.9540625 24.7307127,4.15886719 25.9514039,4.43588542 C29.5445356,5.25136719 32.496933,8.02125 34.3130022,11.9261589 C33.8279914,11.5161719 33.3218143,11.119362 32.7926566,10.7405208 C26.4070842,6.16627604 18.5495464,4.91265625 11.2338661,7.3010026 C10.0443197,7.68942708 9.39814255,8.95951823 9.79032397,10.1373698 C10.1825054,11.3158203 11.4636717,11.9555078 12.6544276,11.5673828 C18.5710151,9.63544271 24.9423758,10.6608594 30.1347732,14.3803906 C31.7697192,15.5516536 33.1515767,16.918776 34.1887257,18.3422005 C30.4522678,16.6513411 26.2519654,15.8945573 22.0156803,16.2227865 C15.3924406,16.7348958 9.47313175,19.7761068 5.3487257,24.7857943 C4.55710583,25.7471224 4.70224622,27.1621615 5.67317495,27.9458984 C6.09408207,28.2858073 6.60086393,28.4514193 7.10462203,28.4514193 C7.76289417,28.4514193 8.41542117,28.1693099 8.86354212,27.6248568 C12.1966307,23.5758984 16.9932181,21.1171745 22.3685529,20.7014974 C25.5108423,20.4586198 28.6247084,20.944375 31.4470842,22.0641276 L31.4470842,22.3645052 C23.6884233,24.3078255 19.4521382,29.7466667 19.3523542,38.158138 C19.3375378,39.3985807 20.3408207,40.4159115 21.5932613,40.4305859 L21.6204752,40.4305859 C22.8605184,40.4305859 23.8728726,39.4423047 23.8873866,38.2108464 C23.9158099,35.8066276 23.992311,29.4750391 31.4470842,27.0345833 L31.4470842,28.6008594 C31.4470842,31.696276 33.4760259,34.3292969 36.2850972,35.2690625 L36.2850972,81.8713151 C32.6469114,83.1884245 29.1822894,84.5267969 26.0142981,85.7510677 C18.667473,88.5901302 12.3227214,91.0422656 9.52483801,91.0422656 L2.26781857,91.0422656 C1.01507559,91.0422656 0,92.0479167 0,93.2883594 C0,94.5288021 1.01507559,95.5344531 2.26781857,95.5344531 L137.732181,95.5344531 C138.984924,95.5344531 140,94.5288021 140,93.2883594 C140,92.0479167 138.984924,91.0425651 137.732181,91.0425651 L137.732181,91.0425651 Z" id="Fill-1"></path>
                    <path d="M94.1900648,100.625898 L50.6479482,100.625898 C49.3952052,100.625898 48.3801296,101.631549 48.3801296,102.871992 C48.3801296,104.112435 49.3952052,105.118086 50.6479482,105.118086 L94.1900648,105.118086 C95.4428078,105.118086 96.4578834,104.112435 96.4578834,102.871992 C96.4578834,101.631549 95.4428078,100.625898 94.1900648,100.625898" id="Fill-4"></path>
                    <path d="M40.9719222,100.625898 L21.6198704,100.625898 C20.3671274,100.625898 19.3520518,101.631549 19.3520518,102.871992 C19.3520518,104.112435 20.3671274,105.118086 21.6198704,105.118086 L40.9719222,105.118086 C42.2246652,105.118086 43.2397408,104.112435 43.2397408,102.871992 C43.2397408,101.631549 42.2246652,100.625898 40.9719222,100.625898" id="Fill-6"></path>
                    <path d="M108.704104,100.625898 L103.866091,100.625898 C102.613348,100.625898 101.598272,101.631549 101.598272,102.871992 C101.598272,104.112435 102.613348,105.118086 103.866091,105.118086 L108.704104,105.118086 C109.956847,105.118086 110.971922,104.112435 110.971922,102.871992 C110.971922,101.631549 109.956847,100.625898 108.704104,100.625898" id="Fill-8"></path>
                    <path d="M89.3520518,110.209232 L65.1625918,110.209232 C63.9098488,110.209232 62.8947732,111.214883 62.8947732,112.455326 C62.8947732,113.695768 63.9098488,114.701419 65.1625918,114.701419 L89.3520518,114.701419 C90.6047948,114.701419 91.6198704,113.695768 91.6198704,112.455326 C91.6198704,111.214883 90.6047948,110.209232 89.3520518,110.209232" id="Fill-10"></path>
                    <path d="M55.4862635,110.209232 L50.6479482,110.209232 C49.3952052,110.209232 48.3801296,111.214883 48.3801296,112.455326 C48.3801296,113.695768 49.3952052,114.701419 50.6479482,114.701419 L55.4862635,114.701419 C56.7390065,114.701419 57.7540821,113.695768 57.7540821,112.455326 C57.7540821,111.214883 56.7390065,110.209232 55.4862635,110.209232" id="Fill-12"></path>
                </g>
            </g>
        </g>
    </g>
</svg>