<?xml version="1.0" encoding="UTF-8"?>
<svg width="200px" height="200px" viewBox="0 0 200 200" version="1.1" xmlns="http://www.w3.org/2000/svg" xmlns:xlink="http://www.w3.org/1999/xlink">
    <!-- Generator: Sketch 47.1 (45422) - http://www.bohemiancoding.com/sketch -->
    <title>investments</title>
    <desc>Created with Sketch.</desc>
    <defs>
        <circle id="path-1" cx="100" cy="100" r="100"></circle>
        <filter x="-7.8%" y="-7.8%" width="115.5%" height="115.5%" filterUnits="objectBoundingBox" id="filter-2">
            <feGaussianBlur stdDeviation="15" in="SourceAlpha" result="shadowBlurInner1"></feGaussianBlur>
            <feOffset dx="0" dy="1" in="shadowBlurInner1" result="shadowOffsetInner1"></feOffset>
            <feComposite in="shadowOffsetInner1" in2="SourceAlpha" operator="arithmetic" k2="-1" k3="1" result="shadowInnerInner1"></feComposite>
            <feColorMatrix values="0 0 0 0 0   0 0 0 0 0   0 0 0 0 0  0 0 0 0.1 0" type="matrix" in="shadowInnerInner1"></feColorMatrix>
        </filter>
    </defs>
    <g id="Page-1" stroke="none" stroke-width="1" fill="none" fill-rule="evenodd">
        <g id="4-1-about-us" transform="translate(-913.000000, -635.000000)">
            <g id="investments" transform="translate(913.000000, 635.000000)">
                <g id="Oval-2">
                    <use fill="#E2F0F1" fill-rule="evenodd" xlink:href="#path-1"></use>
                    <use fill="black" fill-opacity="1" filter="url(#filter-2)" xlink:href="#path-1"></use>
                </g>
                <g id="investment" transform="translate(33.000000, 34.000000)" fill-rule="nonzero">
                    <g id="Group" transform="translate(107.000000, 0.000000)" fill="#79A125">
                        <path d="M9.48693333,67 L0.2304,67 L0.2304,67 L0.2304,67 C0.2304,56.8066944 8.51946667,48.5420317 18.7434667,48.5420317 L28,48.5420317 L28,48.5420317 L28,48.5420317 C28,58.7356032 19.7109333,67 9.48693333,67 Z" id="Shape"></path>
                        <path d="M9.48693333,39.3130476 L0.2304,39.3130476 L0.2304,39.3130476 L0.2304,39.3130476 C0.2304,29.1197421 8.51946667,20.8550794 18.7434667,20.8550794 L28,20.8550794 L28,20.8550794 L28,20.8550794 C28,31.0486508 19.7109333,39.3130476 9.48693333,39.3130476 Z" id="Shape"></path>
                        <path d="M4.85866667,13.9336071 L0.2304,13.9336071 L0.2304,13.9336071 L0.2304,13.9336071 C0.2304,6.28736508 6.44613333,0.0901309524 14.1152,0.0901309524 L18.7434667,0.0901309524 L18.7434667,0.0901309524 L18.7434667,0.0901309524 C18.7434667,7.73637302 12.5277333,13.9336071 4.85866667,13.9336071 Z" id="Shape"></path>
                    </g>
                    <polygon id="Shape" fill="#E8594A" points="82 76 88.9545819 122 126.045418 122 133 76"></polygon>
                    <rect id="Rectangle-path" fill="#79A125" x="105" y="12" width="5" height="64"></rect>
                    <g id="Group" transform="translate(80.000000, 0.000000)" fill="#88B337">
                        <path d="M0.1944,48.5420317 L9.45093333,48.5420317 C19.6746667,48.5420317 27.964,56.8064286 27.964,67 L27.964,67 L27.964,67 L18.7074667,67 C8.48346667,67 0.1944,58.7356032 0.1944,48.5420317 L0.1944,48.5420317 L0.1944,48.5420317 Z" id="Shape"></path>
                        <path d="M0.1944,20.8553452 L9.45093333,20.8553452 C19.6746667,20.8553452 27.964,29.1197421 27.964,39.3133135 L27.964,39.3133135 L27.964,39.3133135 L18.7074667,39.3133135 C8.48346667,39.3130476 0.1944,31.0486508 0.1944,20.8553452 L0.1944,20.8553452 L0.1944,20.8553452 Z" id="Shape"></path>
                        <path d="M9.45093333,0.0901309524 L14.0792,0.0901309524 C21.7482667,0.0901309524 27.964,6.28736508 27.964,13.9336071 L27.964,13.9336071 L27.964,13.9336071 L23.3357333,13.9336071 C15.6666667,13.9336071 9.45093333,7.73637302 9.45093333,0.0901309524 L9.45093333,0.0901309524 L9.45093333,0.0901309524 Z" id="Shape"></path>
                    </g>
                    <path d="M88,110.831233 L89.660699,122 L126.156911,122 L133,76 L129.037769,76 C119.085666,91.4560466 104.79966,103.579221 88,110.831233 Z" id="Shape" fill="#D65245"></path>
                    <rect id="Rectangle-path" fill="#4398D1" x="0" y="96" width="14" height="36"></rect>
                    <g id="Group" transform="translate(14.000000, 5.000000)" fill="#FDB62F">
                        <path d="M9.15263158,57.9052844 L9.15263158,57.9052844 C8.37157895,53.1697706 4.70184211,49.459633 0.0178947368,48.6699817 L0.0178947368,48.6699817 C4.70184211,47.8803303 8.37157895,44.1701927 9.15263158,39.4346789 L9.15263158,39.4346789 C9.93368421,44.1701927 13.6034211,47.8803303 18.2873684,48.6699817 L18.2873684,48.6699817 C13.6034211,49.459633 9.93368421,53.1700367 9.15263158,57.9052844 Z" id="Shape"></path>
                        <ellipse id="Oval" cx="38.8402632" cy="16.3466881" rx="15.9857895" ry="16.1617798"></ellipse>
                    </g>
                    <g id="Group" transform="translate(43.000000, 12.000000)" fill="#FA962A">
                        <path d="M4.88032394,9.48421127 L0.235760563,9.48421127 C0.235760563,4.35421127 4.39488732,0.195084507 9.52488732,0.195084507 L9.52488732,4.83964789 C6.9588169,4.83964789 4.88032394,6.91814085 4.88032394,9.48421127 Z" id="Shape"></path>
                        <path d="M9.52488732,18.773338 L9.52488732,14.1287746 C12.0909577,14.1287746 14.1694507,12.0502817 14.1694507,9.48421127 L18.8140141,9.48421127 C18.8140141,14.6139437 14.6548873,18.773338 9.52488732,18.773338 Z" id="Shape"></path>
                    </g>
                    <rect id="Rectangle-path" fill="#FDB62F" x="46" y="90" width="27" height="12"></rect>
                    <rect id="Rectangle-path" fill="#FFA719" x="32" y="78" width="27" height="12"></rect>
                    <rect id="Rectangle-path" fill="#FDB62F" transform="translate(53.500000, 68.000000) rotate(162.434750) translate(-53.500000, -68.000000) " x="40" y="62" width="27" height="12"></rect>
                    <path d="M98.348708,101.50436 C95.9858963,98.5504484 91.7942625,97.8218731 88.5742151,99.8039993 L64.4189745,114.667305 L62.1272029,114.667305 C65.9245506,114.667305 69.0025176,111.589807 69.0025176,107.792449 C69.0025176,103.995354 65.9245506,100.917592 62.1272029,100.917592 L46.084802,100.917592 L43.9831751,98.8161051 C35.9389988,90.7724647 23.2587254,89.7230416 14,96.3343542 L14,132.999992 L63.8641218,132.999992 C65.7180324,133.002369 67.5286323,132.443064 69.0571842,131.395754 L96.7417214,112.375422 C100.154026,110.037855 101.027371,105.374603 98.6875353,101.962262 C98.5803148,101.804611 98.4680766,101.653297 98.348708,101.50436 Z" id="Shape" fill="#FEC9A3"></path>
                    <g id="Group" transform="translate(14.000000, 102.000000)" fill="#FABD91">
                        <path d="M48.0927301,5.17646087 L50.3820184,5.17646087 L54.4707117,2.6031913 C54.3401288,2.28025217 54.1868589,1.96701739 54.0127485,1.66753043 C52.7950307,3.83375652 50.5376626,5.17187826 48.0927301,5.17646087 Z" id="Shape"></path>
                        <path d="M82.660773,2.81614783 L55.0154663,22.2531478 C53.4885706,23.3222435 51.6799325,23.892913 49.8280307,23.8907565 L0.0179386503,23.8907565 L0.0179386503,30.9086174 L49.8280307,30.9086174 C51.6799325,30.9110435 53.4885706,30.3401043 55.0154663,29.2710087 L82.6700061,9.85503478 C85.7810429,7.66535652 86.8043374,3.45016522 85.0532086,0.0301913043 C84.4944724,1.14834783 83.6727239,2.10503478 82.660773,2.81614783 Z" id="Shape"></path>
                    </g>
                    <path d="M63.75,117 L41.25,117 C40.0080664,117 39,115.879926 39,114.5 C39,113.120074 40.0080664,112 41.25,112 L63.75,112 C64.9919336,112 66,113.120074 66,114.5 C66,115.879926 64.9919336,117 63.75,117 Z" id="Shape" fill="#F7B483"></path>
                </g>
            </g>
        </g>
    </g>
</svg>