<svg xmlns="http://www.w3.org/2000/svg" width="49" height="90" viewBox="0 0 49 90"><g><g><path fill="#d1d1d1" d="M41.21 87.745c.412 1.317-.218 2.197-1.582 2.197H8.172c-1.332 0-1.978-.878-1.58-2.158 1.382-4.45 2.772-8.897 4.15-13.348.086-.276 1.446-4.634 1.85-5.74.184-.502.632-.763 1.178-.8.08-.006.161-.007.242-.008 1.14-.02 1.14-.02 1.14-1.199l-.002-20.301.002-3.316c-.001-1.724-.015-3.449.01-5.173.007-.44-.136-.703-.491-.951-2.912-2.035-5.806-4.098-8.72-6.13-.555-.388-.958-.844-.972-1.532-.031-1.426-.78-2.352-1.864-3.184-1.691-1.299-1.49-1.086-1.492-3.18V21.49c-.537-.349-1.016-.573-1.373-.925-.194-.19-.275-.607-.243-.904.146-1.375 1.175-1.433 2.283-1.391v-.662c0-5.271 0-10.542.003-15.812.001-.91.36-1.444 1.072-1.64a1.433 1.433 0 0 1 1.839 1.327c.023.438.012.878.012 1.318v15.459c1.053-.037 1.958.124 2.149 1.343.113.72-.274 1.22-1.295 1.7.657.454 1.29.893 1.925 1.328 5.236 3.585 10.471 7.172 15.717 10.743.178.122.492.176.691.108 3.792-1.302 7.577-2.627 11.36-3.955.138-.048.303-.155.359-.279.22-.487.417-.987.59-1.493.042-.126.003-.32-.068-.44-.987-1.667-1.4-3.468-1.366-5.405.036-2.066.007-4.132.009-6.198 0-1.217.537-1.779 1.722-1.78 3.431-.004 6.862-.004 10.292.001 1.03.002 1.608.561 1.612 1.584.011 2.36.015 4.718-.002 7.077-.02 2.914-1.353 5.233-3.307 7.247-.54.555-1.135 1.06-1.74 1.542-.29.231-.463.481-.49.84-.062.845-.433 1.521-.977 2.167-3.128 3.717-6.224 7.462-9.341 11.188-.275.328-.407.65-.406 1.09.015 6.88.016 13.762.001 20.643 0 .478.138.642.599.584.253-.032.515-.011.772 0 .59.03 1.053.326 1.231.87.753 2.293 2.635 8.374 2.813 8.944l3.144 10.037zm-8.2-16.4c-.116-.393-.293-.523-.704-.522-5.605.015-11.21.015-16.815 0-.418-.002-.577.144-.696.53-1.411 4.562-2.84 9.118-4.263 13.677-.196.628-.382 1.26-.58 1.915h27.919c-.97-3.11-3.605-11.54-3.652-11.69-.407-1.302-.827-2.6-1.21-3.91zm-14.933-31.55c0 9.205.003 18.41-.008 27.615 0 .405.143.492.505.486a82.237 82.237 0 0 1 3.285.003c.384.009.56-.102.68-.487.872-2.776 1.771-5.543 2.66-8.312 1.281-3.987 2.553-7.977 3.853-11.957.13-.398.037-.564-.281-.773-2.375-1.558-4.739-3.134-7.107-4.703-1.155-.766-2.312-1.528-3.563-2.353-.011.231-.024.356-.024.481zm20.538-8.814c-.196.563-.582.903-1.14 1.096-2.892.997-5.786 1.986-8.663 3.023-1.434.517-2.925.858-4.318 1.495-.58.265-1.114.154-1.638-.205-4.138-2.842-8.282-5.674-12.424-8.508-1.047-.716-2.095-1.43-3.158-2.155.16.817.289 1.596.475 2.362.058.237.225.503.42.644 6.242 4.484 12.565 8.846 19.007 13.032 1.118.727 2.227 1.47 3.36 2.219.144-.168.26-.3.373-.435l7.173-8.62c.703-.846 1.408-1.691 2.113-2.537.333-.4.385-.794.117-1.023-.44-.377-.891-.743-1.393-1.159-.116.293-.219.529-.304.771zm-.375-14.068c0 1.39-.007 2.724.002 4.056.005.78-.04 1.571.064 2.34.342 2.5 1.939 4.173 3.805 5.737.44-.393.877-.748 1.274-1.145 1.705-1.706 2.767-3.677 2.619-6.207-.082-1.395-.015-2.798-.015-4.198v-.583zm-8.638 38.093l-4.135 12.88h.618c1.014 0 2.03-.027 3.043.012.495.02.623-.135.62-.626-.02-3.368-.01-6.735-.01-10.102v-2.137c-.045-.01-.09-.018-.136-.027z"/></g></g></svg>