<?xml version="1.0" encoding="UTF-8"?>
<svg width="70px" height="70px" viewBox="0 0 70 70" version="1.1" xmlns="http://www.w3.org/2000/svg" xmlns:xlink="http://www.w3.org/1999/xlink">
    <!-- Generator: Sketch 47.1 (45422) - http://www.bohemiancoding.com/sketch -->
    <title>landscape</title>
    <desc>Created with Sketch.</desc>
    <defs></defs>
    <g id="Page-1" stroke="none" stroke-width="1" fill="none" fill-rule="evenodd">
        <g id="2-7-1-chisinau-guest-house-crihan" transform="translate(-245.000000, -1805.000000)" fill-rule="nonzero">
            <g id="landscape" transform="translate(245.000000, 1805.000000)">
                <path d="M53.567427,48.9646519 C53.567427,43.0494843 48.7546046,38.2371991 42.839437,38.2371991 C38.0652934,38.2371991 33.8213716,41.4416288 32.5186487,46.0304365 L36.4859099,47.1564188 C36.5073982,47.0801357 36.531035,47.0043897 36.5552094,46.9291811 L49.4416902,49.0377118 C49.4406158,49.1172182 49.4395414,49.197799 49.4357809,49.2773053 L51.495426,49.3734651 L53.5556084,49.4696249 C53.5631293,49.3020169 53.567427,49.13226 53.567427,48.9646519 L53.567427,48.9646519 Z" id="Shape" fill="#FFE45C"></path>
                <polygon id="Shape" fill="#BC6829" points="6.39220595 31.3115484 10.5157939 31.3115484 10.5157939 43.5378039 6.39220595 43.5378039"></polygon>
                <polygon id="Shape" fill="#9E5015" points="8.45399984 31.3115484 10.5157939 31.3115484 10.5157939 43.5378039 8.45399984 43.5378039"></polygon>
                <path d="M10.0989226,2.21006255 L8.45399984,0.0322323183 L6.80853996,2.21006255 C6.53349084,2.57428782 0.068762279,11.2184584 0.068762279,18.7570604 C0.068762279,27.0901891 3.67340994,33.3738795 8.45399984,33.3738795 C13.2340527,33.3738795 16.8392374,27.0901891 16.8392374,18.7570604 C16.8392374,11.2184584 10.3745088,2.57428782 10.0989226,2.21006255 Z" id="Shape" fill="#75C12B"></path>
                <polygon id="Shape" fill="#BC6829" points="23.5677339 35.8514704 27.6913219 35.8514704 27.6913219 43.7220653 23.5677339 43.7220653"></polygon>
                <polygon id="Shape" fill="#9E5015" points="25.6295278 35.8514704 27.6913219 35.8514704 27.6913219 43.7220653 25.6295278 43.7220653"></polygon>
                <polygon id="Shape" fill="#BC6829" points="61.7458405 38.8066369 65.8699656 38.8066369 65.8699656 46.7954168 61.7458405 46.7954168"></polygon>
                <path d="M27.2749877,16.5851393 L25.6295278,14.4073091 L23.9846053,16.5851393 C23.5231459,17.1959417 19.4769155,22.6974614 19.4769155,27.7289262 C19.4769155,30.214038 19.980814,32.5836506 20.8951375,34.3999417 C22.0361616,36.6653364 23.7176143,37.9132644 25.6295278,37.9132644 C27.5414416,37.9132644 29.2223569,36.6653364 30.363381,34.3999417 C31.2782417,32.5836506 31.7821402,30.214038 31.7821402,27.7289262 C31.7821402,22.6974614 27.7364471,17.1959417 27.2749877,16.5851393 Z" id="Shape" fill="#75C12B"></path>
                <path d="M65.4530943,19.5403058 L63.8076344,17.3630126 L62.1627118,19.5403058 C61.7012525,20.1511082 57.6550221,25.6526277 57.6550221,30.6840927 C57.6550221,33.1697415 58.1589207,35.538817 59.0737813,37.3551081 C60.2148053,39.6205028 61.8957207,40.8684307 63.8076344,40.8684307 C65.7195481,40.8684307 67.4010007,39.6205028 68.5420249,37.3551081 C69.4563482,35.538817 69.9602469,33.1697415 69.9602469,30.6840927 C69.960784,25.6526277 65.9145537,20.1516454 65.4530943,19.5403058 L65.4530943,19.5403058 Z" id="Shape" fill="#75C12B"></path>
                <path d="M69.6040797,59.0555164 L69.6040797,41.656511 L66.5565141,43.3148638 C66.3975013,43.401891 50.4365945,51.8934952 33.7837672,44.0180655 C21.8615699,38.3795586 2.46093747,42.3634731 1.64116224,42.5353788 L0.487245246,42.8797274 L0.487245246,59.1242786 L69.6040797,59.0555164 Z" id="Shape" fill="#C3DC4B"></path>
                <path d="M43.0430378,38.2425712 L43.0430378,47.9906987 L49.4416902,49.0377118 C49.4406158,49.1177554 49.4395414,49.1983363 49.4363181,49.2778425 L51.495426,49.3734651 L51.4959633,49.3734651 L53.5556084,49.4696249 C53.5631293,49.3020169 53.567427,49.13226 53.567427,48.9646519 C53.567427,43.1177094 48.8641945,38.3516239 43.0430378,38.2425712 Z" id="Shape" fill="#FFBC36"></path>
                <polygon id="Shape" fill="#9E5015" points="63.8076344 38.8066369 65.8699656 38.8066369 65.8699656 46.7954168 63.8076344 46.7954168"></polygon>
                <path d="M65.4530943,19.5403058 L63.8076344,17.3630126 L63.8076344,40.8684307 C65.7195481,40.8684307 67.4010007,39.6205028 68.5420249,37.3551081 C69.4568854,35.538817 69.9602469,33.1697415 69.9602469,30.6840927 C69.960784,25.6526277 65.9145537,20.1516454 65.4530943,19.5403058 L65.4530943,19.5403058 Z" id="Shape" fill="#4EAF2B"></path>
                <path d="M66.5565141,43.3148638 C66.4055593,43.3975933 52.0363918,51.0398759 36.3456993,45.1048317 L36.3456993,59.0882859 L69.8447477,59.0555164 L69.8447477,41.656511 L66.5565141,43.3148638 Z" id="Shape" fill="#A0BE28"></path>
                <path d="M67.815186,52.6611616 C65.8699656,55.336444 62.9873219,57.1822814 59.7404532,57.8140349 C59.6958651,57.8226302 59.6507398,57.8312254 59.6050773,57.8398207 C55.0533368,58.6972004 46.787896,58.7831532 33.2659013,54.3281097 C24.3756907,51.3987292 16.1467798,52.3517313 10.8091079,53.6662728 C5.02716731,55.0909412 1.33602963,57.2075301 1.18185167,57.2972433 L0.487245246,57.6464268 L0.487245246,69.9672305 L69.7550344,70 L69.7550344,56.3318854 L69.8092921,49.9181912 L67.815186,52.6611616 Z" id="Shape" fill="#4EAF2B"></path>
                <path d="M67.815186,52.6611616 C65.8699656,55.336444 62.9873219,57.1822814 59.7404532,57.8140349 C59.6958651,57.8226302 59.6507398,57.8312254 59.6050773,57.8398207 C55.4100411,58.6300498 48.0573121,58.7622022 36.3456993,55.2907816 L36.3456993,69.9844211 L69.7550344,70 L69.7550344,56.3318854 L69.8092921,49.9181912 L67.815186,52.6611616 Z" id="Shape" fill="#2B9100"></path>
                <path d="M27.2749877,16.5851393 L25.6295278,14.4073091 L25.6295278,37.9132644 C27.5414416,37.9132644 29.2228942,36.6653364 30.3639182,34.3999417 C31.2782417,32.5836506 31.7821402,30.214038 31.7821402,27.7289262 C31.7821402,22.6974614 27.7364471,17.1959417 27.2749877,16.5851393 Z" id="Shape" fill="#4EAF2B"></path>
                <path d="M10.0989226,2.21006255 L8.45399984,0.0322323183 L8.45399984,33.3738795 C13.2340527,33.3738795 16.8392374,27.0901891 16.8392374,18.7570604 C16.8392374,11.2184584 10.3745088,2.57428782 10.0989226,2.21006255 Z" id="Shape" fill="#4EAF2B"></path>
            </g>
        </g>
    </g>
</svg>