<?xml version="1.0" encoding="UTF-8"?>
<svg width="72px" height="66px" viewBox="0 0 72 66" version="1.1" xmlns="http://www.w3.org/2000/svg" xmlns:xlink="http://www.w3.org/1999/xlink">
    <!-- Generator: Sketch 47.1 (45422) - http://www.bohemiancoding.com/sketch -->
    <title>landscape-sea</title>
    <desc>Created with Sketch.</desc>
    <defs></defs>
    <g id="Page-1" stroke="none" stroke-width="1" fill="none" fill-rule="evenodd">
        <g id="2-6-1-alicante-guest-houses" transform="translate(-236.000000, -1811.000000)" fill-rule="nonzero">
            <g id="landscape-sea" transform="translate(236.000000, 1811.000000)">
                <g id="Group" transform="translate(34.835938, 21.763672)" fill="#C4AC8E">
                    <path d="M25.3929004,0.124804688 C24.8183828,0.124804688 24.3528613,0.590464844 24.3528613,1.16484375 L24.3528613,8.11313672 C24.3528613,8.68751562 24.8183828,9.15317578 25.3929004,9.15317578 C25.967418,9.15317578 26.4329395,8.68751562 26.4329395,8.11313672 L26.4329395,1.16484375 C26.4329395,0.590464844 25.967418,0.124804688 25.3929004,0.124804688 Z" id="Shape"></path>
                    <path d="M1.136,3.19624805 C0.561482422,3.19624805 0.0959609375,3.6619082 0.0959609375,4.23628711 L0.0959609375,10.8506582 C0.0959609375,11.4250371 0.561482422,11.8906973 1.136,11.8906973 C1.71051758,11.8906973 2.17603906,11.4250371 2.17603906,10.8506582 L2.17603906,4.23628711 C2.17603906,3.6619082 1.71051758,3.19624805 1.136,3.19624805 Z" id="Shape"></path>
                </g>
                <path d="M45.4970312,31.2793359 L45.4970312,50.3300781 L23.5716211,50.3300781 L26.328418,33.1074473 C26.4975977,32.0525703 27.3615234,31.2793359 28.3724414,31.2793359 L45.4970312,31.2793359 Z" id="Shape" fill="#9E6541"></path>
                <path d="M72,50.3300781 L42.4228145,50.3300781 L44.4973457,30.0138164 C44.5924746,29.0818027 45.3417188,28.3751309 46.2343496,28.3751309 L71.4453125,28.3751309 C71.7516387,28.3751309 72,28.635834 72,28.9575527 L72,50.3300781 Z" id="Shape" fill="#B5754C"></path>
                <path d="M72,50.3300781 L67.7143457,50.3300781 L68.0391152,28.3749922 L71.4453125,28.3749922 C71.7516387,28.3749922 72,28.6356953 72,28.9574141 L72,50.3300781 Z" id="Shape" fill="#AB6E48"></path>
                <path d="M62.6030391,24.4304707 L57.8547754,24.4304707 C56.2312051,24.4304707 54.9028672,23.1021328 54.9028672,21.4785625 L54.9028672,19.4117969 C54.9028672,17.7882266 56.2312051,16.4598887 57.8547754,16.4598887 L62.6030391,16.4598887 C64.2266094,16.4598887 65.5549473,17.7882266 65.5549473,19.4117969 L65.5549473,21.4785625 C65.5549473,23.1019941 64.2266094,24.4304707 62.6030391,24.4304707 Z" id="Shape" fill="#4CAF50"></path>
                <path d="M62.6030391,16.45975 L58.3172461,16.45975 C59.9408164,16.45975 61.2691543,17.7880879 61.2691543,19.4116582 L61.2691543,21.4785625 C61.2691543,23.1021328 59.9408164,24.4304707 58.3172461,24.4304707 L62.6029004,24.4304707 C64.2264707,24.4304707 65.5548086,23.1021328 65.5548086,21.4785625 L65.5548086,19.4116582 C65.5549473,17.7880879 64.2266094,16.45975 62.6030391,16.45975 Z" id="Shape" fill="#43A047"></path>
                <path d="M38.3461387,27.3349531 L33.597875,27.3349531 C31.9743047,27.3349531 30.6459668,25.5017793 30.6459668,23.2611697 L30.6459668,20.408928 C30.6459668,18.1683184 31.9743047,16.3351445 33.597875,16.3351445 L38.3461387,16.3351445 C39.969709,16.3351445 41.2980469,18.1683184 41.2980469,20.408928 L41.2980469,23.2611697 C41.2980469,25.5015879 39.969709,27.3349531 38.3461387,27.3349531 Z" id="Shape" fill="#4CAF50"></path>
                <path d="M38.3461387,16.3349531 L34.0604844,16.3349531 C35.6840547,16.3349531 37.0123926,18.168127 37.0123926,20.4087366 L37.0123926,23.2611697 C37.0123926,25.5017793 35.6840547,27.3349531 34.0604844,27.3349531 L38.3461387,27.3349531 C39.969709,27.3349531 41.2980469,25.5017793 41.2980469,23.2611697 L41.2980469,20.4087366 C41.2980469,18.168127 39.969709,16.3349531 38.3461387,16.3349531 Z" id="Shape" fill="#43A047"></path>
                <path d="M38.1058203,37.9665098 L35.9758203,50.3300781 L33.8624609,50.3300781 L36.0590234,37.5718496 C36.1616406,36.9747285 36.7038477,36.578543 37.2682422,36.687123 C37.8340234,36.7957031 38.2084375,37.3693887 38.1058203,37.9665098 Z" id="Shape" fill="#B5754C"></path>
                <g id="Group-10">
                    <path d="M18.6597259,8.94915254 C18.6597259,12.0381687 16.1555217,14.5423729 13.0665056,14.5423729 C9.97730735,14.5423729 7.47328525,12.0381687 7.47328525,8.94915254 C7.47328525,5.86013636 9.97730735,3.3559322 13.0665056,3.3559322 C16.1555217,3.3559322 18.6597259,5.86013636 18.6597259,8.94915254 Z" id="Shape" fill="#FDD020"></path>
                    <path d="M13.0665056,2.23728814 C12.8604012,2.23728814 12.6936242,2.07032906 12.6936242,1.86440678 L12.6936242,0.372881356 C12.6936242,0.166959072 12.8604012,0 13.0665056,0 C13.2724278,0 13.4393869,0.166959072 13.4393869,0.372881356 L13.4393869,1.86440678 C13.4393869,2.07032906 13.2724278,2.23728814 13.0665056,2.23728814 Z" id="Shape" fill="#FDD020"></path>
                    <path d="M21.6427768,9.3220339 L20.1512513,9.3220339 C19.945147,9.3220339 19.77837,9.15507483 19.77837,8.94915254 C19.77837,8.74323026 19.945147,8.57627119 20.1512513,8.57627119 L21.6427768,8.57627119 C21.848699,8.57627119 22.0156581,8.74323026 22.0156581,8.94915254 C22.0156581,9.15507483 21.848699,9.3220339 21.6427768,9.3220339 Z" id="Shape" fill="#FDD020"></path>
                    <path d="M17.5410819,13.7966102 C17.2683395,13.7966102 16.9961434,13.8239208 16.7288632,13.8778138 C16.5273107,12.8718717 15.8756786,12.0137712 14.960772,11.5493081 C14.0460474,11.0848451 12.9687334,11.0653635 12.0376225,11.4963255 C11.194998,9.17528467 8.63034625,7.97689354 6.30930547,8.81951801 C3.98826469,9.66232454 2.78987356,12.2269763 3.63249803,14.5480171 C1.59931144,14.6122881 -0.00673661441,16.2949881 0.0236692034,18.329085 C0.0542571271,20.3629999 1.71019265,21.9967227 3.74447169,22 L17.5410819,22 C19.8062268,22 21.6427768,20.1636321 21.6427768,17.8983051 C21.6427768,15.632978 19.8062268,13.7966102 17.5410819,13.7966102 L17.5410819,13.7966102 Z" id="Shape" fill="#A3D4F7"></path>
                    <g id="Group" transform="translate(5.966102, 1.817797)" fill="#FDD020">
                        <path d="M1.88006491,1.91101695 L0.388539483,0.419491525" id="Shape"></path>
                        <path d="M1.88006491,2.28389831 C1.7810183,2.28389831 1.68634139,2.24457097 1.61642614,2.17465572 L0.124900712,0.683130297 C0.0278568475,0.589545839 -0.0109242585,0.450807733 0.0231230254,0.320444915 C0.0573523686,0.190082097 0.159130008,0.088304411 0.289492873,0.0542571271 C0.419855644,0.0200278305 0.558411691,0.0589909958 0.652178254,0.155852754 L2.14370368,1.64737818 C2.25021519,1.75407175 2.28207762,1.91447631 2.22436108,2.05376059 C2.1666446,2.19304488 2.03081963,2.28389831 1.88006491,2.28389831 Z" id="Shape"></path>
                        <path d="M12.3207429,1.91101695 L13.8122683,0.419491525" id="Shape"></path>
                        <path d="M12.3207429,2.28389831 C12.169806,2.28389831 12.0339811,2.19304488 11.9762645,2.05376059 C11.9185481,1.91447631 11.9504105,1.75407175 12.0571041,1.64737818 L13.5486295,0.155852754 C13.642214,0.0589909958 13.78077,0.0200278305 13.9111328,0.0542571271 C14.0414956,0.088304411 14.1434554,0.190082097 14.1775026,0.320444915 C14.2115499,0.450807733 14.1727688,0.589545839 14.0759071,0.683130297 L12.5843816,2.17465572 C12.5144664,2.24457097 12.4196074,2.28389831 12.3207429,2.28389831 Z" id="Shape"></path>
                    </g>
                </g>
                <path d="M72,49.2858789 L72,65.3066406 C72,65.6895137 71.6895137,66 71.3066406,66 L1.69335938,66 C1.31048633,66 1,65.6895137 1,65.3066406 L1,49.2858789 L72,49.2858789 Z" id="Shape" fill="#81D4FA"></path>
                <g id="Group" transform="translate(1.000000, 53.103516)" fill="#B3E5FC">
                    <path d="M71,0.901367188 L71,2.98144531 L51.7176758,2.98144531 C51.1421875,2.98144531 50.6776367,2.51550781 50.6776367,1.94140625 C50.6776367,1.36591797 51.1421875,0.901367188 51.7176758,0.901367188 L71,0.901367188 Z" id="Shape"></path>
                    <path d="M42.9604082,5.59818359 L18.6746641,5.59818359 C18.1001465,5.59818359 17.634625,6.06384375 17.634625,6.63822266 C17.634625,7.21260156 18.1001465,7.67826172 18.6746641,7.67826172 L42.9604082,7.67826172 C43.5349258,7.67826172 44.0004473,7.21260156 44.0004473,6.63822266 C44.0004473,6.06384375 43.5347871,5.59818359 42.9604082,5.59818359 Z" id="Shape"></path>
                    <path d="M9.07884766,1.15791016 C9.07884766,1.73339844 8.61291016,2.19794922 8.03880859,2.19794922 L0,2.19794922 L0,0.117871094 L8.03880859,0.117871094 C8.61291016,0.117871094 9.07884766,0.583808594 9.07884766,1.15791016 Z" id="Shape"></path>
                </g>
            </g>
        </g>
    </g>
</svg>