<?xml version="1.0" encoding="UTF-8"?>
<svg width="88px" height="45px" viewBox="0 0 88 45" version="1.1" xmlns="http://www.w3.org/2000/svg" xmlns:xlink="http://www.w3.org/1999/xlink">
    <!-- Generator: Sketch 47.1 (45422) - http://www.bohemiancoding.com/sketch -->
    <title>lawcrm-logo</title>
    <desc>Created with Sketch.</desc>
    <defs></defs>
    <g id="Page-1" stroke="none" stroke-width="1" fill="none" fill-rule="evenodd">
        <g id="2-1-projects" transform="translate(-1064.000000, -724.000000)">
            <g id="lawcrm-logo" transform="translate(1064.000000, 724.000000)">
                <path d="M4.23387179,4.04857595 C3.90725641,4.96110759 3.44582051,6.24161392 3.19592308,7.17351266 C4.11823077,6.74629747 5.00274359,5.40712025 5.42582051,4.3396519 C5.86751282,3.1753481 6.00233333,2.01047468 5.52171795,2.01047468 C5.11782051,2.01047468 4.65694872,2.92300633 4.23387179,4.04857595 M8.17412821,3.66009494 C7.67433333,6.18351266 5.77161538,8.10541139 2.85012821,8.8818038 C2.42705128,10.7256646 2.79202564,11.7931329 4.09905128,11.8318671 C4.9835641,11.8512342 6.38648718,11.502057 7.46335897,9.42522152 C7.5784359,9.19224684 8.34730769,9.73566456 8.27058974,9.89117089 C7.13617949,12.0454747 5.7524359,13.8118671 2.88848718,13.5401582 C-0.0719230769,13.2684494 -0.417717949,10.6282595 0.351153846,6.9018038 C0.927666667,4.1260443 2.17715385,1.46705696 3.98397436,0.438322785 C6.09823077,-0.76528481 8.7895641,0.574462025 8.17412821,3.66009494" id="Fill-1" fill="#7A1CB7"></path>
                <path d="M17.2661641,6.37775316 C17.4393436,6.80496835 16.5164718,7.91117089 16.1706769,7.81433544 C15.4018051,7.19287975 14.2673949,6.88243671 13.2875487,6.94053797 C12.1147795,6.99863924 11.0192923,8.02737342 10.5386769,9.34718354 C10.1156,10.512057 10.0964205,11.3271835 10.3846769,11.5988924 C11.2691897,12.4333861 12.6337538,9.34718354 13.1527282,7.93053797 C13.7676,7.46458861 15.5744205,7.98863924 15.8051385,8.43522152 C15.6517026,8.93990506 15.4593436,9.54142405 15.2861641,10.2597152 C15.0170872,11.3465506 15.2094462,11.7931329 15.5941641,11.7737658 C16.1706769,11.7543987 17.3818051,10.7450316 17.9966769,9.4639557 C18.1309333,9.19224684 18.9387282,9.71629747 18.8230872,9.91053797 C17.6700615,12.0842089 15.9974974,13.5595253 14.113959,13.5595253 C13.0951897,13.5595253 12.6721128,12.6469937 12.8261128,11.2497152 C12.2298564,12.3559177 11.3650872,13.5401582 9.61580513,13.5595253 C8.42442051,13.5788924 6.84775385,13.0161076 7.19411282,10.4539557 C7.59744615,7.38712025 10.3271385,5.46522152 12.3838564,5.15477848 C13.7867795,4.94117089 16.0933949,5.17414557 17.2661641,6.37775316" id="Fill-4" fill="#7A1CB7"></path>
                <path d="M23.2056564,11.2883924 C22.0718103,13.1516203 20.4951436,13.5594684 19.5344769,13.5594684 C17.4196564,13.5594684 17.3621179,12.1616203 17.7276564,10.4345316 C18.0926308,8.74560759 18.6307846,7.03788608 19.149759,5.36832911 C19.8802718,4.74744304 22.0718103,5.0191519 22.0909897,5.71807595 C21.6679128,7.21218987 21.129759,8.72624051 20.8415026,10.2209241 C20.6683231,11.0747848 20.5532462,11.6962405 20.975759,11.7156076 C21.5336564,11.7349747 22.3211436,10.8611772 22.879041,9.42516456 C23.3788359,8.12472152 23.7821692,6.74681013 24.2244256,5.34896203 C24.6858615,4.8055443 26.9535538,4.92174684 27.1267333,5.67877215 C26.6652974,6.92111392 26.1660667,8.33832911 25.8580667,9.50263291 C25.5122718,10.7837089 25.3966308,11.7543418 25.8197077,11.7543418 C26.0504256,11.7543418 26.3195026,11.5794684 26.5118615,11.3852278 C26.2236051,10.7449747 26.7809385,9.9298481 27.4922718,10.1240886 C28.1455026,8.86237975 28.8184769,6.88237975 28.8376564,5.31022785 C29.1450923,4.84427848 31.5476051,4.84427848 31.7399641,5.58193671 C31.7016051,7.65877215 30.7403744,9.94921519 29.5489897,11.3658608 C30.7020154,11.5794684 31.8172462,11.3658608 32.7970923,9.44453165 C32.9319128,9.17282278 33.7007846,9.71624051 33.6043231,9.91048101 C32.1246821,12.7637089 30.259759,12.6469367 28.4918615,12.3752278 C27.5114513,13.2683924 26.377041,13.5594684 25.1275538,13.5594684 C24.0704256,13.5594684 23.0324769,12.9573797 23.2056564,11.2883924" id="Fill-6" fill="#7A1CB7"></path>
                <path d="M0,26.6447848 C0,25.5032658 0.208153846,24.4261139 0.625589744,23.4138987 C1.04246154,22.4011139 1.61164103,21.5284557 2.33369231,20.7959241 C3.05517949,20.0628228 3.92897436,19.4829494 4.95451282,19.0557342 C5.98061538,18.6290886 7.07666667,18.415481 8.24266667,18.415481 C11.0338462,18.415481 13.227641,19.5176962 14.8240513,21.7232658 L11.6425128,24.2210506 C10.6733846,22.9849747 9.52205128,22.3669367 8.18794872,22.3669367 C7.10205128,22.3669367 6.20738462,22.7782025 5.50451282,23.6013038 C4.80107692,24.4238354 4.44907692,25.4388987 4.44907692,26.6447848 C4.44907692,27.8586456 4.80107692,28.8748481 5.50451282,29.693962 C6.20738462,30.5130759 7.10205128,30.9226329 8.18794872,30.9226329 C8.9534359,30.9226329 9.60384615,30.7602911 10.1397436,30.4367468 C10.6750769,30.1126329 11.2053333,29.6267468 11.7299487,28.9790886 L14.9989231,31.347 C14.4669744,32.0726962 13.904,32.6827595 13.31,33.1760506 C12.716,33.6699114 11.9685641,34.0760506 11.0688205,34.3956076 C10.1685128,34.7145949 9.16497436,34.8746582 8.05707692,34.8746582 C6.5774359,34.8746582 5.22358974,34.5232025 3.99610256,33.8208608 C2.76805128,33.118519 1.79497436,32.1364937 1.07687179,30.8753544 C0.358769231,29.6142152 0,28.2038354 0,26.6447848" id="Fill-8" fill="#270A3D"></path>
                <path d="M21.2192256,26.3301835 L24.0837385,26.3301835 C24.8193282,26.3301835 25.3918923,26.1615759 25.7997385,25.8243608 C26.2081487,25.4871456 26.4117897,25.0211962 26.4117897,24.4265127 C26.4117897,23.8244241 26.2058923,23.3658797 25.7940974,23.0503101 C25.3823026,22.7347405 24.8052256,22.5769557 24.0617385,22.5769557 L21.2192256,22.5769557 L21.2192256,26.3301835 Z M16.8790205,34.5543608 L16.8790205,18.7240443 L24.273841,18.7240443 C26.5494308,18.7240443 28.2473795,19.2942342 29.3671231,20.4340443 C30.290559,21.3739177 30.7519949,22.6322089 30.7519949,24.2089177 C30.7519949,25.3669557 30.4699436,26.3506899 29.905841,27.1595506 C29.3417385,27.9684114 28.5565077,28.5875886 27.5512769,29.0170823 L31.2901487,34.5543608 L26.2809179,34.5543608 L23.1213795,29.7410696 L21.2192256,29.7410696 L21.2192256,34.5543608 L16.8790205,34.5543608 Z" id="Fill-10" fill="#270A3D"></path>
                <polygon id="Fill-12" fill="#270A3D" points="32.9712872 34.5543038 32.9712872 18.724557 37.5625179 18.724557 41.3013897 24.8508228 45.0402615 18.724557 49.6427744 18.724557 49.6427744 34.5543038 45.3025692 34.5543038 45.3025692 25.4694304 41.3013897 31.6623418 41.2139538 31.6623418 37.2240564 25.5132911 37.2240564 34.5543038"></polygon>
                <path d="M67.3882,40.3069557 C75.6162,42.5336013 84.0737897,37.6023987 86.2788667,29.2933481 C88.4839436,20.9848671 83.6005077,12.4445506 75.3719436,10.2179051 C67.1439436,7.99182911 58.6857897,12.9230316 56.4812769,21.2315127 C54.2767641,29.5399937 59.1596359,38.0808797 67.3882,40.3069557" id="Fill-14" fill="#A49CAD"></path>
                <path d="M61.2604667,11.428519 C61.1013897,11.428519 60.9394923,11.4484557 60.7787231,11.4888987 C59.7170821,11.7571899 59.0700564,12.8485823 59.3357487,13.9206076 C59.6020051,14.9914937 60.6833897,15.6425696 61.7444667,15.3771266 C62.8055436,15.1082658 63.4525692,14.0168734 63.1868769,12.9454177 C62.9606718,12.0363038 62.1494923,11.428519 61.2604667,11.428519" id="Fill-16" fill="#E5E5E5"></path>
                <path d="M82.0066923,15.3890886 C82.5843333,15.7263038 83.2578718,15.8163038 83.9065897,15.6414304 C84.5524872,15.4671266 85.0923333,15.0490253 85.4268462,14.4640253 C85.761359,13.8795949 85.8504872,13.1977595 85.6767436,12.5455443 C85.3772051,11.4171266 84.3623846,10.6709241 83.2567436,10.6709241 C83.0435128,10.6709241 82.8263333,10.6988354 82.6097179,10.7569367 C81.9643846,10.9318101 81.4245385,11.350481 81.0900256,11.935481 C80.7555128,12.5199114 80.6663846,13.2017468 80.8395641,13.853962 C81.0127436,14.5061772 81.427359,15.0513038 82.0066923,15.3890886" id="Fill-18" fill="#E5E5E5"></path>
                <path d="M63.9224667,37.5761962 C63.5371846,37.3511962 63.1090308,37.2361329 62.6746718,37.2361329 C62.4574923,37.2361329 62.2386205,37.2651835 62.0225692,37.3238544 C61.3766718,37.4981582 60.8368256,37.9168291 60.5023128,38.5018291 C60.1678,39.0862595 60.0786718,39.7680949 60.2524154,40.4203101 C60.4250308,41.0725253 60.8396462,41.6176519 61.4189795,41.9554367 C61.9966205,42.2926519 62.6712872,42.3832215 63.3188769,42.2083481 C63.9647744,42.0334747 64.5046205,41.6148038 64.8391333,41.0298038 C65.1736462,40.4453734 65.2627744,39.763538 65.0895949,39.1113228 C64.9164154,38.4591076 64.5018,37.913981 63.9224667,37.5761962" id="Fill-20" fill="#E5E5E5"></path>
                <path d="M82.0816051,34.0046772 C80.7480667,34.3658165 79.9532462,35.7545506 80.3103231,37.1011329 C80.4835026,37.7539177 80.8981179,38.2990443 81.4774513,38.6368291 C82.0550923,38.9740443 82.7286308,39.0646139 83.3773487,38.8891709 C84.0232462,38.7148671 84.5630923,38.2956266 84.8976051,37.7106266 C85.2321179,37.1261962 85.3212462,36.4449304 85.1475026,35.7927152 C84.7909897,34.4461329 83.4162718,33.6446772 82.0816051,34.0046772" id="Fill-22" fill="#E5E5E5"></path>
                <path d="M79.0714974,23.2464873 C78.5745231,21.3735759 77.3848308,19.8082595 75.7224205,18.8387658 C74.613959,18.1928165 73.3853436,17.8624367 72.139241,17.8624367 C71.5147795,17.8624367 70.8863692,17.9461709 70.2669846,18.1136392 C68.4122154,18.6149051 66.8614974,19.8168038 65.9013949,21.4954747 C64.9412923,23.1747152 64.6863179,25.1307911 65.1832923,27.0037025 C65.6802667,28.8771835 66.869959,30.4425 68.5323692,31.4119937 C70.1964718,32.382057 72.1330359,32.6378165 73.9883692,32.1371203 C77.8169333,31.1015506 80.0970359,27.1130696 79.0714974,23.2464873" id="Fill-24" fill="#FFFFFF"></path>
                <path d="M84.8976051,37.7108544 C84.5630923,38.2958544 84.0232462,38.7145253 83.3773487,38.8893987 C82.7286308,39.0642722 82.0550923,38.9737025 81.4774513,38.6364873 C80.8981179,38.2987025 80.4835026,37.7535759 80.3103231,37.1013608 C79.9538103,35.7542089 80.7480667,34.3654747 82.0816051,34.0049051 C83.4162718,33.6449051 84.7909897,34.4463608 85.1475026,35.7923734 C85.3212462,36.4451582 85.2321179,37.1264241 84.8976051,37.7108544 M73.9884256,32.1371203 C72.1330923,32.6378165 70.1965282,32.382057 68.5324256,31.4119937 C66.8700154,30.4425 65.679759,28.8771835 65.1833487,27.0037025 C64.6863744,25.1307911 64.9413487,23.1752848 65.9014513,21.4954747 C66.8615538,19.8168038 68.4122718,18.6149051 70.267041,18.1136392 C70.8864256,17.9461709 71.5148359,17.8624367 72.1392974,17.8624367 C73.3854,17.8624367 74.6140154,18.1928165 75.7219128,18.8387658 C77.3848872,19.8082595 78.5745795,21.3735759 79.0715538,23.2464873 C80.0970923,27.1130696 77.8169897,31.1015506 73.9884256,32.1371203 M61.7440154,15.3771835 C60.6835026,15.642057 59.6021179,14.9915506 59.3358615,13.9206646 C59.0696051,12.8486392 59.7171949,11.7572468 60.7782718,11.4889557 C60.9396051,11.447943 61.1009385,11.4285759 61.2605795,11.4285759 C62.1496051,11.4285759 62.9607846,12.0363608 63.1869897,12.9454747 C63.4526821,14.0169304 62.8056564,15.1083228 61.7440154,15.3771835 M81.0899128,11.935538 C81.4244256,11.350538 81.9642718,10.9318671 82.6096051,10.7569937 C82.8262205,10.6988924 83.0434,10.670981 83.2566308,10.670981 C84.3622718,10.670981 85.3770923,11.4171835 85.6771949,12.5456013 C85.8503744,13.1978165 85.7612462,13.8796519 85.4267333,14.4640823 C85.0922205,15.0490823 84.5523744,15.4671835 83.9064769,15.6414873 C83.257759,15.8163608 82.5842205,15.7263608 82.0065795,15.3891456 C81.4272462,15.0513608 81.0126308,14.5062342 80.8394513,13.854019 C80.6662718,13.2012342 80.7554,12.5199684 81.0899128,11.935538 M64.8392462,41.0300316 C64.5047333,41.6150316 63.9648872,42.0337025 63.3189897,42.2080063 C62.6708359,42.3834494 61.9967333,42.2928797 61.4190923,41.9556646 C60.839759,41.6178797 60.4251436,41.0727532 60.2519641,40.420538 C60.0787846,39.7677532 60.1679128,39.0864873 60.5024256,38.502057 C60.8369385,37.917057 61.3767846,37.4983861 62.0226821,37.3235127 C62.2387333,37.2654114 62.4576051,37.2357911 62.6747846,37.2357911 C63.1091436,37.2357911 63.5372974,37.3508544 63.9225795,37.5764241 C64.5019128,37.9142089 64.9165282,38.4593354 65.0897077,39.1115506 C65.2628872,39.7637658 65.173759,40.4456013 64.8392462,41.0300316 M81.5338615,31.9423101 C81.0696051,32.0676266 80.6414513,32.2612975 80.2556051,32.5085127 L79.1189385,31.3271203 C79.517759,30.8668671 79.8748359,30.3638924 80.1839641,29.8221835 C81.4266821,27.6490823 81.7572462,25.1176899 81.1141692,22.6933861 C80.7480667,21.3143354 80.0869385,20.0964873 79.2289385,19.0734494 L80.9528359,17.2261709 C81.6455538,17.6306013 82.4358615,17.8635759 83.2594513,17.8635759 C83.653759,17.8635759 84.0548359,17.8117405 84.4530923,17.7040823 C85.645041,17.3816772 86.6412462,16.6104114 87.2583744,15.5315506 C87.8755026,14.4526899 88.0385282,13.1961076 87.7192462,11.9925 C87.0603744,9.50952532 84.5252974,8.02851266 82.0629897,8.69439873 C79.6029385,9.36085443 78.1379641,11.9230063 78.7974,14.4065506 C78.9294,14.9049684 79.1409385,15.3595253 79.4088872,15.767943 L77.6906308,17.6089557 C75.4844256,15.947943 72.5792974,15.2780696 69.7198615,16.0510443 C68.605759,16.3523734 67.5824769,16.8559177 66.6754,17.5183861 L64.8031436,15.5081962 C65.3204256,14.6081962 65.5071436,13.5128165 65.2375026,12.425981 C64.6875026,10.2118671 62.4559128,8.86072785 60.2638103,9.41781646 C58.0722718,9.9731962 56.7359128,12.2260443 57.2853487,14.4401582 C57.7512974,16.317057 59.4266821,17.5725 61.2622718,17.5725 C61.5917077,17.5725 61.9256564,17.5326266 62.2584769,17.4477532 C62.6352974,17.3526266 62.9844769,17.2039557 63.3054513,17.0171203 L65.1111436,18.9549684 C64.723041,19.4072468 64.3727333,19.8982595 64.0698103,20.4280063 C62.8276564,22.6011076 62.4976564,25.1325 63.1407333,27.5568038 C63.6472974,29.4661709 64.7162718,31.1209177 66.1964769,32.3541456 L64.2384769,35.3845253 C63.3799128,35.0695253 62.4220667,35.0051582 61.4749385,35.2609177 C59.0154513,35.9273734 57.5504769,38.4895253 58.2099128,40.9730696 C58.7616051,43.054462 60.6327333,44.4306646 62.6719641,44.4306646 C63.0662718,44.4306646 63.4673487,44.3788291 63.8661692,44.2706013 C66.3262205,43.6047152 67.7911949,41.0425633 67.131759,38.5584494 C66.9247333,37.7769304 66.5304256,37.0950949 66.0114513,36.5482595 L67.9643744,33.5252848 C69.2668872,34.1854747 70.6810923,34.5238291 72.1122205,34.5238291 C72.9205795,34.5238291 73.7340154,34.4161709 74.5356051,34.1997152 C75.6356051,33.9018038 76.647041,33.4062342 77.5456564,32.7557278 L78.7804769,34.0396519 C78.153759,35.0883228 77.9303744,36.3802215 78.2677077,37.6538924 L78.2677077,37.654462 C78.8199641,39.7352848 80.6910923,41.1114873 82.729759,41.1114873 C83.1246308,41.1114873 83.5257077,41.0596519 83.9245282,40.9519937 C86.3845795,40.285538 87.8495538,37.7233861 87.1901179,35.2398418 C86.5312462,32.7562975 83.9961692,31.2758544 81.5338615,31.9423101" id="Fill-26" fill="#270A3D"></path>
            </g>
        </g>
    </g>
</svg>