<?xml version="1.0" encoding="UTF-8"?>
<svg width="88px" height="100px" viewBox="0 0 88 100" version="1.1" xmlns="http://www.w3.org/2000/svg" xmlns:xlink="http://www.w3.org/1999/xlink">
    <!-- Generator: Sketch 47.1 (45422) - http://www.bohemiancoding.com/sketch -->
    <title>like</title>
    <desc>Created with Sketch.</desc>
    <defs></defs>
    <g id="Page-1" stroke="none" stroke-width="1" fill="none" fill-rule="evenodd">
        <g id="4" transform="translate(-985.000000, -260.000000)" fill-rule="nonzero">
            <g id="Group-8" transform="translate(750.000000, 140.000000)">
                <g id="like" transform="translate(235.000000, 120.000000)">
                    <path d="M85.6464844,61.9140625 C87.0410156,60.3574219 87.890625,58.3027344 87.890625,56.0546875 C87.890625,51.2089844 83.9472656,47.265625 79.1015625,47.265625 L62.0429687,47.265625 C63.7324219,42.1386719 64.453125,35.3359375 64.453125,32.4199219 L64.453125,29.4921875 C64.453125,23.03125 59.1953125,17.7734375 52.734375,17.7734375 L49.8046875,17.7734375 C48.4609375,17.7734375 47.2890625,18.6875 46.9628906,19.9921875 L45.3671875,26.3769531 C43.1308594,35.3183594 36.03125,45.1835938 28.6835937,46.9765625 C27.3964844,43.71875 24.21875,41.40625 20.5078125,41.40625 L2.9296875,41.40625 C1.3125,41.40625 0,42.71875 0,44.3359375 L0,97.0703125 C0,98.6875 1.3125,100 2.9296875,100 L20.5078125,100 C24.0019531,100 27.0253906,97.9511719 28.4414062,94.9902344 L38.5078125,98.3457031 C41.7988281,99.4433594 45.2285156,100 48.6992188,100 L73.2421875,100 C78.0878906,100 82.03125,96.0566406 82.03125,91.2109375 C82.03125,90.0683594 81.8125,88.9746094 81.4140625,87.9726562 C85.140625,86.9550781 87.890625,83.5390625 87.890625,79.4921875 C87.890625,77.2441406 87.0410156,75.1894531 85.6464844,73.6328125 C87.0410156,72.0761719 87.890625,70.0214844 87.890625,67.7734375 C87.890625,65.5253906 87.0410156,63.4707031 85.6464844,61.9140625 Z M23.4375,91.2109375 C23.4375,92.8261719 22.1230469,94.140625 20.5078125,94.140625 L5.859375,94.140625 L5.859375,47.265625 L20.5078125,47.265625 C22.1230469,47.265625 23.4375,48.5800781 23.4375,50.1953125 L23.4375,91.2109375 Z M73.2421875,64.84375 L79.1015625,64.84375 C80.7167969,64.84375 82.03125,66.1582031 82.03125,67.7734375 C82.03125,69.3886719 80.7167969,70.703125 79.1015625,70.703125 L73.2421875,70.703125 C71.625,70.703125 70.3125,72.015625 70.3125,73.6328125 C70.3125,75.25 71.625,76.5625 73.2421875,76.5625 L79.1015625,76.5625 C80.7167969,76.5625 82.03125,77.8769531 82.03125,79.4921875 C82.03125,81.1074219 80.7167969,82.421875 79.1015625,82.421875 L73.2421875,82.421875 C71.625,82.421875 70.3125,83.734375 70.3125,85.3515625 C70.3125,86.96875 71.625,88.28125 73.2421875,88.28125 C74.8574219,88.28125 76.171875,89.5957031 76.171875,91.2109375 C76.171875,92.8261719 74.8574219,94.140625 73.2421875,94.140625 L48.6992187,94.140625 C45.859375,94.140625 43.0527344,93.6855469 40.359375,92.7871094 L29.296875,89.0996094 L29.296875,52.8476562 C33.8925781,51.9746094 38.390625,49.0644531 42.4511719,44.3007812 C46.4160156,39.6484375 49.6308594,33.4804688 51.0507812,27.7988281 L52.0917969,23.6328125 L52.734375,23.6328125 C55.9648438,23.6328125 58.59375,26.2617188 58.59375,29.4921875 L58.59375,32.4199219 C58.59375,36.3535156 57.3632812,43.8984375 55.7890625,47.265625 L49.8046875,47.265625 C48.1875,47.265625 46.875,48.578125 46.875,50.1953125 C46.875,51.8125 48.1875,53.125 49.8046875,53.125 L79.1015625,53.125 C80.7167969,53.125 82.03125,54.4394531 82.03125,56.0546875 C82.03125,57.6699219 80.7167969,58.984375 79.1015625,58.984375 L73.2421875,58.984375 C71.625,58.984375 70.3125,60.296875 70.3125,61.9140625 C70.3125,63.53125 71.625,64.84375 73.2421875,64.84375 Z" id="Shape" fill="#A423BB"></path>
                    <circle id="Oval" fill="#A423BB" cx="14.6484375" cy="85.3515625" r="2.9296875"></circle>
                    <path d="M55.6640625,0 C54.0460938,0 52.734375,1.31171875 52.734375,2.9296875 L52.734375,8.984375 C52.734375,10.6023437 54.0460938,11.9140625 55.6640625,11.9140625 C57.2820312,11.9140625 58.59375,10.6023437 58.59375,8.984375 L58.59375,2.9296875 C58.59375,1.31171875 57.2820312,0 55.6640625,0 Z" id="Shape" fill="#C3BBC5"></path>
                    <path d="M43.234375,12.9195312 L39.0912109,8.77636719 C37.9472656,7.63222656 36.0921875,7.63222656 34.9480469,8.77636719 C33.8039063,9.92050781 33.8039063,11.7753906 34.9480469,12.9195312 L39.0912109,17.0626953 C40.2351563,18.2066406 42.0904297,18.2068359 43.234375,17.0626953 C44.3785156,15.9185547 44.3785156,14.0636719 43.234375,12.9195312 Z" id="Shape" fill="#C3BBC5"></path>
                    <path d="M76.3800781,8.77636719 C75.2361328,7.63222656 73.3810547,7.63222656 72.2369141,8.77636719 L68.09375,12.9193359 C66.9496094,14.0634766 66.9496094,15.9183594 68.09375,17.0625 C69.2376953,18.2066406 71.0927734,18.2068359 72.2369141,17.0626953 L76.3800781,12.9195313 C77.5242188,11.7753906 77.5242188,9.92050781 76.3800781,8.77636719 Z" id="Shape" fill="#C3BBC5"></path>
                </g>
            </g>
        </g>
    </g>
</svg>