<?xml version="1.0" encoding="UTF-8"?>
<svg width="120px" height="140px" viewBox="0 0 120 140" version="1.1" xmlns="http://www.w3.org/2000/svg" xmlns:xlink="http://www.w3.org/1999/xlink">
    <!-- Generator: Sketch 47.1 (45422) - http://www.bohemiancoding.com/sketch -->
    <title>location</title>
    <desc>Created with Sketch.</desc>
    <defs></defs>
    <g id="Page-1" stroke="none" stroke-width="1" fill="none" fill-rule="evenodd">
        <g id="3-1-locations" transform="translate(-176.000000, -108.000000)">
            <g id="location" transform="translate(176.000000, 108.000000)">
                <path d="M91.3606608,40.3929288 L8.71051413,40.3929288 C4.09572333,40.3929288 0.388760229,44.1377181 0.388760229,48.7146827 L0.388760229,131.364829 C0.388760229,135.97962 4.13354948,139.686583 8.71051413,139.686583 L91.3606608,139.686583 C95.9754516,139.686583 99.6824147,135.941794 99.6824147,131.364829 L99.6824147,48.7146827 C99.6824147,44.0998919 95.9754516,40.3929288 91.3606608,40.3929288 Z" id="Shape" fill="#E6E9EE" fill-rule="nonzero"></path>
                <path d="M15.1787865,62.4455767 L29.0988112,40.3929288 L8.74834028,40.3929288 C4.13354948,40.3929288 0.388760229,44.1377181 0.388760229,48.7525089 L0.388760229,61.4242705 L0.388760229,63.6938397 L0.388760229,100.763471 L15.6327003,111.808708 L44.8723174,64.5638413 L15.1787865,62.4455767 Z" id="Shape" fill="#84DBFF" fill-rule="nonzero"></path>
                <path d="M94.4624054,40.9981473 L94.4624054,49.6225104 L48.8440636,127.960476 L0.350934074,100.952602 L0.350934074,131.364829 C0.350934074,135.97962 4.09572333,139.724409 8.71051413,139.724409 L91.3228346,139.724409 C95.9376254,139.724409 99.6824147,135.97962 99.6824147,131.364829 L99.6824147,48.7146827 C99.6824147,45.2346765 97.5263239,42.2464104 94.4624054,40.9981473 Z" id="Shape" fill="#2C9984" fill-rule="nonzero"></path>
                <polygon id="Shape" fill="#FFFFFF" fill-rule="nonzero" points="99.6824147 64.6773197 17.2592249 61.8403582 30.6496835 40.3929288 26.0348927 40.3929288 12.7200865 61.6890536 0.388760229 61.2729659 0.388760229 65.2068859 41.4679636 66.6064536 31.6709897 82.3421337 19.5287942 74.5877721 17.4483557 77.9164737 29.5905512 85.6708353 14.6492203 109.690443 17.9779219 111.770882 46.0071021 66.7577582 99.6824147 68.6112398"></polygon>
                <path d="M92.8358808,40.5442334 L46.3097113,123.156554 L0.388760229,97.2456384 L0.388760229,106.248263 L42.4892697,129.965262 L37.0044774,139.686583 L46.0071021,139.686583 L49.2979775,133.823529 L59.737996,139.686583 L75.7384592,139.686583 L53.1562452,126.976996 L99.0393701,45.4994596 C97.9802378,42.9272811 95.6350162,41.0359734 92.8358808,40.5442334 Z" id="Shape" fill="#FFD05B" fill-rule="nonzero"></path>
                <circle id="Oval-9" fill="#FFFFFF" cx="84.1960784" cy="34.4117647" r="16.5686275"></circle>
                <path d="M84.4382784,0 C65.3301376,0 49.7843137,15.5329671 49.7843137,34.6256138 C49.7843137,46.4360489 55.3915177,59.1161297 66.4506554,72.313119 C74.5731728,82.0061414 82.5852539,88.2403607 82.9224971,88.5011225 C83.3688581,88.8462776 83.9035682,89.0186903 84.438608,89.0186903 C84.9733182,89.0186903 85.508358,88.8462776 85.954719,88.5011225 C86.2916325,88.2403607 94.3040432,82.0061414 102.426561,72.313119 C113.485698,59.1161297 119.092902,46.4363785 119.092902,34.6256138 C119.092243,15.5329671 103.546419,0 84.4382784,0 Z M97.2719812,34.6252841 C97.2719812,41.7070618 91.5259899,47.4484378 84.4382784,47.4484378 C77.3505668,47.4484378 71.6045755,41.7073914 71.6045755,34.6252841 C71.6045755,27.5431768 77.3505668,21.8021304 84.4382784,21.8021304 C91.5259899,21.8021304 97.2719812,27.5435065 97.2719812,34.6252841 Z" id="Shape-Copy" fill="#FF4A4A" fill-rule="nonzero"></path>
                <path d="M84.3946218,0 C82.8801592,0 81.3884431,0.0982389789 79.9247483,0.287464395 C96.9296518,2.4853143 110.109169,17.0461111 110.109169,34.6256138 C110.109169,46.4360489 104.501965,59.1161297 93.4428274,72.313119 C88.2193488,78.5463492 83.0453193,83.3458837 79.9250779,86.0497633 C81.6571168,87.5503802 82.7588439,88.4081581 82.8788405,88.5011225 C83.3252015,88.8462776 83.8599117,89.0186903 84.3949515,89.0186903 C84.9296616,89.0186903 85.4647014,88.8462776 85.9110624,88.5011225 C86.247976,88.2403607 94.2603867,82.0061414 102.382904,72.313119 C113.442042,59.1161297 119.049246,46.4363785 119.049246,34.6256138 C119.048586,15.5329671 103.502763,0 84.3946218,0 Z" id="Shape-Copy-2" fill="#E7343F" fill-rule="nonzero"></path>
            </g>
        </g>
    </g>
</svg>