<?xml version="1.0" encoding="UTF-8"?>
<svg width="103px" height="82px" viewBox="0 0 103 82" version="1.1" xmlns="http://www.w3.org/2000/svg" xmlns:xlink="http://www.w3.org/1999/xlink">
    <!-- Generator: Sketch 47.1 (45422) - http://www.bohemiancoding.com/sketch -->
    <title>loft-feature-3</title>
    <desc>Created with Sketch.</desc>
    <defs>
        <linearGradient x1="0%" y1="50%" x2="99.981075%" y2="50%" id="linearGradient-1">
            <stop stop-color="#F47C22" offset="0%"></stop>
            <stop stop-color="#FFCD02" offset="100%"></stop>
        </linearGradient>
        <path d="M27.2589,24.1874 L22.2299,24.1874 L18.9819,24.1874 L18.9819,24.1874 C13.0419,24.1874 8.2279,29.0024 8.2279,34.9414 L8.2279,41.0134 L8.2279,57.1404 L8.2279,57.1404 L11.4759,57.1404 L11.9229,57.1404 L11.9229,57.1404 L34.3179,57.1404 L34.3179,57.1404 L37.5959,57.1404 L38.0129,41.0134 L38.0129,34.9414 C38.0129,29.0024 33.1989,24.1874 27.2589,24.1874" id="path-2"></path>
        <filter x="-92.3%" y="-53.1%" width="284.7%" height="266.9%" filterUnits="objectBoundingBox" id="filter-3">
            <feOffset dx="0" dy="10" in="SourceAlpha" result="shadowOffsetOuter1"></feOffset>
            <feGaussianBlur stdDeviation="7.5" in="shadowOffsetOuter1" result="shadowBlurOuter1"></feGaussianBlur>
            <feColorMatrix values="0 0 0 0 1   0 0 0 0 0.792156863   0 0 0 0 0.0156862745  0 0 0 0.2 0" type="matrix" in="shadowBlurOuter1"></feColorMatrix>
        </filter>
        <path d="M11.9228,57.1408 L11.9228,52.6748 L11.9228,46.2398 C11.9228,43.8268 10.3808,41.7728 8.2278,41.0128 C7.6318,40.8018 6.9888,40.6908 6.3188,40.6978 C3.3218,40.7308 0.8668,43.1888 0.8378,46.1858 C0.8208,47.9908 1.6658,49.5978 2.9868,50.6218 C4.6898,51.9418 5.6408,54.0108 5.6408,56.1648 L5.6408,57.1408" id="path-4"></path>
        <filter x="-248.1%" y="-106.4%" width="596.2%" height="434.5%" filterUnits="objectBoundingBox" id="filter-5">
            <feOffset dx="0" dy="10" in="SourceAlpha" result="shadowOffsetOuter1"></feOffset>
            <feGaussianBlur stdDeviation="7.5" in="shadowOffsetOuter1" result="shadowBlurOuter1"></feGaussianBlur>
            <feColorMatrix values="0 0 0 0 1   0 0 0 0 0.792156863   0 0 0 0 0.0156862745  0 0 0 0.2 0" type="matrix" in="shadowBlurOuter1"></feColorMatrix>
        </filter>
        <path d="M34.3179,57.1408 L34.3179,52.6748 L34.3179,46.2398 C34.3179,43.8268 35.8599,41.7728 38.0129,41.0128 C38.5909,40.8088 39.2119,40.6978 39.8599,40.6978 C42.9219,40.6978 45.4029,43.1788 45.4029,46.2398 C45.4029,47.9958 44.5859,49.5618 43.3109,50.5768 C41.6239,51.9198 40.5989,53.9228 40.5989,56.0778 L40.5989,57.1408" id="path-6"></path>
        <filter x="-248.1%" y="-106.4%" width="596.2%" height="434.5%" filterUnits="objectBoundingBox" id="filter-7">
            <feOffset dx="0" dy="10" in="SourceAlpha" result="shadowOffsetOuter1"></feOffset>
            <feGaussianBlur stdDeviation="7.5" in="shadowOffsetOuter1" result="shadowBlurOuter1"></feGaussianBlur>
            <feColorMatrix values="0 0 0 0 1   0 0 0 0 0.792156863   0 0 0 0 0.0156862745  0 0 0 0.2 0" type="matrix" in="shadowBlurOuter1"></feColorMatrix>
        </filter>
    </defs>
    <g id="Page-1" stroke="none" stroke-width="1" fill="none" fill-rule="evenodd">
        <g id="3-1-apartments-main-1170" transform="translate(-967.000000, -1308.000000)">
            <g id="loft-feature-3" transform="translate(981.000000, 1308.000000)">
                <polygon id="Fill-1" fill="#D9D9D9" points="68.296 63.937 84.546 63.937 84.546 1.104 68.296 1.104"></polygon>
                <polygon id="Fill-2" fill="#E1CBB9" points="68.296 30.354 84.546 30.354 84.546 26.021 68.296 26.021"></polygon>
                <polygon id="Fill-3" fill="#E1CBB9" points="68.296 26.02 73.713 26.02 73.713 11.937 68.296 11.937"></polygon>
                <polygon id="Fill-4" fill="#E1CBB9" points="73.712 26.02 79.129 26.02 79.129 15.187 73.712 15.187"></polygon>
                <polygon id="Fill-5" fill="#E1CBB9" points="79.129 26.02 84.546 26.02 84.546 11.937 79.129 11.937"></polygon>
                <polygon id="Fill-6" fill="#E1CBB9" points="68.296 56.354 84.546 56.354 84.546 52.021 68.296 52.021"></polygon>
                <polygon id="Fill-7" fill="#E1CBB9" points="71.546 52.021 79.129 52.021 79.129 35.771 71.546 35.771"></polygon>
                <polygon id="Fill-8" fill="#E1CBB9" points="79.129 52.021 84.546 52.021 84.546 40.104 79.129 40.104"></polygon>
                <path d="M69.379,62.854 L83.462,62.854 L83.462,57.437 L69.379,57.437 L69.379,62.854 Z M83.462,2.187 L83.462,10.854 L79.129,10.854 C78.53,10.854 78.046,11.339 78.046,11.937 L78.046,14.104 L74.796,14.104 L74.796,11.937 C74.796,11.339 74.311,10.854 73.712,10.854 L69.379,10.854 L69.379,2.187 L83.462,2.187 Z M72.629,50.937 L72.629,36.854 L78.046,36.854 L78.046,40.104 L78.046,50.937 L72.629,50.937 Z M80.212,50.937 L83.462,50.937 L83.462,41.187 L80.212,41.187 L80.212,50.937 Z M69.379,31.437 L83.462,31.437 L83.462,39.021 L80.212,39.021 L80.212,35.771 C80.212,35.173 79.728,34.687 79.129,34.687 L71.546,34.687 C70.946,34.687 70.462,35.173 70.462,35.771 L70.462,50.937 L69.379,50.937 L69.379,31.437 Z M74.796,24.937 L78.046,24.937 L78.046,16.27 L74.796,16.27 L74.796,24.937 Z M83.462,29.271 L69.379,29.271 L69.379,27.104 L73.712,27.104 L79.129,27.104 L83.462,27.104 L83.462,29.271 Z M80.212,15.187 L80.212,13.021 L83.462,13.021 L83.462,24.937 L80.212,24.937 L80.212,15.187 Z M69.379,13.021 L72.629,13.021 L72.629,15.187 L72.629,24.937 L69.379,24.937 L69.379,13.021 Z M83.462,55.271 L69.379,55.271 L69.379,53.104 L71.546,53.104 L79.129,53.104 L83.462,53.104 L83.462,55.271 Z M84.546,0.021 L68.296,0.021 C67.696,0.021 67.212,0.506 67.212,1.104 L67.212,11.937 L67.212,26.021 L67.212,30.354 L67.212,52.021 L67.212,56.354 L67.212,63.937 C67.212,64.535 67.696,65.021 68.296,65.021 L84.546,65.021 C85.145,65.021 85.629,64.535 85.629,63.937 L85.629,56.354 L85.629,52.021 L85.629,40.104 L85.629,30.354 L85.629,26.021 L85.629,11.937 L85.629,1.104 C85.629,0.506 85.145,0.021 84.546,0.021 L84.546,0.021 Z" id="Fill-9" fill="#322F31"></path>
                <path d="M87.6932,66.756 L3.0072,66.756 C2.4552,66.756 2.0072,66.309 2.0072,65.756 C2.0072,65.203 2.4552,64.756 3.0072,64.756 L87.6932,64.756 C88.2452,64.756 88.6932,65.203 88.6932,65.756 C88.6932,66.309 88.2452,66.756 87.6932,66.756" id="Fill-11" fill="#322F31"></path>
                <g id="Fill-12">
                    <use fill="black" fill-opacity="1" filter="url(#filter-3)" xlink:href="#path-2"></use>
                    <use fill="url(#linearGradient-1)" fill-rule="evenodd" xlink:href="#path-2"></use>
                </g>
                <g id="Fill-13">
                    <use fill="black" fill-opacity="1" filter="url(#filter-5)" xlink:href="#path-4"></use>
                    <use fill="url(#linearGradient-1)" fill-rule="evenodd" xlink:href="#path-4"></use>
                </g>
                <g id="Fill-14">
                    <use fill="black" fill-opacity="1" filter="url(#filter-7)" xlink:href="#path-6"></use>
                    <use fill="url(#linearGradient-1)" fill-rule="evenodd" xlink:href="#path-6"></use>
                </g>
                <polygon id="Fill-15" fill="#B6B6B6" points="34.318 57.1408 11.923 57.1408 9.552 57.1408 8.849 57.1408 6.344 57.1408 5.641 57.1408 5.641 60.5378 6.001 60.5378 8.861 60.5378 9.192 60.5378 9.552 60.5378 37.379 60.5378 40.599 60.5378 40.599 57.1408"></polygon>
                <polygon id="Fill-16" fill="#B6B6B6" points="11.6192 60.538 11.6192 64.972 8.6212 64.972 7.8142 60.538"></polygon>
                <polygon id="Fill-17" fill="#B6B6B6" points="34.6228 60.538 34.6228 64.972 37.6208 64.972 38.4268 60.538"></polygon>
                <path d="M39.963,44.868 C40.828,44.868 41.53,45.569 41.53,46.435 C41.53,47.3 40.828,48.001 39.963,48.001 C39.098,48.001 38.396,47.3 38.396,46.435 C38.396,45.569 39.098,44.868 39.963,44.868" id="Fill-18" fill="#CFDCE5"></path>
                <path d="M6.2778,44.868 C7.1428,44.868 7.8448,45.569 7.8448,46.435 C7.8448,47.3 7.1428,48.001 6.2778,48.001 C5.4128,48.001 4.7108,47.3 4.7108,46.435 C4.7108,45.569 5.4128,44.868 6.2778,44.868" id="Fill-19" fill="#CFDCE5"></path>
                <path d="M42.7684,49.9637 C40.8574,51.4857 39.7614,53.7137 39.7614,56.0777 L39.7614,56.3577 L35.0474,56.3577 L35.0474,46.2397 C35.0474,44.2247 36.3224,42.4217 38.2204,41.7517 C38.7274,41.5717 39.2604,41.4807 39.8054,41.4807 C42.4304,41.4807 44.5654,43.6157 44.5654,46.2397 C44.5654,47.6977 43.9104,49.0547 42.7684,49.9637 L42.7684,49.9637 Z M3.4124,50.0027 C2.2254,49.0827 1.5524,47.6937 1.5674,46.1927 C1.5914,43.6227 3.7024,41.5087 6.2724,41.4817 C6.8354,41.4747 7.3884,41.5657 7.9124,41.7517 C9.8094,42.4217 11.0844,44.2247 11.0844,46.2397 L11.0844,56.3577 L6.3694,56.3577 L6.3694,56.1647 C6.3694,53.7417 5.2644,51.4377 3.4124,50.0027 L3.4124,50.0027 Z M14.7924,50.5337 L31.3384,50.5337 C32.5194,50.5337 33.4804,51.4937 33.4804,52.6747 L33.4804,56.3577 L12.6514,56.3577 L12.6514,52.6747 C12.6514,51.4937 13.6124,50.5337 14.7924,50.5337 L14.7924,50.5337 Z M36.9124,64.1887 L35.3514,64.1887 L35.3514,61.3217 L37.4334,61.3217 L36.9124,64.1887 Z M10.7814,61.3217 L10.7814,64.1887 L9.2204,64.1887 L8.6984,61.3217 L10.7814,61.3217 Z M39.8054,39.9137 C39.4464,39.9137 39.0914,39.9437 38.7424,40.0037 L38.7424,34.9417 C38.7424,30.8187 36.5184,26.9817 32.9394,24.9277 C32.5644,24.7127 32.0854,24.8427 31.8694,25.2177 C31.6544,25.5927 31.7844,26.0717 32.1594,26.2867 C35.2534,28.0627 37.1754,31.3787 37.1754,34.9417 L37.1754,40.4867 C34.9444,41.5067 33.4804,43.7517 33.4804,46.2397 L33.4804,49.6507 C32.8744,49.2207 32.1354,48.9667 31.3384,48.9667 L28.2034,48.9667 L30.0844,44.2527 C30.2444,43.8507 30.0494,43.3947 29.6474,43.2347 C29.2454,43.0747 28.7894,43.2697 28.6294,43.6717 L26.5164,48.9667 L23.8494,48.9667 L23.8494,36.5647 C23.8494,36.1317 23.4984,35.7807 23.0654,35.7807 C22.6334,35.7807 22.2824,36.1317 22.2824,36.5647 L22.2824,48.9667 L19.6154,48.9667 L15.7384,39.2507 C15.5784,38.8487 15.1224,38.6537 14.7204,38.8137 C14.3184,38.9737 14.1234,39.4297 14.2834,39.8317 L17.9284,48.9667 L14.7924,48.9667 C13.9954,48.9667 13.2564,49.2207 12.6514,49.6497 L12.6514,46.2397 C12.6514,43.5617 10.9564,41.1647 8.4344,40.2747 C7.7364,40.0277 7.0054,39.9067 6.2554,39.9147 C2.8384,39.9517 0.0324,42.7607 0.0004,46.1777 C-0.0186,48.1727 0.8754,50.0177 2.4524,51.2407 C3.9244,52.3817 4.8024,54.2227 4.8024,56.1647 L4.8024,60.5377 C4.8024,60.9707 5.1534,61.3217 5.5864,61.3217 L7.1064,61.3217 L7.7954,65.1127 C7.8634,65.4847 8.1884,65.7557 8.5664,65.7557 L11.5644,65.7557 C11.9974,65.7557 12.3484,65.4047 12.3484,64.9727 L12.3484,61.3217 L29.8644,61.3217 C30.2974,61.3217 30.6484,60.9707 30.6484,60.5377 C30.6484,60.1057 30.2974,59.7547 29.8644,59.7547 L6.3694,59.7547 L6.3694,57.9237 L39.7614,57.9237 L39.7614,59.7547 L32.4764,59.7547 C32.0434,59.7547 31.6924,60.1057 31.6924,60.5377 C31.6924,60.9707 32.0434,61.3217 32.4764,61.3217 L33.7844,61.3217 L33.7844,64.9727 C33.7844,65.4047 34.1354,65.7557 34.5684,65.7557 L37.5664,65.7557 C37.9454,65.7557 38.2694,65.4847 38.3374,65.1127 L39.0254,61.3217 L40.5444,61.3217 C40.9774,61.3217 41.3274,60.9707 41.3274,60.5377 L41.3274,56.0777 C41.3274,54.1937 42.2084,52.4117 43.7444,51.1897 C45.2614,49.9817 46.1314,48.1777 46.1314,46.2397 C46.1314,42.7517 43.2934,39.9137 39.8054,39.9137 L39.8054,39.9137 Z" id="Fill-20" fill="#322F31"></path>
                <path d="M8.173,39.0998 C8.606,39.0998 8.956,38.7488 8.956,38.3168 L8.956,34.9418 C8.956,29.4438 13.429,24.9708 18.927,24.9708 L27.204,24.9708 C28.074,24.9708 28.936,25.0828 29.768,25.3028 C30.186,25.4138 30.615,25.1648 30.726,24.7468 C30.837,24.3288 30.588,23.8998 30.169,23.7888 C29.207,23.5338 28.209,23.4038 27.204,23.4038 L18.927,23.4038 C12.566,23.4038 7.39,28.5798 7.39,34.9418 L7.39,38.3168 C7.39,38.7488 7.74,39.0998 8.173,39.0998" id="Fill-21" fill="#233A44"></path>
                <path d="M30.3932,39.251 L29.5672,41.321 C29.4072,41.723 29.6022,42.178 30.0042,42.339 C30.1002,42.377 30.1982,42.395 30.2942,42.395 C30.6062,42.395 30.9002,42.208 31.0222,41.901 L31.8482,39.832 C32.0092,39.43 31.8132,38.974 31.4112,38.814 C31.0092,38.653 30.5532,38.849 30.3932,39.251" id="Fill-22" fill="#233A44"></path>
                <path d="M39.9083,47.2182 C39.4763,47.2182 39.1253,46.8672 39.1253,46.4352 C39.1253,46.0032 39.4763,45.6512 39.9083,45.6512 C40.3403,45.6512 40.6913,46.0032 40.6913,46.4352 C40.6913,46.8672 40.3403,47.2182 39.9083,47.2182 M39.9083,44.0852 C38.6123,44.0852 37.5583,45.1392 37.5583,46.4352 C37.5583,47.7312 38.6123,48.7852 39.9083,48.7852 C41.2043,48.7852 42.2583,47.7312 42.2583,46.4352 C42.2583,45.1392 41.2043,44.0852 39.9083,44.0852" id="Fill-23" fill="#233A44"></path>
                <path d="M6.2236,47.2182 C5.7916,47.2182 5.4406,46.8672 5.4406,46.4352 C5.4406,46.0032 5.7916,45.6512 6.2236,45.6512 C6.6556,45.6512 7.0066,46.0032 7.0066,46.4352 C7.0066,46.8672 6.6556,47.2182 6.2236,47.2182 M8.5736,46.4352 C8.5736,45.1392 7.5196,44.0852 6.2236,44.0852 C4.9276,44.0852 3.8736,45.1392 3.8736,46.4352 C3.8736,47.7312 4.9276,48.7852 6.2236,48.7852 C7.5196,48.7852 8.5736,47.7312 8.5736,46.4352" id="Fill-24" fill="#233A44"></path>
                <path d="M21.0293,4.456 C20.9593,4.456 20.9113,4.086 20.9113,3.805 C20.9113,2.069 22.3183,0.74 24.0543,0.74 C25.7913,0.74 27.1983,2.03 27.1983,3.766 C27.1983,4.048 27.1493,4.457 27.0803,4.457 L21.0293,4.457 L21.0293,4.456 Z" id="Fill-25" fill="#D9D9D9"></path>
                <polygon id="Fill-26" fill="#D9D9D9" points="27.0801 4.456 21.0291 4.456 19.3981 8.894 28.6161 8.894"></polygon>
                <path d="M20.4582,8.1546 L21.5462,5.1956 L26.5542,5.1956 L27.5782,8.1546 L20.4582,8.1546 Z M24.0542,1.4806 C25.4072,1.4806 26.4332,2.4386 26.4582,3.7166 L21.6522,3.7166 C21.6982,2.4556 22.7372,1.4806 24.0542,1.4806 L24.0542,1.4806 Z M29.3152,8.6526 L27.8682,4.4696 C27.9342,4.1966 27.9382,3.9156 27.9382,3.7656 C27.9382,1.6536 26.2322,-0.0004 24.0542,-0.0004 C21.8772,-0.0004 20.1712,1.6706 20.1712,3.8046 C20.1712,4.0596 20.1952,4.2766 20.2392,4.4616 L18.7032,8.6386 C18.6202,8.8666 18.6532,9.1196 18.7912,9.3176 C18.9302,9.5156 19.1562,9.6336 19.3982,9.6336 L28.6162,9.6336 C28.8542,9.6336 29.0792,9.5186 29.2182,9.3236 C29.3562,9.1276 29.3932,8.8786 29.3152,8.6526 L29.3152,8.6526 Z" id="Fill-27" fill="#322F31"></path>
                <path d="M16.969,16.2914 C16.843,16.2914 16.716,16.2594 16.6,16.1924 C16.246,15.9884 16.124,15.5354 16.329,15.1814 L17.496,13.1614 C17.7,12.8064 18.153,12.6854 18.506,12.8904 C18.86,13.0944 18.982,13.5474 18.777,13.9004 L17.61,15.9214 C17.473,16.1594 17.225,16.2914 16.969,16.2914" id="Fill-28" fill="#FBB30C"></path>
                <path d="M30.7121,16.2914 C30.4561,16.2914 30.2081,16.1594 30.0711,15.9214 L28.9041,13.9004 C28.7001,13.5464 28.8211,13.0944 29.1751,12.8904 C29.5281,12.6854 29.9801,12.8064 30.1851,13.1614 L31.3521,15.1814 C31.5561,15.5364 31.4351,15.9884 31.0811,16.1924 C30.9651,16.2594 30.8381,16.2914 30.7121,16.2914" id="Fill-29" fill="#FBB30C"></path>
                <path d="M24.054,16.2914 C23.645,16.2914 23.314,15.9604 23.314,15.5514 L23.314,13.3324 C23.314,12.9244 23.645,12.5924 24.054,12.5924 C24.463,12.5924 24.794,12.9244 24.794,13.3324 L24.794,15.5514 C24.794,15.9604 24.463,16.2914 24.054,16.2914" id="Fill-30" fill="#FBB30C"></path>
                <path d="M53.6297,16.375 C53.1797,16.375 52.7867,16.01 52.7867,15.532 C52.7867,15.054 53.1517,14.688 53.6297,14.688 C54.1077,14.688 54.4727,15.054 54.4727,15.532 C54.4727,16.01 54.0797,16.375 53.6297,16.375 L53.6297,16.375 Z M53.6297,13.564 C52.5337,13.564 51.6617,14.435 51.6617,15.532 C51.6617,16.628 52.5337,17.5 53.6297,17.5 C54.7257,17.5 55.5977,16.628 55.5977,15.532 C55.5977,14.435 54.6977,13.564 53.6297,13.564 L53.6297,13.564 Z M60.0957,23.123 L56.6097,18.568 C56.3847,18.259 55.9347,18.259 55.7107,18.568 L53.3487,21.661 L48.1757,14.913 C47.9507,14.604 47.5007,14.604 47.2757,14.913 L40.9777,23.151 L40.9777,11.877 L60.0957,11.877 L60.0957,23.123 Z M55.3167,24.247 L54.0517,22.617 L56.1597,19.861 L59.5057,24.247 L55.3167,24.247 Z M41.5407,24.247 L47.7257,16.178 L52.8987,22.954 L53.8827,24.247 L41.5407,24.247 Z M61.2207,24.753 L61.2207,11.314 C61.2207,11.005 60.9677,10.752 60.6587,10.752 L40.4157,10.752 C40.1067,10.752 39.8537,11.005 39.8537,11.314 L39.8537,24.809 C39.8537,25.512 40.7817,25.372 40.4157,25.372 L60.6587,25.372 C61.5017,25.372 61.1087,24.078 61.2207,24.753 L61.2207,24.753 Z" id="Fill-31" fill="#322F31"></path>
                <path d="M53.6297,16.375 C54.0797,16.375 54.4727,16.009 54.4727,15.532 C54.4727,15.054 54.1077,14.688 53.6297,14.688 C53.1517,14.688 52.7867,15.054 52.7867,15.532 C52.7867,16.009 53.1797,16.375 53.6297,16.375" id="Fill-32" fill="#FAA811"></path>
                <polygon id="Fill-33" fill="#D9D9D9" points="54.0654 22.6165 55.3304 24.2475 59.5194 24.2475 56.1744 19.8615"></polygon>
                <polygon id="Fill-34" fill="#D9D9D9" points="47.7396 16.1782 41.5546 24.2472 53.8966 24.2472 52.9126 22.9542"></polygon>
            </g>
        </g>
    </g>
</svg>