<?xml version="1.0" encoding="UTF-8"?>
<svg width="75px" height="60px" viewBox="0 0 75 60" version="1.1" xmlns="http://www.w3.org/2000/svg" xmlns:xlink="http://www.w3.org/1999/xlink">
    <!-- Generator: Sketch 47.1 (45422) - http://www.bohemiancoding.com/sketch -->
    <title>meeting</title>
    <desc>Created with Sketch.</desc>
    <defs></defs>
    <g id="Page-1" stroke="none" stroke-width="1" fill="none" fill-rule="evenodd">
        <g id="2-9-1-coworking-lviv" transform="translate(-148.000000, -4075.000000)" fill-rule="nonzero">
            <g id="meeting" transform="translate(148.000000, 4075.000000)">
                <polygon id="Shape" fill="#E8EAE9" points="56.2705797 37.7834783 6.02898551 36.5468116 2.31884058 43.3486957 56.2705797 43.3486957"></polygon>
                <path d="M19.7873913,13.6675362 C19.7873913,13.6675362 18.2414493,14.1313043 16.3863768,14.7497101 C14.5313043,15.3681159 11.4395652,16.6047826 10.8211594,16.913913 C10.2027536,17.2230435 10.0482609,18.9236232 9.89362319,19.8511594 C9.73898551,20.7786957 9.42985507,22.4791304 9.42985507,22.4791304 L10.6665217,36.0830435 L21.024058,36.855942 C21.024058,36.855942 20.7149275,23.252029 20.4056522,19.8511594 C20.0963768,16.4502899 19.7873913,13.6675362 19.7873913,13.6675362 Z" id="Shape" fill="#55C0EB"></path>
                <path d="M19.942029,9.33913043 C19.942029,9.33913043 19.942029,15.8318841 22.1062319,17.6869565 L23.4975362,21.3971014 L27.9805797,18.9236232 C27.9805797,18.9236232 28.1352174,15.6772464 28.2897101,14.5950725 C28.5988406,13.5128986 28.7534783,12.4308696 28.7534783,12.4308696 L29.9901449,6.09275362 C29.9902899,6.24724638 20.5604348,4.23768116 19.942029,9.33913043 Z" id="Shape" fill="#FFEDC0"></path>
                <path d="M28.1352174,12.5855072 L28.7536232,12.4308696 C28.7536232,12.4308696 29.0627536,11.3486957 29.5265217,10.5757971 C29.9902899,9.9573913 30.6086957,10.4211594 30.6086957,10.4211594 C30.6086957,10.4211594 32,7.79318841 31.5362319,5.01057971 C31.0724638,2.22797101 27.2076812,0.21826087 24.8888406,0.527536232 C22.4153623,0.836666667 20.5602899,2.53724638 19.6327536,4.39231884 C18.7052174,6.2473913 19.6327536,8.4115942 19.7873913,8.72086957 C19.942029,9.03014493 19.942029,9.33927536 19.942029,9.33927536 C19.942029,9.33927536 19.942029,8.87550725 20.2511594,8.56637681 C20.2511594,8.56637681 22.7246377,9.18478261 24.8888406,8.41173913 C27.0530435,7.63884058 27.0530435,7.63884058 27.0530435,7.63884058 C27.0530435,7.63884058 26.5892754,9.18478261 27.6714493,9.95768116 C28.1352174,10.2668116 28.2898551,10.7305797 28.2898551,11.3489855 L28.1352174,12.5855072 Z" id="Shape" fill="#344A5E"></path>
                <ellipse id="Oval" fill="#FFEDC0" transform="translate(29.505010, 11.480587) rotate(-65.569796) translate(-29.505010, -11.480587) " cx="29.5050098" cy="11.4805865" rx="1.85514222" ry="1"></ellipse>
                <path d="M28.2898551,14.4405797 C27.5169565,15.6772464 25.3526087,17.3778261 23.9613043,17.996087 C22.7246377,18.4598551 22.1062319,17.8414493 22.1062319,17.8414493 L22.8791304,20.0056522 C23.4975362,19.6965217 24.2704348,19.2327536 25.197971,18.3052174 C27.0531884,16.6047826 28.2898551,14.4405797 28.2898551,14.4405797 L28.2898551,14.4405797 Z" id="Shape" fill="#FFDA9E"></path>
                <polygon id="Shape" fill="#CED6E0" points="21.0242029 37.3197101 27.5169565 38.5565217 29.372029 19.542029 25.1981159 19.3873913 24.5797101 19.3873913 20.4057971 19.542029"></polygon>
                <g id="Group" transform="translate(21.739130, 19.130435)" fill="#DE4FBD">
                    <path d="M5.46855072,1.18449275 C5.46855072,1.18449275 4.07724638,3.50333333 3.9226087,4.43086957 C3.61347826,4.12173913 3.14971014,4.27623188 2.53130435,4.43086957 C2.53130435,4.43086957 1.91289855,1.49362319 0.057826087,0.566086957 L2.84043478,0.102318841 L3.45884058,0.102318841 L5.46855072,1.18449275 Z" id="Shape"></path>
                    <path d="M3.45898551,1.9573913 L3.76811594,4.43086957 C3.76811594,4.43086957 5.00478261,9.53231884 5.31405797,11.542029 C5.77782609,13.5517391 5.77782609,19.5807246 5.77782609,19.5807246 L0.831014493,19.1169565 C0.831014493,19.1169565 0.676376812,11.3875362 1.14014493,9.53246377 C1.44927536,7.6773913 2.37681159,4.43101449 2.37681159,4.43101449 L3.45898551,1.9573913 Z" id="Shape"></path>
                </g>
                <g id="Group" transform="translate(19.710145, 14.202899)" fill="#F3F3F3">
                    <path d="M8.57971014,0.237681159 C8.57971014,0.237681159 7.96130435,3.32942029 5.33333333,5.18449275 L9.04347826,7.50333333 L9.19811594,1.31971014 L8.57971014,0.237681159 Z" id="Shape"></path>
                    <path d="M2.39608696,3.48405797 L4.71492754,5.18449275 L0.695652174,7.50333333 L0.0772463768,0.0830434783 C0.231884058,0.237681159 1.62318841,2.86565217 2.39608696,3.48405797 Z" id="Shape"></path>
                </g>
                <path d="M21.0242029,39.1747826 C21.0242029,39.1747826 20.5604348,28.1989855 19.942029,25.1071014 C19.3236232,22.0152174 18.7053623,17.5321739 18.7053623,17.5321739 L19.3237681,16.9137681 L18.5507246,16.6047826 C18.5507246,16.6047826 19.3236232,14.1313043 20.2511594,12.8946377 C20.4057971,14.285942 20.8695652,15.8318841 21.4878261,16.913913 C21.4878261,20.3149275 21.4878261,25.7255072 22.1062319,27.8897101 C22.57,30.2086957 21.7971014,37.0105797 21.0242029,39.1747826 Z" id="Shape" fill="#8AD7F8"></path>
                <path d="M29.372029,13.3584058 C29.372029,13.3584058 32.1546377,13.8221739 33.7005797,14.4405797 C35.2465217,15.0589855 36.3285507,15.3681159 36.3285507,15.3681159 C36.3285507,15.3681159 36.7923188,15.3681159 37.256087,16.6047826 C37.7198551,17.8414493 38.6473913,23.5613043 38.9565217,24.6434783 C39.2656522,25.7256522 40.6569565,33.3004348 40.6569565,33.9188406 C40.5023188,34.5372464 39.2656522,37.3198551 32.9275362,38.8656522 C32.9275362,38.8656522 32.4637681,37.3197101 30.9178261,36.3921739 C29.2173913,35.4646377 28.2898551,35.9284058 28.2898551,35.9284058 L27.2076812,36.2375362 L29.372029,13.3584058 Z" id="Shape" fill="#55C0EB"></path>
                <path d="M32,18.9236232 C32,18.9236232 29.5265217,26.9623188 28.7536232,29.1265217 C27.9807246,31.4453623 26.5894203,38.5565217 26.5894203,38.5565217 C26.5894203,38.5565217 26.744058,37.6289855 26.5894203,35.3101449 C26.4347826,32.9913043 26.5894203,27.426087 26.744058,26.1894203 C26.8986957,24.9527536 27.9807246,18.9237681 28.1353623,17.3778261 C28.4444928,15.8318841 28.1353623,14.286087 28.1353623,14.286087 L28.1353623,14.286087 C28.29,13.8223188 28.4444928,13.203913 28.4444928,12.8947826 L28.5991304,13.0494203 C28.9082609,13.204058 29.2175362,13.0494203 29.5266667,12.7402899 C30.1450725,13.8224638 30.917971,16.6050725 30.917971,16.6050725 L30.2995652,17.6872464 L32,18.9236232 Z" id="Shape" fill="#8AD7F8"></path>
                <path d="M27.5169565,35.6192754 C27.5169565,35.6192754 27.6714493,35.6192754 27.5169565,35.6192754 C27.6715942,35.3101449 27.826087,35.3101449 27.9807246,35.1555072 C28.1353623,35.0008696 28.4444928,34.8463768 28.7536232,34.6917391 C29.0627536,34.5371014 29.372029,34.3826087 29.8357971,34.227971 C30.2995652,34.0733333 30.6086957,34.0733333 31.0724638,33.9188406 C31.2271014,33.9188406 31.5362319,33.7642029 31.6908696,33.7642029 C31.8455072,33.6095652 32.1546377,33.6095652 32.3092754,33.4550725 C32.7730435,33.145942 33.0821739,32.8366667 33.3914493,32.3728986 C33.546087,32.2182609 33.546087,31.9091304 33.546087,31.6 C33.546087,31.4453623 33.546087,31.2908696 33.546087,31.1362319 L33.546087,30.6724638 C33.3914493,29.5902899 33.3914493,28.5082609 33.3914493,27.426087 C33.3914493,26.9623188 33.3914493,26.343913 33.546087,25.8801449 C33.7007246,25.4163768 33.8552174,25.1072464 34.0098551,24.6434783 C34.6282609,23.0975362 34.9373913,22.17 34.9373913,22.17 C34.9373913,22.17 34.9373913,22.4791304 34.7827536,22.9428986 C34.6281159,23.4066667 34.4736232,24.0250725 34.1643478,24.797971 C34.1643478,24.9526087 34.0097101,25.2617391 34.0097101,25.4163768 C34.0097101,25.5710145 33.8550725,25.8801449 33.8550725,26.0347826 C33.7004348,26.4985507 33.7004348,26.9623188 33.7004348,27.426087 C33.7004348,27.8898551 33.7004348,28.5082609 33.7004348,28.972029 C33.7004348,29.4357971 33.8550725,30.0542029 33.8550725,30.517971 L33.8550725,30.9817391 C33.8550725,31.1363768 33.8550725,31.2908696 33.8550725,31.4455072 C33.8550725,31.7546377 33.7004348,32.063913 33.7004348,32.2184058 C33.3913043,32.6821739 32.9275362,33.145942 32.6182609,33.3005797 C32.4636232,33.4552174 32.1544928,33.6097101 31.9998551,33.6097101 C31.6907246,33.7643478 31.536087,33.7643478 31.2269565,33.7643478 C30.7631884,33.9189855 30.2994203,33.9189855 29.9902899,34.0734783 C29.5265217,34.2281159 29.2173913,34.2281159 28.9081159,34.3826087 C28.5989855,34.5372464 28.4443478,34.6917391 28.1352174,34.8463768 C27.826087,35.4646377 27.5169565,35.6192754 27.5169565,35.6192754 Z" id="Shape" fill="#4FB0E0"></path>
                <path d="M22.8792754,36.2376812 C22.8792754,36.2376812 23.033913,37.3198551 24.4252174,37.9381159 C25.8165217,38.5565217 29.6813043,38.4018841 29.6813043,38.4018841 C29.6813043,38.4018841 28.29,35.9284058 27.3624638,35.4646377 C26.4349275,35.0008696 25.3527536,34.8462319 25.3527536,34.8462319 L22.8792754,36.2376812 Z" id="Shape" fill="#FFEDC0"></path>
                <path d="M25.5072464,36.5468116 L25.3526087,36.7014493 L25.3526087,36.7014493 L25.3526087,36.7014493 L25.3526087,36.856087 C25.197971,37.0107246 25.197971,37.1652174 25.0434783,37.3198551 L24.8888406,37.4744928 L24.7342029,37.4744928 L24.5795652,37.3198551 L24.5795652,37.1652174 C24.5795652,37.0105797 24.7342029,36.856087 24.7342029,36.7014493 L24.7342029,36.7014493 C24.7342029,36.7014493 24.7342029,36.7014493 24.7342029,36.5468116 L24.7342029,36.3921739 L24.7342029,36.0830435 L24.8888406,35.773913 L24.7342029,36.0830435 C24.5795652,36.3921739 24.2704348,36.7014493 24.1157971,36.855942 C23.9611594,37.0105797 23.9611594,37.1650725 23.8066667,37.3197101 C23.8066667,37.3197101 23.8066667,37.3197101 23.8066667,37.4743478 L23.8066667,37.4743478 C23.8066667,37.4743478 23.8066667,37.4743478 23.8066667,37.3197101 C23.9613043,37.1650725 23.9613043,37.0105797 24.1157971,36.855942 C24.2704348,36.7013043 24.4249275,36.5468116 24.5795652,36.3921739 L24.5795652,36.3921739 L24.5795652,36.3921739 L24.5795652,36.3921739 C24.4249275,36.5468116 24.4249275,36.7013043 24.4249275,37.0105797 C24.4249275,37.1652174 24.4249275,37.1652174 24.4249275,37.3197101 L24.4249275,37.3197101 L24.4249275,37.3197101 L24.4249275,37.3197101 L24.4249275,37.3197101 L24.4249275,37.3197101 L24.4249275,37.3197101 L24.4249275,37.3197101 L24.4249275,37.3197101 L24.4249275,37.3197101 L24.4249275,37.3197101 L24.5795652,37.3197101 C24.7342029,37.3197101 24.8886957,37.3197101 24.8886957,37.3197101 C25.0433333,37.3197101 25.0433333,37.1650725 25.1978261,37.1650725 C25.3524638,37.0104348 25.5069565,36.855942 25.5069565,36.7013043 L25.5069565,36.5468116 L25.5072464,36.5468116 L25.5072464,36.5468116 C25.5072464,36.7014493 25.6618841,36.7014493 25.5072464,36.5468116 C25.9710145,36.3921739 26.1256522,36.2376812 26.4347826,35.9284058 L26.8985507,35.9284058 C27.0531884,35.9284058 27.0531884,35.9284058 27.2076812,35.9284058 L27.3623188,35.9284058 L27.3623188,35.9284058 C27.3623188,35.9284058 27.3623188,36.0830435 27.2076812,36.0830435 L27.2076812,36.2376812 L27.2076812,36.3923188 C27.2076812,36.3923188 27.2076812,36.3923188 27.2076812,36.5469565 C27.0530435,36.856087 27.0530435,37.0107246 26.8985507,37.3198551 L26.8985507,37.3198551 L26.8985507,37.3198551 C26.8985507,37.3198551 26.8985507,37.3198551 27.0531884,37.3198551 L27.2078261,37.3198551 C27.3624638,37.3198551 27.3624638,37.3198551 27.5169565,37.3198551 L27.6715942,37.3198551 L27.826087,37.3198551 L27.9807246,37.3198551 L27.9807246,37.3198551 L27.9807246,37.3198551 C28.1353623,37.1652174 28.1353623,37.1652174 28.2898551,37.0107246 C28.2898551,36.856087 28.4444928,36.856087 28.4444928,36.7015942 C28.4444928,36.8562319 28.4444928,37.0107246 28.4444928,37.0107246 C28.4444928,37.1653623 28.4444928,37.1653623 28.4444928,37.3198551 L28.4444928,37.4744928 L28.4444928,37.6291304 L28.4444928,37.7837681 L28.4444928,37.9384058 L28.4444928,38.0930435 C28.4444928,38.0930435 28.4444928,38.0930435 28.4444928,38.2476812 C28.4444928,38.2476812 28.4444928,38.2476812 28.5991304,38.4023188 C28.5991304,38.4023188 28.5991304,38.4023188 28.7537681,38.5569565 C28.7537681,38.5569565 28.7537681,38.5569565 28.9084058,38.7115942 L29.0630435,38.7115942 L29.0630435,38.7115942 L28.9084058,38.7115942 C28.9084058,38.7115942 28.9084058,38.7115942 28.7537681,38.5569565 C28.7537681,38.5569565 28.7537681,38.5569565 28.5991304,38.4023188 C28.5991304,38.4023188 28.5991304,38.4023188 28.4444928,38.2476812 C28.4444928,38.2476812 28.4444928,38.2476812 28.4444928,38.0930435 L28.4444928,37.9384058 L28.4444928,37.7837681 L28.4444928,37.6291304 L28.4444928,37.4744928 L28.4444928,37.3198551 C28.4444928,37.1652174 28.4444928,37.1652174 28.4444928,37.0107246 C28.4444928,36.856087 28.4444928,36.7015942 28.4444928,36.5469565 L28.4444928,36.3923188 L28.2898551,36.5469565 C28.2898551,36.7015942 28.1352174,36.856087 27.9807246,37.0107246 C27.826087,37.1653623 27.826087,37.3198551 27.6715942,37.3198551 L27.6715942,37.3198551 L27.6715942,37.3198551 C27.6715942,37.3198551 27.6715942,37.3198551 27.5169565,37.3198551 C27.5169565,37.3198551 27.5169565,37.3198551 27.3623188,37.3198551 C27.3623188,37.3198551 27.3623188,37.3198551 27.2076812,37.3198551 L27.0530435,37.3198551 C27.0530435,37.3198551 27.0530435,37.3198551 26.8984058,37.3198551 L26.8984058,37.3198551 C27.0530435,37.0107246 27.2075362,36.856087 27.2075362,36.5469565 C27.2075362,36.5469565 27.2075362,36.5469565 27.2075362,36.3923188 L27.2075362,36.2376812 L27.2075362,36.0830435 C27.2075362,36.0830435 27.2075362,35.9284058 27.3621739,35.9284058 C27.3621739,35.9284058 27.3621739,35.9284058 27.3621739,35.7737681 L27.3621739,35.6191304 L27.3621739,35.6191304 L26.1255072,35.6191304 C25.9708696,35.7737681 25.9708696,35.7737681 25.8163768,35.9282609 C25.8163768,36.2376812 25.6618841,36.3921739 25.5072464,36.5468116 Z" id="Shape" fill="#F7B64C"></path>
                <path d="M40.9662319,38.7110145 L39.7295652,39.483913 C39.7295652,39.483913 37.5653623,37.6288406 38.0291304,35.9284058 C38.4927536,34.227971 41.7391304,36.2376812 40.9662319,38.7110145 Z" id="Shape" fill="#344A5E"></path>
                <path d="M54.57,32.3728986 C54.57,32.3728986 51.4782609,34.5371014 51.3236232,35.1555072 C51.1689855,35.9284058 51.1689855,36.0830435 50.5507246,36.5468116 C49.9323188,37.0105797 48.6956522,37.3197101 48.6956522,37.3197101 C48.6956522,37.3197101 48.8502899,37.7834783 47.9227536,38.0926087 C46.9952174,38.4017391 39.884058,39.3292754 39.884058,39.3292754 C39.884058,39.3292754 41.2753623,38.0926087 40.8115942,37.3195652 C40.3478261,36.392029 36.6376812,35.3098551 36.6376812,35.3098551 C36.6376812,35.3098551 37.8743478,34.5369565 39.4202899,34.3823188 C40.9662319,34.0731884 41.7391304,33.6094203 42.2028986,33.6094203 C42.6666667,33.6094203 43.5942029,32.5272464 44.2126087,31.9089855 C44.9855072,31.2905797 46.0676812,29.8992754 46.0676812,29.8992754 L50.86,22.0152174 L54.57,32.3728986 Z" id="Shape" fill="#415A6B"></path>
                <path d="M52.5604348,26.9623188 C51.0144928,26.8076812 49.6231884,26.8076812 48.0773913,26.8076812 L46.2223188,30.054058 C46.2223188,30.054058 45.1401449,31.4453623 44.3672464,32.0637681 C44.2126087,32.2184058 44.2126087,32.2184058 44.0581159,32.3728986 C46.0678261,32.5275362 47.9228986,32.3728986 49.777971,31.9091304 C50.2417391,31.7544928 50.8601449,31.6 51.323913,31.9091304 C51.6330435,32.2182609 51.7876812,32.682029 51.7876812,32.9913043 C51.7876812,33.4550725 51.9423188,33.9188406 51.9423188,34.3826087 C52.8698551,33.4550725 54.4157971,32.3728986 54.4157971,32.3728986 L52.5604348,26.9623188 Z" id="Shape" fill="#2D4354"></path>
                <path d="M43.4395652,6.40188406 L43.1304348,7.94782609 C43.1304348,7.94782609 42.9757971,9.18449275 43.1304348,9.49376812 C43.2850725,9.80304348 44.057971,10.2666667 44.057971,10.575942 C44.057971,10.8852174 43.4395652,12.8947826 43.4395652,12.8947826 C43.4395652,12.8947826 43.2849275,13.6676812 44.3671014,13.6676812 C44.3671014,13.6676812 44.057971,14.9043478 44.6762319,14.7498551 C44.6762319,14.7498551 44.3671014,15.0589855 44.6762319,15.3682609 C44.9853623,15.6775362 45.14,16.6049275 45.14,17.0686957 C44.9853623,17.5324638 46.2221739,17.8415942 47.3042029,17.5324638 C48.5408696,17.2233333 49.4684058,16.7595652 49.4684058,16.7595652 C49.4684058,16.7595652 51.3234783,18.9237681 52.8694203,19.3875362 C54.5698551,19.6966667 54.5698551,19.6966667 54.5698551,19.6966667 L58.5891304,14.286087 C58.5891304,14.286087 56.8886957,11.8126087 56.5794203,9.95753623 C56.5797101,8.25695652 45.2946377,5.62898551 43.4395652,6.40188406 Z" id="Shape" fill="#FFEDC0"></path>
                <path d="M49.6231884,16.913913 C49.6231884,16.913913 50.396087,17.8414493 51.4782609,18.6143478 C52.4057971,16.6046377 52.8695652,13.5128986 52.8695652,13.5128986 C51.6328986,15.3681159 49.6231884,16.913913 49.6231884,16.913913 Z" id="Shape" fill="#FFDA9E"></path>
                <path d="M74.2028986,45.6675362 L64.3091304,45.6675362 L54.57,45.6675362 C54.57,45.6675362 55.8066667,38.4018841 52.7149275,32.5273913 C50.8598551,28.5081159 50.7052174,23.5611594 51.1689855,21.8607246 C51.6327536,20.0056522 58.4346377,12.2762319 58.4346377,12.2762319 C58.4346377,12.4308696 59.6713043,13.0491304 59.6713043,13.0491304 C59.6713043,13.0491304 60.907971,12.8944928 62.9176812,14.1313043 C64.9273913,15.367971 68.6375362,19.8511594 69.2557971,22.4791304 C69.8742029,24.9526087 70.337971,30.5178261 70.6471014,32.8366667 C70.9562319,35.1555072 71.42,36.2376812 71.5746377,37.3197101 C71.5746377,38.4018841 71.5746377,38.7110145 72.0384058,39.1747826 C72.3478261,39.484058 74.3575362,43.3486957 74.2028986,45.6675362 Z" id="Shape" fill="#344A5E"></path>
                <path d="M51.6328986,29.2811594 C51.6328986,29.2811594 51.0144928,23.4068116 52.2513043,21.087971 C53.487971,18.9237681 57.5073913,13.6676812 58.8986957,12.5855072 L57.3527536,11.0395652 C57.3527536,11.0395652 56.116087,12.2762319 55.1885507,13.3584058 C54.2610145,14.4405797 53.1788406,15.8318841 52.405942,17.6869565 C51.4784058,19.6966667 50.7055072,20.7786957 50.5508696,23.0975362 C50.396087,25.2617391 51.6328986,29.2811594 51.6328986,29.2811594 Z" id="Shape" fill="#415A6B"></path>
                <path d="M33.7004348,30.054058 C33.7004348,30.054058 30.9178261,29.2811594 29.9902899,29.1265217 C29.0627536,28.9718841 28.7536232,28.9718841 28.2898551,29.2811594 C27.6714493,29.5902899 27.0531884,29.7449275 25.1981159,29.7449275 C23.3430435,29.7449275 22.5701449,29.5902899 22.5701449,29.5902899 C22.5701449,29.5902899 21.6426087,29.8994203 21.3334783,30.054058 L20.8697101,30.6724638 C20.8697101,30.6724638 21.1788406,31.6 20.405942,31.4453623 L20.0968116,30.9815942 C20.0968116,30.9815942 19.7876812,30.6724638 19.9421739,30.3631884 C20.0966667,30.053913 20.2513043,29.2810145 20.405942,29.1265217 C20.5605797,28.9718841 21.6426087,28.5081159 21.6426087,28.5081159 L21.487971,28.3534783 C21.487971,28.3534783 20.5604348,28.5081159 20.0966667,28.5081159 L19.942029,28.6627536 C19.942029,28.6627536 20.2511594,28.8173913 20.2511594,29.1265217 C20.2511594,29.2811594 19.942029,29.8994203 19.942029,29.8994203 C19.942029,29.8994203 19.3236232,29.7447826 19.1691304,29.4356522 C19.0144928,29.1265217 18.3962319,25.7255072 18.3962319,25.7255072 C18.3962319,25.7255072 19.0146377,25.2617391 19.6328986,25.2617391 C20.2513043,25.1071014 21.0242029,25.1071014 21.487971,24.9526087 C21.9517391,24.797971 23.033913,24.6434783 23.6521739,24.797971 C24.2705797,24.9526087 26.5894203,25.5708696 26.8985507,25.5708696 C27.2076812,25.5708696 32.3091304,25.7255072 32.3091304,25.7255072 L33.7004348,30.054058 Z" id="Shape" fill="#FFEDC0"></path>
                <g id="Group" transform="translate(18.260870, 25.362319)" fill="#F7B64C">
                    <path d="M0.135217391,2.06376812 L0.135217391,2.06376812 C0.289855072,1.90913043 0.444347826,1.90913043 0.598985507,1.90913043 C0.753623188,1.90913043 0.908115942,1.75449275 1.06275362,1.75449275 C1.2173913,1.75449275 1.37188406,1.75449275 1.68115942,1.59985507 C1.99028986,1.59985507 2.45405797,1.59985507 2.76333333,1.44521739 C3.07246377,1.44521739 3.22710145,1.44521739 3.22710145,1.44521739 C3.22710145,1.44521739 3.22710145,1.44521739 3.07246377,1.44521739 C2.91782609,1.44521739 2.91782609,1.44521739 2.76333333,1.59985507 C2.60869565,1.59985507 2.4542029,1.59985507 2.29956522,1.75449275 C2.14492754,1.75449275 1.99043478,1.75449275 1.68115942,1.75449275 C1.37188406,1.75449275 0.90826087,1.90913043 0.598985507,1.90913043 C0.289855072,1.90913043 0.135217391,2.06376812 0.135217391,2.06376812 Z" id="Shape"></path>
                    <path d="M3.22710145,0.054057971 L3.22710145,0.054057971 C3.07246377,0.054057971 2.91797101,0.208695652 2.76333333,0.208695652 C2.60869565,0.208695652 2.4542029,0.363333333 2.29956522,0.363333333 C2.14492754,0.363333333 1.8357971,0.363333333 1.68115942,0.363333333 C1.52652174,0.363333333 1.52652174,0.363333333 1.37202899,0.363333333 C1.2173913,0.363333333 1.2173913,0.363333333 1.06289855,0.363333333 C0.90826087,0.363333333 0.753768116,0.363333333 0.599130435,0.517971014 C0.29,0.672608696 0.135362319,0.672608696 0.135362319,0.672608696 C0.135362319,0.672608696 0.135362319,0.672608696 0.29,0.672608696 C0.444637681,0.672608696 0.444637681,0.517971014 0.599130435,0.517971014 C0.753768116,0.517971014 0.90826087,0.363333333 1.06289855,0.363333333 C1.21753623,0.363333333 1.21753623,0.363333333 1.37202899,0.363333333 C1.52652174,0.363333333 1.52666667,0.363333333 1.68115942,0.363333333 C1.83565217,0.363333333 1.8357971,0.363333333 1.99028986,0.363333333 C2.14478261,0.363333333 2.14492754,0.363333333 2.29942029,0.363333333 C2.45391304,0.363333333 2.60855072,0.363333333 2.76318841,0.363333333 C2.91782609,0.208695652 3.07246377,0.208695652 3.22710145,0.054057971 L3.22710145,0.054057971 Z" id="Shape"></path>
                </g>
                <path d="M31.8453623,25.1072464 C31.8453623,25.1072464 33.7004348,31.7546377 33.082029,32.3728986 C33.082029,32.3728986 33.3911594,32.5275362 34.1642029,32.3728986 C34.9371014,32.2182609 38.0289855,31.9091304 38.9565217,31.9091304 C39.884058,31.9091304 47.1497101,31.2907246 49.9323188,30.8269565 C52.7149275,30.3631884 58.743913,27.8897101 59.6714493,27.425942 C60.4443478,27.1168116 64.4637681,26.4984058 65.2366667,24.3342029 C66.0095652,22.3244928 65.7004348,17.996087 64.4637681,15.9863768 C63.2271014,13.9766667 60.2898551,12.5853623 58.8985507,13.3584058 C57.3526087,14.1313043 55.0337681,16.2956522 54.8792754,19.8511594 C54.8792754,19.8511594 54.8792754,20.4695652 54.4155072,20.7786957 C53.9517391,21.0878261 50.86,22.3246377 49.9324638,23.0975362 C49.0049275,23.8704348 48.3865217,24.3342029 47.9227536,24.1797101 C47.3043478,24.0250725 47.1498551,23.8705797 45.7585507,23.8705797 C44.2126087,24.0252174 41.2755072,24.4889855 39.2657971,24.7981159 C36.9468116,25.1072464 31.8453623,25.1072464 31.8453623,25.1072464 Z" id="Shape" fill="#415A6B"></path>
                <path d="M32.3091304,38.7110145 L17.4685507,37.0105797 L16.2318841,39.7931884 C14.9952174,39.9478261 31.6908696,39.3294203 32.3091304,38.7110145 Z" id="Shape" fill="#CED6E0"></path>
                <path d="M20.4057971,39.7931884 L21.0242029,39.3294203 L32.3092754,38.8656522 C32.3092754,38.8656522 32.463913,39.7931884 31.5363768,40.1023188 C30.6088406,40.4114493 20.8697101,41.3389855 20.8697101,41.3389855 L20.4057971,39.7931884 Z" id="SVGCleanerId_0" fill="#415A6B"></path>
                <path d="M3.24637681,37.3197101 L20.8695652,39.1747826 L20.7149275,41.0298551 L4.01927536,39.1747826 C3.86463768,39.1747826 3.71014493,39.0201449 3.55550725,38.8656522 L3.24637681,37.3197101 Z" id="SVGCleanerId_1" fill="#344A5E"></path>
                <path d="M0,21.8608696 C0,21.8608696 0.309130435,21.2424638 1.39130435,21.2424638 C2.31884058,21.2424638 18.0869565,22.4791304 18.0869565,22.4791304 C18.0869565,22.4791304 18.7053623,22.4791304 18.8598551,23.4066667 C19.1691304,24.6434783 21.3333333,38.5565217 21.3333333,39.0202899 C21.3333333,39.484058 20.8695652,39.484058 20.4057971,39.6386957 C19.942029,39.7933333 3.55550725,37.7836232 3.55550725,37.7836232 C3.24637681,37.6289855 3.09173913,37.7836232 2.7826087,36.7014493 C2.31884058,34.8463768 0,21.8608696 0,21.8608696 Z" id="SVGCleanerId_2" fill="#344A5E"></path>
                <path d="M0,22.0153623 C0,22.0153623 0,21.3969565 0.927536232,21.3969565 C1.85507246,21.3969565 17.4685507,22.6336232 17.4685507,22.6336232 C17.4685507,22.6336232 18.0869565,22.6336232 18.2414493,23.5611594 C18.5505797,24.7978261 21.1786957,38.5563768 21.1786957,39.0201449 C21.1786957,39.483913 20.7149275,39.483913 20.2511594,39.483913 C19.7873913,39.6385507 3.55550725,37.6288406 3.55550725,37.6288406 C3.24637681,37.4742029 3.09173913,37.6288406 2.7826087,36.5466667 C2.1642029,35.0008696 0,22.0153623 0,22.0153623 Z" id="SVGCleanerId_3" fill="#415A6B"></path>
                <path d="M50.7053623,11.8124638 L51.6328986,11.8124638 C51.6328986,11.8124638 51.4782609,10.5757971 52.4057971,9.80275362 C53.1786957,9.02985507 53.9517391,9.18434783 54.4155072,9.64811594 C54.5701449,9.95724638 55.1884058,10.7302899 55.4976812,11.194058 C55.6523188,11.5031884 56.116087,11.5031884 56.2705797,11.3486957 L57.1981159,10.8849275 C57.1981159,10.8849275 57.0434783,9.33898551 57.1981159,8.41144928 C57.3527536,7.48391304 57.3527536,2.6915942 53.6426087,0.836521739 C49.9324638,-1.17318841 45.2947826,1.60942029 43.9034783,2.22782609 C42.5121739,2.84623188 41.8937681,3.61913043 41.8937681,5.4742029 C41.8937681,6.71086957 43.2850725,7.94768116 43.4397101,7.94768116 C43.5943478,7.94768116 44.8310145,8.41144928 46.8407246,8.10231884 C48.8504348,7.79318841 49.6233333,7.63855072 50.0871014,8.87521739 C50.7053623,10.112029 50.7053623,11.8124638 50.7053623,11.8124638 Z" id="Shape" fill="#6B4E41"></path>
                <path d="M32.3091304,38.7110145 L17.4685507,37.0105797 L16.2318841,39.7931884 C14.9952174,39.9478261 31.6908696,39.3294203 32.3091304,38.7110145 Z" id="Shape" fill="#344A5E"></path>
                <path d="M20.4057971,39.7931884 L21.0242029,39.3294203 L32.3092754,38.8656522 C32.3092754,38.8656522 32.463913,39.7931884 31.5363768,40.1023188 C30.6088406,40.4114493 20.8697101,41.3389855 20.8697101,41.3389855 L20.4057971,39.7931884 Z" id="SVGCleanerId_0_1_" fill="#415A6B"></path>
                <path d="M3.24637681,37.3197101 L20.8695652,39.1747826 L20.7149275,41.0298551 L4.01927536,39.1747826 C3.86463768,39.1747826 3.71014493,39.0201449 3.55550725,38.8656522 L3.24637681,37.3197101 Z" id="SVGCleanerId_1_1_" fill="#344A5E"></path>
                <path d="M0,21.8608696 C0,21.8608696 0.309130435,21.2424638 1.39130435,21.2424638 C2.31884058,21.2424638 18.0869565,22.4791304 18.0869565,22.4791304 C18.0869565,22.4791304 18.7053623,22.4791304 18.8598551,23.4066667 C19.1691304,24.6434783 21.3333333,38.5565217 21.3333333,39.0202899 C21.3333333,39.484058 20.8695652,39.484058 20.4057971,39.6386957 C19.942029,39.7933333 3.55550725,37.7836232 3.55550725,37.7836232 C3.24637681,37.6289855 3.09173913,37.7836232 2.7826087,36.7014493 C2.31884058,34.8463768 0,21.8608696 0,21.8608696 Z" id="SVGCleanerId_2_1_" fill="#344A5E"></path>
                <path d="M0,22.0153623 C0,22.0153623 0,21.3969565 0.927536232,21.3969565 C1.85507246,21.3969565 17.4685507,22.6336232 17.4685507,22.6336232 C17.4685507,22.6336232 18.0869565,22.6336232 18.2414493,23.5611594 C18.5505797,24.7978261 21.1786957,38.5563768 21.1786957,39.0201449 C21.1786957,39.483913 20.7149275,39.483913 20.2511594,39.483913 C19.7873913,39.6385507 3.55550725,37.6288406 3.55550725,37.6288406 C3.24637681,37.4742029 3.09173913,37.6288406 2.7826087,36.5466667 C2.1642029,35.0008696 0,22.0153623 0,22.0153623 Z" id="SVGCleanerId_3_1_" fill="#415A6B"></path>
                <g id="Group" transform="translate(33.478261, 8.405797)">
                    <ellipse id="Oval" fill="#FFDA9E" transform="translate(19.716640, 2.166635) rotate(-75.427337) translate(-19.716640, -2.166635) " cx="19.7166399" cy="2.16663455" rx="1.85501625" ry="1.0819962"></ellipse>
                    <path d="M7.17869565,29.996087 L7.17869565,29.996087 C6.4057971,30.3052174 5.63275362,30.7689855 5.47826087,30.7689855 C5.16913043,30.9236232 5.32362319,30.9236232 4.70536232,31.2327536 C4.2415942,31.5418841 2.69565217,31.2327536 2.69565217,31.2327536 C2.54101449,31.3873913 1.61347826,31.2327536 1.45898551,31.0781159 C1.30434783,31.0781159 1.14985507,30.9234783 0.995217391,30.7689855 C0.84057971,30.6143478 0.0676811594,29.6868116 0.0676811594,29.3776812 C0.0676811594,29.0685507 0.222318841,28.6047826 0.222318841,28.2955072 C0.222318841,28.1408696 0.222318841,27.8317391 0.222318841,27.5226087 C0.222318841,27.367971 0.686086957,27.0588406 0.686086957,26.9042029 C0.686086957,26.7495652 0.531449275,26.4404348 0.686086957,26.1313043 C0.840724638,25.8221739 1.14985507,25.6675362 1.30449275,25.6675362 C1.45913043,25.6675362 1.61362319,25.5128986 1.61362319,25.5128986 C1.61362319,25.3582609 1.61362319,25.3582609 1.76826087,25.0491304 C1.92289855,24.74 2.6957971,24.74 3.15956522,25.0491304 C3.62333333,25.3582609 4.70550725,25.822029 4.70550725,25.822029 C4.70550725,25.822029 4.86014493,25.822029 5.01463768,25.822029 C5.16927536,25.822029 5.32376812,25.822029 5.63304348,25.9766667 C6.09681159,26.1313043 6.09681159,26.4404348 6.25144928,27.0588406 C6.25144928,27.6772464 6.56057971,27.8317391 6.56057971,27.8317391 L6.56057971,27.8317391 L6.56057971,27.8317391 C6.56057971,27.8317391 6.71521739,27.9863768 6.86971014,27.9863768 L6.86971014,27.9863768 C7.17884058,28.1410145 7.33347826,28.2955072 7.33347826,28.4501449 C7.48797101,29.3776812 7.33333333,29.6869565 7.17869565,29.996087 Z" id="Shape" fill="#FFEDC0"></path>
                </g>
                <g id="Group" transform="translate(34.347826, 34.057971)" fill="#F7B64C">
                    <path d="M3.52652174,0.633768116 C3.52652174,0.633768116 3.2173913,0.633768116 2.90811594,0.633768116 C2.59884058,0.633768116 2.59898551,1.09753623 2.59898551,1.25217391 C2.59898551,1.56130435 2.90811594,1.87057971 3.2173913,2.02507246 C3.37202899,2.17971014 3.52652174,2.17971014 3.99028986,2.3342029 C4.45405797,2.48884058 4.45405797,2.48884058 4.45405797,2.48884058 C4.14492754,2.48884058 3.83565217,2.3342029 3.37188406,2.17971014 C3.37188406,2.17971014 3.06275362,2.02507246 2.75347826,1.71594203 C2.44434783,1.40681159 2.44434783,1.25217391 2.44434783,0.943043478 C2.44434783,0.633913043 2.44434783,0.633913043 2.28971014,0.324637681 C2.13507246,0.0153623188 2.28971014,0.0155072464 2.44434783,0.17 C2.59898551,0.324637681 2.59898551,0.324637681 2.59898551,0.479130435 C2.59898551,0.479130435 2.59898551,0.324492754 2.59898551,0.0153623188 C2.59898551,0.0153623188 2.90811594,0.17 3.06275362,0.479130435 C2.90826087,0.633768116 3.37202899,0.479130435 3.52652174,0.633768116 Z" id="Shape"></path>
                    <path d="M3.37202899,2.17971014 C3.68115942,2.33434783 3.8357971,2.48884058 3.99043478,2.79811594 C4.14507246,3.10724638 4.14507246,3.41652174 3.8357971,3.72565217 L3.8357971,3.57101449 C3.99043478,3.88014493 3.8357971,4.18942029 3.68115942,4.34391304 C3.52652174,4.49855072 3.2173913,4.65304348 3.06275362,4.65304348 L3.06275362,4.65304348 C2.90811594,5.11681159 2.59898551,5.27144928 2.13521739,5.27144928 L2.13521739,5.27144928 C2.13521739,5.42608696 1.98057971,5.58057971 1.82608696,5.73521739 C1.98072464,5.58057971 2.13521739,5.42608696 2.13521739,5.27144928 L2.13521739,5.27144928 L2.13521739,5.27144928 C2.44434783,5.27144928 2.90811594,4.96231884 2.90811594,4.65304348 L2.90811594,4.65304348 L2.90811594,4.65304348 C3.06275362,4.65304348 3.37188406,4.4984058 3.52652174,4.34391304 C3.68115942,4.18927536 3.68115942,3.88014493 3.68115942,3.72550725 L3.68115942,3.72550725 L3.68115942,3.72550725 C3.8357971,3.57086957 3.8357971,3.26173913 3.8357971,2.9526087 C3.8357971,2.64347826 3.52652174,2.3342029 3.37202899,2.17971014 Z" id="Shape"></path>
                    <path d="M3.8357971,3.57101449 C3.8357971,3.57101449 3.52666667,3.88014493 3.2173913,3.57101449 C2.75362319,3.41637681 2.28985507,3.10724638 1.98072464,2.64347826 C1.82608696,2.48884058 1.6715942,2.17971014 1.51695652,2.02507246 C1.36231884,1.87043478 1.20782609,1.56130435 1.05318841,1.40666667 C0.898550725,0.942898551 1.05318841,0.633768116 1.05318841,0.633768116 C1.05318841,0.633768116 1.05318841,0.942898551 1.20782609,1.25217391 C1.20782609,1.40681159 1.51695652,1.56130435 1.6715942,1.87057971 C1.82623188,2.02521739 1.98072464,2.33434783 2.13536232,2.48898551 C2.44449275,2.95275362 2.90826087,3.26188406 3.37202899,3.41652174 C3.52652174,3.88014493 3.8357971,3.72550725 3.8357971,3.57101449 Z" id="Shape"></path>
                    <path d="M3.06275362,4.49855072 C3.06275362,4.49855072 2.75362319,4.49855072 2.44434783,4.49855072 C2.13521739,4.34391304 1.67144928,4.03478261 1.36217391,3.72565217 C1.20753623,3.57101449 0.898405797,3.41652174 0.898405797,3.26188406 C0.743768116,3.10724638 0.589275362,2.79811594 0.589275362,2.64347826 C0.434637681,2.33434783 0.280144928,2.02507246 0.280144928,2.02507246 C0.280144928,2.02507246 0.434782609,2.17971014 0.589275362,2.48884058 C0.743913043,2.64347826 0.743913043,2.79797101 0.898405797,3.10724638 C1.05304348,3.26188406 1.20753623,3.41637681 1.36217391,3.57101449 C1.82594203,3.88014493 2.13507246,4.18942029 2.44434783,4.34391304 C2.90826087,4.65304348 3.06275362,4.49855072 3.06275362,4.49855072 Z" id="Shape"></path>
                    <path d="M2.28985507,5.11681159 C2.28985507,5.11681159 2.13521739,5.11681159 1.82608696,5.11681159 C1.51695652,5.11681159 1.20768116,5.11681159 0.898550725,4.80768116 C0.58942029,4.49855072 0.434782609,4.18927536 0.280144928,3.88014493 C0.125507246,3.57101449 0.125507246,3.41637681 0.125507246,3.41637681 C0.125507246,3.41637681 0.280144928,3.57101449 0.434637681,3.72550725 C0.589275362,3.88014493 0.743768116,4.34391304 1.05304348,4.4984058 C1.36217391,4.80753623 1.67144928,4.80753623 1.98057971,4.80753623 C2.13521739,5.11681159 2.28985507,5.11681159 2.28985507,5.11681159 Z" id="Shape"></path>
                </g>
                <path d="M32.3091304,37.6289855 C31.2269565,38.7111594 29.6811594,38.8656522 28.9081159,38.5565217 C28.1352174,38.0927536 28.1352174,36.7014493 28.1352174,36.7014493 C28.1352174,36.7014493 27.826087,37.1652174 27.5168116,37.4743478 C27.2076812,37.7834783 26.743913,37.4743478 26.743913,37.4743478 C26.743913,37.4743478 27.0530435,36.855942 27.2076812,36.5468116 C27.2076812,36.2376812 27.3623188,36.0830435 27.5168116,35.9284058 L27.5168116,35.7737681 C27.5168116,35.7737681 27.3621739,35.7737681 27.2076812,35.7737681 C26.8985507,35.7737681 26.5892754,35.7737681 26.5892754,35.7737681 C26.5892754,35.7737681 25.6617391,36.7013043 25.5071014,36.855942 C25.3524638,37.0105797 24.8886957,37.9381159 24.4249275,37.6288406 C23.9611594,37.3197101 24.4249275,36.7013043 24.4249275,36.5466667 L24.5795652,36.0828986 C24.5795652,36.0828986 23.8066667,37.1650725 23.4973913,37.4742029 C23.3427536,37.7833333 22.8789855,38.2471014 22.4152174,37.937971 C22.106087,37.6288406 22.4152174,37.0104348 22.4152174,37.0104348 C22.4152174,37.0104348 21.9514493,37.7833333 21.6423188,37.3195652 C21.3331884,36.8557971 21.7969565,36.0828986 21.9514493,35.9282609 C22.106087,35.7736232 22.8789855,34.6915942 23.0336232,34.5369565 C23.1882609,34.3823188 23.1882609,34.2278261 23.4973913,34.2278261 C23.8065217,34.2278261 24.5795652,34.3824638 24.5795652,34.3824638 C24.5795652,34.3824638 24.5795652,34.3824638 24.8886957,34.3824638 C25.1978261,34.3824638 25.8162319,34.5371014 25.8162319,34.5371014 C25.8162319,34.5371014 25.9708696,34.227971 26.28,34.227971 C26.5891304,34.227971 26.8984058,34.6917391 27.0528986,35.0008696 C27.0528986,35.0008696 27.0528986,35.1555072 27.2075362,35.1555072 C27.3621739,35.3101449 27.825942,35.6192754 27.825942,35.6192754 C27.9805797,35.3101449 28.1350725,35.1555072 28.4443478,35.1555072 C28.7534783,35.1555072 28.9081159,35.6192754 28.9081159,35.6192754 C29.3718841,35.6192754 29.9902899,35.773913 30.7631884,36.2376812 C31.5362319,36.5468116 32,37.0105797 32.3091304,37.6289855 Z" id="Shape" fill="#FFEDC0"></path>
                <rect id="Rectangle-path" fill="#CED6E0" x="2.31884058" y="43.3486957" width="71.884058" height="16.5410145"></rect>
                <polygon id="Shape" fill="#E8EAE9" points="51.7873913 37.6289855 51.7873913 43.3486957 74.2028986 43.3486957 74.2028986 37.7834783"></polygon>
                <rect id="Rectangle-path" fill="#CED6E0" x="47.3043478" y="43.3486957" width="26.8985507" height="16.5410145"></rect>
            </g>
        </g>
    </g>
</svg>