<?xml version="1.0" encoding="UTF-8"?>
<svg width="70px" height="59px" viewBox="0 0 70 59" version="1.1" xmlns="http://www.w3.org/2000/svg" xmlns:xlink="http://www.w3.org/1999/xlink">
    <!-- Generator: Sketch 47.1 (45422) - http://www.bohemiancoding.com/sketch -->
    <title>nice-weather</title>
    <desc>Created with Sketch.</desc>
    <defs></defs>
    <g id="Page-1" stroke="none" stroke-width="1" fill="none" fill-rule="evenodd">
        <g id="2-5-pattaya-guest-houses" transform="translate(-157.000000, -3877.000000)" fill-rule="nonzero">
            <g id="nice-weather" transform="translate(157.000000, 3877.000000)">
                <ellipse id="Oval" fill="#FFBE26" cx="29.7568359" cy="30.644021" rx="17.0214844" ry="17.1623832"></ellipse>
                <path d="M15.5104688,30.644021 C15.5104688,21.6368715 22.3924805,14.251257 31.1438477,13.5391215 C30.6861133,13.5019019 30.223457,13.4820514 29.7562891,13.4820514 C20.355918,13.4820514 12.7353516,21.1656986 12.7353516,30.6438832 C12.7353516,40.1222056 20.355918,47.805715 29.7562891,47.805715 C30.2235938,47.805715 30.6861133,47.7860023 31.1438477,47.7486449 C22.3926172,47.036785 15.5104688,39.6511706 15.5104688,30.644021 Z" id="Shape" fill="#F99A25"></path>
                <path d="M59.5772461,36.6354159 C58.1114844,36.5480187 56.704375,36.750521 55.4037695,37.1880584 C54.9941602,37.325771 54.5472266,37.1688972 54.2869141,36.821514 C51.7830469,33.4802944 47.8102734,31.320729 43.3368359,31.320729 C36.5153906,31.320729 30.8594727,36.3423458 29.8007227,42.918778 C29.7405664,42.9173995 29.680957,42.914229 29.6203906,42.914229 C25.1748437,42.914229 21.5796875,46.5853248 21.6541992,51.084764 C21.727207,55.4893621 25.3823828,58.9807009 29.7515039,58.9807009 L58.9092383,58.9807009 C65.1967969,58.9807009 70.2623633,53.7053014 69.9894727,47.3047664 C69.7470703,41.6154019 65.2153906,36.9714953 59.5772461,36.6354159 Z" id="Shape" fill="#AAE8FF"></path>
                <path d="M24.4295898,51.0849019 C24.3550781,46.5854626 27.9502344,42.9143668 32.3957812,42.9143668 C32.4562109,42.9143668 32.515957,42.9176752 32.5761133,42.9189159 C33.5624023,36.792979 38.5381445,32.0183902 44.7286328,31.3926869 C44.2708984,31.3462313 43.8070117,31.3210047 43.3371094,31.3210047 C36.5156641,31.3210047 30.8597461,36.3426215 29.8009961,42.9190537 C29.7408398,42.9176752 29.6812305,42.9145047 29.6206641,42.9145047 C25.1751172,42.9145047 21.5799609,46.5856005 21.6544727,51.0850397 C21.7273437,55.4896379 25.3826562,58.9809766 29.7517773,58.9809766 L32.5270313,58.9809766 C28.1576367,58.9807009 24.5024609,55.4895 24.4295898,51.0849019 Z" id="Shape" fill="#6BD9FC"></path>
                <g id="Group" fill="#FFBE26">
                    <path d="M29.4851758,10.1201542 C29.395625,10.1201542 29.3048438,10.1084369 29.2143359,10.0838995 C28.6592578,9.93336682 28.3303125,9.35784112 28.4796094,8.79816822 L29.2039453,6.08182477 C28.9426758,5.99360047 28.7045117,5.83727804 28.5151563,5.62278271 C28.1580469,5.21819159 28.0257031,4.66375701 28.1607813,4.13964953 L29.0208789,0.804495327 C29.1656641,0.243719626 29.7337305,-0.092635514 30.2900391,0.0530724299 C30.8463477,0.198918224 31.1799414,0.771824766 31.035293,1.33273832 L30.3156055,4.12338318 C30.589043,4.20664486 30.838418,4.36558645 31.0339258,4.58890421 C31.3811914,4.9857757 31.5071094,5.52780374 31.3708008,6.03881542 L30.4896484,9.34309112 C30.3646875,9.81136916 29.9442773,10.1200164 29.4851758,10.1201542 Z" id="Shape"></path>
                    <path d="M14.8729492,16.4585187 C14.5129688,16.4585187 14.162832,16.2699393 13.970332,15.9328949 L12.5775781,13.4956986 C12.3308008,13.6196262 12.053125,13.6791776 11.7686133,13.662222 C11.2324023,13.6307921 10.7499219,13.3331729 10.4778516,12.8662734 L8.74726563,9.89463084 C8.45619141,9.3949229 8.62203125,8.75198832 9.11763672,8.45850467 C9.61337891,8.16502103 10.2510352,8.33223364 10.5419727,8.83194159 L11.9900977,11.3183505 C12.2419336,11.1822921 12.5298633,11.1163995 12.8244922,11.1354229 C13.3482617,11.1683692 13.8174805,11.4618528 14.0794336,11.9204813 L15.7736523,14.8852313 C16.060625,15.3872827 15.8894531,16.0289766 15.3913867,16.3183248 C15.2280078,16.4133037 15.0493164,16.4585187 14.8729492,16.4585187 Z" id="Shape"></path>
                    <path d="M4.49175781,31.6932009 C4.35681641,31.6932009 4.22078125,31.6759696 4.08666016,31.6408178 L0.779023437,30.7736005 C0.222714844,30.6277547 -0.110878906,30.0548481 0.0337695312,29.4939346 C0.178417969,28.9331589 0.746074219,28.5966659 1.30292969,28.7425117 L4.07066406,29.4681565 C4.15324219,29.1925935 4.31087891,28.9411542 4.53222656,28.744028 C4.92583984,28.3938879 5.46341797,28.2669276 5.97023437,28.4042266 L9.24751953,29.2928107 C9.80259766,29.4433435 10.131543,30.019007 9.98224609,30.5786799 C9.83294922,31.1383528 9.26201172,31.4697453 8.70693359,31.3194883 L6.01302734,30.5890187 C5.92539062,30.8524509 5.77048828,31.0925864 5.55775391,31.2835093 C5.25998047,31.5506636 4.8803125,31.6932009 4.49175781,31.6932009 Z" id="Shape"></path>
                    <path d="M53.9922852,31.6932009 C53.8573438,31.6932009 53.7213086,31.6759696 53.5873242,31.6408178 L50.2795508,30.7736005 C49.7232422,30.6277547 49.3896484,30.0548481 49.5342969,29.4939346 C49.6789453,28.9331589 50.2470117,28.5966659 50.803457,28.7425117 L53.5711914,29.4681565 C53.6537695,29.1925935 53.8114063,28.9411542 54.0327539,28.744028 C54.4263672,28.3938879 54.9639453,28.2669276 55.4707617,28.4042266 L58.7480469,29.2928107 C59.303125,29.4433435 59.6320703,30.019007 59.4827734,30.5786799 C59.3334766,31.1383528 58.7624023,31.4697453 58.2074609,31.3194883 L55.5135547,30.5890187 C55.425918,30.8524509 55.2710156,31.0925864 55.0582813,31.2835093 C54.7605078,31.5506636 54.3807031,31.6932009 53.9922852,31.6932009 Z" id="Shape"></path>
                    <path d="M9.2684375,51.3597757 C8.91146484,51.3597757 8.56392578,51.1745047 8.37005859,50.8417336 C8.07898438,50.3420257 8.24482422,49.6990911 8.74042969,49.4056075 L11.2064258,47.9453575 C11.0714844,47.6915748 11.0066797,47.4015374 11.025,47.1043318 C11.0576758,46.5762266 11.3486133,46.102986 11.8034766,45.8388645 L14.7440234,44.1306215 C15.2419531,43.8414112 15.8783789,44.0138621 16.1653516,44.5160514 C16.4523242,45.0181028 16.2811523,45.6597967 15.7830859,45.9491449 L13.3658984,47.3532897 C13.4886719,47.601972 13.5475977,47.882222 13.5310547,48.1689509 C13.4997461,48.7096005 13.2045703,49.1962126 12.7413672,49.4703972 L9.79453125,51.2151706 C9.62896484,51.3131822 9.44753906,51.3597757 9.2684375,51.3597757 Z" id="Shape"></path>
                    <path d="M44.270625,16.0678505 C43.9136523,16.0678505 43.5661133,15.8825794 43.3722461,15.5498084 C43.0811719,15.0501005 43.2470117,14.4071659 43.7426172,14.1136822 L46.2086133,12.6535701 C46.0736719,12.3997874 46.0088672,12.1096121 46.0271875,11.8124065 C46.0598633,11.2841636 46.3509375,10.8110607 46.8058008,10.5469393 L49.7462109,8.83869626 C50.2440039,8.54948598 50.8805664,8.72193692 51.1675391,9.22412617 C51.4545117,9.72617757 51.2833398,10.3678715 50.7852734,10.6572196 L48.3680859,12.0615023 C48.4908594,12.3101846 48.5497852,12.5904346 48.5332422,12.8771636 C48.5020703,13.4178131 48.2067578,13.9044252 47.7436914,14.1787477 L44.796582,15.9236589 C44.6311523,16.021257 44.4497266,16.0678505 44.270625,16.0678505 Z" id="Shape"></path>
                </g>
            </g>
        </g>
    </g>
</svg>