<?xml version="1.0" encoding="UTF-8"?>
<svg width="230px" height="230px" viewBox="0 0 230 230" version="1.1" xmlns="http://www.w3.org/2000/svg" xmlns:xlink="http://www.w3.org/1999/xlink">
    <!-- Generator: Sketch 47.1 (45422) - http://www.bohemiancoding.com/sketch -->
    <title>no-photo</title>
    <desc>Created with Sketch.</desc>
    <defs></defs>
    <g id="Page-1" stroke="none" stroke-width="1" fill="none" fill-rule="evenodd">
        <g id="4-1-about-us" transform="translate(-370.000000, -1686.000000)" fill-rule="nonzero">
            <g id="no-photo" transform="translate(370.000000, 1686.000000)">
                <path d="M80.7733962,180.32 L46.46,199.036792 C44.4464151,200.134717 42.6367925,201.48434 40.9530189,202.955472 C60.9586792,219.823585 86.7837736,230 115,230 C143.007925,230 168.668113,219.975472 188.617358,203.337358 C186.777358,201.783774 184.781132,200.386415 182.567925,199.284151 L145.82434,180.914528 C141.076792,178.540755 138.078113,173.689057 138.078113,168.381698 L138.078113,153.965472 C139.110943,152.789434 140.291321,151.279245 141.554151,149.49566 C146.562075,142.422075 150.350566,134.641132 152.976038,126.478302 C157.688868,125.024528 161.160566,120.671887 161.160566,115.499057 L161.160566,100.110755 C161.160566,96.7258491 159.654717,93.7011321 157.31566,91.5833962 L157.31566,69.3384906 C157.31566,69.3384906 161.885283,34.7213208 115.00434,34.7213208 C68.1233962,34.7213208 72.6930189,69.3384906 72.6930189,69.3384906 L72.6930189,91.5833962 C70.3496226,93.7011321 68.8481132,96.7258491 68.8481132,100.110755 L68.8481132,115.499057 C68.8481132,119.552264 70.9788679,123.119434 74.1684906,125.180755 C78.0133962,141.918679 88.0813208,153.965472 88.0813208,153.965472 L88.0813208,168.025849 C88.0769811,173.146604 85.2735849,177.863774 80.7733962,180.32 Z" id="Shape" fill="#CDD3D4"></path>
                <path d="M116.965849,0.0173584906 C53.4641509,-1.06754717 1.10226415,49.5324528 0.0173584906,113.034151 C-0.598867925,149.04 15.4490566,181.400566 41.0007547,202.920755 C42.6715094,201.462642 44.4637736,200.126038 46.4556604,199.041132 L80.7690566,180.32434 C85.2692453,177.868113 88.0726415,173.150943 88.0726415,168.021509 L88.0726415,153.961132 C88.0726415,153.961132 78.0003774,141.91434 74.1598113,125.176415 C70.9745283,123.115094 68.839434,119.552264 68.839434,115.494717 L68.839434,100.106415 C68.839434,96.7215094 70.345283,93.6967925 72.6843396,91.5790566 L72.6843396,69.3341509 C72.6843396,69.3341509 68.114717,34.7169811 114.99566,34.7169811 C161.876604,34.7169811 157.306981,69.3341509 157.306981,69.3341509 L157.306981,91.5790566 C159.650377,93.6967925 161.151887,96.7215094 161.151887,100.106415 L161.151887,115.494717 C161.151887,120.667547 157.680189,125.020189 152.967358,126.473962 C150.341887,134.636792 146.553396,142.417736 141.545472,149.491321 C140.282642,151.274906 139.102264,152.785094 138.069434,153.961132 L138.069434,168.377358 C138.069434,173.684717 141.068113,178.540755 145.81566,180.910189 L182.559245,199.279811 C184.763774,200.382075 186.75566,201.775094 188.591321,203.32434 C213.370566,182.659057 229.379434,151.760943 229.973962,116.965849 C231.067547,53.4641509 180.471887,1.10226415 116.965849,0.0173584906 Z" id="Shape" fill="#EAEAEA"></path>
            </g>
        </g>
    </g>
</svg>