<?xml version="1.0" encoding="UTF-8"?>
<svg width="92px" height="62px" viewBox="0 0 92 62" version="1.1" xmlns="http://www.w3.org/2000/svg" xmlns:xlink="http://www.w3.org/1999/xlink">
    <!-- Generator: Sketch 47.1 (45422) - http://www.bohemiancoding.com/sketch -->
    <title>parking</title>
    <desc>Created with Sketch.</desc>
    <defs></defs>
    <g id="Page-1" stroke="none" stroke-width="1" fill="none" fill-rule="evenodd">
        <g id="2-5-pattaya-guest-houses" transform="translate(-1121.000000, -1495.000000)" fill-rule="nonzero">
            <g id="parking" transform="translate(1121.000000, 1495.000000)">
                <g id="car" transform="translate(0.000000, 12.000000)">
                    <path d="M63.7427083,27.8161458 C63.6477865,25.8970052 62.9346354,24.0585937 61.7628906,22.5333333 C59.1204427,19.0929687 58.6053385,16.3615885 58.6053385,16.3615885 C56.530599,10.9252604 54.6861979,7.30299479 53.330599,5.00403646 C51.9042969,2.58984375 49.4376302,0.963671875 46.6558594,0.606119792 C41.0619792,-0.117057292 23.5790365,-0.117057292 17.9851562,0.606119792 C15.2053385,0.965755208 12.7386719,2.59192708 11.3123698,5.00403646 C9.95677083,7.30299479 8.11445313,10.9252604 6.03763021,16.3615885 C6.03763021,16.3615885 5.52252604,19.0929687 2.88007813,22.5333333 C1.71041667,24.0585937 0.995182292,25.8970052 0.90234375,27.8161458 C0.70234375,31.9798177 1.90846354,32.8949219 2.98723958,42.3171875 C3.07213542,43.0585937 3.69830729,43.6161458 4.44583333,43.6161458 L60.2014323,43.6161458 C60.9489583,43.6161458 61.5751302,43.0565104 61.660026,42.3171875 C61.9630208,39.6747396 62.8621094,34.3151042 62.8621094,34.3151042 C63.6497396,31.6505208 63.8214844,29.478776 63.7427083,27.8161458 Z" id="Shape" fill="#F38F1C"></path>
                    <path d="M57.4315104,16.1434896 C55.7951823,12.0485677 54.1264323,8.47278646 52.4658854,5.62226562 C51.2072917,3.46666667 48.9871094,1.96171875 46.530599,1.63242188 C40.9244792,0.888932292 23.6821615,0.895052083 18.1164063,1.63242188 C15.6598958,1.96171875 13.4395833,3.46679687 12.1809896,5.62226562 C10.4981771,8.50911458 8.80729167,12.1333333 7.19518229,16.1434896 C23.9143229,17.4585937 40.7102865,17.4585937 57.4315104,16.1434896 Z" id="Shape" fill="#A9E7F7"></path>
                    <path d="M55.0578125,20.878776 C54.419401,21.078776 53.8255208,21.3596354 53.3285156,21.6384115 C52.4234375,22.1434896 51.4941406,22.6141927 50.5244792,22.981901 C48.9164062,23.5920573 48.6436198,24.503125 48.6436198,24.503125 C48.5951823,24.5657552 48.5486979,24.6283854 48.5041667,24.6929687 C47.2839844,26.5050781 48.8859375,28.9171875 51.0496094,28.6101562 C54.1789062,28.1677083 56.7566406,27.2606771 58.0657552,26.7354167 C58.8152344,26.434375 59.4010417,25.8082031 59.5929687,25.0222656 C59.6111979,24.947526 59.6273437,24.8727865 59.6414062,24.8 C60.1223958,22.2061198 57.5769531,20.0929687 55.0578125,20.878776 Z" id="Shape" fill="#FFFFFF"></path>
                    <path d="M58.4013021,35.3980469 L54.9204427,35.3980469 C54.3972656,35.3980469 54.1346354,36.0303385 54.5042969,36.4020833 L57.9851563,39.8829427 C58.3548177,40.2526042 58.9891927,39.989974 58.9891927,39.4667969 L58.9891927,35.9859375 C58.9890625,35.6606771 58.7264323,35.3980469 58.4013021,35.3980469 Z" id="Shape" fill="#FFE21F"></path>
                    <path d="M61.6597656,42.313151 C61.5748698,43.0566406 60.9466146,43.6161458 60.1992188,43.6161458 L53.5022135,43.6161458 L53.5022135,47.5029948 C53.5022135,48.878776 54.6173177,49.9959635 55.9951823,49.9959635 L60.2013021,49.9959635 C61.5770833,49.9959635 62.6942708,48.8808594 62.6942708,47.5029948 L62.6942708,35.3352865 C62.4174479,37.0201823 61.8800781,40.3878906 61.6597656,42.313151 Z" id="Shape" fill="#454545"></path>
                    <path d="M64.5972656,13.4222656 C64.3951823,12.5171875 63.5447917,11.903125 62.6174479,11.903125 L60.9365885,11.903125 C59.8597656,11.903125 58.9871094,12.7759115 58.9871094,13.8526042 L58.9871094,15.0505208 L58.096224,15.0505208 L58.6072917,16.2647135 L60.5669271,16.2647135 C61.5811198,16.2647135 62.5851563,16.0464844 63.5063802,15.624349 C64.3365885,15.2445312 64.8013021,14.3354167 64.5972656,13.4222656 Z" id="Shape" fill="#F38F1C"></path>
                    <circle id="Oval" fill="#FFBD49" cx="56.1608073" cy="24.0182292" r="2.45052083"></circle>
                    <circle id="Oval" fill="#FFDB6F" cx="51.2315104" cy="25.9515625" r="1.8"></circle>
                    <polygon id="Shape" fill="#6F6F6F" points="46.5669271 25.9536458 43.7527344 30.8545573 20.8921875 30.8545573 18.0779948 25.9536458"></polygon>
                    <path d="M16.1386719,24.6929687 C16.096224,24.6283854 16.0497396,24.5657552 15.9992188,24.503125 C15.9992188,24.503125 15.7264323,23.5920573 14.1183594,22.981901 C13.1486979,22.6141927 12.2213542,22.1434896 11.3143229,21.6384115 C10.8153646,21.3596354 10.2234375,21.078776 9.58502604,20.878776 C7.06783854,20.0908854 4.52044271,22.2059896 4.99921875,24.8 C5.01341146,24.8747396 5.02955729,24.947526 5.04570312,25.0222656 C5.23763021,25.8080729 5.8234375,26.434375 6.57291667,26.7354167 C7.88203125,27.2606771 10.4597656,28.1677083 13.5911458,28.6101562 C15.7567708,28.9171875 17.3588542,26.5050781 16.1386719,24.6929687 Z" id="Shape" fill="#FFFFFF"></path>
                    <path d="M9.72447917,35.3980469 L6.24361979,35.3980469 C5.91835937,35.3980469 5.65572917,35.6606771 5.65572917,35.9859375 L5.65572917,39.4667969 C5.65572917,39.989974 6.29010417,40.2526042 6.65976562,39.8829427 L10.140625,36.4020833 C10.5102865,36.0324219 10.2476562,35.3980469 9.72447917,35.3980469 Z" id="Shape" fill="#FFE21F"></path>
                    <path d="M55.4981771,41.4727865 C51.8739583,35.2020833 47.70625,35.3980469 47.70625,35.3980469 L16.9365885,35.3980469 C16.9365885,35.3980469 12.7709635,35.2020833 9.14466146,41.4727865 L2.88007812,41.4727865 L2.95690104,42.2808594 C3.02760417,43.0404948 3.66197917,43.616276 4.42148438,43.616276 L60.2235677,43.616276 C60.9832031,43.616276 61.6174479,43.0404948 61.6882813,42.2809896 L61.7651042,41.4729167 L55.4981771,41.4727865 L55.4981771,41.4727865 Z" id="Shape" fill="#777777"></path>
                    <path d="M4.44570312,43.6182292 C3.69817708,43.6182292 3.06992187,43.0566406 2.98515625,42.3152344 C2.76497396,40.389974 2.22552083,37.0203125 1.95078125,35.3375 L1.95078125,47.5052083 C1.95078125,48.8809896 3.06588542,49.9981771 4.44375,49.9981771 L8.64973958,49.9981771 C10.0255208,49.9981771 11.1427083,48.8830729 11.1427083,47.5052083 L11.1427083,43.6183594 L4.44570312,43.6183594 L4.44570312,43.6182292 Z" id="Shape" fill="#454545"></path>
                    <path d="M5.65572917,15.0505208 L5.65572917,13.8526042 C5.65572917,12.7757812 4.78294271,11.903125 3.70820312,11.903125 L2.02747396,11.903125 C1.10026042,11.903125 0.249739583,12.5173177 0.04765625,13.4222656 C-0.156380208,14.3333333 0.310286458,15.2445312 1.13854167,15.6222656 C2.06171875,16.0445312 3.06380208,16.2626302 4.07799479,16.2626302 L6.03763021,16.2626302 L6.54869792,15.0484375 L5.65572917,15.0484375 L5.65572917,15.0505208 Z" id="Shape" fill="#F38F1C"></path>
                    <circle id="Oval" fill="#FFBD49" cx="8.48203125" cy="24.0182292" r="2.45052083"></circle>
                    <circle id="Oval" fill="#FFDB6F" cx="13.4153646" cy="25.9515625" r="1.8"></circle>
                    <g id="Group" transform="translate(18.489583, 37.109375)" fill="#6F6F6F">
                        <path d="M26.8611979,0.00377604167 L0.804557292,0.00377604167 C0.396484375,0.00377604167 0.0671875,0.335026042 0.0671875,0.741145833 C0.0671875,1.14921875 0.396484375,1.47851563 0.804557292,1.47851563 L26.8591146,1.47851563 C27.2671875,1.47851563 27.5964844,1.14726563 27.5964844,0.741145833 C27.5985677,0.333072917 27.2671875,0.00377604167 26.8611979,0.00377604167 Z" id="Shape"></path>
                        <path d="M26.8611979,2.94726562 L0.804557292,2.94726562 C0.396484375,2.94726562 0.0671875,3.27851562 0.0671875,3.68463542 C0.0671875,4.09270833 0.396484375,4.42200521 0.804557292,4.42200521 L26.8591146,4.42200521 C27.2671875,4.42200521 27.5964844,4.09075521 27.5964844,3.68463542 C27.5985677,3.2765625 27.2671875,2.94726562 26.8611979,2.94726562 Z" id="Shape"></path>
                    </g>
                </g>
                <g transform="translate(57.000000, 0.000000)" id="Shape">
                    <path d="M31.1233662,31.6814474 C25.7744298,36.0479276 9.07267544,36.0479276 3.83288377,31.6814474 C-1.51605263,27.3149671 -0.970252193,8.64830044 3.83288377,3.73601974 C8.63601974,-1.17626096 26.3202303,-1.17626096 31.1233662,3.73601974 C35.9265022,8.64830044 36.4723026,27.3150439 31.1233662,31.6814474 Z" fill="#5CA4DA"></path>
                    <path d="M17.5873465,24.0401645 C12.7842105,27.8608443 7.43527412,29.8257566 2.41384868,29.9349013 C-1.2976864,23.6035088 -0.533519737,8.21172149 3.83296053,3.73609649 C7.76278509,-0.302872807 20.0980592,-1.06703947 27.1936184,1.44367325 C28.9401645,8.64837719 25.3378509,17.8179167 17.5873465,24.0401645 Z" fill="#6DAFE0"></path>
                    <path d="M24.3553947,9.41246711 C25.7745066,10.6132127 26.4294518,12.3598355 26.4294518,14.7614035 C26.4294518,17.1629715 25.7745066,18.9095175 24.3553947,20.1103399 C22.9362829,21.2019408 20.7530811,21.7477412 17.9148575,21.7477412 L15.295,21.7477412 L15.295,27.2058224 L10.9285197,27.2058224 L10.9285197,7.66592105 L17.9148575,7.66592105 C20.7530044,7.66592105 22.9362829,8.21172149 24.3553947,9.41246711 Z M21.0805154,17.1629715 C21.6263158,16.6171711 21.844682,15.7438596 21.844682,14.543114 C21.844682,13.4515132 21.5171711,12.5782018 20.8622259,12.1415461 C20.2072807,11.7048904 19.1156031,11.3773794 17.696568,11.3773794 L15.1858553,11.3773794 L15.1858553,18.0362829 L18.1332237,18.0362829 C19.5522588,18.0362829 20.5347149,17.7087719 21.0805154,17.1629715 Z" fill="#FFFFFF"></path>
                </g>
            </g>
        </g>
    </g>
</svg>