<?xml version="1.0" encoding="UTF-8"?>
<svg width="18px" height="18px" viewBox="0 0 18 18" version="1.1" xmlns="http://www.w3.org/2000/svg" xmlns:xlink="http://www.w3.org/1999/xlink">
    <!-- Generator: Sketch 47.1 (45422) - http://www.bohemiancoding.com/sketch -->
    <title>parking-sign</title>
    <desc>Created with Sketch.</desc>
    <defs></defs>
    <g id="Page-1" stroke="none" stroke-width="1" fill="none" fill-rule="evenodd">
        <g id="3-1-apartments-main-1170" transform="translate(-967.000000, -1972.000000)" fill-rule="nonzero" fill="#B8B8B8">
            <g id="Group-28" transform="translate(0.000000, 1682.000000)">
                <g id="Group-19" transform="translate(720.000000, 0.000000)">
                    <g id="parking-sign" transform="translate(247.000000, 290.000000)">
                        <path d="M16,0 L2,0 C0.9,0 0,0.9 0,2 L0,16 C0,17.1 0.9,18 2,18 L16,18 C17.1,18 18,17.1 18,16 L18,2 C18,0.9 17.1,0 16,0 Z M6.8,10.4 L6.8,14 L5,14 L5,4 L9.3,4 C10.8,4 11.5,4.3 12.0999608,4.9 C12.8,5.5 12.9999608,6.3 12.9999608,7.2 C12.9999608,8.2 12.6999608,9 12.0999608,9.5 C11.4999608,10 10.8,10.3 9.3,10.3 L6.8,10.3 L6.8,10.4 Z" id="Shape"></path>
                        <path d="M6.8,9 L6.8,5.4 L9.1,5.4 C9.80003922,5.4 10.3000392,5.6 10.6,6 C10.9,6.4 11.1,6.7 11.1,7.2 C11.1,7.8 10.9,8.1 10.6,8.5 C10.3000392,8.8 9.9,9 9.2,9 L6.8,9 Z" id="Shape"></path>
                    </g>
                </g>
            </g>
        </g>
    </g>
</svg>