<?xml version="1.0" encoding="UTF-8"?>
<svg width="153px" height="237px" viewBox="0 0 153 237" version="1.1" xmlns="http://www.w3.org/2000/svg" xmlns:xlink="http://www.w3.org/1999/xlink">
    <!-- Generator: Sketch 47.1 (45422) - http://www.bohemiancoding.com/sketch -->
    <title>Path-1</title>
    <desc>Created with Sketch.</desc>
    <defs></defs>
    <g id="Page-1" stroke="none" stroke-width="1" fill="none" fill-rule="evenodd">
        <g id="1-1-home" transform="translate(-633.000000, -584.000000)" fill-rule="nonzero" fill="#E8E8E8">
            <path d="M782.386233,584.818579 C780.020535,588.050015 777.664918,591.286248 775.319382,594.527279 C774.671798,595.422102 774.872225,596.672471 775.767049,597.320055 C776.661872,597.967639 777.91224,597.767212 778.559824,596.872388 C780.901072,593.637282 783.252387,590.406959 785.613767,587.181421 C786.266248,586.290162 786.07268,585.038714 785.181421,584.386233 C784.290162,583.733752 783.038714,583.92732 782.386233,584.818579 Z M768.307854,604.271984 C765.975927,607.531799 763.654138,610.796439 761.342488,614.065902 C760.704803,614.967807 760.918996,616.215891 761.8209,616.853576 C762.722805,617.49126 763.970888,617.277068 764.608573,616.375164 C766.915973,613.111712 769.233495,609.853071 771.56114,606.599241 C772.203795,605.700871 771.996496,604.451624 771.098125,603.80897 C770.199755,603.166315 768.950508,603.373614 768.307854,604.271984 Z M754.436102,623.891416 C752.143009,627.172999 749.86007,630.459414 747.587285,633.75066 C746.959631,634.659574 747.187636,635.905208 748.09655,636.532863 C749.005463,637.160517 750.251098,636.932511 750.878752,636.023598 C753.147335,632.738437 755.426055,629.458095 757.714913,626.182571 C758.347599,625.277153 758.126504,624.030273 757.221086,623.397588 C756.315667,622.764903 755.068787,622.985997 754.436102,623.891416 Z M740.777844,643.670472 C738.520063,646.979279 736.272484,650.29294 734.035108,653.611457 C733.417629,654.527313 733.659511,655.770327 734.575368,656.387807 C735.491224,657.005286 736.734238,656.763404 737.351718,655.847547 C739.584935,652.5352 741.828338,649.227694 744.081928,645.925029 C744.704506,645.012632 744.469562,643.768287 743.557165,643.145709 C742.644767,642.52313 741.400423,642.758074 740.777844,643.670472 Z M727.35425,663.580574 C725.13405,666.913641 722.924082,670.251577 720.724347,673.594381 C720.117157,674.517092 720.372936,675.757321 721.295646,676.364511 C722.218356,676.971701 723.458585,676.715922 724.065776,675.793212 C726.261402,672.456651 728.467244,669.124947 730.683301,665.798098 C731.295654,664.878806 731.04683,663.637163 730.127538,663.02481 C729.208245,662.412458 727.966602,662.661281 727.35425,663.580574 Z M714.146679,683.651489 C711.963741,687.009729 709.79107,690.372854 707.628666,693.740865 C707.031898,694.670349 707.301618,695.907621 708.231102,696.50439 C709.160587,697.101158 710.397859,696.831438 710.994627,695.901953 C713.152974,692.540263 715.32157,689.183445 717.500416,685.831499 C718.10241,684.90539 717.839662,683.666619 716.913553,683.064625 C715.987444,682.462632 714.748673,682.72538 714.146679,683.651489 Z M701.166174,703.86914 C699.02084,707.252423 696.885806,710.640608 694.761072,714.033692 C694.174847,714.969862 694.458533,716.204007 695.394703,716.790232 C696.330873,717.376457 697.565018,717.092771 698.151243,716.156601 C700.271973,712.76991 702.402986,709.388107 704.544282,706.011192 C705.135793,705.078354 704.859093,703.842624 703.926254,703.251112 C702.993415,702.659601 701.757686,702.936301 701.166174,703.86914 Z M688.413824,724.234037 C686.307027,727.641259 684.210557,731.053393 682.124415,734.470441 C681.548849,735.413202 681.84652,736.644049 682.789281,737.219614 C683.732042,737.79518 684.962889,737.497509 685.538454,736.554748 C687.620651,733.144163 689.713157,729.738479 691.815972,726.337697 C692.396882,725.398219 692.106205,724.165702 691.166728,723.584792 C690.22725,723.003883 688.994733,723.294559 688.413824,724.234037 Z M675.899769,744.731675 C673.832668,748.161203 671.77591,751.595652 669.729495,755.035022 C669.164694,755.984272 669.476351,757.211651 670.4256,757.776452 C671.37485,758.341253 672.60223,758.029595 673.16703,757.080346 C675.209561,753.647504 677.262417,750.219571 679.325599,746.796546 C679.895797,745.850529 679.591136,744.621394 678.64512,744.051196 C677.699103,743.480997 676.469968,743.785658 675.899769,744.731675 Z M663.615691,765.377406 C661.587689,768.830528 659.570055,772.28858 657.562786,775.751564 C657.008864,776.707203 657.33452,777.930943 658.290158,778.484865 C659.245796,779.038786 660.469536,778.713131 661.023458,777.757493 C663.026905,774.301101 665.040701,770.849629 667.064844,767.403077 C667.624217,766.45062 667.30556,765.225039 666.353103,764.665665 C665.400645,764.106292 664.175064,764.424949 663.615691,765.377406 Z M651.571369,786.156555 C649.583136,789.632377 647.605286,793.113138 645.637822,796.598839 C645.094878,797.560757 645.434524,798.780688 646.396441,799.323632 C647.358359,799.866575 648.578291,799.52693 649.121234,798.565012 C651.084944,795.085964 653.059018,791.611845 655.043459,788.142654 C655.591905,787.183863 655.259255,785.962006 654.300464,785.41356 C653.341672,784.865114 652.119815,785.197764 651.571369,786.156555 Z M639.758847,807.084647 C637.810515,810.583229 635.872585,814.086758 633.945057,817.595235 C633.413197,818.563325 633.766831,819.779276 634.734921,820.311136 C635.703011,820.842996 636.918961,820.489362 637.450821,819.521272 C639.374661,816.019507 641.308885,812.522679 643.253492,809.030787 C643.790903,808.065768 643.444259,806.847807 642.479239,806.310395 C641.51422,805.772983 640.296259,806.119628 639.758847,807.084647 Z" id="Path-1"></path>
        </g>
    </g>
</svg>