<?xml version="1.0" encoding="UTF-8"?>
<svg width="131px" height="187px" viewBox="0 0 131 187" version="1.1" xmlns="http://www.w3.org/2000/svg" xmlns:xlink="http://www.w3.org/1999/xlink">
    <!-- Generator: Sketch 47.1 (45422) - http://www.bohemiancoding.com/sketch -->
    <title>Path-2</title>
    <desc>Created with Sketch.</desc>
    <defs></defs>
    <g id="Page-1" stroke="none" stroke-width="1" fill="none" fill-rule="evenodd">
        <g id="1-1-home" transform="translate(-594.000000, -1193.000000)" fill-rule="nonzero" fill="#E8E8E8">
            <path d="M721.695162,1193.48428 C718.620594,1196.13109 715.601608,1198.76433 712.638202,1201.384 C711.810633,1202.11557 711.732815,1203.37951 712.464391,1204.20708 C713.195967,1205.03465 714.459904,1205.11247 715.287473,1204.38089 C718.237672,1201.7729 721.243461,1199.15117 724.304838,1196.51572 C725.141945,1195.79508 725.236359,1194.53227 724.515717,1193.69516 C723.795075,1192.85805 722.53227,1192.76364 721.695162,1193.48428 Z M703.67696,1209.4185 C700.669357,1212.15442 697.723671,1214.87524 694.8399,1217.58096 C694.034381,1218.33675 693.994063,1219.60244 694.749849,1220.40796 C695.505635,1221.21348 696.771323,1221.25379 697.576843,1220.49801 C700.445509,1217.80646 703.37609,1215.09959 706.368585,1212.37742 C707.185666,1211.63414 707.2455,1210.36923 706.502228,1209.55215 C705.758957,1208.73507 704.494041,1208.67523 703.67696,1209.4185 Z M686.136206,1225.88381 C683.212491,1228.72086 680.358415,1231.54096 677.573976,1234.34411 C676.795547,1235.12776 676.799787,1236.39409 677.583447,1237.17252 C678.367106,1237.95095 679.633429,1237.94671 680.411858,1237.16305 C683.178881,1234.37743 686.015517,1231.57457 688.921767,1228.75447 C689.714476,1227.98526 689.733524,1226.71907 688.964313,1225.92636 C688.195101,1225.13365 686.928915,1225.1146 686.136206,1225.88381 Z M669.166126,1242.97871 C666.34816,1245.93285 663.609472,1248.86773 660.950062,1251.78336 C660.205696,1252.59945 660.263834,1253.86444 661.079917,1254.60881 C661.896001,1255.35317 663.160995,1255.29503 663.905362,1254.47895 C666.544525,1251.58551 669.262896,1248.67241 672.060475,1245.73964 C672.822885,1244.94039 672.793019,1243.67441 671.993766,1242.912 C671.194514,1242.14959 669.928536,1242.17945 669.166126,1242.97871 Z M652.934501,1260.7894 C650.250773,1263.88263 647.658724,1266.95366 645.158356,1270.00251 C644.457919,1270.85659 644.582475,1272.11678 645.43656,1272.81722 C646.290645,1273.51766 647.550834,1273.3931 648.251272,1272.53901 C650.727947,1269.51906 653.296136,1266.4763 655.955842,1263.41075 C656.679709,1262.57643 656.590169,1261.31327 655.755849,1260.58941 C654.921529,1259.86554 653.658368,1259.95508 652.934501,1260.7894 Z M637.656784,1279.44024 C635.150903,1282.698 632.75288,1285.92975 630.462722,1289.13552 C629.820645,1290.0343 630.028746,1291.28342 630.927529,1291.92549 C631.826312,1292.56757 633.075426,1292.35947 633.717503,1291.46069 C635.979952,1288.2937 638.349888,1285.0998 640.82732,1281.87903 C641.500773,1281.00351 641.336966,1279.74782 640.461447,1279.07437 C639.585928,1278.40092 638.330237,1278.56472 637.656784,1279.44024 Z M623.633307,1299.10538 C621.371677,1302.55764 619.239412,1305.97889 617.236541,1309.36918 C616.674715,1310.3202 616.990214,1311.54659 617.941226,1312.10842 C618.892239,1312.67025 620.118637,1312.35475 620.680463,1311.40373 C622.651508,1308.06731 624.75109,1304.6985 626.979237,1301.29736 C627.584534,1300.3734 627.326212,1299.1337 626.40226,1298.5284 C625.478307,1297.92311 624.238604,1298.18143 623.633307,1299.10538 Z M611.354899,1319.94746 C609.440192,1323.62554 607.683728,1327.266 606.085587,1330.8689 C605.637716,1331.87859 606.093165,1333.06019 607.10286,1333.50806 C608.112556,1333.95593 609.294147,1333.50048 609.742018,1332.49078 C611.305934,1328.96504 613.026213,1325.39958 614.902935,1321.79447 C615.412972,1320.8147 615.032184,1319.60698 614.052421,1319.09694 C613.072658,1318.58691 611.864936,1318.9677 611.354899,1319.94746 Z M601.552319,1342.15763 C600.146931,1346.07647 598.937415,1349.94913 597.923963,1353.77561 C597.641166,1354.84337 598.277499,1355.9382 599.345254,1356.221 C600.413008,1356.5038 601.507847,1355.86746 601.790644,1354.79971 C602.774544,1351.08481 603.950105,1347.32087 605.317519,1343.50791 C605.69039,1342.46818 605.149794,1341.32304 604.110062,1340.95017 C603.070331,1340.5773 601.925191,1341.11789 601.552319,1342.15763 Z M595.373022,1365.72153 C594.711868,1369.83141 594.28915,1373.88506 594.105157,1377.88225 C594.054367,1378.98565 594.907677,1379.92131 596.011078,1379.9721 C597.114479,1380.02289 598.050136,1379.16958 598.100926,1378.06618 C598.277886,1374.22178 598.684897,1370.31875 599.322248,1366.35684 C599.497684,1365.26629 598.755838,1364.24 597.66529,1364.06457 C596.574741,1363.88913 595.548458,1364.63098 595.373022,1365.72153 Z" id="Path-2" transform="translate(659.551518, 1286.487108) scale(-1, 1) translate(-659.551518, -1286.487108) "></path>
        </g>
    </g>
</svg>