<?xml version="1.0" encoding="UTF-8"?>
<svg width="75px" height="75px" viewBox="0 0 75 75" version="1.1" xmlns="http://www.w3.org/2000/svg" xmlns:xlink="http://www.w3.org/1999/xlink">
    <!-- Generator: Sketch 47.1 (45422) - http://www.bohemiancoding.com/sketch -->
    <title>pattaya</title>
    <desc>Created with Sketch.</desc>
    <defs></defs>
    <g id="Page-1" stroke="none" stroke-width="1" fill="none" fill-rule="evenodd">
        <g id="1-1-home" transform="translate(-1184.000000, -1805.000000)" fill-rule="nonzero" fill="#D1D1D1">
            <g id="pattaya" transform="translate(1184.000000, 1805.000000)">
                <path d="M48.9553711,33.4571777 C45.1700684,27.8566406 41.7625488,21.9313477 38.8280273,15.8462402 C38.5836914,15.3396973 38.0709961,15.0177246 37.5086426,15.0177246 C36.9462891,15.0177246 36.4335938,15.3396973 36.1892578,15.8462402 C33.2542969,21.9312012 29.8469238,27.8563477 26.0613281,33.4571777 C25.757959,33.9060059 25.7270508,34.4859375 25.9813477,34.964502 C26.235498,35.4430664 26.7331055,35.742334 27.2750977,35.742334 L31.6584961,35.742334 C32.4675293,35.742334 33.1233398,35.0865234 33.1233398,34.2774902 C33.1233398,33.468457 32.4675293,32.8126465 31.6584961,32.8126465 L30.0011719,32.8126465 C32.7251953,28.6100098 35.2395996,24.2459473 37.5083496,19.7828613 C39.7772461,24.2459473 42.2915039,28.6100098 45.0155273,32.8126465 L43.3769531,32.8126465 C42.5679199,32.8126465 41.9121094,33.468457 41.9121094,34.2774902 C41.9121094,35.0865234 42.5679199,35.742334 43.3769531,35.742334 L47.7416016,35.742334 C48.2834473,35.742334 48.7812012,35.4432129 49.0353516,34.964502 C49.289502,34.4859375 49.2587402,33.9061523 48.9553711,33.4571777 Z" id="Shape"></path>
                <path d="M37.519043,32.8126465 L37.5175781,32.8126465 C36.7085449,32.8126465 36.0534668,33.468457 36.0534668,34.2774902 C36.0534668,35.0865234 36.7100098,35.742334 37.519043,35.742334 C38.3280762,35.742334 38.9838867,35.0865234 38.9838867,34.2774902 C38.9838867,33.468457 38.3280762,32.8126465 37.519043,32.8126465 Z" id="Shape"></path>
                <path d="M73.5351562,45.2024414 C74.3441895,45.2024414 75,44.5466309 75,43.7375977 L75,27.5515137 C75,26.7424805 74.3441895,26.0866699 73.5351562,26.0866699 L64.2977051,26.0866699 L64.2977051,20.8646484 C66.0924316,20.4906738 67.4449219,18.8967773 67.4449219,16.9929199 C67.4449219,16.1838867 66.7891113,15.5280762 65.9800781,15.5280762 C65.1710449,15.5280762 64.5152344,16.1838867 64.5152344,16.9929199 C64.5152344,17.5583496 64.0552734,18.0183105 63.4898438,18.0183105 L62.8327148,18.0183105 L53.3865234,18.0183105 C53.3141602,18.0183105 53.2437012,18.0253418 53.1742676,18.0354492 L53.1742676,14.2728516 C54.9689941,13.898877 56.3214844,12.3049805 56.3214844,10.401123 C56.3214844,9.59208984 55.6656738,8.9362793 54.8566406,8.9362793 C54.0476074,8.9362793 53.3917969,9.59208984 53.3917969,10.401123 C53.3917969,10.9665527 52.9318359,11.4265137 52.3664063,11.4265137 L51.7092773,11.4265137 L43.2202148,11.4265137 C41.6359863,8.00830078 40.1916504,4.51875 38.8930664,0.96328125 C38.6819824,0.385400391 38.132373,0.00102539063 37.5171387,0.00102539063 L37.4986816,0.00102539063 C36.8834473,0.00102539063 36.3338379,0.385546875 36.1227539,0.96328125 C34.8241699,4.51875 33.3799805,8.0081543 31.7956055,11.4265137 L23.3349609,11.4265137 L23.2904297,11.4265137 L22.677832,11.4265137 C22.1124023,11.4265137 21.6524414,10.9665527 21.6524414,10.401123 C21.6524414,9.59208984 20.9966309,8.9362793 20.1875977,8.9362793 C19.3785645,8.9362793 18.7227539,9.59208984 18.7227539,10.401123 C18.7227539,12.2893066 20.053125,13.8716309 21.8254395,14.2625977 L21.8254395,18.0351563 C21.7558594,18.0250488 21.6854004,18.0180176 21.6130371,18.0180176 L12.2116699,18.0180176 L12.1669922,18.0180176 L11.5543945,18.0180176 C10.9889648,18.0180176 10.5290039,17.5580566 10.5290039,16.992627 C10.5290039,16.1835938 9.87319336,15.5277832 9.06416016,15.5277832 C8.25512695,15.5277832 7.59931641,16.1835938 7.59931641,16.992627 C7.59931641,18.8808105 8.9296875,20.4631348 10.702002,20.8541016 L10.702002,26.0865234 L1.46484375,26.0865234 C0.655810547,26.0865234 0,26.742334 0,27.5513672 L0,43.7374512 C0,44.5464844 0.655810547,45.2022949 1.46484375,45.2022949 L2.9296875,45.2022949 L2.9296875,66.2100586 L1.46484375,66.2100586 C0.655810547,66.2100586 0,66.8658691 0,67.6749023 L0,73.5341309 C0,74.3431641 0.655810547,74.9989746 1.46484375,74.9989746 L73.533252,74.9989746 C74.3422852,74.9989746 74.9980957,74.3431641 74.9980957,73.5341309 L74.9980957,67.6749023 C74.9980957,66.8658691 74.3422852,66.2100586 73.533252,66.2100586 L72.070459,66.2100586 L72.070459,45.2024414 L73.5351562,45.2024414 Z M62.8328613,56.7865723 C63.6418945,56.7865723 64.2977051,56.1307617 64.2977051,55.3217285 L64.2977051,45.2022949 L69.1407715,45.2022949 L69.1407715,66.2100586 L55.3672852,66.2100586 L55.3672852,41.601416 L61.3681641,41.601416 L61.3681641,55.3217285 C61.3681641,56.1309082 62.0238281,56.7865723 62.8328613,56.7865723 Z M53.1742676,29.0774414 L53.1742676,20.9307129 C53.2439941,20.9408203 53.3144531,20.9478516 53.3866699,20.9478516 L61.3681641,20.9478516 L61.3681641,38.671875 L60.0492188,38.671875 C57.613623,35.6126953 55.3190918,32.4575684 53.1673828,29.2145508 C53.1716309,29.1692871 53.1742676,29.1237305 53.1742676,29.0774414 Z M50.244873,14.3560547 L50.244873,24.6092285 C48.2225098,21.2749512 46.3467773,17.8549805 44.6214844,14.3560547 L50.244873,14.3560547 Z M24.755127,14.3560547 L30.3950684,14.3560547 C28.6649414,17.864502 26.7837891,21.2935547 24.755127,24.6363281 L24.755127,14.3560547 Z M33.9974121,13.6343262 C34.0416504,13.5594727 34.0790039,13.4806641 34.1094727,13.3980469 C35.3214844,10.8231445 36.4552734,8.20810547 37.5082031,5.55541992 C38.5460449,8.16972656 39.6618164,10.7474121 40.8537598,13.2861328 C40.8991699,13.448584 40.9713867,13.5996094 41.0663086,13.734082 C45.2478516,22.5566895 50.3538574,30.9041016 56.3286621,38.6720215 L18.6878906,38.6720215 C24.6849609,30.8746582 29.8069336,22.4938477 33.9974121,13.6343262 Z M52.4375977,41.601416 L52.4375977,66.2100586 L49.5080566,66.2100586 L49.5080566,41.601416 L52.4375977,41.601416 Z M41.1916992,45.1693359 C39.9158203,44.4164062 39.0925781,43.06875 38.9928223,41.6015625 L46.5785156,41.6015625 L46.5785156,66.2102051 L43.6697754,66.2102051 L43.6697754,54.5898926 C44.3383301,54.4541016 44.8416504,53.8631836 44.8416504,53.1544922 L44.8416504,51.5614746 C44.8416504,48.9474609 43.4430176,46.4979492 41.1916992,45.1693359 Z M33.1231934,51.6896484 L33.1231934,51.5614746 C33.1231934,49.9791504 33.9697266,48.496582 35.3326172,47.6922363 C36.196875,47.1821777 36.9357422,46.5067383 37.5177246,45.7202637 C38.0998535,46.5067383 38.8385742,47.1820313 39.702832,47.6920898 C41.0655762,48.4964355 41.9122559,49.9791504 41.9122559,51.5613281 L41.9122559,51.6896484 L33.1231934,51.6896484 Z M40.7400879,54.6193359 L40.7400879,66.2009766 L34.2949219,66.2009766 L34.2949219,54.6193359 L40.7400879,54.6193359 L40.7400879,54.6193359 Z M31.3655273,54.5898926 L31.3655273,66.2102051 L28.4197266,66.2102051 L28.4197266,41.601416 L36.0424805,41.601416 C35.9427246,43.06875 35.1194824,44.4162598 33.8436035,45.1691895 C31.5921387,46.4979492 30.1937988,48.947168 30.1937988,51.5614746 L30.1937988,53.1544922 C30.1936523,53.8631836 30.6969727,54.4541016 31.3655273,54.5898926 Z M25.4898926,41.601416 L25.4898926,66.2100586 L22.5603516,66.2100586 L22.5603516,41.601416 L25.4898926,41.601416 Z M19.6306641,41.601416 L19.6306641,66.2100586 L13.6318359,66.2100586 L13.6318359,41.601416 L19.6306641,41.601416 Z M13.6316895,20.9477051 L21.6131836,20.9477051 C21.6855469,20.9477051 21.7560059,20.9406738 21.8255859,20.9305664 L21.8255859,29.0772949 C21.8255859,29.1310547 21.8289551,29.1839355 21.8345215,29.2362305 C19.6870605,32.4714844 17.3973633,35.6194336 14.9671875,38.6717285 L13.6316895,38.6717285 L13.6316895,20.9477051 L13.6316895,20.9477051 Z M2.92954102,29.0163574 L10.7022949,29.0163574 L10.7022949,40.1367188 L10.7022949,42.2729004 L2.92954102,42.2729004 L2.92954102,29.0163574 Z M10.7022949,45.2024414 L10.7022949,66.2102051 L5.85922852,66.2102051 L5.85922852,45.2024414 L10.7022949,45.2024414 Z M72.0684082,72.0694336 L2.92954102,72.0694336 L2.92954102,69.1398926 L72.0682617,69.1398926 L72.0682617,72.0694336 L72.0684082,72.0694336 Z M64.2977051,42.2727539 L64.2977051,40.1367188 L64.2977051,29.0163574 L72.070459,29.0163574 L72.070459,42.2727539 L64.2977051,42.2727539 Z" id="Shape"></path>
                <path d="M63.8683594,60.4388672 C63.5958984,60.1649414 63.2194336,60.009668 62.8327148,60.009668 C62.4474609,60.009668 62.0695312,60.1649414 61.7970703,60.4388672 C61.5246094,60.7113281 61.3678711,61.087793 61.3678711,61.4745117 C61.3678711,61.8597656 61.5246094,62.2376953 61.7970703,62.5101562 C62.0695312,62.7826172 62.4474609,62.9393555 62.8327148,62.9393555 C63.2194336,62.9393555 63.5958984,62.7826172 63.8683594,62.5101562 C64.1408203,62.2376953 64.2975586,61.8597656 64.2975586,61.4745117 C64.2975586,61.087793 64.1408203,60.7113281 63.8683594,60.4388672 Z" id="Shape"></path>
            </g>
        </g>
    </g>
</svg>