<?xml version="1.0" encoding="UTF-8"?>
<svg width="469px" height="288px" viewBox="0 0 469 288" version="1.1" xmlns="http://www.w3.org/2000/svg" xmlns:xlink="http://www.w3.org/1999/xlink">
    <!-- Generator: Sketch 47.1 (45422) - http://www.bohemiancoding.com/sketch -->
    <title>pattaya-guest-house</title>
    <desc>Created with Sketch.</desc>
    <defs></defs>
    <g id="Page-1" stroke="none" stroke-width="1" fill="none" fill-rule="evenodd">
        <g id="2-5-pattaya-guest-houses" transform="translate(-776.000000, -861.000000)">
            <g id="pattaya-guest-house" transform="translate(776.000000, 861.000000)">
                <g id="house-2" transform="translate(0.000000, 85.000000)" fill-rule="nonzero" fill="#C9C9C9">
                    <path d="M30.3333333,77.3943333 L60.6666667,77.3943333 L60.6666667,55.7276667 L30.3333333,55.7276667 L30.3333333,77.3943333 Z M34.6666667,73.061 L34.6666667,66.561 L56.3333333,66.561 L56.3333333,73.061 L34.6666667,73.061 Z M56.3333333,60.061 L56.3333333,62.2276667 L34.6666667,62.2276667 L34.6666667,60.061 L56.3333333,60.061 Z" id="Shape"></path>
                    <path d="M30.3333333,86.061 L30.3333333,112.061 L60.6666667,112.061 L60.6666667,86.061 L30.3333333,86.061 Z M43.3333333,90.3943333 L43.3333333,96.8943333 L34.6666667,96.8943333 L34.6666667,90.3943333 L43.3333333,90.3943333 Z M34.6666667,101.227667 L43.3333333,101.227667 L43.3333333,107.727667 L34.6666667,107.727667 L34.6666667,101.227667 Z M47.6666667,107.727667 L47.6666667,101.227667 L56.3333333,101.227667 L56.3333333,107.727667 L47.6666667,107.727667 Z M56.3333333,96.8943333 L47.6666667,96.8943333 L47.6666667,90.3943333 L56.3333333,90.3943333 L56.3333333,96.8943333 Z" id="Shape"></path>
                    <path d="M69.3333333,77.3943333 L99.6666667,77.3943333 L99.6666667,55.7276667 L69.3333333,55.7276667 L69.3333333,77.3943333 Z M73.6666667,73.061 L73.6666667,70.8943333 L95.3333333,70.8943333 L95.3333333,73.061 L73.6666667,73.061 Z M95.3333333,60.061 L95.3333333,66.561 L73.6666667,66.561 L73.6666667,60.061 L95.3333333,60.061 Z" id="Shape"></path>
                    <path d="M127.833333,103.394333 C126.635167,103.394333 125.666667,104.365 125.666667,105.561 L125.666667,107.727667 L123.5,107.727667 L123.5,105.561 C123.5,104.365 122.5315,103.394333 121.333333,103.394333 C120.135167,103.394333 119.166667,104.365 119.166667,105.561 L119.166667,107.727667 L117,107.727667 L117,63.9523333 C118.128833,64.4593333 119.324833,64.7388333 120.523,64.7388333 C122.847833,64.7388333 125.1575,63.7941667 126.864833,61.9568333 C128.5115,60.1845 129.345667,57.786 129.155,55.3745 C128.962167,52.9651667 127.759667,50.727 125.857333,49.2363333 L70.8976667,6.2475 L65,0.772333333 L59.2431667,6.12833333 L4.14483333,49.2363333 C2.24033333,50.727 1.03783333,52.9651667 0.847166667,55.3745 C0.6565,57.786 1.49066667,60.1845 3.13733333,61.9568333 C5.72433333,64.7431667 9.68283333,65.4451667 13.0021667,63.9545 L13.0021667,107.729833 L10.8333333,107.729833 L10.8333333,105.563167 C10.8333333,104.367167 9.86483333,103.3965 8.66666667,103.3965 C7.4685,103.3965 6.5,104.367167 6.5,105.563167 L6.5,107.729833 L4.33333333,107.729833 L4.33333333,105.563167 C4.33333333,104.367167 3.36483333,103.3965 2.16666667,103.3965 C0.9685,103.3965 0,104.367167 0,105.563167 L0,125.063167 C0,126.259167 0.9685,127.229833 2.16666667,127.229833 C3.36483333,127.229833 4.33333333,126.259167 4.33333333,125.063167 L4.33333333,122.8965 L6.5,122.8965 L6.5,125.063167 C6.5,126.259167 7.4685,127.229833 8.66666667,127.229833 C9.86483333,127.229833 10.8333333,126.259167 10.8333333,125.063167 L10.8333333,122.8965 L13,122.8965 L13,127.229833 L69.3333333,127.229833 L99.6666667,127.229833 L117,127.229833 L117,122.8965 L119.166667,122.8965 L119.166667,125.063167 C119.166667,126.259167 120.135167,127.229833 121.333333,127.229833 C122.5315,127.229833 123.5,126.259167 123.5,125.063167 L123.5,122.8965 L125.666667,122.8965 L125.666667,125.063167 C125.666667,126.259167 126.635167,127.229833 127.833333,127.229833 C129.0315,127.229833 130,126.259167 130,125.063167 L130,105.563167 C130,104.365 129.0315,103.394333 127.833333,103.394333 Z M6.30933333,59.0058333 C5.47516667,58.1066667 5.07,56.9388333 5.1675,55.7168333 C5.265,54.4948333 5.84783333,53.405 6.81633333,52.6488333 L62.0533333,9.42383333 L65.0021667,6.683 L68.0875,9.54083333 L123.185833,52.6488333 C124.152167,53.405 124.737167,54.4948333 124.834667,55.7168333 C124.932167,56.9388333 124.524833,58.1088333 123.692833,59.0058333 C122.158833,60.6568333 119.660667,60.8648333 117.873167,59.489 L117,58.8173333 L117,58.8173333 L65,18.734 L13.845,58.1673333 L13.8428333,58.1695 L12.129,59.489 C10.3393333,60.8648333 7.84333333,60.6568333 6.30933333,59.0058333 Z M4.33333333,118.561 L4.33333333,112.061 L6.5,112.061 L6.5,118.561 L4.33333333,118.561 Z M10.8333333,118.561 L10.8333333,112.061 L13,112.061 L13,118.561 L10.8333333,118.561 Z M73.6666667,122.894333 L73.6666667,90.3943333 L95.3333333,90.3943333 L95.3333333,122.894333 L73.6666667,122.894333 Z M112.666667,122.894333 L99.6666667,122.894333 L99.6666667,86.061 L69.3333333,86.061 L69.3333333,122.894333 L17.3333333,122.894333 L17.3333333,60.9471667 L65,24.2026667 L112.666667,60.9471667 L112.666667,122.894333 Z M117,118.561 L117,112.061 L119.166667,112.061 L119.166667,118.561 L117,118.561 Z M123.5,118.561 L123.5,112.061 L125.666667,112.061 L125.666667,118.561 L123.5,118.561 Z" id="Shape"></path>
                </g>
                <path d="M288,113 L318,113 L318,91 L288,91 L288,113 Z M292.285714,108.6 L292.285714,102 L313.714286,102 L313.714286,108.6 L292.285714,108.6 Z M313.714286,95.4 L313.714286,97.6 L292.285714,97.6 L292.285714,95.4 L313.714286,95.4 Z" id="Shape" fill="#C9C9C9" fill-rule="nonzero"></path>
                <path d="M288,56 L288,82 L318,82 L318,56 L288,56 Z M300.857143,60.3333333 L300.857143,66.8333333 L292.285714,66.8333333 L292.285714,60.3333333 L300.857143,60.3333333 Z M292.285714,71.1666667 L300.857143,71.1666667 L300.857143,77.6666667 L292.285714,77.6666667 L292.285714,71.1666667 Z M305.142857,77.6666667 L305.142857,71.1666667 L313.714286,71.1666667 L313.714286,77.6666667 L305.142857,77.6666667 Z M313.714286,66.8333333 L305.142857,66.8333333 L305.142857,60.3333333 L313.714286,60.3333333 L313.714286,66.8333333 Z" id="Shape" fill="#C9C9C9" fill-rule="nonzero"></path>
                <path d="M390,81 L390,107 L420,107 L420,81 L390,81 Z M402.857143,85.3333333 L402.857143,91.8333333 L394.285714,91.8333333 L394.285714,85.3333333 L402.857143,85.3333333 Z M394.285714,96.1666667 L402.857143,96.1666667 L402.857143,102.666667 L394.285714,102.666667 L394.285714,96.1666667 Z M407.142857,102.666667 L407.142857,96.1666667 L415.714286,96.1666667 L415.714286,102.666667 L407.142857,102.666667 Z M415.714286,91.8333333 L407.142857,91.8333333 L407.142857,85.3333333 L415.714286,85.3333333 L415.714286,91.8333333 Z" id="Shape-Copy" fill="#C9C9C9" fill-rule="nonzero"></path>
                <path d="M293,214 L293,238 L321,238 L321,214 L293,214 Z M305,218 L305,224 L297,224 L297,218 L305,218 Z M297,228 L305,228 L305,234 L297,234 L297,228 Z M309,234 L309,228 L317,228 L317,234 L309,234 Z M317,224 L309,224 L309,218 L317,218 L317,224 Z" id="Shape-Copy-3" fill="#C9C9C9" fill-rule="nonzero"></path>
                <path d="M333,214 L333,238 L361,238 L361,214 L333,214 Z M345,218 L345,224 L337,224 L337,218 L345,218 Z M337,228 L345,228 L345,234 L337,234 L337,228 Z M349,234 L349,228 L357,228 L357,234 L349,234 Z M357,224 L349,224 L349,218 L357,218 L357,224 Z" id="Shape-Copy-4" fill="#C9C9C9" fill-rule="nonzero"></path>
                <path d="M333,248 L333,272 L361,272 L361,248 L333,248 Z M345,252 L345,258 L337,258 L337,252 L345,252 Z M337,262 L345,262 L345,268 L337,268 L337,262 Z M349,268 L349,262 L357,262 L357,268 L349,268 Z M357,258 L349,258 L349,252 L357,252 L357,258 Z" id="Shape-Copy-6" fill="#C9C9C9" fill-rule="nonzero"></path>
                <path d="M327,77 L357,77 L357,55 L327,55 L327,77 Z M331.285714,72.6 L331.285714,70.4 L352.714286,70.4 L352.714286,72.6 L331.285714,72.6 Z M352.714286,59.4 L352.714286,66 L331.285714,66 L331.285714,59.4 L352.714286,59.4 Z" id="Shape" fill="#C9C9C9" fill-rule="nonzero"></path>
                <path d="M230,265 L260,265 L260,243 L230,243 L230,265 Z M234.285714,260.6 L234.285714,258.4 L255.714286,258.4 L255.714286,260.6 L234.285714,260.6 Z M255.714286,247.4 L255.714286,254 L234.285714,254 L234.285714,247.4 L255.714286,247.4 Z" id="Shape-Copy-9" fill="#C9C9C9" fill-rule="nonzero"></path>
                <path d="M374.852519,62.9514264 C375.978174,63.4565921 377.170807,63.735081 378.3656,63.735081 C380.683888,63.735081 382.987052,62.7938319 384.689578,60.9631457 C386.331609,59.1972244 387.163427,56.8074017 386.973297,54.4046261 C386.781007,52.0040093 385.581892,49.7739399 383.684915,48.2886662 L328.879982,5.45535852 L322.99892,0 L317.258294,5.33662298 L262.315085,48.2886662 C260.415947,49.7739399 259.216833,52.0040093 259.026703,54.4046261 C258.836573,56.8074017 259.668391,59.1972244 261.310422,60.9631457 C263.890138,63.7393986 267.837493,64.4388589 271.147481,62.9535852 L271.145321,126 L327.320053,126 L357.567986,126 L374.852519,126 L374.852519,62.9514264 Z M264.473491,58.0228219 C263.641673,57.1269082 263.237647,55.9632999 263.334873,54.7457209 C263.432098,53.5281419 264.01329,52.4422513 264.979064,51.6888204 L320.060549,8.62020046 L323.00108,5.88928296 L326.077727,8.73677718 L381.020936,51.6888204 C381.984549,52.4422513 382.567902,53.5281419 382.665127,54.7457209 C382.762353,55.9632999 382.356166,57.1290671 381.526509,58.0228219 C379.996828,59.6678489 377.505694,59.8750964 375.723227,58.5042406 L374.852519,57.8350039 L374.852519,57.8350039 L322.99892,17.8966847 L271.987942,57.1873554 L271.985781,57.1895143 L270.276773,58.5042406 C268.492145,59.8750964 266.003172,59.6678489 264.473491,58.0228219 Z M331.641186,121.680185 L331.641186,89.2977641 L353.246852,89.2977641 L353.246852,121.680185 L331.641186,121.680185 Z M370.531385,121.680185 L357.567986,121.680185 L357.567986,84.9801079 L327.320053,84.9801079 L327.320053,121.680185 L275.466454,121.680185 L275.466454,59.9571318 L322.99892,23.3455667 L370.531385,59.9571318 L370.531385,121.680185 Z" id="Shape" fill="#C9C9C9" fill-rule="nonzero"></path>
                <path d="M378.852519,222.951426 C379.978174,223.456592 381.170807,223.735081 382.3656,223.735081 C384.683888,223.735081 386.987052,222.793832 388.689578,220.963146 C390.331609,219.197224 391.163427,216.807402 390.973297,214.404626 C390.781007,212.004009 389.581892,209.77394 387.684915,208.288666 L332.879982,165.455359 L326.99892,160 L321.258294,165.336623 L266.315085,208.288666 C264.415947,209.77394 263.216833,212.004009 263.026703,214.404626 C262.836573,216.807402 263.668391,219.197224 265.310422,220.963146 C267.890138,223.739399 271.837493,224.438859 275.147481,222.953585 L275.145321,286 L331.320053,286 L361.567986,286 L378.852519,286 L378.852519,222.951426 Z M268.473491,218.022822 C267.641673,217.126908 267.237647,215.9633 267.334873,214.745721 C267.432098,213.528142 268.01329,212.442251 268.979064,211.68882 L324.060549,168.6202 L327.00108,165.889283 L330.077727,168.736777 L385.020936,211.68882 C385.984549,212.442251 386.567902,213.528142 386.665127,214.745721 C386.762353,215.9633 386.356166,217.129067 385.526509,218.022822 C383.996828,219.667849 381.505694,219.875096 379.723227,218.504241 L378.852519,217.835004 L378.852519,217.835004 L326.99892,177.896685 L275.987942,217.187355 L275.985781,217.189514 L274.276773,218.504241 C272.492145,219.875096 270.003172,219.667849 268.473491,218.022822 Z M335.641186,281.680185 L335.641186,249.297764 L357.246852,249.297764 L357.246852,281.680185 L335.641186,281.680185 Z M374.531385,281.680185 L361.567986,281.680185 L361.567986,244.980108 L331.320053,244.980108 L331.320053,281.680185 L279.466454,281.680185 L279.466454,219.957132 L326.99892,183.345567 L374.531385,219.957132 L374.531385,281.680185 Z" id="Shape-Copy-5" fill="#C9C9C9" fill-rule="nonzero" transform="translate(327.000000, 223.000000) scale(-1, 1) translate(-327.000000, -223.000000) "></path>
                <g id="palm-tree" transform="translate(129.000000, 124.000000)" fill-rule="nonzero" fill="#C9C9C9">
                    <path d="M86.5584904,29.3728051 C83.0022923,21.2271949 75.4798307,15.635546 66.7084353,14.5062099 L79.7351215,6.45074946 C80.214967,6.15396146 80.5037789,5.62976445 80.4973178,5.06809422 C80.4908567,4.50642398 80.1893379,3.98907923 79.7028159,3.70364026 C71.5913159,-1.05331906 61.5892934,-0.939828694 53.5999084,4.00085653 C49.67155,6.42997859 46.6354718,9.85888651 44.5756681,14.1920771 C44.1399735,15.1087794 43.754891,16.0603854 43.4186976,17.038758 C41.5324826,11.5239829 38.0314193,6.98608137 33.203889,4.0006424 C25.2145041,-0.939400428 15.2124816,-1.05331906 7.10098154,3.70364026 C6.61445953,3.98907923 6.31315617,4.50642398 6.30647968,5.06809422 C6.2998032,5.62976445 6.58883044,6.15396146 7.06867597,6.45074946 L20.0953621,14.5062099 C11.3239668,15.635546 3.80150512,21.2271949 0.245091656,29.3728051 C0.0202448293,29.8880086 0.0822715401,30.4828694 0.408988625,30.9408994 C0.713307175,31.3674518 1.20542882,31.6182013 1.72662549,31.6182013 C1.76517681,31.6182013 1.80394351,31.6167024 1.84292557,31.6139186 L17.1439244,30.5182013 C10.715545,36.55803 7.93554233,45.4779443 9.87387704,54.1460385 C9.99642287,54.6944325 10.3983043,55.1391863 10.9335,55.3190578 C11.1025659,55.375803 11.2772314,55.4036403 11.4503893,55.4036403 C11.8259955,55.4036403 12.1957867,55.2734475 12.4914904,55.0256959 L38.5418475,33.1997859 L36.9937642,55.4541756 C36.3129779,55.6430407 35.8128876,56.2625268 35.8128876,56.9997859 C35.8128876,57.6588865 36.2126153,58.2246253 36.7839933,58.4721627 L35.083643,82.9137045 C34.4030721,83.1025696 33.9031971,83.7220557 33.9031971,84.4591006 C33.9031971,85.1182013 34.3027095,85.6837259 34.8738721,85.9312634 L34.0287582,98.0779443 C33.9671622,98.962955 34.6386875,99.7297645 35.5285985,99.7910064 C35.5665037,99.793576 35.6041935,99.7948608 35.641668,99.7948608 C36.4829053,99.7948608 37.1925512,99.1468951 37.2513473,98.2997859 L38.1024916,86.0653105 L44.7171665,86.0653105 C45.6092312,86.0653105 46.3324454,85.3464668 46.3324454,84.4593148 C46.3324454,83.5721627 45.6092312,82.8533191 44.7171665,82.8533191 L38.3258308,82.8533191 L40.0126128,58.6059957 L42.80683,58.6059957 C43.6988947,58.6059957 44.4221089,57.887152 44.4221089,57 C44.4221089,56.112848 43.6988947,55.3940043 42.80683,55.3940043 L40.2361674,55.3940043 L41.9804533,30.3190578 L43.4018987,29.1280514 L44.8233442,30.3190578 L45.6126772,41.6642398 L44.9523511,41.6642398 C44.0602864,41.6642398 43.3370722,42.3830835 43.3370722,43.2702355 C43.3370722,44.1573876 44.0602864,44.8762313 44.9523511,44.8762313 L45.8362318,44.8762313 L47.5230137,69.1233405 L43.0417992,69.1233405 C42.1497345,69.1233405 41.4265203,69.8421842 41.4265203,70.7293362 C41.4265203,71.6164882 42.1497345,72.3353319 43.0417992,72.3353319 L47.7461376,72.3353319 L49.5524501,98.2995717 C49.6112463,99.1466809 50.3208922,99.7946467 51.1621294,99.7946467 C51.1996039,99.7946467 51.2372938,99.7933619 51.275199,99.7907923 C52.16511,99.7295503 52.8366353,98.9627409 52.7750393,98.0777302 L50.9749725,72.2014989 C51.5461351,71.9539615 51.9458628,71.3884368 51.9458628,70.7291221 C51.9458628,69.991863 51.4457724,69.3723769 50.7649862,69.1835118 L49.0646359,44.7421842 C49.6360139,44.4946467 50.0357416,43.9291221 50.0357416,43.2698073 C50.0357416,42.5325482 49.5354359,41.9130621 48.8546497,41.724197 L48.2615192,33.1995717 L74.3120917,55.0256959 C74.6077954,55.2732334 74.9775866,55.4036403 75.3531928,55.4036403 C75.5265661,55.4036403 75.7010162,55.375803 75.8700821,55.3190578 C76.4052778,55.1391863 76.8071592,54.6944325 76.929705,54.1460385 C78.8680398,45.4779443 76.088037,36.55803 69.6596576,30.5182013 L84.9606565,31.6139186 C84.9994232,31.6167024 85.0381899,31.6182013 85.0769566,31.6182013 C85.5981533,31.6182013 86.0904903,31.3674518 86.3945935,30.9408994 C86.7213105,30.4828694 86.7833373,29.8882227 86.5584904,29.3728051 Z M55.3058583,6.72826552 C61.4818235,2.90920771 69.0378829,2.39892934 75.6008689,5.2248394 L60.6927059,14.4436831 C54.9149608,15.0704497 49.5595574,17.6633833 45.5032689,21.7749465 C46.7239891,15.3134904 50.1977002,9.88736617 55.3058583,6.72826552 Z M31.497293,6.72805139 C36.6997834,9.94518201 40.1342971,15.2877944 41.3220656,21.7972163 C37.2629773,17.672591 31.8983129,15.0710921 26.1104455,14.443469 L11.2022824,5.2248394 C17.7656991,2.39914347 25.3215432,2.90920771 31.497293,6.72805139 Z M21.7702987,17.5620985 C28.3207932,17.093576 34.5999208,19.5344754 39.058306,24.0899358 C37.5405899,23.8094218 35.995091,23.6665953 34.4306396,23.6665953 C30.047634,23.6665953 25.7548687,24.814561 21.9813618,26.951606 L4.46247726,28.2062099 C8.101593,22.0845824 14.5161887,18.0815846 21.7702987,17.5620985 Z M20.3055637,32.0115632 C24.2563206,28.7014989 29.2725155,26.8785867 34.4304242,26.8785867 C36.3864193,26.8785867 38.3088166,27.1314775 40.1732792,27.632334 L12.5959451,50.7374732 C11.9211892,43.65803 14.7440507,36.6710921 20.3055637,32.0115632 Z M74.2072062,50.7374732 L46.6300875,27.632334 C48.4945501,27.1314775 50.4169474,26.8785867 52.3729425,26.8785867 C57.5308512,26.8785867 62.5472615,28.7014989 66.497803,32.0115632 C72.059316,36.6710921 74.8821775,43.65803 74.2072062,50.7374732 Z M64.8220049,26.951606 C61.048498,24.814561 56.7555173,23.6665953 52.3727272,23.6665953 C50.8082757,23.6665953 49.2627768,23.809636 47.7450607,24.0899358 C52.2038767,19.5340471 58.4838658,17.0927195 65.033068,17.5620985 C72.287178,18.0815846 78.7015583,22.0845824 82.3408895,28.2062099 L64.8220049,26.951606 Z" id="Shape"></path>
                </g>
                <g id="palm-tree-copy" transform="translate(173.000000, 19.000000)" fill-rule="nonzero" fill="#C9C9C9">
                    <path d="M86.5584904,29.3728051 C83.0022923,21.2271949 75.4798307,15.635546 66.7084353,14.5062099 L79.7351215,6.45074946 C80.214967,6.15396146 80.5037789,5.62976445 80.4973178,5.06809422 C80.4908567,4.50642398 80.1893379,3.98907923 79.7028159,3.70364026 C71.5913159,-1.05331906 61.5892934,-0.939828694 53.5999084,4.00085653 C49.67155,6.42997859 46.6354718,9.85888651 44.5756681,14.1920771 C44.1399735,15.1087794 43.754891,16.0603854 43.4186976,17.038758 C41.5324826,11.5239829 38.0314193,6.98608137 33.203889,4.0006424 C25.2145041,-0.939400428 15.2124816,-1.05331906 7.10098154,3.70364026 C6.61445953,3.98907923 6.31315617,4.50642398 6.30647968,5.06809422 C6.2998032,5.62976445 6.58883044,6.15396146 7.06867597,6.45074946 L20.0953621,14.5062099 C11.3239668,15.635546 3.80150512,21.2271949 0.245091656,29.3728051 C0.0202448293,29.8880086 0.0822715401,30.4828694 0.408988625,30.9408994 C0.713307175,31.3674518 1.20542882,31.6182013 1.72662549,31.6182013 C1.76517681,31.6182013 1.80394351,31.6167024 1.84292557,31.6139186 L17.1439244,30.5182013 C10.715545,36.55803 7.93554233,45.4779443 9.87387704,54.1460385 C9.99642287,54.6944325 10.3983043,55.1391863 10.9335,55.3190578 C11.1025659,55.375803 11.2772314,55.4036403 11.4503893,55.4036403 C11.8259955,55.4036403 12.1957867,55.2734475 12.4914904,55.0256959 L38.5418475,33.1997859 L36.9937642,55.4541756 C36.3129779,55.6430407 35.8128876,56.2625268 35.8128876,56.9997859 C35.8128876,57.6588865 36.2126153,58.2246253 36.7839933,58.4721627 L35.083643,82.9137045 C34.4030721,83.1025696 33.9031971,83.7220557 33.9031971,84.4591006 C33.9031971,85.1182013 34.3027095,85.6837259 34.8738721,85.9312634 L34.0287582,98.0779443 C33.9671622,98.962955 34.6386875,99.7297645 35.5285985,99.7910064 C35.5665037,99.793576 35.6041935,99.7948608 35.641668,99.7948608 C36.4829053,99.7948608 37.1925512,99.1468951 37.2513473,98.2997859 L38.1024916,86.0653105 L44.7171665,86.0653105 C45.6092312,86.0653105 46.3324454,85.3464668 46.3324454,84.4593148 C46.3324454,83.5721627 45.6092312,82.8533191 44.7171665,82.8533191 L38.3258308,82.8533191 L40.0126128,58.6059957 L42.80683,58.6059957 C43.6988947,58.6059957 44.4221089,57.887152 44.4221089,57 C44.4221089,56.112848 43.6988947,55.3940043 42.80683,55.3940043 L40.2361674,55.3940043 L41.9804533,30.3190578 L43.4018987,29.1280514 L44.8233442,30.3190578 L45.6126772,41.6642398 L44.9523511,41.6642398 C44.0602864,41.6642398 43.3370722,42.3830835 43.3370722,43.2702355 C43.3370722,44.1573876 44.0602864,44.8762313 44.9523511,44.8762313 L45.8362318,44.8762313 L47.5230137,69.1233405 L43.0417992,69.1233405 C42.1497345,69.1233405 41.4265203,69.8421842 41.4265203,70.7293362 C41.4265203,71.6164882 42.1497345,72.3353319 43.0417992,72.3353319 L47.7461376,72.3353319 L49.5524501,98.2995717 C49.6112463,99.1466809 50.3208922,99.7946467 51.1621294,99.7946467 C51.1996039,99.7946467 51.2372938,99.7933619 51.275199,99.7907923 C52.16511,99.7295503 52.8366353,98.9627409 52.7750393,98.0777302 L50.9749725,72.2014989 C51.5461351,71.9539615 51.9458628,71.3884368 51.9458628,70.7291221 C51.9458628,69.991863 51.4457724,69.3723769 50.7649862,69.1835118 L49.0646359,44.7421842 C49.6360139,44.4946467 50.0357416,43.9291221 50.0357416,43.2698073 C50.0357416,42.5325482 49.5354359,41.9130621 48.8546497,41.724197 L48.2615192,33.1995717 L74.3120917,55.0256959 C74.6077954,55.2732334 74.9775866,55.4036403 75.3531928,55.4036403 C75.5265661,55.4036403 75.7010162,55.375803 75.8700821,55.3190578 C76.4052778,55.1391863 76.8071592,54.6944325 76.929705,54.1460385 C78.8680398,45.4779443 76.088037,36.55803 69.6596576,30.5182013 L84.9606565,31.6139186 C84.9994232,31.6167024 85.0381899,31.6182013 85.0769566,31.6182013 C85.5981533,31.6182013 86.0904903,31.3674518 86.3945935,30.9408994 C86.7213105,30.4828694 86.7833373,29.8882227 86.5584904,29.3728051 Z M55.3058583,6.72826552 C61.4818235,2.90920771 69.0378829,2.39892934 75.6008689,5.2248394 L60.6927059,14.4436831 C54.9149608,15.0704497 49.5595574,17.6633833 45.5032689,21.7749465 C46.7239891,15.3134904 50.1977002,9.88736617 55.3058583,6.72826552 Z M31.497293,6.72805139 C36.6997834,9.94518201 40.1342971,15.2877944 41.3220656,21.7972163 C37.2629773,17.672591 31.8983129,15.0710921 26.1104455,14.443469 L11.2022824,5.2248394 C17.7656991,2.39914347 25.3215432,2.90920771 31.497293,6.72805139 Z M21.7702987,17.5620985 C28.3207932,17.093576 34.5999208,19.5344754 39.058306,24.0899358 C37.5405899,23.8094218 35.995091,23.6665953 34.4306396,23.6665953 C30.047634,23.6665953 25.7548687,24.814561 21.9813618,26.951606 L4.46247726,28.2062099 C8.101593,22.0845824 14.5161887,18.0815846 21.7702987,17.5620985 Z M20.3055637,32.0115632 C24.2563206,28.7014989 29.2725155,26.8785867 34.4304242,26.8785867 C36.3864193,26.8785867 38.3088166,27.1314775 40.1732792,27.632334 L12.5959451,50.7374732 C11.9211892,43.65803 14.7440507,36.6710921 20.3055637,32.0115632 Z M74.2072062,50.7374732 L46.6300875,27.632334 C48.4945501,27.1314775 50.4169474,26.8785867 52.3729425,26.8785867 C57.5308512,26.8785867 62.5472615,28.7014989 66.497803,32.0115632 C72.059316,36.6710921 74.8821775,43.65803 74.2072062,50.7374732 Z M64.8220049,26.951606 C61.048498,24.814561 56.7555173,23.6665953 52.3727272,23.6665953 C50.8082757,23.6665953 49.2627768,23.809636 47.7450607,24.0899358 C52.2038767,19.5340471 58.4838658,17.0927195 65.033068,17.5620985 C72.287178,18.0815846 78.7015583,22.0845824 82.3408895,28.2062099 L64.8220049,26.951606 Z" id="Shape"></path>
                </g>
                <g id="palm-tree-copy-2" transform="translate(391.000000, 198.000000)" fill-rule="nonzero" fill="#C9C9C9">
                    <path d="M77.6041638,26.4355246 C74.4158483,19.1044754 67.6715723,14.0719914 59.8075627,13.0555889 L71.4866606,5.80567452 C71.916867,5.53856531 72.1758018,5.06678801 72.170009,4.5612848 C72.1642163,4.05578158 71.8938892,3.59017131 71.457697,3.33327623 C64.1853177,-0.947987152 55.2179872,-0.845845824 48.0550903,3.60077088 C44.5331138,5.78698073 41.8111126,8.87299786 39.9643921,12.7728694 C39.5737694,13.5979015 39.228523,14.4543469 38.9271082,15.3348822 C37.2360189,10.3715846 34.0971346,6.28747323 29.769004,3.60057816 C22.6061071,-0.845460385 13.6387766,-0.947987152 6.36639725,3.33327623 C5.9302051,3.59017131 5.66007105,4.05578158 5.65408523,4.5612848 C5.64809942,5.06678801 5.90722729,5.53856531 6.33743363,5.80567452 L18.0165315,13.0555889 C10.1525219,14.0719914 3.40824597,19.1044754 0.219737347,26.4355246 C0.0181505366,26.8992077 0.0737606912,27.4345824 0.366679457,27.8468094 C0.639516778,28.2307066 1.08072929,28.4563812 1.54800906,28.4563812 C1.58257232,28.4563812 1.61732866,28.4550321 1.6522781,28.4525268 L15.370415,27.4663812 C9.60704039,32.902227 7.11462415,40.9301499 8.85244148,48.7314347 C8.96231016,49.2249893 9.32261762,49.6252677 9.80244829,49.787152 C9.95402458,49.8382227 10.1106212,49.8632762 10.2658662,49.8632762 C10.6026166,49.8632762 10.9341536,49.7461028 11.1992672,49.5231263 L34.5547598,29.8798073 L33.166823,49.908758 C32.556463,50.0787366 32.1081061,50.6362741 32.1081061,51.2998073 C32.1081061,51.8929979 32.4664827,52.4021627 32.9787526,52.6249465 L31.4543006,74.622334 C30.8441336,74.7923126 30.3959698,75.3498501 30.3959698,76.0131906 C30.3959698,76.6063812 30.7541533,77.1153533 31.2662301,77.338137 L30.5085418,88.2701499 C30.4533178,89.0666595 31.055375,89.756788 31.8532262,89.8119058 C31.8872102,89.8142184 31.9210011,89.8153747 31.9545989,89.8153747 C32.7088116,89.8153747 33.3450459,89.2322056 33.3977597,88.4698073 L34.1608546,77.4587794 L40.0912527,77.4587794 C40.8910349,77.4587794 41.5394338,76.8118201 41.5394338,76.0133833 C41.5394338,75.2149465 40.8910349,74.5679872 40.0912527,74.5679872 L34.3610897,74.5679872 L35.873377,52.7453961 L38.3785372,52.7453961 C39.1783194,52.7453961 39.8267183,52.0984368 39.8267183,51.3 C39.8267183,50.5015632 39.1783194,49.8546039 38.3785372,49.8546039 L36.0738053,49.8546039 L37.6376478,27.287152 L38.9120471,26.2152463 L40.1864465,27.287152 L40.8941243,37.4978158 L40.3021079,37.4978158 C39.5023258,37.4978158 38.8539268,38.1447752 38.8539268,38.943212 C38.8539268,39.7416488 39.5023258,40.3886081 40.3021079,40.3886081 L41.0945526,40.3886081 L42.6068399,62.2110064 L38.5891993,62.2110064 C37.7894171,62.2110064 37.1410182,62.8579657 37.1410182,63.6564026 C37.1410182,64.4548394 37.7894171,65.1017987 38.5891993,65.1017987 L42.806882,65.1017987 L44.4263346,88.4696146 C44.4790484,89.2320128 45.1152826,89.815182 45.8694954,89.815182 C45.9030932,89.815182 45.9368841,89.8140257 45.970868,89.8117131 C46.7687193,89.7565953 47.3707764,89.0664668 47.3155525,88.2699572 L45.7016994,64.981349 C46.2137763,64.7585653 46.5721528,64.2495931 46.5721528,63.6562099 C46.5721528,62.9926767 46.123796,62.4351392 45.5134359,62.2651606 L43.9889839,40.2679657 C44.5012539,40.045182 44.8596304,39.5362099 44.8596304,38.9428266 C44.8596304,38.2792934 44.4110804,37.7217559 43.8007204,37.5517773 L43.2689483,29.8796146 L66.6246339,49.5231263 C66.8897476,49.7459101 67.2212845,49.8632762 67.5580349,49.8632762 C67.713473,49.8632762 67.8698766,49.8382227 68.0214529,49.787152 C68.5012836,49.6252677 68.861591,49.2249893 68.9714597,48.7314347 C70.709277,40.9301499 68.2168608,32.902227 62.4534862,27.4663812 L76.1716231,28.4525268 C76.2063794,28.4550321 76.2411358,28.4563812 76.2758921,28.4563812 C76.7431719,28.4563812 77.1845775,28.2307066 77.4572217,27.8468094 C77.7501405,27.4345824 77.8057506,26.8994004 77.6041638,26.4355246 Z M49.5845626,6.05543897 C55.1216348,2.61828694 61.896033,2.1590364 67.7800894,4.70235546 L54.4141501,12.9993148 C49.2341028,13.5634047 44.4327066,15.897045 40.7960342,19.5974518 C41.8904729,13.7821413 45.0048347,8.89862955 49.5845626,6.05543897 Z M28.2389524,6.05524625 C32.9032541,8.95066381 35.9824733,13.759015 37.0473691,19.6174946 C33.4081866,15.9053319 28.5984875,13.5639829 23.4093649,12.9991221 L10.0434256,4.70235546 C15.9278682,2.15922912 22.7020733,2.61828694 28.2389524,6.05524625 Z M19.5181988,15.8058887 C25.3910559,15.3842184 31.0206186,17.5810278 35.0177916,21.6809422 C33.6570806,21.4284797 32.2714609,21.2999358 30.8688493,21.2999358 C26.9392581,21.2999358 23.090572,22.3331049 19.7074278,24.2564454 L4.00084168,25.3855889 C7.26349717,19.8761242 13.014514,16.2734261 19.5181988,15.8058887 Z M18.2049882,28.8104069 C21.7470461,25.831349 26.2443242,24.1907281 30.8686562,24.1907281 C32.6223069,24.1907281 34.3458356,24.4183298 36.0174227,24.8691006 L11.2929163,45.6637259 C10.6879628,39.292227 13.2188041,33.0039829 18.2049882,28.8104069 Z M66.5305987,45.6637259 L41.8062854,24.8691006 C43.4778725,24.4183298 45.2014011,24.1907281 46.9550519,24.1907281 C51.5793838,24.1907281 56.0768551,25.831349 59.6187199,28.8104069 C64.604904,33.0039829 67.1357453,39.292227 66.5305987,45.6637259 Z M58.1162803,24.2564454 C54.7331361,22.3331049 50.8842569,21.2999358 46.9548588,21.2999358 C45.5522472,21.2999358 44.1666275,21.4286724 42.8059165,21.6809422 C46.8034756,17.5806424 52.4338107,15.3834475 58.3055093,15.8058887 C64.8091941,16.2734261 70.5600178,19.8761242 73.8228664,25.3855889 L58.1162803,24.2564454 Z" id="Shape"></path>
                </g>
                <rect id="Rectangle-20" stroke="#C9C9C9" stroke-width="4" x="373" y="68" width="64" height="56"></rect>
                <rect id="Rectangle-20-Copy" stroke="#C9C9C9" stroke-width="4" x="213" y="228" width="64" height="56"></rect>
                <rect id="Rectangle-21" stroke="#C9C9C9" stroke-width="4" x="373" y="62" width="72" height="6" rx="3"></rect>
                <rect id="Rectangle-21-Copy" stroke="#C9C9C9" stroke-width="4" x="205" y="222" width="72" height="6" rx="3"></rect>
            </g>
        </g>
    </g>
</svg>