<?xml version="1.0" encoding="UTF-8"?>
<svg width="16px" height="16px" viewBox="0 0 16 16" version="1.1" xmlns="http://www.w3.org/2000/svg" xmlns:xlink="http://www.w3.org/1999/xlink">
    <!-- Generator: Sketch 47.1 (45422) - http://www.bohemiancoding.com/sketch -->
    <title>phone-orange</title>
    <desc>Created with Sketch.</desc>
    <defs>
        <linearGradient x1="0%" y1="50%" x2="99.981075%" y2="50%" id="linearGradient-1">
            <stop stop-color="#F47C22" offset="0%"></stop>
            <stop stop-color="#FFCD02" offset="100%"></stop>
        </linearGradient>
    </defs>
    <g id="Page-1" stroke="none" stroke-width="1" fill="none" fill-rule="evenodd">
        <g id="3-1-apartments-main-1170" transform="translate(-607.000000, -149.000000)" fill="url(#linearGradient-1)">
            <g id="Group-12" transform="translate(607.000000, 134.000000)">
                <path d="M11.6440555,31 C11.6323971,31 11.6207387,31 11.6089447,30.9998192 C10.5060484,30.9943515 9.30541113,30.7149076 8.04015543,30.1691245 C7.69632219,30.020862 7.53798448,29.6219406 7.68624533,29.2782391 C7.83432544,28.9344021 8.23328767,28.7760626 8.57712091,28.9243251 C9.65846265,29.3908933 10.7092575,29.6397447 11.6158132,29.6441732 C12.7543174,29.6492794 13.7062868,29.3084248 14.3658917,28.6562235 L14.3691,28.6526988 C14.7531955,28.2248117 14.7296979,27.5771744 14.3159592,27.1780722 C12.683915,25.6042575 11.9192486,25.7120765 11.2161732,26.3974912 L10.0578768,27.5473502 C9.85932199,27.7443256 9.56013421,27.79941 9.30455256,27.6855357 C9.23853332,27.656073 7.66857694,26.9455789 5.90237037,25.1793528 L5.82085175,25.0980141 C4.05428367,23.3314265 3.34379741,21.7614979 3.31451578,21.695478 C3.20064276,21.4398935 3.25554582,21.1406572 3.45256421,20.942281 L4.60236532,19.7837911 C5.28795316,19.0805723 5.39563546,18.3160782 3.82183812,16.6839707 C3.42287589,16.2702276 2.77506497,16.2469556 2.34740855,16.6308746 L2.34388391,16.6340378 C1.69164459,17.2936952 1.35007074,18.244229 1.35571921,19.3841466 C1.36669982,21.6003116 2.62630705,24.1762199 4.72504994,26.274986 C5.1253678,26.6751727 5.58271255,27.0732356 6.08438644,27.4578324 C6.3814504,27.6857165 6.43757353,28.1111182 6.20987269,28.4082306 C5.9819911,28.7052979 5.55641331,28.7614216 5.2595301,28.5337183 C4.71072544,28.1130613 4.20855449,27.6756847 3.76657356,27.2334729 C1.42087987,24.8879341 0.012831035,21.9561687 8.81026355e-05,19.3910604 C-0.00750343155,17.8738665 0.475643494,16.5847826 1.39756302,15.6632144 C1.40605831,15.6545383 1.41505066,15.6460881 1.42404301,15.6379542 L1.44189216,15.6219124 C2.41550642,14.7479726 3.88961968,14.8012495 4.79775695,15.7429716 C5.64010093,16.6163692 6.12654656,17.3499997 6.32939416,18.0514561 C6.61109431,19.0265272 6.35587416,19.9287096 5.57037631,20.7329241 C5.56915624,20.7343249 5.56771023,20.7355902 5.56649017,20.7368103 L4.76458918,21.5447301 C5.06712085,22.0747877 5.70788249,23.0678889 6.77914738,24.1391656 L6.86071118,24.2205495 C7.93179532,25.2916455 8.92465954,25.9325498 9.45525355,26.2353107 L10.2631645,25.4335365 L10.2670506,25.4296503 C11.0712562,24.6441889 11.9736095,24.3889208 12.9486697,24.6706692 C13.6501636,24.8732931 14.3835601,25.3599249 15.256948,26.2020974 C16.1988405,27.1104707 16.2519812,28.584555 15.378051,29.5582252 L15.362145,29.5758486 C15.3540564,29.585067 15.3455611,29.5938787 15.3369302,29.6025096 C14.4221955,30.5170285 13.1458237,31 11.6440555,31" id="phone-orange"></path>
            </g>
        </g>
    </g>
</svg>