<?xml version="1.0" encoding="UTF-8"?>
<svg width="75px" height="75px" viewBox="0 0 75 75" version="1.1" xmlns="http://www.w3.org/2000/svg" xmlns:xlink="http://www.w3.org/1999/xlink">
    <!-- Generator: Sketch 47.1 (45422) - http://www.bohemiancoding.com/sketch -->
    <title>picnic</title>
    <desc>Created with Sketch.</desc>
    <defs></defs>
    <g id="Page-1" stroke="none" stroke-width="1" fill="none" fill-rule="evenodd">
        <g id="2-8-chisinau-apartments-inculet" transform="translate(-898.000000, -1808.000000)" fill-rule="nonzero">
            <g id="picnic" transform="translate(898.000000, 1808.000000)">
                <rect id="Rectangle-path" fill="#008B4E" x="22.5" y="25" width="10" height="10"></rect>
                <rect id="Rectangle-path" fill="#00B968" x="22.5" y="25" width="6.25" height="10"></rect>
                <rect id="Rectangle-path" fill="#BA4737" x="20" y="30" width="5" height="5"></rect>
                <rect id="Rectangle-path" fill="#F85E49" x="20" y="30" width="2.5" height="5"></rect>
                <rect id="Rectangle-path" fill="#BA4737" x="32.5" y="30" width="5" height="5"></rect>
                <rect id="Rectangle-path" fill="#F85E49" x="32.5" y="30" width="2.5" height="5"></rect>
                <polygon id="Shape" fill="#B19231" points="36.25 45 21.25 45 17.5 35 40 35"></polygon>
                <polygon id="Shape" fill="#ECC341" points="17.5 35 21.25 45 32.5 45 36.25 35"></polygon>
                <rect id="Rectangle-path" fill="#005D34" x="45" y="27.5" width="10" height="5"></rect>
                <rect id="Rectangle-path" fill="#008B4E" x="45" y="27.5" width="6.25" height="5"></rect>
                <polygon id="Shape" fill="#008B4E" points="53.75 45 46.25 45 45 32.5 55 32.5"></polygon>
                <polygon id="Shape" fill="#00B968" points="45 32.5 46.25 45 50 45 51.25 32.5"></polygon>
                <polyline id="Shape" fill="#653A1D" points="51.25 58.75 51.25 50 56.25 50 56.25 58.75"></polyline>
                <rect id="Rectangle-path" fill="#98572C" x="51.25" y="50" width="2.5" height="8.75"></rect>
                <polyline id="Shape" fill="#653A1D" points="18.75 58.75 18.75 50 23.75 50 23.75 58.75"></polyline>
                <rect id="Rectangle-path" fill="#98572C" x="18.75" y="50" width="2.5" height="8.75"></rect>
                <rect id="Rectangle-path" fill="#653A1D" x="18.75" y="63.75" width="5" height="11.25"></rect>
                <rect id="Rectangle-path" fill="#98572C" x="18.75" y="63.75" width="2.5" height="11.25"></rect>
                <rect id="Rectangle-path" fill="#653A1D" x="51.25" y="63.75" width="5" height="11.25"></rect>
                <rect id="Rectangle-path" fill="#98572C" x="51.25" y="63.75" width="2.5" height="11.25"></rect>
                <rect id="Rectangle-path" fill="#98572C" x="13.75" y="45" width="47.5" height="5"></rect>
                <rect id="Rectangle-path" fill="#CA743A" x="13.75" y="45" width="43.75" height="5"></rect>
                <rect id="Rectangle-path" fill="#98572C" x="6.25" y="58.75" width="62.5" height="5"></rect>
                <rect id="Rectangle-path" fill="#CA743A" x="6.25" y="58.75" width="58.75" height="5"></rect>
                <circle id="Oval" fill="#B19231" cx="67.5" cy="7.5" r="7.5"></circle>
                <ellipse id="Oval" fill="#ECC341" cx="65.625" cy="7.5" rx="5.625" ry="7.25375"></ellipse>
                <path d="M3.75,12.5 C1.67875,12.5 0,10.82125 0,8.75 C0,6.67875 1.67875,5 3.75,5 C3.82625,5 3.8975,5.0175 3.9725,5.0225 C4.4825,3.5575 5.86125,2.5 7.5,2.5 C8.565,2.5 9.52125,2.94875 10.20375,3.6625 C10.7925,1.555 12.705,0 15,0 C17.76125,0 20,2.23875 20,5 C20,5.08125 19.98,5.15625 19.97625,5.2375 C20.375,5.0925 20.8,5 21.25,5 C23.32125,5 25,6.67875 25,8.75 C25,10.82125 23.32125,12.5 21.25,12.5 L3.75,12.5 Z" id="Shape" fill="#6DA6E9"></path>
                <path d="M15,3.75 C12.705,3.75 10.7925,5.305 10.20375,7.4125 C9.52125,6.69875 8.565,6.25 7.5,6.25 C5.86125,6.25 4.4825,7.3075 3.9725,8.7725 C3.8975,8.7675 3.82625,8.75 3.75,8.75 C2.365,8.75 1.17,9.50875 0.52,10.625 C1.17,11.74125 2.365,12.5 3.75,12.5 L21.25,12.5 C22.635,12.5 23.83,11.74125 24.48,10.625 C23.83,9.50875 22.635,8.75 21.25,8.75 C20.8,8.75 20.375,8.8425 19.97625,8.9875 C19.98,8.90625 20,8.83125 20,8.75 C20,5.98875 17.76125,3.75 15,3.75 Z" id="Shape" fill="#91BCEE"></path>
                <path d="M63.75,17.5 C65.82125,17.5 67.5,15.82125 67.5,13.75 C67.5,11.67875 65.82125,10 63.75,10 C63.67375,10 63.6025,10.0175 63.5275,10.0225 C63.0175,8.5575 61.63875,7.5 60,7.5 C58.935,7.5 57.97875,7.94875 57.29625,8.6625 C56.7075,6.555 54.795,5 52.5,5 C49.73875,5 47.5,7.23875 47.5,10 C47.5,10.08125 47.52,10.15625 47.52375,10.2375 C47.125,10.0925 46.7,10 46.25,10 C44.17875,10 42.5,11.67875 42.5,13.75 C42.5,15.82125 44.17875,17.5 46.25,17.5 L63.75,17.5 Z" id="Shape" fill="#6DA6E9"></path>
                <path d="M52.5,8.75 C54.795,8.75 56.7075,10.305 57.29625,12.4125 C57.97875,11.69875 58.935,11.25 60,11.25 C61.63875,11.25 63.0175,12.3075 63.5275,13.7725 C63.6025,13.7675 63.67375,13.75 63.75,13.75 C65.135,13.75 66.33,14.50875 66.98,15.625 C66.33,16.74125 65.135,17.5 63.75,17.5 L46.25,17.5 C44.865,17.5 43.67,16.74125 43.02,15.625 C43.67,14.50875 44.865,13.75 46.25,13.75 C46.7,13.75 47.125,13.8425 47.52375,13.9875 C47.52,13.90625 47.5,13.83125 47.5,13.75 C47.5,10.98875 49.73875,8.75 52.5,8.75 Z" id="Shape" fill="#91BCEE"></path>
                <path d="M53.75,27.5 L51.25,27.5 L51.25,22.5 C51.25,21.81 51.80875,21.25 52.5,21.25 L57.5,21.25 L57.5,23.75 L53.75,23.75 L53.75,27.5 Z" id="Shape" fill="#606060"></path>
                <path d="M10,20 L7.5,20 C7.50125,19.1 6.485,18.42875 5.63,18.92625 C5.24,19.15375 4.76125,19.15375 4.37,18.92625 C3.515,18.42625 2.5,19.09875 2.5,20 L0,20 C0,17.9325 1.6825,16.25 3.75,16.25 C4.17375,16.25 4.59625,16.32625 5,16.4725 C5.40375,16.32625 5.82625,16.25 6.25,16.25 C8.3175,16.25 10,17.9325 10,20 Z" id="Shape" fill="#606060"></path>
                <path d="M38.75,7.5 L36.25,7.5 C36.25125,6.6 35.235,5.92875 34.38,6.42625 C33.99,6.65375 33.51125,6.65375 33.12,6.42625 C32.265,5.92625 31.25,6.59875 31.25,7.5 L28.75,7.5 C28.75,5.4325 30.4325,3.75 32.5,3.75 C32.92375,3.75 33.34625,3.82625 33.75,3.9725 C34.15375,3.82625 34.57625,3.75 35,3.75 C37.0675,3.75 38.75,5.4325 38.75,7.5 Z" id="Shape" fill="#606060"></path>
            </g>
        </g>
    </g>
</svg>