<?xml version="1.0" encoding="UTF-8"?>
<svg width="82px" height="67px" viewBox="0 0 82 67" version="1.1" xmlns="http://www.w3.org/2000/svg" xmlns:xlink="http://www.w3.org/1999/xlink">
    <!-- Generator: Sketch 47.1 (45422) - http://www.bohemiancoding.com/sketch -->
    <title>private-courtyard</title>
    <desc>Created with Sketch.</desc>
    <defs></defs>
    <g id="Page-1" stroke="none" stroke-width="1" fill="none" fill-rule="evenodd">
        <g id="2-6-1-alicante-guest-houses" transform="translate(-525.000000, -1809.000000)">
            <g id="private-courtyard" transform="translate(525.000000, 1809.000000)">
                <g id="forest" transform="translate(8.000000, 0.000000)">
                    <circle id="Oval" fill="#88C057" fill-rule="nonzero" cx="39.345" cy="26.989" r="13"></circle>
                    <path d="M56.995,0.5 L50.373,20.127 C51.616,22.12 52.346,24.467 52.346,26.989 C52.346,31.628 49.908,35.688 46.252,37.989 L56.995,37.989 L69.644,37.989 L56.995,0.5 Z" id="Shape" fill="#659C35" fill-rule="nonzero"></path>
                    <path d="M15.72,17.75 C17.164,17.75 18.345,19.044 18.345,20.625 L18.345,20.625 C18.345,22.206 17.164,23.5 15.72,23.5 L4.47,23.5 L4.095,23.5 C2.024,23.5 0.345,21.661 0.345,19.393 C0.345,17.125 2.024,15.286 4.095,15.286 C4.095,15.286 5.829,12 10.095,12 C12.767,12 15.345,13.489 15.345,17.75 L15.72,17.75 Z" id="Shape" fill="#C6E2F7" fill-rule="nonzero"></path>
                    <path d="M36.345,31.989 L39.345,34.989" id="Shape" stroke="#6C4127" stroke-width="2" stroke-linecap="round"></path>
                    <path d="M42.345,31.989 L39.345,34.989" id="Shape" stroke="#6C4127" stroke-width="2" stroke-linecap="round"></path>
                    <path d="M39.345,34.989 L39.345,48.989" id="Shape" stroke="#6C4127" stroke-width="2" stroke-linecap="round"></path>
                    <path d="M54.345,31.989 L57.345,34.989" id="Shape" stroke="#6C4127" stroke-width="2" stroke-linecap="round"></path>
                    <path d="M60.345,31.989 L57.345,34.989" id="Shape" stroke="#6C4127" stroke-width="2" stroke-linecap="round"></path>
                    <path d="M57.345,34.989 L57.345,48.989" id="Shape" stroke="#6C4127" stroke-width="2" stroke-linecap="round"></path>
                </g>
                <rect id="Rectangle-23" fill="#E2E2E2" x="2" y="45" width="77" height="22"></rect>
                <rect id="Rectangle-23-Copy" fill="#D1D1D1" x="0" y="45" width="82" height="5"></rect>
            </g>
        </g>
    </g>
</svg>