<?xml version="1.0" encoding="UTF-8"?>
<svg width="164px" height="50px" viewBox="0 0 164 50" version="1.1" xmlns="http://www.w3.org/2000/svg" xmlns:xlink="http://www.w3.org/1999/xlink">
    <!-- Generator: Sketch 47.1 (45422) - http://www.bohemiancoding.com/sketch -->
    <title>pups-logo</title>
    <desc>Created with Sketch.</desc>
    <defs></defs>
    <g id="Page-1" stroke="none" stroke-width="1" fill="none" fill-rule="evenodd">
        <g id="2-1-projects" transform="translate(-638.000000, -1603.000000)">
            <g id="pups-logo" transform="translate(638.000000, 1603.000000)">
                <path d="M158.313,24.9276 C156.315,29.8016 155.043,30.9826 153.105,30.9826 C152.076,30.9826 151.258,30.6196 150.532,30.1356 L151.319,28.2886 C151.773,28.5006 152.288,28.7426 152.833,28.7426 C153.983,28.7426 154.831,27.8336 155.739,25.6546 L156.042,24.9276 L149.502,11.3026 L152.409,11.3026 L156.405,19.9616 C156.708,20.6586 156.951,21.3246 157.223,22.0206 C157.405,21.3546 157.617,20.6586 157.859,19.9316 L161.007,11.3026 L163.763,11.3026 L158.313,24.9276 Z M141.428,13.2706 C139.824,13.2706 138.34,14.0886 137.492,15.1476 L137.492,21.8996 C138.703,22.7176 139.824,22.9596 141.125,22.9596 C144.032,22.9596 145.849,20.8706 145.849,17.9936 C145.849,15.2386 144.244,13.2706 141.428,13.2706 Z M141.337,25.2306 C139.884,25.2306 138.461,24.9276 137.492,24.2916 L137.492,30.9826 L135.07,30.9826 L135.07,11.3026 L137.492,11.3026 L137.492,12.9076 C138.431,11.8176 140.248,10.9996 142.125,10.9996 C146,10.9996 148.422,13.8766 148.422,17.9036 C148.422,22.0506 145.606,25.2306 141.337,25.2306 Z M129.832,25.0186 C128.772,25.0186 128.106,24.2006 128.106,23.2926 C128.106,22.5056 128.772,21.6876 129.832,21.6876 C130.771,21.6876 131.437,22.5056 131.437,23.2926 C131.437,24.2006 130.771,25.0186 129.832,25.0186 Z M120.083,13.2706 C117.63,13.2706 115.42,15.2386 115.42,18.1156 C115.42,21.1126 117.63,22.9596 120.325,22.9596 C121.96,22.9596 123.323,22.2326 124.231,21.2036 L125.381,22.9596 C124.231,24.4426 122.232,25.2306 120.143,25.2306 C115.814,25.2306 112.847,22.4146 112.847,18.1156 C112.847,14.1486 115.753,10.9996 119.75,10.9996 C121.93,10.9996 123.837,11.5146 125.109,12.7866 L123.988,14.6936 C122.838,13.6346 121.506,13.2706 120.083,13.2706 Z M106.963,24.9276 L106.963,13.5736 L99.545,13.5736 L99.545,24.9276 L97.122,24.9276 L97.122,11.3026 L109.385,11.3026 L109.385,24.9276 L106.963,24.9276 Z M89.2,24.9276 C87.202,29.8016 85.93,30.9826 83.993,30.9826 C82.963,30.9826 82.145,30.6196 81.419,30.1356 L82.206,28.2886 C82.66,28.5006 83.175,28.7426 83.72,28.7426 C84.87,28.7426 85.718,27.8336 86.627,25.6546 L86.929,24.9276 L80.389,11.3026 L83.296,11.3026 L87.292,19.9616 C87.595,20.6586 87.838,21.3246 88.11,22.0206 C88.292,21.3546 88.504,20.6586 88.746,19.9316 L91.895,11.3026 L94.65,11.3026 L89.2,24.9276 Z M74.415,24.9276 L74.415,6.1556 L62.909,6.1556 L62.909,24.9276 L60.336,24.9276 L60.336,3.7336 L76.988,3.7336 L76.988,24.9276 L74.415,24.9276 Z" id="Fill-1" fill="#404040"></path>
                <path d="M24.6833,0 C38.3153,0 49.3663,11.06 49.3663,24.703 C49.3663,38.347 38.3153,49.407 24.6833,49.407 C11.0513,49.407 0.0003,38.347 0.0003,24.703 C0.0003,11.06 11.0513,0 24.6833,0" id="Fill-3" fill="#F5BF21"></path>
                <path d="M24.6833,4.4876 C35.8343,4.4876 44.8743,13.5386 44.8743,24.7036 C44.8743,35.8686 35.8343,44.9196 24.6833,44.9196 C13.5323,44.9196 4.4923,35.8686 4.4923,24.7036 C4.4923,13.5386 13.5323,4.4876 24.6833,4.4876" id="Fill-5" fill="#404040"></path>
                <path d="M24.6814,6.7338 C34.5954,6.7338 42.6324,14.7788 42.6324,24.7038 C42.6324,34.6278 34.5954,42.6728 24.6814,42.6728 C14.7664,42.6728 6.7294,34.6278 6.7294,24.7038 C6.7294,14.7788 14.7664,6.7338 24.6814,6.7338" id="Fill-7" fill="#FFFFFF"></path>
                <path d="M28.4227,23.9451 C27.3937,23.9451 26.8647,23.2721 26.8647,22.4431 C26.8647,21.6131 27.3827,20.9401 28.4117,20.9401 C29.4407,20.9401 29.9597,21.6131 29.9597,22.4431 C29.9597,23.2721 29.4517,23.9451 28.4227,23.9451 M20.9427,23.9451 C19.9137,23.9451 19.3847,23.2721 19.3847,22.4431 C19.3847,21.6131 19.9037,20.9401 20.9327,20.9401 C21.9607,20.9401 22.4797,21.6131 22.4797,22.4431 C22.4797,23.2721 21.9717,23.9451 20.9427,23.9451 M32.2487,13.1331 C31.9657,13.2331 31.6777,13.2151 31.4227,13.1241 C27.6687,12.5481 24.3157,10.2001 22.5647,6.6581 L25.1517,6.6581 C26.7147,9.0501 29.2457,10.6041 32.0287,10.9531 L32.0277,10.9591 C32.4607,10.9991 32.8477,11.2591 32.9957,11.6751 C33.2027,12.2601 32.8687,12.9121 32.2487,13.1331 M35.1267,30.3911 C33.1167,34.1341 29.1937,36.6811 24.6707,36.6811 C20.0257,36.6811 16.0167,33.9951 14.0587,30.0881 C14.0567,30.0841 14.0547,30.0811 14.0527,30.0781 C14.0407,30.0541 14.0267,30.0311 14.0147,30.0071 L14.0377,29.9941 C13.9997,29.8741 13.9657,29.7491 13.9657,29.6151 C13.9657,28.9541 14.4647,28.4191 15.0797,28.4191 C15.4347,28.4191 15.7377,28.6081 15.9417,28.8871 L15.9567,28.8781 C17.5077,32.1611 20.8227,34.4351 24.6707,34.4351 C28.4347,34.4351 31.6947,32.2621 33.2867,29.0921 L33.2917,29.0961 C33.4747,28.7001 33.8487,28.4231 34.2907,28.4231 C34.9097,28.4231 35.4127,28.9571 35.4127,29.6161 C35.4127,29.9151 35.2987,30.1811 35.1267,30.3911" id="Fill-9" fill="#404040"></path>
                <polygon id="Fill-11" fill="#404040" points="60.5353 33.3211 65.5833 33.3211 65.5833 34.0231 63.4323 34.0231 63.4323 39.4671 62.6863 39.4671 62.6863 34.0231 60.5353 34.0231"></polygon>
                <path d="M66.987,38.896 C67.777,38.896 68.348,38.334 68.348,37.491 C68.348,36.666 67.777,36.087 66.987,36.087 C66.214,36.087 65.626,36.657 65.626,37.491 C65.626,38.317 66.197,38.896 66.987,38.896 M66.987,35.428 C68.251,35.428 69.094,36.306 69.094,37.491 C69.094,38.677 68.251,39.555 66.987,39.555 C65.723,39.555 64.88,38.677 64.88,37.491 C64.88,36.306 65.723,35.428 66.987,35.428" id="Fill-13" fill="#404040"></path>
                <path d="M70.8048,37.6931 L70.8048,38.9051 C71.0158,38.9131 71.2968,38.9311 71.6128,38.9311 C72.2618,38.9311 72.6218,38.7121 72.6218,38.2991 C72.6218,37.8861 72.2798,37.6931 71.6478,37.6931 L70.8048,37.6931 Z M70.8048,36.0781 L70.8048,37.2541 L71.6918,37.2541 C72.1568,37.2541 72.4908,37.0261 72.4908,36.6401 C72.4908,36.2091 72.0958,36.0511 71.5858,36.0511 C71.2698,36.0511 70.9808,36.0691 70.8048,36.0781 L70.8048,36.0781 Z M70.1028,35.5161 C70.4448,35.5161 70.9628,35.4811 71.5338,35.4811 C72.6398,35.4811 73.2368,35.7881 73.2368,36.4991 C73.2368,36.9641 72.9208,37.3331 72.4468,37.4031 L72.4468,37.4211 C73.0788,37.5351 73.3688,37.8601 73.3688,38.3521 C73.3688,39.0981 72.7798,39.5021 71.5508,39.5021 C71.0598,39.5021 70.4628,39.4661 70.1028,39.4661 L70.1028,35.5161 Z" id="Fill-15" fill="#404040"></path>
                <path d="M76.6334,38.3868 L76.6334,37.8868 C76.3874,37.7108 76.0894,37.6228 75.7464,37.6228 C75.3254,37.6228 74.9034,37.8158 74.9034,38.2728 C74.9034,38.6498 75.1584,38.8958 75.6154,38.8958 C76.1334,38.8958 76.4314,38.6238 76.6334,38.3868 L76.6334,38.3868 Z M74.4654,35.7878 C74.8164,35.5688 75.2904,35.4278 75.7814,35.4278 C76.9054,35.4278 77.3004,36.0158 77.3004,37.0438 L77.3004,39.4668 L76.6334,39.4668 L76.6334,38.9578 C76.3964,39.2558 76.0184,39.5278 75.3694,39.5278 C74.6494,39.5278 74.1574,39.0718 74.1574,38.3078 C74.1574,37.4998 74.7984,37.0528 75.6504,37.0528 C75.9574,37.0528 76.3704,37.1138 76.6334,37.3068 C76.6334,36.5698 76.5194,36.0598 75.7374,36.0598 C75.2554,36.0598 74.9654,36.1828 74.6494,36.3498 L74.4654,35.7878 Z" id="Fill-17" fill="#404040"></path>
                <path d="M79.1784,36.6309 L79.1784,38.5889 C79.5294,38.8259 79.8544,38.8959 80.2314,38.8959 C81.0744,38.8959 81.6014,38.2899 81.6014,37.4559 C81.6014,36.6569 81.1364,36.0869 80.3194,36.0869 C79.8544,36.0869 79.4244,36.3239 79.1784,36.6309 L79.1784,36.6309 Z M78.4764,35.5159 L79.1784,35.5159 L79.1784,35.9809 C79.4504,35.6649 79.9774,35.4279 80.5214,35.4279 C81.6454,35.4279 82.3474,36.2619 82.3474,37.4299 C82.3474,38.6329 81.5314,39.5549 80.2934,39.5549 C79.8724,39.5549 79.4594,39.4669 79.1784,39.2819 L79.1784,41.2229 L78.4764,41.2229 L78.4764,35.5159 Z" id="Fill-19" fill="#404040"></path>
                <path d="M87.026,39.467 L87.728,39.467 L87.728,35.516 L87.026,35.516 L87.026,39.467 Z M84.059,37.36 L84.059,38.808 L84.568,38.808 C85.27,38.808 85.525,38.554 85.525,38.088 C85.525,37.614 85.253,37.36 84.577,37.36 L84.059,37.36 Z M83.356,35.516 L84.059,35.516 L84.059,36.701 L84.708,36.701 C85.92,36.701 86.271,37.36 86.271,38.062 C86.271,38.756 85.867,39.467 84.629,39.467 L83.356,39.467 L83.356,35.516 Z" id="Fill-21" fill="#404040"></path>
                <path d="M91.6599,38.8081 L93.5739,38.8081 L93.5739,36.1741 L92.2389,36.1741 L92.1959,36.8331 C92.1079,37.8421 91.8449,38.5621 91.6599,38.8081 L91.6599,38.8081 Z M90.4219,38.8081 L90.9139,38.8081 C91.1769,38.4751 91.4489,37.6401 91.5199,36.5601 L91.5809,35.5161 L94.2759,35.5161 L94.2759,38.8081 L94.9349,38.8081 L94.9349,40.4321 L94.2759,40.4321 L94.2759,39.4671 L91.0809,39.4671 L91.0809,40.4321 L90.4219,40.4321 L90.4219,38.8081 Z" id="Fill-23" fill="#404040"></path>
                <path d="M98.4014,36.2184 L97.0144,36.2184 L96.9704,36.8854 C96.7944,39.1334 96.1974,39.5194 95.3814,39.5194 L95.3284,38.8344 C95.6274,38.8604 96.1894,38.5714 96.2854,36.7454 L96.3554,35.5164 L99.1034,35.5164 L99.1034,39.4664 L98.4014,39.4664 L98.4014,36.2184 Z" id="Fill-24" fill="#404040"></path>
                <path d="M101.8155,37.4913 L102.6235,37.4913 L102.6235,36.1743 L101.9825,36.1743 C101.3235,36.1743 101.0775,36.4813 101.0775,36.8503 C101.0775,37.2543 101.4645,37.4913 101.8155,37.4913 L101.8155,37.4913 Z M103.3255,35.5163 L103.3255,39.4663 L102.6235,39.4663 L102.6235,38.1503 L101.8595,38.1503 L100.8935,39.4663 L100.0425,39.4663 L101.1835,37.9743 C100.7795,37.8773 100.3315,37.4823 100.3315,36.8323 C100.3315,36.1573 100.7795,35.5163 102.0965,35.5163 L103.3255,35.5163 Z" id="Fill-25" fill="#404040"></path>
                <path d="M107.0552,37.14 L109.4522,37.14 C109.4172,36.49 108.9952,36.087 108.3112,36.087 C107.5912,36.087 107.1342,36.534 107.0552,37.14 L107.0552,37.14 Z M109.9082,39.036 C109.5222,39.388 108.9512,39.554 108.4252,39.554 C107.1432,39.554 106.3092,38.738 106.3092,37.491 C106.3092,36.341 107.0462,35.428 108.3452,35.428 C109.3642,35.428 110.1802,36.148 110.1802,37.237 C110.1802,37.43 110.1632,37.588 110.1372,37.711 L107.0992,37.711 C107.1602,38.457 107.7052,38.896 108.4772,38.896 C108.9862,38.896 109.4342,38.72 109.6892,38.483 L109.9082,39.036 Z" id="Fill-26" fill="#404040"></path>
                <path d="M114.4554,38.896 C114.1214,39.326 113.5424,39.555 112.9364,39.555 C111.6814,39.555 110.8204,38.738 110.8204,37.491 C110.8204,36.341 111.6634,35.428 112.8224,35.428 C113.4544,35.428 114.0074,35.577 114.3764,35.946 L114.0514,36.499 C113.7174,36.192 113.3314,36.087 112.9194,36.087 C112.2074,36.087 111.5674,36.657 111.5674,37.491 C111.5674,38.36 112.2074,38.896 112.9894,38.896 C113.4634,38.896 113.8584,38.685 114.1214,38.387 L114.4554,38.896 Z" id="Fill-27" fill="#404040"></path>
                <polygon id="Fill-28" fill="#404040" points="114.8143 35.5159 118.4133 35.5159 118.4133 36.2179 116.9653 36.2179 116.9653 39.4669 116.2623 39.4669 116.2623 36.2179 114.8143 36.2179"></polygon>
                <path d="M119.5279,37.14 L121.9249,37.14 C121.8899,36.49 121.4679,36.087 120.7839,36.087 C120.0639,36.087 119.6069,36.534 119.5279,37.14 L119.5279,37.14 Z M122.3809,39.036 C121.9949,39.388 121.4239,39.554 120.8979,39.554 C119.6159,39.554 118.7819,38.738 118.7819,37.491 C118.7819,36.341 119.5189,35.428 120.8179,35.428 C121.8369,35.428 122.6529,36.148 122.6529,37.237 C122.6529,37.43 122.6359,37.588 122.6099,37.711 L119.5719,37.711 C119.6329,38.457 120.1779,38.896 120.9499,38.896 C121.4589,38.896 121.9069,38.72 122.1619,38.483 L122.3809,39.036 Z" id="Fill-29" fill="#404040"></path>
                <path d="M126.9279,38.896 C126.5939,39.326 126.0149,39.555 125.4089,39.555 C124.1539,39.555 123.2929,38.738 123.2929,37.491 C123.2929,36.341 124.1359,35.428 125.2949,35.428 C125.9269,35.428 126.4799,35.577 126.8489,35.946 L126.5239,36.499 C126.1899,36.192 125.8039,36.087 125.3919,36.087 C124.6809,36.087 124.0399,36.657 124.0399,37.491 C124.0399,38.36 124.6809,38.896 125.4619,38.896 C125.9359,38.896 126.3309,38.685 126.5939,38.387 L126.9279,38.896 Z" id="Fill-30" fill="#404040"></path>
                <polygon id="Fill-31" fill="#404040" points="127.2868 35.5159 130.8858 35.5159 130.8858 36.2179 129.4378 36.2179 129.4378 39.4669 128.7348 39.4669 128.7348 36.2179 127.2868 36.2179"></polygon>
                <path d="M132.3514,37.6931 L132.3514,38.9051 C132.5624,38.9131 132.8434,38.9311 133.1594,38.9311 C133.8084,38.9311 134.1684,38.7121 134.1684,38.2991 C134.1684,37.8861 133.8264,37.6931 133.1944,37.6931 L132.3514,37.6931 Z M132.3514,36.0781 L132.3514,37.2541 L133.2384,37.2541 C133.7034,37.2541 134.0374,37.0261 134.0374,36.6401 C134.0374,36.2091 133.6424,36.0511 133.1324,36.0511 C132.8164,36.0511 132.5274,36.0691 132.3514,36.0781 L132.3514,36.0781 Z M131.6494,35.5161 C131.9914,35.5161 132.5094,35.4811 133.0804,35.4811 C134.1864,35.4811 134.7834,35.7881 134.7834,36.4991 C134.7834,36.9641 134.4674,37.3331 133.9934,37.4031 L133.9934,37.4211 C134.6254,37.5351 134.9154,37.8601 134.9154,38.3521 C134.9154,39.0981 134.3264,39.5021 133.0974,39.5021 C132.6064,39.5021 132.0094,39.4661 131.6494,39.4661 L131.6494,35.5161 Z" id="Fill-32" fill="#404040"></path>
                <path d="M136.468,37.14 L138.865,37.14 C138.83,36.49 138.408,36.087 137.724,36.087 C137.004,36.087 136.547,36.534 136.468,37.14 L136.468,37.14 Z M139.321,39.036 C138.935,39.388 138.364,39.554 137.838,39.554 C136.556,39.554 135.722,38.738 135.722,37.491 C135.722,36.341 136.459,35.428 137.758,35.428 C138.777,35.428 139.593,36.148 139.593,37.237 C139.593,37.43 139.576,37.588 139.55,37.711 L136.512,37.711 C136.573,38.457 137.118,38.896 137.89,38.896 C138.399,38.896 138.847,38.72 139.102,38.483 L139.321,39.036 Z" id="Fill-33" fill="#404040"></path>
                <polygon id="Fill-34" fill="#404040" points="143.4465 37.7986 141.2515 37.7986 141.2515 39.4666 140.5495 39.4666 140.5495 35.5156 141.2515 35.5156 141.2515 37.1396 143.4465 37.1396 143.4465 35.5156 144.1485 35.5156 144.1485 39.4666 143.4465 39.4666"></polygon>
                <polygon id="Fill-35" fill="#404040" points="148.3178 37.7986 146.1228 37.7986 146.1228 39.4666 145.4208 39.4666 145.4208 35.5156 146.1228 35.5156 146.1228 37.1396 148.3178 37.1396 148.3178 35.5156 149.0198 35.5156 149.0198 39.4666 148.3178 39.4666"></polygon>
                <path d="M152.1359,38.896 C152.9259,38.896 153.4969,38.334 153.4969,37.491 C153.4969,36.666 152.9259,36.087 152.1359,36.087 C151.3629,36.087 150.7749,36.657 150.7749,37.491 C150.7749,38.317 151.3459,38.896 152.1359,38.896 M152.1359,35.428 C153.3999,35.428 154.2429,36.306 154.2429,37.491 C154.2429,38.677 153.3999,39.555 152.1359,39.555 C150.8719,39.555 150.0289,38.677 150.0289,37.491 C150.0289,36.306 150.8719,35.428 152.1359,35.428" id="Fill-36" fill="#404040"></path>
                <polygon id="Fill-37" fill="#404040" points="155.2513 35.5159 157.7533 35.5159 157.7533 36.1749 155.9533 36.1749 155.9533 39.4669 155.2513 39.4669"></polygon>
                <path d="M160.1408,38.896 C160.9308,38.896 161.5018,38.334 161.5018,37.491 C161.5018,36.666 160.9308,36.087 160.1408,36.087 C159.3678,36.087 158.7798,36.657 158.7798,37.491 C158.7798,38.317 159.3508,38.896 160.1408,38.896 M160.1408,35.428 C161.4048,35.428 162.2478,36.306 162.2478,37.491 C162.2478,38.677 161.4048,39.555 160.1408,39.555 C158.8768,39.555 158.0338,38.677 158.0338,37.491 C158.0338,36.306 158.8768,35.428 160.1408,35.428" id="Fill-38" fill="#404040"></path>
                <path d="M61.7818,45.4083 L61.7818,47.3663 C62.1328,47.6033 62.4578,47.6733 62.8358,47.6733 C63.6778,47.6733 64.2048,47.0673 64.2048,46.2333 C64.2048,45.4343 63.7398,44.8643 62.9228,44.8643 C62.4578,44.8643 62.0278,45.1013 61.7818,45.4083 L61.7818,45.4083 Z M61.0798,44.2933 L61.7818,44.2933 L61.7818,44.7583 C62.0538,44.4423 62.5808,44.2053 63.1248,44.2053 C64.2488,44.2053 64.9508,45.0393 64.9508,46.2073 C64.9508,47.4103 64.1348,48.3323 62.8968,48.3323 C62.4758,48.3323 62.0628,48.2443 61.7818,48.0593 L61.7818,50.0003 L61.0798,50.0003 L61.0798,44.2933 Z" id="Fill-39" fill="#404040"></path>
                <path d="M67.8035,47.6734 C68.5935,47.6734 69.1645,47.1114 69.1645,46.2684 C69.1645,45.4434 68.5935,44.8644 67.8035,44.8644 C67.0305,44.8644 66.4425,45.4344 66.4425,46.2684 C66.4425,47.0944 67.0135,47.6734 67.8035,47.6734 M67.8035,44.2054 C69.0675,44.2054 69.9105,45.0834 69.9105,46.2684 C69.9105,47.4544 69.0675,48.3324 67.8035,48.3324 C66.5395,48.3324 65.6965,47.4544 65.6965,46.2684 C65.6965,45.0834 66.5395,44.2054 67.8035,44.2054" id="Fill-40" fill="#404040"></path>
                <path d="M71.4546,47.5856 L73.3686,47.5856 L73.3686,44.9516 L72.0336,44.9516 L71.9906,45.6106 C71.9026,46.6196 71.6386,47.3396 71.4546,47.5856 L71.4546,47.5856 Z M70.2166,47.5856 L70.7086,47.5856 C70.9716,47.2526 71.2436,46.4176 71.3146,45.3376 L71.3756,44.2936 L74.0706,44.2936 L74.0706,47.5856 L74.7296,47.5856 L74.7296,49.2096 L74.0706,49.2096 L74.0706,48.2446 L70.8756,48.2446 L70.8756,49.2096 L70.2166,49.2096 L70.2166,47.5856 Z" id="Fill-41" fill="#404040"></path>
                <polygon id="Fill-42" fill="#404040" points="75.4921 48.2441 75.4921 44.2931 76.1941 44.2931 76.1941 47.2341 78.4771 44.2931 79.1791 44.2931 79.1791 48.2441 78.4771 48.2441 78.4771 45.3031 76.1941 48.2441"></polygon>
                <polygon id="Fill-43" fill="#404040" points="79.9509 44.2934 83.5499 44.2934 83.5499 44.9954 82.1019 44.9954 82.1019 48.2444 81.3989 48.2444 81.3989 44.9954 79.9509 44.9954"></polygon>
                <path d="M84.6643,45.9175 L87.0613,45.9175 C87.0263,45.2675 86.6043,44.8645 85.9203,44.8645 C85.2003,44.8645 84.7433,45.3115 84.6643,45.9175 L84.6643,45.9175 Z M87.5173,47.8135 C87.1313,48.1655 86.5603,48.3315 86.0343,48.3315 C84.7523,48.3315 83.9183,47.5155 83.9183,46.2685 C83.9183,45.1185 84.6553,44.2055 85.9543,44.2055 C86.9733,44.2055 87.7893,44.9255 87.7893,46.0145 C87.7893,46.2075 87.7723,46.3655 87.7463,46.4885 L84.7083,46.4885 C84.7693,47.2345 85.3143,47.6735 86.0863,47.6735 C86.5953,47.6735 87.0433,47.4975 87.2983,47.2605 L87.5173,47.8135 Z" id="Fill-44" fill="#404040"></path>
                <path d="M91.2917,44.9958 L89.9047,44.9958 L89.8607,45.6628 C89.6847,47.9108 89.0877,48.2968 88.2717,48.2968 L88.2187,47.6118 C88.5177,47.6378 89.0797,47.3488 89.1757,45.5228 L89.2457,44.2938 L91.9937,44.2938 L91.9937,48.2438 L91.2917,48.2438 L91.2917,44.9958 Z" id="Fill-45" fill="#404040"></path>
                <path d="M93.9597,46.1371 L93.9597,47.5851 L94.5387,47.5851 C95.2327,47.5851 95.4957,47.3311 95.4957,46.8661 C95.4957,46.3921 95.2237,46.1371 94.5477,46.1371 L93.9597,46.1371 Z M93.2577,44.2931 L93.9597,44.2931 L93.9597,45.4781 L94.6797,45.4781 C95.8907,45.4781 96.2427,46.1371 96.2427,46.8391 C96.2427,47.5331 95.8387,48.2441 94.5917,48.2441 L93.2577,48.2441 L93.2577,44.2931 Z" id="Fill-46" fill="#404040"></path>
                <path d="M100.4995,47.6734 C100.1655,48.1034 99.5865,48.3324 98.9805,48.3324 C97.7255,48.3324 96.8645,47.5154 96.8645,46.2684 C96.8645,45.1184 97.7075,44.2054 98.8665,44.2054 C99.4985,44.2054 100.0515,44.3544 100.4205,44.7234 L100.0955,45.2764 C99.7615,44.9694 99.3755,44.8644 98.9635,44.8644 C98.2515,44.8644 97.6115,45.4344 97.6115,46.2684 C97.6115,47.1374 98.2515,47.6734 99.0335,47.6734 C99.5075,47.6734 99.9025,47.4624 100.1655,47.1644 L100.4995,47.6734 Z" id="Fill-47" fill="#404040"></path>
                <polygon id="Fill-48" fill="#404040" points="100.8584 44.2934 104.4574 44.2934 104.4574 44.9954 103.0094 44.9954 103.0094 48.2444 102.3064 48.2444 102.3064 44.9954 100.8584 44.9954"></polygon>
                <path d="M105.923,46.4706 L105.923,47.6826 C106.134,47.6906 106.415,47.7086 106.731,47.7086 C107.38,47.7086 107.74,47.4896 107.74,47.0766 C107.74,46.6636 107.398,46.4706 106.766,46.4706 L105.923,46.4706 Z M105.923,44.8556 L105.923,46.0316 L106.81,46.0316 C107.275,46.0316 107.609,45.8036 107.609,45.4176 C107.609,44.9866 107.214,44.8286 106.704,44.8286 C106.388,44.8286 106.099,44.8466 105.923,44.8556 L105.923,44.8556 Z M105.221,44.2936 C105.563,44.2936 106.081,44.2586 106.652,44.2586 C107.758,44.2586 108.355,44.5656 108.355,45.2766 C108.355,45.7416 108.039,46.1106 107.565,46.1806 L107.565,46.1986 C108.197,46.3126 108.487,46.6376 108.487,47.1296 C108.487,47.8756 107.898,48.2796 106.669,48.2796 C106.178,48.2796 105.581,48.2436 105.221,48.2436 L105.221,44.2936 Z" id="Fill-49" fill="#404040"></path>
                <path d="M111.7516,47.1643 L111.7516,46.6643 C111.5056,46.4883 111.2076,46.4003 110.8646,46.4003 C110.4436,46.4003 110.0216,46.5933 110.0216,47.0503 C110.0216,47.4273 110.2766,47.6733 110.7336,47.6733 C111.2516,47.6733 111.5496,47.4013 111.7516,47.1643 L111.7516,47.1643 Z M109.5836,44.5653 C109.9346,44.3463 110.4086,44.2053 110.8996,44.2053 C112.0236,44.2053 112.4186,44.7933 112.4186,45.8213 L112.4186,48.2443 L111.7516,48.2443 L111.7516,47.7353 C111.5146,48.0333 111.1366,48.3053 110.4876,48.3053 C109.7676,48.3053 109.2756,47.8493 109.2756,47.0853 C109.2756,46.2773 109.9166,45.8303 110.7686,45.8303 C111.0756,45.8303 111.4886,45.8913 111.7516,46.0843 C111.7516,45.3473 111.6376,44.8373 110.8556,44.8373 C110.3736,44.8373 110.0836,44.9603 109.7676,45.1273 L109.5836,44.5653 Z" id="Fill-50" fill="#404040"></path>
            </g>
        </g>
    </g>
</svg>