<?xml version="1.0" encoding="UTF-8"?>
<svg width="200px" height="200px" viewBox="0 0 200 200" version="1.1" xmlns="http://www.w3.org/2000/svg" xmlns:xlink="http://www.w3.org/1999/xlink">
    <!-- Generator: Sketch 47.1 (45422) - http://www.bohemiancoding.com/sketch -->
    <title>real-estate</title>
    <desc>Created with Sketch.</desc>
    <defs>
        <path d="M199.983984,100 C200.962891,155.228516 156.992188,200 101.772656,200 C46.553125,200 0.994921875,155.228516 0.016015625,100 C-0.962890625,44.7714844 43.0078125,0 98.2273438,0 C153.446875,0 199.005078,44.7714844 199.983984,100 Z" id="path-1"></path>
        <filter x="-7.7%" y="-7.8%" width="115.5%" height="115.5%" filterUnits="objectBoundingBox" id="filter-2">
            <feGaussianBlur stdDeviation="15" in="SourceAlpha" result="shadowBlurInner1"></feGaussianBlur>
            <feOffset dx="0" dy="1" in="shadowBlurInner1" result="shadowOffsetInner1"></feOffset>
            <feComposite in="shadowOffsetInner1" in2="SourceAlpha" operator="arithmetic" k2="-1" k3="1" result="shadowInnerInner1"></feComposite>
            <feColorMatrix values="0 0 0 0 0   0 0 0 0 0   0 0 0 0 0  0 0 0 0.1 0" type="matrix" in="shadowInnerInner1"></feColorMatrix>
        </filter>
    </defs>
    <g id="Page-1" stroke="none" stroke-width="1" fill="none" fill-rule="evenodd">
        <g id="4-1-about-us" transform="translate(-327.000000, -634.000000)" fill-rule="nonzero">
            <g id="real-estate" transform="translate(327.000000, 634.000000)">
                <g id="Shape">
                    <use fill="#CDEBEE" fill-rule="evenodd" xlink:href="#path-1"></use>
                    <use fill="black" fill-opacity="1" filter="url(#filter-2)" xlink:href="#path-1"></use>
                </g>
                <path d="M186.7375,96.875 L179.333203,96.875 L179.333203,86.0351562 L163.863281,86.0351562 L122.213281,86.0351562 L113.437109,77.3925781 L100,90.625 L46.2519531,90.625 L46.2519531,81.25 L24.2863281,81.25 L24.2863281,86.6363281 L17.8710937,86.6363281 L12.1613281,81.0132812 L1.35117187,91.6585937 L39.5085937,101.822656 L120.130859,112.061328 L199.739453,108.670313 C199.934375,105.810156 200.035937,102.923438 199.983984,99.9996094 C199.936719,97.3289063 199.753906,94.6910156 199.501953,92.0730469 L186.7375,92.0730469 L186.7375,96.875 Z" id="Shape" fill="#D7CFAF"></path>
                <path d="M7.9765625,137.5 L42.8804688,137.5 L42.8804688,103.125 L0.150390625,103.125 C0.738671875,115.251953 3.46796875,126.831641 7.9765625,137.5 Z" id="Shape" fill="#FAD2A3"></path>
                <g id="Group" opacity="0.25" transform="translate(0.000000, 103.125000)" fill="#FF8562">
                    <path d="M0.4234375,3.85585937 L36.5335938,3.85585937 L36.5335938,0.047265625 L0.15390625,0.047265625 C0.21640625,1.32382813 0.3140625,2.59140625 0.4234375,3.85585937 Z" id="Shape"></path>
                </g>
                <rect id="Rectangle-path" fill="#FFF4DB" x="42.8800781" y="71.875" width="58.171875" height="65.625"></rect>
                <rect id="Rectangle-path" fill="#754C49" x="42.8800781" y="71.875" width="58.171875" height="12.5"></rect>
                <path d="M199.373437,112.744922 L168.292188,112.744922 L168.292188,137.5 L193.352734,137.5 C196.376953,129.689453 198.426172,121.391016 199.373437,112.744922 Z" id="Shape" fill="#FFF4DB"></path>
                <rect id="Rectangle-path" fill="#FAD2A3" x="117.916016" y="87.5" width="50.3765625" height="50"></rect>
                <g id="Group" opacity="0.25" transform="translate(117.578125, 87.500000)" fill="#FF8562">
                    <rect id="Rectangle-path" x="0.337890625" y="0" width="50.3765625" height="3.80859375"></rect>
                </g>
                <rect id="Rectangle-path" fill="#FFFCEC" x="77.7867188" y="103.125" width="44.4265625" height="34.375"></rect>
                <path d="M20.6070312,159.375 C39.2546875,184.014844 68.7851563,200 101.772266,200 C134.759766,200 163.723437,184.014844 181.497266,159.375 L20.6070312,159.375 Z" id="Shape" fill="#E8A271"></path>
                <path d="M189.152344,146.875 L12.509375,146.875 C14.9097656,151.24375 17.6152344,155.421875 20.6070313,159.375 L181.497656,159.375 C184.349219,155.421875 186.907031,151.24375 189.152344,146.875 Z" id="Shape" fill="#D8C34A"></path>
                <path d="M8.3703125,138.456641 C9.62148437,141.334375 11.0070312,144.140625 12.509375,146.875 L189.152344,146.875 C190.711719,143.840625 192.110156,140.710156 193.353125,137.5 L8.3703125,137.5 L8.3703125,138.456641 Z" id="Shape" fill="#E5AF7C"></path>
                <path d="M8.3703125,138.456641 C8.86015625,139.583984 9.38789062,140.691406 9.91796875,141.796875 L191.561719,141.796875 C192.1875,140.380078 192.791406,138.950781 193.352734,137.5 L8.3703125,137.5 L8.3703125,138.456641 Z" id="Shape" fill="#D0D75B"></path>
                <path d="M87.3066406,27.2640625 C87.3066406,22.7820313 90.9960938,19.1484375 95.5476563,19.1484375 C96.2347656,19.1484375 96.8914063,19.2554688 97.5292969,19.4113281 C99.6796875,17.1246094 102.728516,15.6703125 106.143359,15.6703125 C112.645313,15.6703125 117.916016,20.8609375 117.916016,27.2636719 L87.3066406,27.2636719 L87.3066406,27.2640625 Z" id="Shape" fill="#AFDCE0"></path>
                <path d="M101.355078,30.859375 C101.355078,27.2285156 104.344141,24.2847656 108.03125,24.2847656 C108.587891,24.2847656 109.119922,24.3714844 109.636719,24.4976563 C111.378906,22.6449219 113.848828,21.4671875 116.614844,21.4671875 C121.882031,21.4671875 126.152344,25.6722656 126.152344,30.859375 L101.355078,30.859375 Z" id="Shape" fill="#AFDCE0"></path>
                <path d="M162.292578,69.4675781 C162.292578,66.7230469 164.551953,64.4984375 167.338672,64.4984375 C167.759375,64.4984375 168.161328,64.5640625 168.551953,64.659375 C169.86875,63.2589844 171.735547,62.36875 173.826562,62.36875 C177.807813,62.36875 181.035156,65.5472656 181.035156,69.4675781 L162.292578,69.4675781 Z" id="Shape" fill="#AFDCE0"></path>
                <path d="M63.9335938,62.109375 C63.9335938,59.4269531 66.1417969,57.2527344 68.865625,57.2527344 C69.2765625,57.2527344 69.6699219,57.3167969 70.0515625,57.4101563 C71.3382813,56.0414063 73.1632813,55.1714844 75.2066406,55.1714844 C79.0976563,55.1714844 82.2519531,58.2777344 82.2519531,62.1097656 L63.9335938,62.1097656 L63.9335938,62.109375 Z" id="Shape" fill="#AFDCE0"></path>
                <path d="M48.0507813,47.6863281 C48.0507813,41.18125 53.4058594,35.9074219 60.0117188,35.9074219 C61.0085938,35.9074219 61.9621094,36.0628906 62.8878906,36.2890625 C66.0089844,32.9699219 70.434375,30.859375 75.3902344,30.859375 C84.8269531,30.859375 92.4773438,38.3929688 92.4773438,47.6863281 L48.0507813,47.6863281 Z" id="Shape" fill="#AFDCE0"></path>
                <path d="M145.484375,47.2722656 C144.485547,47.2722656 143.541406,47.4660156 142.636719,47.746875 C139.770703,43.6898438 135.016406,41.0222656 129.617578,41.0222656 C124.21875,41.0222656 119.464453,43.6898438 116.598437,47.746875 C115.69375,47.4660156 114.749609,47.2722656 113.750781,47.2722656 C108.492969,47.2722656 104.230859,51.4695313 104.230859,56.6472656 L155.003906,56.6472656 C155.004297,51.4695313 150.742187,47.2722656 145.484375,47.2722656 Z" id="Shape" fill="#AFDCE0"></path>
                <path d="M157.665234,45.0882813 C157.014844,45.0882813 156.400391,45.2144531 155.811328,45.3972656 C153.945312,42.7558594 150.850391,41.0191406 147.335547,41.0191406 C143.820703,41.0191406 140.725391,42.7558594 138.859766,45.3972656 C138.270703,45.2144531 137.65625,45.0882813 137.005859,45.0882813 C133.582813,45.0882813 130.807813,47.8210938 130.807813,51.1917969 L163.863281,51.1917969 C163.862891,47.8210938 161.088281,45.0882813 157.665234,45.0882813 Z" id="Shape" fill="#AFDCE0"></path>
                <path d="M55.0089844,45.5023438 C54.3585938,45.5023438 53.7441406,45.6285156 53.1550781,45.8113281 C51.2890625,43.1699219 48.1941406,41.4332031 44.6792969,41.4332031 C41.1644531,41.4332031 38.0691406,43.1699219 36.2035156,45.8113281 C35.6144531,45.6285156 35,45.5023438 34.3496094,45.5023438 C30.9265625,45.5023438 28.1515625,48.2351563 28.1515625,51.6058594 L61.2070313,51.6058594 C61.2066406,48.2351563 58.4316406,45.5023438 55.0089844,45.5023438 Z" id="Shape" fill="#AFDCE0"></path>
                <polygon id="Shape" fill="#754C49" points="157.795703 75 128.412891 75 116.659766 87.5 169.548438 87.5"></polygon>
                <path d="M24.3824219,164.0625 L177.888281,164.0625 C179.135938,162.536328 180.342578,160.976172 181.497656,159.375 L20.6070313,159.375 C21.81875,160.976172 23.0808594,162.536328 24.3824219,164.0625 Z" id="Shape" fill="#D29672"></path>
                <g id="Group" transform="translate(86.328125, 111.718750)">
                    <rect id="Rectangle-path" fill="#63A0B5" x="0.978515625" y="1.02617188" width="9.51992188" height="12.5"></rect>
                    <path d="M11.2917969,14.3082031 L0.18515625,14.3082031 L0.18515625,0.245703125 L11.2917969,0.245703125 L11.2917969,14.3082031 Z M1.771875,12.7457031 L9.70507813,12.7457031 L9.70507813,1.80820313 L1.771875,1.80820313 L1.771875,12.7457031 Z" id="Shape" fill="#4185A6"></path>
                    <rect id="Rectangle-path" fill="#4185A6" x="0.978515625" y="3.37070313" width="9.51992188" height="1.5625"></rect>
                </g>
                <g id="Group" transform="translate(102.343750, 111.718750)">
                    <rect id="Rectangle-path" fill="#63A0B5" x="0.8296875" y="1.02617188" width="9.51992188" height="12.5"></rect>
                    <path d="M11.1429688,14.3082031 L0.036328125,14.3082031 L0.036328125,0.245703125 L11.1429688,0.245703125 L11.1429688,14.3082031 Z M1.62304687,12.7457031 L9.55625,12.7457031 L9.55625,1.80820313 L1.62304687,1.80820313 L1.62304687,12.7457031 Z" id="Shape" fill="#4185A6"></path>
                    <rect id="Rectangle-path" fill="#4185A6" x="0.8296875" y="3.37070313" width="9.51992188" height="1.5625"></rect>
                </g>
                <polygon id="Shape" fill="#754C49" points="109.519922 86.0351562 100 86.0351562 90.4800781 86.0351562 74.6132813 104.785156 125.386719 104.785156"></polygon>
                <rect id="Rectangle-path" fill="#EBD7BD" x="77.7867188" y="133.59375" width="44.4265625" height="3.90625"></rect>
                <rect id="Rectangle-path" fill="#E8A271" x="42.8800781" y="129.053516" width="34.9066406" height="8.44648437"></rect>
                <g id="Group" opacity="0.25" transform="translate(77.734375, 104.687500)" fill="#FF8562">
                    <rect id="Rectangle-path" x="0.05234375" y="0.09765625" width="44.4265625" height="3.80859375"></rect>
                </g>
                <g id="Group" opacity="0.25" transform="translate(42.578125, 83.984375)" fill="#FF8562">
                    <rect id="Rectangle-path" x="0.301953125" y="0.146484375" width="58.171875" height="3.80859375"></rect>
                </g>
                <g id="Group" transform="translate(127.734375, 111.718750)">
                    <rect id="Rectangle-path" fill="#63A0B5" x="0.9578125" y="1.02617188" width="7.13984375" height="12.5"></rect>
                    <path d="M8.8921875,14.3082031 L0.165625,14.3082031 L0.165625,0.245703125 L8.8921875,0.245703125 L8.8921875,14.3082031 Z M1.75195313,12.7457031 L7.30507813,12.7457031 L7.30507813,1.80820313 L1.75195313,1.80820313 L1.75195313,12.7457031 Z" id="Shape" fill="#4185A6"></path>
                    <rect id="Rectangle-path" fill="#4185A6" x="0.95859375" y="3.37070313" width="7.13984375" height="1.5625"></rect>
                </g>
                <g id="Group" transform="translate(138.671875, 111.718750)">
                    <rect id="Rectangle-path" fill="#63A0B5" x="0.8625" y="1.02617188" width="7.13984375" height="12.5"></rect>
                    <path d="M8.79453125,14.3082031 L0.06796875,14.3082031 L0.06796875,0.245703125 L8.79453125,0.245703125 L8.79453125,14.3082031 Z M1.6546875,12.7457031 L7.2078125,12.7457031 L7.2078125,1.80820313 L1.6546875,1.80820313 L1.6546875,12.7457031 Z" id="Shape" fill="#4185A6"></path>
                    <rect id="Rectangle-path" fill="#4185A6" x="0.861328125" y="3.37070313" width="7.13984375" height="1.5625"></rect>
                </g>
                <g id="Group" transform="translate(149.218750, 111.718750)">
                    <rect id="Rectangle-path" fill="#63A0B5" x="1.1578125" y="1.02617188" width="7.13984375" height="12.5"></rect>
                    <path d="M9.09101563,14.3082031 L0.364453125,14.3082031 L0.364453125,0.245703125 L9.09101563,0.245703125 L9.09101563,14.3082031 Z M1.95117188,12.7457031 L7.50429688,12.7457031 L7.50429688,1.80820313 L1.95117188,1.80820313 L1.95117188,12.7457031 Z" id="Shape" fill="#4185A6"></path>
                    <rect id="Rectangle-path" fill="#4185A6" x="1.1578125" y="3.37070313" width="7.13984375" height="1.5625"></rect>
                </g>
                <g id="Group" transform="translate(5.859375, 111.718750)">
                    <rect id="Rectangle-path" fill="#63A0B5" x="1.16953125" y="1.02617188" width="7.13984375" height="12.5"></rect>
                    <path d="M9.10234375,14.3082031 L0.37578125,14.3082031 L0.37578125,0.245703125 L9.10234375,0.245703125 L9.10234375,14.3082031 Z M1.9625,12.7457031 L7.515625,12.7457031 L7.515625,1.80820313 L1.9625,1.80820313 L1.9625,12.7457031 Z" id="Shape" fill="#4185A6"></path>
                    <rect id="Rectangle-path" fill="#4185A6" x="1.16914063" y="3.37070313" width="7.13984375" height="1.5625"></rect>
                </g>
                <g id="Group" transform="translate(16.796875, 111.718750)">
                    <rect id="Rectangle-path" fill="#63A0B5" x="1.07421875" y="1.02617188" width="7.13984375" height="12.5"></rect>
                    <path d="M9.00820313,14.3082031 L0.281640625,14.3082031 L0.281640625,0.245703125 L9.00820313,0.245703125 L9.00820313,14.3082031 Z M1.86835938,12.7457031 L7.42148438,12.7457031 L7.42148438,1.80820313 L1.86835938,1.80820313 L1.86835938,12.7457031 Z" id="Shape" fill="#4185A6"></path>
                    <rect id="Rectangle-path" fill="#4185A6" x="1.075" y="3.37070313" width="7.13984375" height="1.5625"></rect>
                </g>
                <g id="Group" transform="translate(27.734375, 111.718750)">
                    <rect id="Rectangle-path" fill="#63A0B5" x="0.97890625" y="1.02617188" width="7.13984375" height="12.5"></rect>
                    <path d="M8.9109375,14.3082031 L0.184375,14.3082031 L0.184375,0.245703125 L8.9109375,0.245703125 L8.9109375,14.3082031 Z M1.77070313,12.7457031 L7.32421875,12.7457031 L7.32421875,1.80820313 L1.77070313,1.80820313 L1.77070313,12.7457031 Z" id="Shape" fill="#4185A6"></path>
                    <rect id="Rectangle-path" fill="#4185A6" x="0.97734375" y="3.37070313" width="7.13984375" height="1.5625"></rect>
                </g>
                <g id="Group" transform="translate(127.734375, 94.531250)">
                    <g>
                        <rect id="Rectangle-path" fill="#63A0B5" x="0.9578125" y="0.78125" width="7.13984375" height="9.375"></rect>
                        <path d="M8.8921875,10.9375 L0.165625,10.9375 L0.165625,0 L8.8921875,0 L8.8921875,10.9375 Z M1.75195313,9.375 L7.30507813,9.375 L7.30507813,1.5625 L1.75195313,1.5625 L1.75195313,9.375 Z" id="Shape" fill="#4185A6"></path>
                        <rect id="Rectangle-path" fill="#4185A6" x="0.95859375" y="3.125" width="7.13984375" height="1.5625"></rect>
                    </g>
                    <g transform="translate(10.937500, 0.000000)">
                        <rect id="Rectangle-path" fill="#63A0B5" x="0.8625" y="0.78125" width="7.13984375" height="9.375"></rect>
                        <path d="M8.79453125,10.9375 L0.06796875,10.9375 L0.06796875,0 L8.79453125,0 L8.79453125,10.9375 Z M1.6546875,9.375 L7.2078125,9.375 L7.2078125,1.5625 L1.6546875,1.5625 L1.6546875,9.375 Z" id="Shape" fill="#4185A6"></path>
                        <rect id="Rectangle-path" fill="#4185A6" x="0.861328125" y="3.125" width="7.13984375" height="1.5625"></rect>
                    </g>
                    <g transform="translate(21.484375, 0.000000)">
                        <rect id="Rectangle-path" fill="#63A0B5" x="1.1578125" y="0.78125" width="7.13984375" height="9.375"></rect>
                        <path d="M9.09101563,10.9375 L0.364453125,10.9375 L0.364453125,0 L9.09101563,0 L9.09101563,10.9375 Z M1.95117188,9.375 L7.50429688,9.375 L7.50429688,1.5625 L1.95117188,1.5625 L1.95117188,9.375 Z" id="Shape" fill="#4185A6"></path>
                        <rect id="Rectangle-path" fill="#4185A6" x="1.1578125" y="3.125" width="7.13984375" height="1.5625"></rect>
                    </g>
                </g>
                <rect id="Rectangle-path" fill="#B66E64" x="122.213281" y="131.510547" width="46.0792969" height="5.98945313"></rect>
                <g id="Group" transform="translate(123.828125, 132.031250)">
                    <path d="M21.778125,3.59492187 C21.2535156,3.59492187 20.7574219,3.69648437 20.2820313,3.84414062 C18.7761719,1.7125 16.2785156,0.3109375 13.4417969,0.3109375 C10.6050781,0.3109375 8.10742187,1.7125 6.6015625,3.84414062 C6.12617187,3.69648437 5.63007812,3.59492187 5.10546875,3.59492187 C2.34296875,3.59492187 0.10390625,5.8 0.10390625,8.5203125 L26.7796875,8.5203125 C26.7796875,5.80039062 24.5402344,3.59492187 21.778125,3.59492187 Z" id="Shape" fill="#69BE5D"></path>
                    <path d="M25.19375,3.59492187 C24.6691406,3.59492187 24.1730469,3.69648437 23.6976562,3.84414062 C22.1917969,1.7125 19.6941406,0.3109375 16.8574219,0.3109375 C16.2675781,0.3109375 15.7039062,0.40546875 15.1496094,0.520703125 C17.2625,0.959375 19.0894531,2.15546875 20.2820312,3.84414062 C20.7574219,3.69648437 21.2535156,3.59492187 21.778125,3.59492187 C24.540625,3.59492187 26.7796875,5.80039062 26.7796875,8.5203125 L30.1953125,8.5203125 C30.1953125,5.80039062 27.95625,3.59492187 25.19375,3.59492187 Z" id="Shape" fill="#9DC85C"></path>
                </g>
                <path d="M199.947656,104.785156 L168.292188,104.785156 L168.292188,112.744922 L199.373438,112.744922 C199.661328,110.119922 199.86875,107.470313 199.947656,104.785156 Z" id="Shape" fill="#754C49"></path>
                <g id="Group" transform="translate(171.484375, 118.750000)">
                    <rect id="Rectangle-path" fill="#63A0B5" x="1.00625" y="0.87890625" width="18.940625" height="8.9953125"></rect>
                    <path d="M20.7402344,10.6550781 L0.212890625,10.6550781 L0.212890625,0.09765625 L20.7402344,0.09765625 L20.7402344,10.6550781 Z M1.79960938,9.09257812 L19.1535156,9.09257812 L19.1535156,1.66015625 L1.79960938,1.66015625 L1.79960938,9.09257812 Z" id="Shape" fill="#4185A6"></path>
                    <rect id="Rectangle-path" fill="#4185A6" x="9.68320312" y="0.87890625" width="1.58671875" height="8.99492187"></rect>
                </g>
                <rect id="Rectangle-path" fill="#754C49" x="168.292578" y="100" width="3.371875" height="12.7449219"></rect>
                <rect id="Rectangle-path" fill="#754C49" x="42.8800781" y="68.2769531" width="3.371875" height="10.8742188"></rect>
                <rect id="Rectangle-path" fill="#F26E64" x="39.5085938" y="86.6363281" width="3.371875" height="10.8742188"></rect>
                <rect id="Rectangle-path" fill="#B66E64" x="55.8515625" y="65.9179688" width="4.4625" height="10.6667969"></rect>
                <rect id="Rectangle-path" fill="#B66E64" x="83.6183594" y="65.9179688" width="4.4625" height="10.6667969"></rect>
                <rect id="Rectangle-path" fill="#754C49" x="97.6804688" y="68.2769531" width="3.371875" height="10.8742188"></rect>
                <g id="Group" opacity="0.25" transform="translate(167.968750, 112.500000)" fill="#FF8562">
                    <path d="M31.4046875,0.244921875 L0.3234375,0.244921875 L0.3234375,4.05351563 L30.8613281,4.05351563 C31.0503906,2.78671875 31.2640625,1.528125 31.4046875,0.244921875 Z" id="Shape"></path>
                </g>
                <g id="Group" transform="translate(52.343750, 110.937500)">
                    <rect id="Rectangle-path" fill="#63A0B5" x="1.1140625" y="1.12382813" width="7.13984375" height="12.5"></rect>
                    <path d="M9.04648437,14.4058594 L0.319921875,14.4058594 L0.319921875,0.343359375 L9.04648437,0.343359375 L9.04648437,14.4058594 Z M1.90664063,12.8433594 L7.45976563,12.8433594 L7.45976563,1.90585938 L1.90664063,1.90585938 L1.90664063,12.8433594 Z" id="Shape" fill="#4185A6"></path>
                    <rect id="Rectangle-path" fill="#4185A6" x="1.11328125" y="3.46835938" width="7.13984375" height="1.5625"></rect>
                </g>
                <g id="Group" transform="translate(65.234375, 110.937500)">
                    <rect id="Rectangle-path" fill="#63A0B5" x="1.04921875" y="1.12382813" width="7.13984375" height="12.5"></rect>
                    <path d="M8.98242188,14.4058594 L0.255859375,14.4058594 L0.255859375,0.343359375 L8.98242188,0.343359375 L8.98242188,14.4058594 Z M1.84257813,12.8433594 L7.39570313,12.8433594 L7.39570313,1.90585938 L1.84257813,1.90585938 L1.84257813,12.8433594 Z" id="Shape" fill="#4185A6"></path>
                    <rect id="Rectangle-path" fill="#4185A6" x="1.04921875" y="3.46835938" width="7.13984375" height="1.5625"></rect>
                </g>
                <g id="Group" transform="translate(52.343750, 93.750000)">
                    <rect id="Rectangle-path" fill="#63A0B5" x="1.1140625" y="0.87890625" width="7.13984375" height="9.375"></rect>
                    <path d="M9.04648437,11.0351562 L0.319921875,11.0351562 L0.319921875,0.09765625 L9.04648437,0.09765625 L9.04648437,11.0351562 Z M1.90664063,9.47265625 L7.45976563,9.47265625 L7.45976563,1.66015625 L1.90664063,1.66015625 L1.90664063,9.47265625 Z" id="Shape" fill="#4185A6"></path>
                    <rect id="Rectangle-path" fill="#4185A6" x="1.11328125" y="3.22265625" width="7.13984375" height="1.5625"></rect>
                </g>
                <g id="Group" transform="translate(65.234375, 93.750000)">
                    <rect id="Rectangle-path" fill="#63A0B5" x="1.04921875" y="0.87890625" width="7.13984375" height="9.375"></rect>
                    <path d="M8.98242188,11.0351562 L0.255859375,11.0351562 L0.255859375,0.09765625 L8.98242188,0.09765625 L8.98242188,11.0351562 Z M1.84257813,9.47265625 L7.39570313,9.47265625 L7.39570313,1.66015625 L1.84257813,1.66015625 L1.84257813,9.47265625 Z" id="Shape" fill="#4185A6"></path>
                    <rect id="Rectangle-path" fill="#4185A6" x="1.04921875" y="3.22265625" width="7.13984375" height="1.5625"></rect>
                </g>
                <path d="M42.8800781,90.625 L0.3015625,90.625 C0.069140625,93.7128906 -0.03984375,96.8367187 0.016015625,100 C0.034765625,101.048047 0.1,102.084766 0.150390625,103.125 L42.8800781,103.125 L42.8800781,90.625 Z" id="Shape" fill="#754C49"></path>
                <path d="M7.9765625,137.5 L42.8804688,137.5 L42.8804688,131.510547 L5.6921875,131.510547 C6.39921875,133.532813 7.146875,135.536719 7.9765625,137.5 Z" id="Shape" fill="#B66E64"></path>
                <g id="Group" transform="translate(29.296875, 78.906250)">
                    <path d="M12.4136719,60.8421875 L12.4136719,44.8359375 C12.4136719,44.0144531 11.7375,43.3484375 10.9023437,43.3484375 C10.0671875,43.3484375 9.39101562,44.0144531 9.39101562,44.8359375 L9.39101562,60.8417969 L12.4136719,60.8417969 L12.4136719,60.8421875 Z" id="Shape" fill="#996459"></path>
                    <path d="M21.61875,39.9304687 C21.61875,48.0300781 16.8207031,52.0953125 10.9015625,52.0953125 C4.98242187,52.0953125 0.184375,48.0296875 0.184375,39.9304687 C0.184375,31.83125 6.74921875,0.2453125 10.9015625,0.2453125 C15.0539063,0.2453125 21.61875,31.8308594 21.61875,39.9304687 Z" id="Shape" fill="#69BE5D"></path>
                    <path d="M10.9015625,0.244921875 C10.0792969,0.244921875 9.16171875,1.49726562 8.21992188,3.54726563 C11.6070313,8.59921875 15.9894531,33.5589844 15.9894531,40.4917969 C15.9894531,47.2652344 12.9308594,51.0785156 8.86992188,51.9160156 C9.52890625,52.0285156 10.2054688,52.0953125 10.9015625,52.0953125 C16.8203125,52.0953125 21.61875,48.0296875 21.61875,39.9304688 C21.61875,31.8308594 15.0539063,0.244921875 10.9015625,0.244921875 Z" id="Shape" fill="#9DC85C"></path>
                </g>
                <g id="Group" transform="translate(45.312500, 92.968750)">
                    <path d="M9.44726562,46.7796875 L9.44726562,34.475 C9.44726562,33.84375 8.92734375,33.3316406 8.28515625,33.3316406 C7.64296875,33.3316406 7.12304688,33.84375 7.12304688,34.475 L7.12304688,46.7796875 L9.44726562,46.7796875 Z" id="Shape" fill="#996459"></path>
                    <path d="M16.5234375,30.7035156 C16.5234375,36.9300781 12.8347656,40.0554687 8.28476563,40.0554687 C3.73476563,40.0554687 0.04609375,36.9300781 0.04609375,30.7035156 C0.04609375,24.4769531 5.09296875,0.194921875 8.28476563,0.194921875 C11.4765625,0.194921875 16.5234375,24.4769531 16.5234375,30.7035156 Z" id="Shape" fill="#69BE5D"></path>
                    <path d="M8.28476563,0.194921875 C7.65273438,0.194921875 6.94726562,1.1578125 6.22304688,2.73359375 C8.82695313,6.6171875 12.1957031,25.8050781 12.1957031,31.1351563 C12.1957031,36.3421875 9.84453125,39.2738281 6.72265625,39.9175781 C7.22929688,40.0039063 7.74960938,40.0554688 8.284375,40.0554688 C12.834375,40.0554688 16.5230469,36.9300781 16.5230469,30.7035156 C16.5230469,24.4769531 11.4765625,0.194921875 8.28476563,0.194921875 Z" id="Shape" fill="#9DC85C"></path>
                </g>
                <path d="M140.575391,134.546094 C139.935547,134.546094 139.330859,134.669922 138.751172,134.85 C136.915234,132.250781 133.869531,130.542188 130.410937,130.542188 C126.952344,130.542188 123.906641,132.251172 122.070703,134.85 C121.491016,134.669922 120.886328,134.546094 120.246484,134.546094 C116.878125,134.546094 114.147656,137.235156 114.147656,140.551953 L146.674219,140.551953 C146.674219,137.234766 143.94375,134.546094 140.575391,134.546094 Z" id="Shape" fill="#69BE5D"></path>
                <g id="Group" transform="translate(103.515625, 130.468750)">
                    <path d="M26.7796875,4.07734375 C26.1398437,4.07734375 25.5351562,4.20117187 24.9554687,4.38125 C23.1195312,1.78203125 20.0738281,0.0734375 16.6152344,0.0734375 C13.1566406,0.0734375 10.1109375,1.78242187 8.275,4.38125 C7.6953125,4.20117187 7.090625,4.07734375 6.45078125,4.07734375 C3.08242187,4.07734375 0.351953125,6.76640625 0.351953125,10.0832031 L32.8785156,10.0832031 C32.8785156,6.76601563 30.1480469,4.07734375 26.7796875,4.07734375 Z" id="Shape" fill="#69BE5D"></path>
                    <path d="M30.9445313,4.07695313 C30.3046875,4.07695313 29.7,4.20078125 29.1203125,4.38085938 C27.284375,1.78164063 24.2386719,0.073046875 20.7796875,0.073046875 C20.0605469,0.073046875 19.3734375,0.18828125 18.6972656,0.32890625 C21.2738281,0.863671875 23.5011719,2.32226562 24.9550781,4.38125 C25.5347656,4.20117187 26.1394531,4.07734375 26.7792969,4.07734375 C30.1476563,4.07734375 32.878125,6.76640625 32.878125,10.0832031 L37.0429688,10.0832031 C37.0433594,6.76601563 34.3128906,4.07695313 30.9445313,4.07695313 Z" id="Shape" fill="#9DC85C"></path>
                </g>
            </g>
        </g>
    </g>
</svg>