<?xml version="1.0" encoding="UTF-8"?>
<svg width="23px" height="20px" viewBox="0 0 23 20" version="1.1" xmlns="http://www.w3.org/2000/svg" xmlns:xlink="http://www.w3.org/1999/xlink">
    <!-- Generator: Sketch 47.1 (45422) - http://www.bohemiancoding.com/sketch -->
    <title>rocking-horse</title>
    <desc>Created with Sketch.</desc>
    <defs></defs>
    <g id="Page-1" stroke="none" stroke-width="1" fill="none" fill-rule="evenodd">
        <g id="2-8-chisinau-apartments-inculet" transform="translate(-537.000000, -3562.000000)" fill-rule="nonzero" fill="#B8B8B8">
            <g id="Group-25" transform="translate(150.000000, 2904.000000)">
                <g id="Group-52" transform="translate(26.000000, 615.000000)">
                    <g id="Group-51" transform="translate(361.000000, 43.000000)">
                        <g id="rocking-horse">
                            <path d="M8.49307884,2.9044323 C8.27792926,2.73612277 8.03009647,2.60783696 7.76059145,2.53180931 L7.32697145,0 L4.88237557,2.60608922 L3.35675338,3.61280063 C3.77481826,4.10776707 4.09448407,4.67544045 4.30176872,5.28401145 C5.24923096,5.07323128 7.09381991,4.4802153 8.49307884,2.9044323 Z" id="Shape"></path>
                            <path d="M20.7541597,9.79568653 C21.1131502,9.95508251 21.3987346,10.2403174 21.5584801,10.5991331 L22.3834242,12.4519365 L22.8270064,10.4729446 C23.1776077,8.90904644 22.3676944,7.30127937 20.9011465,6.65006291 C19.199175,5.89415548 17.1993848,6.66387025 16.4434774,8.36601651 C16.4191834,8.42072148 16.3969868,8.47612555 16.3756642,8.53187919 C16.2185403,8.49063199 16.0573965,8.45987136 15.892932,8.43994685 L15.892932,10.3100532 C15.892932,11.8793694 14.6161913,13.1559354 13.046875,13.1559354 C11.4775587,13.1559354 10.2008179,11.8793694 10.2008179,10.3100532 L10.2008179,8.30903942 C9.68208192,8.0977349 9.3154013,7.58843678 9.3154013,6.99454698 L9.3154013,4.58630452 C9.3154013,4.40611016 9.29268036,4.23098434 9.25038452,4.06372345 C7.62915969,5.74017758 5.6389821,6.37339204 4.56638004,6.60409673 C4.57389539,6.71840045 4.57826483,6.83322846 4.57826483,6.94840604 C4.57826483,7.41103888 4.51761745,7.86615633 4.39772089,8.30676734 C4.40261468,8.31638004 4.40558586,8.32721615 4.40558586,8.33875141 L4.40558586,11.3559145 C4.40558586,11.9739234 4.46955396,12.5926314 4.59626676,13.1978817 L3.18355007,17.0651566 C2.32032998,16.7131571 1.47878215,16.3043554 0.665198568,15.8404991 L-2.84217094e-14,17.0069561 C3.43173239,18.9642757 7.33396251,19.9989513 11.2846057,19.9989513 C15.2354237,19.9989513 19.1376538,18.9642757 22.5693862,17.0069561 L21.9040129,15.8404991 C21.2901986,16.1905761 20.6603048,16.5091932 20.0171281,16.7958264 L19.0708893,14.1927083 L19.0708893,12.0267058 C19.0708893,11.4735389 18.9455747,10.9490353 18.7223853,10.4799357 C19.1145834,9.76667365 19.9970288,9.45924215 20.7541597,9.79568653 L20.7541597,9.79568653 Z M11.2846057,18.6561451 C9.73713647,18.6561451 8.19753217,18.4867869 6.69445611,18.1569841 L7.18225673,16.6341583 C7.50279642,15.7109899 8.37370667,15.0912332 9.35157996,15.0912332 L13.9749371,15.0912332 C14.9549077,15.0912332 15.8275657,15.7137864 16.1465324,16.6404502 L16.6341583,17.9759158 C14.892163,18.4249161 13.0938898,18.6561451 11.2846057,18.6561451 Z" id="Shape"></path>
                            <path d="M13.046875,11.8131292 C13.8756642,11.8131292 14.5499511,11.1388423 14.5499511,10.3100532 L14.5499511,8.41338085 L11.5437989,8.41338085 L11.5437989,10.3100532 C11.5437989,11.1388423 12.2180859,11.8131292 13.046875,11.8131292 Z" id="Shape"></path>
                            <path d="M2.22525168,4.35927016 L1.57892895,4.7857243 C1.2728957,4.97465745 1.08361298,5.31284957 1.08361298,5.67341302 C1.08361298,6.88024331 1.91222734,7.89709172 3.03044604,8.18494828 C3.16607244,7.78820609 3.23545861,7.37293763 3.23545861,6.94840604 C3.23545861,5.98661213 2.87087526,5.06204559 2.22525168,4.35927016 Z" id="Shape"></path>
                        </g>
                    </g>
                </g>
            </g>
        </g>
    </g>
</svg>