<svg xmlns="http://www.w3.org/2000/svg" width="80" height="65" viewBox="0 0 80 65"><g><g><path fill="#d1d1d1" d="M76.875 45.553H67.5v-3.115h9.375zM61.25 54.938V9.624h3.125v45.313zm7.813 6.25h-12.5v-3.126h12.5zM21.874 45.553v-3.115h36.25v3.115zm-6.25 9.385V9.624h3.115v45.313zm7.813 6.25h-12.5v-3.126h12.5zM3.125 45.553v-3.115h9.365v3.115zm0-15.097A20.864 20.864 0 0 0 6.24 28.73v10.583H3.125zm9.365 8.857H9.375v-13.14a21.08 21.08 0 0 0 3.115-3.949zm12.5-13.076v13.076h-3.115V22.267a21.218 21.218 0 0 0 3.115 3.969zm6.25 13.076h-3.115v-10.5a21.021 21.021 0 0 0 3.115 1.745zm7.198 0h-4.063v-7.628c1.326.364 2.683.596 4.063.696zm7.197 0h-4.072V32.38c1.382-.1 2.743-.332 4.072-.696zm6.24 0H48.75v-8.755a21.108 21.108 0 0 0 3.125-1.745zm6.25 0H55V26.236a21.229 21.229 0 0 0 3.125-3.97zm12.5-13.14v13.14H67.5V22.224a21.071 21.071 0 0 0 3.125 3.948zm6.25 13.14H73.75V28.73a20.95 20.95 0 0 0 3.125 1.726zM79 27.956a17.896 17.896 0 0 1-5.75-3.595 18.028 18.028 0 0 1-5.75-13.174V8.063c0-.864-.7-1.563-1.562-1.563h-1.563V1.812c0-.86-.701-1.562-1.562-1.562-.862 0-1.563.701-1.563 1.563V6.5h-1.562c-.864 0-1.563.7-1.563 1.563v3.124c0 9.725-8.017 17.93-17.76 18.126-10.023.202-18.49-8.125-18.49-18.125V8.062c0-.863-.7-1.562-1.562-1.562H18.75V1.812c0-.86-.701-1.562-1.562-1.562-.862 0-1.563.701-1.563 1.563V6.5h-1.562c-.864 0-1.563.7-1.563 1.563v3.124a18.03 18.03 0 0 1-5.75 13.174A17.894 17.894 0 0 1 1 27.956c-.603.232-1 .812-1 1.457v17.712c0 .863.7 1.563 1.563 1.563H12.5v6.25H9.375c-.863 0-1.562.699-1.562 1.562v6.25c0 .863.699 1.563 1.562 1.563H25c.863 0 1.563-.7 1.563-1.563V56.5c0-.863-.7-1.563-1.563-1.563h-3.125v-6.25h36.25v6.25H55c-.863 0-1.562.7-1.562 1.563v6.25c0 .863.699 1.563 1.562 1.563h15.625c.863 0 1.563-.7 1.563-1.563V56.5c0-.863-.7-1.563-1.563-1.563H67.5v-6.25h10.938c.863 0 1.562-.699 1.562-1.562V29.413c0-.645-.397-1.225-1-1.457z"/></g></g></svg>