<?xml version="1.0" encoding="UTF-8"?>
<svg width="51px" height="60px" viewBox="0 0 51 60" version="1.1" xmlns="http://www.w3.org/2000/svg" xmlns:xlink="http://www.w3.org/1999/xlink">
    <!-- Generator: Sketch 47.1 (45422) - http://www.bohemiancoding.com/sketch -->
    <title>shield</title>
    <desc>Created with Sketch.</desc>
    <defs></defs>
    <g id="Page-1" stroke="none" stroke-width="1" fill="none" fill-rule="evenodd">
        <g id="2-9-1-coworking-lviv" transform="translate(-750.000000, -4075.000000)" fill-rule="nonzero">
            <g id="shield" transform="translate(750.000000, 4075.000000)">
                <path d="M48.2547017,40.0675964 C46.6486431,44.4383239 44.2197244,48.238678 41.0345037,51.3619995 C37.4089048,54.9169922 32.6613898,57.7418518 26.9237075,59.7569275 C26.7354298,59.8228454 26.5389463,59.8768616 26.3415511,59.916687 C26.0807887,59.9684143 25.8154677,59.9963379 25.552426,60 L25.5009117,60 C25.2205467,60 24.938814,59.9716186 24.6593607,59.916687 C24.4619655,59.8768616 24.2682172,59.8228454 24.0808514,59.7583008 C18.3363309,57.7464294 13.5828894,54.9229431 9.95364339,51.3679505 C6.76705521,48.2446289 4.33859229,44.4465638 2.73481303,40.0758362 C-0.181439561,32.1290589 -0.0154997986,23.3747864 0.118072469,16.3398743 L0.120351831,16.2318421 C0.14724867,15.65094 0.164571982,15.0407409 0.17414551,14.3669128 C0.222924384,11.0586548 2.84240027,8.32168582 6.13748751,8.13720703 C13.0075711,7.75222781 18.3221986,5.50231934 22.8632008,1.05789187 L22.9028622,1.02127078 C23.6568846,0.326843203 24.6069347,-0.0137329688 25.552426,0.000457763672 C26.4641823,0.0123596484 27.3722916,0.352477969 28.0994172,1.02127078 L28.1381669,1.05789187 C32.6800809,5.50231934 37.9947082,7.75222781 44.864792,8.13720703 C48.1598791,8.32168582 50.779355,11.0586548 50.828134,14.3669128 C50.8377074,15.0453186 50.8550307,15.6546021 50.8819275,16.2318421 L50.8832952,16.2776184 C51.0164116,23.3258057 51.1814396,32.0974732 48.2547017,40.0675964 Z" id="Shape" fill="#00DD80"></path>
                <path d="M48.2547017,40.0675964 C46.6486431,44.4383239 44.2197244,48.238678 41.0345037,51.3619995 C37.4089048,54.9169922 32.6613898,57.7418518 26.9237075,59.7569275 C26.7354298,59.8228454 26.5389463,59.8768616 26.3415511,59.916687 C26.0807887,59.9684143 25.8154677,59.9963379 25.552426,60 L25.552426,0.000457763672 C26.4641823,0.0123596484 27.3722916,0.352477969 28.0994172,1.02127078 L28.1381669,1.05789187 C32.6800809,5.50231934 37.9947082,7.75222781 44.864792,8.13720703 C48.1598791,8.32168582 50.779355,11.0586548 50.828134,14.3669128 C50.8377074,15.0453186 50.8550307,15.6546021 50.8819275,16.2318421 L50.8832952,16.2776184 C51.0164116,23.3258057 51.1814396,32.0974732 48.2547017,40.0675964 Z" id="Shape" fill="#00AA63"></path>
                <path d="M40.3917155,30 C40.3917155,38.2273864 33.7390857,44.924469 25.552426,44.9537659 L25.5,44.9537659 C17.2891787,44.9537659 10.6078286,38.2452393 10.6078286,30 C10.6078286,21.7552185 17.2891787,15.046692 25.5,15.046692 L25.552426,15.046692 C33.7390857,15.0759888 40.3917155,21.7730713 40.3917155,30 Z" id="Shape" fill="#FFFFFF"></path>
                <path d="M40.3917155,30 C40.3917155,38.2273864 33.7390857,44.924469 25.552426,44.9537659 L25.552426,15.046692 C33.7390857,15.0759888 40.3917155,21.7730713 40.3917155,30 Z" id="Shape" fill="#E1EBF0"></path>
                <path d="M32.2593053,27.8466797 L25.552426,34.5822143 L24.1031894,36.037445 C23.7608248,36.3812256 23.3117849,36.552887 22.8632008,36.552887 C22.4141609,36.552887 21.9655768,36.3812256 21.6227564,36.037445 L18.5068292,32.9072571 C17.8221003,32.219696 17.8221003,31.105957 18.5068292,30.4179382 C19.1906465,29.7303772 20.3011656,29.7303772 20.9858945,30.4179382 L22.8632008,32.3030091 L29.7802399,25.3573608 C30.4649689,24.6693421 31.5754881,24.6693421 32.2593053,25.3573608 C32.9440342,26.0449219 32.9440342,27.1600342 32.2593053,27.8466797 Z" id="Shape" fill="#B4D2D7"></path>
                <path d="M32.2593053,27.8466797 L25.552426,34.5822143 L25.552426,29.6022034 L29.7802399,25.3573608 C30.4649689,24.6693421 31.5754881,24.6693421 32.2593053,25.3573608 C32.9440342,26.0449219 32.9440342,27.1600342 32.2593053,27.8466797 Z" id="Shape" fill="#6FA5AA"></path>
            </g>
        </g>
    </g>
</svg>