<?xml version="1.0" encoding="UTF-8"?>
<svg width="296px" height="45px" viewBox="0 0 296 45" version="1.1" xmlns="http://www.w3.org/2000/svg" xmlns:xlink="http://www.w3.org/1999/xlink">
    <!-- Generator: Sketch 47.1 (45422) - http://www.bohemiancoding.com/sketch -->
    <title>stangher-coworking-logo</title>
    <desc>Created with Sketch.</desc>
    <defs>
        <linearGradient x1="0%" y1="50%" x2="100%" y2="50%" id="linearGradient-1">
            <stop stop-color="#9D1EBB" offset="0%"></stop>
            <stop stop-color="#E756BD" offset="100%"></stop>
        </linearGradient>
    </defs>
    <g id="Page-1" stroke="none" stroke-width="1" fill="none" fill-rule="evenodd">
        <g id="1-1-coworking-main-1170" transform="translate(-150.000000, -127.000000)">
            <g id="stangher-coworking-logo" transform="translate(150.000000, 127.000000)">
                <path d="M111.376484,36.7888661 C111.376484,37.2312321 111.501131,37.5779732 111.749217,37.8282857 C111.997706,38.079 112.317364,38.2039554 112.707789,38.2039554 C113.193106,38.2039554 113.604037,38.0010536 113.941387,37.5940446 C114.278737,37.1870357 114.447612,36.6948482 114.447612,36.1166786 C114.447612,35.6980179 114.324574,35.3649375 114.079302,35.1170357 C113.833226,34.8695357 113.515176,34.7453839 113.125154,34.7453839 C112.633805,34.7453839 112.219657,34.9430625 111.882308,35.3384196 C111.54536,35.733375 111.376484,36.2167232 111.376484,36.7888661 Z M105.252724,36.7358304 C105.252724,35.654625 105.459798,34.6248482 105.873946,33.6473036 C106.288094,32.6693571 106.848601,31.8231964 107.555869,31.1076161 C108.262735,30.3928393 109.116362,29.8243125 110.116349,29.4016339 C111.116335,28.9793571 112.178243,28.7680179 113.302473,28.7680179 C114.402981,28.7680179 115.442774,28.9620804 116.422254,29.3485982 C117.40093,29.7359196 118.232442,30.2514107 118.915987,30.895875 C119.59913,31.5403393 120.140739,32.2920804 120.54001,33.1519018 C120.939281,34.012125 121.139117,34.9028839 121.139117,35.8249821 C121.139117,36.6173036 121.031358,37.3320804 120.815439,37.9677054 C120.599117,38.6037321 120.309213,39.1152054 119.945728,39.5029286 C119.581439,39.89025 119.170507,40.1859643 118.711728,40.3900714 C118.253351,40.5945804 117.772456,40.6966339 117.269448,40.6966339 C115.932514,40.6966339 114.997665,40.2377946 114.465304,39.3205179 C113.690084,40.2140893 112.799464,40.660875 111.793447,40.660875 C110.834875,40.660875 110.042365,40.3265893 109.415112,39.6572143 C108.788261,38.9882411 108.474232,38.1055179 108.474232,37.01025 C108.474232,36.1532411 108.655975,35.3589107 109.020264,34.6272589 C109.384151,33.8956071 109.875097,33.3170357 110.493505,32.8915446 C111.111912,32.4660536 111.775755,32.2535089 112.485838,32.2535089 C113.544931,32.2535089 114.358752,32.7095357 114.926496,33.6207857 L115.139601,32.4961875 L117.961839,32.9373482 L117.127511,37.6354286 C117.074436,37.9086429 117.047497,38.1754286 117.047497,38.4365893 C117.047497,38.7519911 117.154049,39.0107411 117.367154,39.2132411 C117.58026,39.4157411 117.867349,39.5165893 118.228019,39.5165893 C118.84321,39.5165893 119.355467,39.19275 119.763181,38.5450714 C120.1717,37.8969911 120.375959,36.9905625 120.375959,35.8249821 C120.375959,34.9912768 120.199444,34.1905179 119.847619,33.4223036 C119.495392,32.6540893 119.013292,31.9802946 118.401318,31.4013214 C117.78854,30.8219464 117.038651,30.3598929 116.151248,30.0143571 C115.263846,29.6680179 114.31412,29.4956518 113.302473,29.4956518 C112.267103,29.4956518 111.293655,29.6856964 110.382529,30.0669911 C109.471404,30.4482857 108.6994,30.9621696 108.066115,31.6086429 C107.432831,32.2559196 106.933039,33.0241339 106.566337,33.9132857 C106.199233,34.8024375 106.015882,35.7430179 106.015882,36.7358304 C106.015882,37.7415 106.198027,38.6869018 106.561512,39.5716339 C106.925801,40.4559643 107.427202,41.2205625 108.066115,41.8654286 C108.705029,42.5102946 109.483064,43.0193571 110.400221,43.3922143 C111.317378,43.7646696 112.305704,43.9510982 113.364394,43.9510982 C114.234105,43.9510982 115.015357,43.8518571 115.707346,43.6537768 C116.399737,43.4556964 117.100974,43.1499375 117.811057,42.7360982 L118.174944,43.3122589 C116.67798,44.2231071 115.074464,44.6783304 113.364394,44.6783304 C112.441206,44.6783304 111.561444,44.5453393 110.724302,44.2789554 C109.886758,44.0125714 109.138477,43.6352946 108.478655,43.1475268 C107.818833,42.6589554 107.246665,42.0880179 106.761348,41.4347143 C106.276031,40.7810089 105.9037,40.0517679 105.643149,39.2469911 C105.383,38.4426161 105.252724,37.6052946 105.252724,36.7358304 Z" id="Fill-1" fill="#C6C8CC"></path>
                <path d="M131.292658,35.1267991 L133.617515,35.1267991 C134.215416,35.1267991 134.679825,34.9913973 135.011143,34.720192 C135.342462,34.4493884 135.508121,34.0753259 135.508121,33.5972009 C135.508121,33.1134509 135.340853,32.7450134 135.00672,32.4914866 C134.672185,32.2387634 134.203354,32.1113973 133.599824,32.1113973 L131.292658,32.1113973 L131.292658,35.1267991 Z M127.769184,41.7337634 L127.769184,29.016442 L133.772318,29.016442 C135.619901,29.016442 136.997847,29.4744777 137.906962,30.3901473 C138.656449,31.1451027 139.031595,32.1559955 139.031595,33.4228259 C139.031595,34.3529598 138.802809,35.1436741 138.344431,35.7929598 C137.886456,36.4426473 137.249151,36.9404598 136.432917,37.2855937 L139.46826,41.7337634 L135.40197,41.7337634 L132.836666,37.8669777 L131.292658,37.8669777 L131.292658,41.7337634 L127.769184,41.7337634 Z" id="Fill-3" fill="#C6C8CC"></path>
                <path d="M140.527232,41.7338839 L143.979537,41.7338839 L143.979537,31.9078125 L140.527232,31.9078125 L140.527232,41.7338839 Z M140.447619,31.0206696 L144.050706,31.0206696 L144.050706,28.4753571 L140.447619,28.4753571 L140.447619,31.0206696 Z" id="Fill-5" fill="#C6C8CC"></path>
                <polygon id="Fill-7" fill="#C6C8CC" points="144.969431 31.9078125 148.608304 31.9078125 150.498507 37.6453125 152.389113 31.9078125 155.974508 31.9078125 152.042917 41.805 148.901022 41.805"></polygon>
                <path d="M159.183029,36.0135804 L162.59995,36.0135804 C162.534812,35.4639375 162.351462,35.0296071 162.049495,34.7101875 C161.747931,34.3907679 161.363136,34.2308571 160.895912,34.2308571 C160.45201,34.2308571 160.078071,34.392375 159.77329,34.7146071 C159.468509,35.0368393 159.27189,35.4695625 159.183029,36.0135804 M155.908043,36.8296071 C155.908043,36.1204554 156.030679,35.4494732 156.276354,34.8166607 C156.522028,34.1838482 156.860584,33.638625 157.292825,33.1801875 C157.724263,32.7221518 158.249789,32.3585357 158.867794,32.0893393 C159.486201,31.8201429 160.153261,31.6859464 160.868973,31.6859464 C161.691639,31.6859464 162.425043,31.8293839 163.07039,32.1162589 C163.714933,32.4031339 164.235634,32.7960804 164.632492,33.2955 C165.028546,33.7953214 165.328904,34.36425 165.533163,35.0026875 C165.737423,35.641125 165.839552,36.3301875 165.839552,37.0690714 C165.839552,37.3824643 165.833119,37.6187143 165.821458,37.778625 L159.236104,37.778625 C159.372411,38.3162143 159.625323,38.7256339 159.995241,39.0064821 C160.364356,39.2877321 160.821929,39.4279554 161.366352,39.4279554 C162.135542,39.4279554 162.862914,39.0868393 163.549274,38.4038036 L165.457571,39.9964821 C164.410541,41.3143393 162.984344,41.9732679 161.179785,41.9732679 C160.156075,41.9732679 159.24495,41.7607232 158.446408,41.3348304 C157.647867,40.9093393 157.025036,40.3062589 156.577918,39.5255893 C156.131201,38.7453214 155.908043,37.8465268 155.908043,36.8296071" id="Fill-8" fill="#C6C8CC"></path>
                <path d="M167.122245,41.7339241 L167.122245,31.9078527 L170.57455,31.9078527 L170.57455,33.885442 C171.168028,32.4607098 172.146704,31.747942 173.511784,31.747942 L173.689505,31.747942 L173.689505,35.3752634 L173.395983,35.3752634 C171.515028,35.3752634 170.57455,36.4781652 170.57455,38.6831652 L170.57455,41.7339241 L167.122245,41.7339241 Z" id="Fill-9" fill="#C6C8CC"></path>
                <path d="M177.554873,36.8296875 C177.554873,37.4741518 177.751492,38.0077232 178.145536,38.4304018 C178.538374,38.8530804 179.016453,39.0644196 179.578568,39.0644196 C180.140684,39.0644196 180.613938,38.8514732 180.998332,38.4259821 C181.383128,38.0000893 181.575324,37.4564732 181.575324,36.7939286 C181.575324,36.1554911 181.383128,35.6267411 180.998332,35.206875 C180.613938,34.7870089 180.140684,34.5772768 179.578568,34.5772768 C179.010422,34.5772768 178.531538,34.7870089 178.140711,35.206875 C177.750286,35.6267411 177.554873,36.1675446 177.554873,36.8296875 M174.524355,38.9667857 C174.290341,38.3166964 174.173737,37.6043304 174.173737,36.8296875 C174.173737,36.0550446 174.290341,35.3414732 174.524355,34.6877679 C174.757967,34.0348661 175.0728,33.4904464 175.469256,33.0561161 C175.865712,32.6213839 176.325698,32.2842857 176.849615,32.0452232 C177.37313,31.8057589 177.924791,31.685625 178.504598,31.685625 C179.185329,31.685625 179.761919,31.8133929 180.235174,32.0669196 C180.70883,32.32125 181.137453,32.6675893 181.522249,33.1047321 L181.522249,28.4753571 L184.974554,28.4753571 L184.974554,41.7338839 L181.522249,41.7338839 L181.522249,40.4300893 C181.125793,40.9090179 180.695562,41.2830804 180.230751,41.5522768 C179.766342,41.8210714 179.196989,41.9556696 178.52229,41.9556696 C177.942483,41.9556696 177.389213,41.8359375 176.862482,41.5964732 C176.336152,41.3570089 175.87295,41.0215179 175.473679,40.5895982 C175.074408,40.1584821 174.757967,39.6172768 174.524355,38.9667857" id="Fill-10" fill="#C6C8CC"></path>
                <path d="M189.478795,38.7185625 C189.478795,39.0496339 189.590977,39.3115982 189.816145,39.50325 C190.04091,39.6957054 190.334031,39.7917321 190.694701,39.7917321 C191.203741,39.7917321 191.616281,39.6442768 191.933124,39.3481607 C192.249565,39.0528482 192.407585,38.6623125 192.407585,38.1773571 L192.407585,37.7165089 C192.005097,37.5509732 191.555566,37.4682054 191.058991,37.4682054 C190.561611,37.4682054 190.174001,37.5807054 189.89616,37.8053036 C189.617917,38.0299018 189.478795,38.3344554 189.478795,38.7185625 M186.151136,38.8780714 C186.151136,37.8852589 186.49693,37.1222679 187.189321,36.5903036 C187.88131,36.0579375 188.818973,35.7919554 190.002712,35.7919554 C190.884083,35.7919554 191.674181,35.9193214 192.372201,36.17325 L192.372201,36.0137411 C192.372201,34.9494107 191.715194,34.4174464 190.401983,34.4174464 C189.502518,34.4174464 188.600238,34.5978482 187.694742,34.9586518 L186.985062,32.5286518 C188.233135,32.0199911 189.561625,31.7656607 190.97013,31.7656607 C192.668136,31.7656607 193.916611,32.1646339 194.715153,32.9629821 C195.419204,33.6488304 195.771431,34.6894554 195.771431,36.0844554 L195.771431,41.7339643 L192.35451,41.7339643 L192.35451,40.7142321 C191.603012,41.5419107 190.638811,41.95575 189.461103,41.95575 C188.490871,41.95575 187.696351,41.6853482 187.077943,41.1441429 C186.459938,40.6029375 186.151136,39.8479821 186.151136,38.8780714" id="Fill-11" fill="#C6C8CC"></path>
                <polygon id="Fill-12" fill="#C6C8CC" points="197.417488 41.7338839 200.869793 41.7338839 200.869793 28.4753571 197.417488 28.4753571"></polygon>
                <path d="M205.480949,36.0135804 L208.89787,36.0135804 C208.832733,35.4639375 208.649382,35.0296071 208.347415,34.7101875 C208.045851,34.3907679 207.661056,34.2308571 207.193833,34.2308571 C206.74993,34.2308571 206.375991,34.392375 206.07121,34.7146071 C205.766429,35.0368393 205.56981,35.4695625 205.480949,36.0135804 M202.205963,36.8296071 C202.205963,36.1204554 202.328599,35.4494732 202.574274,34.8166607 C202.819948,34.1838482 203.158504,33.638625 203.590745,33.1801875 C204.022183,32.7221518 204.547709,32.3585357 205.165714,32.0893393 C205.784121,31.8201429 206.451181,31.6859464 207.166893,31.6859464 C207.989559,31.6859464 208.722963,31.8293839 209.36831,32.1162589 C210.012853,32.4031339 210.533554,32.7960804 210.930412,33.2955 C211.326466,33.7953214 211.626824,34.36425 211.831083,35.0026875 C212.035343,35.641125 212.137472,36.3301875 212.137472,37.0690714 C212.137472,37.3824643 212.131039,37.6187143 212.119378,37.778625 L205.534024,37.778625 C205.670331,38.3162143 205.923243,38.7256339 206.293161,39.0064821 C206.662276,39.2877321 207.119849,39.4279554 207.664272,39.4279554 C208.433462,39.4279554 209.160834,39.0868393 209.847194,38.4038036 L211.755491,39.9964821 C210.708461,41.3143393 209.282264,41.9732679 207.477705,41.9732679 C206.453995,41.9732679 205.54287,41.7607232 204.744328,41.3348304 C203.945787,40.9093393 203.322957,40.3062589 202.875838,39.5255893 C202.429121,38.7453214 202.205963,37.8465268 202.205963,36.8296071" id="Fill-13" fill="#C6C8CC"></path>
                <path d="M212.86967,43.4010938 C213.461539,43.3299777 213.912679,43.1560045 214.223089,42.8779688 C214.533901,42.599933 214.689106,42.230692 214.689106,41.7690402 L214.689106,41.6987277 L213.278188,41.6987277 L213.278188,38.1597991 L216.890121,38.1597991 L216.890121,41.0422098 C216.890121,42.3251116 216.567649,43.2520313 215.923106,43.822567 C215.277759,44.3931027 214.352159,44.6960491 213.145098,44.731808 L212.86967,43.4010938 Z" id="Fill-14" fill="#C6C8CC"></path>
                <polygon id="Fill-15" fill="#C6C8CC" points="223.449139 41.7339241 223.449139 29.0166027 227.176873 29.0166027 230.211813 33.9384777 233.247156 29.0166027 236.983333 29.0166027 236.983333 41.7339241 233.459859 41.7339241 233.459859 34.4350848 230.211813 39.4103973 230.141046 39.4103973 226.901444 34.4708438 226.901444 41.7339241"></polygon>
                <path d="M241.816279,36.8296875 C241.816279,37.4387946 242.015311,37.9603125 242.413778,38.3950446 C242.812646,38.8297768 243.310026,39.0467411 243.906319,39.0467411 C244.514674,39.0467411 245.00763,38.8337946 245.385189,38.4083036 C245.762747,37.9824107 245.952129,37.4564732 245.952129,36.8296875 C245.952129,36.2205804 245.754303,35.6990625 245.359053,35.2643304 C244.962999,34.8295982 244.467228,34.6122321 243.870935,34.6122321 C243.262982,34.6122321 242.768417,34.8271875 242.387642,35.2554911 C242.006867,35.6841964 241.816279,36.2089286 241.816279,36.8296875 M238.435143,36.8296875 C238.435143,36.1378125 238.573058,35.4772768 238.848487,34.8472768 C239.124317,34.2176786 239.501071,33.67125 239.978749,33.2067857 C240.456024,32.7427232 241.035831,32.3730804 241.717768,32.0982589 C242.399705,31.8234375 243.12949,31.685625 243.906319,31.685625 C244.93244,31.685625 245.862464,31.91625 246.695585,32.3775 C247.528706,32.83875 248.176867,33.4627232 248.639668,34.2490179 C249.102066,35.0353125 249.333265,35.8955357 249.333265,36.8296875 C249.333265,37.5215625 249.195752,38.1820982 248.919519,38.8120982 C248.643689,39.4412946 248.268945,39.988125 247.794082,40.4525893 C247.320023,40.9166518 246.741423,41.2862946 246.059486,41.5607143 C245.377147,41.8359375 244.647764,41.9733482 243.870935,41.9733482 C243.099735,41.9733482 242.374775,41.8371429 241.695653,41.5655357 C241.016531,41.2935268 240.439538,40.9266964 239.965078,40.4658482 C239.490617,40.0045982 239.116678,39.4577679 238.844064,38.8249554 C238.57145,38.1925446 238.435143,37.5271875 238.435143,36.8296875" id="Fill-16" fill="#C6C8CC"></path>
                <path d="M249.826181,40.4583348 L251.122103,38.3686473 C252.257994,39.098692 253.385441,39.4635134 254.503641,39.4635134 C255.083046,39.4635134 255.373351,39.2827098 255.373351,38.9202991 C255.373351,38.747933 255.254736,38.6061027 255.017908,38.4936027 C254.781482,38.3815045 254.373365,38.2509241 253.793156,38.1014598 C253.355285,37.9865491 252.982954,37.8772634 252.674956,37.7736027 C252.367361,37.6707455 252.053734,37.5325312 251.734479,37.3601652 C251.414821,37.1873973 251.158692,37.0009687 250.966496,36.7996741 C250.774299,36.5983795 250.616279,36.3456562 250.491633,36.0411027 C250.36779,35.7361473 250.305467,35.3942277 250.305467,35.014942 C250.305467,33.974317 250.669354,33.1639152 251.397129,32.5833348 C252.124904,32.0027545 253.074629,31.7122634 254.245904,31.7122634 C254.967647,31.7122634 255.683761,31.8163259 256.393844,32.0240491 C257.103927,32.2317723 257.740026,32.5218616 258.301739,32.894317 L257.121619,35.0840491 C256.612578,34.8136473 256.097909,34.5998973 255.577209,34.4415937 C255.056508,34.283692 254.600945,34.204942 254.21052,34.204942 C253.949969,34.204942 253.752143,34.247933 253.615836,34.3339152 C253.479529,34.4202991 253.411577,34.5408348 253.411577,34.6959241 C253.411577,34.868692 253.528584,35.0105223 253.762195,35.1230223 C253.995807,35.2347187 254.411563,35.3773527 255.009464,35.549317 C255.446933,35.6702545 255.819666,35.7851652 256.127664,35.8944509 C256.435259,36.0037366 256.748885,36.1447634 257.068543,36.3167277 C257.387799,36.4890937 257.643525,36.6763259 257.836124,36.8772187 C258.027919,37.0785134 258.186743,37.326817 258.310987,37.622933 C258.434829,37.9190491 258.497153,38.2509241 258.497153,38.6189598 C258.497153,39.6921295 258.13608,40.5165937 257.414337,41.0923527 C256.692593,41.6681116 255.715928,41.9557902 254.485547,41.9557902 C252.728434,41.9557902 251.175178,41.4563705 249.826181,40.4583348" id="Fill-17" fill="#C6C8CC"></path>
                <path d="M259.327419,36.8339866 C259.327419,35.910683 259.548968,35.0605045 259.991664,34.2818437 C260.435164,33.5039866 261.063221,32.8812187 261.877846,32.413942 C262.692069,31.9462634 263.605205,31.7124241 264.616852,31.7124241 C266.498209,31.7124241 267.897467,32.4404598 268.815025,33.8961295 L266.507055,35.5759955 C266.045863,34.9279152 265.453994,34.6036741 264.731848,34.6036741 C264.122689,34.6036741 263.632949,34.8166205 263.263433,35.2417098 C262.893514,35.6667991 262.708555,36.197558 262.708555,36.8339866 C262.708555,37.476442 262.891906,38.0120223 263.258608,38.4399241 C263.625711,38.8678259 264.095749,39.0823795 264.669927,39.0823795 C265.054723,39.0823795 265.385639,38.9976027 265.664284,38.8280491 C265.942125,38.6584955 266.228812,38.3953259 266.524747,38.0385402 L268.876947,39.7344777 C267.870929,41.2271116 266.409349,41.9732277 264.492608,41.9732277 C263.528005,41.9732277 262.64784,41.7413973 261.850907,41.2781384 C261.054778,40.8140759 260.435164,40.1897009 259.991664,39.403808 C259.548968,38.6179152 259.327419,37.7617098 259.327419,36.8339866" id="Fill-18" fill="#C6C8CC"></path>
                <path d="M272.59113,36.8296875 C272.59113,37.4387946 272.790162,37.9603125 273.188629,38.3950446 C273.587497,38.8297768 274.084877,39.0467411 274.68117,39.0467411 C275.289525,39.0467411 275.782481,38.8337946 276.16004,38.4083036 C276.537598,37.9824107 276.72698,37.4564732 276.72698,36.8296875 C276.72698,36.2205804 276.529154,35.6990625 276.133904,35.2643304 C275.73785,34.8295982 275.242079,34.6122321 274.645786,34.6122321 C274.037833,34.6122321 273.543268,34.8271875 273.162493,35.2554911 C272.781718,35.6841964 272.59113,36.2089286 272.59113,36.8296875 M269.209994,36.8296875 C269.209994,36.1378125 269.347909,35.4772768 269.623338,34.8472768 C269.899168,34.2176786 270.275922,33.67125 270.7536,33.2067857 C271.230875,32.7427232 271.810682,32.3730804 272.492619,32.0982589 C273.174556,31.8234375 273.904341,31.685625 274.68117,31.685625 C275.707292,31.685625 276.637315,31.91625 277.470436,32.3775 C278.303557,32.83875 278.951718,33.4627232 279.414519,34.2490179 C279.876917,35.0353125 280.108116,35.8955357 280.108116,36.8296875 C280.108116,37.5215625 279.970603,38.1820982 279.69437,38.8120982 C279.41854,39.4412946 279.043796,39.988125 278.568933,40.4525893 C278.094875,40.9166518 277.516274,41.2862946 276.834337,41.5607143 C276.151998,41.8359375 275.422615,41.9733482 274.645786,41.9733482 C273.874586,41.9733482 273.149626,41.8371429 272.470504,41.5655357 C271.791382,41.2935268 271.214389,40.9266964 270.739929,40.4658482 C270.265468,40.0045982 269.891529,39.4577679 269.618915,38.8249554 C269.346301,38.1925446 269.209994,37.5271875 269.209994,36.8296875" id="Fill-19" fill="#C6C8CC"></path>
                <polygon id="Fill-20" fill="#C6C8CC" points="280.193036 31.9078125 283.574574 31.9078125 284.861248 36.8473661 286.369872 31.8720536 289.219049 31.8720536 290.745365 36.8827232 292.077072 31.9078125 295.405133 31.9078125 292.36979 41.805 289.387523 41.805 287.79044 36.7051339 286.148323 41.805 283.183748 41.805"></polygon>
                <path d="M0,18.1537232 L3.15114313,14.4094821 C5.18810766,16.0359107 7.39113346,16.8487232 9.75981844,16.8487232 C10.5056868,16.8487232 11.0766481,16.7233661 11.4731042,16.4730536 C11.8695604,16.2223393 12.0677885,15.8611339 12.0677885,15.3878304 C12.0677885,14.9530982 11.8341769,14.5987232 11.3669537,14.3247054 C10.8997305,14.0502857 9.99584255,13.7573839 8.65609407,13.4447946 C7.96691973,13.2844821 7.36861668,13.1354196 6.86038076,12.9984107 C6.35214484,12.8614018 5.81294834,12.6886339 5.24319336,12.4809107 C4.67303629,12.2727857 4.18852341,12.0550179 3.78965471,11.8284107 C3.39078601,11.6014018 3.00116528,11.3273839 2.62159668,11.0055536 C2.24122391,10.684125 1.93724736,10.3369821 1.70966704,9.96332143 C1.48168463,9.5900625 1.29833369,9.15291964 1.16082049,8.65149107 C1.02330729,8.15046429 0.954550693,7.601625 0.954550693,7.00617857 C0.954550693,5.08725 1.66825224,3.52229464 3.09645951,2.31171429 C4.52466678,1.1019375 6.44382031,0.496446429 8.85432216,0.496446429 C12.1960538,0.496446429 14.9885367,1.39483929 17.2325752,3.19122321 L14.4006879,7.17653571 C12.5000303,5.84300893 10.6037956,5.17644643 8.71278811,5.17644643 C8.05175974,5.17644643 7.54714259,5.30220536 7.19773039,5.55251786 C6.84872028,5.80323214 6.67421523,6.13189286 6.67421523,6.53809821 C6.67421523,7.01140179 6.90782683,7.37742857 7.37464796,7.63738393 C7.84187117,7.89774107 8.77873011,8.18823214 10.1848227,8.50966071 C11.4304832,8.78408036 12.4895761,9.08421429 13.3621014,9.4100625 C14.2346266,9.7363125 15.0198994,10.1453304 15.7171154,10.6371161 C16.4143315,11.1289018 16.9334237,11.7267589 17.2751963,12.4310893 C17.6165668,13.1354196 17.7874531,13.9602857 17.7874531,14.9060893 C17.7874531,16.9576071 17.0391722,18.5743929 15.5426104,19.7560446 C14.0464507,20.9385 12.0480863,21.529125 9.54791944,21.529125 C7.70958508,21.529125 5.96574079,21.2430536 4.31759281,20.6713125 C2.66944484,20.0991696 1.23038126,19.2598393 0,18.1537232" id="Fill-21" fill="#FFFFFF"></path>
                <path d="M18.6891295,9.91358036 L18.6891295,5.4601875 L20.5483723,5.4601875 L20.5483723,1.4889375 L26.0694067,1.4889375 L26.0694067,5.4601875 L29.7311982,5.4601875 L29.7311982,9.91358036 L26.0694067,9.91358036 L26.0694067,15.2432679 C26.0694067,15.7925089 26.1924448,16.1930893 26.4385211,16.4442054 C26.6845973,16.6953214 27.0677847,16.8202768 27.5880832,16.8202768 C28.2599678,16.8202768 28.9551735,16.6450982 29.6745042,16.2947411 L29.6745042,20.5986696 C28.5864612,21.2001429 27.3086338,21.5006786 25.8426305,21.5006786 C24.1200968,21.5006786 22.807288,21.0880446 21.9038021,20.2615714 C21.0003163,19.4350982 20.5483723,18.1152321 20.5483723,16.3019732 L20.5483723,9.91358036 L18.6891295,9.91358036 Z" id="Fill-22" fill="#FFFFFF"></path>
                <path d="M36.3526197,16.3523571 C36.3526197,16.8819107 36.5319497,17.3005714 36.8918161,17.6075357 C37.2512805,17.9153036 37.7197099,18.0683839 38.2971046,18.0683839 C39.1105233,18.0683839 39.7707475,17.8325357 40.276973,17.3596339 C40.7831985,16.8867321 41.0361102,16.2627589 41.0361102,15.4873125 L41.0361102,14.7500357 C40.3927736,14.4856607 39.6738449,14.3526696 38.8789221,14.3526696 C38.0844014,14.3526696 37.4643857,14.5326696 37.0196793,14.8914643 C36.5749729,15.2510625 36.3526197,15.7380268 36.3526197,16.3523571 M31.0302155,16.6078929 C31.0302155,15.0196339 31.583887,13.7994107 32.6908281,12.9484286 C33.7977691,12.0978482 35.2975476,11.6723571 37.1897614,11.6723571 C38.5998748,11.6723571 39.862825,11.8756607 40.9794161,12.2822679 L40.9794161,12.0267321 C40.9794161,10.3247679 39.9295712,9.4741875 37.8286751,9.4741875 C36.3904157,9.4741875 34.9473312,9.76266964 33.4998239,10.3392321 L32.3643348,6.45316071 C34.3606887,5.63994643 36.4849057,5.23333929 38.736986,5.23333929 C41.4526706,5.23333929 43.4490245,5.87177679 44.7264498,7.14825 C45.8522888,8.24472321 46.4152084,9.90891964 46.4152084,12.1404375 L46.4152084,21.1745893 L40.9512701,21.1745893 L40.9512701,19.5433393 C39.7494369,20.8672232 38.2070374,21.5293661 36.3244737,21.5293661 C34.772022,21.5293661 33.5018343,21.0966429 32.5131064,20.2311964 C31.5243784,19.3661518 31.0302155,18.1583839 31.0302155,16.6078929" id="Fill-23" fill="#FFFFFF"></path>
                <path d="M48.9209241,21.1745491 L48.9209241,5.46030804 L54.4419584,5.46030804 L54.4419584,7.68660268 C55.7897486,5.96575446 57.3602941,5.10593304 59.153997,5.10593304 C60.8194346,5.10593304 62.1278205,5.62102232 63.0787524,6.65160268 C64.0292822,7.68218304 64.5049492,9.09606696 64.5049492,10.8920491 L64.5049492,21.1745491 L58.9839149,21.1745491 L58.9839149,12.6868259 C58.9839149,11.8470937 58.782068,11.1990134 58.3783743,10.7413795 C57.9754847,10.2841473 57.4366903,10.0555312 56.7627952,10.0555312 C56.0696,10.0555312 55.5098972,10.286558 55.0828825,10.7486116 C54.6558678,11.2106652 54.4419584,11.8571384 54.4419584,12.6868259 L54.4419584,21.1745491 L48.9209241,21.1745491 Z" id="Fill-24" fill="#FFFFFF"></path>
                <path d="M66.6837293,10.9824107 C66.6837293,9.51991071 66.960364,8.14058036 67.5140356,6.84321429 C68.0677072,5.54584821 68.8268444,4.42808036 69.7918493,3.48950893 C70.7572563,2.55053571 71.9188809,1.80763393 73.2763212,1.26080357 C74.6341635,0.713169643 76.0893105,0.439955357 77.640958,0.439955357 C79.3578625,0.439955357 80.876539,0.693482143 82.1973895,1.19973214 C83.51824,1.70678571 84.7446004,2.45290179 85.8764707,3.43727679 L82.5733393,7.40330357 C81.8170167,6.77008929 81.0514462,6.2971875 80.2774318,5.985 C79.5022112,5.67321429 78.6333047,5.51691964 77.669104,5.51691964 C76.2026986,5.51691964 74.9678944,6.05290179 73.9646913,7.12446429 C72.9618904,8.19602679 72.4604899,9.50986607 72.4604899,11.0659821 C72.4604899,12.7253571 72.9783759,14.0946429 74.0145499,15.1738393 C75.050724,16.2526339 76.3731828,16.7922321 77.9819264,16.7922321 C79.2967456,16.7922321 80.3847886,16.4989286 81.2460555,15.9123214 L81.2460555,13.3601786 L77.2006745,13.3601786 L77.2006745,9.2896875 L86.5684597,9.2896875 L86.5684597,18.4741071 C84.0216509,20.5489286 81.083613,21.5859375 77.7543461,21.5859375 C75.6631,21.5859375 73.7757112,21.1379464 72.0913756,20.2427679 C70.4070399,19.3471875 69.0849832,18.0891964 68.1244012,16.4687946 C67.1638192,14.8483929 66.6837293,13.0194643 66.6837293,10.9824107" id="Fill-25" fill="#FFFFFF"></path>
                <path d="M89.1019594,21.1745491 L89.1019594,4.01785714e-05 L94.6229938,4.01785714e-05 L94.6229938,7.63035268 C95.9422359,5.94767411 97.5131835,5.10593304 99.3350324,5.10593304 C101.00047,5.10593304 102.308856,5.62102232 103.259788,6.65160268 C104.210318,7.68218304 104.685985,9.09606696 104.685985,10.8920491 L104.685985,21.1745491 L99.1649503,21.1745491 L99.1649503,12.6868259 C99.1649503,11.8470937 98.9631034,11.1990134 98.5594097,10.7413795 C98.1565201,10.2841473 97.6177257,10.0555312 96.9438306,10.0555312 C96.2506354,10.0555312 95.6909326,10.286558 95.2639179,10.7486116 C94.8369032,11.2106652 94.6229938,11.8571384 94.6229938,12.6868259 L94.6229938,21.1745491 L89.1019594,21.1745491 Z" id="Fill-26" fill="#FFFFFF"></path>
                <path d="M111.251194,12.0268929 L116.715937,12.0268929 C116.611395,11.1477857 116.318677,10.4526964 115.835772,9.94202679 C115.35327,9.43135714 114.738079,9.17622321 113.990602,9.17622321 C113.280921,9.17622321 112.682618,9.43376786 112.195291,9.94925893 C111.707963,10.4643482 111.393533,11.1570268 111.251194,12.0268929 M106.014435,13.3314911 C106.014435,12.19725 106.21025,11.1240804 106.603088,10.1119821 C106.995523,9.1006875 107.537534,8.22841071 108.227915,7.49555357 C108.918697,6.76269643 109.758654,6.1813125 110.747382,5.751 C111.736109,5.32108929 112.802842,5.10573214 113.947981,5.10573214 C115.263202,5.10573214 116.436488,5.33515179 117.467837,5.79358929 C118.499186,6.25242857 119.331904,6.88082143 119.965993,7.67997321 C120.59968,8.479125 121.07977,9.38916964 121.406665,10.4101071 C121.732756,11.4314464 121.896405,12.5327411 121.896405,13.7143929 C121.896405,14.2158214 121.886755,14.5939018 121.867857,14.8490357 L111.336437,14.8490357 C111.553965,15.7092589 111.958865,16.3637679 112.54993,16.8133661 C113.141398,17.2625625 113.872389,17.4871607 114.742904,17.4871607 C115.972883,17.4871607 117.13692,16.9411339 118.234211,15.8494821 L121.286039,18.3964018 C119.610952,20.5037679 117.330725,21.5576518 114.444557,21.5576518 C112.807667,21.5576518 111.35051,21.2169375 110.073084,20.5363125 C108.796061,19.8552857 107.800096,18.8914018 107.085992,17.6434554 C106.371084,16.3951071 106.014435,14.9579196 106.014435,13.3314911" id="Fill-27" fill="#FFFFFF"></path>
                <path d="M123.947121,21.1745491 L123.947121,5.46030804 L129.468155,5.46030804 L129.468155,8.62316518 C130.417077,6.34463839 131.982395,5.20517411 134.165317,5.20517411 L134.449993,5.20517411 L134.449993,11.0053527 L133.980357,11.0053527 C130.972357,11.0053527 129.468155,12.769192 129.468155,16.2956652 L129.468155,21.1745491 L123.947121,21.1745491 Z" id="Fill-28" fill="#FFFFFF"></path>
                <path d="M69.7650302,30.7635268 L73.3685193,30.7635268 L73.3685193,28.2182143 L69.7650302,28.2182143 L69.7650302,30.7635268 Z M58.9951733,28.2182143 L58.9951733,41.4767411 L62.4474783,41.4767411 L62.4474783,39.1708929 L63.3348808,38.1330804 L65.3143471,41.4767411 L69.1128477,41.4767411 L65.6066632,35.5881696 L69.0239868,31.6506696 L65.1189336,31.6506696 L62.4474783,34.9404911 L62.4474783,28.2182143 L58.9951733,28.2182143 Z M4.25004247,29.0258036 C3.41772573,29.3689286 2.70844712,29.835 2.12260872,30.4236161 L2.12260872,30.4236161 C1.53677032,31.0118304 1.07397005,31.7133482 0.735816246,32.5265625 L0.735816246,32.5265625 C0.397260356,33.3401786 0.227982411,34.2052232 0.227982411,35.1225 L0.227982411,35.1225 C0.227982411,36.3748661 0.519494311,37.5079018 1.10251811,38.5208036 L1.10251811,38.5208036 C1.68513983,39.5341071 2.4752376,40.3232143 3.47200726,40.8877232 L3.47200726,40.8877232 C4.46877692,41.4514286 5.56767626,41.7334821 6.76910738,41.7334821 L6.76910738,41.7334821 C7.66817029,41.7334821 8.48359944,41.6057143 9.21418858,41.3489732 L9.21418858,41.3489732 C9.9451798,41.0922321 10.5511225,40.7663839 11.0336249,40.3694196 L11.0336249,40.3694196 C11.5157253,39.9728571 11.9728964,39.4830804 12.4047361,38.9000893 L12.4047361,38.9000893 L9.75137464,36.9972321 C9.32516414,37.5183482 8.8945307,37.9084821 8.4598764,38.1684375 L8.4598764,38.1684375 C8.02482002,38.4287946 7.49647983,38.5585714 6.87566,38.5585714 L6.87566,38.5585714 C5.99388676,38.5585714 5.26731848,38.2299107 4.69675933,37.5717857 L4.69675933,37.5717857 C4.12579809,36.9140625 3.83991538,36.0976339 3.83991538,35.1225 L3.83991538,35.1225 C3.83991538,34.1533929 4.12579809,33.3381696 4.69675933,32.6772321 L4.69675933,32.6772321 C5.26731848,32.0162946 5.99388676,31.6860268 6.87566,31.6860268 L6.87566,31.6860268 C7.95807385,31.6860268 8.89292236,32.1822321 9.68020553,33.1754464 L9.68020553,33.1754464 L12.2623978,31.1685268 C10.9668787,29.3970536 9.1860426,28.5111161 6.9198894,28.5111161 L6.9198894,28.5111161 C5.97297832,28.5111161 5.08356546,28.6822768 4.25004247,29.0258036 L4.25004247,29.0258036 Z M88.6437429,31.7499107 C88.1286716,31.9640625 87.6763255,32.2629911 87.2859006,32.6470982 L87.2859006,32.6470982 C86.8954757,33.0312054 86.5846637,33.5125446 86.3534646,34.0903125 L86.3534646,34.0903125 C86.1230697,34.6676786 86.0076712,35.2972768 86.0076712,35.9770982 L86.0076712,35.9770982 C86.0076712,37.378125 86.4246337,38.4995089 87.2589609,39.3428571 L87.2589609,39.3428571 C88.0932881,40.1858036 89.1318746,40.6076786 90.3743184,40.6076786 L90.3743184,40.6076786 C91.036553,40.6076786 91.6095247,40.4734821 92.091223,40.2066964 L92.091223,40.2066964 C92.5737255,39.9395089 93.0124006,39.5750893 93.4092589,39.1122321 L93.4092589,39.1122321 L93.4092589,39.4975446 C93.4092589,40.2898661 93.193339,40.8933482 92.7614993,41.3075893 L92.7614993,41.3075893 C92.3296596,41.7218304 91.6847147,41.92875 90.8266645,41.92875 L90.8266645,41.92875 C89.6493585,41.92875 88.5042193,41.6213839 87.3920512,41.00625 L87.3920512,41.00625 L86.2826976,43.2944196 C87.7499071,44.0453571 89.3916218,44.4210268 91.2082435,44.4210268 L91.2082435,44.4210268 C93.1668014,44.4210268 94.6054629,43.9597768 95.5258363,43.0372768 L95.5258363,43.0372768 C96.3690094,42.1919196 96.7907969,40.8857143 96.7907969,39.1174554 L96.7907969,39.1174554 L96.7907969,31.6506696 L93.3561836,31.6506696 L93.3561836,32.7917411 C92.9303752,32.3545982 92.4792354,32.0183036 92.0023621,31.7820536 L92.0023621,31.7820536 C91.5266951,31.5466071 90.9476922,31.4284821 90.2681679,31.4284821 L90.2681679,31.4284821 C89.7000212,31.4284821 89.1580101,31.5357589 88.6437429,31.7499107 L88.6437429,31.7499107 Z M89.9569538,37.4126786 C89.5781894,37.0510714 89.3888072,36.5954464 89.3888072,36.045 L89.3888072,36.045 C89.3888072,35.4764732 89.5781894,35.0075893 89.9569538,34.6367411 L89.9569538,34.6367411 C90.3357182,34.2658929 90.8210353,34.0802679 91.4125029,34.0802679 L91.4125029,34.0802679 C91.99231,34.0802679 92.4699874,34.2610714 92.8459373,34.6230804 L92.8459373,34.6230804 C93.2210829,34.9846875 93.4092589,35.4407143 93.4092589,35.9911607 L93.4092589,35.9911607 C93.4092589,36.5592857 93.2210829,37.0285714 92.8459373,37.3994196 L92.8459373,37.3994196 C92.4699874,37.7702679 91.99231,37.9558929 91.4125029,37.9558929 L91.4125029,37.9558929 C90.8210353,37.9558929 90.3357182,37.7750893 89.9569538,37.4126786 L89.9569538,37.4126786 Z M78.4854579,33.0428571 L78.4854579,31.6506696 L75.0335549,31.6506696 L75.0335549,41.4767411 L78.4854579,41.4767411 L78.4854579,36.1691518 C78.4854579,35.6504464 78.6193523,35.24625 78.886337,34.9569643 L78.886337,34.9569643 C79.1537238,34.6684821 79.5035381,34.5238393 79.9369861,34.5238393 L79.9369861,34.5238393 C80.3583716,34.5238393 80.6953191,34.666875 80.9474267,34.9525446 L80.9474267,34.9525446 C81.1999363,35.2386161 81.325789,35.6440179 81.325789,36.1691518 L81.325789,36.1691518 L81.325789,41.4767411 L84.7784962,41.4767411 L84.7784962,35.0465625 C84.7784962,33.9235714 84.480953,33.0396429 83.8862687,32.3951786 L83.8862687,32.3951786 C83.2911824,31.7511161 82.4733407,31.4284821 81.4319396,31.4284821 L81.4319396,31.4284821 C80.3105234,31.4284821 79.3286309,31.9664732 78.4854579,33.0428571 L78.4854579,33.0428571 Z M42.5486749,31.8415179 C41.8671402,32.1159375 41.286931,32.4855804 40.8092536,32.9496429 L40.8092536,32.9496429 C40.3323803,33.4141071 39.9552242,33.9605357 39.6797958,34.5905357 L39.6797958,34.5905357 C39.4035631,35.2197321 39.2660499,35.8806696 39.2660499,36.5721429 L39.2660499,36.5721429 C39.2660499,37.2696429 39.4023568,37.9354018 39.6749707,38.5682143 L39.6749707,38.5682143 C39.9475846,39.200625 40.321524,39.7470536 40.7959848,40.2083036 L40.7959848,40.2083036 C41.2708476,40.6691518 41.847438,41.0359821 42.5265602,41.3079911 L42.5265602,41.3079911 C43.2056825,41.58 43.9306424,41.7158036 44.7018422,41.7158036 L44.7018422,41.7158036 C45.4786711,41.7158036 46.208054,41.5787946 46.8903929,41.3035714 L46.8903929,41.3035714 C47.5723297,41.0291518 48.1509305,40.6591071 48.6253913,40.1954464 L48.6253913,40.1954464 C49.099852,39.7309821 49.4745956,39.1845536 49.7504262,38.5541518 L49.7504262,38.5541518 C50.0266588,37.9249554 50.1649762,37.2640179 50.1649762,36.5721429 L50.1649762,36.5721429 C50.1649762,35.6379911 49.932973,34.7781696 49.4705748,33.991875 L49.4705748,33.991875 C49.0077745,33.2055804 48.3596129,32.5812054 47.526492,32.1203571 L47.526492,32.1203571 C46.693371,31.6591071 45.7633476,31.4284821 44.7372257,31.4284821 L44.7372257,31.4284821 C43.9603967,31.4284821 43.2310138,31.5662946 42.5486749,31.8415179 L42.5486749,31.8415179 Z M43.2450868,38.1379018 C42.8462181,37.7031696 42.6471859,37.18125 42.6471859,36.5721429 L42.6471859,36.5721429 C42.6471859,35.9513839 42.8373722,35.4266518 43.2185492,34.99875 L43.2185492,34.99875 C43.599324,34.5692411 44.093487,34.3550893 44.7018422,34.3550893 L44.7018422,34.3550893 C45.2981348,34.3550893 45.7939061,34.5724554 46.1899602,35.0067857 L46.1899602,35.0067857 C46.5852101,35.4419196 46.7830361,35.9634375 46.7830361,36.5721429 L46.7830361,36.5721429 C46.7830361,37.1989286 46.594056,37.7252679 46.2160957,38.1507589 L46.2160957,38.1507589 C45.8385375,38.57625 45.3451788,38.7891964 44.7372257,38.7891964 L44.7372257,38.7891964 C44.1409331,38.7891964 43.6435534,38.5722321 43.2450868,38.1379018 L43.2450868,38.1379018 Z M16.2514869,31.8415179 C15.5699522,32.1159375 14.989743,32.4855804 14.5120655,32.9496429 L14.5120655,32.9496429 C14.0351923,33.4141071 13.6580362,33.9605357 13.3826077,34.5905357 L13.3826077,34.5905357 C13.1067771,35.2197321 12.9688619,35.8806696 12.9688619,36.5721429 L12.9688619,36.5721429 C12.9688619,37.2696429 13.1051688,37.9354018 13.3777827,38.5682143 L13.3777827,38.5682143 C13.6503966,39.200625 14.024336,39.7470536 14.4987967,40.2083036 L14.4987967,40.2083036 C14.9736596,40.6691518 15.55025,41.0359821 16.2293722,41.3079911 L16.2293722,41.3079911 C16.9084944,41.58 17.6334544,41.7158036 18.4046541,41.7158036 L18.4046541,41.7158036 C19.1814831,41.7158036 19.9108659,41.5787946 20.5932048,41.3035714 L20.5932048,41.3035714 C21.2751416,41.0291518 21.8537425,40.6591071 22.3282033,40.1954464 L22.3282033,40.1954464 C22.802664,39.7309821 23.1774076,39.1845536 23.4532381,38.5541518 L23.4532381,38.5541518 C23.7294708,37.9249554 23.8673861,37.2640179 23.8673861,36.5721429 L23.8673861,36.5721429 C23.8673861,35.6379911 23.6357849,34.7781696 23.1729846,33.991875 L23.1729846,33.991875 C22.7105865,33.2055804 22.0624248,32.5812054 21.2293039,32.1203571 L21.2293039,32.1203571 C20.396183,31.6591071 19.4661595,31.4284821 18.4400376,31.4284821 L18.4400376,31.4284821 C17.6632087,31.4284821 16.9338258,31.5662946 16.2514869,31.8415179 L16.2514869,31.8415179 Z M16.9478988,38.1379018 C16.5490301,37.7031696 16.3499978,37.18125 16.3499978,36.5721429 L16.3499978,36.5721429 C16.3499978,35.9513839 16.5405863,35.4266518 16.9213611,34.99875 L16.9213611,34.99875 C17.302136,34.5692411 17.7962989,34.3550893 18.4046541,34.3550893 L18.4046541,34.3550893 C19.0005446,34.3550893 19.496718,34.5724554 19.8927721,35.0067857 L19.8927721,35.0067857 C20.288022,35.4419196 20.485848,35.9634375 20.485848,36.5721429 L20.485848,36.5721429 C20.485848,37.1989286 20.2968679,37.7252679 19.9193097,38.1507589 L19.9193097,38.1507589 C19.5413495,38.57625 19.0479907,38.7891964 18.4400376,38.7891964 L18.4400376,38.7891964 C17.843745,38.7891964 17.3463654,38.5722321 16.9478988,38.1379018 L16.9478988,38.1379018 Z M57.7921338,31.4911607 C56.427456,31.4911607 55.447976,32.203125 54.8549001,33.6278571 L54.8549001,33.6278571 L54.8549001,31.6506696 L51.402595,31.6506696 L51.402595,41.4767411 L54.8549001,41.4767411 L54.8549001,38.4259821 C54.8549001,36.2209821 55.7953778,35.1180804 57.6763332,35.1180804 L57.6763332,35.1180804 L57.9702576,35.1180804 L57.9702576,31.4911607 L57.7921338,31.4911607 Z M30.1282575,31.6149107 L28.6204374,36.5898214 L27.3333621,31.6506696 L23.9514219,31.6506696 L26.9429372,41.5478571 L29.9071106,41.5478571 L31.5484231,36.4479911 L33.1463104,41.5478571 L36.1281756,41.5478571 L39.1639202,31.6506696 L35.8354574,31.6506696 L34.5041527,36.6255804 L32.9778366,31.6149107 L30.1282575,31.6149107 Z M69.8446431,41.4767411 L73.2973502,41.4767411 L73.2973502,31.6502679 L69.8446431,31.6502679 L69.8446431,41.4767411 Z" id="Fill-30" fill="url(#linearGradient-1)"></path>
            </g>
        </g>
    </g>
</svg>