<svg xmlns="http://www.w3.org/2000/svg" xmlns:xlink="http://www.w3.org/1999/xlink" width="314" height="43" viewBox="0 0 314 43"><defs><path id="ndi2a" d="M891.21 3832.61v-12.68h6.49c1.542 0 2.693.375 3.452 1.124.548.54.822 1.225.822 2.056 0 1.329-.651 2.28-1.954 2.853.819.275 1.443.662 1.874 1.162.43.5.645 1.174.645 2.025 0 1.08-.423 1.927-1.268 2.54-.845.614-2.022.92-3.53.92zm3.435-7.648h2.202c1.104 0 1.656-.385 1.656-1.154 0-.353-.135-.624-.405-.815-.27-.19-.663-.286-1.18-.286h-2.273zm0 4.862h2.705c.535 0 .949-.104 1.243-.314.293-.21.44-.512.44-.906a.988.988 0 0 0-.431-.848c-.288-.206-.717-.31-1.287-.31h-2.67z"/><path id="ndi2b" d="M903.36 3827.718c0-.707.122-1.376.366-2.007.244-.63.58-1.174 1.011-1.631a4.71 4.71 0 0 1 1.567-1.088 4.935 4.935 0 0 1 1.992-.402c.818 0 1.548.142 2.19.429.641.286 1.16.677 1.554 1.176a5.33 5.33 0 0 1 .896 1.701c.202.637.304 1.324.304 2.061 0 .312-.006.548-.017.707h-6.552c.135.537.387.945.755 1.225.368.28.823.42 1.364.42.765 0 1.49-.34 2.172-1.021l1.9 1.588c-1.044 1.314-2.462 1.971-4.258 1.971-1.018 0-1.924-.212-2.72-.636a4.587 4.587 0 0 1-1.858-1.804c-.444-.778-.666-1.675-.666-2.689m3.258-.813h3.399c-.065-.549-.247-.982-.547-1.3-.3-.318-.683-.477-1.148-.477-.441 0-.814.16-1.117.481-.303.322-.499.754-.587 1.296"/><path id="ndi2c" d="M914.52 3832.609v-9.798h3.435v1.388c.838-1.073 1.815-1.609 2.931-1.609 1.036 0 1.85.321 2.442.964.591.642.887 1.524.887 2.644v6.41h-3.435v-5.291c0-.524-.125-.928-.376-1.214-.251-.285-.586-.427-1.005-.427-.431 0-.78.144-1.046.432-.265.288-.398.691-.398 1.209v5.292z"/><path id="ndi2d" d="M925.8 3821.928h3.585v-2.538H925.8zm.079 10.682h3.425v-9.798h-3.425z"/><path id="ndi2e" d="M931.029 3829.851a6.28 6.28 0 0 1-.349-2.13c0-.773.116-1.485.349-2.136.232-.651.545-1.194.94-1.627.394-.433.853-.77 1.373-1.008a3.9 3.9 0 0 1 1.647-.358c.677 0 1.25.126 1.722.38.47.253.897.599 1.28 1.034v-4.616h3.435v13.22h-3.435v-1.3a4.812 4.812 0 0 1-1.285 1.119c-.462.268-1.029.402-1.7.402-.577 0-1.127-.119-1.65-.358a4.273 4.273 0 0 1-1.382-1.003c-.398-.431-.713-.97-.945-1.619m3.012-2.13c0 .642.196 1.174.588 1.595.392.422.868.633 1.428.633.56 0 1.032-.212 1.415-.637.384-.424.575-.966.575-1.627 0-.637-.191-1.165-.575-1.583a1.843 1.843 0 0 0-1.414-.628c-.566 0-1.044.21-1.434.628-.389.418-.583.958-.583 1.618"/><path id="ndi2f" d="M942.68 3827.719c0-.69.137-1.349.412-1.977a5.127 5.127 0 0 1 1.123-1.636 5.28 5.28 0 0 1 1.731-1.105 5.755 5.755 0 0 1 2.178-.411c1.02 0 1.946.23 2.774.69a5.012 5.012 0 0 1 2.625 4.439c0 .69-.137 1.348-.412 1.976a5.158 5.158 0 0 1-1.119 1.636 5.23 5.23 0 0 1-1.726 1.105 5.755 5.755 0 0 1-2.178.412 5.756 5.756 0 0 1-2.164-.407 5.231 5.231 0 0 1-1.722-1.097 5.022 5.022 0 0 1-1.115-1.636 4.972 4.972 0 0 1-.407-1.99m3.364 0c0 .607.198 1.128.596 1.562.398.433.894.649 1.489.649.606 0 1.098-.212 1.474-.637.378-.424.566-.948.566-1.573 0-.608-.198-1.128-.592-1.561a1.925 1.925 0 0 0-1.484-.65c-.606 0-1.1.214-1.48.641-.379.427-.569.95-.569 1.57"/><path id="ndi2g" d="M954.76 3832.607v-9.798h3.435v1.972c.59-1.42 1.564-2.131 2.922-2.131h.177v3.617h-.292c-1.871 0-2.807 1.1-2.807 3.298v3.042z"/><path id="ndi2h" d="M962.31 3832.609v-9.798h3.435v1.352c.82-1.049 1.792-1.573 2.914-1.573.647 0 1.215.14 1.704.418a2.77 2.77 0 0 1 1.121 1.191c.453-.527.94-.927 1.461-1.2.522-.273 1.123-.409 1.806-.409 1.048 0 1.868.313 2.46.942.591.628.887 1.51.887 2.648v6.429h-3.435v-5.31c0-.523-.12-.925-.357-1.204-.239-.28-.564-.42-.976-.42-.418 0-.758.142-1.02.424-.262.282-.393.683-.393 1.2v5.31h-3.434v-5.31c0-.523-.122-.925-.364-1.204-.242-.28-.57-.42-.983-.42-.42 0-.756.142-1.01.424-.254.282-.381.683-.381 1.2v5.31z"/><path id="ndi2i" d="M988.65 3832.609l5.396-12.769h3.381l5.386 12.769h-3.761l-.928-2.264h-4.882l-.9 2.264zm5.625-5.006h2.853l-1.418-3.598z"/><path id="ndi2j" d="M1003.73 3832.61h3.435v-13.22h-3.435z"/><path id="ndi2k" d="M1008.89 3821.928h3.585v-2.538h-3.585zm.08 10.682h3.424v-9.798h-3.425z"/><path id="ndi2l" d="M1013.74 3827.727c0-.92.22-1.769.66-2.545a4.944 4.944 0 0 1 1.877-1.862c.81-.467 1.719-.7 2.726-.7 1.872 0 3.264.727 4.176 2.178l-2.296 1.675c-.46-.646-1.048-.97-1.766-.97-.606 0-1.093.212-1.461.636-.368.424-.552.954-.552 1.588 0 .64.183 1.174.548 1.601.365.427.832.64 1.403.64.382 0 .712-.084.99-.253.276-.17.561-.432.856-.787l2.34 1.691c-1.001 1.488-2.455 2.232-4.362 2.232-.96 0-1.836-.231-2.628-.693a4.938 4.938 0 0 1-1.85-1.87 5.13 5.13 0 0 1-.661-2.561"/><path id="ndi2m" d="M1023.75 3829.762c0-.99.345-1.75 1.034-2.281.688-.531 1.621-.796 2.799-.796.876 0 1.662.127 2.357.38v-.159c0-1.061-.653-1.591-1.96-1.591-.895 0-1.793.179-2.693.538l-.706-2.422a10.381 10.381 0 0 1 3.964-.761c1.69 0 2.932.398 3.726 1.194.7.684 1.05 1.722 1.05 3.113v5.633h-3.398v-1.018c-.748.825-1.708 1.238-2.879 1.238-.966 0-1.756-.27-2.37-.809-.616-.54-.924-1.292-.924-2.26m3.315-.164c0 .33.112.589.336.78.224.19.515.285.875.285.507 0 .918-.146 1.233-.439.315-.294.473-.681.473-1.162v-.458a3.506 3.506 0 0 0-1.344-.247c-.495 0-.88.111-1.157.334-.278.223-.416.526-.416.907"/><path id="ndi2n" d="M1034.88 3832.609v-9.798h3.435v1.388c.838-1.073 1.815-1.609 2.931-1.609 1.036 0 1.85.321 2.442.964.591.642.887 1.524.887 2.644v6.41h-3.435v-5.291c0-.524-.125-.928-.376-1.214-.251-.285-.586-.427-1.005-.427-.431 0-.78.144-1.046.432-.265.288-.398.691-.398 1.209v5.292z"/><path id="ndi2o" d="M1045.61 3825.592v-2.776h1.157v-2.476h3.435v2.476h2.278v2.776h-2.278v3.323c0 .343.076.592.23.749.152.156.391.235.715.235.417 0 .85-.11 1.298-.329v2.685c-.678.374-1.472.562-2.385.562-1.071 0-1.888-.258-2.45-.773-.562-.515-.843-1.338-.843-2.468v-3.984z"/><path id="ndi2p" d="M1053.1 3827.718c0-.707.122-1.376.366-2.007.244-.63.58-1.174 1.011-1.631a4.71 4.71 0 0 1 1.567-1.088 4.935 4.935 0 0 1 1.992-.402c.818 0 1.548.142 2.19.429.641.286 1.16.677 1.554 1.176a5.33 5.33 0 0 1 .896 1.701c.202.637.304 1.324.304 2.061 0 .312-.006.548-.017.707h-6.552c.135.537.387.945.755 1.225.368.28.823.42 1.364.42.765 0 1.49-.34 2.172-1.021l1.9 1.588c-1.044 1.314-2.462 1.971-4.258 1.971-1.018 0-1.924-.212-2.72-.636a4.587 4.587 0 0 1-1.858-1.804c-.444-.778-.666-1.675-.666-2.689m3.258-.813h3.399c-.065-.549-.247-.982-.547-1.3-.3-.318-.683-.477-1.148-.477-.441 0-.814.16-1.117.481-.303.322-.499.754-.587 1.296"/><path id="ndi2q" d="M749 3809.646l3.135-3.733c2.027 1.621 4.219 2.432 6.575 2.432.742 0 1.31-.125 1.705-.375.394-.25.591-.61.591-1.082 0-.433-.232-.787-.697-1.06-.465-.274-1.364-.566-2.697-.877a54.727 54.727 0 0 1-1.787-.445 19.55 19.55 0 0 1-1.609-.517 9.612 9.612 0 0 1-1.446-.65 7.688 7.688 0 0 1-1.162-.82 4.294 4.294 0 0 1-.907-1.04 5.08 5.08 0 0 1-.546-1.308 6.192 6.192 0 0 1-.205-1.64c0-1.914.71-3.474 2.13-4.68 1.422-1.207 3.331-1.811 5.729-1.811 3.325 0 6.104.896 8.336 2.687l-2.817 3.974c-1.892-1.33-3.778-1.994-5.66-1.994-.657 0-1.16.124-1.507.374s-.521.578-.521.984c0 .47.233.836.697 1.095.465.26 1.397.55 2.796.87 1.239.274 2.293.573 3.161.897.868.326 1.65.734 2.344 1.224.693.49 1.21 1.086 1.55 1.79.339.701.509 1.524.509 2.467 0 2.045-.744 3.658-2.233 4.836-1.49 1.179-3.477 1.768-5.965 1.768-1.829 0-3.563-.286-5.203-.856-1.64-.57-3.072-1.407-4.296-2.51"/><path id="ndi2r" d="M767.59 3801.43v-4.44h1.85v-3.96h5.493v3.96h3.643v4.44h-3.643v5.314c0 .548.122.947.367 1.197.245.25.626.376 1.144.376.668 0 1.36-.175 2.076-.524v4.291c-1.083.6-2.354.9-3.813.9-1.714 0-3.02-.412-3.919-1.236-.899-.824-1.349-2.14-1.349-3.948v-6.37z"/><path id="ndi2s" d="M779.87 3808.112c0-1.585.55-2.8 1.652-3.65 1.102-.847 2.593-1.272 4.477-1.272 1.402 0 2.66.203 3.77.608v-.254c0-1.697-1.045-2.546-3.135-2.546-1.431 0-2.867.288-4.307.863l-1.13-3.874c1.987-.811 4.1-1.217 6.34-1.217 2.702 0 4.689.637 5.96 1.91 1.12 1.093 1.68 2.752 1.68 4.977v9.008h-5.437v-1.626c-1.195 1.32-2.73 1.98-4.603 1.98-1.544 0-2.808-.432-3.791-1.294-.984-.863-1.476-2.067-1.476-3.613m5.295-.256c0 .529.179.947.536 1.253.357.308.821.461 1.395.461.808 0 1.463-.236 1.965-.709.503-.471.754-1.095.754-1.87v-.737c-.639-.264-1.352-.397-2.141-.397-.79 0-1.405.18-1.847.54-.441.358-.662.844-.662 1.459"/><path id="ndi2t" d="M797.67 3812.662v-15.669h5.493v2.22c1.341-1.716 2.903-2.573 4.688-2.573 1.657 0 2.959.514 3.905 1.541.946 1.028 1.419 2.438 1.419 4.228v10.253h-5.493v-8.463c0-.837-.2-1.484-.602-1.94-.402-.456-.937-.684-1.608-.684-.69 0-1.246.23-1.671.692-.425.46-.638 1.104-.638 1.932v8.463z"/><path id="ndi2u" d="M814.55 3803.893c0-1.085.184-2.087.55-3.01.368-.92.862-1.687 1.484-2.3a6.737 6.737 0 0 1 2.16-1.43 6.643 6.643 0 0 1 2.584-.513c1.082 0 2.003.188 2.76.564.758.376 1.476.912 2.154 1.609v-1.82h5.465v11.907c0 2.819-.671 4.903-2.013 6.25-1.464 1.472-3.754 2.207-6.87 2.207-2.89 0-5.502-.6-7.836-1.796l1.765-3.648c1.77.98 3.59 1.47 5.465 1.47 1.365 0 2.391-.33 3.078-.99.687-.661 1.03-1.624 1.03-2.888v-.613a7.657 7.657 0 0 1-2.096 1.745c-.767.426-1.678.639-2.733.639-1.977 0-3.628-.672-4.956-2.017-1.327-1.344-1.991-3.133-1.991-5.366m5.38.108c0 .877.301 1.604.904 2.182.602.577 1.374.865 2.316.865.922 0 1.682-.296 2.28-.887.598-.592.897-1.34.897-2.246 0-.877-.3-1.604-.897-2.181-.598-.578-1.358-.866-2.28-.866-.942 0-1.714.296-2.316.887-.603.591-.904 1.34-.904 2.246"/><path id="ndi2v" d="M833.81 3812.663v-21.113h5.493v7.608c1.313-1.678 2.875-2.517 4.688-2.517 1.657 0 2.959.514 3.905 1.541.946 1.028 1.419 2.438 1.419 4.228v10.253h-5.493v-8.463c0-.837-.2-1.484-.602-1.94-.402-.456-.937-.684-1.608-.684-.69 0-1.246.23-1.671.692-.425.46-.638 1.104-.638 1.932v8.463z"/><path id="ndi2w" d="M850.64 3804.842c0-1.132.195-2.202.586-3.21a7.947 7.947 0 0 1 1.616-2.61 7.516 7.516 0 0 1 2.507-1.738 7.866 7.866 0 0 1 3.184-.644c1.309 0 2.476.229 3.503.686 1.025.457 1.854 1.084 2.485 1.88a8.5 8.5 0 0 1 1.433 2.723c.325 1.018.487 2.116.487 3.294 0 .5-.01.877-.028 1.132h-10.478c.217.857.619 1.51 1.207 1.958.588.448 1.316.672 2.182.672 1.224 0 2.382-.544 3.474-1.633l3.036 2.54c-1.666 2.1-3.935 3.152-6.806 3.152-1.63 0-3.079-.34-4.35-1.018a7.334 7.334 0 0 1-2.972-2.885c-.71-1.244-1.066-2.678-1.066-4.3m5.21-1.3h5.437c-.104-.877-.396-1.57-.876-2.079-.48-.51-1.092-.764-1.835-.764-.706 0-1.302.257-1.786.771-.485.514-.798 1.204-.94 2.072"/><path id="ndi2x" d="M868.48 3812.663v-15.668h5.493v3.153c.944-2.271 2.502-3.408 4.673-3.408h.284v5.784h-.468c-2.992 0-4.489 1.758-4.489 5.274v4.865z"/><path id="ndi2y" d="M769.365 3823.11v5.292c0 .518-.134.921-.401 1.21-.268.287-.611.431-1.029.431-.424 0-.763-.142-1.016-.428-.253-.285-.38-.689-.38-1.213v-5.291h-3.433v6.41c0 1.12.295 2.002.887 2.644.592.643 1.405.964 2.44.964 1.137 0 2.114-.524 2.932-1.574v1.353h3.435v-9.797zm68.659 0v5.292c0 .518-.134.921-.402 1.21-.268.287-.612.431-1.03.431-.423 0-.763-.142-1.016-.428-.254-.285-.38-.689-.38-1.213v-5.291h-3.438v6.41c0 1.12.296 2.002.888 2.644.592.643 1.406.964 2.443.964 1.138 0 2.116-.524 2.935-1.574v1.353h3.438v-9.797zm-53.075 3.099c0 .378.062.72.186 1.023.123.303.28.555.472.756.192.2.446.387.764.559.318.172.63.31.935.412.306.103.677.213 1.113.327.577.15.982.28 1.218.391.236.112.353.253.353.426 0 .361-.288.541-.864.541-1.113 0-2.235-.363-3.365-1.092l-1.288 2.084c1.342.996 2.887 1.493 4.635 1.493 1.224 0 2.195-.287 2.914-.86.717-.575 1.076-1.397 1.076-2.467 0-.367-.061-.698-.185-.993a2.433 2.433 0 0 0-.472-.744 3.07 3.07 0 0 0-.764-.558 6.524 6.524 0 0 0-.936-.42 15.71 15.71 0 0 0-1.113-.345c-.594-.172-1.007-.314-1.24-.425-.233-.112-.349-.255-.349-.426 0-.155.068-.276.204-.361.135-.086.332-.13.59-.13.39 0 .843.08 1.36.237.52.158 1.03.371 1.537.64l1.174-2.183a6.96 6.96 0 0 0-1.898-.868 7.562 7.562 0 0 0-2.137-.31c-1.165 0-2.11.29-2.834.868-.723.58-1.086 1.387-1.086 2.425zm57.895 0c0 .378.061.72.186 1.023.122.303.28.555.472.756.191.2.447.387.765.559.318.172.63.31.937.412.306.103.677.213 1.114.327.577.15.983.28 1.22.391.235.112.352.253.352.426 0 .361-.288.541-.865.541-1.115 0-2.237-.363-3.368-1.092l-1.29 2.084c1.343.996 2.89 1.493 4.64 1.493 1.225 0 2.197-.287 2.917-.86.719-.575 1.078-1.397 1.078-2.467a2.55 2.55 0 0 0-.185-.993 2.403 2.403 0 0 0-.474-.744 3.06 3.06 0 0 0-.764-.558 6.536 6.536 0 0 0-.937-.42c-.306-.11-.677-.225-1.114-.345-.595-.172-1.009-.314-1.242-.425-.233-.112-.348-.255-.348-.426 0-.155.066-.276.203-.361.134-.086.332-.13.592-.13.389 0 .843.08 1.361.237a8.649 8.649 0 0 1 1.538.64l1.176-2.183a6.965 6.965 0 0 0-1.901-.868 7.58 7.58 0 0 0-2.139-.31c-1.167 0-2.113.29-2.838.868-.724.58-1.086 1.387-1.086 2.425zm-63.82-.781c.467 0 .851.158 1.152.477.301.318.484.751.549 1.3h-3.409c.088-.543.285-.974.589-1.296a1.484 1.484 0 0 1 1.12-.481zm-3.587-1.048c-.43.456-.768 1-1.013 1.63a5.53 5.53 0 0 0-.366 2.009c0 1.014.223 1.91.667 2.688a4.596 4.596 0 0 0 1.86 1.803c.796.425 1.703.637 2.723.637 1.796 0 3.217-.656 4.26-1.97l-1.9-1.59c-.684.682-1.409 1.022-2.175 1.022-.542 0-.997-.14-1.365-.42-.368-.28-.62-.688-.756-1.225h6.558c.012-.159.018-.395.018-.707 0-.737-.102-1.424-.305-2.06a5.32 5.32 0 0 0-.897-1.703c-.395-.498-.913-.89-1.555-1.175-.643-.287-1.373-.43-2.192-.43-.714 0-1.377.135-1.993.403a4.702 4.702 0 0 0-1.57 1.088zm47.682 3.639c0-.62.19-1.144.57-1.57.379-.427.871-.642 1.479-.642.594 0 1.088.217 1.483.65.394.434.592.953.592 1.562 0 .624-.188 1.148-.566 1.573-.376.424-.868.636-1.474.636-.595 0-1.091-.216-1.488-.649a2.229 2.229 0 0 1-.596-1.56zm-1.827-3.614a5.12 5.12 0 0 0-1.125 1.637 4.876 4.876 0 0 0-.412 1.977c0 .695.135 1.358.407 1.989.272.63.644 1.175 1.116 1.635a5.22 5.22 0 0 0 1.724 1.097 5.764 5.764 0 0 0 2.166.407c.773 0 1.5-.137 2.179-.411a5.229 5.229 0 0 0 1.727-1.105 5.156 5.156 0 0 0 1.12-1.637 4.867 4.867 0 0 0 .414-1.975c0-.932-.232-1.79-.692-2.574a5.017 5.017 0 0 0-1.936-1.866c-.83-.46-1.756-.69-2.777-.69-.774 0-1.5.137-2.18.412a5.293 5.293 0 0 0-1.731 1.104zm35.492 1.023c.467 0 .85.158 1.152.477.3.318.484.751.55 1.3h-3.41c.088-.543.284-.974.588-1.296a1.484 1.484 0 0 1 1.12-.481zm-3.587-1.048c-.43.456-.768 1-1.013 1.63a5.53 5.53 0 0 0-.366 2.009c0 1.014.222 1.91.667 2.688a4.596 4.596 0 0 0 1.86 1.803c.796.425 1.703.637 2.722.637 1.797 0 3.217-.656 4.261-1.97l-1.9-1.59c-.684.682-1.409 1.022-2.175 1.022-.542 0-.997-.14-1.365-.42-.368-.28-.62-.688-.756-1.225h6.558c.012-.159.018-.395.018-.707 0-.737-.102-1.424-.305-2.06a5.321 5.321 0 0 0-.897-1.703c-.395-.498-.913-.89-1.556-1.175-.642-.287-1.372-.43-2.191-.43a4.94 4.94 0 0 0-1.994.403 4.71 4.71 0 0 0-1.568 1.088zm-58.45-3.745v2.476h-1.159v2.776h1.16v3.984c0 1.13.28 1.953.844 2.468.562.515 1.38.773 2.453.773.913 0 1.71-.187 2.387-.563v-2.684c-.448.22-.88.328-1.3.328-.324 0-.562-.078-.715-.235-.154-.156-.23-.406-.23-.748v-3.323h2.28v-2.776h-2.28v-2.476zm20.054-.408v4.776h-4.51v-4.776h-3.512v12.681h3.512v-4.819h4.51v4.82h3.512v-12.681zm-63.636 1.655a6.38 6.38 0 0 0-1.418 2.09 6.516 6.516 0 0 0-.517 2.581c0 1.27.299 2.411.897 3.421a6.199 6.199 0 0 0 2.47 2.354c1.048.558 2.223.836 3.526.836 2.072 0 3.901-.646 5.487-1.94v-5.726h-5.832v2.538h2.518v1.591c-.536.365-1.214.549-2.032.549-1.002 0-1.825-.337-2.47-1.01-.645-.672-.968-1.526-.968-2.56 0-.97.312-1.79.938-2.458a3.03 3.03 0 0 1 2.305-1.002c.6 0 1.142.098 1.624.291.482.196.959.49 1.43.884l2.056-2.472a7.638 7.638 0 0 0-2.29-1.395c-.823-.316-1.769-.474-2.837-.474-.966 0-1.872.171-2.717.512a6.614 6.614 0 0 0-2.17 1.39z"/><linearGradient id="ndi2z" x1="749.23" x2="861.68" y1="3826.57" y2="3826.57" gradientUnits="userSpaceOnUse"><stop offset="0" stop-color="#f47c22"/><stop offset="1" stop-color="#ffcd02"/></linearGradient></defs><g><g transform="translate(-749 -3791)"><use fill="#727272" xlink:href="#ndi2a"/></g><g transform="translate(-749 -3791)"><use fill="#727272" xlink:href="#ndi2b"/></g><g transform="translate(-749 -3791)"><use fill="#727272" xlink:href="#ndi2c"/></g><g clip-path="url(#clip-903EFA84-E82D-4817-86E8-19259869B7D2)" transform="translate(-749 -3791)"><use fill="#727272" xlink:href="#ndi2d"/></g><g clip-path="url(#clip-903EFA84-E82D-4817-86E8-19259869B7D2)" transform="translate(-749 -3791)"><use fill="#727272" xlink:href="#ndi2e"/></g><g clip-path="url(#clip-903EFA84-E82D-4817-86E8-19259869B7D2)" transform="translate(-749 -3791)"><use fill="#727272" xlink:href="#ndi2f"/></g><g clip-path="url(#clip-903EFA84-E82D-4817-86E8-19259869B7D2)" transform="translate(-749 -3791)"><use fill="#727272" xlink:href="#ndi2g"/></g><g clip-path="url(#clip-903EFA84-E82D-4817-86E8-19259869B7D2)" transform="translate(-749 -3791)"><use fill="#727272" xlink:href="#ndi2h"/></g><g clip-path="url(#clip-903EFA84-E82D-4817-86E8-19259869B7D2)" transform="translate(-749 -3791)"><use fill="#727272" xlink:href="#ndi2i"/></g><g clip-path="url(#clip-903EFA84-E82D-4817-86E8-19259869B7D2)" transform="translate(-749 -3791)"><use fill="#727272" xlink:href="#ndi2j"/></g><g clip-path="url(#clip-903EFA84-E82D-4817-86E8-19259869B7D2)" transform="translate(-749 -3791)"><use fill="#727272" xlink:href="#ndi2k"/></g><g clip-path="url(#clip-903EFA84-E82D-4817-86E8-19259869B7D2)" transform="translate(-749 -3791)"><use fill="#727272" xlink:href="#ndi2l"/></g><g clip-path="url(#clip-903EFA84-E82D-4817-86E8-19259869B7D2)" transform="translate(-749 -3791)"><use fill="#727272" xlink:href="#ndi2m"/></g><g clip-path="url(#clip-903EFA84-E82D-4817-86E8-19259869B7D2)" transform="translate(-749 -3791)"><use fill="#727272" xlink:href="#ndi2n"/></g><g clip-path="url(#clip-903EFA84-E82D-4817-86E8-19259869B7D2)" transform="translate(-749 -3791)"><use fill="#727272" xlink:href="#ndi2o"/></g><g clip-path="url(#clip-903EFA84-E82D-4817-86E8-19259869B7D2)" transform="translate(-749 -3791)"><use fill="#727272" xlink:href="#ndi2p"/></g><g clip-path="url(#clip-903EFA84-E82D-4817-86E8-19259869B7D2)" transform="translate(-749 -3791)"><use fill="#322f31" xlink:href="#ndi2q"/></g><g clip-path="url(#clip-903EFA84-E82D-4817-86E8-19259869B7D2)" transform="translate(-749 -3791)"><use fill="#322f31" xlink:href="#ndi2r"/></g><g clip-path="url(#clip-903EFA84-E82D-4817-86E8-19259869B7D2)" transform="translate(-749 -3791)"><use fill="#322f31" xlink:href="#ndi2s"/></g><g clip-path="url(#clip-903EFA84-E82D-4817-86E8-19259869B7D2)" transform="translate(-749 -3791)"><use fill="#322f31" xlink:href="#ndi2t"/></g><g clip-path="url(#clip-903EFA84-E82D-4817-86E8-19259869B7D2)" transform="translate(-749 -3791)"><use fill="#322f31" xlink:href="#ndi2u"/></g><g clip-path="url(#clip-903EFA84-E82D-4817-86E8-19259869B7D2)" transform="translate(-749 -3791)"><use fill="#322f31" xlink:href="#ndi2v"/></g><g clip-path="url(#clip-903EFA84-E82D-4817-86E8-19259869B7D2)" transform="translate(-749 -3791)"><use fill="#322f31" xlink:href="#ndi2w"/></g><g clip-path="url(#clip-903EFA84-E82D-4817-86E8-19259869B7D2)" transform="translate(-749 -3791)"><use fill="#322f31" xlink:href="#ndi2x"/></g><g transform="translate(-749 -3791)"><g><use fill="url(#ndi2z)" xlink:href="#ndi2y"/></g></g></g></svg>