<?xml version="1.0" encoding="UTF-8"?>
<svg width="343px" height="45px" viewBox="0 0 343 45" version="1.1" xmlns="http://www.w3.org/2000/svg" xmlns:xlink="http://www.w3.org/1999/xlink">
    <!-- Generator: Sketch 47.1 (45422) - http://www.bohemiancoding.com/sketch -->
    <title>stangher-aparts-loftclub-logo</title>
    <desc>Created with Sketch.</desc>
    <defs>
        <linearGradient x1="0%" y1="50%" x2="99.981075%" y2="50%" id="linearGradient-1">
            <stop stop-color="#F47C22" offset="0%"></stop>
            <stop stop-color="#FFCD02" offset="100%"></stop>
        </linearGradient>
    </defs>
    <g id="Page-1" stroke="none" stroke-width="1" fill="none" fill-rule="evenodd">
        <g id="3-1-apartments-main-1170" transform="translate(-149.000000, -127.000000)">
            <g id="stangher-aparts-loftclub-logo" transform="translate(149.000000, 127.000000)">
                <path d="M122.355619,36.6825732 C122.355619,37.1243415 122.479647,37.4695244 122.727156,37.7192195 C122.974665,37.9694634 123.292969,38.0940366 123.682068,38.0940366 C124.165561,38.0940366 124.574966,37.8915366 124.91138,37.485439 C125.247246,37.080439 125.415179,36.5892805 125.415179,36.0125122 C125.415179,35.595439 125.293345,35.262878 125.048031,35.0159268 C124.803815,34.7695244 124.487158,34.6455 124.098059,34.6455 C123.60798,34.6455 123.195283,34.8419634 122.859966,35.2365366 C122.523551,35.630561 122.355619,36.1123902 122.355619,36.6825732 Z M116.25406,36.6298902 C116.25406,35.5515366 116.460409,34.5253171 116.873107,33.5506829 C117.285804,32.5755 117.843934,31.7320244 118.548593,31.0186098 C119.253252,30.3057439 120.103343,29.7388537 121.099964,29.3173902 C122.096036,28.8964756 123.154123,28.6857439 124.274772,28.6857439 C125.371275,28.6857439 126.407409,28.8783659 127.382627,29.2641585 C128.358393,29.6510488 129.186532,30.1647073 129.867593,30.8067805 C130.548654,31.4494024 131.088124,32.1990366 131.486004,33.0567805 C131.883884,33.9139756 132.083099,34.8024512 132.083099,35.7216585 C132.083099,36.5119024 131.974985,37.2242195 131.760404,37.8586098 C131.544726,38.493 131.256057,39.0028171 130.893849,39.3891585 C130.530543,39.7755 130.121139,40.0701951 129.663988,40.2737927 C129.207387,40.4773902 128.728284,40.5789146 128.22723,40.5789146 C126.894743,40.5789146 125.96343,40.1217805 125.43274,39.2069634 C124.660579,40.0987317 123.773169,40.5432439 122.77106,40.5432439 C121.816148,40.5432439 121.025876,40.2101341 120.400793,39.5428171 C119.776259,38.8755 119.463991,37.9958049 119.463991,36.9031829 C119.463991,36.0492805 119.645644,35.2568415 120.007852,34.5275122 C120.370609,33.7981829 120.85959,33.2208659 121.475343,32.7972073 C122.092195,32.3724512 122.754047,32.160622 123.461451,32.160622 C124.516244,32.160622 125.326822,32.6150122 125.892635,33.5237927 L126.10502,32.4026341 L128.917071,32.8422073 L128.085639,37.5271463 C128.032955,37.7993415 128.006063,38.0655 128.006063,38.325622 C128.006063,38.6400732 128.111982,38.898 128.324367,39.0999512 C128.536753,39.3019024 128.822678,39.402878 129.182142,39.402878 C129.7957,39.402878 130.304987,39.0801951 130.712745,38.4337317 C131.118857,37.7878171 131.322462,36.8839756 131.322462,35.7216585 C131.322462,34.8902561 131.147395,34.0917805 130.796163,33.3267805 C130.445479,32.5601341 129.964731,31.8884268 129.355014,31.3111098 C128.744748,30.7337927 127.997283,30.2722683 127.113166,29.9276341 C126.229049,29.583 125.282369,29.4106829 124.274772,29.4106829 C123.242479,29.4106829 122.273299,29.6011098 121.365035,29.9803171 C120.457319,30.360622 119.687902,30.8731829 119.056782,31.5185488 C118.426211,32.1633659 117.928449,32.9289146 117.562948,33.8151951 C117.197447,34.7025732 117.014697,35.6409878 117.014697,36.6298902 C117.014697,37.633061 117.195801,38.5753171 117.558558,39.4577561 C117.920766,40.3390976 118.420174,41.1019024 119.056782,41.7450732 C119.69339,42.3876951 120.468844,42.8947683 121.383145,43.2668415 C122.296897,43.6383659 123.281444,43.8244024 124.336238,43.8244024 C125.202793,43.8244024 125.980991,43.725622 126.670833,43.528061 C127.360675,43.3299512 128.059846,43.0259268 128.767249,42.6132439 L129.129457,43.1878171 C127.637819,44.0955 126.040262,44.5493415 124.336238,44.5493415 C123.416998,44.5493415 122.540015,44.4165366 121.705291,44.1509268 C120.871663,43.8853171 120.125844,43.5088537 119.468382,43.0231829 C118.810919,42.5358659 118.240716,41.9667805 117.757223,41.3148293 C117.273731,40.6634268 116.902193,39.9368415 116.643159,39.1339756 C116.383577,38.3322073 116.25406,37.4969634 116.25406,36.6298902 Z" id="Fill-1" fill="#626366"></path>
                <polygon id="Fill-3" fill="#626366" points="137.981985 32.0189817 137.981985 28.933189 149.106161 28.933189 149.106161 32.0189817 145.294745 32.0189817 145.294745 41.613311 141.784072 41.613311 141.784072 32.0189817"></polygon>
                <path d="M150.251177,41.6135305 L150.251177,28.4109695 L153.691056,28.4109695 L153.691056,33.1688963 C154.513158,32.119628 155.491669,31.5944451 156.626587,31.5944451 C157.664368,31.5944451 158.479336,31.9160305 159.07204,32.5586524 C159.664195,33.2012744 159.960547,34.0820671 159.960547,35.202128 L159.960547,41.6135305 L156.520669,41.6135305 L156.520669,36.3210915 C156.520669,35.7981037 156.394993,35.3942012 156.143643,35.1082866 C155.892293,34.8234695 155.556976,34.6807866 155.137144,34.6807866 C154.705238,34.6807866 154.356201,34.8251159 154.090033,35.1132256 C153.824414,35.4013354 153.691056,35.8041402 153.691056,36.3210915 L153.691056,41.6135305 L150.251177,41.6135305 Z" id="Fill-5" fill="#626366"></path>
                <path d="M164.413346,35.9097805 L167.817552,35.9097805 C167.752794,35.3620976 167.570043,34.928561 167.26985,34.6102683 C166.968558,34.2919756 166.585496,34.1328293 166.119565,34.1328293 C165.67833,34.1328293 165.305146,34.293622 165.00111,34.6146585 C164.698173,34.9362439 164.501702,35.3675854 164.413346,35.9097805 M161.15073,36.7230732 C161.15073,36.0156951 161.272563,35.3472805 161.517328,34.7161829 C161.762093,34.0856341 162.099056,33.5423415 162.529864,33.0852073 C162.960123,32.6280732 163.483678,32.2653293 164.099432,31.9969756 C164.715734,31.7291707 165.380331,31.5947195 166.093771,31.5947195 C166.91313,31.5947195 167.644131,31.7379512 168.286776,32.0238659 C168.929421,32.3092317 169.448037,32.7016098 169.843173,33.1999024 C170.23776,33.6981951 170.536856,34.2656341 170.740461,34.9022195 C170.943517,35.5388049 171.045594,36.2253293 171.045594,36.9623415 C171.045594,37.2745976 171.039557,37.5105732 171.028032,37.6697195 L164.466579,37.6697195 C164.602133,38.205878 164.854032,38.6141707 165.222826,38.8940488 C165.59107,39.1744756 166.046574,39.3144146 166.588789,39.3144146 C167.354914,39.3144146 168.080427,38.9741707 168.764232,38.2936829 L170.665824,39.8813049 C169.621458,41.1950854 168.200614,41.8519756 166.402746,41.8519756 C165.383075,41.8519756 164.47536,41.6395976 163.679051,41.2153902 C162.88384,40.7911829 162.263147,40.1897195 161.81807,39.4115488 C161.372994,38.633378 161.15073,37.7372195 161.15073,36.7230732" id="Fill-7" fill="#626366"></path>
                <polygon id="Fill-9" fill="#626366" points="177.359977 41.6135305 177.359977 28.9334085 180.870101 28.9334085 180.870101 38.527189 187.016661 38.527189 187.016661 41.6135305"></polygon>
                <path d="M190.920825,36.7232927 C190.920825,37.3307927 191.118941,37.8510366 191.516273,38.2845732 C191.913604,38.717561 192.40917,38.9343293 193.003521,38.9343293 C193.608847,38.9343293 194.100572,38.7225 194.4765,38.2977439 C194.853525,37.8735366 195.041764,37.3483537 195.041764,36.7232927 C195.041764,36.1168902 194.844196,35.5960976 194.450706,35.162561 C194.056119,34.7295732 193.56165,34.5133537 192.967849,34.5133537 C192.361973,34.5133537 191.8697,34.7262805 191.48993,35.1543293 C191.110709,35.5818293 190.920825,36.1048171 190.920825,36.7232927 M187.551741,36.7232927 C187.551741,36.0340244 187.688941,35.374939 187.96389,34.7471341 C188.23829,34.1193293 188.614218,33.5743902 189.089479,33.1112195 C189.565289,32.6485976 190.143175,32.2798171 190.822589,32.0059756 C191.502553,31.7315854 192.229164,31.5943902 193.003521,31.5943902 C194.025386,31.5943902 194.952309,31.824878 195.782095,32.2847561 C196.612429,32.7446341 197.258367,33.3664024 197.719359,34.1506098 C198.180351,34.9342683 198.410847,35.7920122 198.410847,36.7232927 C198.410847,37.4136585 198.273098,38.0721951 197.998149,38.7 C197.723749,39.3278049 197.350017,39.8732927 196.8775,40.3359146 C196.404434,40.7985366 195.827645,41.1673171 195.14878,41.4411585 C194.468817,41.7155488 193.742205,41.8521951 192.967849,41.8521951 C192.199529,41.8521951 191.477308,41.7171951 190.800637,41.4455488 C190.123967,41.1744512 189.549373,40.8089634 189.076308,40.3490854 C188.603242,39.8897561 188.231156,39.3437195 187.9595,38.7131707 C187.687295,38.082622 187.551741,37.4191463 187.551741,36.7232927" id="Fill-11" fill="#626366"></path>
                <path d="M199.141025,34.5656524 L199.141025,31.8689451 L200.26387,31.8689451 L200.26387,31.6571159 C200.26387,30.5227866 200.542112,29.6782134 201.099144,29.1255915 C201.667701,28.5614451 202.524377,28.2788232 203.668077,28.2788232 C204.557133,28.2788232 205.300208,28.3671768 205.897302,28.5427866 L205.897302,30.96675 C205.46375,30.8312012 205.040077,30.7637012 204.624635,30.7637012 C203.975405,30.7637012 203.650515,31.0732134 203.650515,31.6922378 L203.650515,31.9221768 L205.878643,31.9221768 L205.878643,34.5656524 L203.703749,34.5656524 L203.703749,41.6136402 L200.26387,41.6136402 L200.26387,34.5656524 L199.141025,34.5656524 Z" id="Fill-13" fill="#626366"></path>
                <path d="M206.219173,34.5924878 L206.219173,31.8156585 L207.37769,31.8156585 L207.37769,29.3401098 L210.817569,29.3401098 L210.817569,31.8156585 L213.099479,31.8156585 L213.099479,34.5924878 L210.817569,34.5924878 L210.817569,37.9153537 C210.817569,38.2583415 210.894401,38.5080366 211.048065,38.664439 C211.200631,38.8208415 211.439908,38.8993171 211.764249,38.8993171 C212.182434,38.8993171 212.615437,38.789561 213.064356,38.5711463 L213.064356,41.2546829 C212.38549,41.6289512 211.58973,41.8166341 210.675978,41.8166341 C209.603074,41.8166341 208.785362,41.5592561 208.222293,41.0439512 C207.659225,40.5291951 207.37769,39.7060244 207.37769,38.5755366 L207.37769,34.5924878 L206.219173,34.5924878 Z" id="Fill-15" fill="#626366"></path>
                <path d="M218.998036,35.2779146 C218.998036,34.3630976 219.167067,33.5009634 219.50403,32.6898659 C219.840993,31.8787683 220.301985,31.179622 220.88536,30.5924268 C221.469283,30.0057805 222.176137,29.5409634 223.005923,29.1990732 C223.835708,28.8571829 224.722569,28.6854146 225.665408,28.6854146 C227.92372,28.6854146 229.69799,29.5689512 230.989316,31.3349268 L228.415993,33.3363293 C227.631209,32.3457805 226.699896,31.8513293 225.621504,31.8513293 C224.742875,31.8513293 224.019008,32.1805976 223.450451,32.8402317 C222.881345,33.4993171 222.597067,34.3115122 222.597067,35.2779146 C222.597067,36.2498049 222.881345,37.0641951 223.450451,37.7199878 C224.019008,38.3763293 224.742875,38.7039512 225.621504,38.7039512 C226.240001,38.7039512 226.7663,38.574439 227.199852,38.3148659 C227.632856,38.0558415 228.062566,37.6667561 228.486788,37.1476098 L231.130358,39.0441951 C230.700099,39.6259024 230.244595,40.1143171 229.764395,40.509439 C229.283646,40.9051098 228.679966,41.2305366 227.95116,41.4862683 C227.223451,41.742 226.411227,41.8704146 225.515585,41.8704146 C224.318104,41.8704146 223.223248,41.5883415 222.230468,41.0263902 C221.23714,40.4633415 220.450161,39.6774878 219.869531,38.6666341 C219.288352,37.6563293 218.998036,36.526939 218.998036,35.2779146" id="Fill-17" fill="#626366"></path>
                <polygon id="Fill-19" fill="#626366" points="232.346005 41.6136951 235.786432 41.6136951 235.786432 28.394122 232.346005 28.394122"></polygon>
                <path d="M237.445015,38.227061 L237.445015,31.8156585 L240.884894,31.8156585 L240.884894,37.1080976 C240.884894,37.6310854 241.011667,38.0349878 241.265212,38.3209024 C241.518758,38.6057195 241.857916,38.7484024 242.282139,38.7484024 C242.700324,38.7484024 243.043873,38.6040732 243.312236,38.3159634 C243.580599,38.0284024 243.714507,37.6255976 243.714507,37.1080976 L243.714507,31.8156585 L247.154385,31.8156585 L247.154385,41.6135854 L243.714507,41.6135854 L243.714507,40.2613902 C242.895148,41.3101098 241.916089,41.8347439 240.778427,41.8347439 C239.741195,41.8347439 238.926227,41.5131585 238.333523,40.8705366 C237.741367,40.2279146 237.445015,39.347122 237.445015,38.227061" id="Fill-21" fill="#626366"></path>
                <path d="M252.173106,36.7232927 C252.173106,37.3664634 252.366832,37.8982317 252.753736,38.3196951 C253.14064,38.7417073 253.614804,38.9518902 254.175677,38.9518902 C254.748624,38.9518902 255.227178,38.7428049 255.611887,38.3240854 C255.996047,37.9053659 256.187578,37.359878 256.187578,36.6881707 C256.187578,36.0510366 255.9944,35.5236585 255.607496,35.1054878 C255.220592,34.6867683 254.743136,34.4776829 254.175677,34.4776829 C253.614804,34.4776829 253.14064,34.6884146 252.753736,35.109878 C252.366832,35.5313415 252.173106,36.0696951 252.173106,36.7232927 L252.173106,36.7232927 Z M248.812804,41.6134756 L248.812804,28.3939024 L252.252682,28.3939024 L252.252682,33.1156098 C252.648367,32.6387195 253.074236,32.2655488 253.529191,31.9971951 C253.984146,31.7288415 254.548312,31.5943902 255.22169,31.5943902 C255.802869,31.5943902 256.355511,31.7140244 256.877968,31.9532927 C257.400975,32.1914634 257.861967,32.5262195 258.262042,32.9570122 C258.66102,33.3867073 258.97658,33.9261585 259.208722,34.5748171 C259.440864,35.2234756 259.55721,35.9335976 259.55721,36.7062805 C259.55721,37.4778659 259.440864,38.1901829 259.208722,38.8410366 C258.97658,39.4929878 258.662666,40.0351829 258.266432,40.4681707 C257.86965,40.9017073 257.409756,41.2381098 256.887298,41.4762805 C256.364292,41.7155488 255.815492,41.8346341 255.2398,41.8346341 C254.560386,41.8346341 253.985244,41.7078659 253.515471,41.4543293 C253.045698,41.2007927 252.624768,40.8561585 252.252682,40.419878 L252.252682,41.6134756 L248.812804,41.6134756 Z" id="Fill-22" fill="#626366"></path>
                <path d="M260.322018,43.2759512 C260.911429,43.2051585 261.361445,43.0311951 261.670419,42.7546098 C261.979943,42.4769268 262.135253,42.1086951 262.135253,41.6488171 L262.135253,41.5780244 L260.728679,41.5780244 L260.728679,38.0504634 L264.328258,38.0504634 L264.328258,40.923878 C264.328258,42.2030854 264.006661,43.1272317 263.364016,43.6963171 C262.721371,44.2648537 261.79829,44.5672317 260.595869,44.6023537 L260.322018,43.2759512 Z" id="Fill-23" fill="#626366"></path>
                <polygon id="Fill-24" fill="#626366" points="270.863423 41.6135305 270.863423 28.9334085 274.577701 28.9334085 277.601041 33.8411524 280.626026 28.9334085 284.348537 28.9334085 284.348537 41.6135305 280.838412 41.6135305 280.838412 34.3361524 277.601041 39.2965793 277.530245 39.2965793 274.303301 34.3718232 274.303301 41.6135305"></polygon>
                <path d="M289.163488,36.7232927 C289.163488,37.3307927 289.361605,37.8510366 289.758936,38.2845732 C290.156268,38.717561 290.651834,38.9343293 291.246184,38.9343293 C291.851511,38.9343293 292.343236,38.7225 292.719164,38.2977439 C293.096189,37.8735366 293.284428,37.3483537 293.284428,36.7232927 C293.284428,36.1168902 293.08686,35.5960976 292.69337,35.162561 C292.298783,34.7295732 291.804314,34.5133537 291.210512,34.5133537 C290.604637,34.5133537 290.112364,34.7262805 289.732594,35.1543293 C289.353373,35.5818293 289.163488,36.1048171 289.163488,36.7232927 M285.794405,36.7232927 C285.794405,36.0340244 285.931605,35.374939 286.206554,34.7471341 C286.480954,34.1193293 286.856882,33.5743902 287.332143,33.1112195 C287.807952,32.6485976 288.385839,32.2798171 289.065253,32.0059756 C289.745216,31.7315854 290.471828,31.5943902 291.246184,31.5943902 C292.26805,31.5943902 293.194973,31.824878 294.024759,32.2847561 C294.855093,32.7446341 295.501031,33.3664024 295.962023,34.1506098 C296.423015,34.9342683 296.653511,35.7920122 296.653511,36.7232927 C296.653511,37.4136585 296.515762,38.0721951 296.240813,38.7 C295.966413,39.3278049 295.59268,39.8732927 295.120164,40.3359146 C294.647098,40.7985366 294.070309,41.1673171 293.391444,41.4411585 C292.71148,41.7155488 291.984869,41.8521951 291.210512,41.8521951 C290.442192,41.8521951 289.719972,41.7171951 289.043301,41.4455488 C288.366631,41.1744512 287.792037,40.8089634 287.318972,40.3490854 C286.845906,39.8897561 286.47382,39.3437195 286.202164,38.7131707 C285.929959,38.082622 285.794405,37.4191463 285.794405,36.7232927" id="Fill-25" fill="#626366"></path>
                <path d="M297.144687,40.3417866 L298.436013,38.2580671 C299.567639,38.98575 300.690484,39.3495915 301.805096,39.3495915 C302.382434,39.3495915 302.671103,39.1690427 302.671103,38.8079451 C302.671103,38.6367256 302.553111,38.4945915 302.317676,38.3826402 C302.081692,38.2712378 301.675031,38.1400793 301.097693,37.9913598 C300.660848,37.8766646 300.289311,37.7685549 299.98308,37.6648354 C299.676301,37.5622134 299.364583,37.4244695 299.046279,37.2527012 C298.727975,37.0803841 298.472783,36.8943476 298.280703,36.6934939 C298.08972,36.4926402 297.931666,36.24075 297.808186,35.9372744 C297.683608,35.63325 297.622143,35.2924573 297.622143,34.9137988 C297.622143,33.8766037 297.9849,33.06825 298.709864,32.4892866 C299.435378,31.910872 300.38096,31.6211159 301.548258,31.6211159 C302.267735,31.6211159 302.981175,31.7253841 303.688578,31.9322744 C304.395981,32.1391646 305.029296,32.428372 305.59017,32.7998963 L304.413543,34.9823963 C303.906452,34.7134939 303.393872,34.5000183 302.874708,34.3425183 C302.356092,34.1850183 301.902234,34.1059939 301.513135,34.1059939 C301.253552,34.1059939 301.055984,34.1493476 300.92098,34.2355061 C300.784877,34.3211159 300.717375,34.4412988 300.717375,34.5955061 C300.717375,34.768372 300.83372,34.9099573 301.066412,35.0219085 C301.299103,35.1338598 301.713447,35.2754451 302.308895,35.4472134 C302.745191,35.5679451 303.116728,35.6826402 303.422959,35.79075 C303.729738,35.8999573 304.042005,36.0404451 304.360309,36.2122134 C304.679162,36.3845305 304.933805,36.5705671 305.125336,36.770872 C305.317416,36.9717256 305.474922,37.2197744 305.598402,37.5144695 C305.722431,37.8097134 305.783896,38.140628 305.783896,38.5072134 C305.783896,39.5773354 305.424432,40.3994085 304.705504,40.9734329 C303.986028,41.5474573 303.013005,41.8350183 301.786986,41.8350183 C300.036863,41.8350183 298.488698,41.3367256 297.144687,40.3417866" id="Fill-26" fill="#626366"></path>
                <path d="M306.611487,36.728122 C306.611487,35.8072683 306.831556,34.9594024 307.27334,34.1834268 C307.715124,33.408 308.341304,32.7862317 309.152431,32.3208659 C309.963557,31.8544024 310.873468,31.6211707 311.882162,31.6211707 C313.756863,31.6211707 315.150815,32.3472073 316.064567,33.7987317 L313.765095,35.4736098 C313.3052,34.8271463 312.715789,34.5039146 311.996861,34.5039146 C311.38934,34.5039146 310.901456,34.7157439 310.533212,35.1399512 C310.164967,35.5641585 309.98057,36.0937317 309.98057,36.728122 C309.98057,37.3685488 310.16332,37.9025122 310.528821,38.3289146 C310.894322,38.7558659 311.362448,38.9698902 311.934298,38.9698902 C312.31736,38.9698902 312.647738,38.885378 312.924882,38.7158049 C313.202026,38.5467805 313.487951,38.2850122 313.782656,37.9288537 L316.126581,39.6201951 C315.123924,41.107939 313.667408,41.8520854 311.757584,41.8520854 C310.796636,41.8520854 309.919653,41.6210488 309.126088,41.1584268 C308.332524,40.6963537 307.715124,40.0740366 307.27334,39.290378 C306.831556,38.5067195 306.611487,37.6528171 306.611487,36.728122" id="Fill-27" fill="#626366"></path>
                <path d="M319.827194,36.7232927 C319.827194,37.3307927 320.025311,37.8510366 320.422642,38.2845732 C320.819974,38.717561 321.31554,38.9343293 321.90989,38.9343293 C322.515217,38.9343293 323.006942,38.7225 323.38287,38.2977439 C323.759895,37.8735366 323.948134,37.3483537 323.948134,36.7232927 C323.948134,36.1168902 323.750566,35.5960976 323.357076,35.162561 C322.962489,34.7295732 322.46802,34.5133537 321.874218,34.5133537 C321.268343,34.5133537 320.77607,34.7262805 320.3963,35.1543293 C320.017079,35.5818293 319.827194,36.1048171 319.827194,36.7232927 M316.458111,36.7232927 C316.458111,36.0340244 316.595311,35.374939 316.87026,34.7471341 C317.14466,34.1193293 317.520588,33.5743902 317.995849,33.1112195 C318.471658,32.6485976 319.049545,32.2798171 319.728959,32.0059756 C320.408922,31.7315854 321.135534,31.5943902 321.90989,31.5943902 C322.931756,31.5943902 323.858679,31.824878 324.688465,32.2847561 C325.518799,32.7446341 326.164737,33.3664024 326.625729,34.1506098 C327.086721,34.9342683 327.317217,35.7920122 327.317217,36.7232927 C327.317217,37.4136585 327.179468,38.0721951 326.904519,38.7 C326.630119,39.3278049 326.256386,39.8732927 325.78387,40.3359146 C325.310804,40.7985366 324.734015,41.1673171 324.05515,41.4411585 C323.375186,41.7155488 322.648575,41.8521951 321.874218,41.8521951 C321.105898,41.8521951 320.383678,41.7171951 319.707007,41.4455488 C319.030337,41.1744512 318.455743,40.8089634 317.982678,40.3490854 C317.509612,39.8897561 317.137526,39.3437195 316.86587,38.7131707 C316.593665,38.082622 316.458111,37.4191463 316.458111,36.7232927" id="Fill-28" fill="#626366"></path>
                <polygon id="Fill-29" fill="#626366" points="327.401019 31.815878 330.770651 31.815878 332.053196 36.7417317 333.555811 31.7807561 336.394753 31.7807561 337.915478 36.7768537 339.241927 31.815878 342.558326 31.815878 339.53334 41.6840488 336.562137 41.6840488 334.970617 36.6001463 333.335193 41.6840488 330.381551 41.6840488"></polygon>
                <path d="M0.36017744,18.1000976 L3.49986224,14.3667439 C5.52932464,15.9883902 7.72397584,16.7994878 10.0849134,16.7994878 C10.8274398,16.7994878 11.3959966,16.6743659 11.7916814,16.4246707 C12.1862686,16.1749756 12.3832878,15.8144268 12.3832878,15.3430244 C12.3832878,14.9094878 12.1505966,14.5555244 11.685763,14.2822317 C11.2203806,14.008939 10.3197998,13.716439 8.98456944,13.4052805 C8.29856944,13.2450366 7.70147504,13.0968659 7.19548144,12.9602195 C6.68839024,12.8235732 6.15166384,12.6512561 5.58420464,12.4438171 C5.01619664,12.236378 4.53325264,12.0196098 4.13592144,11.7935122 C3.73804144,11.5674146 3.35058864,11.294122 2.97191664,10.9736341 C2.59269584,10.6531463 2.29085584,10.3068659 2.06365264,9.93369512 C1.83590064,9.56162195 1.65369904,9.12534146 1.51649904,8.62595122 C1.37929904,8.1260122 1.31069904,7.57887805 1.31069904,6.98509756 C1.31069904,5.07204878 2.02194384,3.51131707 3.44498224,2.30454878 C4.86856944,1.09832927 6.78058864,0.494670732 9.18158864,0.494670732 C12.5122558,0.494670732 15.2946718,1.39028049 17.5299342,3.18095122 L14.7091022,7.15521951 C12.8140958,5.82607317 10.925675,5.16095122 9.04109584,5.16095122 C8.38308464,5.16095122 7.87928624,5.28607317 7.53189584,5.53576829 C7.18395664,5.7860122 7.00998704,6.11363415 7.00998704,6.51863415 C7.00998704,6.99058537 7.24267824,7.35552439 7.70806064,7.61454878 C8.17289424,7.87357317 9.10695184,8.16442683 10.5074894,8.48491463 C11.748875,8.75820732 12.8047662,9.0567439 13.6740654,9.38217073 C14.5433646,9.70759756 15.3259534,10.1153415 16.0201854,10.6059512 C16.7149662,11.0954634 17.2324846,11.6919878 17.5721918,12.3949756 C17.9124478,13.0968659 18.0825758,13.9194878 18.0825758,14.8622927 C18.0825758,16.9081463 17.3378542,18.5204634 15.8467646,19.6981463 C14.3551262,20.8774756 12.3640798,21.4657683 9.87307664,21.4657683 C8.04118224,21.4657683 6.30423024,21.1804024 4.66167184,20.6102195 C3.01966224,20.0400366 1.58509904,19.2036951 0.36017744,18.1000976" id="Fill-30" fill="#322F31"></path>
                <path d="M18.9813456,9.88446951 L18.9813456,5.4437378 L20.8340944,5.4437378 L20.8340944,1.48428659 L26.3347168,1.48428659 L26.3347168,5.4437378 L29.983688,5.4437378 L29.983688,9.88446951 L26.3347168,9.88446951 L26.3347168,15.198311 C26.3347168,15.7465427 26.4570992,16.1449573 26.7024128,16.39575 C26.9482752,16.6459939 27.3296912,16.7711159 27.8483072,16.7711159 C28.5172944,16.7711159 29.2104288,16.5960549 29.9266128,16.2470305 L29.9266128,20.5384939 C28.8427328,21.1377622 27.5695168,21.4379451 26.1086112,21.4379451 C24.3925136,21.4379451 23.0847232,21.0263598 22.1846912,20.2020915 C21.2841104,19.378372 20.8340944,18.0623963 20.8340944,16.2541646 L20.8340944,9.88446951 L18.9813456,9.88446951 Z" id="Fill-31" fill="#322F31"></path>
                <path d="M36.5809774,16.3047622 C36.5809774,16.832689 36.7598862,17.250311 37.1182526,17.5554329 C37.4760702,17.8622012 37.943099,18.015311 38.5176926,18.015311 C39.3293678,18.015311 39.9862814,17.7798841 40.4911774,17.3084817 C40.9949758,16.837628 41.2474238,16.2147622 41.2474238,15.4420793 L41.2474238,14.7067134 C40.6058766,14.44275 39.8896926,14.3104939 39.0977742,14.3104939 C38.3058558,14.3104939 37.6884558,14.4899451 37.2455742,14.8482988 C36.801595,15.2061037 36.5809774,15.6917744 36.5809774,16.3047622 M31.2773742,16.5588476 C31.2773742,14.9750671 31.829467,13.7589695 32.932555,12.9100061 C34.0350942,12.062689 35.5294766,11.6379329 37.4151534,11.6379329 C38.8200814,11.6379329 40.0784798,11.8404329 41.1908974,12.2459817 L41.1908974,11.9918963 C41.1908974,10.2945183 40.1443358,9.44610366 38.0517614,9.44610366 C36.6182958,9.44610366 35.1804398,9.73311585 33.7381934,10.3087866 L32.6071166,6.43439634 C34.5959678,5.62275 36.7126894,5.21775 38.9561838,5.21775 C41.6623166,5.21775 43.6517166,5.85433537 44.9243838,7.12640854 C46.046131,8.22067683 46.6075534,9.87964024 46.6075534,12.1043963 L46.6075534,21.112628 L41.1629086,21.112628 L41.1629086,19.4860427 C39.9648782,20.8064085 38.4282382,21.4654939 36.5524398,21.4654939 C35.0064702,21.4654939 33.7403886,21.0347012 32.7552926,20.1720183 C31.7701966,19.3093354 31.2773742,18.105311 31.2773742,16.5588476" id="Fill-32" fill="#322F31"></path>
                <path d="M49.1037154,21.1125183 L49.1037154,5.4437378 L54.6043378,5.4437378 L54.6043378,7.66355488 C55.9478002,5.94806707 57.512429,5.09032317 59.2993218,5.09032317 C60.958893,5.09032317 62.262293,5.60453049 63.2095218,6.63184756 C64.1572994,7.65916463 64.6309138,9.06898171 64.6309138,10.8596524 L64.6309138,21.1125183 L59.1302914,21.1125183 L59.1302914,12.6497744 C59.1302914,11.8128841 58.9288818,11.165872 58.5271602,10.7098354 C58.1248898,10.2537988 57.5887122,10.0260549 56.916981,10.0260549 C56.2265906,10.0260549 55.6690098,10.2565427 55.2436898,10.7175183 C54.817821,11.1779451 54.6043378,11.8216646 54.6043378,12.6497744 L54.6043378,21.1125183 L49.1037154,21.1125183 Z" id="Fill-33" fill="#322F31"></path>
                <path d="M66.8025154,10.949872 C66.8025154,9.49231098 67.078013,8.11596951 67.6301058,6.8224939 C68.181101,5.52956707 68.9378962,4.4149939 69.8993938,3.47877439 C70.8608914,2.54255488 72.0183106,1.80170122 73.3711026,1.25621341 C74.7238946,0.71072561 76.1732754,0.438530488 77.7197938,0.438530488 C79.4304034,0.438530488 80.9439938,0.690969512 82.2600162,1.19639634 C83.5754898,1.70127439 84.7976674,2.44487195 85.9260002,3.42664024 L82.6342978,7.38170122 C81.8807954,6.75005488 81.1185122,6.27810366 80.3468994,5.96694512 C79.574189,5.65633537 78.7081826,5.50048171 77.7477826,5.50048171 C76.2863282,5.50048171 75.0559186,6.0349939 74.0571026,7.10292073 C73.0577378,8.17194512 72.557781,9.48133537 72.557781,11.0332866 C72.557781,12.6878598 73.0742018,14.0526768 74.1064946,15.1288354 C75.1387874,16.2049939 76.4564562,16.7433476 78.059501,16.7433476 C79.3689378,16.7433476 80.4539154,16.4502988 81.311141,15.8652988 L81.311141,13.3206037 L77.2813026,13.3206037 L77.2813026,9.26237195 L86.615293,9.26237195 L86.615293,18.419872 C84.0776418,20.4882256 81.1503426,21.5226768 77.8333954,21.5226768 C75.7496018,21.5226768 73.8683154,21.0765183 72.190085,20.1836524 C70.5124034,19.2902378 69.1941858,18.0357256 68.2376274,16.4206646 C67.2805202,14.8045061 66.8025154,12.9809085 66.8025154,10.949872" id="Fill-34" fill="#322F31"></path>
                <path d="M89.1393339,21.1125183 L89.1393339,-0.000164634146 L94.6399563,-0.000164634146 L94.6399563,7.60812805 C95.9548811,5.92940854 97.5200587,5.09032317 99.3354891,5.09032317 C100.99506,5.09032317 102.29846,5.60453049 103.245689,6.63184756 C104.193467,7.65916463 104.667081,9.06898171 104.667081,10.8596524 L104.667081,21.1125183 L99.1659099,21.1125183 L99.1659099,12.6497744 C99.1659099,11.8128841 98.9650491,11.165872 98.5633275,10.7098354 C98.1610571,10.2537988 97.6243307,10.0260549 96.9531483,10.0260549 C96.2622091,10.0260549 95.7046283,10.2565427 95.2793083,10.7175183 C94.8534395,11.1779451 94.6399563,11.8216646 94.6399563,12.6497744 L94.6399563,21.1125183 L89.1393339,21.1125183 Z" id="Fill-35" fill="#322F31"></path>
                <path d="M111.208119,11.9917317 L116.653312,11.9917317 C116.54904,11.1147805 116.25653,10.4216707 115.77633,9.91240244 C115.295032,9.40313415 114.682023,9.14904878 113.938399,9.14904878 C113.230995,9.14904878 112.63445,9.40587805 112.149311,9.92008537 C111.663074,10.4337439 111.349709,11.1241098 111.208119,11.9917317 M105.990128,13.2923415 C105.990128,12.1613049 106.185501,11.0911829 106.577344,10.0825244 C106.967541,9.07386585 107.508109,8.20404878 108.196304,7.47362195 C108.884499,6.74319512 109.721419,6.16313415 110.706515,5.73453659 C111.691611,5.30484146 112.754637,5.09026829 113.895043,5.09026829 C115.205578,5.09026829 116.374522,5.31965854 117.402424,5.7762439 C118.429778,6.23392683 119.260112,6.86063415 119.891232,7.65746341 C120.522901,8.4537439 121.002003,9.36142683 121.326344,10.3794146 C121.652331,11.3974024 121.814776,12.4955122 121.814776,13.6742927 C121.814776,14.1742317 121.805447,14.5512439 121.786239,14.8053293 L111.293183,14.8053293 C111.510507,15.6625244 111.913327,16.3155732 112.502189,16.763378 C113.0916,17.2122805 113.819858,17.4356341 114.687511,17.4356341 C115.912432,17.4356341 117.072595,16.8917927 118.166354,15.8024634 L121.206706,18.3422195 C119.537805,20.4435 117.265773,21.4944146 114.39061,21.4944146 C112.759027,21.4944146 111.308,21.1547195 110.034235,20.4764268 C108.762117,19.7975854 107.769338,18.8355732 107.058093,17.590939 C106.346299,16.3468537 105.990128,14.9139878 105.990128,13.2923415" id="Fill-36" fill="#322F31"></path>
                <path d="M123.858398,21.1125183 L123.858398,5.4437378 L129.35902,5.4437378 L129.35902,8.59703049 C130.304602,6.32617683 131.86539,5.18965244 134.039735,5.18965244 L134.322916,5.18965244 L134.322916,10.97325 L133.855887,10.97325 C130.858342,10.97325 129.35902,12.7315427 129.35902,16.248128 L129.35902,21.1125183 L123.858398,21.1125183 Z" id="Fill-37" fill="#322F31"></path>
                <path d="M5.4034848,28.5867439 L0,41.3552195 L3.6967168,41.3552195 L4.5983952,39.0915 L9.4882032,39.0915 L10.4167728,41.3552195 L14.183736,41.3552195 L8.7895808,28.5867439 L5.4034848,28.5867439 Z M7.0658,32.7508902 L8.4806064,36.359122 L5.6328832,36.359122 L7.0658,32.7508902 Z M93.002392,29.0817439 L93.002392,31.5578415 L91.8438752,31.5578415 L91.8438752,34.3335732 L93.002392,34.3335732 L93.002392,38.3177195 C93.002392,39.4476585 93.2844752,40.2708293 93.847544,40.7855854 L93.847544,40.7855854 C94.4106128,41.3008902 95.2283248,41.5582683 96.3012288,41.5582683 L96.3012288,41.5582683 C97.2149808,41.5582683 98.0107408,41.3705854 98.6890576,40.9963171 L98.6890576,40.9963171 L98.6890576,38.3122317 C98.240688,38.5306463 97.8076848,38.6404024 97.3889504,38.6404024 L97.3889504,38.6404024 C97.0646096,38.6404024 96.8258816,38.5619268 96.6727664,38.4060732 L96.6727664,38.4060732 C96.5191024,38.249122 96.4422704,37.9994268 96.4422704,37.656439 L96.4422704,37.656439 L96.4422704,34.3335732 L98.7247296,34.3335732 L98.7247296,31.5578415 L96.4422704,31.5578415 L96.4422704,29.0817439 L93.002392,29.0817439 Z M45.9131568,29.0817439 L45.9131568,31.5578415 L44.75464,31.5578415 L44.75464,34.3335732 L45.9131568,34.3335732 L45.9131568,38.3177195 C45.9131568,39.4476585 46.1941424,40.2708293 46.75776,40.7855854 L46.75776,40.7855854 C47.32028,41.3008902 48.1385408,41.5582683 49.2114448,41.5582683 L49.2114448,41.5582683 C50.1251968,41.5582683 50.9209568,41.3705854 51.5992736,40.9963171 L51.5992736,40.9963171 L51.5992736,38.3122317 C51.150904,38.5306463 50.7179008,38.6404024 50.2991664,38.6404024 L50.2991664,38.6404024 C49.9753744,38.6404024 49.7360976,38.5619268 49.5829824,38.4060732 L49.5829824,38.4060732 C49.4293184,38.249122 49.3530352,37.9994268 49.3530352,37.656439 L49.3530352,37.656439 L49.3530352,34.3335732 L51.6349456,34.3335732 L51.6349456,31.5578415 L49.3530352,31.5578415 L49.3530352,29.0817439 L45.9131568,29.0817439 Z M84.5442864,32.9457073 L84.5442864,31.5578415 L81.104408,31.5578415 L81.104408,41.3552195 L84.5442864,41.3552195 L84.5442864,36.0633293 C84.5442864,35.546378 84.6776448,35.1430244 84.943264,34.8549146 L84.943264,34.8549146 C85.209432,34.5662561 85.5590176,34.4224756 85.9903744,34.4224756 L85.9903744,34.4224756 C86.4102064,34.4224756 86.7455232,34.5651585 86.9968736,34.8499756 L86.9968736,34.8499756 C87.248224,35.1353415 87.3738992,35.5397927 87.3738992,36.0633293 L87.3738992,36.0633293 L87.3738992,41.3552195 L90.8143264,41.3552195 L90.8143264,34.9438171 C90.8143264,33.8237561 90.5179744,32.9424146 89.9252704,32.3003415 L89.9252704,32.3003415 C89.3331152,31.6571707 88.5175984,31.3361341 87.4803664,31.3361341 L87.4803664,31.3361341 C86.3624608,31.3361341 85.3839504,31.8728415 84.5442864,32.9457073 L84.5442864,32.9457073 Z M72.8800912,31.7383902 C72.2643376,32.0067439 71.7402336,32.3694878 71.3105232,32.826622 L71.3105232,32.826622 C70.8797152,33.2832073 70.542752,33.8270488 70.2974384,34.4581463 L70.2974384,34.4581463 C70.0537712,35.0881463 69.9313888,35.7576585 69.9313888,36.4655854 L69.9313888,36.4655854 C69.9313888,37.4786341 70.1536528,38.3753415 70.5981808,39.1529634 L70.5981808,39.1529634 C71.0438064,39.9316829 71.6644992,40.5325976 72.4602592,40.9573537 L72.4602592,40.9573537 C73.2560192,41.381561 74.1637344,41.593939 75.1834048,41.593939 L75.1834048,41.593939 C76.9812736,41.593939 78.4021168,40.9365 79.4464832,39.6232683 L79.4464832,39.6232683 L77.5448912,38.0350976 C76.8610864,38.7155854 76.1355728,39.056378 75.369448,39.056378 L75.369448,39.056378 C74.8266848,39.056378 74.3717296,38.9158902 74.0034848,38.6360122 L74.0034848,38.6360122 C73.6346912,38.3555854 73.382792,37.9472927 73.2472384,37.4111341 L73.2472384,37.4111341 L79.8086912,37.4111341 C79.820216,37.2519878 79.8262528,37.016561 79.8262528,36.7032073 L79.8262528,36.7032073 C79.8262528,35.9667439 79.7247248,35.2796707 79.52112,34.6430854 L79.52112,34.6430854 C79.3175152,34.0065 79.018968,33.4396098 78.623832,32.9413171 L78.623832,32.9413171 C78.228696,32.4430244 77.71008,32.0511951 77.0674352,31.7658293 L77.0674352,31.7658293 C76.4247904,31.4793659 75.6937888,31.3361341 74.8744304,31.3361341 L74.8744304,31.3361341 C74.1609904,31.3361341 73.4963936,31.4711341 72.8800912,31.7383902 L72.8800912,31.7383902 Z M73.7817696,34.3560732 C74.0858048,34.0350366 74.4589888,33.8736951 74.900224,33.8736951 L74.900224,33.8736951 C75.3661552,33.8736951 75.7497664,34.033939 76.0510576,34.3516829 L76.0510576,34.3516829 C76.3507024,34.6705244 76.5334528,35.1029634 76.5982112,35.6511951 L76.5982112,35.6511951 L73.1940048,35.6511951 C73.2823616,35.109 73.4782832,34.6776585 73.7817696,34.3560732 L73.7817696,34.3560732 Z M63.581224,31.7449756 C63.0604128,32.0182683 62.5719808,32.4183293 62.1181232,32.9457073 L62.1181232,32.9457073 C61.8585408,32.4304024 61.4842592,32.0325366 60.9952784,31.7537561 L60.9952784,31.7537561 C60.5057488,31.4760732 59.9366432,31.3361341 59.2885104,31.3361341 L59.2885104,31.3361341 C58.164568,31.3361341 57.1920944,31.8613171 56.369992,32.9094878 L56.369992,32.9094878 L56.369992,31.5578415 L52.9306624,31.5578415 L52.9306624,41.3552195 L56.369992,41.3552195 L56.369992,36.0457683 C56.369992,35.5277195 56.4973136,35.1276585 56.751408,34.8461341 L56.751408,34.8461341 C57.0060512,34.564061 57.3430144,34.4224756 57.7633952,34.4224756 L57.7633952,34.4224756 C58.1766416,34.4224756 58.5053728,34.5618659 58.7479424,34.8417439 L58.7479424,34.8417439 C58.990512,35.1205244 59.1117968,35.5222317 59.1117968,36.0457683 L59.1117968,36.0457683 L59.1117968,41.3552195 L62.5516752,41.3552195 L62.5516752,36.0457683 C62.5516752,35.5277195 62.6828384,35.1276585 62.944616,34.8461341 L62.944616,34.8461341 C63.2074912,34.564061 63.5477472,34.4224756 63.9659328,34.4224756 L63.9659328,34.4224756 C64.3791792,34.4224756 64.7051664,34.5618659 64.9433456,34.8417439 L64.9433456,34.8417439 C65.1820736,35.1205244 65.301712,35.5222317 65.301712,36.0457683 L65.301712,36.0457683 L65.301712,41.3552195 L68.7415904,41.3552195 L68.7415904,34.9262561 C68.7415904,33.7886341 68.4446896,32.9061951 67.8525344,32.2778415 L67.8525344,32.2778415 C67.2598304,31.6500366 66.4393744,31.3361341 65.38952,31.3361341 L65.38952,31.3361341 C64.706264,31.3361341 64.1036816,31.4727805 63.581224,31.7449756 L63.581224,31.7449756 Z M19.7447264,31.7383902 C19.29032,32.0067439 18.8644512,32.3799146 18.4682176,32.8573537 L18.4682176,32.8573537 L18.4682176,31.5578415 L15.028888,31.5578415 L15.028888,44.2555244 L18.4682176,44.2555244 L18.4682176,40.1610732 C18.8408528,40.5973537 19.2612336,40.9425366 19.7315552,41.1955244 L19.7315552,41.1955244 C20.201328,41.4496098 20.7764704,41.576378 21.4558848,41.576378 L21.4558848,41.576378 C22.031576,41.576378 22.5798272,41.4572927 23.1033824,41.2180244 L23.1033824,41.2180244 C23.62584,40.9793049 24.0857344,40.6434512 24.481968,40.2093659 L24.481968,40.2093659 C24.8787504,39.776378 25.192664,39.2341829 25.4248064,38.5827805 L25.4248064,38.5827805 C25.6569488,37.9319268 25.7732944,37.2196098 25.7732944,36.4474756 L25.7732944,36.4474756 C25.7732944,35.6747927 25.6569488,34.9646707 25.4248064,34.316561 L25.4248064,34.316561 C25.192664,33.6684512 24.877104,33.1284512 24.4775776,32.6982073 L24.4775776,32.6982073 C24.0780512,32.2674146 23.6170592,31.9326585 23.0940528,31.6944878 L23.0940528,31.6944878 C22.5715952,31.4557683 22.0189536,31.3361341 21.4377744,31.3361341 L21.4377744,31.3361341 C20.7643968,31.3361341 20.1996816,31.4711341 19.7447264,31.7383902 L19.7447264,31.7383902 Z M18.969272,38.061439 C18.5829168,37.6399756 18.3891904,37.1076585 18.3891904,36.4655854 L18.3891904,36.4655854 C18.3891904,35.8108902 18.5829168,35.2725366 18.969272,34.8510732 L18.969272,34.8510732 C19.356176,34.4301585 19.830888,34.218878 20.3917616,34.218878 L20.3917616,34.218878 C20.9592208,34.218878 21.4366768,34.4279634 21.8235808,34.8472317 L21.8235808,34.8472317 C22.209936,35.2654024 22.4036624,35.7933293 22.4036624,36.4299146 L22.4036624,36.4299146 C22.4036624,37.1021707 22.2121312,37.646561 21.8279712,38.0658293 L21.8279712,38.0658293 C21.4438112,38.484 20.9647088,38.6930854 20.3917616,38.6930854 L20.3917616,38.6930854 C19.830888,38.6930854 19.356176,38.4829024 18.969272,38.061439 L18.969272,38.061439 Z M100.842,32.2306463 C100.117584,32.8096098 99.7542784,33.6179634 99.7542784,34.6551585 L99.7542784,34.6551585 C99.7542784,35.0332683 99.8162928,35.3746098 99.9408704,35.6791829 L99.9408704,35.6791829 C100.063802,35.9821098 100.221856,36.234 100.413387,36.4354024 L100.413387,36.4354024 C100.604918,36.6362561 100.860659,36.8217439 101.178414,36.9935122 L101.178414,36.9935122 C101.497267,37.1658293 101.808986,37.304122 102.115216,37.4067439 L102.115216,37.4067439 C102.421446,37.5093659 102.792984,37.6185732 103.230378,37.7332683 L103.230378,37.7332683 C103.807166,37.8819878 104.214376,38.0120488 104.449811,38.1245488 L104.449811,38.1245488 C104.685795,38.2365 104.803238,38.3775366 104.803238,38.5498537 L104.803238,38.5498537 C104.803238,38.9109512 104.515118,39.0915 103.937781,39.0915 L103.937781,39.0915 C102.822619,39.0915 101.700323,38.7271098 100.568149,37.9994268 L100.568149,37.9994268 L99.2768224,40.0831463 C100.621382,41.0786341 102.168998,41.576378 103.919122,41.576378 L103.919122,41.576378 C105.14569,41.576378 106.118163,41.2888171 106.83764,40.7153415 L106.83764,40.7153415 C107.556568,40.1407683 107.916581,39.3192439 107.916581,38.249122 L107.916581,38.249122 C107.916581,37.8825366 107.855115,37.551622 107.731086,37.2558293 L107.731086,37.2558293 C107.607058,36.9605854 107.449552,36.7130854 107.257472,36.5127805 L107.257472,36.5127805 C107.06649,36.3119268 106.811298,36.1258902 106.492994,35.9535732 L106.492994,35.9535732 C106.17469,35.7818049 105.862422,35.6413171 105.555643,35.5326585 L105.555643,35.5326585 C105.248864,35.4234512 104.877326,35.3093049 104.441579,35.189122 L104.441579,35.189122 C103.845582,35.0168049 103.431787,34.8752195 103.199096,34.7632683 L103.199096,34.7632683 C102.965856,34.6518659 102.84951,34.5097317 102.84951,34.3374146 L102.84951,34.3374146 C102.84951,34.1826585 102.917013,34.0624756 103.053664,33.9768659 L103.053664,33.9768659 C103.18812,33.8912561 103.385688,33.8473537 103.645819,33.8473537 L103.645819,33.8473537 C104.03437,33.8473537 104.488227,33.926378 105.007392,34.0844268 L105.007392,34.0844268 C105.526008,34.2419268 106.039136,34.4548537 106.545678,34.7243049 L106.545678,34.7243049 L107.722306,32.5418049 C107.161981,32.1697317 106.528117,31.8805244 105.820714,31.6736341 L105.820714,31.6736341 C105.11331,31.4667439 104.39987,31.3630244 103.680942,31.3630244 L103.680942,31.3630244 C102.513645,31.3630244 101.567514,31.6522317 100.842,32.2306463 L100.842,32.2306463 Z M44.1130928,31.3975976 C42.7531664,31.3975976 41.7774,32.1088171 41.1857936,33.5296098 L41.1857936,33.5296098 L41.1857936,31.5578415 L37.7470128,31.5578415 L37.7470128,41.3552195 L41.1857936,41.3552195 L41.1857936,38.3133293 C41.1857936,36.1143659 42.1236928,35.0146098 43.9978448,35.0146098 L43.9978448,35.0146098 L44.2903552,35.0146098 L44.2903552,31.3975976 L44.1130928,31.3975976 Z M27.4312192,32.1763171 L28.1386224,34.5991829 C29.0403008,34.2391829 29.9392352,34.0602805 30.8359744,34.0602805 L30.8359744,34.0602805 C32.1443136,34.0602805 32.7984832,34.5904024 32.7984832,35.6511951 L32.7984832,35.6511951 L32.7984832,35.8108902 C32.1031536,35.5568049 31.3161744,35.4300366 30.4375456,35.4300366 L30.4375456,35.4300366 C29.2581744,35.4300366 28.3241168,35.6956463 27.6342752,36.2268659 L27.6342752,36.2268659 C26.9449824,36.7569878 26.5997872,37.5170488 26.5997872,38.5075976 L26.5997872,38.5075976 C26.5997872,39.474 26.907664,40.2280244 27.5239664,40.7669268 L27.5239664,40.7669268 C28.1402688,41.3058293 28.9310896,41.576378 29.898624,41.576378 L29.898624,41.576378 C31.0714096,41.576378 32.0329072,41.1631463 32.7809216,40.3377805 L32.7809216,40.3377805 L32.7809216,41.3552195 L36.1856768,41.3552195 L36.1856768,35.7225366 C36.1856768,34.331378 35.8349936,33.2936341 35.1336272,32.6098537 L35.1336272,32.6098537 C34.3373184,31.8135732 33.0937376,31.4162561 31.4012384,31.4162561 L31.4012384,31.4162561 C29.9985056,31.4162561 28.6748,31.6692439 27.4312192,32.1763171 L27.4312192,32.1763171 Z M30.2520512,39.131561 C30.027592,38.9394878 29.9161856,38.6788171 29.9161856,38.349 L29.9161856,38.349 C29.9161856,37.9654024 30.0544832,37.661378 30.332176,37.4380244 L30.332176,37.4380244 C30.6082224,37.2135732 30.9951264,37.1021707 31.490144,37.1021707 L31.490144,37.1021707 C31.9851616,37.1021707 32.4329824,37.1844878 32.8341552,37.349122 L32.8341552,37.349122 L32.8341552,37.809 C32.8341552,38.2930244 32.6766496,38.681561 32.3610896,38.9762561 L32.3610896,38.9762561 C32.0460784,39.2709512 31.6339296,39.4185732 31.1273872,39.4185732 L31.1273872,39.4185732 C30.7679232,39.4185732 30.4759616,39.3230854 30.2520512,39.131561 L30.2520512,39.131561 Z" id="Fill-39" fill="url(#linearGradient-1)"></path>
            </g>
        </g>
    </g>
</svg>