<svg xmlns="http://www.w3.org/2000/svg" xmlns:xlink="http://www.w3.org/1999/xlink" width="264" height="45" viewBox="0 0 264 45"><defs><path id="oh4da" d="M749.36 4669.646l3.14-3.733c2.029 1.621 4.224 2.432 6.584 2.432.743 0 1.312-.125 1.707-.375s.592-.61.592-1.082c0-.433-.232-.787-.698-1.06-.465-.274-1.366-.566-2.7-.877a54.875 54.875 0 0 1-1.79-.445 19.598 19.598 0 0 1-1.611-.517 9.633 9.633 0 0 1-1.448-.65 7.698 7.698 0 0 1-1.164-.82 4.296 4.296 0 0 1-.909-1.04 5.076 5.076 0 0 1-.547-1.308 6.184 6.184 0 0 1-.205-1.64c0-1.914.711-3.474 2.134-4.68 1.423-1.207 3.335-1.811 5.737-1.811 3.33 0 6.112.896 8.348 2.687l-2.822 3.974c-1.894-1.33-3.783-1.994-5.667-1.994-.658 0-1.162.124-1.51.374-.347.25-.521.578-.521.984 0 .47.233.836.698 1.095.465.26 1.398.55 2.8.87 1.24.274 2.296.573 3.165.897.87.326 1.652.734 2.347 1.224.694.49 1.212 1.086 1.552 1.79.34.701.51 1.524.51 2.467 0 2.045-.745 3.658-2.236 4.836-1.492 1.179-3.482 1.768-5.973 1.768-1.832 0-3.569-.286-5.211-.856-1.643-.57-3.077-1.407-4.302-2.51"/><path id="oh4db" d="M767.98 4661.43v-4.44h1.852v-3.96h5.501v3.96h3.649v4.44h-3.649v5.314c0 .548.123.947.368 1.197.245.25.627.376 1.146.376.669 0 1.362-.175 2.078-.524v4.291c-1.084.6-2.357.9-3.818.9-1.716 0-3.024-.412-3.924-1.236-.9-.824-1.35-2.14-1.35-3.948v-6.37z"/><path id="oh4dc" d="M780.27 4668.112c0-1.585.552-2.8 1.655-3.65 1.103-.847 2.596-1.272 4.483-1.272 1.404 0 2.663.203 3.775.608v-.254c0-1.697-1.046-2.546-3.14-2.546-1.433 0-2.87.288-4.312.863l-1.132-3.874c1.99-.811 4.106-1.217 6.35-1.217 2.705 0 4.694.637 5.968 1.91 1.121 1.093 1.682 2.752 1.682 4.977v9.008h-5.444v-1.626c-1.198 1.32-2.734 1.98-4.61 1.98-1.547 0-2.812-.432-3.797-1.294-.986-.863-1.478-2.067-1.478-3.613m5.303-.256c0 .529.179.947.537 1.253.358.308.825.461 1.4.461.811 0 1.469-.236 1.973-.709.504-.471.756-1.095.756-1.87v-.737c-.64-.264-1.357-.397-2.149-.397s-1.41.18-1.853.54c-.443.358-.664.844-.664 1.459"/><path id="oh4dd" d="M798.1 4672.662v-15.669h5.501v2.22c1.343-1.716 2.907-2.573 4.695-2.573 1.66 0 2.963.514 3.91 1.541.948 1.028 1.421 2.438 1.421 4.228v10.253h-5.5v-8.463c0-.837-.202-1.484-.604-1.94-.402-.456-.938-.684-1.61-.684-.69 0-1.248.23-1.673.692-.426.46-.639 1.104-.639 1.932v8.463z"/><path id="oh4de" d="M815.01 4663.893c0-1.085.184-2.087.552-3.01.367-.92.862-1.687 1.485-2.3a6.748 6.748 0 0 1 2.163-1.43 6.661 6.661 0 0 1 2.588-.513c1.084 0 2.006.188 2.764.564.759.376 1.478.912 2.157 1.609v-1.82h5.473v11.907c0 2.819-.672 4.903-2.016 6.25-1.466 1.472-3.76 2.207-6.88 2.207-2.894 0-5.51-.6-7.848-1.796l1.768-3.648c1.773.98 3.596 1.47 5.473 1.47 1.367 0 2.394-.33 3.083-.99.687-.661 1.032-1.624 1.032-2.888v-.613a7.665 7.665 0 0 1-2.1 1.745c-.769.426-1.68.639-2.737.639-1.98 0-3.634-.672-4.963-2.017-1.33-1.344-1.994-3.133-1.994-5.366m5.388.108c0 .877.3 1.604.903 2.182.603.577 1.375.865 2.316.865.923 0 1.682-.296 2.28-.887.598-.592.897-1.34.897-2.246 0-.877-.3-1.604-.897-2.181-.598-.578-1.357-.866-2.28-.866-.941 0-1.713.296-2.316.887-.602.591-.903 1.34-.903 2.246"/><path id="oh4df" d="M834.29 4672.663v-21.113h5.501v7.608c1.314-1.678 2.88-2.517 4.695-2.517 1.66 0 2.963.514 3.91 1.541.948 1.028 1.421 2.438 1.421 4.228v10.253h-5.5v-8.463c0-.837-.202-1.484-.604-1.94-.402-.456-.938-.684-1.61-.684-.69 0-1.248.23-1.673.692-.426.46-.639 1.104-.639 1.932v8.463z"/><path id="oh4dg" d="M851.14 4664.842c0-1.132.195-2.202.587-3.21a7.945 7.945 0 0 1 1.619-2.61 7.527 7.527 0 0 1 2.51-1.738 7.887 7.887 0 0 1 3.189-.644c1.31 0 2.479.229 3.507.686 1.027.457 1.857 1.084 2.489 1.88a8.496 8.496 0 0 1 1.435 2.723c.325 1.018.488 2.116.488 3.294 0 .5-.01.877-.028 1.132h-10.493c.217.857.62 1.51 1.209 1.958.589.448 1.317.672 2.185.672 1.225 0 2.385-.544 3.478-1.633l3.04 2.54c-1.668 2.1-3.94 3.152-6.815 3.152-1.631 0-3.083-.34-4.356-1.018a7.34 7.34 0 0 1-2.977-2.885c-.711-1.244-1.067-2.678-1.067-4.3m5.218-1.3h5.444c-.103-.877-.396-1.57-.877-2.079-.48-.51-1.093-.764-1.838-.764-.707 0-1.303.257-1.789.771-.485.514-.799 1.204-.94 2.072"/><path id="oh4dh" d="M869.01 4672.663v-15.668h5.501v3.153c.946-2.271 2.505-3.408 4.68-3.408h.284v5.784h-.468c-2.997 0-4.496 1.758-4.496 5.274v4.865z"/><path id="oh4di" d="M779.25 4690.665c.223.19.514.285.872.285.505 0 .916-.145 1.23-.438.314-.293.471-.679.471-1.158v-.456a3.5 3.5 0 0 0-1.34-.246c-.493 0-.878.111-1.153.333-.277.222-.415.524-.415.904 0 .328.111.586.335.776zm-2.82-6.941a10.386 10.386 0 0 1 3.965-.76c1.69 0 2.933.396 3.728 1.192.701.684 1.051 1.721 1.051 3.112v5.63h-3.4v-1.017c-.748.826-1.708 1.238-2.88 1.238-.966 0-1.756-.27-2.372-.809-.616-.539-.923-1.291-.923-2.258 0-.99.345-1.75 1.033-2.28.69-.531 1.622-.796 2.8-.796.878 0 1.664.127 2.359.38v-.159c0-1.06-.654-1.59-1.96-1.59-.896 0-1.794.179-2.695.538zm16.859-.779v3.616h-.293c-1.874 0-2.812 1.098-2.812 3.297v3.04h-3.438v-9.794h3.438v1.972c.592-1.421 1.568-2.13 2.928-2.13zm-25.32 6.668c.386.421.861.632 1.422.632a1.87 1.87 0 0 0 1.436-.629c.384-.418.576-.964.576-1.636 0-.637-.194-1.165-.58-1.584a1.874 1.874 0 0 0-1.432-.628c-.56 0-1.036.21-1.422.632-.387.422-.58.96-.58 1.615 0 .643.193 1.176.58 1.597zm.775-6.328c.455-.268 1.02-.401 1.693-.401.581 0 1.134.118 1.656.357.523.239.984.574 1.384 1.003.4.432.715.97.947 1.618.232.649.348 1.36.348 2.132s-.116 1.483-.348 2.135c-.232.65-.546 1.194-.943 1.626-.396.434-.856.77-1.378 1.008a3.915 3.915 0 0 1-1.648.358c-.68 0-1.254-.126-1.724-.38a4.4 4.4 0 0 1-1.263-1.034v4.093h-3.44v-12.696h3.44v1.3c.396-.478.822-.85 1.276-1.119zm48.047 6.283c.398.433.894.649 1.488.649.605 0 1.097-.212 1.473-.636.377-.423.565-.946.565-1.57 0-.607-.198-1.126-.591-1.56a1.924 1.924 0 0 0-1.483-.648c-.606 0-1.098.214-1.477.64-.38.426-.57.95-.57 1.567 0 .606.199 1.125.595 1.558zm-.693-6.274a5.767 5.767 0 0 1 2.18-.41c1.022 0 1.95.229 2.78.689a5.016 5.016 0 0 1 1.936 1.865c.461.783.692 1.642.692 2.572 0 .69-.138 1.348-.412 1.976a5.163 5.163 0 0 1-1.122 1.635c-.472.463-1.05.831-1.728 1.105a5.767 5.767 0 0 1-2.181.412c-.768 0-1.49-.137-2.167-.408a5.235 5.235 0 0 1-1.724-1.096 5.04 5.04 0 0 1-1.118-1.635 4.98 4.98 0 0 1-.406-1.989c0-.69.136-1.348.412-1.975a5.11 5.11 0 0 1 1.125-1.636 5.278 5.278 0 0 1 1.733-1.105zm19.62 2.608c-.304.32-.5.75-.589 1.29h3.404c-.065-.547-.248-.978-.548-1.294-.301-.317-.683-.475-1.15-.475-.441 0-.814.16-1.118.48zm-.903-2.617a4.95 4.95 0 0 1 1.994-.401c.82 0 1.55.142 2.193.428.643.286 1.161.678 1.557 1.176.394.498.694 1.064.897 1.7.203.637.305 1.324.305 2.06 0 .313-.006.549-.018.708h-6.56c.135.536.387.943.755 1.224.369.28.824.42 1.366.42.767 0 1.492-.34 2.176-1.02l1.901 1.587c-1.044 1.314-2.464 1.97-4.262 1.97-1.02 0-1.928-.212-2.724-.636a4.59 4.59 0 0 1-1.861-1.803c-.445-.778-.668-1.674-.668-2.688 0-.707.122-1.376.367-2.006a4.944 4.944 0 0 1 1.013-1.631c.43-.457.953-.819 1.569-1.088zm-36.464-2.658v2.473h2.282v2.774h-2.282v3.32c0 .342.077.592.23.747.153.157.393.236.716.236.42 0 .852-.11 1.3-.328v2.681c-.678.375-1.474.562-2.387.562-1.073 0-1.891-.258-2.454-.772-.564-.515-.844-1.337-.844-2.466v-3.98h-1.159v-2.774h1.159v-2.473zm30.61 0v2.473h2.281v2.774h-2.281v3.32c0 .342.076.592.23.747.153.157.391.236.716.236.418 0 .851-.11 1.3-.328v2.681c-.678.375-1.474.562-2.388.562-1.073 0-1.89-.258-2.453-.772-.564-.515-.845-1.337-.845-2.466v-3.98h-1.159v-2.774h1.16v-2.473zm-74.328 7.263h2.847l-1.414-3.59zm3.156-7.759l5.394 12.767h-3.767l-.928-2.264h-4.89l-.901 2.264H749l5.403-12.767zm47.579-.433v4.757c.822-1.05 1.8-1.574 2.936-1.574 1.037 0 1.853.321 2.445.963.592.643.889 1.524.889 2.644v6.41h-3.44v-5.29c0-.525-.126-.93-.377-1.214-.251-.285-.587-.427-1.007-.427-.431 0-.78.144-1.047.431-.266.288-.399.691-.399 1.21v5.29h-3.44v-13.2zm37.75-.018h3.44v13.218h-3.44z"/><path id="oh4dk" d="M854.52 4687.924c0-1.078.206-2.104.619-3.08a7.992 7.992 0 0 1 1.675-2.531c.705-.713 1.555-1.28 2.552-1.701a8.07 8.07 0 0 1 3.174-.632 8.36 8.36 0 0 1 3.108.579c.976.386 1.804.9 2.485 1.543a7.26 7.26 0 0 1 1.618 2.249c.398.857.597 1.746.597 2.665 0 .79-.108 1.502-.322 2.137-.216.634-.505 1.144-.867 1.53a3.803 3.803 0 0 1-1.23.885 3.49 3.49 0 0 1-1.436.306c-1.333 0-2.264-.458-2.795-1.372-.772.891-1.66 1.336-2.661 1.336-.955 0-1.745-.334-2.37-1-.625-.668-.937-1.547-.937-2.64 0-.854.181-1.646.544-2.376.362-.73.851-1.307 1.467-1.73.617-.425 1.279-.637 1.986-.637 1.055 0 1.865.455 2.431 1.364l.213-1.122 2.812.44-.832 4.684c-.053.273-.08.54-.08.799 0 .314.107.573.319.774.212.202.498.303.858.303.613 0 1.122-.323 1.53-.969.406-.645.61-1.55.61-2.712 0-.83-.175-1.63-.526-2.395a6.446 6.446 0 0 0-1.442-2.016c-.61-.577-1.357-1.038-2.241-1.383a7.747 7.747 0 0 0-2.839-.517c-1.032 0-2.001.19-2.91.57-.907.38-1.676.892-2.307 1.538a7.132 7.132 0 0 0-1.494 2.297 7.314 7.314 0 0 0-.548 2.814c0 1.003.18 1.946.543 2.828a6.988 6.988 0 0 0 1.499 2.287c.636.644 1.412 1.15 2.326 1.522a7.765 7.765 0 0 0 2.953.558c.866 0 1.645-.1 2.334-.297a9.197 9.197 0 0 0 2.097-.914l.362.574c-1.492.908-3.09 1.362-4.793 1.362-.92 0-1.796-.133-2.631-.399a7.607 7.607 0 0 1-2.237-1.128 8.169 8.169 0 0 1-1.71-1.707 7.5 7.5 0 0 1-1.115-2.181 8.087 8.087 0 0 1-.389-2.505zm6.101.053c0 .442.124.787.372 1.037.247.25.566.374.955.374.483 0 .893-.202 1.229-.608.336-.405.504-.896.504-1.473 0-.417-.122-.75-.367-.997-.245-.246-.561-.37-.95-.37-.49 0-.903.197-1.238.59-.337.395-.505.877-.505 1.447z"/><path id="oh4dl" d="M877.03 4692.9h3.51v-12.68h-3.51z"/><path id="oh4dm" d="M882.09 4688.017c0-.92.22-1.769.662-2.545a4.952 4.952 0 0 1 1.879-1.862c.811-.467 1.72-.7 2.73-.7 1.874 0 3.268.727 4.182 2.178l-2.3 1.675c-.46-.646-1.049-.97-1.768-.97-.607 0-1.095.212-1.463.636-.369.424-.553.954-.553 1.588 0 .64.183 1.174.548 1.601.366.427.834.64 1.406.64.383 0 .713-.084.99-.253.277-.17.563-.431.858-.787l2.344 1.691c-1.003 1.488-2.46 2.232-4.37 2.232-.96 0-1.837-.231-2.63-.693a4.94 4.94 0 0 1-1.853-1.869 5.127 5.127 0 0 1-.662-2.562"/><path id="oh4dn" d="M892.54 4689.521v-6.411h3.44v5.292c0 .524.127.928.38 1.213.254.285.593.428 1.017.428.418 0 .762-.144 1.03-.432.268-.288.402-.691.402-1.209v-5.292h3.44v9.798h-3.44v-1.352c-.82 1.048-1.798 1.573-2.936 1.573-1.037 0-1.852-.322-2.445-.964-.592-.643-.888-1.524-.888-2.644"/><path id="oh4do" d="M903.99 4692.91h3.44v-13.22h-3.44z"/><path id="oh4dp" d="M908.76 4688.018c0-.707.122-1.376.367-2.007a4.968 4.968 0 0 1 1.012-1.631c.43-.457.954-.82 1.57-1.088a4.948 4.948 0 0 1 1.994-.402c.82 0 1.55.143 2.193.429.642.286 1.161.677 1.556 1.176a5.33 5.33 0 0 1 .897 1.702c.203.637.306 1.323.306 2.06 0 .312-.007.548-.018.707h-6.561c.135.537.387.945.756 1.225.368.28.824.42 1.366.42.766 0 1.491-.34 2.175-1.02l1.902 1.587c-1.045 1.314-2.465 1.971-4.263 1.971-1.02 0-1.927-.212-2.724-.636a4.59 4.59 0 0 1-1.86-1.804c-.446-.778-.668-1.675-.668-2.689m3.263-.807h3.414c-.065-.551-.249-.987-.55-1.306-.302-.32-.686-.48-1.153-.48-.443 0-.817.162-1.122.484-.304.323-.5.757-.59 1.302"/><path id="oh4dq" d="M919.37 4685.882v-2.776h1.158v-2.476h3.44v2.476h2.282v2.776h-2.282v3.323c0 .343.077.593.23.75.153.156.393.234.717.234.418 0 .851-.11 1.3-.328v2.684c-.679.374-1.475.562-2.388.562-1.073 0-1.89-.258-2.454-.773-.563-.515-.845-1.338-.845-2.468v-3.984z"/><path id="oh4dr" d="M927 4694.565c.59-.07 1.04-.244 1.348-.52.31-.278.465-.647.465-1.107v-.07h-1.406v-3.528h3.6v2.873c0 1.28-.322 2.204-.965 2.773-.643.568-1.566.87-2.768.906z"/><path id="oh4ds" d="M937.11 4686.573c0-.915.169-1.777.506-2.589a6.443 6.443 0 0 1 1.381-2.096 6.374 6.374 0 0 1 2.12-1.394 6.913 6.913 0 0 1 2.66-.514c2.258 0 4.033.884 5.324 2.65l-2.573 2c-.785-.99-1.716-1.484-2.795-1.484-.878 0-1.602.33-2.17.989-.57.659-.854 1.471-.854 2.438 0 .971.284 1.786.853 2.442.569.656 1.293.984 2.171.984.619 0 1.145-.13 1.579-.39.433-.259.862-.648 1.286-1.167l2.644 1.897a8.186 8.186 0 0 1-1.366 1.465c-.48.396-1.084.722-1.813.977-.728.256-1.54.384-2.436.384-1.197 0-2.292-.282-3.285-.844a6.22 6.22 0 0 1-2.36-2.36c-.582-1.01-.872-2.14-.872-3.388"/><path id="oh4dt" d="M950.38 4692.902V4679.7h3.44v4.757c.822-1.049 1.8-1.574 2.935-1.574 1.038 0 1.853.322 2.446.964.592.643.888 1.524.888 2.644v6.411h-3.44v-5.292c0-.523-.125-.927-.377-1.213-.251-.285-.586-.428-1.006-.428-.432 0-.781.145-1.047.433-.266.288-.4.69-.4 1.208v5.292z"/><path id="oh4du" d="M961.67 4682.236h3.59v-2.546h-3.59zm.08 10.674h3.44v-9.8h-3.44z"/><path id="oh4dv" d="M966.18 4691.63l1.291-2.083c1.132.728 2.255 1.091 3.37 1.091.577 0 .865-.18.865-.54 0-.172-.118-.315-.353-.426-.236-.112-.643-.242-1.22-.391a17.02 17.02 0 0 1-1.115-.327 5.96 5.96 0 0 1-.936-.412 3.077 3.077 0 0 1-.766-.56 2.4 2.4 0 0 1-.473-.756 2.674 2.674 0 0 1-.186-1.023c0-1.038.363-1.846 1.088-2.425.726-.578 1.671-.868 2.838-.868.72 0 1.433.104 2.14.311a6.95 6.95 0 0 1 1.902.868l-1.176 2.183a8.593 8.593 0 0 0-1.54-.64c-.518-.158-.972-.237-1.36-.237-.26 0-.458.043-.593.13a.403.403 0 0 0-.203.36c0 .172.116.314.349.426.232.112.647.253 1.242.425.436.12.808.236 1.114.344.307.109.62.25.937.422.32.171.574.357.765.558.192.2.35.449.473.744.124.295.186.626.186.992 0 1.07-.36 1.892-1.078 2.466-.72.574-1.693.862-2.919.862-1.75 0-3.298-.498-4.642-1.493"/><path id="oh4dw" d="M976.04 4682.236h3.59v-2.546h-3.59zm.079 10.674h3.44v-9.8h-3.44z"/><path id="oh4dx" d="M981.29 4692.909v-9.798h3.44v1.388c.84-1.072 1.818-1.609 2.935-1.609 1.038 0 1.853.321 2.446.964.592.642.888 1.524.888 2.644v6.41h-3.44v-5.291c0-.524-.125-.928-.377-1.214-.251-.285-.586-.427-1.006-.427-.432 0-.781.144-1.047.432-.266.288-.4.691-.4 1.209v5.292z"/><path id="oh4dy" d="M992.1 4690.062c0-.99.345-1.75 1.035-2.281.69-.531 1.624-.796 2.803-.796.878 0 1.665.127 2.361.38v-.159c0-1.061-.654-1.591-1.963-1.591-.896 0-1.796.179-2.697.538l-.707-2.422a10.41 10.41 0 0 1 3.97-.761c1.692 0 2.936.398 3.732 1.194.7.684 1.052 1.722 1.052 3.113v5.633h-3.405v-1.017c-.749.825-1.71 1.238-2.882 1.238-.967 0-1.759-.27-2.374-.81-.617-.54-.925-1.292-.925-2.26m3.316-.164c0 .33.112.589.335.78.224.19.514.286.872.286.506 0 .916-.147 1.23-.44.314-.294.471-.681.471-1.162v-.458a3.486 3.486 0 0 0-1.34-.247c-.493 0-.878.112-1.153.335-.277.223-.415.525-.415.906"/><path id="oh4dz" d="M1003.18 4689.521v-6.411h3.44v5.292c0 .524.127.928.38 1.213.254.285.593.428 1.017.428.418 0 .762-.144 1.03-.432.268-.288.402-.691.402-1.209v-5.292h3.44v9.798h-3.44v-1.352c-.82 1.048-1.798 1.573-2.936 1.573-1.037 0-1.852-.322-2.445-.964-.592-.643-.888-1.524-.888-2.644"/><linearGradient id="oh4dj" x1="749" x2="846.54" y1="4687.75" y2="4687.75" gradientUnits="userSpaceOnUse"><stop offset="0" stop-color="#f47c22"/><stop offset="1" stop-color="#ffcd02"/></linearGradient></defs><g><g transform="translate(-749 -4651)"><g><use fill="#322f31" xlink:href="#oh4da"/></g><g><use fill="#322f31" xlink:href="#oh4db"/></g><g><use fill="#322f31" xlink:href="#oh4dc"/></g><g><use fill="#322f31" xlink:href="#oh4dd"/></g><g><use fill="#322f31" xlink:href="#oh4de"/></g><g><use fill="#322f31" xlink:href="#oh4df"/></g><g><use fill="#322f31" xlink:href="#oh4dg"/></g><g><use fill="#322f31" xlink:href="#oh4dh"/></g><g><use fill="url(#oh4dj)" xlink:href="#oh4di"/></g><g><use fill="#727272" xlink:href="#oh4dk"/></g><g><use fill="#727272" xlink:href="#oh4dl"/></g><g><use fill="#727272" xlink:href="#oh4dm"/></g><g><use fill="#727272" xlink:href="#oh4dn"/></g><g><use fill="#727272" xlink:href="#oh4do"/></g><g><use fill="#727272" xlink:href="#oh4dp"/></g><g><use fill="#727272" xlink:href="#oh4dq"/></g><g><use fill="#727272" xlink:href="#oh4dr"/></g><g><use fill="#727272" xlink:href="#oh4ds"/></g><g><use fill="#727272" xlink:href="#oh4dt"/></g><g><use fill="#727272" xlink:href="#oh4du"/></g><g><use fill="#727272" xlink:href="#oh4dv"/></g><g><use fill="#727272" xlink:href="#oh4dw"/></g><g><use fill="#727272" xlink:href="#oh4dx"/></g><g><use fill="#727272" xlink:href="#oh4dy"/></g><g><use fill="#727272" xlink:href="#oh4dz"/></g></g></g></svg>