<svg xmlns="http://www.w3.org/2000/svg" xmlns:xlink="http://www.w3.org/1999/xlink" width="317" height="45" viewBox="0 0 317 45"><defs><path id="ejy3a" d="M750 3379.646l3.138-3.733c2.028 1.621 4.222 2.432 6.58 2.432.743 0 1.311-.125 1.706-.375.394-.25.592-.61.592-1.082 0-.433-.233-.787-.698-1.06-.465-.274-1.365-.566-2.699-.877a54.807 54.807 0 0 1-1.788-.445 19.576 19.576 0 0 1-1.61-.517 9.624 9.624 0 0 1-1.448-.65 7.694 7.694 0 0 1-1.163-.82 4.294 4.294 0 0 1-.908-1.04 5.077 5.077 0 0 1-.546-1.308 6.188 6.188 0 0 1-.206-1.64c0-1.914.711-3.474 2.133-4.68 1.422-1.207 3.333-1.811 5.733-1.811 3.328 0 6.109.896 8.343 2.687l-2.82 3.974c-1.893-1.33-3.78-1.994-5.664-1.994-.657 0-1.16.124-1.508.374-.348.25-.522.578-.522.984 0 .47.234.836.698 1.095.465.26 1.398.55 2.798.87 1.24.274 2.295.573 3.164.897.869.326 1.651.734 2.345 1.224.694.49 1.211 1.086 1.551 1.79.34.701.51 1.524.51 2.467 0 2.045-.744 3.658-2.234 4.836-1.491 1.179-3.48 1.768-5.97 1.768-1.83 0-3.566-.286-5.208-.856-1.641-.57-3.074-1.407-4.299-2.51"/><path id="ejy3b" d="M768.61 3371.43v-4.44h1.851v-3.96h5.498v3.96h3.646v4.44h-3.646v5.314c0 .548.122.947.367 1.197.245.25.627.376 1.145.376.669 0 1.361-.175 2.078-.524v4.291c-1.084.6-2.356.9-3.816.9-1.715 0-3.022-.412-3.922-1.236-.9-.824-1.35-2.14-1.35-3.948v-6.37z"/><path id="ejy3c" d="M780.9 3378.112c0-1.585.551-2.8 1.654-3.65 1.102-.847 2.595-1.272 4.48-1.272 1.403 0 2.661.203 3.773.608v-.254c0-1.697-1.046-2.546-3.138-2.546-1.432 0-2.868.288-4.31.863l-1.13-3.874c1.987-.811 4.102-1.217 6.345-1.217 2.704 0 4.692.637 5.964 1.91 1.121 1.093 1.682 2.752 1.682 4.977v9.008h-5.441v-1.626c-1.197 1.32-2.733 1.98-4.607 1.98-1.546 0-2.81-.432-3.795-1.294-.985-.863-1.477-2.067-1.477-3.613m5.3-.256c0 .529.178.947.537 1.253.358.308.824.461 1.399.461.81 0 1.467-.236 1.971-.709.504-.471.756-1.095.756-1.87v-.737c-.64-.264-1.356-.397-2.148-.397-.791 0-1.408.18-1.851.54-.443.358-.664.844-.664 1.459"/><path id="ejy3d" d="M798.71 3382.662v-15.669h5.498v2.22c1.342-1.716 2.905-2.573 4.692-2.573 1.658 0 2.96.514 3.907 1.541.947 1.028 1.42 2.438 1.42 4.228v10.253h-5.497v-8.463c0-.837-.2-1.484-.603-1.94-.401-.456-.938-.684-1.608-.684-.69 0-1.248.23-1.673.692-.426.46-.638 1.104-.638 1.932v8.463z"/><path id="ejy3e" d="M815.61 3373.893c0-1.085.184-2.087.551-3.01.368-.92.862-1.687 1.484-2.3a6.743 6.743 0 0 1 2.162-1.43 6.654 6.654 0 0 1 2.587-.513c1.083 0 2.004.188 2.762.564.759.376 1.477.912 2.156 1.609v-1.82h5.47v11.907c0 2.819-.673 4.903-2.016 6.25-1.465 1.472-3.757 2.207-6.875 2.207-2.892 0-5.506-.6-7.843-1.796l1.767-3.648c1.771.98 3.594 1.47 5.469 1.47 1.366 0 2.393-.33 3.081-.99.687-.661 1.032-1.624 1.032-2.888v-.613a7.662 7.662 0 0 1-2.1 1.745c-.767.426-1.679.639-2.734.639-1.979 0-3.632-.672-4.96-2.017-1.329-1.344-1.993-3.133-1.993-5.366m5.385.108c0 .877.301 1.604.905 2.182.604.577 1.378.865 2.322.865.925 0 1.686-.296 2.286-.887.599-.592.899-1.34.899-2.246 0-.877-.3-1.604-.9-2.181-.599-.578-1.36-.866-2.285-.866-.944 0-1.718.296-2.322.887-.604.591-.905 1.34-.905 2.246"/><path id="ejy3f" d="M834.88 3382.663v-21.113h5.498v7.608c1.313-1.678 2.877-2.517 4.692-2.517 1.658 0 2.96.514 3.907 1.541.947 1.028 1.42 2.438 1.42 4.228v10.253H844.9v-8.463c0-.837-.2-1.484-.603-1.94-.401-.456-.938-.684-1.608-.684-.69 0-1.248.23-1.673.692-.426.46-.638 1.104-.638 1.932v8.463z"/><path id="ejy3g" d="M851.72 3374.842c0-1.132.195-2.202.586-3.21a7.946 7.946 0 0 1 1.618-2.61 7.522 7.522 0 0 1 2.509-1.738 7.878 7.878 0 0 1 3.187-.644c1.31 0 2.478.229 3.505.686 1.027.457 1.856 1.084 2.487 1.88a8.498 8.498 0 0 1 1.434 2.723c.325 1.018.488 2.116.488 3.294 0 .5-.01.877-.028 1.132H857.02c.216.857.619 1.51 1.208 1.958.588.448 1.316.672 2.183.672 1.225 0 2.384-.544 3.477-1.633l3.038 2.54c-1.667 2.1-3.938 3.152-6.812 3.152-1.63 0-3.08-.34-4.353-1.018a7.337 7.337 0 0 1-2.974-2.885c-.712-1.244-1.067-2.678-1.067-4.3m5.215-1.3h5.45c-.103-.877-.396-1.57-.877-2.079-.482-.51-1.095-.764-1.84-.764-.709 0-1.306.257-1.792.771s-.8 1.204-.941 2.072"/><path id="ejy3h" d="M869.58 3382.663v-15.668h5.498v3.153c.945-2.271 2.503-3.408 4.677-3.408h.283v5.784h-.468c-2.995 0-4.492 1.758-4.492 5.274v4.865z"/><path id="ejy3i" d="M770.383 3393.11v5.292c0 .518-.134.92-.401 1.21-.269.287-.612.431-1.03.431-.424 0-.763-.143-1.017-.428-.253-.284-.38-.689-.38-1.213v-5.292h-3.437v6.411c0 1.12.296 2.002.888 2.645.592.642 1.406.963 2.443.963 1.137 0 2.115-.524 2.934-1.574v1.353h3.438v-9.798zm68.721 0v5.292c0 .518-.133.92-.402 1.21-.268.287-.612.431-1.03.431-.424 0-.764-.143-1.018-.428-.253-.284-.38-.689-.38-1.213v-5.292h-3.441v6.411c0 1.12.296 2.002.888 2.645.593.642 1.409.963 2.446.963 1.139 0 2.118-.524 2.938-1.574v1.353h3.44v-9.798zm-53.122 3.099c0 .378.062.72.186 1.023.124.303.282.555.473.756.193.2.447.387.766.558.318.173.63.31.937.414.307.102.679.212 1.115.326.578.149.985.28 1.22.391.237.112.355.253.355.426 0 .361-.29.54-.866.54-1.116 0-2.24-.363-3.372-1.09l-1.291 2.084c1.344.995 2.893 1.492 4.644 1.492 1.227 0 2.2-.287 2.92-.86.72-.575 1.08-1.397 1.08-2.467 0-.367-.063-.698-.186-.993a2.416 2.416 0 0 0-.474-.743 3.037 3.037 0 0 0-.765-.559 6.612 6.612 0 0 0-.938-.421 15.82 15.82 0 0 0-1.115-.344c-.595-.173-1.01-.314-1.243-.426-.233-.111-.35-.254-.35-.425 0-.155.069-.276.204-.362.136-.085.334-.128.593-.128.39 0 .844.078 1.363.235.52.158 1.032.372 1.54.642l1.176-2.183a6.966 6.966 0 0 0-1.903-.869 7.593 7.593 0 0 0-2.14-.31c-1.168 0-2.115.29-2.84.868-.726.579-1.089 1.387-1.089 2.425zm57.946 0c0 .378.062.72.186 1.023.123.303.281.555.472.756.192.2.447.387.765.558.318.173.63.31.937.414.306.102.677.212 1.113.326.577.149.984.28 1.22.391.235.112.353.253.353.426 0 .361-.289.54-.866.54-1.114 0-2.236-.363-3.366-1.09l-1.291 2.084c1.343.995 2.89 1.492 4.639 1.492 1.226 0 2.197-.287 2.917-.86.718-.575 1.078-1.397 1.078-2.467 0-.367-.062-.698-.186-.993a2.388 2.388 0 0 0-.473-.743 3.02 3.02 0 0 0-.764-.559 6.6 6.6 0 0 0-.937-.421c-.306-.11-.677-.224-1.113-.344-.595-.173-1.01-.314-1.242-.426-.233-.111-.349-.254-.349-.425 0-.155.067-.276.204-.362.134-.085.332-.128.592-.128.388 0 .842.078 1.36.235a8.607 8.607 0 0 1 1.538.642l1.175-2.183a6.947 6.947 0 0 0-1.9-.869 7.576 7.576 0 0 0-2.138-.31c-1.167 0-2.112.29-2.837.868-.724.579-1.087 1.387-1.087 2.425zm-63.881-.782c.465 0 .849.158 1.15.475.3.316.482.747.547 1.293h-3.402c.088-.54.284-.969.587-1.289.304-.319.677-.479 1.118-.479zm-3.588-1.047c-.43.456-.767 1-1.012 1.631-.244.63-.366 1.3-.366 2.007 0 1.014.222 1.91.666 2.688a4.594 4.594 0 0 0 1.86 1.804c.797.425 1.704.637 2.723.637 1.796 0 3.216-.657 4.26-1.97l-1.9-1.59c-.684.682-1.409 1.022-2.175 1.022-.542 0-.997-.14-1.365-.42-.368-.281-.62-.688-.756-1.224h6.558c.011-.16.017-.395.017-.708 0-.737-.101-1.424-.304-2.061a5.318 5.318 0 0 0-.897-1.702c-.395-.498-.913-.89-1.556-1.176-.642-.286-1.372-.428-2.191-.428a4.94 4.94 0 0 0-1.993.401 4.703 4.703 0 0 0-1.569 1.089zm47.727 3.638c0-.619.19-1.143.567-1.57.378-.426.87-.641 1.474-.641.592 0 1.084.217 1.477.65.393.434.59.953.59 1.561 0 .626-.188 1.15-.563 1.574-.376.425-.865.636-1.47.636a1.923 1.923 0 0 1-1.481-.65 2.233 2.233 0 0 1-.594-1.56zm-1.83-3.612a5.112 5.112 0 0 0-1.125 1.636 4.874 4.874 0 0 0-.412 1.976c0 .696.135 1.359.407 1.99a5.024 5.024 0 0 0 1.117 1.635 5.22 5.22 0 0 0 1.723 1.097 5.764 5.764 0 0 0 2.166.407c.773 0 1.5-.137 2.18-.412a5.228 5.228 0 0 0 1.726-1.104 5.156 5.156 0 0 0 1.12-1.637 4.867 4.867 0 0 0 .414-1.976 5.013 5.013 0 0 0-2.628-4.44c-.83-.459-1.756-.688-2.777-.688-.774 0-1.5.136-2.18.41a5.286 5.286 0 0 0-1.731 1.106zm35.521 1.021c.466 0 .849.158 1.15.475.3.316.482.747.548 1.293h-3.403c.088-.54.284-.969.588-1.289.303-.319.676-.479 1.117-.479zm-3.587-1.047c-.43.456-.767 1-1.013 1.631-.243.63-.366 1.3-.366 2.007 0 1.014.223 1.91.667 2.688a4.594 4.594 0 0 0 1.86 1.804c.796.425 1.703.637 2.722.637 1.797 0 3.217-.657 4.26-1.97l-1.9-1.59c-.683.682-1.408 1.022-2.174 1.022-.542 0-.997-.14-1.365-.42-.368-.281-.62-.688-.756-1.224h6.558c.011-.16.017-.395.017-.708 0-.737-.101-1.424-.305-2.061a5.318 5.318 0 0 0-.897-1.702c-.394-.498-.913-.89-1.555-1.176-.642-.286-1.373-.428-2.191-.428-.713 0-1.378.134-1.994.401a4.712 4.712 0 0 0-1.568 1.089zm-58.505-3.746v2.476h-1.156v2.777h1.156v3.983c0 1.13.281 1.953.843 2.469.561.515 1.377.773 2.448.773.912 0 1.707-.188 2.383-.563v-2.684c-.448.219-.88.328-1.297.328-.324 0-.562-.078-.715-.235-.153-.156-.23-.406-.23-.748v-3.323h2.277v-2.777h-2.277v-2.476zm20.069-.407v4.776h-4.51v-4.776h-3.512v12.681h3.511v-4.819h4.51v4.82h3.513v-12.681zm-63.69 1.655a6.378 6.378 0 0 0-1.417 2.09 6.518 6.518 0 0 0-.517 2.581c0 1.27.299 2.41.897 3.421a6.194 6.194 0 0 0 2.47 2.353c1.049.559 2.224.837 3.526.837 2.073 0 3.903-.646 5.489-1.94v-5.726h-5.834v2.538h2.519v1.591c-.536.366-1.214.549-2.033.549-1.001 0-1.824-.337-2.47-1.01-.644-.672-.967-1.526-.967-2.56 0-.97.312-1.79.937-2.458a3.03 3.03 0 0 1 2.306-1.002c.6 0 1.141.097 1.624.291.482.195.959.49 1.43.885l2.056-2.473a7.646 7.646 0 0 0-2.29-1.394c-.823-.316-1.769-.475-2.837-.475-.967 0-1.873.171-2.718.512-.845.34-1.569.803-2.17 1.39z"/><path id="ejy3k" d="M869.91 3397.924c0-1.078.206-2.104.619-3.08a7.993 7.993 0 0 1 1.674-2.531c.704-.713 1.554-1.28 2.55-1.701a8.062 8.062 0 0 1 3.172-.632 8.35 8.35 0 0 1 3.106.579c.975.386 1.803.9 2.484 1.543a7.26 7.26 0 0 1 1.617 2.249c.398.857.597 1.746.597 2.665 0 .79-.108 1.502-.323 2.137-.215.634-.504 1.144-.866 1.53a3.8 3.8 0 0 1-1.229.885 3.486 3.486 0 0 1-1.436.306c-1.331 0-2.262-.458-2.792-1.372-.772.891-1.659 1.336-2.66 1.336-.955 0-1.744-.334-2.369-1-.624-.668-.936-1.547-.936-2.64 0-.854.181-1.646.543-2.376.363-.73.852-1.307 1.467-1.73.616-.425 1.278-.637 1.985-.637 1.054 0 1.864.455 2.43 1.364l.212-1.122 2.81.44-.831 4.684c-.053.273-.08.54-.08.799 0 .314.106.573.318.774.213.202.498.303.858.303.613 0 1.122-.323 1.53-.969.405-.645.609-1.55.609-2.712 0-.83-.175-1.63-.526-2.395a6.445 6.445 0 0 0-1.44-2.016c-.61-.577-1.357-1.038-2.241-1.383a7.738 7.738 0 0 0-2.837-.517c-1.031 0-2 .19-2.907.57-.907.38-1.676.892-2.307 1.538a7.132 7.132 0 0 0-1.493 2.297 7.318 7.318 0 0 0-.548 2.814c0 1.003.181 1.946.544 2.828a6.988 6.988 0 0 0 1.497 2.287c.636.643 1.411 1.15 2.325 1.522a7.756 7.756 0 0 0 2.95.558c.867 0 1.645-.1 2.334-.297a9.188 9.188 0 0 0 2.095-.914l.362.574c-1.49.908-3.087 1.362-4.79 1.362a8.614 8.614 0 0 1-2.63-.399 7.6 7.6 0 0 1-2.235-1.128 8.166 8.166 0 0 1-1.71-1.707 7.502 7.502 0 0 1-1.113-2.181 8.092 8.092 0 0 1-.389-2.505zm6.098.053c0 .442.124.787.37 1.037.248.25.566.374.955.374.483 0 .892-.202 1.229-.608.335-.405.503-.896.503-1.473 0-.417-.122-.75-.367-.997-.244-.246-.56-.37-.95-.37-.489 0-.901.197-1.236.59-.337.395-.504.877-.504 1.447z"/><path id="ejy3l" d="M892.33 3402.9v-12.68h6.495c1.544 0 2.696.375 3.455 1.124.549.54.823 1.225.823 2.056 0 1.33-.652 2.28-1.956 2.853.82.275 1.444.662 1.875 1.162.431.5.646 1.174.646 2.025 0 1.08-.423 1.927-1.27 2.54-.845.614-2.023.92-3.532.92zm3.438-7.648h2.204c1.105 0 1.657-.385 1.657-1.154 0-.353-.135-.624-.405-.815-.27-.19-.664-.286-1.182-.286h-2.274zm0 4.862h2.707c.535 0 .95-.104 1.244-.314.294-.21.44-.511.44-.906a.99.99 0 0 0-.431-.848c-.289-.206-.718-.31-1.288-.31h-2.672z"/><path id="ejy3m" d="M904.4 3400.062c0-.99.345-1.75 1.034-2.281.69-.531 1.623-.796 2.802-.796.877 0 1.664.127 2.36.38v-.159c0-1.061-.655-1.591-1.963-1.591-.895 0-1.794.179-2.695.538l-.707-2.422a10.397 10.397 0 0 1 3.968-.761c1.69 0 2.934.398 3.73 1.194.7.684 1.05 1.722 1.05 3.113v5.633h-3.401v-1.017c-.749.825-1.71 1.238-2.881 1.238-.967 0-1.758-.27-2.373-.81-.616-.54-.924-1.292-.924-2.26m3.314-.164c0 .33.112.589.336.78.224.19.515.286.875.286.506 0 .918-.147 1.233-.44.315-.294.472-.681.472-1.162v-.458a3.504 3.504 0 0 0-1.343-.247c-.495 0-.88.112-1.157.335-.278.223-.416.525-.416.906"/><path id="ejy3n" d="M915.05 3400.062c0-.99.345-1.75 1.034-2.281.69-.531 1.623-.796 2.802-.796.877 0 1.664.127 2.36.38v-.159c0-1.061-.655-1.591-1.963-1.591-.895 0-1.794.179-2.695.538l-.707-2.422a10.397 10.397 0 0 1 3.968-.761c1.69 0 2.934.398 3.73 1.194.7.684 1.05 1.722 1.05 3.113v5.633h-3.401v-1.017c-.749.825-1.71 1.238-2.881 1.238-.967 0-1.758-.27-2.373-.81-.616-.54-.924-1.292-.924-2.26m3.314-.164c0 .33.112.589.336.78.224.19.515.286.875.286.506 0 .918-.147 1.233-.44.315-.294.472-.681.472-1.162v-.458a3.504 3.504 0 0 0-1.343-.247c-.495 0-.88.112-1.157.335-.278.223-.416.525-.416.906"/><path id="ejy3o" d="M926.19 3402.909v-9.798h3.438v1.388c.839-1.072 1.817-1.609 2.933-1.609 1.037 0 1.852.321 2.444.964.592.642.888 1.524.888 2.644v6.41h-3.438v-5.291c0-.524-.125-.928-.376-1.214-.252-.285-.587-.427-1.006-.427-.432 0-.78.144-1.047.432-.265.288-.398.691-.398 1.209v5.292z"/><path id="ejy3p" d="M942.51 3402.9v-12.68h4.883c1.113 0 2.119.155 3.02.465.9.31 1.65.745 2.252 1.303a5.694 5.694 0 0 1 1.386 1.998c.324.774.486 1.625.486 2.552 0 .912-.164 1.756-.49 2.533a5.824 5.824 0 0 1-1.4 2.015c-.607.569-1.366 1.013-2.278 1.333-.912.32-1.928.481-3.047.481zm3.508-3.096h1.431c1.067 0 1.915-.285 2.546-.856.63-.57.945-1.37.945-2.397 0-1.005-.317-1.797-.95-2.376-.633-.58-1.48-.869-2.54-.869h-1.432z"/><path id="ejy3q" d="M955.9 3399.521v-6.411h3.438v5.292c0 .524.126.928.38 1.213.253.285.592.428 1.016.428.418 0 .761-.144 1.03-.432.268-.288.401-.691.401-1.209v-5.292h3.438v9.798h-3.438v-1.352c-.818 1.048-1.797 1.573-2.934 1.573-1.036 0-1.85-.321-2.443-.964-.592-.643-.888-1.524-.888-2.644"/><path id="ejy3r" d="M966.52 3401.63l1.29-2.083c1.131.728 2.253 1.091 3.367 1.091.577 0 .866-.18.866-.54 0-.172-.118-.315-.353-.426-.236-.112-.643-.243-1.22-.391a17.001 17.001 0 0 1-1.113-.327 5.954 5.954 0 0 1-.937-.412 3.075 3.075 0 0 1-.765-.56 2.4 2.4 0 0 1-.472-.756 2.675 2.675 0 0 1-.186-1.023c0-1.038.363-1.846 1.087-2.425.725-.578 1.67-.868 2.837-.868a7.58 7.58 0 0 1 2.139.311c.707.207 1.34.496 1.9.868l-1.176 2.183a8.585 8.585 0 0 0-1.538-.64c-.518-.158-.972-.237-1.36-.237-.26 0-.457.043-.592.13a.403.403 0 0 0-.204.36c0 .172.117.314.35.426.232.112.646.253 1.24.425.437.12.808.236 1.114.344a6.6 6.6 0 0 1 .937.422c.319.171.573.357.764.558.192.2.35.449.473.744.124.295.186.626.186.992 0 1.07-.36 1.892-1.078 2.466-.72.574-1.692.862-2.917.862-1.749 0-3.296-.498-4.639-1.493"/><path id="ejy3s" d="M976.37 3392.236h3.588v-2.546h-3.588zm.079 10.674h3.438v-9.8h-3.438z"/><path id="ejy3t" d="M981.06 3395.882v-2.776h1.158v-2.476h3.437v2.476h2.28v2.776h-2.28v3.323c0 .343.077.593.23.75.153.156.392.234.716.234.418 0 .851-.11 1.3-.328v2.684c-.679.374-1.474.562-2.387.562-1.072 0-1.89-.258-2.452-.773-.563-.515-.844-1.338-.844-2.468v-3.984z"/><path id="ejy3u" d="M988.69 3404.565c.589-.07 1.039-.244 1.348-.52.309-.278.464-.647.464-1.107v-.07h-1.406v-3.528h3.598v2.873c0 1.28-.322 2.204-.964 2.773-.642.568-1.565.87-2.766.906z"/><path id="ejy3v" d="M999.22 3402.9v-12.68h5.425c1.614 0 2.896.395 3.845 1.184.948.79 1.422 1.886 1.422 3.29 0 .972-.236 1.806-.71 2.503a4.266 4.266 0 0 1-1.928 1.552c-.81.339-1.745.508-2.805.508h-1.741v3.643zm3.508-6.385h1.665c.623 0 1.112-.152 1.468-.455.355-.302.533-.715.533-1.238 0-.54-.178-.956-.533-1.247-.356-.291-.85-.437-1.485-.437h-1.648z"/><path id="ejy3w" d="M1010.25 3400.062c0-.99.345-1.75 1.034-2.281.69-.531 1.623-.796 2.802-.796.877 0 1.664.127 2.36.38v-.159c0-1.061-.655-1.591-1.963-1.591-.895 0-1.794.179-2.695.538l-.707-2.422a10.397 10.397 0 0 1 3.968-.761c1.69 0 2.934.398 3.73 1.194.7.684 1.05 1.722 1.05 3.113v5.633h-3.401v-1.017c-.749.825-1.71 1.238-2.881 1.238-.967 0-1.758-.27-2.373-.81-.616-.54-.924-1.292-.924-2.26m3.314-.164c0 .33.112.589.336.78.224.19.515.286.875.286.506 0 .918-.147 1.233-.44.315-.294.472-.681.472-1.162v-.458a3.504 3.504 0 0 0-1.343-.247c-.495 0-.88.112-1.157.335-.278.223-.416.525-.416.906"/><path id="ejy3x" d="M1020.84 3395.882v-2.776h1.158v-2.476h3.437v2.476h2.28v2.776h-2.28v3.323c0 .343.077.593.23.75.153.156.392.234.716.234.418 0 .851-.11 1.3-.328v2.684c-.679.374-1.474.562-2.387.562-1.072 0-1.89-.258-2.452-.773-.563-.515-.844-1.338-.844-2.468v-3.984z"/><path id="ejy3y" d="M1028.45 3395.882v-2.776h1.158v-2.476h3.437v2.476h2.28v2.776h-2.28v3.323c0 .343.077.593.23.75.153.156.392.234.716.234.418 0 .851-.11 1.3-.328v2.684c-.679.374-1.474.562-2.387.562-1.072 0-1.89-.258-2.452-.773-.563-.515-.844-1.338-.844-2.468v-3.984z"/><path id="ejy3z" d="M1036.13 3400.062c0-.99.345-1.75 1.034-2.281.69-.531 1.623-.796 2.802-.796.877 0 1.664.127 2.36.38v-.159c0-1.061-.655-1.591-1.963-1.591-.895 0-1.794.179-2.695.538l-.707-2.422a10.397 10.397 0 0 1 3.968-.761c1.69 0 2.934.398 3.73 1.194.7.684 1.05 1.722 1.05 3.113v5.633h-3.401v-1.017c-.749.825-1.71 1.238-2.881 1.238-.967 0-1.758-.27-2.373-.81-.616-.54-.924-1.292-.924-2.26m3.314-.164c0 .33.112.589.336.78.224.19.515.286.875.286.506 0 .918-.147 1.233-.44.315-.294.472-.681.472-1.162v-.458a3.504 3.504 0 0 0-1.343-.247c-.495 0-.88.112-1.157.335-.278.223-.416.525-.416.906"/><path id="ejy3A" d="M1046.11 3393.11h3.597l1.953 5.907 1.846-5.907h3.536l-3.588 9.56c-.43 1.16-.92 1.982-1.467 2.466-.548.483-1.302.725-2.263.725-1.084 0-2.133-.283-3.146-.85l1.07-2.413c.583.354 1.083.531 1.502.531.341 0 .606-.133.795-.398z"/><path id="ejy3B" d="M1056.94 3400.062c0-.99.345-1.75 1.034-2.281.69-.531 1.623-.796 2.802-.796.877 0 1.664.127 2.36.38v-.159c0-1.061-.655-1.591-1.963-1.591-.895 0-1.794.179-2.695.538l-.707-2.422a10.397 10.397 0 0 1 3.968-.761c1.69 0 2.934.398 3.73 1.194.7.684 1.05 1.722 1.05 3.113v5.633h-3.401v-1.017c-.749.825-1.71 1.238-2.881 1.238-.967 0-1.758-.27-2.373-.81-.616-.54-.924-1.292-.924-2.26m3.314-.164c0 .33.112.589.336.78.224.19.515.286.875.286.506 0 .918-.147 1.233-.44.315-.294.472-.681.472-1.162v-.458a3.504 3.504 0 0 0-1.343-.247c-.495 0-.88.112-1.157.335-.278.223-.416.525-.416.906"/><linearGradient id="ejy3j" x1="750.23" x2="862.78" y1="3396.57" y2="3396.57" gradientUnits="userSpaceOnUse"><stop offset="0" stop-color="#f47c22"/><stop offset="1" stop-color="#ffcd02"/></linearGradient></defs><g><g transform="translate(-750 -3361)"><g><use fill="#322f31" xlink:href="#ejy3a"/></g><g><use fill="#322f31" xlink:href="#ejy3b"/></g><g><use fill="#322f31" xlink:href="#ejy3c"/></g><g><use fill="#322f31" xlink:href="#ejy3d"/></g><g><use fill="#322f31" xlink:href="#ejy3e"/></g><g><use fill="#322f31" xlink:href="#ejy3f"/></g><g><use fill="#322f31" xlink:href="#ejy3g"/></g><g><use fill="#322f31" xlink:href="#ejy3h"/></g><g><use fill="url(#ejy3j)" xlink:href="#ejy3i"/></g><g><g><use fill="#727272" xlink:href="#ejy3k"/></g><g><use fill="#727272" xlink:href="#ejy3l"/></g><g><use fill="#727272" xlink:href="#ejy3m"/></g><g><use fill="#727272" xlink:href="#ejy3n"/></g><g><use fill="#727272" xlink:href="#ejy3o"/></g><g><use fill="#727272" xlink:href="#ejy3p"/></g><g><use fill="#727272" xlink:href="#ejy3q"/></g><g><use fill="#727272" xlink:href="#ejy3r"/></g><g><use fill="#727272" xlink:href="#ejy3s"/></g><g><use fill="#727272" xlink:href="#ejy3t"/></g><g><use fill="#727272" xlink:href="#ejy3u"/></g><g><use fill="#727272" xlink:href="#ejy3v"/></g><g><use fill="#727272" xlink:href="#ejy3w"/></g><g><use fill="#727272" xlink:href="#ejy3x"/></g><g><use fill="#727272" xlink:href="#ejy3y"/></g><g><use fill="#727272" xlink:href="#ejy3z"/></g><g><use fill="#727272" xlink:href="#ejy3A"/></g><g><use fill="#727272" xlink:href="#ejy3B"/></g></g></g></g></svg>