<?xml version="1.0" encoding="UTF-8"?>
<svg width="117px" height="32px" viewBox="0 0 117 32" version="1.1" xmlns="http://www.w3.org/2000/svg" xmlns:xlink="http://www.w3.org/1999/xlink">
    <!-- Generator: Sketch 47.1 (45422) - http://www.bohemiancoding.com/sketch -->
    <title>stangher-footer-logo</title>
    <desc>Created with Sketch.</desc>
    <defs></defs>
    <g id="Page-1" stroke="none" stroke-width="1" fill="none" fill-rule="evenodd">
        <g id="1-1-coworking-main-1170" transform="translate(-228.000000, -7821.000000)" fill="#7A7778">
            <g id="stangher-footer-logo" transform="translate(228.000000, 7821.000000)">
                <path d="M16.2170581,30.0648597 L16.2170581,25.7759045 L15.5390148,25.7759045 L15.5390148,25.1359045 L16.2170581,25.1359045 L16.2170581,24.7055761 C16.2170581,24.1453373 16.3603067,23.7221731 16.6468039,23.4351284 C16.9013089,23.1805612 17.2546555,23.0530388 17.7063661,23.0530388 C18.018648,23.0530388 18.2893879,23.094591 18.5185856,23.1776955 L18.5185856,23.8176955 C18.2320884,23.734591 17.9933408,23.6935164 17.8023426,23.6935164 C17.2288707,23.6935164 16.942851,24.043606 16.942851,24.7437851 L16.942851,25.1449791 L18.5090357,25.1449791 L18.5090357,25.7759045 L16.9519234,25.7759045 L16.9519234,30.0648597 L16.2170581,30.0648597 Z" id="Fill-1"></path>
                <path d="M21.1636233,30.169791 C20.5777365,30.169791 20.116476,29.9897313 19.7788868,29.6300896 C19.4412976,29.2699701 19.2727418,28.7909254 19.2727418,28.1924776 L19.2727418,25.126209 L20.0080846,25.126209 L20.0080846,28.0105075 C20.0080846,28.4757015 20.1274584,28.840597 20.3662061,29.105194 C20.6049538,29.3688358 20.940633,29.5011343 21.3732438,29.5011343 C21.8001246,29.5011343 22.1534711,29.3578507 22.4337609,29.0712836 C22.7135732,28.7847164 22.8539568,28.4117015 22.8539568,27.9536716 L22.8539568,25.126209 L23.5802272,25.126209 L23.5802272,30.0647164 L22.8539568,30.0647164 L22.8539568,29.2045373 C22.4528607,29.8483582 21.8894162,30.169791 21.1636233,30.169791" id="Fill-4"></path>
                <path d="M25.1365278,30.0648597 L25.1365278,25.1263522 L25.8713931,25.1263522 L25.8713931,25.9855761 C26.2605518,25.3427104 26.8235188,25.0208 27.5622041,25.0208 C28.1480908,25.0208 28.6093513,25.2008597 28.9469405,25.5605015 C29.2845297,25.9201433 29.4526081,26.3996657 29.4526081,26.998591 L29.4526081,30.0648597 L28.7177428,30.0648597 L28.7177428,27.179606 C28.7177428,26.7148896 28.5983689,26.3504716 28.3596213,26.0863522 C28.1208736,25.8217552 27.7851944,25.6899343 27.3521061,25.6899343 C26.9252253,25.6899343 26.5718787,25.8332179 26.2920665,26.1197851 C26.0117767,26.4063522 25.8713931,26.7784119 25.8713931,27.237397 L25.8713931,30.0648597 L25.1365278,30.0648597 Z" id="Fill-6"></path>
                <path d="M33.1298952,29.5107343 C33.6073905,29.5107343 34.0242439,29.3287642 34.3804555,28.9657791 C34.7371445,28.6032716 34.9157277,28.1414209 34.9157277,27.5807045 C34.9157277,27.0333612 34.7371445,26.5796299 34.3804555,26.2195104 C34.0242439,25.8598687 33.6073905,25.679809 33.1298952,25.679809 C32.6328225,25.679809 32.2193116,25.8541373 31.8884073,26.2008836 C31.5570255,26.5481075 31.3913347,27.0142567 31.3913347,27.6002866 C31.3913347,28.1672119 31.560368,28.6271522 31.8979572,28.9805851 C32.2355464,29.3340179 32.6457149,29.5107343 33.1298952,29.5107343 M32.9961965,30.1698388 C32.3659026,30.1698388 31.814873,29.935809 31.3440626,29.4677493 C30.8727747,28.9996896 30.636892,28.3735403 30.636892,27.5902567 C30.636892,26.8203463 30.8727747,26.1989731 31.3440626,25.7280478 C31.814873,25.2571224 32.3659026,25.0211821 32.9961965,25.0211821 C33.7726039,25.0211821 34.4028977,25.3712716 34.887078,26.0719284 L34.887078,23.0916299 L35.6224208,23.0916299 L35.6224208,30.0647642 L34.887078,30.0647642 L34.887078,29.0713313 C34.3904829,29.8035104 33.760189,30.1698388 32.9961965,30.1698388" id="Fill-8"></path>
                <path d="M42.2116655,29.5200478 C42.7392978,29.5200478 43.1742961,29.3352119 43.5147502,28.9660179 C43.8556819,28.5963463 44.0256702,28.1411821 44.0256702,27.6000478 C44.0256702,27.0651224 43.8494745,26.6099582 43.4956504,26.2340776 C43.1423039,25.8586746 42.7077831,25.6700179 42.1920882,25.6700179 C41.6639783,25.6700179 41.23089,25.8567642 40.8937783,26.2293015 C40.5561891,26.6023164 40.3876333,27.059391 40.3876333,27.6000478 C40.3876333,28.1349731 40.5623966,28.5891821 40.9124007,28.9612418 C41.2628822,29.3337791 41.6959705,29.5200478 42.2116655,29.5200478 M44.0352201,29.4197493 C43.538625,29.9260179 42.9240885,30.1796299 42.1920882,30.1796299 C41.4600878,30.1796299 40.8503263,29.9279284 40.363281,29.425003 C39.8762358,28.9216 39.6331906,28.3136 39.6331906,27.6000478 C39.6331906,26.8931821 39.8795782,26.2866149 40.3728309,25.7803463 C40.8665611,25.2740776 41.4796651,25.0209433 42.2116655,25.0209433 C42.9436658,25.0209433 43.5548598,25.2726448 44.0452476,25.7755701 C44.5351578,26.2784955 44.7801129,26.8864955 44.7801129,27.6000478 C44.7801129,28.3069134 44.5318153,28.9134806 44.0352201,29.4197493" id="Fill-10"></path>
                <path d="M46.2889981,30.0648597 L46.2889981,25.7759045 L45.6109548,25.7759045 L45.6109548,25.1359045 L46.2889981,25.1359045 L46.2889981,24.7055761 C46.2889981,24.1453373 46.4327242,23.7221731 46.7187439,23.4351284 C46.9737264,23.1805612 47.327073,23.0530388 47.7787836,23.0530388 C48.090588,23.0530388 48.3613279,23.094591 48.5905257,23.1776955 L48.5905257,23.8176955 C48.3045059,23.734591 48.0657583,23.6935164 47.8742826,23.6935164 C47.3012882,23.6935164 47.014791,24.043606 47.014791,24.7437851 L47.014791,25.1449791 L48.5814532,25.1449791 L48.5814532,25.7759045 L47.024341,25.7759045 L47.024341,30.0648597 L46.2889981,30.0648597 Z" id="Fill-12"></path>
                <path d="M54.3682192,29.0331224 C54.851922,29.0331224 55.2754604,28.8736 55.6383568,28.5555104 C56.0012533,28.2369433 56.1827015,27.832406 56.1827015,27.3418985 C56.1827015,26.8523463 56.0026858,26.4511522 55.6431318,26.1383164 C55.2831003,25.8269134 54.8581294,25.6702567 54.3682192,25.6702567 C53.8840389,25.6702567 53.4786454,25.825003 53.1501286,26.1340179 C52.8225668,26.4425552 52.6587859,26.849003 52.6587859,27.3514507 C52.6587859,27.8357493 52.8259093,28.2369433 53.160156,28.5555104 C53.4944028,28.8736 53.8969313,29.0331224 54.3682192,29.0331224 M54.3777691,31.6122269 C53.5435848,31.6122269 52.7953496,31.3829731 52.133541,30.9239881 L52.4677878,30.3513313 C53.0465121,30.7716299 53.6806259,30.9817791 54.3682192,30.9817791 C54.9221138,30.9817791 55.3594995,30.8303761 55.6813314,30.5280478 C56.0026858,30.2252418 56.1636017,29.7906149 56.1636017,29.2241672 L56.1636017,28.6414806 C55.6412218,29.3354507 54.9946931,29.682197 54.2244931,29.682197 C53.6008842,29.682197 53.057972,29.4677493 52.596234,29.0378985 C52.134496,28.6075701 51.9043433,28.0463761 51.9043433,27.3514507 C51.9043433,26.6574806 52.136406,26.095809 52.6014865,25.6654806 C53.0660894,25.2361075 53.6070917,25.0211821 54.2244931,25.0211821 C55.0147479,25.0211821 55.6569791,25.3521672 56.1540518,26.0146149 L56.1540518,25.1262567 L56.8889171,25.1262567 L56.8889171,29.2045851 C56.8889171,29.9501373 56.6792966,30.5328239 56.2591007,30.9531224 C55.8193275,31.3920478 55.1928537,31.6122269 54.3777691,31.6122269" id="Fill-14"></path>
                <path d="M60.709023,29.5200478 C61.2376104,29.5200478 61.6726086,29.3352119 62.0125853,28.9660179 C62.3530395,28.5963463 62.5239828,28.1411821 62.5239828,27.6000478 C62.5239828,27.0651224 62.3473095,26.6099582 61.9934855,26.2340776 C61.6406164,25.8586746 61.2060957,25.6700179 60.6904007,25.6700179 C60.1618134,25.6700179 59.7287251,25.8567642 59.3911359,26.2293015 C59.0535467,26.6023164 58.8854683,27.059391 58.8854683,27.6000478 C58.8854683,28.1349731 59.0602316,28.5891821 59.4102357,28.9612418 C59.7607173,29.3337791 60.1933281,29.5200478 60.709023,29.5200478 M62.5330552,29.4197493 C62.0364601,29.9260179 61.4224011,30.1796299 60.6904007,30.1796299 C59.9584004,30.1796299 59.3481613,29.9279284 58.8615936,29.425003 C58.3740708,28.9216 58.1310257,28.3136 58.1310257,27.6000478 C58.1310257,26.8931821 58.3774133,26.2866149 58.870666,25.7803463 C59.3643962,25.2740776 59.9770227,25.0209433 60.709023,25.0209433 C61.4410234,25.0209433 62.0522174,25.2726448 62.5426051,25.7755701 C63.0329928,26.2784955 63.2784254,26.8864955 63.2784254,27.6000478 C63.2784254,28.3069134 63.0296504,28.9134806 62.5330552,29.4197493" id="Fill-16"></path>
                <path d="M66.7830979,29.5200478 C67.3107303,29.5200478 67.7457285,29.3352119 68.0861827,28.9660179 C68.4271144,28.5963463 68.5971027,28.1411821 68.5971027,27.6000478 C68.5971027,27.0651224 68.4209069,26.6099582 68.0670829,26.2340776 C67.7137364,25.8586746 67.2792156,25.6700179 66.7635206,25.6700179 C66.2354108,25.6700179 65.8023225,25.8567642 65.4652108,26.2293015 C65.1276216,26.6023164 64.9590658,27.059391 64.9590658,27.6000478 C64.9590658,28.1349731 65.1338291,28.5891821 65.4838331,28.9612418 C65.8343147,29.3337791 66.267403,29.5200478 66.7830979,29.5200478 M68.6066526,29.4197493 C68.1100575,29.9260179 67.495521,30.1796299 66.7635206,30.1796299 C66.0315203,30.1796299 65.4217587,29.9279284 64.9347135,29.425003 C64.4476683,28.9216 64.2046231,28.3136 64.2046231,27.6000478 C64.2046231,26.8931821 64.4510107,26.2866149 64.9442634,25.7803463 C65.4379936,25.2740776 66.0510976,25.0209433 66.7830979,25.0209433 C67.5150983,25.0209433 68.1262923,25.2726448 68.61668,25.7755701 C69.1065903,26.2784955 69.3515454,26.8864955 69.3515454,27.6000478 C69.3515454,28.3069134 69.1032478,28.9134806 68.6066526,29.4197493" id="Fill-18"></path>
                <path d="M72.7895595,29.5107343 C73.2670549,29.5107343 73.6839083,29.3287642 74.0405973,28.9657791 C74.3968088,28.6032716 74.5753921,28.1414209 74.5753921,27.5807045 C74.5753921,27.0333612 74.3968088,26.5796299 74.0405973,26.2195104 C73.6839083,25.8598687 73.2670549,25.679809 72.7895595,25.679809 C72.2929644,25.679809 71.8789759,25.8541373 71.5480717,26.2008836 C71.2166899,26.5481075 71.0514765,27.0142567 71.0514765,27.6002866 C71.0514765,28.1672119 71.2205099,28.6271522 71.5576216,28.9805851 C71.8952108,29.3340179 72.3058568,29.5107343 72.7895595,29.5107343 M72.6558608,30.1698388 C72.025567,30.1698388 71.4750149,29.935809 71.0042045,29.4677493 C70.5324391,28.9996896 70.2970339,28.3735403 70.2970339,27.5902567 C70.2970339,26.8203463 70.5324391,26.1989731 71.0042045,25.7280478 C71.4750149,25.2571224 72.025567,25.0211821 72.6558608,25.0211821 C73.4327457,25.0211821 74.0630396,25.3712716 74.5472199,26.0719284 L74.5472199,23.0916299 L75.2820852,23.0916299 L75.2820852,30.0647642 L74.5472199,30.0647642 L74.5472199,29.0713313 C74.0501472,29.8035104 73.4198534,30.1698388 72.6558608,30.1698388" id="Fill-20"></path>
                <path d="M79.6652536,30.0649552 L80.4010739,30.0649552 L80.4010739,25.1264478 L79.6652536,25.1264478 L79.6652536,30.0649552 Z M79.6175041,24.0465672 L80.4578959,24.0465672 L80.4578959,23.2346269 L79.6175041,23.2346269 L79.6175041,24.0465672 Z" id="Fill-22"></path>
                <path d="M84.2205114,29.5107343 C84.6980067,29.5107343 85.1148601,29.3287642 85.4715491,28.9657791 C85.8277607,28.6032716 86.0063439,28.1414209 86.0063439,27.5807045 C86.0063439,27.0333612 85.8277607,26.5796299 85.4715491,26.2195104 C85.1148601,25.8598687 84.6980067,25.679809 84.2205114,25.679809 C83.7239162,25.679809 83.3099278,25.8541373 82.9790235,26.2008836 C82.6476417,26.5481075 82.4824283,27.0142567 82.4824283,27.6002866 C82.4824283,28.1672119 82.6514617,28.6271522 82.9885734,28.9805851 C83.3261626,29.3340179 83.7368086,29.5107343 84.2205114,29.5107343 M84.0868127,30.1698388 C83.4565188,30.1698388 82.9059667,29.935809 82.4351563,29.4677493 C81.9633909,28.9996896 81.7279857,28.3735403 81.7279857,27.5902567 C81.7279857,26.8203463 81.9633909,26.1989731 82.4351563,25.7280478 C82.9059667,25.2571224 83.4565188,25.0211821 84.0868127,25.0211821 C84.8636976,25.0211821 85.4939914,25.3712716 85.9781717,26.0719284 L85.9781717,23.0916299 L86.713037,23.0916299 L86.713037,30.0647642 L85.9781717,30.0647642 L85.9781717,29.0713313 C85.4810991,29.8035104 84.8508052,30.1698388 84.0868127,30.1698388" id="Fill-24"></path>
                <path d="M88.6993699,27.3041194 L91.8794888,27.3041194 C91.8346042,26.8265075 91.6770308,26.4300896 91.4067684,26.1148657 C91.1365061,25.7996418 90.7683572,25.6425075 90.3032767,25.6425075 C89.8835583,25.6425075 89.5240043,25.798209 89.2246147,26.1100896 C88.9252252,26.4219701 88.7499844,26.8202985 88.6993699,27.3041194 L88.6993699,27.3041194 Z M88.6993699,27.8958806 C88.7499844,28.3997612 88.93955,28.7990448 89.2671118,29.0951642 C89.5956286,29.3912836 89.9852648,29.5393433 90.4374529,29.5393433 C91.0295471,29.5393433 91.5485845,29.3067463 91.9940877,28.8420299 L92.4520057,29.2522985 C91.8981111,29.8703284 91.2200677,30.1798209 90.4183531,30.1798209 C89.7240749,30.1798209 89.1400981,29.9391045 88.6659452,29.4581493 C88.1917923,28.977194 87.9539997,28.3577313 87.9539997,27.6002388 C87.9539997,26.8804776 88.1803324,26.2710448 88.632043,25.7709851 C89.0847086,25.2709254 89.6476756,25.0211343 90.322854,25.0211343 C91.0295471,25.0211343 91.5896491,25.2690149 92.0036376,25.766209 C92.417626,26.2624478 92.6243815,26.8866866 92.6243815,27.6384478 C92.6243815,27.7334925 92.6210391,27.8194627 92.6143541,27.8958806 L88.6993699,27.8958806 Z" id="Fill-25"></path>
                <path d="M95.4318631,29.5774567 C95.8907361,29.5774567 96.2784623,29.4532776 96.5969517,29.2049194 C96.9154411,28.9565612 97.0744471,28.6384716 97.0744471,28.2496955 L97.0744471,27.7916657 C96.5907443,27.6512478 96.1099065,27.5805612 95.6324111,27.5805612 C95.1807006,27.5805612 94.8268765,27.6722627 94.5723715,27.8532776 C94.3178665,28.0352478 94.1903752,28.2816955 94.1903752,28.5935761 C94.1903752,28.8930388 94.3097491,29.1318448 94.5484967,29.309994 C94.7872444,29.4881433 95.0823365,29.5774567 95.4318631,29.5774567 M95.2886145,30.1696955 C94.7853344,30.1696955 94.3527236,30.0330985 93.9898272,29.7589493 C93.6274082,29.4857552 93.4454825,29.1031881 93.4454825,28.612203 C93.4454825,28.0963821 93.6364806,27.699009 94.0189544,27.4181731 C94.4004732,27.1387701 94.9133032,26.9988299 95.5560119,26.9988299 C96.0654994,26.9988299 96.5687795,27.0685612 97.0648972,27.2085015 L97.0648972,27.0556657 C97.0648972,26.6224716 96.9374059,26.2914866 96.6833784,26.0622328 C96.4283959,25.8329791 96.0688419,25.7183522 95.6037614,25.7183522 C95.1205361,25.7183522 94.6205985,25.8363224 94.1049036,26.0717851 L93.8847782,25.4695164 C94.4964497,25.1896358 95.0942739,25.0501731 95.6806382,25.0501731 C96.3801688,25.0501731 96.9125761,25.2307104 97.2749951,25.5941731 C97.6187917,25.9380537 97.7906901,26.4223522 97.7906901,27.0461134 L97.7906901,30.0650985 L97.0648972,30.0650985 L97.0648972,29.3286209 C96.6256014,29.8893373 96.0335072,30.1696955 95.2886145,30.1696955" id="Fill-26"></path>
                <path d="M100.884812,30.16 C100.528601,30.16 100.167137,30.0945672 99.8008977,29.9641791 C99.4346588,29.833791 99.1147369,29.6570746 98.8416095,29.4340299 L99.2135784,28.9091343 C99.7741579,29.3289552 100.34381,29.5391045 100.923012,29.5391045 C101.222401,29.5391045 101.467834,29.4660299 101.658355,29.319403 C101.84983,29.1732537 101.945329,28.9788657 101.945329,28.737194 C101.945329,28.5141493 101.841713,28.3417313 101.63448,28.2208955 C101.427724,28.1005373 101.120695,27.9820896 100.713391,27.8674627 C100.464616,27.7977313 100.267411,27.7337313 100.12082,27.6768955 C99.974706,27.6191045 99.8090151,27.5379104 99.6242244,27.4333134 C99.4399112,27.3277612 99.30287,27.1945075 99.2135784,27.0316418 C99.1242868,26.8692537 99.0803572,26.6767761 99.0803572,26.4537313 C99.0803572,26.0334328 99.2379307,25.6924179 99.5530776,25.4316418 C99.867747,25.1708657 100.270276,25.04 100.760663,25.04 C101.397165,25.04 101.989259,25.2214925 102.537423,25.5844776 L102.202699,26.1385075 C101.712312,25.8204179 101.225266,25.6608955 100.741563,25.6608955 C100.455544,25.6608955 100.224436,25.7296716 100.049195,25.8662687 C99.8739545,26.0033433 99.7865728,26.1800597 99.7865728,26.3964179 C99.7865728,26.4857313 99.8123576,26.5683582 99.8629721,26.6452537 C99.9140641,26.7216716 99.9713635,26.785194 100.035348,26.8362985 C100.098855,26.8864478 100.198651,26.9408955 100.33617,26.9986866 C100.472734,27.0555224 100.582558,27.0975522 100.665642,27.1228657 C100.747771,27.1477015 100.878127,27.1892537 101.05671,27.2465672 C101.292593,27.3167761 101.486456,27.3841194 101.639255,27.4471642 C101.792053,27.5106866 101.954402,27.5971343 102.126777,27.7050746 C102.298676,27.8139701 102.427122,27.9486567 102.513071,28.1115224 C102.59902,28.2739104 102.641995,28.4630448 102.641995,28.679403 C102.641995,29.1379104 102.476782,29.4994627 102.145877,29.7635821 C101.814496,30.0281791 101.393822,30.16 100.884812,30.16" id="Fill-27"></path>
                <path d="M0,15.7532657 L2.73175082,12.5040716 C4.49752857,13.9154149 6.40750991,14.6208478 8.46121735,14.6208478 C9.10726854,14.6208478 9.6024312,14.5124299 9.94622785,14.2946388 C10.2900245,14.077803 10.4614453,13.7635343 10.4614453,13.3532657 C10.4614453,12.9764299 10.2589873,12.6683701 9.85454874,12.4305194 C9.4491552,12.1926687 8.66558535,11.9381015 7.5043167,11.6672955 C6.90697003,11.5273552 6.3879326,11.3988776 5.94720441,11.2794746 C5.50647621,11.1610269 5.03948577,11.0105791 4.5452781,10.8305194 C4.05107043,10.6495045 3.63087453,10.4613254 3.28516791,10.2645493 C2.93898379,10.0677731 2.60187208,9.82992239 2.2724003,9.5505194 C1.94292852,9.27207164 1.67982859,8.9702209 1.48214552,8.64592239 C1.28446245,8.32162388 1.12545651,7.9424 1.00608267,7.50729552 C0.886708839,7.07219104 0.827499417,6.59648955 0.827499417,6.07971343 C0.827499417,4.4142806 1.44585588,3.05642985 2.68447878,2.00616119 C3.92262418,0.955892537 5.58621793,0.430519403 7.67573752,0.430519403 C10.5731792,0.430519403 12.9940806,1.2104597 14.9389191,2.76890746 L12.4845931,6.22729552 C10.8362792,5.0705194 9.19274021,4.49213134 7.55302122,4.49213134 C6.98050431,4.49213134 6.54264109,4.60102687 6.23990905,4.8183403 C5.9376545,5.03613134 5.78581098,5.32078806 5.78581098,5.67374328 C5.78581098,6.08401194 5.9887465,6.40162388 6.39366255,6.62753433 C6.7981011,6.85296716 7.61032066,7.10562388 8.82936625,7.38454925 C9.9094607,7.62287761 10.8276842,7.88269851 11.5840368,8.16544478 C12.340867,8.44914627 13.0212978,8.80353433 13.6258069,9.2305194 C14.230316,9.65702687 14.6801166,10.1757134 14.9761637,10.7875343 C15.2717333,11.3988776 15.4202344,12.1143403 15.4202344,12.9353552 C15.4202344,14.7154149 14.7717957,16.1186388 13.4744409,17.1440716 C12.1766086,18.1699821 10.444733,18.6824597 8.27738165,18.6824597 C6.68350222,18.6824597 5.17175198,18.4341015 3.74308594,17.9378627 C2.31441989,17.4416239 1.06624708,16.7132657 0,15.7532657" id="Fill-28"></path>
                <path d="M16.201751,8.6030806 L16.201751,4.73824478 L17.8137752,4.73824478 L17.8137752,1.29227463 L22.6001885,1.29227463 L22.6001885,4.73824478 L25.775055,4.73824478 L25.775055,8.6030806 L22.6001885,8.6030806 L22.6001885,13.2273194 C22.6001885,13.7044537 22.70667,14.0516776 22.9201104,14.2694687 C23.1335508,14.4872597 23.4658875,14.5966328 23.9166431,14.5966328 C24.4991874,14.5966328 25.1017866,14.4442746 25.7253955,14.1405134 L25.7253955,17.8749612 C24.7818647,18.396991 23.674553,18.6582448 22.4034604,18.6582448 C20.9103325,18.6582448 19.7719836,18.2995582 18.9888913,17.5826627 C18.2053214,16.8652896 17.8137752,15.7199761 17.8137752,14.1467224 L17.8137752,8.6030806 L16.201751,8.6030806 Z" id="Fill-29"></path>
                <path d="M31.5146922,14.1903284 C31.5146922,14.649791 31.6703556,15.0132537 31.9821601,15.2792836 C32.2939646,15.5462687 32.6998356,15.6795224 33.2002507,15.6795224 C33.9059888,15.6795224 34.4780282,15.4741493 34.9168464,15.0638806 C35.3556646,14.6540896 35.574835,14.1124776 35.574835,13.44 L35.574835,12.7995224 C35.0171205,12.569791 34.393989,12.4546866 33.7049633,12.4546866 C33.0159375,12.4546866 32.4787552,12.6108657 32.092939,12.9227463 C31.7071228,13.2346269 31.5146922,13.6573134 31.5146922,14.1903284 M26.9006547,14.4119403 C26.9006547,13.0330746 27.3805375,11.9751642 28.3403032,11.2362985 C29.3000688,10.4983881 30.6002886,10.129194 32.2409626,10.129194 C33.4628731,10.129194 34.5582474,10.3054328 35.525653,10.6579104 L35.525653,10.4367761 C35.525653,8.95952239 34.6150694,8.22161194 32.7948572,8.22161194 C31.5471618,8.22161194 30.2961241,8.47140299 29.0417438,8.9719403 L28.0571484,5.6 C29.788069,4.89408955 31.629291,4.54161194 33.5817695,4.54161194 C35.9358215,4.54161194 37.6667421,5.09516418 38.7745313,6.20274627 C39.7500542,7.15462687 40.2390094,8.59844776 40.2390094,10.5351642 L40.2390094,18.3746866 L35.5013007,18.3746866 L35.5013007,16.9595224 C34.4594059,18.1081791 33.1219415,18.6822687 31.4898624,18.6822687 C30.144758,18.6822687 29.0436538,18.3073433 28.1865497,17.5565373 C27.3289681,16.8057313 26.9006547,15.7573731 26.9006547,14.4119403" id="Fill-30"></path>
                <path d="M42.4103717,18.3745433 L42.4103717,4.73824478 L47.196785,4.73824478 L47.196785,6.67018507 C48.3652161,5.17669254 49.7265553,4.43066269 51.2817576,4.43066269 C52.7257035,4.43066269 53.8597549,4.87770746 54.6839118,5.77179701 C55.5085463,6.66636418 55.9206248,7.89334925 55.9206248,9.45179701 L55.9206248,18.3745433 L51.134689,18.3745433 L51.134689,11.0092896 C51.134689,10.2809313 50.9589707,9.71782687 50.6094441,9.32140896 C50.2594401,8.92403582 49.7929271,8.72582687 49.2084728,8.72582687 C48.6077837,8.72582687 48.1226484,8.92642388 47.7525896,9.32761791 C47.3820532,9.72833433 47.196785,10.2885731 47.196785,11.0092896 L47.196785,18.3745433 L42.4103717,18.3745433 Z" id="Fill-31"></path>
                <path d="M57.8095963,9.53031642 C57.8095963,8.26130149 58.0497765,7.06392836 58.5296593,5.93819701 C59.0095421,4.81246567 59.6680082,3.84243582 60.50458,3.02762985 C61.3411518,2.21330149 62.3481895,1.56852537 63.5252155,1.0937791 C64.7022415,0.619032836 65.9628292,0.381659701 67.3088885,0.381659701 C68.7972415,0.381659701 70.1136961,0.601361194 71.2587299,1.0417194 C72.4032863,1.48064478 73.4666684,2.12828657 74.4488763,2.98273433 L71.5848593,6.42440597 C70.9292582,5.87467463 70.2655396,5.46392836 69.5941812,5.1936 C68.9218678,4.92327164 68.1683801,4.78762985 67.3327633,4.78762985 C66.0616707,4.78762985 64.9911262,5.25234627 64.1220847,6.18225672 C63.2520882,7.11264478 62.8170899,8.25222687 62.8170899,9.60243582 C62.8170899,11.0424358 63.2668905,12.2307343 64.1650592,13.1673313 C65.0627505,14.1039284 66.2092168,14.5719881 67.6039806,14.5719881 C68.743762,14.5719881 69.6872928,14.3174209 70.433618,13.8082866 L70.433618,11.5936 L66.9273698,11.5936 L66.9273698,8.06118209 L75.0481329,8.06118209 L75.0481329,16.0310925 C72.8401945,17.8316896 70.2932344,18.7319881 67.4072526,18.7319881 C65.5942028,18.7319881 63.9578263,18.3432119 62.497168,17.5661373 C61.0374648,16.7885851 59.890521,15.6972418 59.0587241,14.2916299 C58.2259722,12.8845851 57.8095963,11.2979582 57.8095963,9.53031642" id="Fill-32"></path>
                <path d="M77.2446592,18.3745433 L77.2446592,-0.000143283582 L82.030595,-0.000143283582 L82.030595,6.62194627 C83.1741963,5.16093134 84.5364905,4.43066269 86.1155676,4.43066269 C87.5595135,4.43066269 88.6935649,4.87770746 89.5177218,5.77179701 C90.3423563,6.66636418 90.7544348,7.89334925 90.7544348,9.45179701 L90.7544348,18.3745433 L85.968499,18.3745433 L85.968499,11.0092896 C85.968499,10.2809313 85.7932582,9.71782687 85.4437316,9.32140896 C85.0937276,8.92403582 84.6272146,8.72582687 84.0427603,8.72582687 C83.4420712,8.72582687 82.9569359,8.92642388 82.586877,9.32761791 C82.2163407,9.72833433 82.030595,10.2885731 82.030595,11.0092896 L82.030595,18.3745433 L77.2446592,18.3745433 Z" id="Fill-33"></path>
                <path d="M96.4461314,10.4365851 L101.183363,10.4365851 C101.093116,9.67336119 100.838611,9.07061493 100.420325,8.62739104 C100.002039,8.18416716 99.4686769,7.96255522 98.8211932,7.96255522 C98.2061792,7.96255522 97.6866643,8.18607761 97.2645584,8.63407761 C96.8414976,9.08064478 96.5693252,9.6814806 96.4461314,10.4365851 M91.9061058,11.5685254 C91.9061058,10.5846448 92.0760941,9.65330149 92.4165483,8.77497313 C92.756525,7.89712239 93.2268579,7.14058507 93.825637,6.50440597 C94.4244162,5.86918209 95.1521191,5.36434627 96.0097007,4.99085373 C96.8668048,4.61688358 97.7912358,4.43061493 98.7839486,4.43061493 C99.9237299,4.43061493 100.941273,4.6297791 101.835621,5.02762985 C102.729015,5.42595821 103.451465,5.97091343 104.001063,6.66488358 C104.55066,7.35789851 104.967036,8.14739104 105.249713,9.03336119 C105.532868,9.91933134 105.674206,10.8755104 105.674206,11.9009433 C105.674206,12.3365254 105.666089,12.6641672 105.649854,12.8857791 L96.5196657,12.8857791 C96.7087538,13.631809 97.0592354,14.2001672 97.5715879,14.5898985 C98.0848954,14.9801075 98.7180542,15.1749731 99.4734518,15.1749731 C100.539221,15.1749731 101.548647,14.7011821 102.499817,13.7531224 L105.145619,15.9639881 C103.693556,17.7922866 101.716247,18.7069134 99.2146494,18.7069134 C97.7955332,18.7069134 96.5325581,18.4117493 95.4247689,17.8209433 C94.3174572,17.2301373 93.4541456,16.3933612 92.8353117,15.3101373 C92.2155227,14.227391 91.9061058,12.9798687 91.9061058,11.5685254" id="Fill-34"></path>
                <path d="M107.452781,18.3745433 L107.452781,4.73824478 L112.238717,4.73824478 L112.238717,7.48260299 C113.061441,5.50576716 114.41896,4.51663284 116.310797,4.51663284 L116.557662,4.51663284 L116.557662,9.55018507 L116.150836,9.55018507 C113.542756,9.55018507 112.238717,11.0809313 112.238717,14.1414687 L112.238717,18.3745433 L107.452781,18.3745433 Z" id="Fill-35"></path>
            </g>
        </g>
    </g>
</svg>