<?xml version="1.0" encoding="UTF-8"?>
<svg width="305px" height="45px" viewBox="0 0 305 45" version="1.1" xmlns="http://www.w3.org/2000/svg" xmlns:xlink="http://www.w3.org/1999/xlink">
    <!-- Generator: Sketch 47.1 (45422) - http://www.bohemiancoding.com/sketch -->
    <title>stangher-aparts-riverdale-logo</title>
    <desc>Created with Sketch.</desc>
    <defs>
        <linearGradient x1="0%" y1="50%" x2="99.981075%" y2="50%" id="linearGradient-1">
            <stop stop-color="#F47C22" offset="0%"></stop>
            <stop stop-color="#FFCD02" offset="100%"></stop>
        </linearGradient>
    </defs>
    <g id="Page-1" stroke="none" stroke-width="1" fill="none" fill-rule="evenodd">
        <g id="2-1-apartments-main-1170" transform="translate(-149.000000, -127.000000)" fill-rule="nonzero">
            <g id="stangher-aparts-riverdale-logo" transform="translate(149.000000, 127.000000)">
                <path d="M115.545732,36.6420732 C115.542132,35.5844787 115.753093,34.5371433 116.165854,33.5634146 C116.557118,32.62098 117.125282,31.7622143 117.839634,31.0335366 C118.569618,30.3035898 119.436903,29.7253994 120.391463,29.3323171 C121.397041,28.9092661 122.477979,28.6945721 123.568902,28.7012195 C124.63146,28.694364 125.685603,28.8899206 126.675,29.277439 C127.594413,29.6282327 128.438235,30.1516633 129.160976,30.8195122 C129.839893,31.4587661 130.389511,32.222643 130.779878,33.0695122 C131.173243,33.9036385 131.377499,34.8143585 131.378049,35.7365854 C131.385138,36.459548 131.273913,37.1788015 131.04878,37.8658537 C130.872396,38.4322762 130.57674,38.9543511 130.181707,39.3969512 C129.839131,39.771763 129.424865,40.074065 128.963415,40.2859756 C128.511404,40.4893447 128.021262,40.5941078 127.52561,40.5932927 C126.193902,40.5932927 125.262805,40.1359756 124.732317,39.2213415 C124.093861,40.0479355 123.114995,40.5403962 122.070732,40.5603659 C121.173279,40.5857128 120.308758,40.2214935 119.7,39.5615854 C119.053708,38.8384789 118.716781,37.8907487 118.761585,36.9219512 C118.75614,36.0978579 118.944103,35.2839801 119.310366,34.5457317 C119.642077,33.8531477 120.14673,33.2577711 120.77561,32.8170732 C121.355813,32.404092 122.050024,32.1816377 122.762195,32.1804878 C123.761819,32.1499468 124.696757,32.6733432 125.193293,33.5414634 L125.407317,32.4439024 L128.217073,32.8829268 L127.388415,37.5695122 C127.335157,37.8332991 127.307589,38.1016264 127.306098,38.3707317 C127.296754,38.6622906 127.4126,38.9439162 127.62439,39.1445122 C127.858714,39.354204 128.166464,39.4627055 128.480488,39.4463415 C129.129645,39.425495 129.716151,39.0534101 130.011585,38.475 C130.464205,37.6345064 130.671477,36.6837175 130.609756,35.7310976 C130.603427,34.9030691 130.416127,34.086438 130.060976,33.3384146 C129.714842,32.579943 129.224665,31.8959325 128.617683,31.3243902 C127.968097,30.7225623 127.207628,30.2528611 126.378659,29.9414634 C125.473536,29.5934996 124.511142,29.4185189 123.541463,29.4256098 C122.54505,29.4126772 121.556122,29.5992673 120.632927,29.9743902 C119.767036,30.3254903 118.981144,30.8481737 118.322561,31.5109756 C117.681031,32.1737353 117.174113,32.954613 116.829878,33.8103659 C116.102189,35.6204555 116.102189,37.6417396 116.829878,39.4518293 C117.173601,40.3059 117.682748,41.0836086 118.328049,41.7402439 C118.992002,42.4001744 119.78381,42.9174639 120.654878,43.2603659 C121.59398,43.6335237 122.59685,43.8199307 123.607317,43.8091463 C124.39475,43.8192287 125.179744,43.7194883 125.939634,43.5128049 C126.673795,43.2956504 127.37801,42.987787 128.035976,42.5963415 L128.398171,43.145122 C126.959708,44.0374071 125.300048,44.5088798 123.607317,44.5060976 C122.715666,44.5091231 121.828929,44.3739837 120.978659,44.1054878 C120.175013,43.8548794 119.418431,43.4728797 118.739634,42.975 C118.087544,42.4940146 117.510515,41.9188356 117.027439,41.2682927 C116.543566,40.6017967 116.172751,39.8601671 115.929878,39.0731707 C115.678487,38.2871638 115.548937,37.4672967 115.545732,36.6420732 L115.545732,36.6420732 Z M121.648171,36.6969512 C121.626071,37.0790831 121.760849,37.4536878 122.021341,37.7341463 C122.274024,37.9857077 122.619923,38.1208865 122.97622,38.1073171 C123.458708,38.1077579 123.913591,37.8823469 124.205488,37.4981707 C124.544509,37.0842253 124.723667,36.562331 124.710366,36.027439 C124.729102,35.6583072 124.596289,35.2975326 124.342683,35.0286585 C124.09076,34.7799614 123.747009,34.6468323 123.393293,34.6609756 C122.910564,34.6565439 122.452841,34.8752791 122.153049,35.2536585 C121.814956,35.655268 121.635388,36.166646 121.648171,36.6914634 L121.648171,36.6969512 Z" id="Shape" fill="#636466"></path>
                <path d="M137.979878,41.625 L137.979878,28.9426829 L143.961585,28.9426829 C145.790854,28.9426829 147.164634,29.4 148.082927,30.3146341 C148.844926,31.1312633 149.241252,32.223142 149.180488,33.3384146 C149.206222,34.1793459 148.966187,35.0069873 148.494512,35.7036585 C148.013734,36.3700411 147.353259,36.8858586 146.590244,37.1908537 L149.614024,41.625 L145.564024,41.625 L143.006707,37.7835366 L141.470122,37.7835366 L141.470122,41.625 L137.979878,41.625 Z M141.492073,35.0396341 L143.780488,35.0396341 C144.276451,35.0699787 144.767464,34.9263623 145.168902,34.6335366 C145.494468,34.3637926 145.676833,33.9585367 145.662805,33.5359756 C145.686239,33.110395 145.499664,32.7003391 145.163415,32.4384146 C144.750818,32.1627652 144.259322,32.0297723 143.764024,32.0597561 L141.464634,32.0597561 L141.492073,35.0396341 Z" id="Shape" fill="#636466"></path>
                <path d="M150.612805,30.9402439 L150.612805,28.404878 L154.207317,28.404878 L154.207317,30.9402439 L150.612805,30.9402439 Z M150.689634,41.6195122 L150.689634,31.8292683 L154.130488,31.8292683 L154.130488,41.625 L150.689634,41.6195122 Z" id="Shape" fill="#636466"></path>
                <polygon id="Shape" fill="#636466" points="155.118293 31.8292683 158.745732 31.8292683 160.628049 37.547561 162.510366 31.8292683 166.082927 31.8292683 162.164634 41.7073171 159.036585 41.7073171"></polygon>
                <path d="M166.017073,36.7353659 C166.012901,36.0487471 166.137621,35.3674437 166.384756,34.7268293 C166.612134,34.1168797 166.957075,33.5575166 167.4,33.0804878 C167.842352,32.6108548 168.376598,32.2372559 168.969512,31.9829268 C169.598594,31.7127646 170.276972,31.5763414 170.961585,31.5823171 C171.71529,31.5686132 172.463371,31.7144888 173.156707,32.0103659 C173.7644,32.2685563 174.299531,32.6717885 174.715244,33.1847561 C175.116014,33.6925024 175.420988,34.2689765 175.615244,34.8859756 C175.823605,35.5519046 175.92728,36.2461536 175.922561,36.9439024 C175.922561,37.254878 175.922561,37.4908537 175.922561,37.6518293 L169.337195,37.6518293 C169.440377,38.1351161 169.708035,38.5676357 170.094512,38.8756098 C170.49005,39.1650693 170.971086,39.3138233 171.460976,39.2981707 C172.301671,39.2732311 173.095256,38.9042144 173.656098,38.277439 L175.554878,39.8634146 C174.532888,41.1674014 172.946258,41.9004771 171.290854,41.8335366 C170.337375,41.8541567 169.393953,41.635283 168.546951,41.1969512 C167.766334,40.7862335 167.120486,40.1594362 166.686585,39.3914634 C166.235541,38.579658 166.004729,37.6639758 166.017073,36.7353659 L166.017073,36.7353659 Z M169.282317,35.9231707 L172.684756,35.9231707 C172.650021,35.4410366 172.457115,34.9838492 172.135976,34.622561 C171.838238,34.3052715 171.418428,34.13135 170.983537,34.145122 C170.56598,34.1442555 170.16744,34.3196132 169.885976,34.6280488 C169.556837,34.9862022 169.344391,35.4359762 169.276829,35.9176829 L169.282317,35.9231707 Z" id="Shape" fill="#636466"></path>
                <path d="M177.190244,41.625 L177.190244,31.8292683 L180.631098,31.8292683 L180.631098,33.7993902 C181.22378,32.379878 182.19878,31.670122 183.556098,31.670122 L183.731707,31.670122 L183.731707,35.2865854 L183.440854,35.2865854 C181.567683,35.2865854 180.631098,36.3841463 180.631098,38.5792683 L180.631098,41.6195122 L177.190244,41.625 Z" id="Shape" fill="#636466"></path>
                <path d="M184.565854,38.8646341 C184.101142,37.4812774 184.101142,35.9839665 184.565854,34.6006098 C184.766743,33.9940134 185.087761,33.4340973 185.509756,32.9542683 C185.895283,32.5273202 186.364027,32.183699 186.887195,31.9445122 C187.403568,31.7074884 187.965366,31.5857654 188.533537,31.5878049 C189.130443,31.5691436 189.722616,31.6992707 190.256707,31.9664634 C190.739006,32.2388626 191.168398,32.59576 191.52439,33.020122 L191.52439,28.404878 L194.965244,28.404878 L194.965244,41.625 L191.52439,41.625 L191.52439,40.3243902 C191.163906,40.762609 190.729253,41.1341065 190.240244,41.4219512 C189.71865,41.7037772 189.131567,41.8420258 188.539024,41.822561 C187.970946,41.8237283 187.409333,41.7020454 186.892683,41.4658537 C186.36287,41.2366271 185.884971,40.9024711 185.487805,40.4835366 C185.074878,40.0112993 184.761323,39.4607115 184.565854,38.8646341 L184.565854,38.8646341 Z M187.584146,36.7353659 C187.563889,37.3239285 187.774633,37.897072 188.171341,38.3323171 C188.532839,38.7397642 189.053516,38.9700636 189.598171,38.9634146 C190.141117,38.9714188 190.659667,38.7382726 191.014024,38.3268293 C191.401405,37.8687844 191.597882,37.2793521 191.562805,36.6804878 C191.589261,36.1027867 191.392805,35.5369939 191.014024,35.1 C190.65669,34.6938731 190.139042,34.4651448 189.598171,34.4743902 C189.049139,34.4710216 188.526002,34.7075356 188.165854,35.1219512 C187.769627,35.5637116 187.560985,36.1423973 187.584146,36.7353659 L187.584146,36.7353659 Z" id="Shape" fill="#636466"></path>
                <path d="M196.145122,38.7768293 C196.096054,37.8919029 196.483525,37.039056 197.182317,36.4939024 C198.002349,35.9237136 198.989291,35.6436617 199.986585,35.6981707 C200.789276,35.685225 201.588001,35.8133924 202.346341,36.0768293 L202.346341,35.9176829 C202.346341,34.8567073 201.691463,34.3262195 200.381707,34.3262195 C199.456708,34.3351583 198.542009,34.5214512 197.687195,34.875 L196.979268,32.4493902 C198.239444,31.9388602 199.587305,31.6797278 200.946951,31.6865854 C202.637195,31.6865854 203.881098,32.0835366 204.678659,32.877439 C205.381098,33.5615854 205.732317,34.5987805 205.732317,35.9890244 L205.732317,41.625 L202.329878,41.625 L202.329878,40.6097561 C201.59967,41.4281871 200.545138,41.8821378 199.44878,41.85 C198.583858,41.8865783 197.736445,41.5988882 197.072561,41.0432927 C196.437167,40.4665165 196.096327,39.6335763 196.145122,38.7768293 L196.145122,38.7768293 Z M199.437805,38.6176829 C199.42322,38.9167487 199.5466,39.2059839 199.772561,39.402439 C200.019058,39.6004612 200.32925,39.7019076 200.645122,39.6878049 C201.099045,39.7071035 201.542413,39.547491 201.879878,39.2432927 C202.19895,38.9403234 202.371094,38.5139651 202.351829,38.0743902 L202.351829,37.6134146 C201.924238,37.4435562 201.46736,37.35964 201.007317,37.3664634 C200.59429,37.3412075 200.185226,37.4594677 199.84939,37.7012195 C199.582463,37.9279258 199.439747,38.2684036 199.465244,38.6176829 L199.437805,38.6176829 Z" id="Shape" fill="#636466"></path>
                <polygon id="Shape" fill="#636466" points="207.373171 41.625 207.373171 28.404878 210.814024 28.404878 210.814024 41.625"></polygon>
                <path d="M212.142073,36.7353659 C212.137901,36.0487471 212.262621,35.3674437 212.509756,34.7268293 C212.737134,34.1168797 213.082075,33.5575166 213.525,33.0804878 C213.967352,32.6108548 214.501598,32.2372559 215.094512,31.9829268 C215.723594,31.7127646 216.401972,31.5763414 217.086585,31.5823171 C217.84029,31.5686132 218.588371,31.7144888 219.281707,32.0103659 C219.8894,32.2685563 220.424531,32.6717885 220.840244,33.1847561 C221.241014,33.6925024 221.545988,34.2689765 221.740244,34.8859756 C221.948605,35.5519046 222.05228,36.2461536 222.047561,36.9439024 C222.047561,37.254878 222.047561,37.4908537 222.047561,37.6518293 L215.462195,37.6518293 C215.55943,38.1450645 215.827619,38.5881593 216.219512,38.9030488 C216.61505,39.1925083 217.096086,39.3412623 217.585976,39.3256098 C218.426671,39.3006701 219.220256,38.9316535 219.781098,38.304878 L221.679878,39.8908537 C220.657888,41.1948404 219.071258,41.9279161 217.415854,41.8609756 C216.462375,41.8815957 215.518953,41.662722 214.671951,41.2243902 C213.891334,40.8136726 213.245486,40.1868752 212.811585,39.4189024 C212.35587,38.5990045 212.124903,37.6732434 212.142073,36.7353659 Z M215.407317,35.9231707 L218.809756,35.9231707 C218.775021,35.4410366 218.582115,34.9838492 218.260976,34.622561 C217.963238,34.3052715 217.543428,34.13135 217.108537,34.145122 C216.69098,34.1442555 216.29244,34.3196132 216.010976,34.6280488 C215.683832,34.9868978 215.473332,35.4366036 215.407317,35.9176829 L215.407317,35.9231707 Z" id="Shape" fill="#636466"></path>
                <path d="M222.766463,43.2878049 C223.262325,43.248629 223.733906,43.0569296 224.116463,42.7390244 C224.42659,42.4601401 224.597375,42.0582922 224.582927,41.6414634 L224.582927,41.570122 L223.178049,41.570122 L223.178049,38.0579268 L226.778049,38.0579268 L226.778049,40.9335366 C226.778049,42.2140244 226.456098,43.1378049 225.812195,43.704878 C225.03148,44.3180867 224.060639,44.6384645 223.068293,44.6103659 L222.766463,43.2878049 Z" id="Shape" fill="#636466"></path>
                <polygon id="Shape" fill="#636466" points="233.308537 41.625 233.308537 28.9426829 237.02378 28.9426829 240.047561 33.8487805 243.071341 28.9426829 246.792073 28.9426829 246.792073 41.625 243.279878 41.625 243.279878 34.3481707 240.042073 39.2871951 239.970732 39.2871951 236.743902 34.3481707 236.743902 41.5920732"></polygon>
                <path d="M248.240854,36.7353659 C248.238699,36.0553248 248.3789,35.382361 248.652439,34.7597561 C248.915923,34.142552 249.29817,33.5831655 249.777439,33.1134146 C250.278301,32.6378697 250.867434,32.265001 251.511585,32.0158537 C252.209488,31.7369492 252.955172,31.5971333 253.706707,31.6042683 C254.676391,31.5920184 255.632831,31.8301832 256.483537,32.2957317 C258.113812,33.175142 259.125058,34.8830713 259.112195,36.7353659 C259.11435,37.4154069 258.974149,38.0883707 258.70061,38.7109756 C258.44454,39.325503 258.071816,39.8845883 257.603049,40.3573171 C257.104601,40.8332745 256.517171,41.2062458 255.87439,41.454878 C254.476757,41.9993063 252.925682,41.9993063 251.528049,41.454878 C250.887155,41.2057357 250.301618,40.832782 249.804878,40.3573171 C249.333679,39.8865778 248.960615,39.3269823 248.707317,38.7109756 C248.41777,38.0914734 248.258981,37.4189534 248.240854,36.7353659 Z M251.610366,36.7353659 C251.598757,37.3120078 251.811211,37.870684 252.203049,38.2939024 C252.576104,38.7250486 253.120143,38.9699666 253.690244,38.9634146 C254.261274,38.9843102 254.810721,38.7439272 255.182927,38.3103659 C255.557471,37.873094 255.753424,37.3107077 255.731707,36.7353659 C255.742172,36.1589228 255.529875,35.6006593 255.139024,35.1768293 C254.764473,34.7534588 254.222445,34.5165726 253.657317,34.5292683 C253.093929,34.5114662 252.552214,34.7470819 252.181098,35.1713415 C251.800281,35.6019685 251.596401,36.1606781 251.610366,36.7353659 L251.610366,36.7353659 Z" id="Shape" fill="#636466"></path>
                <path d="M259.573171,40.3518293 L260.862805,38.2664634 C261.855303,38.9522854 263.026296,39.3337163 264.232317,39.3640244 C264.810366,39.3640244 265.09939,39.1810976 265.09939,38.8152439 C265.09939,38.6432927 264.982317,38.5006098 264.748171,38.3871951 C264.353609,38.2236798 263.9461,38.0933502 263.529878,37.997561 C263.094512,37.8841463 262.728659,37.7762195 262.432317,37.6737805 C262.108412,37.5634306 261.794476,37.4257395 261.493902,37.2621951 C261.213005,37.1194542 260.95573,36.9343641 260.731098,36.7134146 C260.527262,36.4931252 260.367108,36.2361346 260.259146,35.9560976 C260.131,35.6312719 260.067615,35.2845203 260.072561,34.9353659 C260.028822,33.9977105 260.436905,33.0958478 261.170122,32.5097561 C261.986589,31.9002655 262.989624,31.5937287 264.007317,31.6426829 C264.732007,31.6442365 265.452739,31.7495743 266.147561,31.9554878 C266.820542,32.1472393 267.460693,32.4395622 268.046341,32.822561 L266.871951,35.0176829 C266.381646,34.7546371 265.867057,34.5396124 265.335366,34.3756098 C264.895525,34.2314716 264.437081,34.1519833 263.97439,34.1396341 C263.768375,34.1269335 263.562954,34.1725827 263.381707,34.2713415 C263.251855,34.3448388 263.173609,34.4844124 263.178659,34.6335366 C263.178659,34.8036585 263.293902,34.9463415 263.529878,35.0615854 C263.932405,35.2340535 264.346906,35.3771114 264.770122,35.4896341 C265.205488,35.6103659 265.571341,35.7256098 265.867683,35.8353659 C266.19073,35.9522709 266.504436,36.0935304 266.806098,36.2579268 C267.086995,36.4006678 267.34427,36.5857579 267.568902,36.8067073 C267.770094,37.022802 267.930046,37.2738883 268.040854,37.547561 C268.168792,37.8628658 268.232236,38.200615 268.227439,38.5408537 C268.276452,39.490412 267.868539,40.4061767 267.129878,41.004878 C266.284308,41.6183785 265.253545,41.9225697 264.210366,41.8664634 C262.540136,41.8852318 260.910299,41.3528826 259.573171,40.3518293 L259.573171,40.3518293 Z" id="Shape" fill="#636466"></path>
                <path d="M269.056098,36.7408537 C269.048722,35.848331 269.277829,34.9697722 269.720122,34.1945122 C270.165141,33.4154286 270.813977,32.7722843 271.596951,32.3341463 C272.432927,31.8609442 273.38039,31.6202888 274.340854,31.6371951 C276.032455,31.5438313 277.638672,32.38699 278.522561,33.8323171 L276.223171,35.5060976 C275.839504,34.9009119 275.172652,34.5343501 274.456098,34.5347561 C273.896343,34.5133709 273.357219,34.7475973 272.990854,35.1713415 C272.617938,35.613857 272.422401,36.178958 272.442073,36.7573171 C272.421953,37.3407393 272.6173,37.9111535 272.990854,38.3597561 C273.342113,38.7621266 273.856521,38.9840281 274.390244,38.9634146 C274.736595,38.9728962 275.078712,38.8854663 275.378049,38.7109756 C275.704186,38.4976786 275.993348,38.2326132 276.234146,37.9262195 L278.577439,39.6164634 C277.616186,41.089661 275.943937,41.9404178 274.187195,41.85 C273.268464,41.858028 272.364431,41.6192265 271.569512,41.1585366 C270.793892,40.7157331 270.152854,40.0709024 269.714634,39.2926829 C269.276695,38.5139147 269.049695,37.6342906 269.056098,36.7408537 L269.056098,36.7408537 Z" id="Shape" fill="#636466"></path>
                <path d="M278.90122,36.7353659 C278.899065,36.0553248 279.039266,35.382361 279.312805,34.7597561 C279.576289,34.142552 279.958536,33.5831655 280.437805,33.1134146 C280.938667,32.6378697 281.5278,32.265001 282.171951,32.0158537 C282.869854,31.7369492 283.615538,31.5971333 284.367073,31.6042683 C285.336757,31.5920184 286.293196,31.8301832 287.143902,32.2957317 C288.767812,33.1795342 289.772218,34.8866014 289.756098,36.7353659 C289.758252,37.4154069 289.618051,38.0883707 289.344512,38.7109756 C289.088442,39.325503 288.715719,39.8845883 288.246951,40.3573171 C287.748504,40.8332745 287.161074,41.2062458 286.518293,41.454878 C285.120659,41.9993063 283.569585,41.9993063 282.171951,41.454878 C281.531057,41.2057357 280.94552,40.832782 280.44878,40.3573171 C279.977581,39.8865778 279.604518,39.3269823 279.35122,38.7109756 C279.06735,38.0902585 278.914177,37.4177907 278.90122,36.7353659 Z M282.270732,36.7353659 C282.259122,37.3120078 282.471577,37.870684 282.863415,38.2939024 C283.237712,38.726526 283.784088,38.9715915 284.356098,38.9634146 C284.916847,38.9817116 285.456376,38.7481842 285.826829,38.3268293 C286.201373,37.8895574 286.397327,37.3271711 286.37561,36.7518293 C286.386075,36.1753862 286.173777,35.6171227 285.782927,35.1932927 C285.408376,34.7699222 284.866348,34.533036 284.30122,34.5457317 C283.737831,34.5279296 283.196116,34.7635454 282.825,35.1878049 C282.454027,35.6166676 282.256385,36.1684984 282.270732,36.7353659 Z" id="Shape" fill="#636466"></path>
                <polygon id="Shape" fill="#636466" points="289.843902 31.8292683 293.213415 31.8292683 294.497561 36.7682927 296.00122 31.8292683 298.838415 31.8292683 300.358537 36.8231707 301.686585 31.8841463 304.979268 31.8841463 301.955488 41.7621951 298.986585 41.7621951 297.439024 36.6091463 295.792683 41.7073171 292.840244 41.7073171"></polygon>
                <path d="M0.356707317,18.1097561 L3.49573171,14.3780488 C5.34015713,15.9316197 7.66962925,16.7915832 10.0810976,16.8091463 C10.6735804,16.8452069 11.2644374,16.7160163 11.7878049,16.4359756 C12.173634,16.2065779 12.4012089,15.7828359 12.3793666,15.3344941 C12.3575243,14.8861524 12.0898372,14.4865385 11.6835366,14.2957317 C10.8250964,13.8880169 9.91758827,13.5928923 8.98353659,13.4176829 C8.29573171,13.2567073 7.69939024,13.1085366 7.1945122,12.9731707 C6.68963415,12.8378049 6.15182927,12.6658537 5.58109756,12.4573171 C5.08113525,12.2795933 4.59658537,12.0611788 4.13231707,11.8042683 C3.71962143,11.5647753 3.33013377,11.2873572 2.96890244,10.9756098 C2.61289901,10.6790719 2.30713186,10.3269764 2.06341463,9.93292683 C1.82059371,9.52522285 1.63588392,9.08561357 1.51463415,8.62682927 C1.3733301,8.08965637 1.30503303,7.53589632 1.31158537,6.9804878 C1.26371935,5.17607101 2.05152087,3.45060342 3.44634146,2.30487805 C4.8695122,1.09756098 6.78109756,0.493902439 9.18109756,0.493902439 C12.5103659,0.493902439 15.2926829,1.3902439 17.5280488,3.18292683 L14.7073171,7.13414634 C13.0692968,5.90247485 11.0872345,5.21364586 9.03841463,5.16402439 C8.50889435,5.12952295 7.98168659,5.25988706 7.52926829,5.53719512 C7.18884922,5.74776992 6.98132987,6.11922957 6.9804878,6.5195122 C6.97915562,6.98989765 7.25114635,7.4182295 7.67743902,7.61707317 C8.57282846,8.01566907 9.51230963,8.30672402 10.4762195,8.48414634 C11.5511592,8.71092768 12.6091618,9.01164247 13.6426829,9.38414634 C14.4748361,9.6896933 15.264238,10.1009938 15.9914634,10.6079268 C16.6603538,11.0587198 17.2010825,11.6750748 17.5609756,12.3969512 C17.9163473,13.1707092 18.0908804,14.0152239 18.0713415,14.8664634 C18.1484617,16.7448466 17.314754,18.545083 15.8323171,19.7012195 C14.3506098,20.8792683 12.3658537,21.4682927 9.87804878,21.4682927 C8.10446984,21.4780892 6.3419422,21.1886636 4.66463415,20.6121951 C3.07493227,20.0763539 1.6097116,19.2252193 0.356707317,18.1097561 Z" id="Shape" fill="#333132"></path>
                <path d="M18.9823171,9.87804878 L18.9823171,5.44390244 L20.8536585,5.44390244 L20.8536585,1.48719512 L26.3414634,1.48719512 L26.3414634,5.44390244 L29.9908537,5.44390244 L29.9908537,9.87804878 L26.3414634,9.87804878 L26.3414634,15.1902439 C26.3017563,15.6218778 26.4338751,16.0517567 26.7091463,16.3865854 C27.0249447,16.6615321 27.4389726,16.7962398 27.8560976,16.7597561 C28.5823053,16.7387799 29.2939522,16.5510103 29.9359756,16.2109756 L29.9359756,20.502439 C28.7543288,21.1281659 27.4311297,21.4381726 26.0945122,21.402439 C24.3786585,21.402439 23.0707317,20.9908537 22.1707317,20.1676829 C21.2707317,19.3445122 20.8317073,18.0402439 20.8536585,16.254878 L20.8536585,9.87804878 L18.9823171,9.87804878 Z" id="Shape" fill="#333132"></path>
                <path d="M31.2804878,16.5567073 C31.2001564,15.1443403 31.8148387,13.7817945 32.9268293,12.9073171 C34.2381207,11.9960308 35.8158412,11.5480122 37.4103659,11.6341463 C38.6948529,11.6146733 39.9727858,11.8208514 41.1859756,12.2432927 L41.1859756,11.9908537 C41.1859756,10.2932927 40.1396341,9.4445122 38.0469512,9.4445122 C36.5672758,9.4531997 35.1030066,9.74568097 33.7335366,10.3060976 L32.6030488,6.43170732 C34.6234189,5.61525577 36.7843685,5.2032024 38.9634146,5.21890244 C41.6670732,5.21890244 43.6573171,5.8554878 44.9341463,7.12865854 C46.0536585,8.22621951 46.6152439,9.88536585 46.6189024,12.1060976 L46.6189024,21.1115854 L41.1585366,21.1115854 L41.1585366,19.4652439 C39.9896809,20.7736392 38.3024554,21.4987444 36.5487805,21.4463415 C35.1656848,21.5034992 33.8111805,21.0415584 32.7512195,20.1512195 C31.7484795,19.2330164 31.2089752,17.9144519 31.2804878,16.5567073 L31.2804878,16.5567073 Z M36.5817073,16.3042683 C36.5623337,16.7835702 36.7647555,17.245092 37.1304878,17.5554878 C37.5250766,17.8747521 38.0227929,18.0387058 38.529878,18.0164634 C39.2538836,18.0471388 39.9611044,17.7930121 40.5,17.3085366 C41.0102631,16.8252837 41.2864347,16.1448609 41.2573171,15.4426829 L41.2573171,14.7073171 C40.5732025,14.4354326 39.8421765,14.3011626 39.1060976,14.3121951 C38.4429845,14.2754386 37.78759,14.4693423 37.2512195,14.8609756 C36.8104872,15.2081387 36.5601288,15.7434579 36.5762195,16.3042683 L36.5817073,16.3042683 Z" id="Shape" fill="#333132"></path>
                <path d="M49.0993902,21.1115854 L49.0993902,5.44390244 L54.5871951,5.44390244 L54.5871951,7.63902439 C55.929878,5.92317073 57.4939024,5.0652439 59.2792683,5.0652439 C60.7456238,4.98644622 62.1737528,5.5492853 63.1920732,6.60731707 C64.1925031,7.78232772 64.7015649,9.29772011 64.6134146,10.8384146 L64.6134146,21.1115854 L59.1256098,21.1115854 L59.1256098,12.6493902 C59.1700677,11.9513231 58.9550889,11.2614365 58.5219512,10.7121951 C58.1164105,10.2533622 57.5258876,10.0014326 56.9140244,10.0262195 C56.2920551,10.0130029 55.6936876,10.2643173 55.2676829,10.7176829 C54.8158674,11.256263 54.5880027,11.9477147 54.6310976,12.6493902 L54.6310976,21.1115854 L49.0993902,21.1115854 Z" id="Shape" fill="#333132"></path>
                <path d="M66.797561,10.9756098 C66.7903614,9.55797072 67.0723253,8.15375308 67.6262195,6.84878049 C68.1528452,5.59426287 68.9253486,4.45789928 69.8981707,3.50670732 C70.901691,2.55523915 72.0818247,1.80949904 73.3719512,1.31158537 C74.7506114,0.742197039 76.2266962,0.445861836 77.7182927,0.43902439 C79.2647202,0.411265669 80.8030804,0.667969066 82.2567073,1.19634146 C83.6001593,1.71769998 84.8411214,2.47193738 85.922561,3.42439024 L82.629878,7.38109756 C81.9463725,6.79160897 81.174053,6.313771 80.3414634,5.9652439 C79.5125181,5.64370109 78.6292651,5.48531184 77.7402439,5.49878049 C76.3370595,5.47436461 74.9920579,6.05879983 74.052439,7.10121951 C73.0557846,8.16300956 72.5175349,9.57468257 72.5542683,11.0304878 C72.4966362,12.5466 73.0479702,14.0227522 74.0853659,15.129878 C75.1134915,16.2044862 76.5501338,16.7911152 78.0365854,16.7432927 C79.1854342,16.7887271 80.3207799,16.4823944 81.2908537,15.8652439 L81.2908537,13.3189024 L77.2628049,13.3189024 L77.2628049,9.25792683 L86.5920732,9.25792683 L86.5920732,18.422561 C84.1256036,20.46475 81.0135168,21.5637056 77.8115854,21.5231707 C75.8491194,21.5518721 73.9103638,21.0917005 72.170122,20.1841463 C70.5268647,19.3235272 69.1579439,18.0192499 68.2189024,16.4195122 C67.2601717,14.7673645 66.7688553,12.8855659 66.797561,10.9756098 L66.797561,10.9756098 Z" id="Shape" fill="#333132"></path>
                <path d="M89.1384146,21.1115854 L89.1384146,0 L94.6262195,0 L94.6262195,7.60609756 C95.9323171,5.9304878 97.5,5.09268293 99.3292683,5.09268293 C100.795624,5.01388524 102.223753,5.57672432 103.242073,6.6347561 C104.242503,7.80976674 104.751565,9.32515914 104.663415,10.8658537 L104.663415,21.1115854 L99.1756098,21.1115854 L99.1756098,12.6493902 C99.2200677,11.9513231 99.0050889,11.2614365 98.5719512,10.7121951 C98.1664105,10.2533622 97.5758876,10.0014326 96.9640244,10.0262195 C96.3420551,10.0130029 95.7436876,10.2643173 95.3176829,10.7176829 C94.8658674,11.256263 94.6380027,11.9477147 94.6810976,12.6493902 L94.6810976,21.1115854 L89.1384146,21.1115854 Z" id="Shape" fill="#333132"></path>
                <path d="M105.985976,13.2914634 C105.979363,12.1940492 106.178534,11.1051209 106.573171,10.0810976 C106.946765,9.11317456 107.506041,8.22765396 108.219512,7.47439024 C108.928155,6.72960903 109.781613,6.13760431 110.727439,5.7347561 C111.734132,5.3016631 112.819995,5.08299523 113.915854,5.09268293 C115.120023,5.07181255 116.315018,5.30557513 117.422561,5.77865854 C118.386801,6.20315029 119.232684,6.8568724 119.886585,7.68292683 C120.529765,8.5018442 121.017114,9.43189858 121.32439,10.4268293 C121.656896,11.4924361 121.821669,12.6032689 121.812805,13.7195122 C121.812805,14.2207317 121.803659,14.597561 121.785366,14.85 L111.287195,14.85 C111.450728,15.6231106 111.877431,16.3155337 112.494512,16.8091463 C113.130414,17.272209 113.903545,17.5080137 114.689634,17.4786585 C116.025388,17.4273654 117.282221,16.8326498 118.168902,15.8323171 L121.209146,18.3731707 C119.576266,20.4585462 117.039705,21.6308374 114.393293,21.5231707 C112.878574,21.550534 111.380945,21.199704 110.035976,20.502439 C108.787696,19.8461005 107.755023,18.8439122 107.061585,17.6158537 C106.324887,16.2956835 105.953592,14.8029279 105.985976,13.2914634 L105.985976,13.2914634 Z M111.204878,11.9908537 L116.64878,11.9908537 C116.590966,11.2203054 116.282591,10.4898429 115.770732,9.91097561 C115.295684,9.4048172 114.626161,9.12701485 113.932317,9.14817073 C113.252477,9.13696441 112.600695,9.41887009 112.143293,9.92195122 C111.629059,10.5012045 111.301946,11.222382 111.204878,11.9908537 L111.204878,11.9908537 Z" id="Shape" fill="#333132"></path>
                <path d="M123.854268,21.1115854 L123.854268,5.44390244 L129.342073,5.44390244 L129.342073,8.59939024 C130.285976,6.32743902 131.846341,5.19146341 134.023171,5.19146341 L134.308537,5.19146341 L134.308537,10.9756098 L133.842073,10.9756098 C130.845732,10.9756098 129.347561,12.7335366 129.347561,16.2493902 L129.347561,21.1115854 L123.854268,21.1115854 Z" id="Shape" fill="#333132"></path>
                <path d="M0,41.3560976 L5.4054878,28.5859756 L8.7804878,28.5859756 L14.175,41.3560976 L10.4268293,41.3560976 L9.49939024,39.095122 L4.59878049,39.095122 L3.69878049,41.3560976 L0,41.3560976 Z M5.6304878,36.3621951 L8.47865854,36.3621951 L7.06280488,32.7567073 L5.6304878,36.3621951 Z M15.0256098,44.2536585 L15.0256098,31.5603659 L18.4664634,31.5603659 L18.4664634,32.8609756 C18.8266636,32.4245768 19.2591769,32.0533208 19.745122,31.7634146 C20.2625207,31.4809902 20.8462492,31.342639 21.4353659,31.3628049 C22.0034622,31.3614642 22.5651122,31.483155 23.0817073,31.7195122 C23.6049779,31.9588053 24.0751581,32.3002457 24.4646341,32.7237805 C24.8880054,33.1931576 25.2110684,33.7440454 25.4140244,34.3426829 C25.8779338,35.7261707 25.8779338,37.2232195 25.4140244,38.6067073 C25.2142473,39.2137999 24.8931068,39.7739287 24.470122,40.2530488 C24.0842843,40.6796522 23.6156162,41.0232177 23.0926829,41.2628049 C22.5762541,41.4996613 22.0144931,41.6213762 21.4463415,41.6195122 C20.8567718,41.6196249 20.2762531,41.4744952 19.7560976,41.1969512 C19.2746459,40.9348634 18.8465351,40.5849294 18.4939024,40.1652439 L18.4939024,44.2591463 L15.0256098,44.2536585 Z M18.3841463,36.4609756 C18.3635625,37.0485957 18.5721462,37.621217 18.9658537,38.0579268 C19.3328428,38.4592394 19.8516136,38.6878173 20.3954268,38.6878173 C20.93924,38.6878173 21.4580109,38.4592394 21.825,38.0579268 C22.2138914,37.6007321 22.4105767,37.010676 22.3737805,36.4115854 C22.3923698,35.8292226 22.1837672,35.2624533 21.7920732,34.8310976 C21.4260706,34.4300574 20.9081906,34.201562 20.3652439,34.201562 C19.8222972,34.201562 19.3044172,34.4300574 18.9384146,34.8310976 C18.5496859,35.2840589 18.3528251,35.8707042 18.3896341,36.4664634 L18.3841463,36.4609756 Z M26.6158537,38.502439 C26.5615888,37.6214101 26.9405296,36.7693054 27.6310976,36.2195122 C28.4511295,35.6493234 29.4380713,35.3692714 30.4353659,35.4237805 C31.2380403,35.4110623 32.0367253,35.5392233 32.795122,35.802439 L32.795122,35.6707317 C32.795122,34.6097561 32.1402439,34.0792683 30.8304878,34.0792683 C29.9054881,34.0882071 28.9907899,34.2745 28.1359756,34.6280488 L27.4390244,32.175 C28.6992001,31.66447 30.0470615,31.4053376 31.4067073,31.4121951 C33.0969512,31.4121951 34.3408537,31.8109756 35.1384146,32.6085366 C35.8408537,33.2926829 36.1920732,34.329878 36.1920732,35.720122 L36.1920732,41.3560976 L32.7896341,41.3560976 L32.7896341,40.3408537 C32.0594259,41.1592847 31.0048945,41.6132354 29.9085366,41.5810976 C29.0436146,41.6176758 28.1962009,41.3299857 27.5323171,40.7743902 C26.894895,40.1986482 26.5519781,39.3655619 26.5993902,38.5079268 L26.6158537,38.502439 Z M29.9085366,38.3432927 C29.8939515,38.6423584 30.0173316,38.9315937 30.2432927,39.1280488 C30.4897901,39.326071 30.7999821,39.4275174 31.1158537,39.4134146 C31.5798853,39.4385945 32.0346076,39.2764762 32.3780488,38.9634146 C32.6971205,38.6604453 32.8692652,38.234087 32.85,37.7945122 L32.85,37.3335366 C32.4224085,37.1636782 31.9655311,37.0797619 31.5054878,37.0865854 C31.0924606,37.0613294 30.6833964,37.1795897 30.347561,37.4213415 C30.0588887,37.6400293 29.8966759,37.9870415 29.9140244,38.3487805 L29.9085366,38.3432927 Z M37.7396341,41.3506098 L37.7396341,31.5603659 L41.1585366,31.5603659 L41.1585366,33.5304878 C41.7512195,32.1109756 42.7262195,31.4012195 44.0835366,31.4012195 L44.2591463,31.4012195 L44.2591463,35.0176829 L43.9682927,35.0176829 C42.095122,35.0176829 41.1585366,36.1152439 41.1585366,38.3103659 L41.1585366,41.3506098 L37.7396341,41.3506098 Z M44.7530488,34.3371951 L44.7530488,31.5603659 L45.9109756,31.5603659 L45.9109756,29.0853659 L49.3518293,29.0853659 L49.3518293,31.5603659 L51.6347561,31.5603659 L51.6347561,34.3371951 L49.3518293,34.3371951 L49.3518293,37.6573171 C49.3255145,37.9303005 49.4083867,38.2025949 49.5823171,38.4146341 C49.7782017,38.5869234 50.035747,38.6721114 50.2957317,38.6506098 C50.7487656,38.6419209 51.1937474,38.5292673 51.5963415,38.3213415 L51.5963415,40.9939024 C50.860566,41.3777826 50.0386956,41.5667184 49.2091463,41.5426829 C48.3230358,41.6042275 47.4465165,41.3277416 46.7560976,40.7689024 C46.1361532,40.1032934 45.8288297,39.2052702 45.9109756,38.2993902 L45.9109756,34.3371951 L44.7530488,34.3371951 Z M52.929878,41.3560976 L52.929878,31.5603659 L56.3707317,31.5603659 L56.3707317,32.9268293 C57.0246742,31.9614813 58.1027955,31.3693314 59.2682927,31.3353659 C59.863926,31.3223189 60.4525153,31.4661542 60.975,31.752439 C61.4510526,32.0315162 61.8331603,32.4461031 62.072561,32.9432927 C62.4800772,32.4531224 62.9773856,32.0452177 63.5378049,31.7414634 C64.0970671,31.4590924 64.716905,31.317792 65.3432927,31.329878 C66.2617306,31.2782666 67.1584201,31.6217646 67.8073171,32.2737805 C68.4379816,33.0075726 68.7570017,33.9587252 68.6963415,34.9243902 L68.6963415,41.3560976 L65.304878,41.3560976 L65.304878,36.0439024 C65.3338308,35.6134916 65.2072454,35.1869964 64.9481707,34.8420732 C64.7034931,34.5609575 64.3436044,34.4072972 63.9713415,34.425 C63.5860095,34.4116695 63.2137676,34.5657696 62.9506098,34.847561 C62.669304,35.1824824 62.5278025,35.6128828 62.5554878,36.0493902 L62.5554878,41.3560976 L59.1146341,41.3560976 L59.1146341,36.0439024 C59.143519,35.6126393 59.0148103,35.1855605 58.752439,34.8420732 C58.5046126,34.5620786 58.1436908,34.408838 57.770122,34.425 C57.3876285,34.4097052 57.017963,34.5644022 56.7603659,34.847561 C56.4859518,35.1857238 56.348818,35.6147567 56.3762195,36.0493902 L56.3762195,41.3560976 L52.929878,41.3560976 Z M69.9420732,36.4664634 C69.9379013,35.7798447 70.0626208,35.0985412 70.3097561,34.4579268 C70.5371341,33.8479773 70.8820748,33.2886141 71.325,32.8115854 C71.7675571,32.3421899 72.3017509,31.9686278 72.8945122,31.7140244 C73.5235936,31.4438622 74.2019721,31.307439 74.8865854,31.3134146 C75.6402905,31.2997107 76.3883705,31.4455863 77.0817073,31.7414634 C77.682512,32.0060264 78.2098878,32.4128592 78.6182927,32.9268293 C79.0190632,33.4345756 79.3240366,34.0110497 79.5182927,34.6280488 C79.7266538,35.2939777 79.8303283,35.9882268 79.8256098,36.6859756 C79.8256098,36.9969512 79.8256098,37.2329268 79.8256098,37.3939024 L73.2402439,37.3939024 C73.3429963,37.8773619 73.6107376,38.3100163 73.997561,38.6176829 C74.393099,38.9071425 74.8741345,39.0558964 75.3640244,39.0402439 C76.2047201,39.0153043 76.9983043,38.6462876 77.5591463,38.0195122 L79.4579268,39.6054878 C78.4370982,40.9188724 76.8450434,41.6586977 75.1829268,41.5920732 C74.2294478,41.6126933 73.2860266,41.3938196 72.4390244,40.9554878 C71.6584077,40.5447701 71.0125587,39.9179727 70.5786585,39.15 C70.1305808,38.3279951 69.907216,37.4023562 69.9310976,36.4664634 L69.9420732,36.4664634 Z M73.1908537,35.6707317 L76.5932927,35.6707317 C76.5585579,35.1885975 76.3656519,34.7314102 76.0445122,34.370122 C75.7467749,34.0528324 75.3269645,33.878911 74.8920732,33.8926829 C74.4745163,33.8918165 74.0759762,34.0671741 73.7945122,34.3756098 C73.4663679,34.7359494 73.2557993,35.1877147 73.1908537,35.6707317 Z M81.0987805,41.372561 L81.0987805,31.5603659 L84.5396341,31.5603659 L84.5396341,32.9268293 C85.2027928,31.9499201 86.2953288,31.351578 87.4756098,31.3189024 C88.3930594,31.2698538 89.2864532,31.6224038 89.9231707,32.2847561 C90.5484159,33.0194574 90.8667792,33.9666864 90.8121951,34.929878 L90.8121951,41.3560976 L87.3713415,41.3560976 L87.3713415,36.0658537 C87.3987984,35.628747 87.2639635,35.1968844 86.9926829,34.8530488 C86.7391854,34.5668042 86.3704632,34.4096439 85.9884146,34.425 C85.5925821,34.4100907 85.2098952,34.5683748 84.9402439,34.8585366 C84.6571219,35.194878 84.5137438,35.6269763 84.5396341,36.0658537 L84.5396341,41.3560976 L81.0987805,41.372561 Z M91.8384146,34.3536585 L91.8384146,31.5603659 L92.9963415,31.5603659 L92.9963415,29.0853659 L96.4371951,29.0853659 L96.4371951,31.5603659 L98.720122,31.5603659 L98.720122,34.3371951 L96.4371951,34.3371951 L96.4371951,37.6573171 C96.4123614,37.9284656 96.4951473,38.1985053 96.6676829,38.4091463 C96.8635676,38.5814356 97.1211129,38.6666236 97.3810976,38.645122 C97.8341314,38.6364331 98.2791132,38.5237795 98.6817073,38.3158537 L98.6817073,40.9939024 C97.9459318,41.3777826 97.1240614,41.5667184 96.2945122,41.5426829 C95.4105593,41.6088453 94.5342808,41.3383163 93.8414634,40.7853659 C93.2215191,40.1197568 92.9141956,39.2217336 92.9963415,38.3158537 L92.9963415,34.3371951 L91.8384146,34.3536585 Z M99.2743902,40.0609756 L100.564024,37.9756098 C101.556523,38.6614317 102.727516,39.0428626 103.933537,39.0731707 C104.511585,39.0731707 104.80061,38.8902439 104.80061,38.5243902 C104.80061,38.352439 104.683537,38.2097561 104.44939,38.0963415 C104.054917,37.9325849 103.647387,37.8022488 103.231098,37.7067073 C102.795732,37.5932927 102.429878,37.4835366 102.133537,37.377439 C101.809632,37.2670891 101.495696,37.129398 101.195122,36.9658537 C100.914225,36.8231127 100.656949,36.6380226 100.432317,36.4170732 C100.228693,36.1966222 100.068566,35.9396743 99.9603659,35.6597561 C99.8322192,35.3349304 99.7688345,34.9881788 99.7737805,34.6390244 C99.7300418,33.701369 100.138124,32.7995064 100.871341,32.2134146 C101.687808,31.6039241 102.690843,31.2973872 103.708537,31.3463415 C104.433226,31.3478951 105.153959,31.4532328 105.84878,31.6591463 C106.521762,31.8508978 107.161912,32.1432208 107.747561,32.5262195 L106.573171,34.7213415 C106.082969,34.4580778 105.568359,34.243044 105.036585,34.0792683 C104.596764,33.9350546 104.138308,33.8555643 103.67561,33.8432927 C103.469595,33.830592 103.264173,33.8762412 103.082927,33.975 C102.953971,34.049387 102.876056,34.188372 102.879878,34.3371951 C102.879878,34.5091463 102.996951,34.6518293 103.231098,34.7652439 C103.633624,34.937712 104.048126,35.0807699 104.471341,35.1932927 C104.906707,35.3140244 105.272561,35.4292683 105.568902,35.5390244 C105.892127,35.6554907 106.205866,35.7967651 106.507317,35.9615854 C106.788351,36.1041013 107.045659,36.2892151 107.270122,36.5103659 C107.471978,36.728021 107.63197,36.9810315 107.742073,37.2567073 C107.870155,37.57197 107.933605,37.9097486 107.928659,38.25 C107.977672,39.1995583 107.569758,40.1153231 106.831098,40.7140244 C105.985527,41.3275249 104.954765,41.6317161 103.911585,41.5756098 C102.241356,41.5943781 100.611518,41.0620289 99.2743902,40.0609756 Z" id="Shape" fill="url(#linearGradient-1)"></path>
            </g>
        </g>
    </g>
</svg>