<?xml version="1.0" encoding="UTF-8"?>
<svg width="64px" height="60px" viewBox="0 0 64 60" version="1.1" xmlns="http://www.w3.org/2000/svg" xmlns:xlink="http://www.w3.org/1999/xlink">
    <!-- Generator: Sketch 47.1 (45422) - http://www.bohemiancoding.com/sketch -->
    <title>swimming-pool</title>
    <desc>Created with Sketch.</desc>
    <defs></defs>
    <g id="Page-1" stroke="none" stroke-width="1" fill="none" fill-rule="evenodd">
        <g id="2-5-pattaya-guest-houses" transform="translate(-1131.000000, -1312.000000)" fill-rule="nonzero">
            <g id="swimming-pool" transform="translate(1131.000000, 1312.000000)">
                <path d="M64,20.625 L64,38.2125 L60.9625,40.424875 C60.887375,40.387375 60.849875,40.387375 60.812625,40.3125 C60.4375,39.974875 59.9875,39.7875 59.425125,39.825 C58.900125,39.8625 58.4125,40.0875 58.075,40.5375 C57.062625,41.849875 55.4875,42.6375 53.800125,42.675 L53.6875,42.675 C52.0375,42.675 50.500125,42 49.45,40.724875 C49.4125,40.687375 49.374875,40.61225 49.300125,40.575 C49.300125,40.5375 49.300125,40.5375 49.300125,40.5375 C48.925,40.0875 48.362625,39.900125 47.8,39.825 C47.237625,39.825 46.750125,40.0875 46.4125,40.5 C44.8,42.5625 41.7875,43.0875 39.5,42.1125 C38.712375,41.775125 37.999875,41.250125 37.4375,40.537625 C37.062375,40.087625 36.574875,39.825125 35.975,39.825125 C35.412375,39.825125 34.887625,40.087625 34.5125,40.537625 C32.787625,42.75 29.675125,43.350125 27.275,41.887625 C26.637625,41.5875 26.075,40.987625 25.737625,40.537625 C25.3625,40.087625 24.875,39.90025 24.2375,39.825125 C23.675125,39.825125 23.187625,40.087625 22.85,40.500125 C20.674875,43.275125 16.012625,43.275125 13.875,40.537625 C13.499875,40.087625 13.049875,39.825125 12.4125,39.825125 C11.849875,39.825125 11.325125,40.087625 10.95,40.537625 C9.412625,42.525 6.637625,43.05 4.3875,42.150125 L0,35.512375 L0,20.625 C0,19.574875 0.824875,18.75 1.875,18.75 L62.125,18.75 C63.175125,18.75 64,19.574875 64,20.625 Z" id="Shape" fill="#DCDCDC"></path>
                <path d="M64,20.625 L64,38.2125 L60.9625,40.424875 C60.887375,40.387375 60.849875,40.387375 60.812625,40.3125 C60.4375,39.974875 59.9875,39.7875 59.425125,39.825 C58.900125,39.8625 58.4125,40.0875 58.075,40.5375 C57.062625,41.849875 55.4875,42.6375 53.800125,42.675 L53.6875,42.675 C52.0375,42.675 50.500125,42 49.45,40.724875 C49.4125,40.687375 49.374875,40.61225 49.300125,40.575 C49.300125,40.5375 49.300125,40.5375 49.300125,40.5375 C48.925,40.0875 48.362625,39.900125 47.8,39.825 C47.237625,39.825 46.750125,40.0875 46.4125,40.5 C44.8,42.5625 41.7875,43.0875 39.5,42.1125 L39.5,18.75 L62.125,18.75 C63.175125,18.75 64,19.574875 64,20.625 Z" id="Shape" fill="#DFD7D5"></path>
                <path d="M39.800125,7.387375 C39.6875,7.424875 39.612625,7.4625 39.5,7.424875 L39.5,2.5875 C40.137375,3.2625 40.625,4.087375 40.9625,4.987375 C41.299875,5.962375 40.775125,7.05 39.800125,7.387375 Z" id="Shape" fill="#53433F"></path>
                <path d="M63.55,5.024875 C62.5375,2.024875 59.687375,0 56.5,0 C52.375125,0 49,3.374875 49,7.5 L49,11.25 L30.125,11.25 L30.125,7.5 C30.125,5.4375 31.8125,3.75 33.875,3.75 C35.449875,3.75 36.875,4.762375 37.4,6.262375 C37.737625,7.12475 38.637625,7.612375 39.5,7.424875 C39.612625,7.462375 39.6875,7.424875 39.800125,7.387375 C40.775125,7.05 41.3,5.962375 40.962625,4.987375 C40.625,4.087375 40.137375,3.2625 39.5,2.5875 C38.1125,0.975 36.087625,0 33.875,0 C29.750125,0 26.375,3.374875 26.375,7.5 L26.375,40.3125 C26.375,41.324875 27.199875,42.1875 28.25,42.1875 C29.300125,42.1875 30.125,41.324875 30.125,40.3125 L30.125,30 L49,30 L49,39.487375 C49,40.5375 49.824875,41.362375 50.875,41.362375 C51.925125,41.362375 52.75,40.5375 52.75,39.487375 C52.75,12.974875 52.75,19.4625 52.75,7.5 C52.75,5.4375 54.4375,3.75 56.5,3.75 C58.074875,3.75 59.5,4.762375 60.025,6.224875 C60.362625,7.199875 61.4125,7.725 62.3875,7.387375 C63.362625,7.05 63.887375,5.999875 63.55,5.024875 Z M49,26.25 L30.125,26.25 L30.125,22.5 L49,22.5 L49,26.25 Z M49,18.75 L30.125,18.75 L30.125,15 L49,15 L49,18.75 Z" id="Shape" fill="#68544F"></path>
                <path d="M62.3875,7.387375 C61.4125,7.725 60.362625,7.199875 60.025,6.224875 C59.5,4.762375 58.074875,3.75 56.5,3.75 C54.4375,3.75 52.75,5.4375 52.75,7.5 C52.75,19.4625 52.75,12.974875 52.75,39.487375 C52.75,40.5375 51.925125,41.362375 50.875,41.362375 C49.824875,41.362375 49,40.5375 49,39.487375 L49,30 L39.5,30 L39.5,26.25 L49,26.25 L49,22.5 L39.5,22.5 L39.5,18.75 L49,18.75 L49,15 L39.5,15 L39.5,11.25 L49,11.25 L49,7.5 C49,3.374875 52.375125,0 56.5,0 C59.687375,0 62.5375,2.024875 63.55,5.024875 C63.887375,5.999875 63.362625,7.05 62.3875,7.387375 Z" id="Shape" fill="#53433F"></path>
                <path d="M64,38.2125 L64,47.5875 L60.550125,49.537375 C60.25,49.312375 59.875125,49.2 59.425125,49.2 C58.900125,49.2375 58.4125,49.4625 58.075,49.9125 C57.025125,51.2625 55.412625,52.05 53.687625,52.05 C51.962625,52.05 50.350125,51.262375 49.30025,49.9125 C48.40025,48.7875 47.012625,49.087375 46.412625,49.875 C44.800125,51.9375 41.787625,52.4625 39.500125,51.4875 C38.7125,51.150125 38,50.625125 37.437625,49.912625 C36.537625,48.750125 35.150125,49.125 34.5125,49.912625 C32.375,52.65 27.875125,52.65 25.737625,49.912625 C24.837625,48.787625 23.45,49.0875 22.85,49.875125 C20.674875,52.650125 16.012625,52.650125 13.875,49.912625 C12.975,48.750125 11.5875,49.125 10.949875,49.912625 C9.299875,52.012625 6.224875,52.500125 3.937375,51.337625 L0,44.887375 L0,35.512375 L2.474875,36.375 C3.4875,36.712375 4.387375,37.3125 5.099875,38.2125 C5.8875,39.1875 7.275,39.15 8.025,38.2125 C10.274875,35.324875 14.625,35.3625 16.837375,38.25 C17.512375,39.112375 19.05,39.112375 19.7625,38.2125 C21.9,35.4 26.374875,35.287375 28.662375,38.2125 C29.374875,39.074875 30.762375,39.224875 31.5875,38.2125 C33.574875,35.6625 37.175,35.4 39.5,37.3125 C39.837625,37.57475 40.137375,37.912375 40.4,38.25 C41.075,39.112375 42.612625,39.112375 43.325125,38.2125 C45.462625,35.4 49.9375,35.287375 52.225,38.2125 C52.300125,38.287375 52.375125,38.362375 52.45,38.4375 C53.1625,39.15 54.437625,39.1125 55.150125,38.2125 C57.175,35.625 61.037625,35.287375 63.4375,37.6875 L64,38.2125 Z" id="Shape" fill="#00C0F1"></path>
                <path d="M64,38.2125 L64,47.5875 L60.550125,49.537375 C60.25,49.312375 59.875125,49.2 59.425125,49.2 C58.900125,49.2375 58.4125,49.4625 58.075,49.9125 C57.025125,51.2625 55.412625,52.05 53.687625,52.05 C51.962625,52.05 50.350125,51.262375 49.30025,49.9125 C48.40025,48.7875 47.012625,49.087375 46.412625,49.875 C44.800125,51.9375 41.787625,52.4625 39.500125,51.4875 L39.500125,37.3125 C39.83775,37.57475 40.1375,37.912375 40.400125,38.25 C41.075125,39.112375 42.61275,39.112375 43.32525,38.2125 C45.46275,35.4 49.937625,35.287375 52.225125,38.2125 C52.30025,38.287375 52.37525,38.362375 52.450125,38.4375 C53.162625,39.15 54.43775,39.1125 55.15025,38.2125 C57.175125,35.625 61.03775,35.287375 63.437625,37.6875 L64,38.2125 Z" id="Shape" fill="#00ABE9"></path>
                <path d="M63.437375,47.0625 C62.35,45.9375 60.8125,45.337375 59.199875,45.45 C57.625,45.562375 56.125125,46.312375 55.15,47.5875 C54.6625,48.224875 54.025,48.3 53.6875,48.3 C53.35,48.3 52.7125,48.224875 52.225,47.5875 C51.175125,46.237375 49.562625,45.45 47.837625,45.45 C47.800125,45.45 47.800125,45.45 47.800125,45.45 C46.075,45.45 44.337625,46.237375 43.32525,47.5875 C42.61275,48.4875 41.075125,48.4875 40.400125,47.625 C40.137625,47.287375 39.83775,46.94975 39.500125,46.6875 C38.525125,45.899875 37.325,45.449875 36.012625,45.449875 C36.012625,45.449875 36.012625,45.449875 35.975125,45.449875 C34.25,45.449875 32.637625,46.23725 31.58775,47.587375 C31.10025,48.22475 30.46275,48.299875 30.12525,48.299875 C29.78775,48.299875 29.15025,48.22475 28.66275,47.587375 C27.612875,46.23725 26.000375,45.449875 24.275375,45.449875 C24.237875,45.449875 24.237875,45.449875 24.237875,45.449875 C22.51275,45.449875 20.775375,46.23725 19.763,47.587375 C19.0505,48.487375 17.512875,48.487375 16.837875,47.624875 C15.787625,46.237375 14.175125,45.45 12.45,45.45 C12.45,45.45 12.45,45.45 12.4125,45.45 C10.687375,45.45 9.075,46.237375 8.025125,47.5875 C7.537625,48.224875 6.900125,48.3 6.562625,48.3 C6.225125,48.3 5.587625,48.224875 5.100125,47.5875 C4.387625,46.6875 3.487625,46.087375 2.475125,45.75 L0,44.887375 L0,58.125 C0,59.174875 0.824875,60 1.875,60 L62.125,60 C63.175125,60 64,59.174875 64,58.125 L64,47.5875 L63.437375,47.0625 Z" id="Shape" fill="#25D9F8"></path>
                <path d="M64,47.5875 L64,58.125 C64,59.174875 63.175125,60 62.125,60 L39.5,60 L39.5,46.6875 C39.837625,46.94975 40.137375,47.287375 40.4,47.625 C41.075,48.487375 42.612625,48.487375 43.325125,47.5875 C44.3375,46.237375 46.075,45.45 47.8,45.45 C47.8,45.45 47.8,45.45 47.8375,45.45 C49.562625,45.45 51.175,46.237375 52.224875,47.5875 C52.712375,48.224875 53.349875,48.3 53.687375,48.3 C54.024875,48.3 54.662375,48.224875 55.149875,47.5875 C56.124875,46.312375 57.62475,45.562375 59.19975,45.45 C60.8125,45.337375 62.349875,45.9375 63.43725,47.0625 L64,47.5875 Z" id="Shape" fill="#00C0F1"></path>
            </g>
        </g>
    </g>
</svg>