<?xml version="1.0" encoding="UTF-8"?>
<svg width="22px" height="13px" viewBox="0 0 22 13" version="1.1" xmlns="http://www.w3.org/2000/svg" xmlns:xlink="http://www.w3.org/1999/xlink">
    <!-- Generator: Sketch 47.1 (45422) - http://www.bohemiancoding.com/sketch -->
    <title>swimming</title>
    <desc>Created with Sketch.</desc>
    <defs></defs>
    <g id="Page-1" stroke="none" stroke-width="1" fill="none" fill-rule="evenodd">
        <g id="2-5-pattaya-guest-houses" transform="translate(-1152.000000, -2125.000000)" fill-rule="nonzero" fill="#B8B8B8">
            <g id="Group-18" transform="translate(1152.000000, 2122.000000)">
                <g id="swimming" transform="translate(0.000000, 3.000000)">
                    <path d="M19.5196559,10.3317258 C19.2904747,10.5900792 18.9568652,10.7388908 18.6057343,10.7388908 C18.256706,10.7388908 17.9223957,10.5907682 17.6939153,10.3317258 C16.9699267,9.51601791 15.9116279,9 14.7194648,9 C13.5378146,9 12.4879261,9.50499483 11.7646384,10.3069239 C11.5347563,10.5618326 11.2060529,10.7071994 10.8591271,10.7071994 C10.5129022,10.7071994 10.1827971,10.5625215 9.95221408,10.3076128 C9.22752469,9.50568378 8.18043963,9 6.99808856,9 C5.81713922,9 4.76725072,9.50499483 4.04466391,10.3076128 C3.81338006,10.5625215 3.48467665,10.7071994 3.13705002,10.7071994 L3.13705002,10.7071994 C2.79222682,10.7071994 2.46071997,10.5625215 2.23153871,10.3083018 C1.66033769,9.67447468 0.882382924,9.23768515 0,9.07647261 L0,11.4285222 C0.18923224,11.5208405 0.363746416,11.6455391 0.510226187,11.8088185 C1.17674419,12.5459869 2.13341829,12.9689976 3.13775088,12.9689976 C4.14138261,12.9689976 5.09945843,12.5466759 5.76387385,11.8074406 C6.08346607,11.454702 6.52290538,11.2604203 6.99878942,11.2604203 C7.47607518,11.2604203 7.91481363,11.454702 8.23230328,11.8081295 C8.89812042,12.5459869 9.85549538,12.9696865 10.859828,12.9696865 C11.8627588,12.9696865 12.8208347,12.5459869 13.4852501,11.8081295 C13.8041414,11.454702 14.2435808,11.2604203 14.7208665,11.2604203 C15.369863,11.2604203 15.7770628,11.610403 15.9620898,11.8177747 C16.627907,12.568722 17.5915897,13 18.6099395,13 C19.624785,12.9986221 20.5891685,12.5680331 21.2535839,11.8177747 C21.3853457,11.6696521 21.6355527,11.4533241 22,11.3396486 L22,9.05304857 C21.0131889,9.17568033 20.1413189,9.63244919 19.5196559,10.3317258 Z" id="Shape"></path>
                    <circle id="Oval" cx="17" cy="6" r="3"></circle>
                    <path d="M10.3005222,10.8565768 C10.4631513,11.0472148 10.780278,11.0486375 10.9435847,10.8558654 C11.6449227,10.027159 12.59427,9.49081167 13.6195109,9.31368901 C13.6899835,8.87479471 13.6682997,8.41242632 13.5178678,7.96357332 C13.4385861,7.72812111 12.5664875,4.65301566 12.5664875,4.65301566 C12.5651323,4.64661363 12.4607786,4.01281327 12.8314374,3.44303315 C13.1987082,2.87894372 13.9678082,2.49197694 15.0520022,2.32125631 C15.6591508,2.22593729 16.0779207,1.63268308 15.9877971,0.995326039 C15.8990287,0.357968999 15.3379584,-0.0823479744 14.7233559,0.0129710472 C12.9872903,0.284701392 11.7316582,0.995326039 10.9957615,2.12421624 C10.0796176,3.52910481 10.3615081,5.00441563 10.402843,5.19007433 L10.6386552,6.19305806 C10.4949995,6.21937749 10.3499885,6.24996494 10.2090433,6.3026038 L5.72319078,7.96499599 C4.71760088,8.33773605 4.07115023,9.29377161 4,10.3415695 C4.80975737,9.6416149 5.82957731,9.24397809 6.8920874,9.24397809 C8.19244253,9.24255542 9.43519986,9.83154161 10.3005222,10.8565768 Z" id="Shape"></path>
                </g>
            </g>
        </g>
    </g>
</svg>