<?xml version="1.0" encoding="UTF-8"?>
<svg width="300px" height="300px" viewBox="0 0 300 300" version="1.1" xmlns="http://www.w3.org/2000/svg" xmlns:xlink="http://www.w3.org/1999/xlink">
    <!-- Generator: Sketch 47.1 (45422) - http://www.bohemiancoding.com/sketch -->
    <title>travel-explore</title>
    <desc>Created with Sketch.</desc>
    <defs>
        <circle id="path-1" cx="150" cy="150" r="150"></circle>
        <filter x="-5.2%" y="-5.2%" width="110.3%" height="110.3%" filterUnits="objectBoundingBox" id="filter-2">
            <feGaussianBlur stdDeviation="15" in="SourceAlpha" result="shadowBlurInner1"></feGaussianBlur>
            <feOffset dx="0" dy="1" in="shadowBlurInner1" result="shadowOffsetInner1"></feOffset>
            <feComposite in="shadowOffsetInner1" in2="SourceAlpha" operator="arithmetic" k2="-1" k3="1" result="shadowInnerInner1"></feComposite>
            <feColorMatrix values="0 0 0 0 0   0 0 0 0 0   0 0 0 0 0  0 0 0 0.1 0" type="matrix" in="shadowInnerInner1"></feColorMatrix>
        </filter>
    </defs>
    <g id="Page-1" stroke="none" stroke-width="1" fill="none" fill-rule="evenodd">
        <g id="1-1-home" transform="translate(-217.000000, -2563.000000)">
            <g id="travel-explore" transform="translate(217.000000, 2563.000000)">
                <g id="Oval-4-Copy-21">
                    <use fill="#F8F8F8" fill-rule="evenodd" xlink:href="#path-1"></use>
                    <use fill="black" fill-opacity="1" filter="url(#filter-2)" xlink:href="#path-1"></use>
                </g>
                <ellipse id="Oval-8" fill="#E5E5E5" cx="156" cy="214" rx="113" ry="8"></ellipse>
                <g id="compass" transform="translate(42.000000, 88.000000)" fill-rule="nonzero">
                    <path d="M104,52 C104,80.7185479 80.7185479,104 52,104 C23.2814521,104 0,80.7185479 0,52 C0,23.2814521 23.2814521,0 52,0 C80.7185479,0 104,23.2814521 104,52 Z" id="Shape" fill="#898890"></path>
                    <path d="M95,51.9963717 C95.0008747,72.5188814 80.4976867,90.1817115 60.3678317,94.1742407 C40.237102,98.1667698 20.0906259,87.3762686 12.2586069,68.4073811 C4.42658783,49.4376189 11.0925082,27.5775595 28.1763349,16.2053248 C45.2592868,4.83396487 67.9986485,7.11978399 82.4764676,21.6648722 C90.4956924,29.7234127 94.9982505,40.6285109 95,51.9963717 Z" id="Shape" fill="#FBFBFB"></path>
                    <path d="M82.4668753,22 C85.7076603,43.4642111 77.397955,64.5232538 60.9561097,76.1098321 C46.0161342,86.6371469 29.6888755,85.6008339 23,84.636904 C40.2352035,100.535568 66.8944875,99.6449037 83.0494292,82.6304823 C99.2043712,65.6160609 98.9489571,38.6992905 82.4747476,22 L82.4668753,22 Z" id="Shape" fill="#F1F2F2"></path>
                    <polygon id="Shape" fill="#FF3051" points="58.726166 59 77 27 45 45.273834"></polygon>
                    <polygon id="Shape" fill="#006DF0" points="27 77 59 58.726166 45.273834 45"></polygon>
                    <g id="Group" transform="translate(14.000000, 14.000000)" fill="#1A6FB0">
                        <path d="M9.04761905,36.1904762 L1.80952381,36.1904762 C0.810221298,36.1904762 0,37.0006975 0,38 C0,38.9993025 0.810221298,39.8095238 1.80952381,39.8095238 L9.04761905,39.8095238 C10.0469216,39.8095238 10.8571429,38.9993025 10.8571429,38 C10.8571429,37.0006975 10.0469216,36.1904762 9.04761905,36.1904762 Z" id="Shape"></path>
                        <path d="M74.1904762,36.1904762 L66.952381,36.1904762 C65.9530784,36.1904762 65.1428571,37.0006975 65.1428571,38 C65.1428571,38.9993025 65.9530784,39.8095238 66.952381,39.8095238 L74.1904762,39.8095238 C75.1897787,39.8095238 76,38.9993025 76,38 C76,37.0006975 75.1897787,36.1904762 74.1904762,36.1904762 Z" id="Shape"></path>
                        <path d="M38,10.8571429 C38.9993025,10.8571429 39.8095238,10.0469216 39.8095238,9.04761905 L39.8095238,1.80952381 C39.8095238,0.810221298 38.9993025,0 38,0 C37.0006975,0 36.1904762,0.810221298 36.1904762,1.80952381 L36.1904762,9.04761905 C36.1904762,10.0469216 37.0006975,10.8571429 38,10.8571429 Z" id="Shape"></path>
                        <path d="M38,65.1428571 C37.0006975,65.1428571 36.1904762,65.9530784 36.1904762,66.952381 L36.1904762,74.1904762 C36.1904762,75.1897787 37.0006975,76 38,76 C38.9993025,76 39.8095238,75.1897787 39.8095238,74.1904762 L39.8095238,66.952381 C39.8095238,65.9530784 38.9993025,65.1428571 38,65.1428571 Z" id="Shape"></path>
                    </g>
                </g>
                <g id="suitcase" transform="translate(126.000000, 83.000000)" fill-rule="nonzero">
                    <g id="Group" transform="translate(22.343750, 6.601562)" fill="#75462E">
                        <rect id="Rectangle-path" x="0.070078125" y="0.122636719" width="4.48271484" height="24.6550586"></rect>
                        <rect id="Rectangle-path" x="18.0011914" y="0.122636719" width="4.48271484" height="24.6550586"></rect>
                    </g>
                    <g id="Group" transform="translate(22.343750, 6.601562)" fill="#5E3825">
                        <rect id="Rectangle-path" x="0.070078125" y="0.122636719" width="4.48271484" height="6.72419922"></rect>
                        <rect id="Rectangle-path" x="18.0011914" y="0.122636719" width="4.48271484" height="6.72419922"></rect>
                    </g>
                    <g id="Group" fill="#4398D1">
                        <path d="M20.1723437,0 L47.0688867,0 C49.5454883,0 51.5516016,2.00611328 51.5516016,4.48271484 L51.5516016,4.48271484 C51.5516016,6.95931641 49.5454883,8.96542969 47.0688867,8.96542969 L20.1723437,8.96542969 C17.6957422,8.96542969 15.6896289,6.95931641 15.6896289,4.48271484 L15.6896289,4.48271484 C15.6896289,2.00611328 17.6957422,0 20.1723437,0 Z" id="Shape"></path>
                        <path d="M8.96542969,29.1380273 L58.2758008,29.1380273 C63.2269727,29.1380273 67.2412305,33.1522852 67.2412305,38.103457 L67.2412305,109.827656 C67.2412305,114.778828 63.2269727,118.793086 58.2758008,118.793086 L8.96542969,118.793086 C4.01425781,118.793086 0,114.778828 0,109.827656 L0,38.103457 C0,33.1522852 4.01425781,29.1380273 8.96542969,29.1380273 Z" id="Shape"></path>
                    </g>
                    <g id="Group" transform="translate(0.000000, 29.453125)" fill="#3E8CC7">
                        <path d="M60.58,0.0210742187 C51.0295703,49.7884766 18.6214844,71.4515039 0,79.9642187 L0,80.3742773 C0,85.3254492 4.01425781,89.339707 8.96542969,89.339707 L58.2758008,89.339707 C63.2269727,89.339707 67.2412305,85.3254492 67.2412305,80.3742773 L67.2412305,8.65033203 C67.2346289,4.59570312 64.5000586,1.05421875 60.58,0.0210742187 Z" id="Shape"></path>
                        <circle id="Oval" cx="7.84494141" cy="94.943418" r="5.60345703"></circle>
                    </g>
                    <g id="Group" transform="translate(11.171875, 40.117188)" fill="#126099">
                        <rect id="Rectangle-path" x="13.4831836" y="0.227753906" width="4.48271484" height="65"></rect>
                        <rect id="Rectangle-path" x="0.0350390625" y="0.227753906" width="4.48271484" height="65"></rect>
                        <rect id="Rectangle-path" x="26.931582" y="0.227753906" width="4.48271484" height="65"></rect>
                        <rect id="Rectangle-path" x="40.3797266" y="0.227753906" width="4.48271484" height="65"></rect>
                    </g>
                    <circle id="Oval" fill="#3E8CC7" cx="59.396543" cy="124.396543" r="5.60345703"></circle>
                    <path d="M130,65 L130,109.827656 C130,114.778828 125.985742,118.793086 121.03457,118.793086 L42.5861719,118.793086 C37.635,118.793086 33.6207422,114.778828 33.6207422,109.827656 L33.6207422,65 C33.6207422,60.0488281 37.635,56.0345703 42.5861719,56.0345703 L121.03457,56.0345703 C125.985742,56.0345703 130,60.0488281 130,65 Z" id="Shape" fill="#DE4C3C"></path>
                    <path d="M100.861973,56.0345703 L100.861973,47.0691406 C100.861973,42.1179687 96.8477148,38.1037109 91.896543,38.1037109 L71.7241992,38.1037109 C66.7730273,38.1037109 62.7587695,42.1179687 62.7587695,47.0691406 L62.7587695,56.0345703 L71.7241992,56.0345703 L71.7241992,47.0691406 L91.896543,47.0691406 L91.896543,56.0345703 L100.861973,56.0345703 Z" id="Shape" fill="#75462E"></path>
                    <g id="Group" transform="translate(35.800781, 118.574219)" fill="#DE4C3C">
                        <circle id="Oval" cx="5.66464844" cy="5.82232422" r="5.60345703"></circle>
                        <circle id="Oval" cx="86.3542773" cy="5.82232422" r="5.60345703"></circle>
                    </g>
                    <polygon id="Shape" fill="#87CED9" points="20.1723437 60.5172852 0 69.4827148 0 56.0345703 15.6896289 49.3103711"></polygon>
                    <path d="M126.357715,57.8276562 C110.186172,90.0138281 64.9730859,110.329629 42.3619727,118.770742 C42.4381445,118.770742 42.51,118.793086 42.5861719,118.793086 L121.03457,118.793086 C125.985742,118.793086 130,114.778828 130,109.827656 L130,65 C129.993398,62.1669141 128.641602,59.5041992 126.357715,57.8276562 Z" id="Shape" fill="#CF4737"></path>
                    <polygon id="Shape" fill="#3E8CC7" points="67.2414844 80.6896289 78.4483984 65 89.6550586 80.6896289"></polygon>
                    <g id="Group" transform="translate(44.687500, 55.859375)" fill="#75462E">
                        <rect id="Rectangle-path" x="0.14015625" y="0.175195312" width="8.96542969" height="62.7585156"></rect>
                        <rect id="Rectangle-path" x="65.1401563" y="0.175195312" width="8.96542969" height="62.7585156"></rect>
                    </g>
                    <ellipse id="Oval" fill="#87CED9" transform="translate(109.959971, 96.663512) rotate(-161.874873) translate(-109.959971, -96.663512) " cx="109.959971" cy="96.6635124" rx="11.2028406" ry="8.9613076"></ellipse>
                    <polygon id="Shape" fill="#FDB62F" points="33.6207422 76.2069141 33.6207422 87.4138281 56.0345703 100.861973 60.5172852 91.896543"></polygon>
                    <path d="M117.170371,90.5135156 C113.026113,95.3773437 107.911172,99.32 102.153086,102.090117 C103.594258,103.477461 105.33123,104.522031 107.234258,105.142832 C113.117773,107.068203 119.133828,104.815547 120.682656,100.108633 C121.61043,96.4914844 120.214199,92.676543 117.170371,90.5135156 Z" id="Shape" fill="#71C4D1"></path>
                </g>
            </g>
        </g>
    </g>
</svg>