<?xml version="1.0" encoding="UTF-8"?>
<svg width="69px" height="78px" viewBox="0 0 69 78" version="1.1" xmlns="http://www.w3.org/2000/svg" xmlns:xlink="http://www.w3.org/1999/xlink">
    <!-- Generator: Sketch 47.1 (45422) - http://www.bohemiancoding.com/sketch -->
    <title>tropic-yard</title>
    <desc>Created with Sketch.</desc>
    <defs>
        <linearGradient x1="65.535266%" y1="52.3116238%" x2="97.5905668%" y2="54.3070011%" id="linearGradient-1">
            <stop stop-color="#D14F4B" offset="0%"></stop>
            <stop stop-color="#AD3324" offset="100%"></stop>
        </linearGradient>
        <linearGradient x1="48.0201982%" y1="16.7345756%" x2="56.2241942%" y2="154.605303%" id="linearGradient-2">
            <stop stop-color="#AD3324" stop-opacity="0" offset="0%"></stop>
            <stop stop-color="#972E07" offset="100%"></stop>
        </linearGradient>
        <linearGradient x1="47.2614256%" y1="16.7981811%" x2="58.499085%" y2="153.136924%" id="linearGradient-3">
            <stop stop-color="#AD3324" stop-opacity="0" offset="0%"></stop>
            <stop stop-color="#972E07" offset="100%"></stop>
        </linearGradient>
        <linearGradient x1="45.8613412%" y1="16.7251825%" x2="62.0190541%" y2="152.676539%" id="linearGradient-4">
            <stop stop-color="#AD3324" stop-opacity="0" offset="0%"></stop>
            <stop stop-color="#972E07" offset="100%"></stop>
        </linearGradient>
        <linearGradient x1="37.1284793%" y1="16.5553256%" x2="59.7493707%" y2="152.475876%" id="linearGradient-5">
            <stop stop-color="#AD3324" stop-opacity="0" offset="0%"></stop>
            <stop stop-color="#972E07" offset="100%"></stop>
        </linearGradient>
        <linearGradient x1="43.8461632%" y1="15.9566265%" x2="68.4204098%" y2="151.950451%" id="linearGradient-6">
            <stop stop-color="#AD3324" stop-opacity="0" offset="0%"></stop>
            <stop stop-color="#972E07" offset="100%"></stop>
        </linearGradient>
        <linearGradient x1="45.2657877%" y1="15.4868307%" x2="64.2064999%" y2="153.365266%" id="linearGradient-7">
            <stop stop-color="#AD3324" stop-opacity="0" offset="0%"></stop>
            <stop stop-color="#972E07" offset="100%"></stop>
        </linearGradient>
        <linearGradient x1="38.8474044%" y1="13.6265666%" x2="48.5561642%" y2="50.1528548%" id="linearGradient-8">
            <stop stop-color="#00A899" offset="0%"></stop>
            <stop stop-color="#008B7A" offset="100%"></stop>
        </linearGradient>
        <linearGradient x1="37.9261988%" y1="7.22039495%" x2="45.1304499%" y2="38.5528633%" id="linearGradient-9">
            <stop stop-color="#00A899" offset="0%"></stop>
            <stop stop-color="#008B7A" offset="100%"></stop>
        </linearGradient>
        <linearGradient x1="56.3784294%" y1="23.1484348%" x2="49.4850297%" y2="94.4417227%" id="linearGradient-10">
            <stop stop-color="#00A899" offset="0%"></stop>
            <stop stop-color="#008B7A" offset="100%"></stop>
        </linearGradient>
        <linearGradient x1="49.999697%" y1="17.2328276%" x2="49.999697%" y2="78.7639959%" id="linearGradient-11">
            <stop stop-color="#00A899" offset="0%"></stop>
            <stop stop-color="#008B7A" offset="100%"></stop>
        </linearGradient>
        <linearGradient x1="58.756642%" y1="46.9796333%" x2="111.213914%" y2="76.1599504%" id="linearGradient-12">
            <stop stop-color="#00A899" offset="0%"></stop>
            <stop stop-color="#008B7A" offset="100%"></stop>
        </linearGradient>
        <linearGradient x1="64.9793357%" y1="-27.5525667%" x2="51.3616755%" y2="81.6160172%" id="linearGradient-13">
            <stop stop-color="#00A899" stop-opacity="0" offset="0%"></stop>
            <stop stop-color="#006D5F" offset="100%"></stop>
        </linearGradient>
        <linearGradient x1="38.8860417%" y1="4.88653725%" x2="66.4424078%" y2="151.072189%" id="linearGradient-14">
            <stop stop-color="#00A899" stop-opacity="0" offset="0%"></stop>
            <stop stop-color="#006D5F" offset="100%"></stop>
        </linearGradient>
        <linearGradient x1="36.6536376%" y1="4.87750678%" x2="57.8027912%" y2="103.178424%" id="linearGradient-15">
            <stop stop-color="#00A899" offset="0%"></stop>
            <stop stop-color="#008B7A" offset="100%"></stop>
        </linearGradient>
        <linearGradient x1="47.9066529%" y1="17.002296%" x2="56.3896739%" y2="91.1112985%" id="linearGradient-16">
            <stop stop-color="#00A899" stop-opacity="0" offset="0%"></stop>
            <stop stop-color="#006D5F" offset="100%"></stop>
        </linearGradient>
        <linearGradient x1="35.7366552%" y1="10.2247512%" x2="70.9313092%" y2="86.7379255%" id="linearGradient-17">
            <stop stop-color="#00A899" stop-opacity="0" offset="0%"></stop>
            <stop stop-color="#006D5F" offset="100%"></stop>
        </linearGradient>
    </defs>
    <g id="Page-1" stroke="none" stroke-width="1" fill="none" fill-rule="evenodd">
        <g id="2-5-pattaya-guest-houses" transform="translate(-548.000000, -1294.000000)" fill-rule="nonzero">
            <g id="tropic-yard" transform="translate(548.000000, 1294.000000)">
                <g id="Group-41" transform="translate(15.000000, 0.000000)">
                    <path d="M25.2793188,15.6904169 C25.2793188,15.6904169 40.3761631,32.2883119 27.4894223,69.9217897 L15.5246444,69.9217897 C34.9664457,40.586961 25.2793188,15.6904169 25.2793188,15.6904169 Z" id="Shape" fill="url(#linearGradient-1)"></path>
                    <path d="M30.3495216,60.1449065 C29.6082777,63.2309294 28.6661692,66.4900893 27.490015,69.9223868 L15.5246444,69.9223868 C17.7288228,66.5957628 19.5603055,63.3270504 21.0712341,60.1449065 L30.3495216,60.1449065 Z" id="Shape" fill="url(#linearGradient-2)"></path>
                    <path d="M32.1881145,49.9889123 C31.8171962,53.142399 31.2223052,56.5239492 30.3495216,60.1449065 L21.0712341,60.1449065 C22.7350333,56.6397722 24.0166564,53.2409081 24.9848359,49.9889123 L32.1881145,49.9889123 Z" id="Shape" fill="url(#linearGradient-3)"></path>
                    <path d="M32.1881145,49.9889123 L24.9848359,49.9889123 C26.0507813,46.4097469 26.7440309,43.0078978 27.1599808,39.8335153 L32.6656864,39.8335153 C32.7593048,42.9070005 32.627765,46.2891478 32.1881145,49.9889123 Z" id="Shape" fill="url(#linearGradient-4)"></path>
                    <path d="M27.1599808,39.8335153 C27.6499956,36.1044964 27.7602046,32.6883188 27.6571058,29.6775211 L31.4445005,29.6775211 C32.089756,32.5850335 32.5536999,35.9647926 32.6656864,39.8335153 L27.1599808,39.8335153 Z" id="Shape" fill="url(#linearGradient-5)"></path>
                    <path d="M31.4445005,29.6775211 L27.6576985,29.6775211 C27.5095681,25.4016274 26.9259349,21.9329114 26.3737053,19.5215269 L27.7933857,19.5215269 C29.0222744,21.8248499 30.4496577,25.1872953 31.4445005,29.6775211 Z" id="Shape" fill="url(#linearGradient-6)"></path>
                    <path d="M27.7933857,19.5215269 L26.3737053,19.5215269 C25.8285859,17.1370087 25.3142776,15.7829558 25.2810964,15.6963872 C25.3243504,15.7423581 26.4406601,16.9901405 27.7933857,19.5215269 Z" id="Shape" fill="url(#linearGradient-7)"></path>
                    <path d="M43.7108717,7.93565775 C38.5494206,9.18582825 31.2697069,12.3512555 27.1297622,20.3675116 C27.1297622,20.3675116 26.1052931,0.842402467 43.6972437,5.05739974 C45.2010622,5.4180029 45.2135051,7.57147236 43.7108717,7.93565775 Z" id="Shape" fill="url(#linearGradient-8)"></path>
                    <path d="M0.279077461,26.2553732 C3.74828835,20.1490004 11.5067591,12.5040939 27.1297622,20.3675116 C27.1297622,20.3675116 14.3188642,19.3925695 2.42222612,28.1754059 C1.14830575,29.1163175 -0.505420433,27.6362922 0.279077461,26.2553732 Z" id="Shape" fill="url(#linearGradient-9)"></path>
                    <path d="M51.6334709,21.3794691 C46.1408006,17.85523 37.0610077,14.3912902 27.1297622,20.3675116 C30.135029,9.87061609 43.38143,3.35647524 53.6557453,19.3346581 C54.5089756,20.662442 52.9577554,22.2290359 51.6334709,21.3794691 L51.6334709,21.3794691 Z" id="Shape" fill="url(#linearGradient-10)"></path>
                    <path d="M3.40403349,11.6306461 C10.3323824,6.65742703 22.0115651,1.81674745 27.1297622,20.3675116 C22.5774228,15.4062329 15.0867715,12.0205036 4.55470948,14.2832287 C2.9999342,14.6169658 2.10878252,12.5596172 3.40403349,11.6306461 Z" id="Shape" fill="url(#linearGradient-11)"></path>
                    <path d="M18.2745347,2.34809972 C20.5800342,5.53740793 24.0723534,11.3309396 27.1297622,20.3675116 C27.1297622,20.3675116 32.8221119,4.19589247 19.9170032,0.0740311135 C18.5642776,-0.357618079 17.4390801,1.1922591 18.2745347,2.34809972 Z" id="Shape" fill="url(#linearGradient-12)"></path>
                    <path d="M51.6334709,21.3794691 C51.8343355,21.5084265 52.0399403,21.5758905 52.24199,21.6027566 C40.2185525,3.73498908 27.1297622,20.3675116 27.1297622,20.3675116 C37.0610077,14.3912902 46.1408006,17.85523 51.6334709,21.3794691 L51.6334709,21.3794691 Z" id="Shape" fill="url(#linearGradient-13)"></path>
                    <path d="M2.81447515,13.1058952 C2.96023525,13.8479974 3.64044944,14.4796499 4.55470948,14.2826317 C15.0861789,12.0205036 22.5774228,15.4062329 27.1297622,20.3675116 C27.1291695,20.3657205 20.2340019,4.30693921 2.81447515,13.1058952 Z" id="Shape" fill="url(#linearGradient-14)"></path>
                    <path d="M26.056114,19.2254025 C14.7751053,8.2968579 1.90199255,29.9987207 9.93776334,46.6587063 C10.5936842,48.0187296 12.6218839,47.6073792 12.7208348,46.0992938 C13.5805829,33.0131004 18.8516503,26.2792542 22.7682145,23.0374079 C25.1951808,21.0290155 28.7360867,21.2063319 31.0042574,23.395623 C37.603757,29.7640899 41.3834489,39.9857567 43.046063,45.4962984 C43.4554951,46.8515455 45.3308242,46.9016956 45.827357,45.5768968 C52.2502853,28.4500375 35.4268347,14.790103 26.9733366,19.3471958 C26.6723359,19.5095866 26.3020103,19.4642125 26.056114,19.2254025 L26.056114,19.2254025 Z" id="Shape" fill="url(#linearGradient-15)"></path>
                    <path d="M44.4195269,46.5410924 C44.9966423,46.5506448 45.5814607,46.2330275 45.827357,45.5768968 C52.3794548,28.1049571 34.7389176,14.2408399 26.4726563,19.6451112 C26.4726563,19.6451112 43.1977484,15.335784 44.4195269,46.5410924 L44.4195269,46.5410924 Z" id="Shape" fill="url(#linearGradient-16)"></path>
                    <path d="M9.93776334,46.6587063 C10.3264572,47.4640932 11.1945005,47.6443948 11.8599017,47.3470762 C5.28943561,17.1328295 26.056114,19.2254025 26.056114,19.2254025 C14.7751053,8.2968579 1.90199255,29.9987207 9.93776334,46.6587063 Z" id="Shape" fill="url(#linearGradient-17)"></path>
                </g>
                <g id="fence" transform="translate(0.000000, 50.000000)">
                    <g id="Group" transform="translate(0.000000, 7.627586)" fill="#D96B37">
                        <path d="M49.2831055,15.739669 L0.716894531,15.739669 C0.320996094,15.739669 0,15.4224 0,15.0308828 L0,10.999269 C0,10.6078483 0.320996094,10.2904828 0.716894531,10.2904828 L49.2831055,10.2904828 C49.6790039,10.2904828 50,10.6078483 50,10.999269 L50,15.0308828 C50,15.4224 49.6790039,15.739669 49.2831055,15.739669 Z" id="Shape"></path>
                        <path d="M49.2831055,5.5217931 L0.716894531,5.5217931 C0.320996094,5.5217931 0,5.20452414 0,4.81310345 L0,0.781489655 C0,0.390068966 0.320996094,0.0727034483 0.716894531,0.0727034483 L49.2831055,0.0727034483 C49.6790039,0.0727034483 50,0.390068966 50,0.781489655 L50,4.81310345 C50,5.20452414 49.6790039,5.5217931 49.2831055,5.5217931 Z" id="Shape"></path>
                    </g>
                    <g id="Group" transform="translate(0.000000, 8.979310)" fill="#B14418">
                        <path d="M49.2831055,4.17006897 L0.716894531,4.17006897 C0.320996094,4.17006897 0,3.8528 0,3.46137931 L0,0.0296413793 C0,0.421062069 0.320996094,0.738427586 0.716894531,0.738427586 L49.2831055,0.738427586 C49.6790039,0.738427586 50,0.421062069 50,0.0296413793 L50,3.46137931 C50,3.8528 49.6790039,4.17006897 49.2831055,4.17006897 Z" id="Shape"></path>
                        <path d="M49.2831055,14.3879448 L0.716894531,14.3879448 C0.320996094,14.3879448 0,14.0705793 0,13.6791586 L0,10.2474207 C0,10.6388414 0.320996094,10.9562069 0.716894531,10.9562069 L49.2831055,10.9562069 C49.6790039,10.9562069 50,10.6388414 50,10.2474207 L50,13.6791586 C50,14.0706759 49.6790039,14.3879448 49.2831055,14.3879448 Z" id="Shape"></path>
                    </g>
                    <path d="M6.45048828,0.0368827586 L6.45048828,0.0368827586 C4.32910156,0.0368827586 2.609375,1.73715862 2.609375,3.83455172 L2.609375,27.9631172 L10.2916016,27.9631172 L10.2916016,3.83455172 C10.2915039,1.73715862 8.57177734,0.0368827586 6.45048828,0.0368827586 Z" id="Shape" fill="#FFB427"></path>
                    <path d="M6.45039063,0.0368827586 L6.45039063,0.0368827586 C5.82392578,0.0368827586 5.23300781,0.186151724 4.71054688,0.449158621 C5.95722656,1.07674483 6.81181641,2.35653793 6.81181641,3.83455172 L6.81181641,27.9631172 L10.2916016,27.9631172 L10.2916016,3.83455172 C10.2915039,1.73715862 8.57177734,0.0368827586 6.45039063,0.0368827586 Z" id="Shape" fill="#FF9D00"></path>
                    <g id="Group" transform="translate(14.941406, 0.000000)" fill="#FFB427">
                        <path d="M3.87539062,0.0368827586 L3.87539062,0.0368827586 C1.75400391,0.0368827586 0.0342773437,1.73715862 0.0342773437,3.83455172 L0.0342773437,27.9631172 L7.71650391,27.9631172 L7.71650391,3.83455172 C7.71650391,1.73715862 5.99677734,0.0368827586 3.87539062,0.0368827586 Z" id="Shape"></path>
                        <path d="M16.2417969,0.0368827586 L16.2417969,0.0368827586 C14.1204102,0.0368827586 12.4006836,1.73715862 12.4006836,3.83455172 L12.4006836,27.9631172 L20.0829102,27.9631172 L20.0829102,3.83455172 C20.0829102,1.73715862 18.3631836,0.0368827586 16.2417969,0.0368827586 Z" id="Shape"></path>
                        <path d="M28.6082031,0.0368827586 L28.6082031,0.0368827586 C26.4868164,0.0368827586 24.7670898,1.73715862 24.7670898,3.83455172 L24.7670898,27.9631172 L32.4493164,27.9631172 L32.4493164,3.83455172 C32.4492188,1.73715862 30.7295898,0.0368827586 28.6082031,0.0368827586 Z" id="Shape"></path>
                    </g>
                    <g id="Group" transform="translate(16.992188, 0.000000)" fill="#FF9D00">
                        <path d="M1.82460937,0.0368827586 L1.82460937,0.0368827586 C1.19814453,0.0368827586 0.607226562,0.186151724 0.084765625,0.449158621 C1.33144531,1.07674483 2.18603516,2.35653793 2.18603516,3.83455172 L2.18603516,27.9631172 L5.66582031,27.9631172 L5.66582031,3.83455172 C5.66572266,1.73715862 3.94599609,0.0368827586 1.82460937,0.0368827586 Z" id="Shape"></path>
                        <path d="M14.1910156,0.0368827586 L14.1910156,0.0368827586 C13.5645508,0.0368827586 12.9736328,0.186151724 12.4511719,0.449158621 C13.6978516,1.07674483 14.5524414,2.35653793 14.5524414,3.83455172 L14.5524414,27.9631172 L18.0322266,27.9631172 L18.0322266,3.83455172 C18.0321289,1.73715862 16.3124023,0.0368827586 14.1910156,0.0368827586 Z" id="Shape"></path>
                        <path d="M26.5574219,0.0368827586 L26.5574219,0.0368827586 C25.930957,0.0368827586 25.3400391,0.186151724 24.8175781,0.449158621 C26.0642578,1.07674483 26.9188477,2.35653793 26.9188477,3.83455172 L26.9188477,27.9631172 L30.3986328,27.9631172 L30.3986328,3.83455172 C30.3984375,1.73715862 28.6788086,0.0368827586 26.5574219,0.0368827586 Z" id="Shape"></path>
                    </g>
                </g>
            </g>
        </g>
    </g>
</svg>