<?xml version="1.0" encoding="UTF-8"?>
<svg width="89px" height="70px" viewBox="0 0 89 70" version="1.1" xmlns="http://www.w3.org/2000/svg" xmlns:xlink="http://www.w3.org/1999/xlink">
    <!-- Generator: Sketch 47.1 (45422) - http://www.bohemiancoding.com/sketch -->
    <title>tropical-nature</title>
    <desc>Created with Sketch.</desc>
    <defs></defs>
    <g id="Page-1" stroke="none" stroke-width="1" fill="none" fill-rule="evenodd">
        <g id="2-5-pattaya-guest-houses" transform="translate(-607.000000, -3871.000000)" fill-rule="nonzero">
            <g id="tropical-nature" transform="translate(607.000000, 3871.000000)">
                <g id="Group" transform="translate(0.000000, 0.005703)">
                    <path d="M26.6967066,23.6115768 L26.6967066,8.36656687 C26.0756487,8.13113772 25.4031936,8.0010978 24.7006986,8.0010978 C23.9982036,8.0010978 23.3257485,8.13103792 22.7046906,8.36646707 L22.7046906,23.611477 C23.361477,23.5496008 24.0278443,23.5174651 24.7006986,23.5174651 C25.3735529,23.5174651 26.0399202,23.5497006 26.6967066,23.6115768 Z" id="Shape" fill="#FF9811"></path>
                    <path d="M24.7006986,8.0011976 C25.4031936,8.0011976 26.0756487,8.13113772 26.6967066,8.36666667 C28.8286427,9.1749501 30.3486028,11.2374251 30.3486028,13.6492016 L33.3426148,13.6492016 C33.3426148,10.8182635 31.9743513,8.3008982 29.8643713,6.72365269 C31.262475,6.96586826 32.5717565,7.72904192 33.4696607,8.96487026 L35.8919162,7.20499002 C34.2279441,4.91477046 31.6414172,3.68243513 29.0073852,3.64660679 C30.2808383,3.02075848 31.7886228,2.86856287 33.2413174,3.34061876 L34.1665669,0.493213573 C31.9696607,-0.220758483 29.6277445,-0.0368263473 27.5719561,1.01067864 C26.4360279,1.58942116 25.4631737,2.39481038 24.6986028,3.36946108 L24.7006986,8.0011976 Z" id="Shape" fill="#5EAC24"></path>
                    <path d="M24.6984032,3.36936128 C22.5210579,0.606886228 18.7706587,-0.655489022 15.2349301,0.493113772 L16.1601796,3.34061876 C17.6128743,2.86866267 19.1206587,3.02075848 20.3941118,3.64660679 C17.7600798,3.68243513 15.1734531,4.91467066 13.509481,7.20499002 L15.9317365,8.96487026 C16.8296407,7.72884232 18.1389222,6.96566866 19.5371257,6.72355289 C17.4270459,8.3007984 16.0586826,10.8181637 16.0586826,13.6492016 L19.0526946,13.6492016 C19.0526946,11.2374251 20.5726547,9.1749501 22.7045908,8.36666667 C23.3256487,8.13123752 23.9981038,8.00129741 24.7005988,8.00129741 L24.6984032,3.36936128 Z" id="Shape" fill="#6DC82A"></path>
                    <path d="M24.7006986,32.2689621 C26.8536926,32.2692615 28.038024,33.0674651 28.9021956,33.6492016 C29.5718563,34.1002994 29.9411178,34.3488024 30.8752495,34.3488024 C31.8093812,34.3488024 32.1776447,34.1002994 32.8473054,33.6501996 C33.7125749,33.0673653 34.8962076,32.2689621 37.0499002,32.2689621 C38.0669661,32.2689621 38.8676647,32.4471058 39.5209581,32.6963074 C39.0404192,30.2922156 37.4775449,28.1093812 34.9997006,26.4330339 C32.7047904,24.8804391 29.810479,23.9045908 26.6967066,23.611477 C26.0399202,23.5496008 25.3735529,23.5174651 24.7006986,23.5174651 L24.7006986,32.2689621 Z" id="Shape" fill="#FFA733"></path>
                    <path d="M16.5528942,33.6501996 C17.2225549,34.1002994 17.5908184,34.3488024 18.5249501,34.3488024 C19.4590818,34.3488024 19.8273453,34.1002994 20.497006,33.6501996 C21.3622754,33.0673653 22.5469062,32.2689621 24.6996008,32.2689621 C24.7006986,32.2689621 24.7006986,23.5175649 24.7006986,23.5175649 C24.0278443,23.5175649 23.361477,23.5497006 22.7046906,23.6115768 C19.5909182,23.9046906 16.6966068,24.8805389 14.4016966,26.4331337 C11.9240519,28.1093812 10.3610778,30.292016 9.88053892,32.696008 C10.5335329,32.4469062 11.3339321,32.2690619 12.3502994,32.2690619 C14.502994,32.2689621 15.6876248,33.0673653 16.5528942,33.6501996 Z" id="Shape" fill="#FFB655"></path>
                    <path d="M43.2255489,41.6292415 C42.2914172,41.6292415 41.9221557,41.3807385 41.253493,40.9296407 C40.3882236,40.3468064 39.2035928,39.5494012 37.0499002,39.5494012 C34.8972056,39.5494012 33.7125749,40.3468064 32.8473054,40.9296407 C32.1776447,41.3807385 31.8093812,41.6292415 30.8752495,41.6292415 C29.9411178,41.6292415 29.5718563,41.3807385 28.9021956,40.9296407 C28.0379242,40.3468064 26.8532934,39.5494012 24.6996008,39.5494012 L24.6996008,43.5414172 C25.6337325,43.5414172 26.002994,43.7899202 26.6716567,44.241018 C27.5369261,44.8228543 28.7215569,45.6212575 30.8752495,45.6212575 C33.0279441,45.6212575 34.2125749,44.8228543 35.0778443,44.241018 C35.747505,43.7899202 36.1157685,43.5414172 37.0499002,43.5414172 C37.9840319,43.5414172 38.3532934,43.7899202 39.0229541,44.241018 C39.8872255,44.8228543 41.0718563,45.6212575 43.2255489,45.6212575 C45.3792415,45.6212575 46.5638723,44.8228543 47.4281437,44.241018 C48.0978044,43.7899202 48.4670659,43.5414172 49.4011976,43.5414172 L49.4011976,39.5494012 C47.247505,39.5494012 46.0628743,40.3468064 45.1986028,40.9296407 C44.5289421,41.3807385 44.1596806,41.6292415 43.2255489,41.6292415 Z" id="Shape" fill="#165C92"></path>
                    <path d="M45.1986028,33.6492016 C44.5289421,34.1002994 44.1596806,34.3488024 43.2255489,34.3488024 C42.2914172,34.3488024 41.9221557,34.1002994 41.253493,33.6492016 C40.7968064,33.3421158 40.250998,32.9748503 39.5209581,32.6963074 C38.8676647,32.4471058 38.0669661,32.2689621 37.0499002,32.2689621 C34.8962076,32.2689621 33.7125749,33.0673653 32.8473054,33.6501996 C32.1776447,34.1002994 31.8093812,34.3488024 30.8752495,34.3488024 C29.9411178,34.3488024 29.5718563,34.1002994 28.9021956,33.6492016 C28.038024,33.0674651 26.8536926,32.2692615 24.7006986,32.2689621 C24.6996008,32.2689621 24.6996008,36.260978 24.6996008,36.260978 C25.6337325,36.260978 26.002994,36.509481 26.6716567,36.9605788 C27.5369261,37.5434132 28.7215569,38.3408184 30.8752495,38.3408184 C33.0279441,38.3408184 34.2125749,37.5434132 35.0778443,36.9605788 C35.747505,36.509481 36.1157685,36.260978 37.0499002,36.260978 C37.9840319,36.260978 38.3532934,36.509481 39.0229541,36.9605788 C39.8872255,37.5434132 41.0718563,38.3408184 43.2255489,38.3408184 C45.3792415,38.3408184 46.5638723,37.5434132 47.4281437,36.9605788 C48.0978044,36.509481 48.4670659,36.260978 49.4011976,36.260978 L49.4011976,32.2689621 C47.247505,32.2689621 46.0628743,33.0673653 45.1986028,33.6492016 Z" id="Shape" fill="#165C92"></path>
                    <path d="M20.497006,40.9296407 C19.8273453,41.3807385 19.4590818,41.6292415 18.5249501,41.6292415 C17.5908184,41.6292415 17.2225549,41.3807385 16.5528942,40.9296407 C15.6876248,40.3468064 14.502994,39.5494012 12.3502994,39.5494012 C10.1966068,39.5494012 9.01197605,40.3468064 8.14670659,40.9296407 C7.47804391,41.3807385 7.10878244,41.6292415 6.1746507,41.6292415 C5.24051896,41.6292415 4.87225549,41.3807385 4.20259481,40.9296407 C3.33732535,40.3468064 2.15369261,39.5494012 1.42108547e-14,39.5494012 L1.42108547e-14,43.5414172 C0.934131737,43.5414172 1.30239521,43.7899202 1.97205589,44.241018 C2.83732535,44.8228543 4.02195609,45.6212575 6.1746507,45.6212575 C8.32834331,45.6212575 9.51297405,44.8228543 10.3772455,44.241018 C11.0469062,43.7899202 11.4161677,43.5414172 12.3502994,43.5414172 C13.2844311,43.5414172 13.6526946,43.7899202 14.3223553,44.241018 C15.1866267,44.8228543 16.3712575,45.6212575 18.5249501,45.6212575 C20.6786427,45.6212575 21.8632735,44.8228543 22.7275449,44.241018 C23.3972056,43.7899202 23.7654691,43.5414172 24.6996008,43.5414172 L24.6996008,39.5494012 C22.5469062,39.5494012 21.3622754,40.3468064 20.497006,40.9296407 Z" id="Shape" fill="#1E81CE"></path>
                    <path d="M24.6996008,32.2689621 C22.5469062,32.2689621 21.3622754,33.0673653 20.497006,33.6501996 C19.8273453,34.1002994 19.4590818,34.3488024 18.5249501,34.3488024 C17.5908184,34.3488024 17.2225549,34.1002994 16.5528942,33.6501996 C15.6876248,33.0673653 14.502994,32.2689621 12.3502994,32.2689621 C11.3339321,32.2689621 10.5335329,32.4468064 9.88053892,32.6959082 C9.1498004,32.9745509 8.60369261,33.3424152 8.14670659,33.6501996 C7.47804391,34.1002994 7.10878244,34.3488024 6.1746507,34.3488024 C5.24051896,34.3488024 4.87225549,34.1002994 4.20259481,33.6501996 C3.33732535,33.0673653 2.15369261,32.2689621 0,32.2689621 L0,36.260978 C0.934131737,36.260978 1.30239521,36.509481 1.97205589,36.9605788 C2.83732535,37.5434132 4.02195609,38.3408184 6.1746507,38.3408184 C8.32834331,38.3408184 9.51297405,37.5434132 10.3772455,36.9605788 C11.0469062,36.509481 11.4161677,36.260978 12.3502994,36.260978 C13.2844311,36.260978 13.6526946,36.509481 14.3223553,36.9605788 C15.1866267,37.5434132 16.3712575,38.3408184 18.5249501,38.3408184 C20.6786427,38.3408184 21.8632735,37.5434132 22.7275449,36.9605788 C23.3972056,36.509481 23.7654691,36.260978 24.6996008,36.260978 L24.6996008,32.2689621 Z" id="Shape" fill="#1E81CE"></path>
                </g>
                <g id="Group" transform="translate(39.522384, 20.000000)">
                    <rect id="Rectangle-path" fill="#6A563D" x="22.1428571" y="27.1428571" width="3.99201597" height="2.99401198"></rect>
                    <polygon id="Shape" fill="#77DAFF" points="41.7697035 27.1207585 22.1428571 0 22.1428571 27.1207585"></polygon>
                    <path d="M24.2857143,36.3582834 C26.4388081,36.3585828 27.6231394,37.1567864 28.4873111,37.738523 C29.1569718,38.1896208 29.5262332,38.4381238 30.460365,38.4381238 C31.3944967,38.4381238 31.7627602,38.1896208 32.4324209,37.739521 C33.2976903,37.1566866 34.4813231,36.3582834 36.6350157,36.3582834 C38.5747362,36.3582834 39.7282293,37.0058882 40.5704448,37.5596806 L42.6100656,30 L24.2857143,30 L24.2857143,36.3582834 Z" id="Shape" fill="#FF5023"></path>
                    <path d="M15.8909324,37.739521 C16.5605931,38.1896208 16.9288566,38.4381238 17.8629883,38.4381238 C18.79712,38.4381238 19.1653835,38.1896208 19.8350442,37.739521 C20.7003137,37.1566866 21.8849444,36.3582834 24.037639,36.3582834 C24.038637,36.3582834 24.038637,30 24.038637,30 L5.71428571,30 L7.75390647,37.5596806 C8.59602224,37.0052894 9.74941545,36.3582834 11.6883376,36.3582834 C13.8410322,36.3582834 15.025663,37.1566866 15.8909324,37.739521 Z" id="Shape" fill="#FF7956"></path>
                    <path d="M42.8116624,45.6512689 C41.8775307,45.6512689 41.5082692,45.4027659 40.8396065,44.9516681 C39.974337,44.3688338 38.7897063,43.5714286 36.6360137,43.5714286 C34.4833191,43.5714286 33.2986883,44.3688338 32.4334189,44.9516681 C31.7637582,45.4027659 31.3954947,45.6512689 30.461363,45.6512689 C29.5272313,45.6512689 29.1579698,45.4027659 28.4883091,44.9516681 C27.6240376,44.3688338 26.4394069,43.5714286 24.2857143,43.5714286 L24.2857143,47.5634445 C25.219846,47.5634445 25.5891075,47.8119475 26.2577702,48.2630453 C27.1230396,48.8448817 28.3076704,49.6432849 30.461363,49.6432849 C32.6140576,49.6432849 33.7986883,48.8448817 34.6639578,48.2630453 C35.3336185,47.8119475 35.701882,47.5634445 36.6360137,47.5634445 C37.5701454,47.5634445 37.9394069,47.8119475 38.6090676,48.2630453 C39.473339,48.8448817 40.6579698,49.6432849 42.8116624,49.6432849 C44.965355,49.6432849 46.1499857,48.8448817 47.0142572,48.2630453 C47.6839179,47.8119475 48.0531794,47.5634445 48.9873111,47.5634445 L48.9873111,43.5714286 C46.8336185,43.5714286 45.6489877,44.3688338 44.7847163,44.9516681 C44.1150556,45.4027659 43.7457941,45.6512689 42.8116624,45.6512689 Z" id="Shape" fill="#165C92"></path>
                    <path d="M44.7847163,37.8088109 C44.1150556,38.2599088 43.7457941,38.5084117 42.8116624,38.5084117 C41.8775307,38.5084117 41.5082692,38.2599088 40.8396065,37.8088109 C40.7536784,37.7510265 40.664357,37.6910465 40.5714428,37.6299686 C39.7292273,37.0761762 38.5757342,36.4285714 36.6360137,36.4285714 C34.4823211,36.4285714 33.2986883,37.2269746 32.4334189,37.809809 C31.7637582,38.2599088 31.3954947,38.5084117 30.461363,38.5084117 C29.5272313,38.5084117 29.1579698,38.2599088 28.4883091,37.8088109 C27.6241374,37.2270744 26.4398061,36.4288708 24.2867123,36.4285714 C24.2857143,36.4285714 24.2857143,40.4205874 24.2857143,40.4205874 C25.219846,40.4205874 25.5891075,40.6690904 26.2577702,41.1201882 C27.1230396,41.7030225 28.3076704,42.5004277 30.461363,42.5004277 C32.6140576,42.5004277 33.7986883,41.7030225 34.6639578,41.1201882 C35.3336185,40.6690904 35.701882,40.4205874 36.6360137,40.4205874 C37.5701454,40.4205874 37.9394069,40.6690904 38.6090676,41.1201882 C39.473339,41.7030225 40.6579698,42.5004277 42.8116624,42.5004277 C44.965355,42.5004277 46.1499857,41.7030225 47.0142572,41.1201882 C47.6839179,40.6690904 48.0531794,40.4205874 48.9873111,40.4205874 L48.9873111,36.4285714 C46.8336185,36.4285714 45.6489877,37.2269746 44.7847163,37.8088109 Z" id="Shape" fill="#165C92"></path>
                    <path d="M20.497006,44.9516681 C19.8273453,45.4027659 19.4590818,45.6512689 18.5249501,45.6512689 C17.5908184,45.6512689 17.2225549,45.4027659 16.5528942,44.9516681 C15.6876248,44.3688338 14.502994,43.5714286 12.3502994,43.5714286 C10.1966068,43.5714286 9.01197605,44.3688338 8.14670659,44.9516681 C7.47804391,45.4027659 7.10878244,45.6512689 6.1746507,45.6512689 C5.24051896,45.6512689 4.87225549,45.4027659 4.20259481,44.9516681 C3.33732535,44.3688338 2.15369261,43.5714286 2.27373675e-13,43.5714286 L2.27373675e-13,47.5634445 C0.934131737,47.5634445 1.30239521,47.8119475 1.97205589,48.2630453 C2.83732535,48.8448817 4.02195609,49.6432849 6.1746507,49.6432849 C8.32834331,49.6432849 9.51297405,48.8448817 10.3772455,48.2630453 C11.0469062,47.8119475 11.4161677,47.5634445 12.3502994,47.5634445 C13.2844311,47.5634445 13.6526946,47.8119475 14.3223553,48.2630453 C15.1866267,48.8448817 16.3712575,49.6432849 18.5249501,49.6432849 C20.6786427,49.6432849 21.8632735,48.8448817 22.7275449,48.2630453 C23.3972056,47.8119475 23.7654691,47.5634445 24.6996008,47.5634445 L24.6996008,43.5714286 C22.5469062,43.5714286 21.3622754,44.3688338 20.497006,44.9516681 Z" id="Shape" fill="#1E81CE"></path>
                    <path d="M24.6996008,36.4285714 C22.5469062,36.4285714 21.3622754,37.2269746 20.497006,37.809809 C19.8273453,38.2599088 19.4590818,38.5084117 18.5249501,38.5084117 C17.5908184,38.5084117 17.2225549,38.2599088 16.5528942,37.809809 C15.6876248,37.2269746 14.502994,36.4285714 12.3502994,36.4285714 C10.4113772,36.4285714 9.25798403,37.0756772 8.41586826,37.6299686 C8.32265469,37.6913459 8.23303393,37.7516253 8.14670659,37.809809 C7.47804391,38.2599088 7.10878244,38.5084117 6.1746507,38.5084117 C5.24051896,38.5084117 4.87225549,38.2599088 4.20259481,37.809809 C3.33732535,37.2269746 2.15369261,36.4285714 2.27373675e-13,36.4285714 L2.27373675e-13,40.4205874 C0.934131737,40.4205874 1.30239521,40.6690904 1.97205589,41.1201882 C2.83732535,41.7030225 4.02195609,42.5004277 6.1746507,42.5004277 C8.32834331,42.5004277 9.51297405,41.7030225 10.3772455,41.1201882 C11.0469062,40.6690904 11.4161677,40.4205874 12.3502994,40.4205874 C13.2844311,40.4205874 13.6526946,40.6690904 14.3223553,41.1201882 C15.1866267,41.7030225 16.3712575,42.5004277 18.5249501,42.5004277 C20.6786427,42.5004277 21.8632735,41.7030225 22.7275449,41.1201882 C23.3972056,40.6690904 23.7654691,40.4205874 24.6996008,40.4205874 L24.6996008,36.4285714 Z" id="Shape" fill="#1E81CE"></path>
                </g>
            </g>
        </g>
    </g>
</svg>