<?xml version="1.0" encoding="UTF-8"?>
<svg width="20px" height="17px" viewBox="0 0 20 17" version="1.1" xmlns="http://www.w3.org/2000/svg" xmlns:xlink="http://www.w3.org/1999/xlink">
    <!-- Generator: Sketch 47.1 (45422) - http://www.bohemiancoding.com/sketch -->
    <title>computer-screen</title>
    <desc>Created with Sketch.</desc>
    <defs></defs>
    <g id="Page-1" stroke="none" stroke-width="1" fill="none" fill-rule="evenodd">
        <g id="stangher-coworking-apartments" transform="translate(-966.000000, -6167.000000)" fill-rule="nonzero" fill="#B8B8B8">
            <g id="computer-screen" transform="translate(966.000000, 6167.000000)">
                <path d="M18.8830669,0.0485154976 L18.8830669,0.019314845 L18.7853181,0.019314845 L1.17226754,0.019314845 L1.07451876,0.019314845 L1.07451876,0.0485154976 C0.498270799,0.0881239804 0.0683523654,0.546590538 0,1.10303426 L0,1.20097879 L0,12.8069821 C0,13.0320392 0.0585644372,13.2217292 0.156313214,13.3925938 C0.381207178,13.7885808 0.713181077,13.988646 1.17230016,13.988646 L7.60009788,13.988646 L7.60009788,15.6100163 L6.37905383,15.6100163 C6.07624796,15.6100163 5.84179445,15.8455139 5.84179445,16.1476998 C5.84179445,16.4498858 6.07624796,16.6853507 6.37905383,16.6853507 L13.5785971,16.6853507 C13.8814029,16.6853507 14.125677,16.4498532 14.125677,16.1476998 C14.125677,15.8454812 13.8814356,15.6100163 13.5785971,15.6100163 L12.357553,15.6100163 L12.357553,13.988646 L18.7853181,13.988646 C19.244633,13.988646 19.5795432,13.7885808 19.8013051,13.3925938 C19.9019576,13.2133768 19.9674062,13.0216313 19.9674062,12.8069821 L19.9674062,1.20101142 L19.9674062,1.10306688 C19.8990212,0.546590538 19.4399021,0.0881239804 18.8830669,0.0485154976 Z M18.8830669,1.20101142 L18.8830669,12.8070147 C18.8830669,12.8757912 18.8538662,12.9049592 18.7853181,12.9049592 L1.17226754,12.9049592 C1.10391517,12.9049592 1.07451876,12.8757912 1.07451876,12.8070147 L1.07451876,1.20101142 L1.07451876,1.10306688 L18.8830343,1.10306688 L18.8830343,1.20101142 L18.8830669,1.20101142 Z" id="Shape"></path>
            </g>
        </g>
    </g>
</svg>