<?xml version="1.0" encoding="UTF-8"?>
<svg width="18px" height="14px" viewBox="0 0 18 14" version="1.1" xmlns="http://www.w3.org/2000/svg" xmlns:xlink="http://www.w3.org/1999/xlink">
    <!-- Generator: Sketch 47.1 (45422) - http://www.bohemiancoding.com/sketch -->
    <title>Page 1 Copy 3</title>
    <desc>Created with Sketch.</desc>
    <defs></defs>
    <g id="Page-1" stroke="none" stroke-width="1" fill="none" fill-rule="evenodd">
        <g id="stangher-coworking-apartments" transform="translate(-777.000000, -6678.000000)" fill="#B8B8B8">
            <path d="M794.718742,6681.70745 C789.910609,6676.76418 782.089391,6676.76418 777.281258,6681.70745 C776.906247,6682.09347 776.906247,6682.7225 777.281258,6683.11152 C777.656268,6683.49854 778.267285,6683.49854 778.646296,6683.11152 C782.700408,6678.9363 789.299592,6678.9363 793.357704,6683.11152 C793.54571,6683.30453 793.791716,6683.40354 794.038723,6683.40354 C794.28473,6683.40354 794.530737,6683.30453 794.718742,6683.11152 C795.093753,6682.7255 795.093753,6682.09747 794.718742,6681.70745 M785.9995,6689.35786 C785.29048,6689.35786 784.716464,6689.94889 784.716464,6690.67893 C784.716464,6691.40897 785.29048,6692 785.9995,6692 C786.70952,6692 787.283536,6691.40897 787.283536,6690.67893 C787.283536,6689.94889 786.70952,6689.35786 785.9995,6689.35786 M782.530404,6687.11274 C782.155393,6687.49976 782.155393,6688.12779 782.530404,6688.51781 C782.906414,6688.90383 783.516431,6688.90383 783.895442,6688.51781 C785.054474,6687.32175 786.945526,6687.32175 788.104558,6688.51781 C788.291564,6688.71082 788.538571,6688.80883 788.784577,6688.80883 C789.031584,6688.80883 789.277591,6688.71082 789.465596,6688.51781 C789.840607,6688.13179 789.840607,6687.50276 789.465596,6687.11674 C787.556543,6685.14463 784.443457,6685.14463 782.530404,6687.11274 M779.926331,6684.43259 C779.551321,6684.81962 779.551321,6685.44765 779.926331,6685.83767 C780.301342,6686.22369 780.912359,6686.22369 781.291369,6685.83767 C783.888441,6683.16453 788.115559,6683.16453 790.712631,6685.83767 C790.900636,6686.03068 791.146643,6686.12869 791.39365,6686.12869 C791.639657,6686.12869 791.885663,6686.03068 792.073669,6685.83767 C792.448679,6685.45165 792.448679,6684.82362 792.073669,6684.43259 C788.725576,6680.98441 783.273424,6680.98441 779.926331,6684.43259" id="Page-1-Copy-3"></path>
        </g>
    </g>
</svg>