<?xml version="1.0" encoding="UTF-8"?>
<svg width="70px" height="69px" viewBox="0 0 70 69" version="1.1" xmlns="http://www.w3.org/2000/svg" xmlns:xlink="http://www.w3.org/1999/xlink">
    <!-- Generator: Sketch 47.1 (45422) - http://www.bohemiancoding.com/sketch -->
    <title>workplace</title>
    <desc>Created with Sketch.</desc>
    <defs></defs>
    <g id="Page-1" stroke="none" stroke-width="1" fill="none" fill-rule="evenodd">
        <g id="2-9-1-coworking-lviv" transform="translate(-152.000000, -3471.000000)" fill-rule="nonzero">
            <g id="workplace" transform="translate(152.000000, 3471.000000)">
                <polygon id="Shape" fill="#3E5959" points="65.8984375 40.2890625 67.9492188 36.1875 70 40.2890625 70 69 65.8984375 69"></polygon>
                <polygon id="Shape" fill="#F4F4F4" points="70 32.0859375 70 40.2890625 28.8476562 40.2890625 24.7460938 36.1875 28.8476562 32.0859375"></polygon>
                <polygon id="Shape" fill="#9ABADB" points="47.3046875 56.6953125 53.4570312 56.6953125 53.4570312 60.796875 47.3046875 60.796875"></polygon>
                <polygon id="Shape" fill="#BBDCFF" points="45.2539062 50.5429688 49.3554688 50.5429688 49.3554688 66.9492188 45.2539062 66.9492188"></polygon>
                <polygon id="Shape" fill="#9ABADB" points="47.3046875 50.5429688 49.3554688 50.5429688 49.3554688 66.9492188 47.3046875 66.9492188"></polygon>
                <polygon id="Shape" fill="#537983" points="37.0507812 64.8984375 57.6953125 64.8984375 57.6953125 69 37.0507812 69"></polygon>
                <polygon id="Shape" fill="#3E5959" points="5.84765625 0 54.6884766 0 54.6884766 28.984375 5.84765625 28.984375"></polygon>
                <polygon id="Shape" fill="#293939" points="30.1779542 0 54.6884766 0 54.6884766 28.984375 30.1779542 28.984375"></polygon>
                <polygon id="Shape" fill="#9BFCFF" points="11.2543891 4.1015625 49.2817437 4.1015625 49.2817437 24.8828125 11.2543891 24.8828125"></polygon>
                <polygon id="Shape" fill="#76E2F8" points="30.1779542 4.1015625 49.2817437 4.1015625 49.2817437 24.8828125 30.1779542 24.8828125"></polygon>
                <polygon id="Shape" fill="#F4F4F4" points="0 32.0859375 28.8476562 32.0859375 28.8476562 69 0 69"></polygon>
                <polygon id="Shape" fill="#D9D9D9" points="4.1015625 36.1875 24.7460938 36.1875 24.7460938 48.4921875 4.1015625 48.4921875"></polygon>
                <polygon id="Shape" fill="#D9D9D9" points="4.1015625 52.59375 24.7460938 52.59375 24.7460938 64.8984375 4.1015625 64.8984375"></polygon>
                <polygon id="Shape" fill="#537983" points="16.5429688 40.2890625 20.6445312 40.2890625 20.6445312 44.390625 16.5429688 44.390625"></polygon>
                <polygon id="Shape" fill="#537983" points="16.5429688 56.6953125 20.6445312 56.6953125 20.6445312 60.796875 16.5429688 60.796875"></polygon>
                <polygon id="Shape" fill="#F4F4F4" points="47.3046875 32.0859375 70 32.0859375 70 40.2890625 47.3046875 40.2890625"></polygon>
                <path d="M61.2638854,45.7439271 L58.1054687,16.8962708 C57.7364349,13.7795104 54.9748229,11.4414062 51.8164062,11.4414062 L42.7929687,11.4414062 C39.6345521,11.4414062 37.0096588,13.7795104 36.640625,16.8962708 L33.4822083,45.7439271 C33.0720521,49.3942108 35.9020233,52.59375 39.5934295,52.59375 L55.1521302,52.59375 C58.8440705,52.59375 61.6735077,49.3942108 61.2638854,45.7439271 L61.2638854,45.7439271 Z" id="Shape" fill="#DE4FBD"></path>
                <path d="M55.1521302,52.59375 L47.3046875,52.59375 L47.3046875,11.4414062 L51.8164062,11.4414062 C54.9748229,11.4414062 57.7364349,13.7795104 58.1054688,16.8962708 L61.2638854,45.7439271 C61.6735077,49.3942108 58.8440705,52.59375 55.1521302,52.59375 Z" id="Shape" fill="#A725BC"></path>
                <polygon id="Shape" fill="#3E5959" points="47.3046875 64.8984375 57.6953125 64.8984375 57.6953125 69 47.3046875 69"></polygon>
            </g>
        </g>
    </g>
</svg>