<svg xmlns="http://www.w3.org/2000/svg" width="19" height="22" viewBox="0 0 19 22"><g><g><path fill="#322f31" d="M.08 18.666l3.22-3.827c2.08 1.662 4.332 2.493 6.752 2.493.762 0 1.345-.128 1.75-.384s.608-.625.608-1.108c0-.445-.239-.808-.716-1.088s-1.4-.58-2.77-.899a56.34 56.34 0 0 1-1.835-.456c-.52-.14-1.07-.317-1.652-.53a9.882 9.882 0 0 1-1.485-.666 7.895 7.895 0 0 1-1.194-.84 4.404 4.404 0 0 1-.931-1.066 5.209 5.209 0 0 1-.561-1.34 6.34 6.34 0 0 1-.21-1.682c0-1.961.729-3.56 2.188-4.798C4.704 1.24 6.664.62 9.127.62c3.414 0 6.268.918 8.56 2.753l-2.893 4.074c-1.942-1.362-3.88-2.044-5.812-2.044-.675 0-1.19.128-1.548.384-.357.257-.535.592-.535 1.008 0 .483.24.857.716 1.123.477.265 1.434.563 2.871.892 1.273.28 2.355.586 3.247.92a10.58 10.58 0 0 1 2.406 1.254c.712.502 1.243 1.113 1.592 1.834.349.72.523 1.562.523 2.529 0 2.097-.764 3.75-2.293 4.957-1.53 1.208-3.571 1.811-6.126 1.811-1.878 0-3.66-.292-5.343-.877-1.685-.584-3.155-1.441-4.412-2.572"/></g></g></svg>