<svg xmlns="http://www.w3.org/2000/svg" width="131" height="45" viewBox="0 0 131 45"><defs><linearGradient id="8zu4a" x1="0" x2="97.54" y1="36.75" y2="36.75" gradientUnits="userSpaceOnUse"><stop offset="0" stop-color="#f47c22"/><stop offset="1" stop-color="#ffcd02"/></linearGradient></defs><g><g><path fill="#322f31" d="M.36 18.646l3.14-3.733c2.029 1.621 4.224 2.432 6.584 2.432.743 0 1.312-.125 1.707-.375s.592-.61.592-1.082c0-.433-.232-.787-.698-1.06-.465-.274-1.366-.566-2.7-.877a54.875 54.875 0 0 1-1.79-.445 19.598 19.598 0 0 1-1.611-.517 9.633 9.633 0 0 1-1.448-.65 7.698 7.698 0 0 1-1.164-.82 4.296 4.296 0 0 1-.909-1.04 5.076 5.076 0 0 1-.547-1.308 6.184 6.184 0 0 1-.205-1.64c0-1.914.711-3.474 2.134-4.68C4.868 1.643 6.78 1.04 9.182 1.04c3.33 0 6.112.896 8.348 2.687L14.708 7.7c-1.894-1.33-3.783-1.994-5.667-1.994-.658 0-1.162.124-1.51.374-.347.25-.521.578-.521.984 0 .47.233.836.698 1.095.465.26 1.398.55 2.8.87 1.24.274 2.296.573 3.165.898.87.325 1.652.733 2.347 1.223.694.49 1.212 1.086 1.552 1.79.34.701.51 1.524.51 2.467 0 2.045-.745 3.658-2.236 4.836-1.492 1.179-3.482 1.768-5.973 1.768-1.832 0-3.569-.286-5.211-.856-1.643-.57-3.077-1.407-4.302-2.51"/></g><g><path fill="#322f31" d="M18.98 10.43V5.99h1.852V2.03h5.501v3.96h3.649v4.44h-3.649v5.314c0 .548.123.947.368 1.197.245.25.627.376 1.146.376.669 0 1.362-.175 2.078-.524v4.291c-1.084.6-2.357.9-3.818.9-1.716 0-3.024-.412-3.924-1.236-.9-.824-1.35-2.14-1.35-3.948v-6.37z"/></g><g><path fill="#322f31" d="M31.27 17.112c0-1.585.552-2.8 1.655-3.65 1.103-.847 2.596-1.272 4.483-1.272 1.404 0 2.663.203 3.775.608v-.254c0-1.697-1.046-2.546-3.14-2.546-1.433 0-2.87.288-4.312.863l-1.132-3.874c1.99-.811 4.106-1.217 6.35-1.217 2.705 0 4.694.637 5.968 1.91 1.121 1.093 1.682 2.752 1.682 4.977v9.008h-5.444v-1.626c-1.198 1.32-2.734 1.98-4.61 1.98-1.547 0-2.812-.432-3.797-1.294-.986-.863-1.478-2.067-1.478-3.613m5.303-.256c0 .529.179.947.537 1.253.358.308.825.461 1.4.461.811 0 1.469-.236 1.973-.709.504-.471.756-1.095.756-1.87v-.737c-.64-.264-1.357-.397-2.149-.397s-1.41.18-1.853.54c-.443.358-.664.844-.664 1.459"/></g><g><path fill="#322f31" d="M49.1 21.662V5.993h5.501v2.22c1.343-1.716 2.907-2.573 4.695-2.573 1.66 0 2.963.514 3.91 1.541.948 1.028 1.421 2.438 1.421 4.228v10.253h-5.5v-8.463c0-.837-.202-1.484-.604-1.94-.402-.456-.938-.684-1.61-.684-.69 0-1.248.23-1.673.692-.426.46-.639 1.104-.639 1.932v8.463z"/></g><g><path fill="#322f31" d="M66.01 12.893c0-1.085.184-2.087.552-3.01.367-.92.862-1.687 1.485-2.3a6.748 6.748 0 0 1 2.163-1.43 6.661 6.661 0 0 1 2.588-.513c1.084 0 2.006.188 2.764.564.759.376 1.478.912 2.157 1.609v-1.82h5.473V17.9c0 2.819-.672 4.903-2.016 6.25-1.466 1.472-3.76 2.207-6.88 2.207-2.894 0-5.51-.6-7.848-1.796l1.768-3.648c1.773.98 3.596 1.47 5.473 1.47 1.367 0 2.394-.33 3.083-.99.687-.661 1.032-1.624 1.032-2.888v-.613a7.665 7.665 0 0 1-2.1 1.745c-.769.426-1.68.639-2.737.639-1.98 0-3.634-.672-4.963-2.017-1.33-1.344-1.994-3.133-1.994-5.366m5.388.108c0 .877.3 1.604.903 2.182.603.577 1.375.865 2.316.865.923 0 1.682-.296 2.28-.887.598-.592.897-1.34.897-2.246 0-.877-.3-1.604-.897-2.181-.598-.578-1.357-.866-2.28-.866-.941 0-1.713.296-2.316.887-.602.591-.903 1.34-.903 2.246"/></g><g><path fill="#322f31" d="M85.29 21.663V.55h5.501v7.608c1.314-1.678 2.88-2.517 4.695-2.517 1.66 0 2.963.514 3.91 1.541.948 1.028 1.421 2.438 1.421 4.228v10.253h-5.5V13.2c0-.837-.202-1.484-.604-1.94-.402-.456-.938-.684-1.61-.684-.69 0-1.248.23-1.673.692-.426.46-.639 1.104-.639 1.932v8.463z"/></g><g><path fill="#322f31" d="M102.14 13.842c0-1.132.195-2.202.587-3.21a7.945 7.945 0 0 1 1.619-2.61 7.527 7.527 0 0 1 2.51-1.738 7.887 7.887 0 0 1 3.189-.644c1.31 0 2.479.229 3.507.686 1.027.457 1.857 1.084 2.489 1.88a8.496 8.496 0 0 1 1.435 2.723c.325 1.018.488 2.116.488 3.294 0 .5-.01.877-.028 1.132h-10.493c.217.857.62 1.51 1.209 1.958.589.448 1.317.672 2.185.672 1.225 0 2.385-.544 3.478-1.633l3.04 2.54c-1.668 2.1-3.94 3.152-6.815 3.152-1.631 0-3.083-.34-4.356-1.018a7.34 7.34 0 0 1-2.977-2.885c-.711-1.244-1.067-2.678-1.067-4.3m5.218-1.3h5.444c-.103-.877-.396-1.57-.877-2.079-.48-.51-1.093-.764-1.838-.764-.707 0-1.303.257-1.789.771-.485.514-.799 1.204-.94 2.072"/></g><g><path fill="#322f31" d="M120.01 21.663V5.995h5.501v3.153c.946-2.271 2.505-3.408 4.68-3.408h.284v5.784h-.468c-2.997 0-4.496 1.758-4.496 5.274v4.865z"/></g><g><path fill="url(#8zu4a)" d="M30.25 39.665c.223.19.514.285.872.285.505 0 .916-.145 1.23-.438.314-.293.471-.679.471-1.158v-.456a3.5 3.5 0 0 0-1.34-.246c-.493 0-.878.111-1.153.333-.277.222-.415.524-.415.904 0 .328.111.586.335.776zm-2.82-6.941a10.386 10.386 0 0 1 3.965-.76c1.69 0 2.933.396 3.728 1.192.701.684 1.051 1.721 1.051 3.112v5.63h-3.4v-1.017c-.748.826-1.708 1.238-2.88 1.238-.966 0-1.756-.27-2.372-.809-.616-.539-.923-1.291-.923-2.258 0-.99.345-1.75 1.033-2.28.69-.531 1.622-.796 2.8-.796.878 0 1.664.127 2.359.38v-.159c0-1.06-.654-1.59-1.96-1.59-.896 0-1.794.179-2.695.538zm16.859-.779v3.616h-.293c-1.874 0-2.812 1.098-2.812 3.297v3.04h-3.438v-9.794h3.438v1.972c.592-1.421 1.568-2.13 2.928-2.13zm-25.32 6.667c.386.422.861.633 1.422.633a1.87 1.87 0 0 0 1.436-.629c.384-.418.576-.964.576-1.636 0-.637-.194-1.165-.58-1.584a1.874 1.874 0 0 0-1.432-.628c-.56 0-1.036.21-1.422.632-.387.422-.58.96-.58 1.615 0 .643.193 1.176.58 1.598zm.775-6.327c.455-.268 1.02-.401 1.693-.401.581 0 1.134.118 1.656.357.523.239.984.574 1.384 1.003.4.432.715.97.947 1.618.232.649.348 1.36.348 2.132s-.116 1.483-.348 2.135c-.232.65-.546 1.194-.943 1.626-.396.434-.856.77-1.378 1.008a3.915 3.915 0 0 1-1.648.358c-.68 0-1.254-.126-1.724-.38a4.4 4.4 0 0 1-1.263-1.034V44.8h-3.44V32.104h3.44v1.3c.396-.478.822-.85 1.276-1.119zm48.047 6.283c.398.433.894.649 1.488.649.605 0 1.097-.212 1.473-.636.377-.423.565-.946.565-1.57 0-.607-.198-1.126-.591-1.56a1.924 1.924 0 0 0-1.483-.648c-.606 0-1.098.214-1.477.64-.38.426-.57.95-.57 1.567 0 .606.199 1.125.595 1.558zm-.693-6.274a5.767 5.767 0 0 1 2.18-.41c1.022 0 1.95.229 2.78.689a5.016 5.016 0 0 1 1.936 1.865c.461.783.692 1.642.692 2.572 0 .69-.138 1.348-.412 1.976a5.163 5.163 0 0 1-1.122 1.635c-.472.463-1.05.831-1.728 1.105a5.767 5.767 0 0 1-2.181.412c-.768 0-1.49-.137-2.167-.408a5.235 5.235 0 0 1-1.724-1.096A5.04 5.04 0 0 1 64.234 39a4.98 4.98 0 0 1-.406-1.989c0-.69.136-1.348.412-1.975a5.11 5.11 0 0 1 1.125-1.636 5.278 5.278 0 0 1 1.733-1.105zm19.62 2.608c-.304.32-.5.75-.589 1.29h3.404c-.065-.547-.248-.978-.548-1.294-.301-.317-.683-.475-1.15-.475-.441 0-.814.16-1.118.48zm-.903-2.617a4.95 4.95 0 0 1 1.994-.401c.82 0 1.55.142 2.193.428.643.286 1.161.678 1.557 1.176.394.498.694 1.064.897 1.7.203.637.305 1.324.305 2.06 0 .313-.006.549-.018.708h-6.56c.135.536.387.943.755 1.224.369.28.824.42 1.366.42.767 0 1.492-.34 2.176-1.02l1.901 1.587c-1.044 1.314-2.464 1.97-4.262 1.97-1.02 0-1.928-.212-2.724-.636a4.59 4.59 0 0 1-1.861-1.803c-.445-.778-.668-1.674-.668-2.688 0-.707.122-1.376.367-2.006a4.944 4.944 0 0 1 1.013-1.631c.43-.457.953-.82 1.569-1.088zm-36.464-2.658V32.1h2.282v2.774h-2.282v3.32c0 .342.077.592.23.747.153.157.393.235.716.235.42 0 .852-.11 1.3-.327v2.681c-.678.375-1.474.562-2.387.562-1.073 0-1.891-.258-2.454-.772-.563-.515-.844-1.337-.844-2.466v-3.98h-1.159V32.1h1.159v-2.473zm30.61 0V32.1h2.281v2.774h-2.281v3.32c0 .342.076.592.23.747.153.157.391.235.716.235.418 0 .851-.11 1.3-.327v2.681c-.678.375-1.474.562-2.388.562-1.073 0-1.89-.258-2.453-.772-.564-.515-.845-1.337-.845-2.466v-3.98h-1.159V32.1h1.16v-2.473zM5.633 36.89H8.48L7.066 33.3zm3.156-7.759l5.394 12.767h-3.767l-.928-2.264h-4.89l-.901 2.264H0l5.403-12.767zm47.579-.433v4.757c.822-1.05 1.8-1.574 2.936-1.574 1.037 0 1.853.321 2.445.963.592.643.889 1.524.889 2.644v6.41h-3.44v-5.29c0-.525-.126-.93-.377-1.214-.251-.285-.587-.427-1.007-.427-.431 0-.78.144-1.047.431-.266.288-.399.691-.399 1.21v5.29h-3.44v-13.2zm37.75-.018h3.44v13.218h-3.44z"/></g></g></svg>