<svg xmlns="http://www.w3.org/2000/svg" width="257" height="46" viewBox="0 0 257 46"><defs><linearGradient id="lvf6a" x1="1.76" x2="256.72" y1="36.32" y2="36.32" gradientUnits="userSpaceOnUse"><stop offset="0" stop-color="#f47c22"/><stop offset="1" stop-color="#ffcd02"/></linearGradient></defs><g><g><path fill="url(#lvf6a)" d="M247.229 40.642l1.426-2.304c1.25.826 2.49 1.24 3.72 1.24.638 0 .957-.205.957-.616 0-.195-.13-.356-.39-.483s-.71-.275-1.348-.444c-.482-.13-.892-.254-1.23-.371a6.549 6.549 0 0 1-1.036-.47 3.386 3.386 0 0 1-.844-.634 2.718 2.718 0 0 1-.523-.86 3.132 3.132 0 0 1-.205-1.161c0-1.127.4-2.004 1.201-2.632.801-.628 1.846-.943 3.135-.943.794 0 1.582.111 2.363.332a7.79 7.79 0 0 1 2.1.928l-1.299 2.393a9.369 9.369 0 0 0-1.7-.728c-.572-.179-1.073-.268-1.503-.268-.286 0-.505.049-.654.146a.463.463 0 0 0-.225.41c0 .196.129.357.386.484s.714.288 1.372.483c.482.137.892.267 1.23.39.339.124.684.284 1.036.48.351.195.633.406.844.634.212.228.386.51.523.845.136.335.205.711.205 1.128 0 1.165-.397 2.06-1.192 2.685-.794.625-1.868.938-3.222.938-1.934 0-3.643-.534-5.127-1.602zm-8.408-6.41v-3.055h1.279v-2.742h3.799v2.742h2.52v3.055h-2.52v3.66c0 .377.084.651.254.824.169.172.433.258.79.258.463 0 .941-.12 1.436-.36v2.976c-.749.416-1.627.624-2.637.624-1.184 0-2.088-.284-2.71-.854-.621-.569-.932-1.478-.932-2.727v-4.401zM226.76 42V31.18h3.809v1.523c.924-1.179 2.002-1.768 3.232-1.768 1.146 0 2.046.355 2.7 1.065.655.71.982 1.683.982 2.92V42h-3.8v-5.86c0-.58-.138-1.027-.414-1.343-.277-.315-.646-.473-1.109-.473-.475 0-.859.16-1.152.478-.293.32-.44.765-.44 1.338V42zm-8.936-6.3h3.76c-.071-.605-.273-1.083-.605-1.435-.332-.351-.755-.527-1.27-.527-.488 0-.9.177-1.235.532-.335.355-.552.832-.65 1.43zm-3.603.894c0-.78.135-1.519.405-2.215a5.484 5.484 0 0 1 1.118-1.8 5.2 5.2 0 0 1 1.734-1.2 5.46 5.46 0 0 1 2.202-.444c.905 0 1.712.158 2.422.473.71.316 1.282.748 1.719 1.298.436.55.766 1.176.99 1.878.225.703.338 1.46.338 2.274 0 .344-.007.605-.02.78h-7.246c.15.58.428 1.02.835 1.322.407.303.91.454 1.509.454.846 0 1.647-.368 2.402-1.103l2.1 1.737c-1.153 1.47-2.722 2.205-4.707 2.205-1.127 0-2.13-.234-3.008-.702a5.067 5.067 0 0 1-2.056-1.99c-.491-.86-.737-1.848-.737-2.967zM195.246 42V31.18h3.809v1.484c.905-1.153 1.976-1.729 3.213-1.729.716 0 1.344.153 1.885.46.54.305.953.741 1.24 1.308.501-.58 1.04-1.02 1.616-1.319.576-.3 1.242-.449 1.997-.449 1.159 0 2.066.347 2.72 1.04.654.694.981 1.668.981 2.925V42h-3.799v-5.88c0-.579-.131-1.023-.395-1.332-.264-.31-.623-.464-1.08-.464-.461 0-.837.156-1.127.469-.29.312-.435.755-.435 1.328V42h-3.799v-5.88c0-.579-.133-1.023-.4-1.332-.267-.31-.628-.464-1.084-.464-.462 0-.833.156-1.113.469-.28.312-.42.755-.42 1.328V42zm-9.228-7.768v-3.055h1.28v-2.742h3.798v2.742h2.52v3.055h-2.52v3.66c0 .377.085.651.254.824.17.172.433.258.79.258.463 0 .942-.12 1.436-.36v2.976c-.748.416-1.627.624-2.636.624-1.185 0-2.089-.284-2.71-.854-.622-.569-.933-1.478-.933-2.727v-4.401zM178.078 42V31.18h3.804v2.177c.65-1.569 1.723-2.353 3.218-2.353h.195v3.994h-.322c-2.06 0-3.091 1.214-3.091 3.642V42zm-8.847-3.32c0 .364.123.652.37.864.248.211.57.317.968.317.56 0 1.014-.163 1.362-.488.348-.326.522-.756.522-1.29v-.507a3.865 3.865 0 0 0-1.484-.274c-.547 0-.973.124-1.28.371-.305.248-.458.583-.458 1.006zm-3.662.175c0-1.094.38-1.934 1.141-2.52.761-.585 1.792-.878 3.093-.878.969 0 1.837.14 2.605.42V35.7c0-1.172-.722-1.758-2.166-1.758-.989 0-1.98.199-2.976.596l-.78-2.676c1.372-.56 2.832-.84 4.38-.84 1.867 0 3.24.44 4.118 1.318.774.756 1.16 1.901 1.16 3.438v6.22h-3.756v-1.122c-.826.911-1.886 1.367-3.18 1.367-1.067 0-1.94-.298-2.62-.894-.68-.596-1.02-1.427-1.02-2.495zM156.31 36.6c0 .71.213 1.297.64 1.763.426.465.948.698 1.567.698.631 0 1.159-.231 1.582-.693.423-.462.635-1.065.635-1.807 0-.703-.214-1.286-.64-1.748a2.061 2.061 0 0 0-1.577-.693c-.619 0-1.141.233-1.568.698-.426.465-.64 1.06-.64 1.782zm-3.72 8.594V31.179h3.808v1.435c.436-.527.905-.939 1.406-1.235.501-.296 1.123-.444 1.865-.444.645 0 1.257.132 1.836.395a4.79 4.79 0 0 1 1.533 1.108c.443.475.793 1.07 1.05 1.786s.386 1.5.386 2.352a6.95 6.95 0 0 1-.386 2.356c-.257.72-.605 1.318-1.045 1.796-.44.478-.949.85-1.528 1.113a4.362 4.362 0 0 1-1.826.395c-.749 0-1.382-.14-1.9-.42a4.86 4.86 0 0 1-1.391-1.142v4.519zm-10.577-8.711h3.154l-1.567-3.984zM135.794 42l5.97-14.102h3.742L151.467 42h-4.163l-1.026-2.5h-5.403l-.997 2.5zm-13.995-10.342c0 .469.24 1.002.723 1.601.508-.221.882-.473 1.123-.756.24-.284.361-.617.361-1.001 0-.339-.1-.61-.298-.816-.198-.205-.46-.307-.786-.307a1.04 1.04 0 0 0-.81.346c-.209.231-.313.542-.313.933zm-1.318 6.338c0 .41.153.744.459 1 .306.258.7.386 1.181.386.508 0 1.062-.201 1.66-.605l-2.294-2.334c-.671.404-1.006.921-1.006 1.553zm-3.877.166c0-1.765.948-3.073 2.844-3.926-.613-.872-.919-1.777-.919-2.715 0-1.061.4-1.96 1.202-2.695.802-.736 1.867-1.104 3.196-1.104 1.25 0 2.257.342 3.02 1.026.762.683 1.143 1.552 1.143 2.607 0 1.582-.912 2.796-2.736 3.643l1.554 1.523c.43-.625.87-1.364 1.319-2.217l2.57 1.28c-.625 1.152-1.24 2.138-1.847 2.959l1.886 1.855-2.629 1.885-1.436-1.465c-1.251.95-2.639 1.426-4.163 1.426-1.466 0-2.667-.365-3.602-1.094-.935-.73-1.402-1.725-1.402-2.988zm-15.137-2.12c0 .6.208 1.096.625 1.49.417.394.95.59 1.602.59.638 0 1.163-.201 1.577-.605.413-.403.62-.915.62-1.533 0-.599-.207-1.095-.62-1.49-.414-.393-.94-.59-1.577-.59-.651 0-1.185.202-1.602.605-.417.404-.625.915-.625 1.534zm-3.72-.062c0-.754.126-1.452.38-2.093.254-.64.596-1.174 1.026-1.6a4.658 4.658 0 0 1 3.28-1.352c.75 0 1.386.132 1.91.395.524.264 1.02.64 1.49 1.128v-1.279h3.798v8.217c0 1.945-.465 3.383-1.396 4.313-1.016 1.015-2.605 1.523-4.766 1.523-1.999 0-3.805-.413-5.42-1.24l1.22-2.517c1.225.676 2.484 1.015 3.78 1.015.944 0 1.654-.226 2.129-.679.475-.452.713-1.11.713-1.976v-.42c-.436.502-.92.897-1.45 1.186-.53.29-1.16.435-1.89.435-1.367 0-2.51-.46-3.428-1.381-.918-.92-1.377-2.146-1.377-3.675zM85.47 42V31.18h3.809v1.523c.924-1.179 2.001-1.768 3.232-1.768 1.146 0 2.046.355 2.7 1.065.654.71.982 1.683.982 2.92V42h-3.8v-5.86c0-.58-.138-1.027-.414-1.343-.277-.315-.646-.473-1.109-.473-.475 0-.859.16-1.152.478-.293.32-.44.765-.44 1.338V42zm-5.908 0V31.18h3.799V42zm-.088-11.797V27.4h3.975v2.803zM67.425 42V27.4h3.811v7.402l2.942-3.623h4.3l-3.762 4.336L78.576 42h-4.183l-2.18-3.682-.977 1.143V42zm-8.556 0V31.18h3.809v2.177c.651-1.569 1.725-2.353 3.223-2.353h.195v3.994h-.322c-2.064 0-3.096 1.214-3.096 3.642V42zm-9.853-5.4c0 .67.22 1.244.659 1.723.44.478.988.718 1.646.718.67 0 1.214-.235 1.63-.703.417-.47.625-1.049.625-1.739 0-.67-.218-1.245-.654-1.723a2.127 2.127 0 0 0-1.64-.718c-.671 0-1.216.236-1.636.708-.42.472-.63 1.05-.63 1.733zm-3.701-.006c0-.76.151-1.488.454-2.18a5.651 5.651 0 0 1 1.241-1.806 5.83 5.83 0 0 1 1.911-1.22 6.362 6.362 0 0 1 2.405-.453c1.127 0 2.148.254 3.064.761a5.53 5.53 0 0 1 2.135 2.059c.508.865.763 1.811.763 2.84 0 .76-.152 1.487-.455 2.18a5.69 5.69 0 0 1-1.236 1.805 5.774 5.774 0 0 1-1.906 1.22c-.75.302-1.55.453-2.405.453a6.36 6.36 0 0 1-2.39-.449 5.764 5.764 0 0 1-1.9-1.21 5.555 5.555 0 0 1-1.232-1.804 5.492 5.492 0 0 1-.45-2.196zM28.264 31.18h3.72l1.417 5.44 1.66-5.479h3.135l1.68 5.518 1.464-5.479h3.662l-3.34 10.899h-3.28l-1.759-5.616-1.806 5.616h-3.262zM19.68 36.6c0 .67.22 1.245.66 1.724.439.478.987.718 1.645.718.67 0 1.214-.235 1.63-.703.417-.47.625-1.049.625-1.739 0-.67-.218-1.245-.654-1.723a2.127 2.127 0 0 0-1.64-.718c-.671 0-1.216.236-1.636.708-.42.472-.63 1.05-.63 1.733zm-3.701-.005c0-.76.151-1.488.454-2.18a5.651 5.651 0 0 1 1.24-1.806 5.825 5.825 0 0 1 1.91-1.22 6.352 6.352 0 0 1 2.402-.453c1.126 0 2.146.254 3.061.761a5.527 5.527 0 0 1 2.896 4.898c0 .761-.152 1.488-.454 2.18a5.69 5.69 0 0 1-1.236 1.806c-.52.51-1.155.917-1.904 1.22a6.352 6.352 0 0 1-2.402.453 6.35 6.35 0 0 1-2.388-.449 5.759 5.759 0 0 1-1.9-1.21 5.555 5.555 0 0 1-1.23-1.804 5.496 5.496 0 0 1-.45-2.196zM1.76 34.998c0-1.01.187-1.962.562-2.857a7.114 7.114 0 0 1 1.533-2.314 7.09 7.09 0 0 1 2.348-1.538 7.65 7.65 0 0 1 2.94-.567c2.493 0 4.453.987 5.879 2.96l-2.842 2.197c-.866-1.081-1.895-1.622-3.086-1.622-.97 0-1.77.36-2.397 1.08-.629.719-.943 1.606-.943 2.66 0 1.062.314 1.95.943 2.667.628.716 1.427 1.074 2.397 1.074.684 0 1.265-.142 1.743-.425.479-.283.952-.708 1.421-1.274l2.92 2.08a9.131 9.131 0 0 1-1.509 1.64c-.53.443-1.198.808-2.002 1.094-.804.287-1.7.43-2.69.43-1.322 0-2.533-.311-3.633-.933a6.894 6.894 0 0 1-2.617-2.607c-.645-1.117-.967-2.365-.967-3.745z"/></g><g><g><path fill="#322f31" d="M.08 18.666l3.22-3.827c2.08 1.662 4.332 2.493 6.752 2.493.762 0 1.345-.128 1.75-.384s.608-.625.608-1.108c0-.445-.239-.808-.716-1.088s-1.4-.58-2.77-.899a56.291 56.291 0 0 1-1.835-.456c-.52-.14-1.07-.317-1.652-.53a9.882 9.882 0 0 1-1.485-.666 7.895 7.895 0 0 1-1.194-.84 4.404 4.404 0 0 1-.931-1.066 5.209 5.209 0 0 1-.561-1.34 6.34 6.34 0 0 1-.21-1.682c0-1.961.729-3.56 2.188-4.798C4.704 1.24 6.664.62 9.127.62c3.414 0 6.268.918 8.56 2.753l-2.893 4.074c-1.942-1.362-3.88-2.044-5.812-2.044-.675 0-1.19.128-1.548.384-.357.257-.535.592-.535 1.008 0 .483.24.857.716 1.123.477.265 1.434.563 2.871.892 1.273.28 2.355.586 3.247.92a10.58 10.58 0 0 1 2.406 1.254c.712.502 1.243 1.113 1.592 1.834.349.72.523 1.562.523 2.529 0 2.097-.764 3.75-2.293 4.957-1.53 1.208-3.571 1.811-6.126 1.811-1.878 0-3.66-.292-5.343-.877-1.685-.584-3.155-1.441-4.412-2.572"/></g><g><path fill="#322f31" d="M19.17 10.25V5.698h1.9V1.64h5.64v4.058h3.742v4.552h-3.741v5.447c0 .562.126.97.377 1.227.251.257.643.385 1.175.385.686 0 1.396-.18 2.131-.537v4.399c-1.112.614-2.417.922-3.915.922-1.76 0-3.101-.422-4.025-1.267-.923-.845-1.385-2.193-1.385-4.047V10.25z"/></g><g><path fill="#322f31" d="M31.78 17.085c0-1.624.566-2.87 1.697-3.74 1.13-.869 2.663-1.304 4.597-1.304 1.44 0 2.731.207 3.871.623v-.26c0-1.74-1.072-2.61-3.219-2.61-1.47 0-2.944.294-4.423.884l-1.16-3.97c2.04-.833 4.21-1.248 6.511-1.248 2.775 0 4.815.653 6.12 1.956 1.15 1.122 1.726 2.822 1.726 5.103v9.233h-5.583v-1.667c-1.228 1.353-2.804 2.029-4.728 2.029-1.586 0-2.883-.442-3.893-1.326-1.011-.884-1.516-2.118-1.516-3.703m5.438-.26c0 .54.183.968.55 1.28.367.314.844.47 1.432.47.83 0 1.503-.24 2.02-.723.516-.481.773-1.118.773-1.909v-.752c-.656-.27-1.389-.405-2.199-.405-.81 0-1.442.183-1.896.55-.454.366-.68.863-.68 1.49"/></g><g><path fill="#322f31" d="M50.06 21.753V5.693h5.641v2.275c1.377-1.759 2.982-2.638 4.815-2.638 1.702 0 3.038.527 4.01 1.58.971 1.053 1.457 2.498 1.457 4.334v10.509h-5.641v-8.675c0-.857-.206-1.52-.619-1.988-.412-.467-.962-.7-1.65-.7-.709 0-1.28.235-1.717.708-.436.472-.655 1.132-.655 1.98v8.675z"/></g><g><path fill="#322f31" d="M68.21 11.344c0-1.494.283-2.905.849-4.23a10.436 10.436 0 0 1 2.327-3.428c.986-.96 2.173-1.719 3.56-2.278C76.334.85 77.82.57 79.406.57c1.754 0 3.305.259 4.655.777 1.35.517 2.603 1.28 3.76 2.286l-3.376 4.054c-.772-.648-1.555-1.131-2.346-1.45-.792-.319-1.68-.478-2.665-.478-1.498 0-2.76.547-3.785 1.642-1.025 1.096-1.537 2.438-1.537 4.029 0 1.696.53 3.095 1.588 4.198 1.059 1.103 2.41 1.654 4.054 1.654 1.343 0 2.455-.3 3.335-.9v-2.608h-4.133v-4.16h9.571v9.387c-2.602 2.12-5.604 3.18-9.005 3.18-2.137 0-4.066-.457-5.787-1.372a10.172 10.172 0 0 1-4.053-3.857c-.981-1.657-1.472-3.526-1.472-5.608"/></g><g><path fill="#322f31" d="M91.11 21.76V.12h5.641v7.799c1.348-1.721 2.953-2.581 4.815-2.581 1.702 0 3.038.527 4.01 1.58.971 1.053 1.457 2.498 1.457 4.333v10.51h-5.641v-8.675c0-.858-.206-1.52-.619-1.988-.412-.468-.962-.701-1.65-.701-.709 0-1.28.236-1.717.709-.436.472-.655 1.131-.655 1.98v8.675z"/></g><g><path fill="#322f31" d="M108.39 13.737c0-1.16.2-2.256.602-3.29a8.137 8.137 0 0 1 1.66-2.674 7.719 7.719 0 0 1 2.574-1.783c1.01-.44 2.1-.66 3.27-.66 1.344 0 2.543.235 3.597.703 1.053.47 1.904 1.112 2.552 1.928a8.702 8.702 0 0 1 1.472 2.79c.333 1.044.5 2.17.5 3.378 0 .512-.01.899-.029 1.159h-10.76c.222.879.635 1.548 1.24 2.007.604.46 1.35.689 2.24.689 1.257 0 2.446-.557 3.568-1.674l3.117 2.603c-1.71 2.154-4.04 3.231-6.99 3.231-1.672 0-3.16-.348-4.466-1.043a7.526 7.526 0 0 1-3.052-2.958c-.73-1.275-1.095-2.744-1.095-4.406m5.35-1.339h5.584c-.106-.896-.406-1.605-.9-2.125-.492-.52-1.12-.78-1.884-.78-.725 0-1.337.262-1.835.788-.498.525-.819 1.23-.964 2.117"/></g><g><path fill="#322f31" d="M126.72 21.76V5.7h5.641v3.233c.97-2.328 2.57-3.493 4.8-3.493h.29v5.928h-.48c-3.073 0-4.61 1.802-4.61 5.407v4.986z"/></g></g></g></svg>