<svg xmlns="http://www.w3.org/2000/svg" width="138" height="43" viewBox="0 0 138 43"><defs><linearGradient id="td17a" x1=".23" x2="115.67" y1="35.9" y2="35.9" gradientUnits="userSpaceOnUse"><stop offset="0" stop-color="#f47c22"/><stop offset="1" stop-color="#ffcd02"/></linearGradient></defs><g><g><path fill="#322f31" d="M0 18.556l3.218-3.827c2.08 1.662 4.33 2.493 6.75 2.493.761 0 1.344-.128 1.749-.384.404-.256.607-.625.607-1.108 0-.445-.239-.808-.716-1.088s-1.4-.58-2.768-.899a56.267 56.267 0 0 1-1.834-.456c-.52-.14-1.07-.317-1.652-.53a9.874 9.874 0 0 1-1.484-.666 7.856 7.856 0 0 1-1.193-.84 4.401 4.401 0 0 1-.931-1.066 5.215 5.215 0 0 1-.56-1.341 6.336 6.336 0 0 1-.211-1.681c0-1.962.729-3.56 2.187-4.798C4.621 1.13 6.581.51 9.042.51c3.413 0 6.265.918 8.557 2.753l-2.892 4.074c-1.942-1.362-3.878-2.044-5.81-2.044-.674 0-1.19.128-1.546.384-.357.257-.535.592-.535 1.008 0 .483.239.857.715 1.123.477.265 1.434.563 2.87.891 1.272.281 2.354.587 3.245.92.891.334 1.693.752 2.405 1.255.712.502 1.243 1.113 1.591 1.833.349.72.523 1.563.523 2.53 0 2.096-.764 3.749-2.292 4.957-1.529 1.208-3.569 1.811-6.123 1.811-1.877 0-3.657-.292-5.34-.877-1.684-.584-3.154-1.441-4.41-2.572"/></g><g><path fill="#322f31" d="M19.09 10.13V5.578h1.898V1.52h5.639v4.058h3.74v4.552h-3.74v5.447c0 .561.126.97.377 1.227.251.257.643.385 1.174.385.686 0 1.396-.18 2.131-.537v4.398c-1.111.615-2.416.922-3.914.922-1.759 0-3.1-.422-4.022-1.266-.923-.845-1.385-2.194-1.385-4.047V10.13z"/></g><g><path fill="#322f31" d="M31.69 16.975c0-1.624.565-2.87 1.696-3.74 1.13-.87 2.662-1.304 4.595-1.304 1.44 0 2.73.207 3.87.622v-.26c0-1.74-1.073-2.609-3.218-2.609-1.47 0-2.943.294-4.42.884l-1.16-3.971C35.09 5.765 37.26 5.35 39.56 5.35c2.774 0 4.813.652 6.118 1.956 1.15 1.122 1.724 2.822 1.724 5.103v9.233h-5.58v-1.667c-1.228 1.353-2.803 2.029-4.725 2.029-1.585 0-2.883-.442-3.892-1.326-1.01-.884-1.515-2.119-1.515-3.703m5.435-.261c0 .541.184.969.551 1.282.367.315.846.471 1.435.471.831 0 1.505-.24 2.022-.724.517-.483.775-1.121.775-1.913v-.754c-.657-.27-1.39-.406-2.202-.406s-1.445.183-1.9.55c-.454.368-.68.866-.68 1.494"/></g><g><path fill="#322f31" d="M49.96 21.643V5.583h5.638v2.275c1.377-1.759 2.98-2.638 4.813-2.638 1.7 0 3.037.526 4.008 1.58.97 1.053 1.456 2.498 1.456 4.334v10.509h-5.638v-8.675c0-.858-.206-1.52-.618-1.988-.412-.467-.962-.701-1.65-.701-.708 0-1.28.236-1.716.708-.436.472-.654 1.133-.654 1.98v8.676z"/></g><g><path fill="#322f31" d="M68.1 11.225c0-1.495.282-2.905.848-4.23a10.425 10.425 0 0 1 2.327-3.428c.985-.96 2.171-1.72 3.558-2.278C76.22.729 77.705.45 79.29.45c1.754 0 3.304.26 4.653.777a12.546 12.546 0 0 1 3.758 2.286l-3.374 4.054c-.772-.647-1.554-1.13-2.345-1.45-.79-.318-1.679-.478-2.663-.478-1.498 0-2.758.548-3.783 1.643S74 9.719 74 11.31c0 1.696.529 3.095 1.587 4.198 1.058 1.103 2.408 1.654 4.05 1.654 1.344 0 2.455-.3 3.335-.899v-2.608H78.84v-4.16h9.566v9.386c-2.6 2.12-5.601 3.18-9.001 3.18-2.136 0-4.064-.457-5.783-1.372a10.164 10.164 0 0 1-4.051-3.857c-.981-1.656-1.472-3.525-1.472-5.607"/></g><g><path fill="#322f31" d="M91 21.641V0h5.639v7.8c1.347-1.722 2.951-2.582 4.812-2.582 1.7 0 3.037.527 4.008 1.58.971 1.053 1.456 2.498 1.456 4.334v10.51h-5.638v-8.676c0-.858-.207-1.52-.618-1.988-.413-.467-.962-.701-1.65-.701-.708 0-1.28.236-1.716.709-.436.472-.654 1.132-.654 1.98v8.675z"/></g><g><path fill="#322f31" d="M108.27 13.627c0-1.16.2-2.256.602-3.29a8.14 8.14 0 0 1 1.66-2.674 7.719 7.719 0 0 1 2.572-1.783 8.092 8.092 0 0 1 3.269-.66c1.342 0 2.541.235 3.594.703 1.053.47 1.904 1.111 2.551 1.928a8.701 8.701 0 0 1 1.472 2.79c.333 1.044.5 2.17.5 3.377 0 .513-.01.899-.03 1.16h-10.755c.223.879.635 1.548 1.24 2.007.604.46 1.35.689 2.24.689 1.256 0 2.444-.557 3.565-1.674l3.116 2.603c-1.71 2.154-4.039 3.23-6.986 3.23-1.672 0-3.16-.347-4.464-1.043a7.512 7.512 0 0 1-3.051-2.957c-.73-1.275-1.095-2.744-1.095-4.406m5.349-1.334h5.58c-.107-.898-.406-1.608-.9-2.13-.491-.522-1.12-.783-1.883-.783-.724 0-1.336.264-1.834.79-.497.527-.818 1.235-.963 2.123"/></g><g><path fill="#322f31" d="M126.58 21.642V5.58h5.638v3.232c.97-2.328 2.568-3.493 4.798-3.493h.29v5.928h-.48c-3.071 0-4.607 1.803-4.607 5.408v4.986z"/></g><g><path fill="url(#td17a)" d="M20.906 32.349v5.424c0 .53-.137.944-.412 1.238-.275.296-.628.444-1.057.444-.436 0-.783-.147-1.044-.44-.26-.291-.39-.705-.39-1.242V32.35h-3.529v6.571c0 1.148.304 2.051.912 2.71.608.658 1.444.988 2.508.988 1.168 0 2.171-.538 3.012-1.613v1.386h3.53V32.35zm70.47 0v5.424c0 .53-.137.944-.412 1.238-.275.296-.628.444-1.056.444-.435 0-.782-.147-1.042-.44-.26-.291-.39-.705-.39-1.242V32.35H84.95v6.571c0 1.148.304 2.051.911 2.71.608.658 1.443.988 2.506.988 1.166 0 2.169-.538 3.009-1.613v1.386h3.526V32.35zm-54.478 3.175c0 .388.063.738.19 1.049.127.312.29.57.485.776.197.205.458.396.785.572.326.176.646.317.96.423.314.105.695.217 1.142.335.592.152 1.01.286 1.251.4.241.115.362.26.362.437 0 .37-.296.555-.887.555-1.143 0-2.294-.373-3.454-1.12l-1.323 2.136c1.377 1.02 2.964 1.531 4.758 1.531 1.257 0 2.254-.295 2.991-.883.737-.588 1.106-1.43 1.106-2.527a2.61 2.61 0 0 0-.19-1.018 2.486 2.486 0 0 0-.485-.763 3.153 3.153 0 0 0-.784-.572 6.825 6.825 0 0 0-.961-.431c-.314-.112-.695-.23-1.142-.353-.61-.176-1.035-.322-1.273-.436-.24-.115-.358-.26-.358-.436 0-.16.069-.283.208-.37.139-.089.341-.133.607-.133.4 0 .864.081 1.396.243.532.161 1.057.38 1.577.656l1.206-2.238a7.12 7.12 0 0 0-1.949-.89 7.782 7.782 0 0 0-2.194-.318c-1.195 0-2.166.297-2.91.89-.742.593-1.114 1.422-1.114 2.485zm59.433 0c0 .388.062.738.19 1.049.127.312.29.57.485.776.197.205.459.396.786.572.326.176.647.317.96.423.316.105.696.217 1.145.335.592.152 1.01.286 1.251.4.242.115.363.26.363.437 0 .37-.296.555-.888.555-1.144 0-2.296-.373-3.458-1.12l-1.325 2.136c1.38 1.02 2.968 1.531 4.764 1.531 1.258 0 2.256-.295 2.995-.883.737-.588 1.106-1.43 1.106-2.527 0-.377-.063-.716-.19-1.018a2.467 2.467 0 0 0-.486-.763 3.132 3.132 0 0 0-.785-.572 6.808 6.808 0 0 0-.961-.431 16.86 16.86 0 0 0-1.144-.353c-.61-.176-1.036-.322-1.274-.436-.24-.115-.359-.26-.359-.436 0-.16.07-.283.21-.37.138-.089.34-.133.607-.133.4 0 .865.081 1.397.243.533.161 1.059.38 1.58.656l1.206-2.238a7.12 7.12 0 0 0-1.951-.89 7.788 7.788 0 0 0-2.195-.318c-1.199 0-2.17.297-2.914.89-.743.593-1.115 1.422-1.115 2.485zm-65.52-.801c.477 0 .87.164 1.18.492.307.328.494.775.56 1.34h-3.489c.09-.559.291-1.004.603-1.335.311-.33.694-.497 1.146-.497zm-3.68-1.072a5.103 5.103 0 0 0-1.038 1.673 5.673 5.673 0 0 0-.375 2.06c0 1.04.228 1.96.683 2.758a4.714 4.714 0 0 0 1.909 1.851c.816.435 1.746.653 2.791.653 1.843 0 3.3-.674 4.37-2.022l-1.95-1.63c-.7.699-1.444 1.048-2.23 1.048-.555 0-1.022-.143-1.4-.431-.377-.287-.635-.706-.774-1.256h6.725a10.9 10.9 0 0 0 .018-.726c0-.756-.104-1.46-.313-2.114a5.469 5.469 0 0 0-.92-1.747c-.405-.51-.936-.913-1.595-1.206-.658-.293-1.408-.44-2.248-.44-.73 0-1.412.138-2.044.413a4.821 4.821 0 0 0-1.608 1.116zm48.95 3.728c0-.635.196-1.17.585-1.609.39-.437.896-.657 1.52-.657.61 0 1.116.222 1.522.666.405.445.607.978.607 1.6 0 .64-.193 1.178-.58 1.613-.387.436-.892.653-1.514.653a1.99 1.99 0 0 1-1.528-.666 2.28 2.28 0 0 1-.612-1.6zm-1.877-3.702a5.256 5.256 0 0 0-1.153 1.68 5.004 5.004 0 0 0-.423 2.028c0 .713.14 1.393.418 2.04.279.647.66 1.207 1.145 1.679a5.36 5.36 0 0 0 1.767 1.125 5.912 5.912 0 0 0 2.222.417 5.91 5.91 0 0 0 2.235-.422 5.354 5.354 0 0 0 1.771-1.134 5.272 5.272 0 0 0 1.15-1.679c.282-.643.423-1.32.423-2.026a5.145 5.145 0 0 0-2.695-4.554c-.85-.473-1.8-.71-2.848-.71-.794 0-1.539.142-2.235.423a5.435 5.435 0 0 0-1.777 1.133zm36.432 1.046c.478 0 .871.164 1.18.492.307.328.494.775.561 1.34h-3.49c.091-.559.292-1.004.604-1.335.31-.33.693-.497 1.145-.497zm-3.678-1.072a5.1 5.1 0 0 0-1.038 1.673 5.657 5.657 0 0 0-.376 2.06c0 1.04.228 1.96.684 2.758a4.715 4.715 0 0 0 1.91 1.851c.816.435 1.748.653 2.794.653 1.845 0 3.303-.674 4.374-2.022l-1.951-1.63c-.702.699-1.446 1.048-2.232 1.048-.557 0-1.024-.143-1.402-.431-.378-.287-.636-.706-.776-1.256h6.732c.012-.164.018-.406.018-.726 0-.756-.104-1.46-.312-2.114a5.48 5.48 0 0 0-.921-1.747c-.406-.51-.938-.913-1.597-1.206-.66-.293-1.41-.44-2.25-.44-.732 0-1.414.138-2.046.413a4.832 4.832 0 0 0-1.61 1.116zm-60.003-3.84v2.538h-1.188v2.845h1.188v4.084c0 1.158.288 2.002.865 2.53s1.415.792 2.515.792c.937 0 1.752-.192 2.448-.576v-2.751c-.46.224-.904.336-1.333.336-.332 0-.577-.08-.733-.24-.158-.16-.237-.417-.237-.768v-3.407h2.339V32.35h-2.34V29.81zm20.574-.417v4.894h-4.622v-4.894h-3.599V42.39h3.599v-4.939h4.622v4.94h3.6V29.393zM2.215 31.089c-.616.6-1.1 1.315-1.455 2.143-.353.83-.53 1.71-.53 2.645 0 1.303.307 2.471.92 3.507a6.353 6.353 0 0 0 2.534 2.412c1.075.572 2.28.858 3.616.858 2.126 0 4.002-.663 5.629-1.988v-5.87H6.946v2.6H9.53v1.632c-.55.375-1.245.563-2.084.563-1.027 0-1.871-.345-2.534-1.035-.66-.69-.992-1.565-.992-2.625 0-.994.32-1.834.961-2.52a3.112 3.112 0 0 1 2.366-1.026c.615 0 1.17.1 1.665.299.495.2.983.502 1.467.907l2.108-2.535a7.829 7.829 0 0 0-2.35-1.43c-.842-.324-1.812-.486-2.908-.486-.992 0-1.92.176-2.788.525-.866.35-1.609.824-2.225 1.424z"/></g></g></svg>