<svg xmlns="http://www.w3.org/2000/svg" width="135" height="45" viewBox="0 0 135 45"><defs><linearGradient id="vnuaa" x1=".23" x2="96.79" y1="36.32" y2="36.32" gradientUnits="userSpaceOnUse"><stop offset="0" stop-color="#9d1ebb"/><stop offset="1" stop-color="#e756bd"/></linearGradient></defs><g><g><path fill="#fff" d="M0 18.157l3.151-3.744c2.037 1.626 4.24 2.44 6.609 2.44.746 0 1.317-.126 1.713-.376.397-.251.595-.612.595-1.086 0-.434-.234-.789-.701-1.063-.467-.274-1.371-.567-2.71-.88-.69-.16-1.288-.309-1.797-.446a19.753 19.753 0 0 1-1.617-.518 9.694 9.694 0 0 1-1.453-.652 7.69 7.69 0 0 1-1.168-.823 4.303 4.303 0 0 1-.912-1.042 5.086 5.086 0 0 1-.55-1.312A6.205 6.205 0 0 1 .956 7.01c0-1.92.713-3.484 2.141-4.695C4.525 1.105 6.444.5 8.854.5c3.342 0 6.135.898 8.379 2.695L14.4 7.18c-1.901-1.333-3.797-2-5.688-2-.661 0-1.166.126-1.515.376-.35.25-.524.58-.524.986 0 .473.234.839.7 1.099.468.26 1.405.55 2.81.872 1.246.275 2.306.575 3.178.9.873.327 1.658.736 2.355 1.228.697.491 1.216 1.09 1.558 1.794.342.704.512 1.529.512 2.475 0 2.051-.748 3.668-2.244 4.85-1.497 1.182-3.495 1.773-5.995 1.773-1.838 0-3.582-.286-5.23-.858C2.669 20.103 1.23 19.263 0 18.157"/></g><g><path fill="#fff" d="M18.69 9.915V5.46h1.86V1.49h5.52v3.971h3.662v4.454H26.07v5.33c0 .549.123.95.37 1.2.245.251.629.376 1.149.376.672 0 1.367-.175 2.086-.525V20.6c-1.088.601-2.365.902-3.831.902-1.723 0-3.036-.413-3.94-1.24-.903-.826-1.355-2.146-1.355-3.959V9.915z"/></g><g><path fill="#fff" d="M31.03 16.605c0-1.589.554-2.809 1.66-3.66 1.108-.85 2.607-1.276 4.5-1.276 1.41 0 2.673.203 3.79.61v-.256c0-1.702-1.05-2.552-3.152-2.552-1.438 0-2.88.288-4.328.865L32.364 6.45c1.996-.813 4.12-1.22 6.373-1.22 2.715 0 4.712.638 5.99 1.915 1.125 1.096 1.688 2.76 1.688 4.992v9.034h-5.464V19.54c-1.202 1.324-2.744 1.986-4.627 1.986-1.552 0-2.822-.433-3.811-1.298-.989-.865-1.483-2.073-1.483-3.623m5.326-.256c0 .53.18.948.54 1.255.36.308.828.461 1.406.461.814 0 1.474-.236 1.98-.709.507-.473.76-1.097.76-1.872v-.737c-.643-.265-1.363-.398-2.158-.398-.795 0-1.416.18-1.86.54-.446.359-.668.846-.668 1.46"/></g><g><path fill="#fff" d="M48.92 21.179V5.464h5.521v2.227c1.348-1.721 2.918-2.581 4.712-2.581 1.666 0 2.974.515 3.925 1.546.95 1.03 1.426 2.444 1.426 4.24V21.18h-5.521V12.69c0-.84-.202-1.488-.606-1.946-.402-.457-.941-.685-1.615-.685-.693 0-1.253.23-1.68.693-.427.462-.641 1.108-.641 1.938v8.488z"/></g><g><path fill="#fff" d="M66.68 10.982c0-1.462.277-2.841.83-4.139a10.211 10.211 0 0 1 2.278-3.353c.966-.94 2.127-1.682 3.485-2.23C74.63.714 76.086.44 77.637.44c1.717 0 3.236.254 4.557.76a12.307 12.307 0 0 1 3.679 2.237L82.57 7.403c-.757-.633-1.522-1.106-2.296-1.418-.776-.312-1.644-.468-2.609-.468-1.466 0-2.7.536-3.704 1.608-1.003 1.071-1.504 2.385-1.504 3.941 0 1.66.518 3.029 1.554 4.108 1.036 1.079 2.358 1.618 3.967 1.618 1.315 0 2.403-.293 3.264-.88V13.36h-4.045V9.29h9.368v9.184c-2.547 2.075-5.485 3.112-8.814 3.112-2.092 0-3.979-.448-5.663-1.343a9.95 9.95 0 0 1-3.967-3.774c-.96-1.62-1.441-3.45-1.441-5.487"/></g><g><path fill="#fff" d="M89.1 21.175V0h5.521v7.63c1.32-1.682 2.89-2.524 4.712-2.524 1.666 0 2.974.515 3.925 1.546.95 1.03 1.426 2.444 1.426 4.24v10.283h-5.521v-8.488c0-.84-.202-1.488-.606-1.946-.402-.457-.941-.686-1.615-.686-.693 0-1.253.232-1.68.694-.427.462-.641 1.108-.641 1.938v8.488z"/></g><g><path fill="#fff" d="M106.01 13.336c0-1.134.196-2.208.589-3.22a7.977 7.977 0 0 1 1.624-2.616 7.559 7.559 0 0 1 2.52-1.745 7.938 7.938 0 0 1 3.2-.645c1.316 0 2.49.23 3.52.688 1.032.459 1.864 1.087 2.499 1.886.633.8 1.113 1.71 1.44 2.73.326 1.022.49 2.123.49 3.305 0 .501-.01.88-.029 1.134h-10.531c.218.86.622 1.515 1.214 1.965.591.449 1.322.673 2.192.673 1.23 0 2.394-.546 3.492-1.637l3.052 2.547c-1.675 2.107-3.956 3.16-6.842 3.16-1.637 0-3.094-.34-4.371-1.02a7.365 7.365 0 0 1-2.987-2.893c-.715-1.249-1.072-2.686-1.072-4.312m5.24-1.305h5.458c-.104-.879-.397-1.574-.879-2.085-.482-.51-1.096-.766-1.843-.766a2.37 2.37 0 0 0-1.793.774c-.487.515-.8 1.207-.943 2.077"/></g><g><path fill="#fff" d="M123.95 21.18V5.464h5.521v3.163c.949-2.279 2.514-3.418 4.697-3.418h.285v5.8h-.47c-3.008 0-4.512 1.764-4.512 5.29v4.88z"/></g><g><path fill="url(#vnuaa)" d="M69.847 31.652h3.452v9.827h-3.452zm-36.861-.035l1.527 5.01 1.332-4.975h3.331l-3.038 9.898h-2.984l-1.599-5.1-1.642 5.1h-2.966l-2.994-9.898h3.385l1.288 4.94 1.508-4.975zm24.986-.124v3.627h-.294c-1.88 0-2.821 1.103-2.821 3.308v3.05h-3.452v-9.826h3.452v1.978c.593-1.425 1.572-2.137 2.937-2.137zM16.95 38.14c.398.434.896.651 1.492.651.608 0 1.101-.213 1.48-.638.377-.426.566-.952.566-1.58 0-.608-.198-1.13-.593-1.564a1.93 1.93 0 0 0-1.488-.652c-.609 0-1.103.214-1.484.644-.38.427-.571.952-.571 1.573 0 .609.199 1.131.598 1.566zm-.696-6.297a5.794 5.794 0 0 1 2.188-.413c1.026 0 1.956.23 2.79.692a5.028 5.028 0 0 1 2.637 4.452c0 .692-.138 1.353-.414 1.982a5.17 5.17 0 0 1-1.125 1.641 5.257 5.257 0 0 1-1.735 1.108 5.794 5.794 0 0 1-2.188.413 5.795 5.795 0 0 1-2.176-.408 5.258 5.258 0 0 1-1.73-1.1 5.047 5.047 0 0 1-1.121-1.64 4.994 4.994 0 0 1-.41-1.996c0-.692.139-1.352.415-1.982a5.14 5.14 0 0 1 1.13-1.64 5.309 5.309 0 0 1 1.739-1.109zm26.993 6.297c.399.434.896.651 1.492.651.608 0 1.102-.213 1.48-.638.377-.426.566-.952.566-1.58 0-.608-.198-1.13-.593-1.564a1.93 1.93 0 0 0-1.488-.652c-.608 0-1.103.214-1.483.644-.382.427-.572.952-.572 1.573 0 .609.2 1.131.598 1.566zm-.696-6.297a5.794 5.794 0 0 1 2.188-.413c1.026 0 1.956.23 2.79.692a5.032 5.032 0 0 1 1.944 1.872c.462.786.694 1.646.694 2.58 0 .692-.138 1.353-.415 1.982a5.17 5.17 0 0 1-1.125 1.641 5.257 5.257 0 0 1-1.735 1.108 5.794 5.794 0 0 1-2.188.413 5.795 5.795 0 0 1-2.175-.408 5.258 5.258 0 0 1-1.731-1.1 5.047 5.047 0 0 1-1.121-1.64 4.994 4.994 0 0 1-.409-1.996c0-.692.138-1.352.414-1.982a5.14 5.14 0 0 1 1.13-1.64 5.309 5.309 0 0 1 1.739-1.109zm35.936 1.202c.844-1.077 1.826-1.615 2.947-1.615 1.041 0 1.86.323 2.454.967.595.644.893 1.528.893 2.651v6.43h-3.453v-5.307c0-.525-.126-.93-.379-1.217-.252-.285-.589-.428-1.01-.428-.433 0-.783.144-1.05.433-.268.289-.402.693-.402 1.212v5.308h-3.451v-9.827h3.451zm11.472 4.37c.379.362.864.543 1.456.543.58 0 1.057-.186 1.433-.557.375-.37.563-.84.563-1.408 0-.55-.188-1.007-.563-1.368-.376-.362-.854-.543-1.433-.543-.592 0-1.077.186-1.456.557-.379.37-.568.84-.568 1.408 0 .55.19 1.006.568 1.367zm-1.313-5.663a4.186 4.186 0 0 1 1.624-.322c.68 0 1.259.118 1.734.354.477.236.928.572 1.354 1.01v-1.142h3.435v7.467c0 1.769-.422 3.075-1.265 3.92-.92.923-2.36 1.384-4.318 1.384-1.816 0-3.458-.376-4.925-1.127l1.11-2.288c1.111.615 2.256.923 3.434.923.858 0 1.503-.207 1.935-.622.431-.414.647-1.017.647-1.81v-.385a4.802 4.802 0 0 1-1.318 1.094c-.481.267-1.054.401-1.717.401-1.242 0-2.28-.421-3.115-1.264-.834-.844-1.251-1.965-1.251-3.366 0-.68.115-1.31.345-1.887a4.16 4.16 0 0 1 .933-1.443c.39-.384.843-.683 1.358-.897zM4.252 29.028a6.93 6.93 0 0 1 2.67-.515c2.266 0 4.047.887 5.342 2.66L9.682 33.18c-.787-.994-1.722-1.49-2.804-1.49-.882 0-1.609.33-2.18.991-.57.662-.856 1.477-.856 2.447 0 .976.286 1.793.857 2.451.57.659 1.297.988 2.179.988.62 0 1.149-.13 1.584-.39.435-.26.865-.651 1.291-1.173l2.654 1.905a8.235 8.235 0 0 1-1.371 1.47c-.483.397-1.089.724-1.82.98-.73.257-1.546.385-2.445.385-1.201 0-2.3-.282-3.297-.846a6.244 6.244 0 0 1-2.37-2.369C.523 37.516.23 36.383.23 35.13c0-.919.17-1.784.508-2.599a6.463 6.463 0 0 1 1.387-2.104 6.404 6.404 0 0 1 2.127-1.399zm58.194-.808v6.722l2.669-3.29h3.901l-3.414 3.938 3.503 5.889H65.31l-1.977-3.344-.887 1.038v2.306h-3.449V28.22zm7.321 0h3.604v2.545h-3.604z"/></g></g></svg>