<?xml version="1.0" standalone="no"?>
<!DOCTYPE svg PUBLIC "-//W3C//DTD SVG 20010904//EN"
 "http://www.w3.org/TR/2001/REC-SVG-20010904/DTD/svg10.dtd">
<svg version="1.0" xmlns="http://www.w3.org/2000/svg"
 width="704.000000pt" height="704.000000pt" viewBox="0 0 704.000000 704.000000"
 preserveAspectRatio="xMidYMid meet">
<metadata>
Created by potrace 1.11, written by Peter Selinger 2001-2013
</metadata>
<g transform="translate(0.000000,704.000000) scale(0.100000,-0.100000)"
fill="#000000" stroke="none">
<path d="M3286 6843 c-1 -2 -49 -5 -107 -8 -129 -7 -190 -12 -254 -20 -27 -4
-61 -8 -75 -10 -91 -11 -132 -18 -186 -30 -34 -8 -73 -16 -85 -19 -99 -18
-333 -88 -404 -121 -16 -7 -55 -23 -85 -35 -51 -21 -220 -106 -265 -133 -10
-7 -39 -26 -65 -43 -25 -16 -53 -33 -62 -37 -10 -3 -18 -11 -18 -17 0 -5 -5
-10 -11 -10 -6 0 -30 -15 -53 -32 -22 -18 -50 -40 -60 -48 -79 -62 -232 -212
-295 -290 -20 -25 -42 -51 -49 -58 -59 -63 -228 -362 -258 -457 -2 -5 -17 -50
-34 -99 -16 -49 -32 -99 -35 -110 -2 -12 -7 -32 -10 -46 -18 -75 -33 -165 -29
-172 3 -4 2 -8 -3 -8 -4 0 -8 -15 -9 -33 0 -17 -4 -68 -8 -112 -12 -125 -7
-368 9 -465 3 -19 7 -48 10 -65 13 -105 59 -267 110 -394 101 -254 237 -431
474 -620 109 -86 232 -171 248 -171 6 0 13 -4 15 -9 5 -15 277 -151 413 -206
59 -24 392 -139 435 -150 8 -3 53 -16 100 -30 115 -35 284 -80 340 -91 14 -3
50 -12 80 -20 30 -9 64 -18 75 -20 11 -2 38 -8 60 -13 22 -5 54 -13 70 -17 17
-4 35 -8 40 -10 6 -1 21 -4 35 -7 14 -3 95 -24 180 -46 448 -115 646 -191 776
-295 115 -92 155 -178 150 -320 -2 -80 -7 -100 -35 -158 -38 -76 -101 -141
-181 -186 -55 -30 -149 -65 -205 -76 -16 -4 -41 -9 -55 -11 -115 -24 -523 -24
-646 -1 -11 2 -44 7 -74 11 -30 4 -64 9 -75 12 -11 2 -36 6 -55 8 -42 5 -273
60 -345 82 -65 20 -135 43 -160 53 -11 4 -36 13 -55 20 -19 7 -49 19 -67 26
-17 8 -34 14 -37 14 -15 0 -225 102 -366 178 -120 65 -434 271 -460 302 -3 3
-21 17 -40 30 -19 13 -38 29 -43 35 -5 6 -15 1 -28 -15 -12 -13 -40 -47 -64
-75 -24 -27 -71 -84 -105 -125 -34 -41 -82 -97 -105 -125 -24 -27 -98 -115
-165 -195 -67 -80 -131 -156 -143 -170 -12 -14 -44 -52 -71 -85 -28 -33 -55
-65 -61 -71 -5 -6 -25 -29 -43 -52 -19 -23 -43 -51 -54 -64 -10 -13 -27 -32
-36 -43 -9 -11 -50 -60 -91 -108 -84 -100 -86 -87 22 -174 40 -32 74 -61 77
-64 25 -29 307 -225 440 -305 110 -66 140 -82 300 -160 160 -78 180 -87 265
-122 28 -11 68 -27 90 -37 23 -9 47 -17 55 -19 8 -2 29 -9 45 -15 17 -7 35
-14 40 -15 6 -2 18 -6 27 -10 9 -4 22 -8 30 -10 7 -1 18 -4 23 -7 6 -4 60 -21
120 -38 61 -17 133 -38 160 -46 28 -8 82 -22 120 -30 39 -9 86 -20 106 -25 19
-5 52 -12 72 -14 21 -3 41 -7 45 -10 5 -3 28 -7 53 -11 24 -3 98 -14 164 -25
109 -17 178 -19 765 -19 504 0 660 3 715 13 39 8 84 16 100 19 25 4 134 28
195 42 111 25 385 120 453 156 20 11 37 18 37 16 0 -3 41 17 92 44 51 27 96
49 100 49 4 0 8 5 8 10 0 6 5 10 11 10 20 0 188 114 323 220 23 18 234 229
256 256 8 10 32 41 52 68 21 28 41 56 46 61 63 78 209 378 226 465 1 3 4 10 7
15 7 10 42 152 55 220 10 50 11 54 14 58 1 1 3 16 5 32 1 17 6 56 10 89 3 32
8 83 10 112 1 29 6 57 9 63 4 5 2 12 -3 15 -5 3 -6 20 -2 38 4 18 4 52 1 76
-4 23 -3 45 2 48 4 3 6 9 4 13 -3 3 -7 40 -11 81 -10 124 -31 276 -40 290 -2
4 -7 22 -10 41 -5 31 -28 112 -42 149 -3 8 -7 21 -9 28 -1 8 -10 30 -19 50
-106 230 -179 338 -334 493 -79 79 -245 213 -281 227 -8 3 -23 13 -33 22 -9 9
-30 23 -45 31 -15 7 -38 21 -52 30 -57 37 -368 199 -383 199 -3 0 -26 10 -53
22 -27 12 -53 23 -59 24 -5 1 -23 8 -40 15 -16 6 -34 13 -40 15 -5 2 -68 24
-140 49 -71 26 -139 49 -150 51 -28 7 -38 10 -55 17 -12 5 -249 72 -285 81 -5
1 -73 17 -150 35 -77 18 -147 35 -155 39 -8 3 -22 6 -30 8 -8 2 -31 6 -50 10
-19 4 -42 9 -50 10 -49 6 -545 140 -600 161 -8 4 -17 7 -20 8 -131 33 -311
126 -387 199 -34 33 -60 63 -57 68 3 4 1 8 -4 8 -5 0 -19 31 -32 69 -31 97
-24 220 17 300 61 119 207 217 365 246 13 3 46 9 73 14 50 10 428 8 475 -2 14
-3 48 -8 75 -12 139 -16 330 -60 472 -107 54 -18 100 -33 103 -33 3 -1 14 -5
25 -9 178 -68 230 -91 385 -169 97 -49 167 -89 384 -220 11 -7 31 -22 45 -34
14 -13 31 -23 37 -23 6 0 17 -7 24 -15 14 -17 50 -3 50 20 0 8 3 15 8 15 4 0
18 17 32 38 34 50 152 219 185 262 14 19 56 78 92 130 37 52 69 97 72 100 3 3
11 13 16 22 9 15 64 94 110 158 348 486 384 540 372 550 -100 86 -371 268
-489 330 -27 14 -48 28 -48 32 0 5 -8 8 -18 8 -10 0 -22 4 -28 9 -24 22 -239
123 -376 177 -217 85 -525 180 -648 200 -14 2 -36 7 -50 10 -67 16 -121 26
-205 38 -22 3 -49 8 -60 10 -11 2 -49 7 -85 11 -36 4 -74 9 -85 11 -11 2 -49
7 -85 10 -36 3 -85 7 -110 9 -87 9 -549 23 -554 18z"/>
</g>
</svg>
