<?xml version="1.0" encoding="UTF-8"?>
<svg width="60px" height="60px" viewBox="0 0 60 60" version="1.1" xmlns="http://www.w3.org/2000/svg" xmlns:xlink="http://www.w3.org/1999/xlink">
    <!-- Generator: Sketch 47.1 (45422) - http://www.bohemiancoding.com/sketch -->
    <title>61-icon</title>
    <desc>Created with Sketch.</desc>
    <defs></defs>
    <g id="Page-1" stroke="none" stroke-width="1" fill="none" fill-rule="evenodd">
        <g id="2-1-projects" transform="translate(-692.000000, -5274.000000)">
            <g id="Group-10" transform="translate(540.000000, 5190.000000)">
                <g id="Group-9" transform="translate(97.000000, 84.000000)">
                    <g id="61-icon" transform="translate(55.000000, 0.000000)">
                        <polygon id="Fill-1" fill="#FAAB18" points="0 60 60 60 60 0 0 0"></polygon>
                        <path d="M16.3386409,31.9567031 L15.6506748,31.8407717 L17.7145731,30.6314087 L14.2177934,31.5532416 L17.2564375,29.9409278 L20.1222002,29.1922258 L19.6645731,28.9046957 L14.8483019,30.2289686 L15.936946,29.5956873 L19.2054205,28.4440346 C19.2054205,28.4440346 18.4605053,28.328614 17.2564375,28.6738544 C16.5674544,28.8469854 16.1667765,29.0773159 15.4218612,29.3648461 C14.3896578,29.7683076 13.8160985,29.7683076 15.3638951,28.962406 C25.2257595,24.010044 36.9211832,32.8775145 36.9211832,40.6520641 C36.9211832,48.4250816 28.8374544,52.8600936 23.0464375,52.8600936 C16.7403358,52.8600936 4.52830189,46.3526174 4.52830189,33.3958859 C4.52830189,20.4396652 15.8799968,6.79245283 20.1796578,6.79245283 C21.2693188,6.79245283 26.5442341,9.21066818 26.5442341,12.0318343 C26.3713527,13.6446588 12.8413527,24.1826642 12.8413527,36.1021421 C12.8413527,53.4356646 29.6972849,43.5886509 29.6972849,37.023975 C29.6972849,31.0348702 23.9642341,31.8989928 23.5625392,31.8989928 C23.3337256,31.5532416 23.1608443,31.3234218 22.8745731,31.2652007 C22.5303358,31.0925805 21.6135561,30.9199603 19.8933866,31.5532416 C18.2306748,32.1293233 18.8611832,31.0925805 17.8294883,31.3806214 L16.3386409,31.9567031 Z" id="Fill-2" fill="#121522"></path>
                        <path d="M54.0820584,13.8622216 C45.0235838,40.0632146 49.8968042,51.0046815 49.6674821,51.4653426 C49.4386686,51.9832033 45.5396855,54.0566889 43.9918889,51.2345013 C41.1251093,45.8796992 40.6090076,38.7389417 41.1251093,31.7136048 C37.3410415,32.8652575 34.0735838,28.0278054 35.3920584,26.5886225 C39.2330754,22.3272521 46.1127364,6.89459498 46.1127364,6.89459498 C46.1127364,6.89459498 47.3168042,6.66477515 48.520872,6.89459498 C51.3876516,7.18314655 55.8596855,8.68003972 54.0820584,13.8622216" id="Fill-4" fill="#121522"></path>
                    </g>
                </g>
            </g>
        </g>
    </g>
</svg>