<?xml version="1.0" encoding="UTF-8"?>
<svg width="60px" height="60px" viewBox="0 0 60 60" version="1.1" xmlns="http://www.w3.org/2000/svg" xmlns:xlink="http://www.w3.org/1999/xlink">
    <!-- Generator: Sketch 47.1 (45422) - http://www.bohemiancoding.com/sketch -->
    <title>akvareli-icon</title>
    <desc>Created with Sketch.</desc>
    <defs></defs>
    <g id="Page-1" stroke="none" stroke-width="1" fill="none" fill-rule="evenodd">
        <g id="2-1-projects" transform="translate(-301.000000, -5274.000000)">
            <g id="Group-8" transform="translate(150.000000, 5190.000000)">
                <g id="Group-6" transform="translate(79.000000, 84.000000)">
                    <g id="akvareli-icon" transform="translate(72.000000, 0.000000)">
                        <path d="M49.8336,59.4336 L9.6,59.4336 C4.32,59.4336 0,55.1136 0,49.8336 L0,9.6 C0,4.32 4.32,0 9.6,0 L49.8336,0 C55.1136,0 59.4336,4.32 59.4336,9.6 L59.4336,49.8336 C59.4336,55.1136 55.1136,59.4336 49.8336,59.4336" id="Fill-1" fill="#FCB843"></path>
                        <path d="M33.896,33.3424 L29.384,19.9736 L24.872,33.3424 L33.896,33.3424 Z M48.5464,45.9312 C48.6936,46.3024 48.7696,46.5816 48.7696,46.7664 C48.7696,47.1008 48.648,47.3896 48.4072,47.6304 C48.1648,47.8728 47.8776,47.9928 47.544,47.9928 L40.5248,47.9928 C39.8936,47.9928 39.4016,47.8536 39.0496,47.5752 C38.696,47.296 38.4648,46.972 38.3528,46.5992 L36.7928,41.9768 L21.9752,41.9768 L20.4152,46.5992 C20.3048,46.972 20.072,47.296 19.72,47.5752 C19.3664,47.8536 18.8744,47.9928 18.2432,47.9928 L11.224,47.9928 C10.8904,47.9928 10.6024,47.8728 10.3624,47.6304 C10.1192,47.3896 10,47.1008 10,46.7664 C10,46.5816 10.0728,46.3024 10.2216,45.9312 L22.3664,10.8376 C22.5512,10.3184 22.848,9.8832 23.2568,9.5296 C23.6656,9.176 24.204,9 24.872,9 L33.896,9 C34.564,9 35.1024,9.176 35.5112,9.5296 C35.92,9.8832 36.2168,10.3184 36.4032,10.8376 L48.5464,45.9312 Z" id="Fill-4" fill="#394161"></path>
                    </g>
                </g>
            </g>
        </g>
    </g>
</svg>