<?xml version="1.0" encoding="UTF-8"?>
<svg width="80px" height="80px" viewBox="0 0 80 80" version="1.1" xmlns="http://www.w3.org/2000/svg" xmlns:xlink="http://www.w3.org/1999/xlink">
    <!-- Generator: Sketch 47.1 (45422) - http://www.bohemiancoding.com/sketch -->
    <title>alicante</title>
    <desc>Created with Sketch.</desc>
    <defs></defs>
    <g id="Page-1" stroke="none" stroke-width="1" fill="none" fill-rule="evenodd">
        <g id="1-1-home" transform="translate(-1180.000000, -2125.000000)" fill-rule="nonzero" fill="#D1D1D1">
            <g id="alicante" transform="translate(1180.000000, 2125.000000)">
                <rect id="Rectangle-path" x="11.5980756" y="30.9278351" width="2.57731959" height="2.57731959"></rect>
                <rect id="Rectangle-path" x="6.44343643" y="32.2166323" width="2.57731959" height="2.57731959"></rect>
                <rect id="Rectangle-path" x="16.7527148" y="32.2166323" width="2.57731959" height="2.57731959"></rect>
                <rect id="Rectangle-path" x="11.5980756" y="34.7939519" width="2.57731959" height="2.57731959"></rect>
                <rect id="Rectangle-path" x="25.7731959" y="64.4329897" width="2.57731959" height="2.57731959"></rect>
                <rect id="Rectangle-path" x="25.7731959" y="54.1237113" width="2.57731959" height="7.73195876"></rect>
                <path d="M77.3195876,69.5876289 L77.3195876,51.5463918 L78.6083849,51.5463918 L78.6083849,48.9690722 L77.3195876,48.9690722 L77.3195876,29.6390378 L78.6083849,29.6390378 L78.6083849,27.0617182 L76.0310653,27.0617182 L76.0310653,16.7524399 L77.3198625,16.7524399 L77.3198625,14.1751203 L73.4537457,14.1751203 L73.4537457,9.0204811 L71.5890034,7.86721649 L69.8427491,8.74089347 L67.0103093,5.90982818 L67.0103093,0 L64.4329897,0 L64.4329897,5.90982818 L61.6019244,8.74089347 L59.8556701,7.86721649 L57.9895533,9.0204811 L57.9895533,14.1751203 L54.1234364,14.1751203 L54.1234364,16.7524399 L55.4122337,16.7524399 L55.4122337,26.3348454 L54.1234364,25.740756 L54.1234364,20.6185567 L51.5463918,20.6185567 L51.5463918,24.5514777 L41.2371134,19.7938144 L41.2371134,15.4639175 L38.6597938,15.4639175 L38.6597938,19.7938144 L28.3505155,24.5514777 L28.3505155,20.6185567 L25.7731959,20.6185567 L25.7731959,25.7410309 L24.4843986,26.3351203 L24.4843986,16.7527148 L25.7731959,16.7527148 L25.7731959,14.1753952 L21.907354,14.1753952 L21.907354,9.02075601 L20.0426117,7.86749141 L18.2963574,8.74116838 L15.4639175,5.90982818 L15.4639175,0 L12.8865979,0 L12.8865979,5.90982818 L10.0555326,8.74089347 L8.30817869,7.86721649 L6.44343643,9.0204811 L6.44343643,14.1751203 L2.57731959,14.1751203 L2.57731959,16.7524399 L3.86611684,16.7524399 L3.86611684,27.0617182 L1.28879725,27.0617182 L1.28879725,29.6390378 L2.5775945,29.6390378 L2.5775945,48.9690722 L1.28879725,48.9690722 L1.28879725,51.5463918 L2.5775945,51.5463918 L2.5775945,69.5876289 L0,69.5876289 L0,79.8969072 L79.8969072,79.8969072 L79.8969072,69.5876289 L77.3195876,69.5876289 Z M60.5665979,11.1057045 L60.5671478,11.1057045 L61.2797251,11.4614433 L62.7667354,11.219244 L65.721512,8.26556701 L68.6762887,11.2203436 L70.163299,11.462543 L70.8758763,11.1057045 L70.8758763,14.1753952 L60.5665979,14.1753952 L60.5665979,11.1057045 L60.5665979,11.1057045 Z M57.9895533,16.7527148 L73.4537457,16.7527148 L73.4537457,27.0619931 L69.5876289,27.0619931 L69.5876289,19.3300344 L67.0103093,19.3300344 L67.0103093,27.0619931 L64.4329897,27.0619931 L64.4329897,19.3300344 L61.8556701,19.3300344 L61.8556701,27.0619931 L57.9895533,27.0619931 L57.9895533,16.7527148 Z M57.9895533,29.6390378 L74.742268,29.6390378 L74.742268,38.6597938 L60.5668729,38.6597938 L60.5668729,37.3709966 L61.0823368,36.1905155 L57.9895533,34.8373883 L57.9895533,29.6390378 Z M41.2371134,22.6328522 L45.1032302,24.4162199 L45.1032302,28.3505155 L47.6805498,28.3505155 L47.6805498,25.6057732 L51.5466667,27.3894158 L51.5466667,30.9278351 L54.1239863,30.9278351 L54.1239863,28.5797938 L55.4127835,29.1738832 L55.4127835,33.7085911 L41.2371134,27.5065292 L41.2371134,22.6328522 Z M54.4085223,36.0824742 L25.4883849,36.0824742 L39.9485911,29.7550515 L54.4085223,36.0824742 Z M24.4846735,29.1738832 L25.7731959,28.5797938 L25.7731959,30.9278351 L28.3505155,30.9278351 L28.3505155,27.3905155 L32.2166323,25.6068729 L32.2166323,28.3505155 L34.7939519,28.3505155 L34.7939519,24.4162199 L38.6600687,22.6325773 L38.6600687,27.5062543 L24.4846735,33.7085911 L24.4846735,29.1738832 Z M23.1958763,51.5463918 L30.9278351,51.5463918 L30.9278351,69.5876289 L23.1958763,69.5876289 L23.1958763,51.5463918 Z M9.02020619,11.1057045 L9.02075601,11.1057045 L9.73333333,11.4614433 L11.2203436,11.219244 L14.1751203,8.26556701 L17.1298969,11.2203436 L18.6169072,11.462543 L19.3294845,11.1057045 L19.3294845,14.1753952 L9.02020619,14.1753952 L9.02020619,11.1057045 Z M6.44343643,16.7527148 L21.907354,16.7527148 L21.907354,27.0619931 L18.0412371,27.0619931 L18.0412371,19.3300344 L15.4639175,19.3300344 L15.4639175,27.0619931 L12.8865979,27.0619931 L12.8865979,19.3300344 L10.3092784,19.3300344 L10.3092784,27.0619931 L6.44343643,27.0619931 L6.44343643,16.7527148 Z M5.15463918,29.6393127 L21.907354,29.6393127 L21.907354,34.8376632 L18.8145704,36.1907904 L19.3300344,37.3712715 L19.3300344,38.6600687 L5.15463918,38.6600687 L5.15463918,29.6393127 Z M7.73195876,77.3195876 L2.57731959,77.3195876 L2.57731959,72.1649485 L7.73195876,72.1649485 L7.73195876,77.3195876 Z M7.73195876,69.5876289 L5.15463918,69.5876289 L5.15463918,51.5463918 L7.73195876,51.5463918 L7.73195876,69.5876289 Z M15.4639175,77.3195876 L10.3092784,77.3195876 L10.3092784,74.742268 L15.4639175,74.742268 L15.4639175,77.3195876 Z M15.4639175,69.5876289 L15.4639175,70.8764261 L15.4639175,72.1652234 L10.3092784,72.1652234 L10.3092784,70.8764261 L10.3092784,69.5876289 L10.3092784,50.2575945 C10.3092784,48.8362887 11.4652921,47.6802749 12.8865979,47.6802749 C14.3079038,47.6802749 15.4639175,48.8362887 15.4639175,50.2575945 L15.4639175,69.5876289 Z M12.8865979,45.1029553 C10.4909966,45.1029553 8.49099656,46.7510653 7.91505155,48.9690722 L5.15463918,48.9690722 L5.15463918,41.2371134 L20.6185567,41.2371134 L20.6185567,48.9690722 L17.8581443,48.9690722 C17.2821993,46.7513402 15.2821993,45.1029553 12.8865979,45.1029553 Z M20.6185567,51.5463918 L20.6185567,69.5876289 L18.0412371,69.5876289 L18.0412371,51.5463918 L20.6185567,51.5463918 Z M32.2166323,77.3195876 L18.0412371,77.3195876 L18.0412371,72.1649485 L32.2166323,72.1649485 L32.2166323,77.3195876 Z M45.1032302,77.3195876 L34.7939519,77.3195876 L34.7939519,74.742268 L45.1032302,74.742268 L45.1032302,77.3195876 Z M46.3920275,69.5876289 L45.1032302,69.5876289 L45.1032302,72.1649485 L34.7939519,72.1649485 L34.7939519,69.5876289 L33.5051546,69.5876289 L33.5051546,51.5463918 C33.5051546,47.993677 36.3956014,45.1029553 39.9485911,45.1029553 C43.5015808,45.1029553 46.3920275,47.9934021 46.3920275,51.5463918 L46.3920275,69.5876289 Z M39.9483162,42.5256357 C35.8707904,42.5256357 32.4200687,45.2472852 31.3077663,48.9690722 L28.3502405,48.9690722 L28.3502405,41.2371134 L25.7731959,41.2371134 L25.7731959,48.9690722 L23.1958763,48.9690722 L23.1958763,38.6597938 L56.7010309,38.6597938 L56.7010309,48.9690722 L54.1237113,48.9690722 L54.1237113,41.2371134 L51.5463918,41.2371134 L51.5463918,48.9690722 L48.588866,48.9690722 C47.4768385,45.2472852 44.0258419,42.5256357 39.9483162,42.5256357 Z M56.7010309,51.5463918 L56.7010309,69.5876289 L48.9690722,69.5876289 L48.9690722,51.5463918 L56.7010309,51.5463918 Z M61.8556701,77.3195876 L47.6802749,77.3195876 L47.6802749,72.1649485 L47.6805498,72.1649485 L61.8556701,72.1649485 L61.8556701,77.3195876 Z M61.8556701,69.5876289 L59.2783505,69.5876289 L59.2783505,51.5463918 L61.8556701,51.5463918 L61.8556701,69.5876289 Z M69.5876289,77.3195876 L64.4329897,77.3195876 L64.4329897,74.742268 L69.5876289,74.742268 L69.5876289,77.3195876 Z M69.5876289,69.587354 L69.5876289,70.8761512 L69.5876289,72.1649485 L64.4329897,72.1649485 L64.4329897,70.8761512 L64.4329897,69.587354 L64.4329897,50.2573196 C64.4329897,48.8360137 65.5890034,47.68 67.0103093,47.68 C68.4316151,47.68 69.5876289,48.8360137 69.5876289,50.2573196 L69.5876289,69.587354 Z M67.0103093,45.1029553 C64.6147079,45.1029553 62.6147079,46.7510653 62.0387629,48.9690722 L59.2783505,48.9690722 L59.2783505,41.2371134 L74.742268,41.2371134 L74.742268,48.9690722 L71.9818557,48.9690722 C71.4059107,46.7513402 69.4059107,45.1029553 67.0103093,45.1029553 Z M74.742268,51.5463918 L74.742268,69.5876289 L72.1649485,69.5876289 L72.1649485,51.5463918 L74.742268,51.5463918 Z M77.3195876,77.3195876 L72.1649485,77.3195876 L72.1649485,72.1649485 L77.3195876,72.1649485 L77.3195876,77.3195876 Z" id="Shape"></path>
                <rect id="Rectangle-path" x="65.7217869" y="30.9278351" width="2.57731959" height="2.57731959"></rect>
                <rect id="Rectangle-path" x="70.8764261" y="32.2166323" width="2.57731959" height="2.57731959"></rect>
                <rect id="Rectangle-path" x="60.5671478" y="32.2166323" width="2.57731959" height="2.57731959"></rect>
                <rect id="Rectangle-path" x="65.7217869" y="34.7939519" width="2.57731959" height="2.57731959"></rect>
                <rect id="Rectangle-path" x="51.5463918" y="64.4329897" width="2.57731959" height="2.57731959"></rect>
                <rect id="Rectangle-path" x="51.5463918" y="54.1237113" width="2.57731959" height="7.73195876"></rect>
                <rect id="Rectangle-path" x="12.8865979" y="10.3092784" width="2.57731959" height="2.57731959"></rect>
                <rect id="Rectangle-path" x="64.4329897" y="10.3092784" width="2.57731959" height="2.57731959"></rect>
            </g>
        </g>
    </g>
</svg>