<?xml version="1.0" encoding="UTF-8"?>
<svg width="296px" height="204px" viewBox="0 0 296 204" version="1.1" xmlns="http://www.w3.org/2000/svg" xmlns:xlink="http://www.w3.org/1999/xlink">
    <!-- Generator: Sketch 47.1 (45422) - http://www.bohemiancoding.com/sketch -->
    <title>alicante-house</title>
    <desc>Created with Sketch.</desc>
    <defs></defs>
    <g id="Page-1" stroke="none" stroke-width="1" fill="none" fill-rule="evenodd">
        <g id="2-6-1-alicante-guest-houses" transform="translate(-827.000000, -895.000000)" fill-rule="nonzero" fill="#C9C9C9">
            <g id="alicante-house" transform="translate(827.000000, 895.000000)">
                <path d="M132.767668,3.5 L132.853865,12.2589444 L137.847541,12.2589444 L137.847541,64.8718862 L132.752834,64.8718862 L132.752834,68.6724621 L138.194665,80.8140508 L148.66367,80.8140508 L148.66367,118.779497 L111.026882,118.779497 L111.026882,200.329897 L132.685576,200.329897 L132.685576,134.879566 L291.970853,134.879566 L291.970853,53.5853528 L287.535092,53.5853528 L287.535092,32.6777664 L272.609166,32.6777664 L272.609166,3.5 L132.767668,3.5 Z M134.847541,15.2589444 L129.883243,15.2589444 L129.738,0.5 L275.609166,0.5 L275.609166,29.6777664 L290.535092,29.6777664 L290.535092,50.5853528 L294.970853,50.5853528 L294.970853,137.879566 L135.685576,137.879566 L135.685576,203.329897 L108.026882,203.329897 L108.026882,115.779497 L145.66367,115.779497 L145.66367,83.8140508 L136.251716,83.8140508 L129.752834,69.314013 L129.752834,61.8718862 L134.847541,61.8718862 L134.847541,15.2589444 Z" id="Path-2"></path>
                <path d="M141.134409,15.327957 L141.134409,61.7903226 L197.274194,61.7903226 L197.274194,15.327957 L141.134409,15.327957 Z M200.274194,12.327957 L200.274194,64.7903226 L138.134409,64.7903226 L138.134409,12.327957 L200.274194,12.327957 Z" id="Rectangle-22"></path>
                <path d="M152.424731,116.091398 L197.811828,116.091398 L197.811828,83.6075269 L152.424731,83.6075269 L152.424731,116.091398 Z M200.811828,80.6075269 L200.811828,119.091398 L149.424731,119.091398 L149.424731,80.6075269 L200.811828,80.6075269 Z" id="Rectangle-22-Copy-3"></path>
                <path d="M135.758065,137.908602 L135.758065,199.424731 L198.887097,199.424731 L198.887097,137.908602 L135.758065,137.908602 Z M201.887097,134.908602 L201.887097,202.424731 L132.758065,202.424731 L132.758065,134.908602 L201.887097,134.908602 Z" id="Rectangle-22-Copy-6"></path>
                <path d="M3.5,119.091398 L3.5,161.790323 L108.026882,161.790323 L108.026882,119.091398 L3.5,119.091398 Z M111.026882,116.091398 L111.026882,164.790323 L0.5,164.790323 L0.5,116.091398 L111.026882,116.091398 Z" id="Rectangle-22-Copy-8"></path>
                <path d="M10.4892473,119.091398 L10.4892473,154.801075 L101.037634,154.801075 L101.037634,119.091398 L10.4892473,119.091398 Z M104.037634,116.091398 L104.037634,157.801075 L7.48924731,157.801075 L7.48924731,116.091398 L104.037634,116.091398 Z" id="Rectangle-22-Copy-9"></path>
                <path d="M10.4892473,200.5 L19.8548387,200.5 L19.8548387,164.790323 L10.4892473,164.790323 L10.4892473,200.5 Z M22.8548387,161.790323 L22.8548387,203.5 L7.48924731,203.5 L7.48924731,161.790323 L22.8548387,161.790323 Z" id="Rectangle-22-Copy-10"></path>
                <path d="M22.8548387,200.5 L60.7150538,200.5 L60.7150538,164.790323 L22.8548387,164.790323 L22.8548387,200.5 Z M63.7150538,161.790323 L63.7150538,203.5 L19.8548387,203.5 L19.8548387,161.790323 L63.7150538,161.790323 Z" id="Rectangle-22-Copy-11"></path>
                <path d="M65.327957,200.5 L108.026882,200.5 L108.026882,164.790323 L65.327957,164.790323 L65.327957,200.5 Z M111.026882,161.790323 L111.026882,203.5 L62.327957,203.5 L62.327957,161.790323 L111.026882,161.790323 Z" id="Rectangle-22-Copy-12"></path>
                <path d="M201.887097,199.424731 L292.435484,199.424731 L292.435484,137.908602 L201.887097,137.908602 L201.887097,199.424731 Z M295.435484,134.908602 L295.435484,202.424731 L198.887097,202.424731 L198.887097,134.908602 L295.435484,134.908602 Z" id="Rectangle-22-Copy-7"></path>
                <path d="M227.693548,116.091398 L247.811828,116.091398 L247.811828,69.6290323 L227.693548,69.6290323 L227.693548,116.091398 Z M250.811828,66.6290323 L250.811828,119.091398 L224.693548,119.091398 L224.693548,66.6290323 L250.811828,66.6290323 Z" id="Rectangle-22-Copy-4"></path>
                <path d="M204.575269,116.091398 L224.693548,116.091398 L224.693548,69.6290323 L204.575269,69.6290323 L204.575269,116.091398 Z M227.693548,66.6290323 L227.693548,119.091398 L201.575269,119.091398 L201.575269,66.6290323 L227.693548,66.6290323 Z" id="Rectangle-22-Copy-5"></path>
                <path d="M204.037634,47.811828 L224.155914,47.811828 L224.155914,15.327957 L204.037634,15.327957 L204.037634,47.811828 Z M227.155914,12.327957 L227.155914,50.811828 L201.037634,50.811828 L201.037634,12.327957 L227.155914,12.327957 Z" id="Rectangle-22-Copy"></path>
                <path d="M227.155914,47.811828 L247.274194,47.811828 L247.274194,15.327957 L227.155914,15.327957 L227.155914,47.811828 Z M250.274194,12.327957 L250.274194,50.811828 L224.155914,50.811828 L224.155914,12.327957 L250.274194,12.327957 Z" id="Rectangle-22-Copy-2"></path>
            </g>
        </g>
    </g>
</svg>