<?xml version="1.0" encoding="UTF-8"?>
<svg width="12px" height="9px" viewBox="0 0 12 9" version="1.1" xmlns="http://www.w3.org/2000/svg" xmlns:xlink="http://www.w3.org/1999/xlink">
    <!-- Generator: Sketch 47.1 (45422) - http://www.bohemiancoding.com/sketch -->
    <title>Shape</title>
    <desc>Created with Sketch.</desc>
    <defs></defs>
    <g id="Page-1" stroke="none" stroke-width="1" fill="none" fill-rule="evenodd">
        <g id="stangher-coworking-apartments" transform="translate(-553.000000, -4652.000000)" fill-rule="nonzero" fill="#FFFFFF">
            <g id="Group-2" transform="translate(0.000000, 3965.000000)">
                <g id="checked-copy-27" transform="translate(553.000000, 687.000000)">
                    <path d="M0.138461538,4.84615385 C0.0461538462,4.75804196 0,4.62587413 0,4.53776224 C0,4.44965035 0.0461538462,4.31748252 0.138461538,4.22937063 L0.784615385,3.61258741 C0.969230769,3.43636364 1.24615385,3.43636364 1.43076923,3.61258741 L1.47692308,3.65664336 L4.01538462,6.25594406 C4.10769231,6.34405594 4.24615385,6.34405594 4.33846154,6.25594406 L10.5230769,0.132167832 L10.5692308,0.132167832 L10.5692308,0.132167832 C10.7538462,-0.0440559441 11.0307692,-0.0440559441 11.2153846,0.132167832 L11.8615385,0.748951049 C12.0461538,0.925174825 12.0461538,1.18951049 11.8615385,1.36573427 L11.8615385,1.36573427 L4.47692308,8.67902098 C4.38461538,8.76713287 4.29230769,8.81118881 4.15384615,8.81118881 C4.01538462,8.81118881 3.92307692,8.76713287 3.83076923,8.67902098 L0.230769231,4.97832168 L0.138461538,4.84615385 Z" id="Shape"></path>
                </g>
            </g>
        </g>
    </g>
</svg>