<?xml version="1.0" encoding="UTF-8"?>
<svg width="70px" height="40px" viewBox="0 0 70 40" version="1.1" xmlns="http://www.w3.org/2000/svg" xmlns:xlink="http://www.w3.org/1999/xlink">
    <!-- Generator: Sketch 47.1 (45422) - http://www.bohemiancoding.com/sketch -->
    <title>bedroom</title>
    <desc>Created with Sketch.</desc>
    <defs></defs>
    <g id="Page-1" stroke="none" stroke-width="1" fill="none" fill-rule="evenodd">
        <g id="2-5-pattaya-guest-houses" transform="translate(-238.000000, -1515.000000)" fill-rule="nonzero">
            <g id="bedroom" transform="translate(238.000000, 1515.000000)">
                <path d="M63.1026121,0.066042885 L6.76107212,0.066042885 C5.51649123,0.066042885 4.5074269,1.07497076 4.5074269,2.31968811 L4.5074269,19.2221637 L65.3561209,19.2221637 L65.3561209,2.31968811 C65.3562573,1.07497076 64.347193,0.066042885 63.1026121,0.066042885 Z" id="Shape" fill="#D9B693"></path>
                <path d="M34.9319103,11.3344055 C26.3470175,11.3344055 12.6637232,12.3769006 4.50756335,15.6925536 L4.50756335,19.2223002 L65.3562573,19.2223002 L65.3562573,15.6925536 C57.2000975,12.3767641 43.5168031,11.3344055 34.9319103,11.3344055 Z" id="Shape" fill="#CD9F71"></path>
                <path d="M34.9317739,15.8416959 L14.6488304,15.8416959 C12.7818908,15.8416959 11.2683626,14.3281676 11.2683626,12.4612281 L11.2683626,9.08076023 C11.2683626,7.21382066 12.7818908,5.7002924 14.6488304,5.7002924 L31.551306,5.7002924 C33.4182456,5.7002924 34.9317739,7.21382066 34.9317739,9.08076023 L34.9317739,15.8416959 Z" id="Shape" fill="#EDEBED"></path>
                <path d="M20.2829435,13.5880507 C17.1712865,13.5880507 14.6488304,11.0655945 14.6488304,7.95393762 L14.6488304,5.7002924 C12.7818908,5.7002924 11.2683626,7.21382066 11.2683626,9.08076023 L11.2683626,12.4612281 C11.2683626,14.3281676 12.7818908,15.8416959 14.6488304,15.8416959 L31.551306,15.8416959 C33.0210331,15.8416959 34.2590643,14.8979922 34.7247758,13.5880507 L20.2829435,13.5880507 L20.2829435,13.5880507 Z" id="Shape" fill="#DBD9DC"></path>
                <path d="M55.2147173,15.8416959 L34.9317739,15.8416959 L34.9317739,9.08076023 C34.9317739,7.21382066 36.4453021,5.7002924 38.3122417,5.7002924 L55.2147173,5.7002924 C57.0816569,5.7002924 58.5951852,7.21382066 58.5951852,9.08076023 L58.5951852,12.4612281 C58.5951852,14.3281676 57.0817934,15.8416959 55.2147173,15.8416959 Z" id="Shape" fill="#EDEBED"></path>
                <path d="M43.9464912,13.5880507 C40.8348343,13.5880507 38.3123782,11.0655945 38.3123782,7.95393762 L38.3123782,5.7002924 C36.4454386,5.7002924 34.9319103,7.21382066 34.9319103,9.08076023 L34.9319103,15.8416959 L55.2148538,15.8416959 C56.6845809,15.8416959 57.9226121,14.8979922 58.3883236,13.5880507 L43.9464912,13.5880507 L43.9464912,13.5880507 Z" id="Shape" fill="#DBD9DC"></path>
                <path d="M0,28.2367446 L0,38.3782846 C0,39.0005068 0.504463938,39.5051072 1.12682261,39.5051072 L3.58350877,39.5051072 C4.1205848,39.5051072 4.58315789,39.1259064 4.68836257,38.5992008 L5.27183236,35.6825341 C5.48251462,34.6291228 6.40752437,33.8708577 7.48181287,33.8708577 L62.3818713,33.8708577 C63.4561598,33.8708577 64.3810331,34.6291228 64.5918519,35.6825341 L65.1753216,38.5992008 C65.2806628,39.1259064 65.7430994,39.5051072 66.2801754,39.5051072 L68.7368616,39.5051072 C69.3592203,39.5051072 69.8636842,39.0005068 69.8636842,38.3782846 L69.8636842,28.2367446 L0,28.2367446 Z" id="Shape" fill="#C89664"></path>
                <path d="M34.9319103,13.5880507 L34.9317739,13.5880507 C15.6394737,13.5880507 0,17.5745029 0,22.4921053 L0,28.2367446 L69.8635478,28.2367446 L69.8635478,22.4921053 C69.8635478,17.5745029 54.2240741,13.5880507 34.9319103,13.5880507 Z" id="Shape" fill="#DDD3DD"></path>
                <rect id="Rectangle-path" fill="#B9875F" x="0" y="28.2374269" width="69.8635478" height="2.25364522"></rect>
            </g>
        </g>
    </g>
</svg>