<?xml version="1.0" encoding="UTF-8"?>
<svg width="40px" height="40px" viewBox="0 0 40 40" version="1.1" xmlns="http://www.w3.org/2000/svg" xmlns:xlink="http://www.w3.org/1999/xlink">
    <!-- Generator: Sketch 47.1 (45422) - http://www.bohemiancoding.com/sketch -->
    <title>checked</title>
    <desc>Created with Sketch.</desc>
    <defs></defs>
    <g id="Page-1" stroke="none" stroke-width="1" fill="none" fill-rule="evenodd">
        <g id="3-2-moscow" transform="translate(-165.000000, -3332.000000)" fill-rule="nonzero">
            <g id="checked" transform="translate(165.000000, 3332.000000)">
                <circle id="Oval" fill="#3DB39E" cx="19.9651485" cy="19.9651485" r="19.9651485"></circle>
                <path d="M36.6861782,9.07794059 L19.0293861,27.3586535 L19.0605941,29.3239604 L19.8716832,29.3239604 L38.9946931,13.9132673 C38.4331089,12.1975446 37.6532277,10.5441584 36.6861782,9.07794059 Z" id="Shape" fill="#37A18E"></path>
                <path d="M39.556198,8.20451485 L36.0310495,4.71057426 C35.5630891,4.24261386 34.7832079,4.24261386 34.2841188,4.71057426 L19.2165545,20.2772277 L12.6966337,13.8509307 C12.2286733,13.3829703 11.4487921,13.3829703 10.949703,13.8509307 L7.83009901,16.9393267 C7.36213861,17.4072871 7.36213861,18.1871683 7.83009901,18.6551287 L18.249505,28.9808317 C18.530297,29.2616238 18.9046337,29.3551683 19.2789703,29.3239604 C19.6533069,29.3551683 20.0276436,29.2615446 20.3084356,28.9808317 L39.556198,9.95144554 C40.0241584,9.45227723 40.0241584,8.67239604 39.556198,8.20451485 Z" id="Shape" fill="#F2F1EF"></path>
                <path d="M20.3084356,28.9808317 L39.556198,9.95144554 C40.0241584,9.48348515 40.0241584,8.70360396 39.556198,8.23564356 L38.9946931,7.70534653 L19.2477624,27.1090693 L8.32926733,16.4713663 L7.86130693,16.9393267 C7.39334653,17.4072871 7.39334653,18.1871683 7.86130693,18.6551287 L18.2807129,28.9809109 C18.561505,29.261703 18.9358416,29.3552475 19.3101782,29.3240396 C19.6533069,29.3551683 20.0276436,29.2616238 20.3084356,28.9808317 Z" id="Shape" fill="#E6E5E3"></path>
            </g>
        </g>
    </g>
</svg>