<?xml version="1.0" encoding="UTF-8"?>
<svg width="16px" height="16px" viewBox="0 0 16 16" version="1.1" xmlns="http://www.w3.org/2000/svg" xmlns:xlink="http://www.w3.org/1999/xlink">
    <!-- Generator: Sketch 47.1 (45422) - http://www.bohemiancoding.com/sketch -->
    <title>Combined Shape Copy 7</title>
    <desc>Created with Sketch.</desc>
    <defs></defs>
    <g id="Page-1" stroke="none" stroke-width="1" fill="none" fill-rule="evenodd">
        <g id="4" transform="translate(-613.000000, -161.000000)" fill="#CDCDCD">
            <g id="Group-6" transform="translate(93.000000, 140.000000)">
                <g id="Group-2">
                    <path d="M529.517136,27.7671356 L529.517136,20.1421356 C529.517136,19.5898509 529.06942,19.1421356 528.517136,19.1421356 L527.767136,19.1421356 C527.214851,19.1421356 526.767136,19.5898509 526.767136,20.1421356 L526.767136,20.1421356 L526.767136,27.7671356 L519.142136,27.7671356 C518.589851,27.7671356 518.142136,28.2148508 518.142136,28.7671356 L518.142136,29.5171357 C518.142136,30.0694204 518.589851,30.5171357 519.142136,30.5171357 L526.767136,30.5171357 L526.767136,38.1421356 C526.767136,38.6944204 527.214851,39.1421356 527.767136,39.1421356 L528.517136,39.1421356 C529.06942,39.1421356 529.517136,38.6944204 529.517136,38.1421356 L529.517136,30.5171357 L537.142136,30.5171357 C537.69442,30.5171357 538.142136,30.0694204 538.142136,29.5171357 L538.142136,28.7671356 C538.142136,28.2148508 537.69442,27.7671356 537.142136,27.7671356 L529.517136,27.7671356 Z" id="Combined-Shape-Copy-7" transform="translate(528.142136, 29.142136) rotate(-315.000000) translate(-528.142136, -29.142136) "></path>
                </g>
            </g>
        </g>
    </g>
</svg>