<?xml version="1.0" encoding="UTF-8"?>
<svg width="55px" height="55px" viewBox="0 0 55 55" version="1.1" xmlns="http://www.w3.org/2000/svg" xmlns:xlink="http://www.w3.org/1999/xlink">
    <!-- Generator: Sketch 47.1 (45422) - http://www.bohemiancoding.com/sketch -->
    <title>column</title>
    <desc>Created with Sketch.</desc>
    <defs></defs>
    <g id="Page-1" stroke="none" stroke-width="1" fill="none" fill-rule="evenodd">
        <g id="2-9-1-coworking-lviv" transform="translate(-931.000000, -5311.000000)" fill-rule="nonzero">
            <g id="column" transform="translate(931.000000, 5311.000000)">
                <path d="M49.4828796,9.68433383 C45.8103943,9.68433383 42.6020051,11.7136002 40.9101105,14.7130204 L14.0898895,14.7130204 C12.3979949,11.7136002 9.18960571,9.68433383 5.51712036,9.68433383 C2.47489924,9.68433383 0,12.1688843 0,15.2220154 C0,17.1392441 1.55384066,18.6989593 3.46393588,18.6989593 C4.83692172,18.6989593 5.95394132,17.5781632 5.95394132,16.2001419 C5.95394132,15.0780868 5.04463201,14.1654206 3.92677312,14.1654206 C3.75892645,14.1654206 3.59653476,14.1880798 3.4425354,14.2313004 C3.81263738,13.4541703 4.60361483,12.915802 5.51712036,12.915802 C8.91391757,12.915802 11.7203141,15.4956055 12.0971298,18.805542 L11.0925675,55 L43.8079834,55 L42.8583908,19.5646286 C42.8583908,15.8984375 45.8301163,12.915802 49.48246,12.915802 C50.3963852,12.915802 51.1873626,13.4541703 51.5574646,14.2313004 C51.4030457,14.1884994 51.2410736,14.1654206 51.0732269,14.1654206 C49.955368,14.1654206 49.0460587,15.0780868 49.0460587,16.2001419 C49.0460587,17.5781632 50.1630783,18.699379 51.5360641,18.699379 C53.4461593,18.699379 55,17.1396637 55,15.222435 C55,12.1688843 52.5251008,9.68433383 49.4828796,9.68433383 Z" id="Shape" fill="#DCE1EB"></path>
                <g id="Group" transform="translate(18.261719, 9.667969)" fill="#B6C4CF">
                    <path d="M31.2211609,0.0163650781 C27.5486755,0.0163650781 24.3402863,2.04563144 22.6483918,5.0450516 L9.23828125,5.0450516 L9.23828125,45.3320312 L25.5462646,45.3320312 L24.596672,9.89665982 C24.596672,6.23046875 27.5683975,3.24783325 31.2207413,3.24783325 C32.1346664,3.24783325 32.9256439,3.7862015 33.2957458,4.56333163 C33.1413269,4.52053067 32.9793548,4.49745184 32.8115081,4.49745184 C31.6936492,4.49745184 30.7843399,5.41011808 30.7843399,6.53217318 C30.7843399,7.91019442 31.9013595,9.03141024 33.2743454,9.03141024 C35.1844406,9.03141024 36.7382812,7.471695 36.7382812,5.55446622 C36.7382812,2.50091553 34.263382,0.0163650781 31.2211609,0.0163650781 Z" id="Shape"></path>
                    <polygon id="Shape" points="7.55435946 4.50584406 10.9771729 4.50584406 10.9771729 45.3320312 7.55435946 45.3320312"></polygon>
                    <polygon id="Shape" points="15.1401901 5.06729126 18.5625839 5.06729126 18.5625839 45.3320313 15.1401901 45.3320313"></polygon>
                    <polygon id="Shape" points="0.0541305273 5.06729126 3.47694402 5.06729126 3.47694402 45.3320313 0.0541305273 45.3320313"></polygon>
                </g>
                <polygon id="Shape" fill="#96A3AB" points="41.0796356 8.2500839 12.2112655 8.2500839 12.2112655 16.3285446 42.6892853 16.3285446 42.6892853 8.2500839"></polygon>
                <polygon id="Shape" fill="#96A3AB" points="33.4019088 14.73526 36.8243026 14.73526 36.8243026 55 33.4019088 55"></polygon>
                <polygon id="Shape" fill="#96A3AB" points="27.5 14.1738128 29.238472 14.1738128 29.238472 55 27.5 55"></polygon>
                <polygon id="Shape" fill="#7D898F" points="42.6892853 8.2500839 27.5 8.2500839 27.5 16.3285446 42.6892853 16.3285446"></polygon>
                <polygon id="Shape" fill="#B6C4CF" points="46.7520142 1.60587313 4.92923739 1.60587313 4.92923739 9.68433383 49.9713135 9.68433383 49.9713135 1.60587313"></polygon>
                <polygon id="Shape" fill="#96A3AB" points="49.9713135 1.60587313 27.5 1.60587313 27.5 9.68433383 49.9713135 9.68433383"></polygon>
                <polygon id="Shape" fill="#DCE1EB" points="2.38048551 0 52.5200653 0 52.5200653 3.23146817 2.38048551 3.23146817"></polygon>
                <polygon id="Shape" fill="#B6C4CF" points="27.5 0 52.5200653 0 52.5200653 3.23146817 27.5 3.23146817"></polygon>
            </g>
        </g>
    </g>
</svg>