<?xml version="1.0" encoding="UTF-8"?>
<svg width="409px" height="130px" viewBox="0 0 409 130" version="1.1" xmlns="http://www.w3.org/2000/svg" xmlns:xlink="http://www.w3.org/1999/xlink">
    <!-- Generator: Sketch 47.1 (45422) - http://www.bohemiancoding.com/sketch -->
    <title>comercial</title>
    <desc>Created with Sketch.</desc>
    <defs></defs>
    <g id="Page-1" stroke="none" stroke-width="1" fill="none" fill-rule="evenodd">
        <g id="2-9-3-lviv-coworking-apartments-inprogress" transform="translate(-720.000000, -5900.000000)" fill-rule="nonzero" fill="#C9C9C9">
            <g id="comercial" transform="translate(720.000000, 5900.000000)">
                <g id="Group-2">
                    <g id="bar">
                        <path d="M80.1666667,60.6666667 L119.166667,60.6666667 C120.3632,60.6666667 121.333333,59.6965333 121.333333,58.5 L121.333333,15.1666667 C121.333333,13.9701334 120.3632,13 119.166667,13 L106.210042,13 L106.123291,12.5662436 C105.916992,11.558024 105.029378,10.8333333 104,10.8333333 L101.833333,10.8333333 L101.833333,0 L97.5,0 L97.5,10.8333333 L95.3333333,10.8333333 C94.3039551,10.8333333 93.4163411,11.558024 93.2100422,12.5662436 L93.1232911,13 L80.1666667,13 C78.9701334,13 78,13.9701334 78,15.1666667 L78,58.5 C78,59.6965333 78.9701334,60.6666667 80.1666667,60.6666667 Z M97.1075032,15.1666667 L102.22583,15.1666667 L103.524984,21.6666667 L95.8104656,21.6666667 L97.1075032,15.1666667 Z M82.3333333,17.3333333 L92.2568359,17.3333333 L91.0433756,23.399577 C90.9132488,24.0375162 91.0761719,24.6997885 91.4877115,25.2033692 C91.8992512,25.7080078 92.5160318,26 93.1666667,26 L106.166667,26 C106.817301,26 107.434082,25.7080078 107.845622,25.2033692 C108.257161,24.6997885 108.420084,24.0375162 108.289958,23.399577 L107.076497,17.3333333 L117,17.3333333 L117,56.3333333 L82.3333333,56.3333333 L82.3333333,17.3333333 Z" id="Shape"></path>
                        <path d="M127.833333,65 L65,65 L65,58.6777344 L67.1359864,45.8554687 C67.1391603,45.7993979 67.1391603,45.7443848 67.1359864,45.6883137 C67.1497396,45.6258952 67.1603189,45.5634766 67.1666667,45.5 L67.1666667,36.8333333 C67.1666667,35.6368001 66.1965333,34.6666667 65,34.6666667 L26,34.6666667 C24.8034667,34.6666667 23.8333333,35.6368001 23.8333333,36.8333333 L23.8333333,45.5 C23.8428547,45.5634766 23.8555501,45.6258952 23.8724771,45.6883137 C23.8693033,45.7443848 23.8693033,45.7993979 23.8724771,45.8554687 L26,58.6777344 L26,65 L21.6666667,65 L21.6666667,60.6666667 C21.6656088,60.4339193 21.6285807,60.2022297 21.5545249,59.9821777 L19.3878582,53.4821777 C19.1815593,52.8749187 18.7160645,52.3914387 18.1172688,52.162923 L19.3878582,48.3511557 C19.4619141,48.1311036 19.4989421,47.8994141 19.5,47.6666667 L19.5,41.1666667 C19.5,39.9701334 18.5298666,39 17.3333333,39 L8.66666667,39 C7.4701334,39 6.5,39.9701334 6.5,41.1666667 L6.5,47.6666667 C6.50105787,47.8994141 6.53808594,48.1311036 6.61214179,48.3511557 L7.88273119,52.162923 C7.28393548,52.3914387 6.81844069,52.8749187 6.61214179,53.4821777 L4.44547513,59.9821777 C4.37141927,60.2022297 4.33439121,60.4339193 4.33333333,60.6666667 L4.33333333,65 L2.16666667,65 C0.970133396,65 0,65.9701334 0,67.1666667 L0,75.8333333 C0,77.0298666 0.970133396,78 2.16666667,78 L4.33333333,78 L4.33333333,127.833333 C4.33333333,129.029867 5.30346673,130 6.5,130 L123.5,130 C124.696533,130 125.666667,129.029867 125.666667,127.833333 L125.666667,78 L127.833333,78 C129.029867,78 130,77.0298666 130,75.8333333 L130,67.1666667 C130,65.9701334 129.029867,65 127.833333,65 Z M28.5591635,47.6666667 L62.4408365,47.6666667 L60.9978027,56.3333333 L30.0021973,56.3333333 L28.5591635,47.6666667 Z M28.1666667,39 L62.8333333,39 L62.8333333,43.3333333 L28.1666667,43.3333333 L28.1666667,39 Z M30.3333333,60.6666667 L60.6666667,60.6666667 L60.6666667,65 L30.3333333,65 L30.3333333,60.6666667 Z M10.8333333,43.3333333 L15.1666667,43.3333333 L15.1666667,47.3154297 L13.6040854,52 L12.3959146,52 L10.8333333,47.3154297 L10.8333333,43.3333333 Z M8.66666667,61.0179036 L10.229248,56.3333333 L15.770752,56.3333333 L17.3333333,61.0179036 L17.3333333,65 L8.66666667,65 L8.66666667,61.0179036 Z M69.3333333,125.666667 L69.3333333,121.333333 L78,121.333333 L78,125.666667 L69.3333333,125.666667 Z M65,93.1666667 L65,88.8333333 C65,87.6368001 65.9701334,86.6666667 67.1666667,86.6666667 L80.1666667,86.6666667 C81.3631999,86.6666667 82.3333333,87.6368001 82.3333333,88.8333333 L82.3333333,93.1666667 L65,93.1666667 Z M78,97.5 L78,101.833333 L69.3333333,101.833333 L69.3333333,97.5 L78,97.5 Z M78,106.166667 L78,117 L69.3333333,117 L69.3333333,106.166667 L78,106.166667 Z M99.6666667,125.666667 L99.6666667,121.333333 L108.333333,121.333333 L108.333333,125.666667 L99.6666667,125.666667 Z M95.3333333,93.1666667 L95.3333333,88.8333333 C95.3333333,87.6368001 96.3034667,86.6666667 97.5,86.6666667 L110.5,86.6666667 C111.696533,86.6666667 112.666667,87.6368001 112.666667,88.8333333 L112.666667,93.1666667 L95.3333333,93.1666667 Z M108.333333,97.5 L108.333333,101.833333 L99.6666667,101.833333 L99.6666667,97.5 L108.333333,97.5 Z M108.333333,106.166667 L108.333333,117 L99.6666667,117 L99.6666667,106.166667 L108.333333,106.166667 Z M121.333333,125.666667 L112.666667,125.666667 L112.666667,97.5 L114.833333,97.5 C116.029867,97.5 117,96.5298666 117,95.3333333 L117,88.8333333 C117,85.2437338 114.0896,82.3333333 110.5,82.3333333 L97.5,82.3333333 C93.9104005,82.3333333 91,85.2437338 91,88.8333333 L91,95.3333333 C91,96.5298666 91.9701334,97.5 93.1666667,97.5 L95.3333333,97.5 L95.3333333,125.666667 L82.3333333,125.666667 L82.3333333,97.5 L84.5,97.5 C85.6965333,97.5 86.6666667,96.5298666 86.6666667,95.3333333 L86.6666667,88.8333333 C86.6666667,85.2437338 83.7562662,82.3333333 80.1666667,82.3333333 L67.1666667,82.3333333 C63.5770671,82.3333333 60.6666667,85.2437338 60.6666667,88.8333333 L60.6666667,95.3333333 C60.6666667,96.5298666 61.6368001,97.5 62.8333333,97.5 L65,97.5 L65,125.666667 L8.66666667,125.666667 L8.66666667,78 L121.333333,78 L121.333333,125.666667 Z M125.666667,73.6666667 L4.33333333,73.6666667 L4.33333333,69.3333333 L125.666667,69.3333333 L125.666667,73.6666667 Z" id="Shape"></path>
                        <path d="M23.8333333,26 L36.8333333,26 C37.4839682,26 38.1007488,25.7080078 38.5122885,25.2033692 C38.9238281,24.6997885 39.0867512,24.0375162 38.9566244,23.399577 L36.7899577,12.5662436 C36.5836589,11.558024 35.6960449,10.8333333 34.6666667,10.8333333 L32.5,10.8333333 L32.5,0 L28.1666667,0 L28.1666667,10.8333333 L26,10.8333333 C24.9706218,10.8333333 24.0830078,11.558024 23.8767089,12.5662436 L21.7100423,23.399577 C21.5799155,24.0375162 21.7428385,24.6997885 22.1543782,25.2033692 C22.5659178,25.7080078 23.1826985,26 23.8333333,26 Z M27.7741699,15.1666667 L32.8924968,15.1666667 L34.1916505,21.6666667 L26.4771322,21.6666667 L27.7741699,15.1666667 Z" id="Shape"></path>
                        <path d="M58.5,26 L71.5,26 C72.1506348,26 72.7674155,25.7080078 73.1789551,25.2033692 C73.5904948,24.6997885 73.7534178,24.0375162 73.6232911,23.399577 L71.4566244,12.5662436 C71.2503255,11.558024 70.3627115,10.8333333 69.3333333,10.8333333 L67.1666667,10.8333333 L67.1666667,0 L62.8333333,0 L62.8333333,10.8333333 L60.6666667,10.8333333 C59.6372885,10.8333333 58.7496745,11.558024 58.5433756,12.5662436 L56.3767089,23.399577 C56.2465822,24.0375162 56.4095052,24.6997885 56.8210449,25.2033692 C57.2325845,25.7080078 57.8493652,26 58.5,26 Z M62.4408365,15.1666667 L67.5591635,15.1666667 L68.8583171,21.6666667 L61.1437989,21.6666667 L62.4408365,15.1666667 Z" id="Shape"></path>
                        <polygon id="Shape" points="86.6666667 30.3333333 104 30.3333333 104 34.6666667 86.6666667 34.6666667"></polygon>
                        <polygon id="Shape" points="108.333333 30.3333333 112.666667 30.3333333 112.666667 34.6666667 108.333333 34.6666667"></polygon>
                        <polygon id="Shape" points="86.6666667 39 104 39 104 43.3333333 86.6666667 43.3333333"></polygon>
                        <polygon id="Shape" points="108.333333 39 112.666667 39 112.666667 43.3333333 108.333333 43.3333333"></polygon>
                        <polygon id="Shape" points="86.6666667 47.6666667 104 47.6666667 104 52 86.6666667 52"></polygon>
                        <polygon id="Shape" points="108.333333 47.6666667 112.666667 47.6666667 112.666667 52 108.333333 52"></polygon>
                    </g>
                    <g id="outdoor-cafe" transform="translate(151.937500, 16.250000)">
                        <path d="M142.04878,23.6222683 C142.04878,20.6855762 140.16275,18.13175 137.355622,17.2680823 C137.333149,17.2611463 137.310677,17.2547652 137.288204,17.2483841 L79.5431555,1.45988415 C73.9688506,-0.248030488 68.0796524,-0.248030488 62.5053476,1.45988415 L4.76057622,17.2483841 C4.73782622,17.2544878 4.7156311,17.2611463 4.69315854,17.2680823 C1.88603049,18.13175 0,20.6852988 0,23.6222683 C0,23.8247988 0.0294085366,24.0198384 0.080179878,24.2062774 C0.0294085366,24.3927165 0,24.5877561 0,24.7902866 L0,27.0097988 C0,30.6814268 2.98690854,33.6683354 6.65853659,33.6683354 L37.7317073,33.6683354 C39.4357378,33.6683354 40.9918933,33.024122 42.1707317,31.9673567 C43.3495701,33.024122 44.9057256,33.6683354 46.6097561,33.6683354 L68.804878,33.6683354 L68.804878,75.8390671 L46.6097561,75.8390671 C45.3840305,75.8390671 44.3902439,76.8328537 44.3902439,78.0585793 C44.3902439,79.2843049 45.3840305,80.2780915 46.6097561,80.2780915 L64.3658537,80.2780915 L64.3658537,82.4976037 C64.3658537,85.3910152 66.2216433,87.8582805 68.804878,88.7743841 L68.804878,100.47704 C63.7455,101.50828 59.9268293,105.991973 59.9268293,111.351262 C59.9268293,112.576988 60.9206159,113.570774 62.1463415,113.570774 C63.3720671,113.570774 64.3658537,112.576988 64.3658537,111.351262 C64.3658537,108.457851 66.2216433,105.990863 68.804878,105.074482 L68.804878,111.351262 C68.804878,112.576988 69.7986646,113.570774 71.0243902,113.570774 C72.2501159,113.570774 73.2439024,112.576988 73.2439024,111.351262 L73.2439024,105.074482 C75.8271372,105.990585 77.6829268,108.457851 77.6829268,111.351262 C77.6829268,112.576988 78.6767134,113.570774 79.902439,113.570774 C81.1281646,113.570774 82.1219512,112.576988 82.1219512,111.351262 C82.1219512,105.991973 78.3032805,101.508003 73.2439024,100.47704 L73.2439024,88.7743841 C75.8271372,87.8582805 77.6829268,85.3912927 77.6829268,82.4976037 L77.6829268,80.2780915 L95.4390244,80.2780915 C96.66475,80.2780915 97.6585366,79.2843049 97.6585366,78.0585793 C97.6585366,76.8328537 96.66475,75.8390671 95.4390244,75.8390671 L73.2439024,75.8390671 L73.2439024,33.6683354 L95.4390244,33.6683354 C97.1430549,33.6683354 98.6989329,33.024122 99.8780488,31.9673567 C101.056887,33.024122 102.613043,33.6683354 104.317073,33.6683354 L135.390244,33.6683354 C139.061872,33.6683354 142.04878,30.6814268 142.04878,27.0097988 L142.04878,24.7902866 C142.04878,24.5877561 142.019372,24.3927165 141.968601,24.2062774 C142.019372,24.0198384 142.04878,23.8247988 142.04878,23.6222683 Z M73.2439024,82.4976037 C73.2439024,83.7213872 72.2481738,84.7171159 71.0243902,84.7171159 C69.8006067,84.7171159 68.804878,83.7213872 68.804878,82.4976037 L68.804878,80.2780915 L73.2439024,80.2780915 L73.2439024,82.4976037 Z M41.5309573,18.13175 L18.3609146,18.13175 L58.1495549,7.25281098 C51.6852256,11.7065396 43.6566951,16.7922744 41.5309573,18.13175 Z M67.2820152,6.09339329 C69.4857134,4.33054573 72.5677835,4.33442988 74.7773079,6.1019939 C74.8244726,6.13972561 74.8733018,6.17551524 74.9232409,6.2093628 L92.6133079,18.13175 L49.7878201,18.13175 C55.3990244,14.5111707 63.2400061,9.32694512 67.2820152,6.09339329 Z M37.7317073,29.229311 L6.65853659,29.229311 C5.43475305,29.229311 4.43902439,28.2335823 4.43902439,27.0097988 L4.43902439,24.7902866 C4.43902439,24.5877561 4.40961585,24.3927165 4.35884451,24.2062774 C4.40961585,24.0198384 4.43902439,23.8247988 4.43902439,23.6222683 C4.43902439,23.243564 4.53612805,22.8859451 4.70592073,22.5707744 L39.9512195,22.5707744 L39.9512195,27.0097988 C39.9512195,28.2335823 38.9554909,29.229311 37.7317073,29.229311 Z M95.4390244,29.229311 L46.6097561,29.229311 C45.3859726,29.229311 44.3902439,28.2335823 44.3902439,27.0097988 L44.3902439,22.5707744 L97.6585366,22.5707744 L97.6585366,27.0097988 C97.6585366,28.2335823 96.6628079,29.229311 95.4390244,29.229311 Z M137.609756,27.0097988 C137.609756,28.2335823 136.614027,29.229311 135.390244,29.229311 L104.317073,29.229311 C103.09329,29.229311 102.097561,28.2335823 102.097561,27.0097988 L102.097561,22.5707744 L104.317073,22.5707744 C105.542799,22.5707744 106.536585,21.5769878 106.536585,20.3512622 C106.536585,19.1255366 105.542799,18.13175 104.317073,18.13175 L100.55611,18.13175 L84.7659451,7.4897439 L123.688143,18.13175 L113.195122,18.13175 C111.969396,18.13175 110.97561,19.1255366 110.97561,20.3512622 C110.97561,21.5769878 111.969396,22.5707744 113.195122,22.5707744 L137.34286,22.5707744 C137.51293,22.8856677 137.609756,23.243564 137.609756,23.6222683 C137.609756,23.8247988 137.639165,24.0198384 137.689936,24.2062774 C137.639165,24.3927165 137.609756,24.5877561 137.609756,24.7902866 L137.609756,27.0097988 Z" id="Shape"></path>
                        <path d="M44.3902439,97.8505244 L44.3902439,87.4915061 C44.3902439,85.9617073 43.1456524,84.7171159 41.6158537,84.7171159 L19.9756098,84.7171159 L19.9756098,69.1805305 C19.9756098,65.5089024 16.9887012,62.5219939 13.3170732,62.5219939 C12.0913476,62.5219939 11.097561,63.5157805 11.097561,64.7415061 C11.097561,65.9672317 12.0913476,66.9610183 13.3170732,66.9610183 C14.5408567,66.9610183 15.5365854,67.956747 15.5365854,69.1805305 L15.5365854,86.936628 L15.5365854,97.8505244 L13.347314,110.98643 C13.1456159,112.195509 13.9626738,113.338835 15.171753,113.540534 C15.2952134,113.561064 15.4181189,113.571052 15.5393598,113.571052 C16.6047256,113.571052 17.5449665,112.801713 17.7258567,111.715817 L19.6363018,100.253424 L40.2905274,100.253424 L42.2009726,111.715817 C42.3818628,112.801713 43.3223811,113.571052 44.3874695,113.571052 C44.5087104,113.571052 44.6316159,113.561064 44.7550762,113.540534 C45.9641555,113.338835 46.7812134,112.195509 46.5795152,110.98643 L44.3902439,97.8505244 Z M39.9512195,95.8146768 L19.9756098,95.8146768 L19.9756098,89.1561402 L39.9512195,89.1561402 L39.9512195,95.8146768 Z" id="Shape"></path>
                        <path d="M128.731707,62.5219939 C125.060079,62.5219939 122.073171,65.5089024 122.073171,69.1805305 L122.073171,84.7171159 L100.432927,84.7171159 C98.903128,84.7171159 97.6585366,85.9617073 97.6585366,87.4915061 L97.6585366,97.8505244 L95.4692652,110.98643 C95.2675671,112.195509 96.084625,113.338835 97.2937043,113.540534 C97.4171646,113.561064 97.5400701,113.571052 97.661311,113.571052 C98.7266768,113.571052 99.6669177,112.801713 99.8478079,111.715817 L101.758253,100.253424 L122.412479,100.253424 L124.322924,111.715817 C124.503814,112.801713 125.444332,113.571052 126.509421,113.571052 C126.630662,113.571052 126.753567,113.561064 126.877027,113.540534 C128.086107,113.338835 128.903165,112.195509 128.701466,110.98643 L126.512195,97.8505244 L126.512195,86.936628 L126.512195,69.1805305 C126.512195,67.956747 127.507924,66.9610183 128.731707,66.9610183 C129.957433,66.9610183 130.95122,65.9672317 130.95122,64.7415061 C130.95122,63.5157805 129.957433,62.5219939 128.731707,62.5219939 Z M102.097561,89.1561402 L122.073171,89.1561402 L122.073171,95.8146768 L102.097561,95.8146768 L102.097561,89.1561402 Z" id="Shape"></path>
                    </g>
                </g>
                <g id="waiting-area" transform="translate(315.000000, 70.000000)">
                    <path d="M81.3929143,55.6604571 L79.3128,55.6604571 L79.3128,41.076 C79.3128,38.0420571 76.8445714,35.5741714 73.8109714,35.5741714 L59.1363429,35.5741714 L59.1363429,11.0293714 C59.1363429,8.0736 56.7315429,5.6688 53.7757714,5.6688 L49.0313143,5.6688 C46.0755429,5.6688 43.6707429,8.0736 43.6707429,11.0293714 L43.6707429,35.5741714 L28.9961143,35.5741714 C28.7770286,35.5741714 28.5617143,35.5906286 28.3491429,35.6156571 L30.3898286,34.1928 L38.2405714,33.7878857 C39.2609143,33.7350857 40.0878857,32.9420571 40.1828571,31.9248 L41.8971429,13.5699429 C41.9478857,13.0251429 41.7795429,12.4824 41.4291429,12.0617143 C41.0790857,11.6413714 40.5754286,11.3777143 40.0302857,11.3293714 C37.5315429,11.1078857 35.0945143,11.8731429 33.1700571,13.4842286 C31.2459429,15.0953143 30.0644571,17.3588571 29.8429714,19.8586286 C29.8416,19.8761143 29.8402286,19.8939429 29.8388571,19.9114286 L29.2059429,30.0024 L29.0026286,30.1443429 L17.9269714,30.7155429 C17.0862857,30.7587429 16.3566857,31.3100571 16.0854857,32.1072 L12.9408,41.3451429 L0.880457143,49.7547429 C-0.0514285714,50.4048 -0.280114286,51.6867429 0.369942857,52.6189714 C0.770057143,53.1925714 1.40914286,53.4994286 2.0592,53.4994286 C2.46548571,53.4994286 2.87554286,53.3794286 3.23417143,53.1294857 L10.7016,47.9221714 L9.0144,52.8785143 C8.64822857,53.9540571 9.2232,55.1225143 10.2987429,55.4886857 C10.5185143,55.5634286 10.7420571,55.5990857 10.9618286,55.5990857 C11.8182857,55.5990857 12.6178286,55.0601143 12.9089143,54.2043429 L16.4005714,43.9481143 L24.0997714,38.5793143 C23.7154286,39.3298286 23.4942857,40.1770286 23.4942857,41.0763429 L23.4942857,55.6608 L21.1776,55.6608 C20.0413714,55.6608 19.1204571,56.5820571 19.1204571,57.7179429 C19.1204571,58.8538286 20.0413714,59.7750857 21.1776,59.7750857 L81.3932571,59.7750857 C82.5294857,59.7750857 83.4504,58.8538286 83.4504,57.7179429 C83.4504,56.5820571 82.5291429,55.6604571 81.3929143,55.6604571 Z M33.9432,20.1977143 C34.0731429,18.8022857 34.7358857,17.5392 35.8110857,16.6388571 C36.3384,16.1972571 36.9339429,15.8688 37.5689143,15.6627429 L36.2513143,29.7709714 L33.3329143,29.9211429 L33.9432,20.1977143 Z M19.5308571,34.7526857 L22.6227429,34.5932571 L18.6394286,37.3707429 L19.5308571,34.7526857 Z M47.7846857,11.0293714 C47.7846857,10.3422857 48.3438857,9.78308571 49.0309714,9.78308571 L53.7754286,9.78308571 C54.4625143,9.78308571 55.0217143,10.3422857 55.0217143,11.0293714 L55.0217143,35.5741714 L47.7846857,35.5741714 L47.7846857,11.0293714 L47.7846857,11.0293714 Z M45.7275429,39.6884571 L57.0788571,39.6884571 L73.8106286,39.6884571 C74.5758857,39.6884571 75.1981714,40.3107429 75.1981714,41.076 L75.1981714,41.2429714 L27.6082286,41.2429714 L27.6082286,41.076 C27.6082286,40.3107429 28.2308571,39.6884571 28.9961143,39.6884571 L45.7275429,39.6884571 Z M27.6082286,45.3572571 L75.1985143,45.3572571 L75.1985143,55.6604571 L27.6082286,55.6604571 L27.6082286,45.3572571 Z" id="Shape"></path>
                    <path d="M36.3905143,10.8370286 C36.5499429,10.8510857 36.708,10.8582857 36.8650286,10.8582857 C39.5962286,10.8582857 41.9310857,8.76411429 42.1765714,5.99245714 C42.4361143,3.06171429 40.2627429,0.465942857 37.332,0.2064 C34.4009143,-0.0521142857 31.8051429,2.12022857 31.5456,5.05062857 C31.5456,5.05062857 31.5456,5.05062857 31.5456,5.05062857 C31.2864,7.98171429 33.4597714,10.5774857 36.3905143,10.8370286 Z M36.9692571,4.30457143 C37.6405714,4.36388571 38.1380571,4.9584 38.0787429,5.62937143 C38.0190857,6.30068571 37.4218286,6.79611429 36.7539429,6.73885714 C36.0826286,6.67954286 35.5848,6.08468571 35.6444571,5.41371429 C35.7037714,4.7424 36.2989714,4.24628571 36.9692571,4.30457143 Z" id="Shape"></path>
                    <path d="M62.1771429,9.61302857 C63.1467429,10.4245714 64.3443429,10.8582857 65.5937143,10.8582857 C65.7528,10.8582857 65.9132571,10.8510857 66.0737143,10.8370286 C67.4934857,10.7112 68.7795429,10.0398857 69.6942857,8.9472 C70.6093714,7.85417143 71.0441143,6.4704 70.9179429,5.05062857 L70.9179429,5.05062857 C70.6584,2.12022857 68.0643429,-0.0521142857 65.1315429,0.206057143 C62.2004571,0.465942857 60.0274286,3.06171429 60.2873143,5.99211429 C60.4131429,7.41222857 61.0841143,8.69794286 62.1771429,9.61302857 Z M64.6656,4.73725714 C64.8750857,4.48697143 65.1696,4.33337143 65.4946286,4.30457143 C65.5309714,4.30148571 65.5673143,4.29977143 65.6033143,4.29977143 C66.2290286,4.29977143 66.7635429,4.77908571 66.8197714,5.41405714 C66.8197714,5.41405714 66.8197714,5.41405714 66.8197714,5.41405714 C66.8485714,5.73908571 66.7491429,6.05622857 66.5396571,6.30651429 C66.3301714,6.5568 66.0356571,6.7104 65.7106286,6.7392 C65.3856,6.76731429 65.0684571,6.66857143 64.8181714,6.45874286 C64.5678857,6.24925714 64.4142857,5.95474286 64.3854857,5.62971429 C64.3566857,5.30434286 64.4561143,4.98754286 64.6656,4.73725714 Z" id="Shape"></path>
                    <path d="M93.4498286,52.8781714 L88.1355429,37.2675429 L89.5059429,37.8613714 C89.7723429,37.9769143 90.0500571,38.0314286 90.3229714,38.0314286 C91.1180571,38.0314286 91.8750857,37.5675429 92.2114286,36.792 C92.6629714,35.7493714 92.1843429,34.5380571 91.1420571,34.0861714 L86.3341714,32.0022857 C86.0362286,31.2634286 85.3398857,30.7563429 84.5372571,30.7152 L73.2661714,30.1340571 L72.6250286,19.9110857 C72.624,19.8936 72.6226286,19.8757714 72.6209143,19.8582857 C72.3994286,17.3585143 71.2179429,15.0946286 69.2938286,13.4838857 C67.3697143,11.8731429 64.9330286,11.1085714 62.4336,11.3290286 C61.8884571,11.3773714 61.3848,11.6410286 61.0347429,12.0613714 C60.6843429,12.4820571 60.516,13.0248 60.5667429,13.5696 L62.2810286,31.9244571 C62.376,32.9417143 63.2029714,33.7347429 64.2233143,33.7875429 L82.9330286,34.752 L89.5549714,54.2036571 C89.8464,55.0594286 90.6456,55.5984 91.5020571,55.5984 C91.7218286,55.5984 91.9453714,55.5627429 92.1651429,55.488 C93.2410286,55.1225143 93.816,53.9537143 93.4498286,52.8781714 Z M66.2125714,29.7706286 L64.8949714,15.6624 C65.5299429,15.8688 66.1258286,16.1972571 66.6528,16.6385143 C67.7283429,17.5388571 68.3907429,18.8019429 68.5206857,20.1973714 L69.1306286,29.9208 L66.2125714,29.7706286 Z" id="Shape"></path>
                </g>
            </g>
        </g>
    </g>
</svg>