<svg xmlns="http://www.w3.org/2000/svg" xmlns:xlink="http://www.w3.org/1999/xlink" width="59" height="59" viewBox="0 0 59 59"><defs><path id="27zoa" d="M1130.667 1826.298l-3.299-5.298-3.298 5.298z"/><path id="27zob" d="M1124.07 1860.94l3.299 5.298 3.298-5.298z"/><path id="27zoc" d="M1175.46 1877.687l5.297-3.299-5.297-3.298z"/><path id="27zod" d="M1135.52 1874.388l5.297 3.299v-6.597z"/><path id="27zoe" d="M1180.757 1824.147V1821h-45.237v45.237h45.237v-38.758"/><path id="27zof" d="M1180.687 1825.146a1 1 0 0 0 1-1v-3.147a1 1 0 0 0-1-.999h-45.237a1 1 0 0 0-1 .999v45.237a1 1 0 0 0 1 1h45.237a1 1 0 0 0 .999-1v-38.758a.999.999 0 1 0-1.999 0v17.127h-3.97a1 1 0 0 0 0 2h3.97v18.631h-28.561v-4.836a.999.999 0 1 0-1.999 0v4.836h-12.677v-43.237h12.677v31.203a1 1 0 0 0 1.999 0v-6.597h17.794a1 1 0 0 0 0-2h-17.794v-22.606h28.561v2.147a1 1 0 0 0 1 1"/><path id="27zog" d="M1128.146 1820.471a.998.998 0 0 0-1.697 0l-3.299 5.298a1 1 0 0 0 .849 1.528h2.3v4.181a1 1 0 0 0 1.998 0v-4.181h2.3a.998.998 0 0 0 .848-1.528zm-2.347 4.827l1.5-2.407 1.497 2.407z"/><path id="27zoh" d="M1130.597 1859.936h-2.299v-25.796a1 1 0 0 0-2 0v25.796H1124a1 1 0 0 0-.848 1.528l3.298 5.298a1.001 1.001 0 0 0 1.697 0l3.3-5.298a.998.998 0 0 0-.849-1.528zm-3.299 4.395l-1.499-2.388h2.998z"/><path id="27zoi" d="M1181.215 1873.54a.998.998 0 0 1 0 1.697l-5.298 3.299a1.006 1.006 0 0 1-1.014.025 1 1 0 0 1-.514-.874v-2.3h-32.642v2.3a1 1 0 0 1-1.528.849l-5.298-3.3a1 1 0 0 1 0-1.696l5.298-3.3a1 1 0 0 1 1.528.85v2.299h32.642v-2.3a1 1 0 0 1 1.528-.848zm-41.467-.65l-2.407 1.498 2.407 1.499zm39.037 1.498l-2.397-1.498v2.997z"/></defs><g><g transform="translate(-1123 -1820)"><g><use fill="#322f31" xlink:href="#27zoa"/></g><g><use fill="#322f31" xlink:href="#27zob"/></g><g><use fill="#322f31" xlink:href="#27zoc"/></g><g><use fill="#322f31" xlink:href="#27zod"/></g><g><use fill="#d0e5ea" xlink:href="#27zoe"/></g><g><use fill="#322f31" xlink:href="#27zof"/></g><g><use fill="#322f31" xlink:href="#27zog"/></g><g><use fill="#322f31" xlink:href="#27zoh"/></g><g><use fill="#322f31" xlink:href="#27zoi"/></g></g></g></svg>