<?xml version="1.0" encoding="UTF-8"?>
<svg width="67px" height="59px" viewBox="0 0 67 59" version="1.1" xmlns="http://www.w3.org/2000/svg" xmlns:xlink="http://www.w3.org/1999/xlink">
    <!-- Generator: Sketch 47.1 (45422) - http://www.bohemiancoding.com/sketch -->
    <title>complex-feature-2</title>
    <desc>Created with Sketch.</desc>
    <defs>
        <polygon id="path-1" points="66.3866 55 0 55 0 0.5384 66.3866 0.5384 66.3866 55"></polygon>
        <linearGradient x1="0%" y1="50%" x2="99.981075%" y2="50%" id="linearGradient-3">
            <stop stop-color="#F47C22" offset="0%"></stop>
            <stop stop-color="#FFCD02" offset="100%"></stop>
        </linearGradient>
        <path d="M32.8553,12.6574 C28.1583,12.8184 24.2763,16.4644 23.8283,21.1384 C23.7423,22.0464 23.7883,22.9594 23.9723,23.8494 C23.9723,23.8664 23.9773,23.8774 23.9773,23.8954 C23.9833,23.9234 24.0003,24.0044 24.0293,24.1304 L24.0293,24.1424 C24.1733,24.7854 24.3853,25.4114 24.6613,26.0084 C24.6613,26.0134 24.6673,26.0254 24.6723,26.0364 C25.7403,28.5574 28.0833,32.4564 33.2003,36.7234 C38.3163,32.4514 40.6593,28.5574 41.7273,26.0364 C41.7273,26.0314 41.7333,26.0194 41.7383,26.0084 C42.0143,25.4114 42.2263,24.7794 42.3703,24.1424 L42.3703,24.1304 C42.3993,24.0044 42.4163,23.9234 42.4223,23.8954 C42.4223,23.8774 42.4273,23.8664 42.4273,23.8494 C42.5423,23.2634 42.6003,22.6604 42.6003,22.0634 C42.6003,19.4854 41.5833,17.0844 39.7283,15.2934 C37.8743,13.5014 35.4333,12.5654 32.8553,12.6574" id="path-4"></path>
        <filter x="-146.2%" y="-72.7%" width="392.3%" height="328.5%" filterUnits="objectBoundingBox" id="filter-5">
            <feOffset dx="0" dy="10" in="SourceAlpha" result="shadowOffsetOuter1"></feOffset>
            <feGaussianBlur stdDeviation="7.5" in="shadowOffsetOuter1" result="shadowBlurOuter1"></feGaussianBlur>
            <feColorMatrix values="0 0 0 0 1   0 0 0 0 0.792156863   0 0 0 0 0.0156862745  0 0 0 0.2 0" type="matrix" in="shadowBlurOuter1"></feColorMatrix>
        </filter>
    </defs>
    <g id="Page-1" stroke="none" stroke-width="1" fill="none" fill-rule="evenodd">
        <g id="3-1-apartments-main-1170" transform="translate(-607.000000, -4761.000000)">
            <g id="complex-feature-2" transform="translate(607.000000, 4760.000000)">
                <g id="Page-1">
                    <g id="Group-3" transform="translate(0.000000, 0.461600)">
                        <mask id="mask-2" fill="white">
                            <use xlink:href="#path-1"></use>
                        </mask>
                        <g id="Clip-2"></g>
                        <path d="M40.2706,51.4254 L34.2086,45.3634 L42.5566,37.0154 L48.6186,43.0774 L40.2706,51.4254 Z M21.1876,32.3424 L29.5356,23.9944 L40.2606,34.7204 L31.9126,43.0684 L21.1876,32.3424 Z M13.8586,48.3324 L6.3546,40.8294 L15.7186,31.4644 L23.2226,38.9684 L13.8586,48.3324 Z M26.5206,16.3884 L41.6966,1.2124 L51.4096,10.9244 L36.2326,26.1004 L30.6846,20.5524 C30.6836,20.5514 30.6836,20.5514 30.6836,20.5514 C30.6826,20.5504 30.6826,20.5504 30.6826,20.5504 L26.5206,16.3884 Z M56.9916,39.2964 C57.6256,38.6624 57.6256,37.6344 56.9916,37.0004 C56.3576,36.3664 55.3296,36.3664 54.6956,37.0004 L50.9136,40.7814 L43.7046,33.5734 C43.7046,33.5734 43.7046,33.5724 43.7046,33.5724 C43.7036,33.5714 43.7036,33.5714 43.7036,33.5714 L38.5286,28.3964 L44.6816,22.2434 L47.8706,25.4314 C48.2226,25.7834 48.6836,25.9604 49.1456,25.9604 C49.6076,25.9604 50.0686,25.7834 50.4206,25.4314 C51.1256,24.7274 51.1256,23.5854 50.4206,22.8814 L47.2326,19.6924 L66.3866,0.5384 L61.7956,0.5384 L53.7046,8.6294 L45.6146,0.5384 L37.7796,0.5384 L24.2246,14.0924 L19.1456,9.0134 C18.5116,8.3804 17.4846,8.3804 16.8506,9.0134 C16.2166,9.6474 16.2166,10.6754 16.8506,11.3094 L27.2406,21.6994 L18.8926,30.0474 L12.1316,23.2864 C11.4976,22.6524 10.4696,22.6524 9.8356,23.2864 C9.2016,23.9204 9.2016,24.9484 9.8356,25.5824 L13.4236,29.1694 L-0.0004,42.5924 L-0.0004,47.1844 L4.0596,43.1244 L15.9346,55.0004 L20.5256,55.0004 L16.1536,50.6284 L25.5176,41.2634 L39.2536,55.0004 L43.8446,55.0004 L42.5656,53.7214 L50.9136,45.3734 L60.5406,55.0004 L65.1326,55.0004 L53.2096,43.0774 L56.9916,39.2964 Z" id="Fill-1" fill="#DCDCDC" mask="url(#mask-2)"></path>
                    </g>
                    <path d="M42.4276,23.8291 C42.4276,23.8461 42.4216,23.8581 42.4216,23.8751 C42.4166,23.9041 42.3986,23.9841 42.3706,24.1101 L42.3706,24.1221 C42.2266,24.7591 42.0146,25.3911 41.7386,25.9881 C41.7326,26.0001 41.7266,26.0111 41.7266,26.0171 C40.6586,28.5381 38.3166,32.4311 33.1996,36.7031 C28.0836,32.4371 25.7406,28.5381 24.6726,26.0171 C24.6666,26.0051 24.6606,25.9941 24.6606,25.9881 C24.3856,25.3911 24.1726,24.7651 24.0296,24.1221 L24.0296,24.1101 C24.0006,23.9841 23.9836,23.9041 23.9776,23.8751 C23.9776,23.8581 23.9716,23.8461 23.9716,23.8291 C23.7886,22.9391 23.7426,22.0261 23.8286,21.1191 C24.2766,16.4441 28.1576,12.7981 32.8556,12.6371 C35.4336,12.5451 37.8736,13.4811 39.7286,15.2731 C41.5836,17.0651 42.5996,19.4651 42.5996,22.0431 C42.5996,22.6401 42.5426,23.2431 42.4276,23.8291 M41.1646,13.7921 C38.9076,11.6091 35.9336,10.4731 32.7866,10.5761 C27.0556,10.7771 22.3236,15.2271 21.7726,20.9231 C21.6696,22.0201 21.7156,23.1171 21.9216,24.1971 C21.9276,24.2421 21.9506,24.3751 22.0026,24.5811 C22.1806,25.3561 22.4326,26.1141 22.7666,26.8381 C23.9316,29.5831 26.4696,33.8091 31.9536,38.3571 C32.3156,38.6561 32.7516,38.8051 33.1936,38.8051 C33.6366,38.8051 34.0726,38.6561 34.4346,38.3571 C39.9186,33.8031 42.4566,29.5831 43.6216,26.8381 C43.9546,26.1141 44.2136,25.3561 44.3856,24.5811 C44.4376,24.3751 44.4606,24.2421 44.4666,24.1971 C44.5986,23.4901 44.6666,22.7611 44.6666,22.0431 C44.6666,18.9021 43.4206,15.9741 41.1646,13.7921" id="Fill-4" fill="#322F31"></path>
                    <g id="Fill-6">
                        <use fill="black" fill-opacity="1" filter="url(#filter-5)" xlink:href="#path-4"></use>
                        <use fill="url(#linearGradient-3)" fill-rule="evenodd" xlink:href="#path-4"></use>
                    </g>
                    <path d="M33.1941,16.0484 C29.8291,16.0484 27.0841,18.7874 27.0841,22.1584 C27.0841,25.5284 29.8291,28.2684 33.1941,28.2684 C33.7621,28.2684 34.2281,27.8024 34.2281,27.2344 C34.2281,26.6654 33.7621,26.2004 33.1941,26.2004 C30.9661,26.2004 29.1511,24.3864 29.1511,22.1584 C29.1511,19.9304 30.9661,18.1154 33.1941,18.1154 C35.4221,18.1154 37.2371,19.9304 37.2371,22.1584 C37.2371,23.1224 36.8921,24.0534 36.2661,24.7824 C35.8931,25.2184 35.9451,25.8674 36.3811,26.2414 C36.8171,26.6144 37.4661,26.5624 37.8391,26.1264 C38.7871,25.0234 39.3041,23.6114 39.3041,22.1584 C39.3041,18.7934 36.5651,16.0484 33.1941,16.0484" id="Fill-8" fill="#322F31"></path>
                    <path d="M37.2746,22.1581 C37.2746,19.9041 35.4476,18.0771 33.1936,18.0771 C30.9406,18.0771 29.1136,19.9041 29.1136,22.1581 C29.1136,24.4121 30.9406,26.2391 33.1936,26.2391 C35.4476,26.2391 37.2746,24.4121 37.2746,22.1581" id="Fill-10" fill="#FFFFFF"></path>
                </g>
            </g>
        </g>
    </g>
</svg>