<?xml version="1.0" encoding="UTF-8"?>
<svg width="131px" height="65px" viewBox="0 0 131 65" version="1.1" xmlns="http://www.w3.org/2000/svg" xmlns:xlink="http://www.w3.org/1999/xlink">
    <!-- Generator: Sketch 47.1 (45422) - http://www.bohemiancoding.com/sketch -->
    <title>complex-feature-1</title>
    <desc>Created with Sketch.</desc>
    <defs>
        <linearGradient x1="0%" y1="50%" x2="99.981075%" y2="50%" id="linearGradient-1">
            <stop stop-color="#F47C22" offset="0%"></stop>
            <stop stop-color="#FFCD02" offset="100%"></stop>
        </linearGradient>
        <path d="M99.3441,21.0265 C99.2581,21.0015 99.2071,20.9565 99.1351,20.9225 L73.9441,20.9225 C73.8791,20.9535 73.8331,20.9955 73.7551,21.0185 C72.3851,21.4295 71.7191,22.3185 71.7161,23.7355 C71.7131,25.7015 71.7141,27.6675 71.7151,29.6345 L71.7161,30.8515 L72.7111,30.8515 L100.3611,30.8515 C100.3781,30.8505 100.3921,30.8425 100.4091,30.8425 L101.3671,30.8425 L101.3681,27.7795 C101.3681,26.4215 101.3701,25.0625 101.3651,23.7045 C101.3611,22.3155 100.6811,21.4145 99.3441,21.0265" id="path-2"></path>
        <filter x="-92.7%" y="-176.3%" width="285.5%" height="653.9%" filterUnits="objectBoundingBox" id="filter-3">
            <feOffset dx="0" dy="10" in="SourceAlpha" result="shadowOffsetOuter1"></feOffset>
            <feGaussianBlur stdDeviation="7.5" in="shadowOffsetOuter1" result="shadowBlurOuter1"></feGaussianBlur>
            <feColorMatrix values="0 0 0 0 1   0 0 0 0 0.792156863   0 0 0 0 0.0156862745  0 0 0 0.2 0" type="matrix" in="shadowBlurOuter1"></feColorMatrix>
        </filter>
        <path d="M35.0513,28.9383 C35.0513,30.9303 36.6713,32.5503 38.6633,32.5503 L58.7583,32.5503 C60.7503,32.5503 62.3703,30.9303 62.3703,28.9383 L62.3703,23.0793 L35.0513,23.0793 L35.0513,28.9383 Z" id="path-4"></path>
        <filter x="-100.7%" y="-184.8%" width="301.3%" height="680.7%" filterUnits="objectBoundingBox" id="filter-5">
            <feOffset dx="0" dy="10" in="SourceAlpha" result="shadowOffsetOuter1"></feOffset>
            <feGaussianBlur stdDeviation="7.5" in="shadowOffsetOuter1" result="shadowBlurOuter1"></feGaussianBlur>
            <feColorMatrix values="0 0 0 0 1   0 0 0 0 0.792156863   0 0 0 0 0.0156862745  0 0 0 0.2 0" type="matrix" in="shadowBlurOuter1"></feColorMatrix>
        </filter>
        <path d="M58.7586,2.5928 L38.6626,2.5928 C36.6716,2.5928 35.0516,4.2128 35.0516,6.2038 L35.0516,7.8268 L62.3706,7.8268 L62.3706,6.2038 C62.3706,4.2128 60.7506,2.5928 58.7586,2.5928" id="path-6"></path>
        <filter x="-100.7%" y="-334.4%" width="301.3%" height="1150.8%" filterUnits="objectBoundingBox" id="filter-7">
            <feOffset dx="0" dy="10" in="SourceAlpha" result="shadowOffsetOuter1"></feOffset>
            <feGaussianBlur stdDeviation="7.5" in="shadowOffsetOuter1" result="shadowBlurOuter1"></feGaussianBlur>
            <feColorMatrix values="0 0 0 0 1   0 0 0 0 0.792156863   0 0 0 0 0.0156862745  0 0 0 0.2 0" type="matrix" in="shadowBlurOuter1"></feColorMatrix>
        </filter>
        <path d="M22.576,15.6839 C22.553,16.2189 22.113,16.6389 21.579,16.6389 L5.969,16.6389 C5.434,16.6389 4.995,16.2179 4.972,15.6839 C4.894,13.9489 5.758,7.5779 7.374,5.8879 C7.826,5.4149 8.288,5.3159 8.596,5.3159 L18.952,5.3159 C19.261,5.3159 19.723,5.4149 20.175,5.8879 C21.791,7.5789 22.653,13.9489 22.576,15.6839 M23.453,2.0819 C22.966,1.5759 22.429,1.3189 21.858,1.3189 L5.69,1.3189 C5.106,1.3189 4.558,1.5869 4.06,2.1159 C1.409,4.9289 -0.128,15.9969 0.008,18.2909 L1.342,31.6119 C1.484,34.0479 3.527,35.9549 5.993,35.9549 L21.555,35.9549 C24.2,35.9549 26.015,32.3559 26.164,31.8699 C26.182,31.8109 26.195,31.7509 26.201,31.6899 L27.539,19.8949 C27.542,19.8699 27.544,19.8449 27.545,19.8189 C27.684,16.0529 26.046,4.7749 23.453,2.0819" id="path-8"></path>
        <filter x="-99.8%" y="-50.5%" width="299.6%" height="258.8%" filterUnits="objectBoundingBox" id="filter-9">
            <feOffset dx="0" dy="10" in="SourceAlpha" result="shadowOffsetOuter1"></feOffset>
            <feGaussianBlur stdDeviation="7.5" in="shadowOffsetOuter1" result="shadowBlurOuter1"></feGaussianBlur>
            <feColorMatrix values="0 0 0 0 1   0 0 0 0 0.792156863   0 0 0 0 0.0156862745  0 0 0 0.2 0" type="matrix" in="shadowBlurOuter1"></feColorMatrix>
        </filter>
    </defs>
    <g id="Page-1" stroke="none" stroke-width="1" fill="none" fill-rule="evenodd">
        <g id="3-1-apartments-main-1170" transform="translate(-135.000000, -4763.000000)">
            <g id="complex-feature-1" transform="translate(150.000000, 4767.000000)">
                <g id="Page-1">
                    <path d="M95.2505,32.6983 C95.2435,33.0353 95.2405,33.3673 95.2715,33.6953 C95.3485,34.4933 95.7675,35.0423 96.5565,35.3713 C97.2965,35.6833 97.9825,35.5903 98.6445,35.0883 C99.2285,34.6453 99.4955,34.0493 99.4855,33.2083 C99.4835,33.0393 99.4855,32.8683 99.4855,32.6983 L95.2505,32.6983 Z" id="Fill-1" fill="#322F31"></path>
                    <path d="M73.6402,33.6955 C73.7122,34.6985 74.6642,35.5425 75.7232,35.5425 L75.7322,35.5425 C76.7902,35.5385 77.7452,34.6845 77.8162,33.6785 C77.8392,33.3535 77.8312,33.0255 77.8262,32.6985 L73.6302,32.6985 C73.6252,33.0335 73.6172,33.3675 73.6402,33.6955" id="Fill-3" fill="#322F31"></path>
                    <g id="Fill-5">
                        <use fill="black" fill-opacity="1" filter="url(#filter-3)" xlink:href="#path-2"></use>
                        <use fill="url(#linearGradient-1)" fill-rule="evenodd" xlink:href="#path-2"></use>
                    </g>
                    <path d="M101.3649,30.8475 L100.4069,30.8475 C100.3899,30.8475 100.3759,30.8565 100.3589,30.8575 L72.7089,30.8575 L71.7139,30.8575 L71.7129,29.6395 C71.7119,27.6725 71.7099,25.7065 71.7139,23.7405 C71.7169,22.3235 72.3829,21.4355 73.7529,21.0235 C73.8309,21.0005 73.8769,20.9585 73.9419,20.9275 L99.1329,20.9275 C99.2039,20.9615 99.2559,21.0075 99.3419,21.0315 C100.6789,21.4195 101.3589,22.3205 101.3629,23.7095 C101.3669,25.0675 101.3659,26.4265 101.3659,27.7855 L101.3649,30.8475 Z M98.6419,35.0935 C97.9799,35.5955 97.2949,35.6885 96.5539,35.3775 C95.7659,35.0475 95.3459,34.4985 95.2689,33.7005 C95.2379,33.3725 95.2409,33.0405 95.2479,32.7035 L99.4829,32.7035 C99.4829,32.8735 99.4819,33.0445 99.4839,33.2135 C99.4929,34.0545 99.2259,34.6505 98.6419,35.0935 L98.6419,35.0935 Z M77.8139,33.6835 C77.7429,34.6895 76.7879,35.5435 75.7299,35.5475 L75.7209,35.5475 C74.6619,35.5475 73.7089,34.7035 73.6379,33.7005 C73.6149,33.3725 73.6219,33.0395 73.6279,32.7035 L77.8239,32.7035 C77.8289,33.0315 77.8369,33.3585 77.8139,33.6835 L77.8139,33.6835 Z M76.3969,12.7975 C76.7409,11.3465 77.6689,10.6095 79.1539,10.6075 C84.0809,10.6025 89.0089,10.6025 93.9349,10.6085 C95.4189,10.6105 96.3449,11.3505 96.6849,12.8085 L98.1509,19.0815 L74.9229,19.0815 L76.3969,12.7975 Z M103.2089,23.7035 C103.2029,21.5845 102.0779,20.0065 100.1079,19.3375 L98.4839,12.3875 C97.9529,10.1205 96.2539,8.7645 93.9369,8.7615 C89.0099,8.7555 84.0809,8.7565 79.1529,8.7615 C76.8029,8.7645 75.1439,10.0805 74.5999,12.3735 L72.9649,19.3385 C70.9689,20.0325 69.8719,21.5845 69.8679,23.7375 C69.8639,25.7045 69.8649,27.6725 69.8659,29.6405 L69.8679,31.3255 C69.8679,31.4395 69.8739,31.5535 69.8819,31.6805 L69.8899,31.8275 C69.9159,32.3185 70.3209,32.7035 70.8119,32.7035 L71.7739,32.7035 C71.7689,33.0855 71.7699,33.4595 71.7959,33.8325 C71.9359,35.7995 73.6949,37.3945 75.7209,37.3945 L75.7369,37.3945 C77.7579,37.3865 79.5159,35.7805 79.6559,33.8145 C79.6819,33.4525 79.6829,33.0895 79.6789,32.7245 L93.3999,32.7245 C93.3929,33.1015 93.3939,33.4875 93.4309,33.8775 C93.5719,35.3505 94.4279,36.4885 95.8399,37.0795 C96.3519,37.2945 96.8719,37.4015 97.3819,37.4015 C98.2139,37.4015 99.0259,37.1205 99.7579,36.5645 C100.8019,35.7735 101.3459,34.6075 101.3299,33.1935 C101.3289,33.0275 101.3279,32.8615 101.3279,32.6935 L102.2879,32.6935 C102.7979,32.6935 103.2109,32.2805 103.2109,31.7705 L103.2129,27.7865 C103.2129,26.4255 103.2139,25.0635 103.2089,23.7035 L103.2089,23.7035 Z" id="Fill-7" fill="#322F31"></path>
                    <path d="M75.7281,23.5331 C74.1421,23.5331 72.8561,24.8191 72.8561,26.4051 C72.8561,27.9911 74.1421,29.2771 75.7281,29.2771 C77.3141,29.2771 78.6001,27.9911 78.6001,26.4051 C78.6001,24.8191 77.3141,23.5331 75.7281,23.5331" id="Fill-9" fill="#FFFFFF"></path>
                    <path d="M75.7281,23.5331 C74.1421,23.5331 72.8561,24.8191 72.8561,26.4051 C72.8561,27.9921 74.1421,29.2771 75.7281,29.2771 C77.3141,29.2771 78.6001,27.9921 78.6001,26.4051 C78.6001,24.8191 77.3141,23.5331 75.7281,23.5331 M75.7281,24.5331 C76.7601,24.5331 77.6001,25.3731 77.6001,26.4051 C77.6001,27.4381 76.7601,28.2771 75.7281,28.2771 C74.6961,28.2771 73.8561,27.4381 73.8561,26.4051 C73.8561,25.3731 74.6961,24.5331 75.7281,24.5331" id="Fill-11" fill="#322F31"></path>
                    <path d="M97.3637,23.5331 C95.7777,23.5331 94.4917,24.8191 94.4917,26.4051 C94.4917,27.9911 95.7777,29.2771 97.3637,29.2771 C98.9497,29.2771 100.2357,27.9911 100.2357,26.4051 C100.2357,24.8191 98.9497,23.5331 97.3637,23.5331" id="Fill-13" fill="#FFFFFF"></path>
                    <path d="M97.3637,23.5331 C95.7777,23.5331 94.4917,24.8191 94.4917,26.4051 C94.4917,27.9921 95.7777,29.2771 97.3637,29.2771 C98.9497,29.2771 100.2357,27.9921 100.2357,26.4051 C100.2357,24.8191 98.9497,23.5331 97.3637,23.5331 M97.3637,24.5331 C98.3957,24.5331 99.2357,25.3731 99.2357,26.4051 C99.2357,27.4381 98.3957,28.2771 97.3637,28.2771 C96.3317,28.2771 95.4917,27.4381 95.4917,26.4051 C95.4917,25.3731 96.3317,24.5331 97.3637,24.5331" id="Fill-15" fill="#322F31"></path>
                    <path d="M92.1575,25.7734 L80.5645,25.7734 C80.1525,25.7734 79.8195,25.4394 79.8195,25.0284 L79.8195,25.0284 C79.8195,24.6164 80.1525,24.2834 80.5645,24.2834 L92.1575,24.2834 C92.5695,24.2834 92.9025,24.6164 92.9025,25.0284 L92.9025,25.0284 C92.9025,25.4394 92.5695,25.7734 92.1575,25.7734" id="Fill-17" fill="#322F31"></path>
                    <path d="M92.2776,28.1039 L80.6846,28.1039 C80.2726,28.1039 79.9396,27.7699 79.9396,27.3589 L79.9396,27.3589 C79.9396,26.9469 80.2726,26.6139 80.6846,26.6139 L92.2776,26.6139 C92.6896,26.6139 93.0226,26.9469 93.0226,27.3589 L93.0226,27.3589 C93.0226,27.7699 92.6896,28.1039 92.2776,28.1039" id="Fill-19" fill="#322F31"></path>
                    <path d="M39.2021,35.4474 C39.2021,36.2924 39.8151,36.9804 40.5691,36.9804 L41.0351,36.9804 C41.7891,36.9804 42.4021,36.2924 42.4021,35.4474 L42.4021,35.4474 L42.4021,34.1494 L39.2021,34.1494 L39.2021,35.4474 Z" id="Fill-21" fill="#322F31"></path>
                    <g id="Fill-23">
                        <use fill="black" fill-opacity="1" filter="url(#filter-5)" xlink:href="#path-4"></use>
                        <use fill="url(#linearGradient-1)" fill-rule="evenodd" xlink:href="#path-4"></use>
                    </g>
                    <path d="M55.02,35.4474 C55.02,36.2924 55.633,36.9804 56.387,36.9804 L56.853,36.9804 C57.606,36.9804 58.219,36.2924 58.219,35.4474 L58.219,34.1494 L55.02,34.1494 L55.02,35.4474 Z" id="Fill-25" fill="#322F31"></path>
                    <path d="M31.5168,7.7374 L31.5168,14.8654 C31.5168,15.2254 31.7858,15.5184 32.1178,15.5184 L32.1178,15.5184 L33.4518,15.5184 L33.4518,7.0854 L32.1178,7.0854 C31.7858,7.0854 31.5168,7.3774 31.5168,7.7374" id="Fill-27" fill="#BDBDBD"></path>
                    <path d="M65.3044,7.085 L63.9694,7.085 L63.9694,15.518 L65.3044,15.518 C65.6354,15.518 65.9044,15.226 65.9044,14.866 L65.9044,7.737 C65.9044,7.378 65.6354,7.085 65.3044,7.085" id="Fill-29" fill="#BDBDBD"></path>
                    <g id="Fill-31">
                        <use fill="black" fill-opacity="1" filter="url(#filter-7)" xlink:href="#path-6"></use>
                        <use fill="url(#linearGradient-1)" fill-rule="evenodd" xlink:href="#path-6"></use>
                    </g>
                    <path d="M65.9047,14.8725 C65.9047,15.2325 65.6357,15.5255 65.3047,15.5255 L63.9697,15.5255 L63.9697,7.0915 L65.3047,7.0915 C65.6357,7.0915 65.9047,7.3845 65.9047,7.7445 L65.9047,14.8725 Z M62.3697,7.8335 L35.0507,7.8335 L35.0507,6.2105 C35.0507,4.2195 36.6707,2.5995 38.6627,2.5995 L58.7587,2.5995 C60.7497,2.5995 62.3697,4.2195 62.3697,6.2105 L62.3697,7.8335 Z M49.4187,21.4865 L62.3697,21.4865 L62.3697,9.4325 L49.4187,9.4325 L49.4187,21.4865 Z M62.3697,28.9445 C62.3697,30.9365 60.7497,32.5565 58.7587,32.5565 L38.6627,32.5565 C36.6707,32.5565 35.0507,30.9365 35.0507,28.9445 L35.0507,23.0865 L62.3697,23.0865 L62.3697,28.9445 Z M58.2187,35.4535 C58.2187,36.2995 57.6057,36.9875 56.8527,36.9875 L56.3867,36.9875 C55.6327,36.9875 55.0197,36.2995 55.0197,35.4535 L55.0197,34.1565 L58.2187,34.1565 L58.2187,35.4535 Z M42.4017,35.4535 L42.4017,35.4535 C42.4017,36.2995 41.7887,36.9875 41.0347,36.9875 L40.5687,36.9875 C39.8147,36.9875 39.2017,36.2995 39.2017,35.4535 L39.2017,34.1565 L42.4017,34.1565 L42.4017,35.4535 Z M35.0507,21.4865 L47.8187,21.4865 L47.8187,9.4325 L35.0507,9.4325 L35.0507,21.4865 Z M33.4517,15.5245 L32.1177,15.5245 L32.1177,15.5255 C31.7857,15.5255 31.5167,15.2325 31.5167,14.8725 L31.5167,7.7445 C31.5167,7.3845 31.7857,7.0915 32.1177,7.0915 L33.4517,7.0915 L33.4517,15.5245 Z M65.3037,5.4925 L63.9187,5.4925 C63.5677,2.9575 61.3877,0.9995 58.7587,0.9995 L38.6627,0.9995 C36.0337,0.9995 33.8537,2.9575 33.5027,5.4925 L32.1177,5.4925 C30.9037,5.4925 29.9177,6.5025 29.9177,7.7445 L29.9177,14.8725 C29.9177,16.1145 30.9037,17.1245 32.1177,17.1245 L33.4517,17.1245 L33.4517,28.9445 C33.4517,31.4545 35.2357,33.5565 37.6027,34.0475 L37.6027,35.4535 C37.6027,37.1815 38.9337,38.5865 40.5687,38.5865 L41.0347,38.5865 C42.6707,38.5865 44.0007,37.1815 44.0007,35.4535 L44.0007,34.1565 L53.4207,34.1565 L53.4207,35.4535 C53.4207,37.1815 54.7507,38.5865 56.3867,38.5865 L56.8527,38.5865 C58.4877,38.5865 59.8187,37.1815 59.8187,35.4535 L59.8187,34.0475 C62.1857,33.5565 63.9697,31.4545 63.9697,28.9445 L63.9697,17.1245 L65.3037,17.1245 C66.5177,17.1245 67.5037,16.1145 67.5037,14.8725 L67.5037,7.7445 C67.5037,6.5025 66.5177,5.4925 65.3037,5.4925 L65.3037,5.4925 Z" id="Fill-33" fill="#322F31"></path>
                    <path d="M40.8745,24.7204 C39.2135,24.7204 37.8625,26.1084 37.8625,27.8144 C37.8625,29.5204 39.2135,30.9084 40.8745,30.9084 C42.5355,30.9084 43.8865,29.5204 43.8865,27.8144 C43.8865,26.1084 42.5355,24.7204 40.8745,24.7204" id="Fill-36" fill="#FFFFFF"></path>
                    <path d="M56.7694,24.7204 C55.1084,24.7204 53.7574,26.1084 53.7574,27.8144 C53.7574,29.5204 55.1084,30.9084 56.7694,30.9084 C58.4304,30.9084 59.7814,29.5204 59.7814,27.8144 C59.7814,26.1084 58.4304,24.7204 56.7694,24.7204" id="Fill-38" fill="#FFFFFF"></path>
                    <path d="M56.7693,29.3095 C55.9903,29.3095 55.3563,28.6385 55.3563,27.8145 C55.3563,26.9905 55.9903,26.3195 56.7693,26.3195 C57.5483,26.3195 58.1823,26.9905 58.1823,27.8145 C58.1823,28.6385 57.5483,29.3095 56.7693,29.3095 M56.7693,24.7205 C55.1083,24.7205 53.7573,26.1085 53.7573,27.8145 C53.7573,29.5205 55.1083,30.9085 56.7693,30.9085 C58.4303,30.9085 59.7813,29.5205 59.7813,27.8145 C59.7813,26.1085 58.4303,24.7205 56.7693,24.7205" id="Fill-40" fill="#233A44"></path>
                    <path d="M40.8745,29.3095 C40.0955,29.3095 39.4615,28.6385 39.4615,27.8145 C39.4615,26.9905 40.0955,26.3195 40.8745,26.3195 C41.6535,26.3195 42.2875,26.9905 42.2875,27.8145 C42.2875,28.6385 41.6535,29.3095 40.8745,29.3095 M40.8745,24.7205 C39.2135,24.7205 37.8625,26.1085 37.8625,27.8145 C37.8625,29.5205 39.2135,30.9085 40.8745,30.9085 C42.5355,30.9085 43.8865,29.5205 43.8865,27.8145 C43.8865,26.1085 42.5355,24.7205 40.8745,24.7205" id="Fill-42" fill="#233A44"></path>
                    <polygon id="Fill-44" fill="#233A44" points="46.321 28.6142 51.324 28.6142 51.324 27.0152 46.321 27.0152"></polygon>
                    <path d="M23.1074,39.1716 L4.4704,39.1716 C3.9194,39.1716 3.4724,38.7246 3.4724,38.1726 C3.4724,37.6206 3.9194,37.1736 4.4704,37.1736 L23.1074,37.1736 C23.6584,37.1736 24.1054,37.6206 24.1054,38.1726 C24.1054,38.7246 23.6584,39.1716 23.1074,39.1716" id="Fill-46" fill="#322F31"></path>
                    <path d="M26.2816,42.5082 C26.0016,42.5082 25.7236,42.3922 25.5266,42.1632 L19.6886,35.4292 C19.3286,35.0122 19.3726,34.3812 19.7886,34.0202 C20.2066,33.6582 20.8366,33.7032 21.1976,34.1202 L27.0346,40.8542 C27.3966,41.2712 27.3516,41.9022 26.9356,42.2642 C26.7466,42.4272 26.5126,42.5082 26.2816,42.5082" id="Fill-47" fill="#322F31"></path>
                    <path d="M1.6326,42.5082 C1.4006,42.5082 1.1676,42.4272 0.9786,42.2642 C0.5626,41.9022 0.5176,41.2712 0.8796,40.8542 L6.7166,34.1202 C7.0766,33.7032 7.7076,33.6582 8.1246,34.0202 C8.5406,34.3812 8.5866,35.0122 8.2246,35.4292 L2.3866,42.1632 C2.1896,42.3922 1.9116,42.5082 1.6326,42.5082" id="Fill-48" fill="#322F31"></path>
                    <g id="Fill-49">
                        <use fill="black" fill-opacity="1" filter="url(#filter-9)" xlink:href="#path-8"></use>
                        <use fill="url(#linearGradient-1)" fill-rule="evenodd" xlink:href="#path-8"></use>
                    </g>
                    <path d="M21.8246,3.3148 L5.6936,3.3198 C4.1486,3.8538 1.8116,14.9108 2.0016,18.1348 L3.3346,31.4568 C3.4206,32.9008 4.5636,33.9588 5.9966,33.9588 L21.5586,33.9588 C22.6636,33.9588 23.9456,31.9838 24.2356,31.3348 L25.5536,19.7108 C25.7216,14.8068 23.4566,3.8828 21.8246,3.3148 M21.5586,35.9568 L5.9966,35.9568 C3.5306,35.9568 1.4876,34.0498 1.3456,31.6148 L0.0116,18.2938 C-0.1244,15.9988 1.4126,4.9308 4.0636,2.1178 C4.5606,1.5898 5.1096,1.3218 5.6936,1.3218 L21.8616,1.3218 C22.4326,1.3218 22.9696,1.5778 23.4556,2.0838 C26.0496,4.7768 27.6876,16.0548 27.5476,19.8218 C27.5476,19.8468 27.5456,19.8718 27.5416,19.8978 L26.2046,31.6918 C26.1986,31.7528 26.1856,31.8138 26.1676,31.8718 C26.0186,32.3578 24.2036,35.9568 21.5586,35.9568" id="Fill-50" fill="#322F31"></path>
                    <path d="M6.9911,14.6426 L20.5641,14.6426 C20.3961,12.2256 19.4801,8.0846 18.7831,7.3166 L8.7721,7.3166 C8.0751,8.0836 7.1591,12.2256 6.9911,14.6426 M21.5821,16.6416 L5.9721,16.6416 C5.4381,16.6416 4.9981,16.2196 4.9751,15.6866 C4.8981,13.9506 5.7611,7.5796 7.3771,5.8896 C7.8291,5.4176 8.2911,5.3186 8.5991,5.3186 L18.9561,5.3186 C19.2641,5.3186 19.7261,5.4176 20.1781,5.8896 C21.7951,7.5816 22.6571,13.9516 22.5791,15.6866 C22.5561,16.2206 22.1171,16.6416 21.5821,16.6416" id="Fill-51" fill="#322F31"></path>
                    <path d="M20.0221,29.2964 L6.7101,29.2964 C6.1591,29.2964 5.7121,28.8494 5.7121,28.2974 C5.7121,27.7454 6.1591,27.2984 6.7101,27.2984 L20.0221,27.2984 C20.5731,27.2984 21.0201,27.7454 21.0201,28.2974 C21.0201,28.8494 20.5731,29.2964 20.0221,29.2964" id="Fill-52" fill="#322F31"></path>
                    <path d="M20.0221,32.6271 L6.7101,32.6271 C6.1591,32.6271 5.7121,32.1801 5.7121,31.6281 C5.7121,31.0751 6.1591,30.6281 6.7101,30.6281 L20.0221,30.6281 C20.5731,30.6281 21.0201,31.0751 21.0201,31.6281 C21.0201,32.1801 20.5731,32.6271 20.0221,32.6271" id="Fill-53" fill="#322F31"></path>
                    <path d="M7.5755,25.1744 C5.8095,25.1744 4.3725,23.7364 4.3725,21.9704 C4.3725,20.2034 5.8095,18.7654 7.5755,18.7654 C9.3415,18.7654 10.7775,20.2034 10.7775,21.9704 C10.7775,23.7364 9.3415,25.1744 7.5755,25.1744" id="Fill-54" fill="#FFFFFF"></path>
                    <path d="M7.5755,20.7634 C6.9105,20.7634 6.3695,21.3044 6.3695,21.9704 C6.3695,22.6354 6.9105,23.1764 7.5755,23.1764 C8.2405,23.1764 8.7805,22.6354 8.7805,21.9704 C8.7805,21.3044 8.2405,20.7634 7.5755,20.7634 M7.5755,25.1744 C5.8095,25.1744 4.3725,23.7364 4.3725,21.9704 C4.3725,20.2034 5.8095,18.7654 7.5755,18.7654 C9.3415,18.7654 10.7775,20.2034 10.7775,21.9704 C10.7775,23.7364 9.3415,25.1744 7.5755,25.1744" id="Fill-55" fill="#322F31"></path>
                    <path d="M19.9842,25.1744 C18.2182,25.1744 16.7822,23.7364 16.7822,21.9704 C16.7822,20.2034 18.2182,18.7654 19.9842,18.7654 C21.7502,18.7654 23.1872,20.2034 23.1872,21.9704 C23.1872,23.7364 21.7502,25.1744 19.9842,25.1744" id="Fill-56" fill="#FFFFFF"></path>
                    <path d="M19.9842,20.7634 C19.3192,20.7634 18.7792,21.3044 18.7792,21.9704 C18.7792,22.6354 19.3192,23.1764 19.9842,23.1764 C20.6502,23.1764 21.1902,22.6354 21.1902,21.9704 C21.1902,21.3044 20.6502,20.7634 19.9842,20.7634 M19.9842,25.1744 C18.2182,25.1744 16.7822,23.7364 16.7822,21.9704 C16.7822,20.2034 18.2182,18.7654 19.9842,18.7654 C21.7502,18.7654 23.1872,20.2034 23.1872,21.9704 C23.1872,23.7364 21.7502,25.1744 19.9842,25.1744" id="Fill-57" fill="#322F31"></path>
                </g>
            </g>
        </g>
    </g>
</svg>