<?xml version="1.0" encoding="UTF-8"?>
<svg width="60px" height="60px" viewBox="0 0 60 60" version="1.1" xmlns="http://www.w3.org/2000/svg" xmlns:xlink="http://www.w3.org/1999/xlink">
    <!-- Generator: Sketch 47.1 (45422) - http://www.bohemiancoding.com/sketch -->
    <title>cultural</title>
    <desc>Created with Sketch.</desc>
    <defs></defs>
    <g id="Page-1" stroke="none" stroke-width="1" fill="none" fill-rule="evenodd">
        <g id="2-9-1-coworking-lviv" transform="translate(-933.000000, -5201.000000)" fill-rule="nonzero">
            <g id="cultural" transform="translate(933.000000, 5201.000000)">
                <path d="M31.7434343,55.0717172 C23.3214141,63.4937374 14.7371717,60.0725253 7.33232323,52.6678788 C-0.0725252525,45.2632323 -3.49353535,36.6787879 4.92848485,28.2567677 C13.9244444,19.2608081 37.6074747,22.3927273 37.6074747,22.3927273 C37.6074747,22.3927273 40.7393939,46.0757576 31.7434343,55.0717172 Z" id="Shape" fill="#D79E54"></path>
                <path d="M31.7434343,49.8733333 C23.3214141,58.2953535 14.7371717,54.8743434 7.33232323,47.4694949 C3.76060606,43.8977778 1.11636364,40.0517172 0.28040404,36.0816162 C-0.993939394,41.8781818 2.21878788,47.5543434 7.33232323,52.6676768 C14.7371717,60.0725253 23.3214141,63.4935354 31.7434343,55.0715152 C37.6878788,49.1270707 38.3363636,36.7713131 38.0927273,29.0717172 C37.8511111,36.3468687 36.4753535,45.1414141 31.7434343,49.8733333 Z" id="Shape" fill="#5E4534" opacity="0.3"></path>
                <path d="M23.1434343,32.7478788 L27.2527273,36.8571717 C27.7713131,37.3757576 28.6123232,37.3757576 29.1309091,36.8571717 L54.700404,8.06787879 C55.2189899,7.54929293 55.2189899,6.70828283 54.700404,6.18969697 L53.8109091,5.30020202 C53.2923232,4.78161616 52.4513131,4.78161616 51.9327273,5.30020202 L23.1434343,30.869697 C22.6248485,31.3882828 22.6248485,32.2292929 23.1434343,32.7478788 Z" id="Shape" fill="#935733"></path>
                <path d="M54.7006061,6.18949495 L53.8111111,5.3 C53.7878788,5.27676768 53.7632323,5.25575758 53.7385859,5.23454545 L28.3440404,33.8268687 C27.8254545,34.3456566 26.9844444,34.3456566 26.4658586,33.8268687 L23.3367677,30.6977778 L23.1434343,30.8694949 C22.6248485,31.3880808 22.6248485,32.2290909 23.1434343,32.7476768 L27.2527273,36.8569697 C27.7713131,37.3757576 28.6123232,37.3757576 29.1309091,36.8569697 L54.7006061,8.06787879 C55.2191919,7.54929293 55.2191919,6.70828283 54.7006061,6.18949495 Z" id="Shape" fill="#935733" opacity="0.3"></path>
                <path d="M29.3779798,38.4078788 C28.6119192,37.6418182 25.9907071,38.8834343 24.9866667,38.9064646 C25.009697,37.9026263 24.6414141,36.8913131 23.8753535,36.1250505 C23.1092929,35.3587879 22.0979798,34.9905051 21.0941414,35.0137374 C21.1171717,34.009899 22.3587879,31.3886869 21.5927273,30.6224242 C20.1052525,29.1349495 16.0836364,30.7448485 14.5961616,32.2323232 C13.1086869,33.719798 13.1086869,36.1313131 14.5961616,37.6187879 C15.3622222,38.3848485 16.3735354,38.7533333 17.3773737,38.730101 C17.3543434,39.7339394 17.7226263,40.7452525 18.4886869,41.5113131 C19.2547475,42.2773737 20.2660606,42.6458586 21.269899,42.6226263 C21.2468687,43.6264646 21.6151515,44.6377778 22.3812121,45.4038384 C23.8686869,46.8913131 26.280202,46.8913131 27.7676768,45.4038384 C29.2555556,43.9169697 30.8654545,39.8953535 29.3779798,38.4078788 Z" id="Shape" fill="#D5C295" opacity="0.45"></path>
                <path d="M56.6731313,0.480808081 L59.5189899,3.32686869 C60.1268687,3.93474747 60.1626263,4.90868687 59.6012121,5.55959596 L54.4242424,11.5612121 C53.8010101,12.2836364 52.6953535,12.3244444 52.0208081,11.649697 L48.350101,7.9789899 C47.6755556,7.30444444 47.7161616,6.19858586 48.4385859,5.57555556 L54.440404,0.398585859 C55.0913131,-0.163030303 56.0652525,-0.127070707 56.6731313,0.480808081 Z" id="Shape" fill="#B2834A"></path>
                <path d="M59.3321212,3.13979798 L54.4244444,8.82929293 C53.8012121,9.55171717 52.6955556,9.59252525 52.0210101,8.91777778 L48.5676768,5.46444444 L48.4389899,5.57555556 C47.7165657,6.19878788 47.6757576,7.30444444 48.3505051,7.9789899 L52.0212121,11.649697 C52.6957576,12.3242424 53.8016162,12.2836364 54.4246465,11.5612121 L59.6016162,5.55959596 C60.1630303,4.90868687 60.1272727,3.93474747 59.5193939,3.32686869 L59.3321212,3.13979798 Z" id="Shape" fill="#9A6A30" opacity="0.3"></path>
                <ellipse id="Oval" fill="#F9B65F" transform="translate(24.787940, 35.212590) rotate(45.000000) translate(-24.787940, -35.212590) " cx="24.7879403" cy="35.2125902" rx="7.66659314" ry="5.098941"></ellipse>
                <path d="M27.7808081,38.2070707 C28.6553535,37.3321212 28.0240404,35.2824242 26.3707071,33.6288889 C24.7173737,31.9753535 22.6684848,31.3444444 21.7939394,32.2193939 C20.9193939,33.0943434 21.5507071,35.1440404 23.2040404,36.7975758 C24.8573737,38.4511111 26.9062626,39.0822222 27.7808081,38.2070707 Z" id="Shape" fill="#5E4534"></path>
                <path d="M3.28383838,51.919596 L8.08121212,56.7169697 C8.7240404,57.359798 9.76626263,57.359798 10.4090909,56.7169697 L11.3816162,55.7444444 C12.0244444,55.1016162 12.0244444,54.0593939 11.3816162,53.4165657 L6.58424242,48.6191919 C5.94141414,47.9763636 4.89919192,47.9763636 4.25636364,48.6191919 L3.28383838,49.5917172 C2.6410101,50.2345455 2.6410101,51.2767677 3.28383838,51.919596 Z" id="Shape" fill="#935733"></path>
                <path d="M11.3816162,53.7242424 L10.4090909,54.6967677 C9.76626263,55.339596 8.7240404,55.339596 8.08121212,54.6967677 L3.28383838,49.8993939 C3.23494949,49.8505051 3.19111111,49.7987879 3.14969697,49.7456566 C2.64606061,50.3915152 2.68989899,51.3258586 3.28383838,51.919596 L8.08121212,56.7169697 C8.7240404,57.359798 9.76626263,57.359798 10.4090909,56.7169697 L11.3816162,55.7444444 C11.9755556,55.1505051 12.0193939,54.2161616 11.5157576,53.5705051 C11.4743434,53.6234343 11.4305051,53.6753535 11.3816162,53.7242424 Z" id="Shape" fill="#935733" opacity="0.3"></path>
                <rect id="Rectangle-path" fill="#F9B65F" transform="translate(15.905885, 44.094794) rotate(-135.000000) translate(-15.905885, -44.094794) " x="11.6721882" y="43.4686388" width="8.46739354" height="1.25231122"></rect>
                <polygon id="Line-2" fill="#979797" points="49.2021163 8.70438131 13.7548864 41.7069747 14.030207 42.0026894 49.4774369 9.00009605"></polygon>
                <polygon id="Line-3" fill="#979797" points="50.2105194 9.71442674 14.966952 42.9207937 15.244026 43.2148662 50.4875935 10.0084992"></polygon>
                <polygon id="Line-4" fill="#979797" points="51.2189217 10.522462 16.1790277 43.9325935 16.457846 44.2250127 51.49774 10.8148813"></polygon>
                <polygon id="Line-5" fill="#979797" points="51.6093205 10.522463 18.4012509 45.3603765 18.6937098 45.6391531 51.9017794 10.8012397"></polygon>
            </g>
        </g>
    </g>
</svg>