<?xml version="1.0" encoding="UTF-8"?>
<svg width="140px" height="140px" viewBox="0 0 140 140" version="1.1" xmlns="http://www.w3.org/2000/svg" xmlns:xlink="http://www.w3.org/1999/xlink">
    <!-- Generator: Sketch 47.1 (45422) - http://www.bohemiancoding.com/sketch -->
    <title>email</title>
    <desc>Created with Sketch.</desc>
    <defs></defs>
    <g id="Page-1" stroke="none" stroke-width="1" fill="none" fill-rule="evenodd">
        <g id="2-1-projects" transform="translate(-287.000000, -5759.000000)" fill-rule="nonzero">
            <g id="Group-4" transform="translate(0.000000, 5679.000000)">
                <g id="email" transform="translate(287.000000, 80.000000)">
                    <path d="M139.94757,133.925726 C139.94757,135.670577 139.364701,137.124851 138.199243,138.287992 C137.033506,139.160557 135.868048,139.741988 134.119442,139.741988 L5.90091633,139.741988 C4.4440239,139.741988 2.98685259,139.160278 1.82111554,138.287992 C0.655378486,137.124573 0.0727888446,135.670577 0.0727888446,133.925726 L0.0727888446,48.7133201 L139.94757,48.7133201 L139.94757,133.925726 Z" id="Shape" fill="#FFD15C"></path>
                    <path d="M138.199243,138.287992 C137.033506,139.160557 135.868048,139.741988 134.119442,139.741988 L5.90091633,139.741988 C4.4440239,139.741988 2.98685259,139.160278 1.82111554,138.287992 L70.0100398,79.832008 L138.199243,138.287992 Z" id="Shape" fill="#F8B64C"></path>
                    <path d="M139.94757,48.7133201 L120.131992,62.9638171 L73.7984064,96.1182107 C71.4672112,97.8630616 68.2617131,97.8630616 65.9305179,96.1182107 L19.8883665,62.9638171 L0.0727888446,48.7133201 L19.8883665,34.4628231 L63.0164542,3.63526839 L66.2219522,1.30870775 C68.5531474,-0.436143141 71.7586454,-0.436143141 74.0898406,1.30870775 L77.2953386,3.63526839 L97.9852191,18.4674751 L108.184303,25.7380119 L120.131992,34.4628231 L139.94757,48.7133201 Z" id="Shape" fill="#40596B"></path>
                    <path d="M120.131992,21.6666004 L120.131992,62.9638171 L73.7984064,96.1182107 C71.4672112,97.8630616 68.2617131,97.8630616 65.9305179,96.1182107 L19.8883665,62.9638171 L19.8883665,9.45180915 C19.8883665,6.2526839 22.510996,3.63526839 25.716494,3.63526839 L101.773307,3.63526839 L120.131992,21.6666004 Z" id="Shape" fill="#F2F2F2"></path>
                    <path d="M102.064741,17.0134791 C102.064741,19.6308946 104.104502,21.6666004 106.727131,21.6666004 L120.131713,21.6666004 L102.064462,3.63526839 L102.064741,17.0134791 L102.064741,17.0134791 Z" id="Shape" fill="#CDD6E0"></path>
                    <path d="M87.2032669,62.0915308 L91.8656574,62.0915308 C90.4087649,65.2906561 88.0772908,67.6172167 84.8717928,69.3620676 C81.3748606,71.3977734 77.0039044,72.270338 71.7586454,72.270338 C66.8048207,72.270338 62.4335857,71.3977734 58.9366534,69.6529225 C55.4397211,67.9080716 52.5256574,65.5812326 50.7773307,62.0915308 C49.029004,58.8924056 48.1547012,55.1115706 48.1547012,51.3310139 C48.1547012,46.9687475 49.029004,43.1879125 51.0687649,39.4070775 C53.1085259,35.6262425 55.7311554,33.008827 59.2280876,31.2639761 C62.7250199,29.5191252 66.8045418,28.6465606 71.1757769,28.6465606 C74.9641434,28.6465606 78.4607968,29.5191252 81.3748606,30.9731213 C84.2889243,32.4271173 86.6201195,34.4631014 88.0772908,37.3713718 C89.5341833,39.9887873 90.4084861,43.1879125 90.4084861,46.3870378 C90.4084861,50.1678728 89.242749,53.6575746 86.9115538,56.8566998 C83.99749,60.9283897 80.2091235,62.6732406 75.5467331,62.6732406 C74.380996,62.6732406 73.2155378,62.3823857 72.6326693,62.0915308 C72.0498008,61.5098211 71.4669323,60.9281113 71.4669323,60.055825 C69.7186056,61.8006759 67.6785657,62.6732406 65.3473705,62.6732406 C62.724741,62.6732406 60.6849801,61.8006759 59.2278088,60.055825 C57.4794821,58.3109742 56.6051793,55.9841352 56.6051793,53.0758648 C56.6051793,49.5858847 57.4794821,46.3867594 59.519243,43.1876342 C61.8504382,39.6976541 65.0559363,37.9528032 68.8443028,37.9528032 C71.4669323,37.9528032 73.5066932,39.1162227 74.9638645,41.1519284 L75.5467331,38.5345129 L81.6662948,38.5345129 L78.1693625,54.8207157 C77.8779283,55.9841352 77.8779283,56.5655666 77.8779283,56.8564215 C77.8779283,57.1472763 77.8779283,57.4381312 78.1693625,57.7289861 C78.4607968,58.019841 78.4607968,58.019841 78.7522311,58.019841 C79.3350996,58.019841 80.5005578,57.4381312 81.6662948,56.5658449 C83.1231873,55.4024254 84.5803586,53.9484294 85.4546614,51.9127237 C86.3289641,49.8770179 86.9115538,47.8410338 86.9115538,45.805328 C86.9115538,42.024493 85.4546614,38.8253678 82.831753,36.4988072 C80.2091235,33.8813917 76.420757,32.7179722 71.4669323,32.7179722 C67.3871315,32.7179722 63.8904781,33.5905368 60.9764143,35.3353877 C58.0623506,37.0802386 56.0225896,39.4070775 54.5654183,42.3153479 C53.108247,45.2236183 52.5256574,48.4227435 52.5256574,51.9127237 C52.5256574,55.1118489 53.3999602,58.0201193 54.8568526,60.6375348 C56.6051793,63.2549503 58.6452191,65.2906561 61.5592829,66.4540755 C64.4733466,67.617495 67.6788446,68.1989264 71.4672112,68.1989264 C74.9641434,68.1989264 78.1696414,67.6172167 80.7922709,66.7449304 C83.4149004,65.5812326 85.4546614,64.1272366 87.2032669,62.0915308 Z M62.4335857,52.7850099 C62.4335857,54.8207157 62.7250199,55.9841352 63.5993227,57.1472763 C64.4736255,58.019841 65.3476494,58.6012724 66.5133865,58.6012724 C67.3876892,58.6012724 68.2617131,58.3104175 68.8445817,58.0195626 C69.4274502,57.7287078 70.0103187,57.146998 70.5929084,56.5655666 C71.4672112,55.693002 72.0500797,54.239006 72.6326693,52.4938767 C73.2155378,50.7490258 73.5069721,49.0038966 73.5069721,47.5499006 C73.5069721,45.8050497 73.2155378,44.6416302 72.3412351,43.4782107 C71.4669323,42.6056461 70.5929084,42.0242147 69.4271713,42.0242147 C68.2614343,42.0242147 66.8045418,42.6059245 65.930239,43.4782107 C64.764502,44.3507753 63.8904781,45.8047714 63.3076096,47.8404771 C62.7250199,49.5858847 62.4335857,51.3307356 62.4335857,52.7850099 Z" id="Shape" fill="#FF7058"></path>
                </g>
            </g>
        </g>
    </g>
</svg>