<svg xmlns="http://www.w3.org/2000/svg" xmlns:xlink="http://www.w3.org/1999/xlink" width="60" height="60" viewBox="0 0 60 60"><defs><path id="qx7fa" d="M609.55 7052v-2.07h2.07v2.07z"/><path id="qx7fb" d="M618.862 7006.483l-.517-7.242a7.779 7.779 0 0 0-7.76-7.241 7.779 7.779 0 0 0-7.758 7.241l-.517 7.242z"/><path id="qx7fc" d="M569.21 6995.1v5.172a4.138 4.138 0 0 0 8.276 0v-5.172z"/><path id="qx7fd" d="M574.376 6995.1v5.172a4.138 4.138 0 0 1-2.586 3.828c.492.204 1.019.31 1.552.31a4.138 4.138 0 0 0 4.138-4.138v-5.172z"/><path id="qx7fe" d="M579.548 7024.07v25.862l1.035 2.069H566.1l1.034-2.069v-25.862z"/><path id="qx7ff" d="M572.31 7052v-23.79h2.07V7052z"/><path id="qx7fg" d="M568.17 6992l.641 2.576a2.07 2.07 0 0 0 2.007 1.562h6.662v-1.862a2.285 2.285 0 0 0-2.275-2.276z"/><path id="qx7fh" d="M605.41 7049.93v-17.59h10.34v17.59z"/><path id="qx7fi" d="M605.41 7034.41v-2.07h10.34v2.07z"/><path id="qx7fj" d="M605.415 7049.93l-1.035 2.069h12.414l-1.035-2.069z"/><path id="qx7fk" d="M609.55 7052v-19.66h2.07V7052z"/><path id="qx7fl" d="M614.726 6997.169v4.138a4.138 4.138 0 0 1-8.276 0v-2.07l5.172-4.137z"/><path id="qx7fm" d="M611.619 6995.1l-.941.755 1.975 1.314v4.138a4.139 4.139 0 0 1-3.103 3.993c.337.09.685.14 1.035.145a4.138 4.138 0 0 0 4.137-4.138v-4.138z"/><path id="qx7fn" d="M605.41 7005.45h-1.428a3.104 3.104 0 0 0-3.104 2.68l-1.034 7.665-5.814 4.138v5.172l9.31-6.207z"/><path id="qx7fo" d="M620.26 7008.13a3.103 3.103 0 0 0-3.103-2.68h-1.397l3.455 22.759h3.786z"/><path id="qx7fp" d="M606.45 7012.69v-7.24h8.28v7.24z"/><path id="qx7fq" d="M563 7028.21v-17.59h4.14v17.59z"/><path id="qx7fr" d="M583.4 7006.479a3.104 3.104 0 0 0-2.917-2.069h-13.345a4.138 4.138 0 0 0-4.138 4.138v2.069h4.138v13.448h12.414v-14.483l.734 1.645 3.973-2.4z"/><path id="qx7fs" d="M586.797 7015.792l-2.535-6.962-3.972 2.4 3.403 7.665 7.242 4.138 1.034-4.138z"/><path id="qx7ft" d="M615.763 7005.45l4.138 26.897H601.28l4.138-26.897h2.069l3.103 5.172 3.104-5.172z"/><path id="qx7fu" d="M598.168 7019.93a4.14 4.14 0 0 0-.766-2.39l-3.372 2.39v5.172l4.138-2.731v-.372z"/><path id="qx7fv" d="M597.14 7049.934v-12.414h-8.275v12.414l-1.035 2.069h10.345z"/><path id="qx7fw" d="M591.97 7052v-11.38h2.07V7052z"/><path id="qx7fx" d="M597.134 7032.347h4.138v-2.07a4.138 4.138 0 0 0-4.138-4.137h-8.276a4.138 4.138 0 0 0-4.138 4.138v2.069h4.138v5.172h8.276v-5.172z"/><path id="qx7fy" d="M584.72 7040.62v-8.28h4.14v8.28z"/><path id="qx7fz" d="M597.14 7040.62v-8.28h4.14v8.28z"/><path id="qx7fA" d="M591.968 7018.9l-3-1.8a4.138 4.138 0 0 0-1.138 2.835v1.334l3.103 1.769z"/><path id="qx7fB" d="M592.998 7015.79a4.138 4.138 0 0 1 4.138 4.138v2.069a4.138 4.138 0 0 1-8.276 0v-2.069a4.138 4.138 0 0 1 4.138-4.138z"/><path id="qx7fC" d="M593.005 7015.79c-.35.005-.698.054-1.035.145a4.139 4.139 0 0 1 3.103 3.993v2.069a4.139 4.139 0 0 1-3.103 3.993c.337.091.685.14 1.035.145a4.138 4.138 0 0 0 4.137-4.138v-2.069a4.138 4.138 0 0 0-4.137-4.138z"/><path id="qx7fD" d="M597.141 7019.933a4.138 4.138 0 0 0-7.841-1.8 12.34 12.34 0 0 0 6.403 1.8h1.438z"/><path id="qx7fE" d="M583.402 7006.479a3.104 3.104 0 0 0-2.917-2.069h-.662c-3.104 7.014-8.349 12.6-12.683 16.355v3.3h12.414v-14.483l.734 1.645 3.973-2.4z"/><path id="qx7fF" d="M601.487 7031.017l-.207 1.324h18.62l-1.8-11.721c-4.717 5.514-12 8.762-16.613 10.397z"/><path id="qx7fG" d="M602.056 7027.29l-.776 5.059h2.069v-2.07a4.138 4.138 0 0 0-1.293-2.989z"/><path id="qx7fH" d="M588.86 7037.519h8.276v-3.859c-2.948.972-5.845 1.78-8.276 2.41z"/></defs><g><g transform="translate(-563 -6992)"><g><use fill="#543221" xlink:href="#qx7fa"/></g><g><use fill="#75462e" xlink:href="#qx7fb"/></g><g><use fill="#fec9a3" xlink:href="#qx7fc"/></g><g><use fill="#f7bb8f" xlink:href="#qx7fd"/></g><g><use fill="#75462e" xlink:href="#qx7fe"/></g><g><use fill="#543221" xlink:href="#qx7ff"/></g><g><use fill="#75462e" xlink:href="#qx7fg"/></g><g><use fill="#fec9a3" xlink:href="#qx7fh"/></g><g><use fill="#f7bb8f" xlink:href="#qx7fi"/></g><g><use fill="#75462e" xlink:href="#qx7fj"/></g><g><use fill="#f7bb8f" xlink:href="#qx7fk"/></g><g><use fill="#fec9a3" xlink:href="#qx7fl"/></g><g><use fill="#f7bb8f" xlink:href="#qx7fm"/></g><g><g><use fill="#fec9a3" xlink:href="#qx7fn"/></g><g><use fill="#fec9a3" xlink:href="#qx7fo"/></g><g><use fill="#fec9a3" xlink:href="#qx7fp"/></g><g><use fill="#fec9a3" xlink:href="#qx7fq"/></g></g><g><use fill="#4398d1" xlink:href="#qx7fr"/></g><g><use fill="#fec9a3" xlink:href="#qx7fs"/></g><g><use fill="#87ced9" xlink:href="#qx7ft"/></g><g><use fill="#f0b184" xlink:href="#qx7fu"/></g><g><use fill="#75462e" xlink:href="#qx7fv"/></g><g><use fill="#543221" xlink:href="#qx7fw"/></g><g><use fill="#87ced9" xlink:href="#qx7fx"/></g><g><g><use fill="#fec9a3" xlink:href="#qx7fy"/></g><g><use fill="#fec9a3" xlink:href="#qx7fz"/></g></g><g><use fill="#f7bb8f" xlink:href="#qx7fA"/></g><g><use fill="#fec9a3" xlink:href="#qx7fB"/></g><g><use fill="#f7bb8f" xlink:href="#qx7fC"/></g><g><use fill="#75462e" xlink:href="#qx7fD"/></g><g><use fill="#3e8cc7" xlink:href="#qx7fE"/></g><g><g><use fill="#6ec1d4" xlink:href="#qx7fF"/></g><g><use fill="#6ec1d4" xlink:href="#qx7fG"/></g><g><use fill="#6ec1d4" xlink:href="#qx7fH"/></g></g></g></g></svg>