<svg width="512" height="297" xmlns="http://www.w3.org/2000/svg">

 <g>
  <title>background</title>
  <rect fill="none" id="canvas_background" height="299" width="514" y="-1" x="-1"/>
 </g>
 <g>
  <title>Layer 1</title>
  <rect fill="#ff4b55" id="svg_2" y="275" width="512" height="23" class="st0"/>
  <rect fill="#f5f5f5" id="svg_3" y="252.254345" width="512" height="23" class="st1"/>
  <rect x="0" fill="#ff4b55" id="svg_4" y="229.254345" width="512" height="23" class="st0"/>
  <rect fill="#f5f5f5" id="svg_5" y="206.254345" width="512" height="23" class="st1"/>
  <rect fill="#ff4b55" id="svg_6" y="183.354345" width="512" height="23" class="st0"/>
  <rect fill="#f5f5f5" id="svg_7" y="160.354345" width="512" height="23" class="st1"/>
  <rect fill="#ff4b55" id="svg_8" y="137.354345" width="512" height="23" class="st0"/>
  <rect fill="#f5f5f5" id="svg_9" y="114.354345" width="512" height="23" class="st1"/>
  <rect fill="#ff4b55" id="svg_10" y="91.454345" width="512" height="23" class="st0"/>
  <rect fill="#f5f5f5" id="svg_11" y="68.454345" width="512" height="23" class="st1"/>
  <rect fill="#ff4b55" id="svg_12" y="45.454345" width="512" height="23" class="st0"/>
  <rect fill="#f5f5f5" id="svg_13" y="22.454345" width="512" height="23" class="st1"/>
  <rect fill="#ff4b55" id="svg_14" y="-0.445655" width="512" height="23" class="st0"/>
  <rect fill="#41479b" id="svg_15" y="-0.445655" width="233.8" height="160.8" class="st2"/>
  <polygon fill="#ffffff" id="svg_16" points="21.100000381469727,17.254344940185547 23.100000381469727,23.35434341430664 29.399999618530273,23.35434341430664 24.299999237060547,27.054340362548828 26.200000762939453,33.15435028076172 21.100000381469727,29.35434341430664 15.90000057220459,33.15435028076172 17.899999618530273,27.054340362548828 12.699999809265137,23.35434341430664 19.100000381469727,23.35434341430664 " class="st1"/>
  <polygon fill="#ffffff" id="svg_17" points="21.100000381469727,44.054344177246094 23.100000381469727,50.15435028076172 29.399999618530273,50.15435028076172 24.299999237060547,53.95435333251953 26.200000762939453,59.95435333251953 21.100000381469727,56.25434112548828 15.90000057220459,59.95435333251953 17.899999618530273,53.95435333251953 12.699999809265137,50.15435028076172 19.100000381469727,50.15435028076172 " class="st1"/>
  <polygon fill="#ffffff" id="svg_18" points="21.100000381469727,70.954345703125 23.100000381469727,77.05433654785156 29.399999618530273,77.05433654785156 24.299999237060547,80.75433349609375 26.200000762939453,86.85433959960938 21.100000381469727,83.05433654785156 15.90000057220459,86.85433959960938 17.899999618530273,80.75433349609375 12.699999809265137,77.05433654785156 19.100000381469727,77.05433654785156 " class="st1"/>
  <polygon fill="#ffffff" id="svg_19" points="21.100000381469727,97.75433349609375 23.100000381469727,103.85433959960938 29.399999618530273,103.85433959960938 24.299999237060547,107.65434265136719 26.200000762939453,113.65434265136719 21.100000381469727,109.954345703125 15.90000057220459,113.65434265136719 17.899999618530273,107.65434265136719 12.699999809265137,103.85433959960938 19.100000381469727,103.85433959960938 " class="st1"/>
  <polygon fill="#ffffff" id="svg_20" points="21.100000381469727,124.65434265136719 23.100000381469727,130.6543426513672 29.399999618530273,130.6543426513672 24.299999237060547,134.454345703125 26.200000762939453,140.55433654785156 21.100000381469727,136.75433349609375 15.90000057220459,140.55433654785156 17.899999618530273,134.454345703125 12.699999809265137,130.6543426513672 19.100000381469727,130.6543426513672 " class="st1"/>
  <polygon fill="#ffffff" id="svg_21" points="39.79999923706055,31.354345321655273 41.79999923706055,37.45435333251953 48.099998474121094,37.45435333251953 43,41.25434112548828 44.900001525878906,47.25434112548828 39.79999923706055,43.554344177246094 34.599998474121094,47.25434112548828 36.599998474121094,41.25434112548828 31.399999618530273,37.45435333251953 37.79999923706055,37.45435333251953 " class="st1"/>
  <polygon fill="#ffffff" id="svg_22" points="39.79999923706055,58.25434112548828 41.79999923706055,64.25433349609375 48.099998474121094,64.25433349609375 43,68.05433654785156 44.900001525878906,74.15434265136719 39.79999923706055,70.35433959960938 34.599998474121094,74.15434265136719 36.599998474121094,68.05433654785156 31.399999618530273,64.25433349609375 37.79999923706055,64.25433349609375 " class="st1"/>
  <polygon fill="#ffffff" id="svg_23" points="39.79999923706055,85.05433654785156 41.79999923706055,91.15434265136719 48.099998474121094,91.15434265136719 43,94.954345703125 44.900001525878906,100.954345703125 39.79999923706055,97.25433349609375 34.599998474121094,100.954345703125 36.599998474121094,94.954345703125 31.399999618530273,91.15434265136719 37.79999923706055,91.15434265136719 " class="st1"/>
  <polygon fill="#ffffff" id="svg_24" points="39.79999923706055,111.954345703125 41.79999923706055,117.954345703125 48.099998474121094,117.954345703125 43,121.75433349609375 44.900001525878906,127.85433959960938 39.79999923706055,124.05433654785156 34.599998474121094,127.85433959960938 36.599998474121094,121.75433349609375 31.399999618530273,117.954345703125 37.79999923706055,117.954345703125 " class="st1"/>
  <polygon fill="#ffffff" id="svg_25" points="58.70000076293945,17.254344940185547 60.70000076293945,23.35434341430664 67.0999984741211,23.35434341430664 61.900001525878906,27.054340362548828 63.90000534057617,33.15435028076172 58.70000076293945,29.35434341430664 53.5,33.15435028076172 55.5,27.054340362548828 50.29999923706055,23.35434341430664 56.70000076293945,23.35434341430664 " class="st1"/>
  <polygon fill="#ffffff" id="svg_26" points="58.70000076293945,44.054344177246094 60.70000076293945,50.15435028076172 67.0999984741211,50.15435028076172 61.900001525878906,53.95435333251953 63.90000534057617,59.95435333251953 58.70000076293945,56.25434112548828 53.5,59.95435333251953 55.5,53.95435333251953 50.29999923706055,50.15435028076172 56.70000076293945,50.15435028076172 " class="st1"/>
  <polygon fill="#ffffff" id="svg_27" points="58.70000076293945,70.954345703125 60.70000076293945,77.05433654785156 67.0999984741211,77.05433654785156 61.900001525878906,80.75433349609375 63.90000534057617,86.85433959960938 58.70000076293945,83.05433654785156 53.5,86.85433959960938 55.5,80.75433349609375 50.29999923706055,77.05433654785156 56.70000076293945,77.05433654785156 " class="st1"/>
  <polygon fill="#ffffff" id="svg_28" points="58.70000076293945,97.75433349609375 60.70000076293945,103.85433959960938 67.0999984741211,103.85433959960938 61.900001525878906,107.65434265136719 63.90000534057617,113.65434265136719 58.70000076293945,109.954345703125 53.5,113.65434265136719 55.5,107.65434265136719 50.29999923706055,103.85433959960938 56.70000076293945,103.85433959960938 " class="st1"/>
  <polygon fill="#ffffff" id="svg_29" points="58.70000076293945,124.65434265136719 60.70000076293945,130.6543426513672 67.0999984741211,130.6543426513672 61.900001525878906,134.454345703125 63.90000534057617,140.55433654785156 58.70000076293945,136.75433349609375 53.5,140.55433654785156 55.5,134.454345703125 50.29999923706055,130.6543426513672 56.70000076293945,130.6543426513672 " class="st1"/>
  <polygon fill="#ffffff" id="svg_30" points="77.4000015258789,31.354345321655273 79.4000015258789,37.45435333251953 85.80000305175781,37.45435333251953 80.5999984741211,41.25434112548828 82.5999984741211,47.25434112548828 77.4000015258789,43.554344177246094 72.19999694824219,47.25434112548828 74.19999694824219,41.25434112548828 69,37.45435333251953 75.4000015258789,37.45435333251953 " class="st1"/>
  <polygon fill="#ffffff" id="svg_31" points="77.4000015258789,58.25434112548828 79.4000015258789,64.25433349609375 85.80000305175781,64.25433349609375 80.5999984741211,68.05433654785156 82.5999984741211,74.15434265136719 77.4000015258789,70.35433959960938 72.19999694824219,74.15434265136719 74.19999694824219,68.05433654785156 69,64.25433349609375 75.4000015258789,64.25433349609375 " class="st1"/>
  <polygon fill="#ffffff" id="svg_32" points="77.4000015258789,85.05433654785156 79.4000015258789,91.15434265136719 85.80000305175781,91.15434265136719 80.5999984741211,94.954345703125 82.5999984741211,100.954345703125 77.4000015258789,97.25433349609375 72.19999694824219,100.954345703125 74.19999694824219,94.954345703125 69,91.15434265136719 75.4000015258789,91.15434265136719 " class="st1"/>
  <polygon fill="#ffffff" id="svg_33" points="77.4000015258789,111.954345703125 79.4000015258789,117.954345703125 85.80000305175781,117.954345703125 80.5999984741211,121.75433349609375 82.5999984741211,127.85433959960938 77.4000015258789,124.05433654785156 72.19999694824219,127.85433959960938 74.19999694824219,121.75433349609375 69,117.954345703125 75.4000015258789,117.954345703125 " class="st1"/>
  <polygon fill="#ffffff" id="svg_34" points="96.30000305175781,17.254344940185547 98.30000305175781,23.35434341430664 104.69999694824219,23.35434341430664 99.5,27.054340362548828 101.5,33.15435028076172 96.30000305175781,29.35434341430664 91.19999694824219,33.15435028076172 93.19999694824219,27.054340362548828 88,23.35434341430664 94.4000015258789,23.35434341430664 " class="st1"/>
  <polygon fill="#ffffff" id="svg_35" points="96.30000305175781,44.054344177246094 98.30000305175781,50.15435028076172 104.69999694824219,50.15435028076172 99.5,53.95435333251953 101.5,59.95435333251953 96.30000305175781,56.25434112548828 91.19999694824219,59.95435333251953 93.19999694824219,53.95435333251953 88,50.15435028076172 94.4000015258789,50.15435028076172 " class="st1"/>
  <polygon fill="#ffffff" id="svg_36" points="96.30000305175781,70.954345703125 98.30000305175781,77.05433654785156 104.69999694824219,77.05433654785156 99.5,80.75433349609375 101.5,86.85433959960938 96.30000305175781,83.05433654785156 91.19999694824219,86.85433959960938 93.19999694824219,80.75433349609375 88,77.05433654785156 94.4000015258789,77.05433654785156 " class="st1"/>
  <polygon fill="#ffffff" id="svg_37" points="96.30000305175781,97.75433349609375 98.30000305175781,103.85433959960938 104.69999694824219,103.85433959960938 99.5,107.65434265136719 101.5,113.65434265136719 96.30000305175781,109.954345703125 91.19999694824219,113.65434265136719 93.19999694824219,107.65434265136719 88,103.85433959960938 94.4000015258789,103.85433959960938 " class="st1"/>
  <polygon fill="#ffffff" id="svg_38" points="96.30000305175781,124.65434265136719 98.30000305175781,130.6543426513672 104.69999694824219,130.6543426513672 99.5,134.454345703125 101.5,140.55433654785156 96.30000305175781,136.75433349609375 91.19999694824219,140.55433654785156 93.19999694824219,134.454345703125 88,130.6543426513672 94.4000015258789,130.6543426513672 " class="st1"/>
  <polygon fill="#ffffff" id="svg_39" points="115,31.354345321655273 117,37.45435333251953 123.4000015258789,37.45435333251953 118.19999694824219,41.25434112548828 120.19999694824219,47.25434112548828 115,43.554344177246094 109.9000015258789,47.25434112548828 111.80000305175781,41.25434112548828 106.69999694824219,37.45435333251953 113.0999984741211,37.45435333251953 " class="st1"/>
  <polygon fill="#ffffff" id="svg_40" points="115,58.25434112548828 117,64.25433349609375 123.4000015258789,64.25433349609375 118.19999694824219,68.05433654785156 120.19999694824219,74.15434265136719 115,70.35433959960938 109.9000015258789,74.15434265136719 111.80000305175781,68.05433654785156 106.69999694824219,64.25433349609375 113.0999984741211,64.25433349609375 " class="st1"/>
  <polygon fill="#ffffff" id="svg_41" points="115,85.05433654785156 117,91.15434265136719 123.4000015258789,91.15434265136719 118.19999694824219,94.954345703125 120.19999694824219,100.954345703125 115,97.25433349609375 109.9000015258789,100.954345703125 111.80000305175781,94.954345703125 106.69999694824219,91.15434265136719 113.0999984741211,91.15434265136719 " class="st1"/>
  <polygon fill="#ffffff" id="svg_42" points="115,111.954345703125 117,117.954345703125 123.4000015258789,117.954345703125 118.19999694824219,121.75433349609375 120.19999694824219,127.85433959960938 115,124.05433654785156 109.9000015258789,127.85433959960938 111.80000305175781,121.75433349609375 106.69999694824219,117.954345703125 113.0999984741211,117.954345703125 " class="st1"/>
  <polygon fill="#ffffff" id="svg_43" points="134,17.254344940185547 136,23.35434341430664 142.3000030517578,23.35434341430664 137.1999969482422,27.054340362548828 139.10000610351562,33.15435028076172 134,29.35434341430664 128.8000030517578,33.15435028076172 130.8000030517578,27.054340362548828 125.5999984741211,23.35434341430664 132,23.35434341430664 " class="st1"/>
  <polygon fill="#ffffff" id="svg_44" points="134,44.054344177246094 136,50.15435028076172 142.3000030517578,50.15435028076172 137.1999969482422,53.95435333251953 139.10000610351562,59.95435333251953 134,56.25434112548828 128.8000030517578,59.95435333251953 130.8000030517578,53.95435333251953 125.5999984741211,50.15435028076172 132,50.15435028076172 " class="st1"/>
  <polygon fill="#ffffff" id="svg_45" points="134,70.954345703125 136,77.05433654785156 142.3000030517578,77.05433654785156 137.1999969482422,80.75433349609375 139.10000610351562,86.85433959960938 134,83.05433654785156 128.8000030517578,86.85433959960938 130.8000030517578,80.75433349609375 125.5999984741211,77.05433654785156 132,77.05433654785156 " class="st1"/>
  <polygon fill="#ffffff" id="svg_46" points="134,97.75433349609375 136,103.85433959960938 142.3000030517578,103.85433959960938 137.1999969482422,107.65434265136719 139.10000610351562,113.65434265136719 134,109.954345703125 128.8000030517578,113.65434265136719 130.8000030517578,107.65434265136719 125.5999984741211,103.85433959960938 132,103.85433959960938 " class="st1"/>
  <polygon fill="#ffffff" id="svg_47" points="134,124.65434265136719 136,130.6543426513672 142.3000030517578,130.6543426513672 137.1999969482422,134.454345703125 139.10000610351562,140.55433654785156 134,136.75433349609375 128.8000030517578,140.55433654785156 130.8000030517578,134.454345703125 125.5999984741211,130.6543426513672 132,130.6543426513672 " class="st1"/>
  <polygon fill="#ffffff" id="svg_48" points="152.6999969482422,31.354345321655273 154.60000610351562,37.45435333251953 161,37.45435333251953 155.89999389648438,41.25434112548828 157.8000030517578,47.25434112548828 152.6999969482422,43.554344177246094 147.5,47.25434112548828 149.5,41.25434112548828 144.3000030517578,37.45435333251953 150.6999969482422,37.45435333251953 " class="st1"/>
  <polygon fill="#ffffff" id="svg_49" points="152.6999969482422,58.25434112548828 154.60000610351562,64.25433349609375 161,64.25433349609375 155.89999389648438,68.05433654785156 157.8000030517578,74.15434265136719 152.6999969482422,70.35433959960938 147.5,74.15434265136719 149.5,68.05433654785156 144.3000030517578,64.25433349609375 150.6999969482422,64.25433349609375 " class="st1"/>
  <polygon fill="#ffffff" id="svg_50" points="152.6999969482422,85.05433654785156 154.60000610351562,91.15434265136719 161,91.15434265136719 155.89999389648438,94.954345703125 157.8000030517578,100.954345703125 152.6999969482422,97.25433349609375 147.5,100.954345703125 149.5,94.954345703125 144.3000030517578,91.15434265136719 150.6999969482422,91.15434265136719 " class="st1"/>
  <polygon fill="#ffffff" id="svg_51" points="152.6999969482422,111.954345703125 154.60000610351562,117.954345703125 161,117.954345703125 155.89999389648438,121.75433349609375 157.8000030517578,127.85433959960938 152.6999969482422,124.05433654785156 147.5,127.85433959960938 149.5,121.75433349609375 144.3000030517578,117.954345703125 150.6999969482422,117.954345703125 " class="st1"/>
  <polygon fill="#ffffff" id="svg_52" points="171.60000610351562,17.254344940185547 173.60000610351562,23.35434341430664 180,23.35434341430664 174.8000030517578,27.054340362548828 176.8000030517578,33.15435028076172 171.60000610351562,29.35434341430664 166.39999389648438,33.15435028076172 168.39999389648438,27.054340362548828 163.1999969482422,23.35434341430664 169.60000610351562,23.35434341430664 " class="st1"/>
  <polygon fill="#ffffff" id="svg_53" points="171.60000610351562,44.054344177246094 173.60000610351562,50.15435028076172 180,50.15435028076172 174.8000030517578,53.95435333251953 176.8000030517578,59.95435333251953 171.60000610351562,56.25434112548828 166.39999389648438,59.95435333251953 168.39999389648438,53.95435333251953 163.1999969482422,50.15435028076172 169.60000610351562,50.15435028076172 " class="st1"/>
  <polygon fill="#ffffff" id="svg_54" points="171.60000610351562,70.954345703125 173.60000610351562,77.05433654785156 180,77.05433654785156 174.8000030517578,80.75433349609375 176.8000030517578,86.85433959960938 171.60000610351562,83.05433654785156 166.39999389648438,86.85433959960938 168.39999389648438,80.75433349609375 163.1999969482422,77.05433654785156 169.60000610351562,77.05433654785156 " class="st1"/>
  <polygon fill="#ffffff" id="svg_55" points="171.60000610351562,97.75433349609375 173.60000610351562,103.85433959960938 180,103.85433959960938 174.8000030517578,107.65434265136719 176.8000030517578,113.65434265136719 171.60000610351562,109.954345703125 166.39999389648438,113.65434265136719 168.39999389648438,107.65434265136719 163.1999969482422,103.85433959960938 169.60000610351562,103.85433959960938 " class="st1"/>
  <polygon fill="#ffffff" id="svg_56" points="171.60000610351562,124.65434265136719 173.60000610351562,130.6543426513672 180,130.6543426513672 174.8000030517578,134.454345703125 176.8000030517578,140.55433654785156 171.60000610351562,136.75433349609375 166.39999389648438,140.55433654785156 168.39999389648438,134.454345703125 163.1999969482422,130.6543426513672 169.60000610351562,130.6543426513672 " class="st1"/>
  <polygon fill="#ffffff" id="svg_57" points="190.3000030517578,31.354345321655273 192.3000030517578,37.45435333251953 198.6999969482422,37.45435333251953 193.5,41.25434112548828 195.5,47.25434112548828 190.3000030517578,43.554344177246094 185.10000610351562,47.25434112548828 187.10000610351562,41.25434112548828 181.89999389648438,37.45435333251953 188.3000030517578,37.45435333251953 " class="st1"/>
  <polygon fill="#ffffff" id="svg_58" points="190.3000030517578,58.25434112548828 192.3000030517578,64.25433349609375 198.6999969482422,64.25433349609375 193.5,68.05433654785156 195.5,74.15434265136719 190.3000030517578,70.35433959960938 185.10000610351562,74.15434265136719 187.10000610351562,68.05433654785156 181.89999389648438,64.25433349609375 188.3000030517578,64.25433349609375 " class="st1"/>
  <polygon fill="#ffffff" id="svg_59" points="190.3000030517578,85.05433654785156 192.3000030517578,91.15434265136719 198.6999969482422,91.15434265136719 193.5,94.954345703125 195.5,100.954345703125 190.3000030517578,97.25433349609375 185.10000610351562,100.954345703125 187.10000610351562,94.954345703125 181.89999389648438,91.15434265136719 188.3000030517578,91.15434265136719 " class="st1"/>
  <polygon fill="#ffffff" id="svg_60" points="190.3000030517578,111.954345703125 192.3000030517578,117.954345703125 198.6999969482422,117.954345703125 193.5,121.75433349609375 195.5,127.85433959960938 190.3000030517578,124.05433654785156 185.10000610351562,127.85433959960938 187.10000610351562,121.75433349609375 181.89999389648438,117.954345703125 188.3000030517578,117.954345703125 " class="st1"/>
  <polygon fill="#ffffff" id="svg_61" points="209.1999969482422,17.254344940185547 211.1999969482422,23.35434341430664 217.60000610351562,23.35434341430664 212.39999389648438,27.054340362548828 214.39999389648438,33.15435028076172 209.1999969482422,29.35434341430664 204.10000610351562,33.15435028076172 206,27.054340362548828 200.89999389648438,23.35434341430664 207.3000030517578,23.35434341430664 " class="st1"/>
  <polygon fill="#ffffff" id="svg_62" points="209.1999969482422,44.054344177246094 211.1999969482422,50.15435028076172 217.60000610351562,50.15435028076172 212.39999389648438,53.95435333251953 214.39999389648438,59.95435333251953 209.1999969482422,56.25434112548828 204.10000610351562,59.95435333251953 206,53.95435333251953 200.89999389648438,50.15435028076172 207.3000030517578,50.15435028076172 " class="st1"/>
  <polygon fill="#ffffff" id="svg_63" points="209.1999969482422,70.954345703125 211.1999969482422,77.05433654785156 217.60000610351562,77.05433654785156 212.39999389648438,80.75433349609375 214.39999389648438,86.85433959960938 209.1999969482422,83.05433654785156 204.10000610351562,86.85433959960938 206,80.75433349609375 200.89999389648438,77.05433654785156 207.3000030517578,77.05433654785156 " class="st1"/>
  <polygon fill="#ffffff" id="svg_64" points="209.1999969482422,97.75433349609375 211.1999969482422,103.85433959960938 217.60000610351562,103.85433959960938 212.39999389648438,107.65434265136719 214.39999389648438,113.65434265136719 209.1999969482422,109.954345703125 204.10000610351562,113.65434265136719 206,107.65434265136719 200.89999389648438,103.85433959960938 207.3000030517578,103.85433959960938 " class="st1"/>
  <polygon fill="#ffffff" id="svg_65" points="209.1999969482422,124.65434265136719 211.1999969482422,130.6543426513672 217.60000610351562,130.6543426513672 212.39999389648438,134.454345703125 214.39999389648438,140.55433654785156 209.1999969482422,136.75433349609375 204.10000610351562,140.55433654785156 206,134.454345703125 200.89999389648438,130.6543426513672 207.3000030517578,130.6543426513672 " class="st1"/>
 </g>
</svg>