<?xml version="1.0" encoding="UTF-8"?>
<svg width="35px" height="35px" viewBox="0 0 35 35" version="1.1" xmlns="http://www.w3.org/2000/svg" xmlns:xlink="http://www.w3.org/1999/xlink">
    <!-- Generator: Sketch 47.1 (45422) - http://www.bohemiancoding.com/sketch -->
    <title>Foursquare</title>
    <desc>Created with Sketch.</desc>
    <defs></defs>
    <g id="Page-1" stroke="none" stroke-width="1" fill="none" fill-rule="evenodd">
        <g id="1-1-coworking-main-1170" transform="translate(-1082.000000, -7861.000000)" fill="#E3E3E3">
            <g id="Foursquare" transform="translate(1082.000000, 7861.000000)">
                <path d="M17.5,35 C7.83501688,35 0,27.1649831 0,17.5 C0,7.83501688 7.83501688,0 17.5,0 C27.1649831,0 35,7.83501688 35,17.5 C35,27.1649831 27.1649831,35 17.5,35 Z M23.3632711,7.58333333 L12.9427054,7.58333333 C11.5113905,7.58333333 11.0833333,8.67897655 11.0833333,9.3688247 L11.0833333,26.1144346 C11.0833333,26.9395306 11.4980169,27.1830145 11.725419,27.277676 C11.9528382,27.3723546 12.5547861,27.4400043 12.9828432,27.007146 C12.9828432,27.007146 17.9322814,21.1772958 18.01254,21.0826172 C18.0927986,20.9879214 18.1329194,20.9879214 18.1864307,20.9879214 L21.3166006,20.9879214 C22.6543004,20.9879214 22.9084497,20.0546065 23.0555933,19.4865003 C23.1759897,19.0130727 24.5537933,12.2499077 24.9818504,10.1127479 C25.3029187,8.46255595 24.8882352,7.58333333 23.3632711,7.58333333 Z" id="Combined-Shape"></path>
                <path d="M22.7479326,10.4374046 L22.2797377,12.7233525 C22.2262433,12.9668364 21.9988241,13.183257 21.7179105,13.183257 L17.6513508,13.183257 C17.1965295,13.183257 16.8219838,13.5619887 16.8219838,14.0218932 L16.8219838,14.5223669 C16.8219838,14.9822714 17.1965295,15.3610032 17.6513508,15.3610032 L21.0892154,15.3610032 C21.4102668,15.3610032 21.6777898,15.6721024 21.6109048,16.0102649 C21.5440198,16.3619677 21.1828646,18.1474419 21.1427098,18.3367992 C21.1159626,18.5396967 20.9019341,18.7967037 20.5808827,18.7967037 L17.7717472,18.7967037 C17.1831559,18.8102268 17.0627765,18.8237498 16.714978,19.256591 C16.3671794,19.6894322 13.290504,23.5850372 13.290504,23.5850372 C13.2637568,23.6256064 13.2370096,23.6120834 13.2370096,23.5715142 L13.2370096,10.3291857 C13.2370096,10.0181037 13.4911589,9.76107951 13.7988367,9.76107951 L22.2396339,9.76107951 C22.533921,9.76107951 22.8282082,10.0586729 22.7479326,10.4374046"></path>
            </g>
        </g>
    </g>
</svg>