<?xml version="1.0" encoding="UTF-8"?>
<svg width="56px" height="54px" viewBox="0 0 56 54" version="1.1" xmlns="http://www.w3.org/2000/svg" xmlns:xlink="http://www.w3.org/1999/xlink">
    <!-- Generator: Sketch 47.1 (45422) - http://www.bohemiancoding.com/sketch -->
    <title>grapes</title>
    <desc>Created with Sketch.</desc>
    <defs></defs>
    <g id="Page-1" stroke="none" stroke-width="1" fill="none" fill-rule="evenodd">
        <g id="2-7-1-chisinau-guest-house-crihan" transform="translate(-940.000000, -5483.000000)" fill-rule="nonzero">
            <g id="grapes" transform="translate(940.000000, 5483.000000)">
                <circle id="Oval" fill="#9777A8" cx="6" cy="48" r="6"></circle>
                <circle id="Oval" fill="#583E68" cx="10" cy="27" r="6"></circle>
                <path d="M16,40 C13.422,40 11.231,41.628 10.382,43.91 C11.383,44.982 12,46.417 12,48 C12,48.736 11.861,49.438 11.618,50.09 C12.714,51.262 14.269,52 16,52 C19.314,52 22,49.314 22,46 C22,42.686 19.314,40 16,40 Z" id="Shape" fill="#583E68"></path>
                <path d="M10.382,43.91 C10.976,42.314 12.235,41.052 13.816,40.429 C13.928,39.97 14,39.494 14,39 C14,35.686 11.314,33 8,33 C4.686,33 2,35.686 2,39 C2,40.383 2.472,41.653 3.258,42.667 C4.081,42.243 5.011,42 6,42 C7.93,42 9.643,42.915 10.74,44.331 C10.627,44.186 10.507,44.045 10.382,43.91 Z" id="Shape" fill="#6F58A8"></path>
                <path d="M26,37 C23.142,37 20.756,39 20.152,41.675 C21.289,42.766 22,44.299 22,46 C22,46.456 21.945,46.898 21.848,47.325 C22.926,48.36 24.387,49 26,49 C29.314,49 32,46.314 32,43 C32,39.686 29.314,37 26,37 Z" id="Shape" fill="#6F58A8"></path>
                <path d="M23.371,37.628 C23.762,36.832 24,35.947 24,35 C24,31.686 21.314,29 18,29 C17.068,29 16.189,29.217 15.403,29.597 C14.813,30.822 13.822,31.813 12.597,32.403 C12.28,33.063 12.079,33.79 12.022,34.558 C13.234,35.655 14,37.236 14,39 C14,39.148 13.982,39.291 13.97,39.436 C14.251,39.691 14.558,39.916 14.883,40.115 C15.246,40.046 15.617,40 16,40 C17.15,40 18.22,40.329 19.133,40.89 C19.666,40.788 20.163,40.597 20.636,40.364 C21.221,39.174 22.181,38.212 23.371,37.628 Z" id="Shape" fill="#9777A8"></path>
                <path d="M28,27 C27.226,27 26.494,27.162 25.816,27.429 C25.398,29.13 24.265,30.548 22.742,31.333 C22.742,31.332 22.741,31.332 22.741,31.332 C23.528,32.345 24,33.616 24,35 C24,35.734 23.854,36.43 23.607,37.077 C23.705,37.182 23.81,37.279 23.915,37.377 C24.565,37.136 25.266,37 26,37 C27.583,37 29.018,37.617 30.09,38.618 C32.372,37.769 34,35.578 34,33 C34,29.686 31.314,27 28,27 Z" id="Shape" fill="#583E68"></path>
                <path d="M36,33 C35.287,33 34.606,33.13 33.972,33.359 C33.827,35.778 32.264,37.81 30.09,38.619 C30.077,38.606 30.062,38.596 30.048,38.583 C31.244,39.68 32,41.249 32,43 C32,43.149 31.988,43.296 31.978,43.443 C33.042,44.407 34.45,45 36,45 C39.314,45 42,42.314 42,39 C42,35.686 39.314,33 36,33 Z" id="Shape" fill="#9777A8"></path>
                <path d="M38,23 C37.622,23 37.253,23.039 36.894,23.106 C36.441,25.532 34.532,27.441 32.106,27.894 C32.065,28.111 32.04,28.333 32.022,28.557 C33.234,29.655 34,31.236 34,33 C34,33.145 33.977,33.284 33.966,33.427 C33.991,33.397 35.293,33 36,33 C37.583,33 39.018,33.617 40.09,34.618 C42.372,33.769 44,31.578 44,29 C44,25.686 41.314,23 38,23 Z" id="Shape" fill="#583E68"></path>
                <path d="M25,10 C22.538,10 20.425,11.484 19.5,13.605 C19.82,14.339 20,15.148 20,16 C20,16.852 19.82,17.661 19.5,18.395 C19.764,19.001 20.135,19.547 20.574,20.029 C22.096,20.174 23.448,20.89 24.424,21.957 C24.615,21.975 24.804,22 25,22 C25,18.686 27.686,16 31,16 C31,12.686 28.314,10 25,10 Z" id="Shape" fill="#9777A8"></path>
                <path d="M14,10 C10.686,10 8,12.686 8,16 C8,18.127 9.11,19.991 10.779,21.056 C11.67,21.172 12.498,21.482 13.222,21.944 C13.477,21.977 13.736,22 14,22 C17.314,22 20,19.314 20,16 C20,12.686 17.314,10 14,10 Z" id="Shape" fill="#6F58A8"></path>
                <path d="M25.056,22.78 C25.053,22.776 25.051,22.771 25.049,22.767 L25.049,22.767 C23.982,21.104 22.122,20 20,20 C19.37,20 18.766,20.105 18.196,20.285 C17.535,20.933 16.725,21.429 15.821,21.717 C15.365,22.163 14.971,22.672 14.674,23.243 C15.502,24.272 16,25.577 16,27 C16,27.947 15.771,28.838 15.38,29.635 C15.387,29.622 15.396,29.61 15.402,29.597 C16.189,29.217 17.068,29 18,29 C19.931,29 21.644,29.916 22.742,31.333 C24.675,30.337 26,28.325 26,26 C26,25.734 25.976,25.475 25.942,25.219 C25.481,24.496 25.172,23.669 25.056,22.78 Z" id="Shape" fill="#6F58A8"></path>
                <path d="M31,16 C27.686,16 25,18.686 25,22 C25,24.098 26.079,25.942 27.711,27.015 C27.807,27.01 27.902,27 28,27 C29.216,27 30.345,27.364 31.29,27.985 C34.468,27.833 37,25.216 37,22 C37,18.686 34.314,16 31,16 Z" id="Shape" fill="#6F58A8"></path>
                <path d="M56,25 C49.367,25 44,19.633 44,13 C50.633,13 56,18.367 56,25 Z" id="Shape" fill="#88C057"></path>
                <path d="M34,18 L34,16 C41.168,16 47,8.822 47,0 L49,0 C49,9.925 42.271,18 34,18 Z" id="Shape" fill="#7A3726"></path>
            </g>
        </g>
    </g>
</svg>