<?xml version="1.0" encoding="UTF-8"?>
<svg width="16px" height="20px" viewBox="0 0 16 20" version="1.1" xmlns="http://www.w3.org/2000/svg" xmlns:xlink="http://www.w3.org/1999/xlink">
    <!-- Generator: Sketch 47.1 (45422) - http://www.bohemiancoding.com/sketch -->
    <title>grill</title>
    <desc>Created with Sketch.</desc>
    <defs></defs>
    <g id="Page-1" stroke="none" stroke-width="1" fill="none" fill-rule="evenodd">
        <g id="2-5-pattaya-guest-houses" transform="translate(-1155.000000, -2671.000000)" fill-rule="nonzero" fill="#B8B8B8">
            <g id="grill" transform="translate(1155.000000, 2671.000000)">
                <path d="M15.3952986,6.23773879 L0.604777251,6.23773879 C0.290691943,6.23773879 0.036056872,6.49957115 0.036056872,6.82253411 C0.036056872,7.14549708 0.290691943,7.40732943 0.604777251,7.40732943 L1.20018957,7.40732943 C1.32936493,9.08077973 2.01129858,10.634152 3.15374408,11.8312671 C3.66233175,12.3641715 4.2397346,12.8018713 4.86585782,13.1366472 L2.4425782,19.1523587 C2.32238863,19.4507212 2.46017062,19.7928265 2.75036967,19.9164522 C2.82153555,19.9467446 2.89524171,19.9611306 2.96777251,19.9611306 C3.19093839,19.9611306 3.40272986,19.8251852 3.4934218,19.599961 L4.58866351,16.8810526 L11.4151659,16.8810526 L12.5104076,19.599961 C12.6011374,19.8251462 12.812891,19.9611306 13.0360569,19.9611306 C13.1085877,19.9611306 13.1822938,19.9467836 13.2534597,19.9164522 C13.5436588,19.7928265 13.6814408,19.4507602 13.5612512,19.1523587 L11.1379716,13.1366472 C11.7640948,12.8018324 12.3414976,12.3641715 12.8500853,11.8312671 C13.9925308,10.634152 14.6744645,9.08077973 14.8036398,7.40732943 L15.3952607,7.40732943 C15.709346,7.40732943 15.963981,7.14549708 15.963981,6.82253411 C15.963981,6.49957115 15.7093839,6.23773879 15.3952986,6.23773879 Z M10.9440379,15.711423 L5.05982938,15.711423 L5.91601896,13.5860039 C6.58036019,13.8043275 7.28185782,13.9180507 8.00193365,13.9180507 C8.72200948,13.9180507 9.42350711,13.8043275 10.0878483,13.5860039 L10.9440379,15.711423 Z" id="Shape"></path>
                <path d="M8.00193365,5.06826511 C8.31601896,5.06826511 8.57065403,4.80643275 8.57065403,4.48346979 L8.57065403,0.584795322 C8.57065403,0.261832359 8.31601896,0 8.00193365,0 C7.68784834,0 7.43321327,0.261832359 7.43321327,0.584795322 L7.43321327,4.48346979 C7.43321327,4.80643275 7.68784834,5.06826511 8.00193365,5.06826511 Z" id="Shape"></path>
                <path d="M5.72705213,5.06826511 C6.04113744,5.06826511 6.29577251,4.80643275 6.29577251,4.48346979 L6.29577251,3.15781676 C6.29577251,2.8348538 6.04113744,2.57302144 5.72705213,2.57302144 C5.41296682,2.57302144 5.15833175,2.8348538 5.15833175,3.15781676 L5.15833175,4.48346979 C5.15833175,4.80643275 5.41296682,5.06826511 5.72705213,5.06826511 Z" id="Shape"></path>
                <path d="M10.2768531,5.06826511 C10.5909384,5.06826511 10.8455735,4.80643275 10.8455735,4.48346979 L10.8455735,3.15781676 C10.8455735,2.8348538 10.5909384,2.57302144 10.2768531,2.57302144 C9.96276777,2.57302144 9.7081327,2.8348538 9.7081327,3.15781676 L9.7081327,4.48346979 C9.7081327,4.80643275 9.96276777,5.06826511 10.2768531,5.06826511 Z" id="Shape"></path>
            </g>
        </g>
    </g>
</svg>