<?xml version="1.0" encoding="UTF-8"?>
<svg width="72px" height="60px" viewBox="0 0 72 60" version="1.1" xmlns="http://www.w3.org/2000/svg" xmlns:xlink="http://www.w3.org/1999/xlink">
    <!-- Generator: Sketch 47.1 (45422) - http://www.bohemiancoding.com/sketch -->
    <title>interior</title>
    <desc>Created with Sketch.</desc>
    <defs></defs>
    <g id="Page-1" stroke="none" stroke-width="1" fill="none" fill-rule="evenodd">
        <g id="2-5-pattaya-guest-houses" transform="translate(-535.000000, -1498.000000)" fill-rule="nonzero">
            <g id="interior" transform="translate(535.000000, 1498.000000)">
                <g id="beach-chair" transform="translate(0.000000, 17.000000)">
                    <polygon id="Shape" fill="#BCBCBC" points="5.36308842 26.017107 7.11416139 26.017107 7.11416139 39.8924457 5.36308842 39.8924457"></polygon>
                    <polygon id="Shape" fill="#BCBCBC" points="12.3673803 32.0875677 14.1184532 32.0875677 14.1184532 39.8924457 12.3673803 39.8924457"></polygon>
                    <path d="M50.8909854,29.0523373 C50.8909854,31.6865685 48.7350624,33.821985 46.0755348,33.821985 L16.7450627,33.821985 C0.109869568,33.821985 0.109869568,2.60247285 0.109869568,2.60247285 C0.0949068412,1.9080284 0.36722944,1.23772022 0.862711185,0.746527805 C1.35862052,0.255335393 2.03536579,-0.0139735501 2.73647898,0.000846883469 L26.375964,0.000846883469 C27.0770772,-0.0139735501 27.7538224,0.255335393 28.2497318,0.746527805 C28.7456411,1.23772022 29.0175362,1.9080284 29.0025734,2.60247285 C29.0025734,2.60247285 32.5047193,24.2826896 36.8824017,24.2826896 L46.0755348,24.2826896 C48.7350624,24.2826896 50.8909854,26.4181063 50.8909854,29.0523373 Z" id="Shape" fill="#FF675B"></path>
                    <path d="M34.7025383,22.5482723 L17.6205992,22.5482723 L17.6205992,24.2826896 L36.8824017,24.2826896 C36.1248575,24.2826896 35.3942462,23.6225441 34.7025383,22.5482723 L34.7025383,22.5482723 Z" id="Shape" fill="#CC5249"></path>
                    <polygon id="Shape" fill="#BCBCBC" points="32.5047193 33.821985 34.2557923 33.821985 34.2557923 39.8924457 32.5047193 39.8924457"></polygon>
                    <polygon id="Shape" fill="#BCBCBC" points="42.1356206 33.821985 43.8866936 33.821985 43.8866936 39.8924457 42.1356206 39.8924457"></polygon>
                    <polygon id="Shape" fill="#CC5249" points="14.1184532 22.5482723 15.8695262 22.5482723 15.8695262 24.2826896 14.1184532 24.2826896"></polygon>
                </g>
                <g id="lamp" transform="translate(51.000000, 0.000000)">
                    <path d="M6.22746222,26.8963623 L6.21409761,26.8963623 C5.63895716,26.8890381 5.17856826,26.4202881 5.18594186,25.8485413 L5.26612977,19.6417236 C5.27350337,19.07547 5.73757894,18.6204529 6.30765013,18.6204529 L6.32147557,18.6204529 C6.89661602,18.6282349 7.3565441,19.0969849 7.3491705,19.668274 C7.3491705,19.6687317 7.3491705,19.6687317 7.3491705,19.6687317 L7.26898259,25.8755494 C7.26160899,26.441803 6.79753342,26.8963623 6.22746222,26.8963623 Z" id="Shape" fill="#1E81CE"></path>
                    <path d="M6.30765013,27.9309082 C5.15736924,27.9309082 4.22507022,27.0048523 4.22507022,25.8622741 C4.22507022,24.719696 5.15736924,23.7931823 6.30765013,23.7931823 C7.45793103,23.7931823 8.39069087,24.719696 8.39069087,25.8622741 C8.39069087,27.0048523 7.45793103,27.9309082 6.30765013,27.9309082 Z" id="Shape" fill="#1A6FB0"></path>
                    <path d="M7.3491705,25.8618164 C7.3491705,26.4335632 6.88279058,26.8963623 6.30765013,26.8963623 C5.73250969,26.8963623 5.26612977,26.4335632 5.26612977,25.8618164 C5.26612977,25.2905273 5.73250969,24.8277282 6.30765013,24.8277282 C6.88279058,24.8277282 7.3491705,25.2905273 7.3491705,25.8618164 Z" id="Shape" fill="#1A6FB0"></path>
                    <path d="M10.4737316,56.8963623 C9.89813033,56.8963623 9.43221123,56.4335632 9.43221123,55.8618164 L9.43221123,19.6549988 C9.43221123,19.0837097 9.89813033,18.6204529 10.4737316,18.6204529 C11.048872,18.6204529 11.515252,19.0837097 11.515252,19.6549988 L11.515252,55.8618164 C11.515252,56.4335632 11.048872,56.8963623 10.4737316,56.8963623 Z" id="Shape" fill="#939598"></path>
                    <path d="M6.87219101,0 C5.92606657,0 5.09884129,0.633544922 4.85781686,1.54220578 L0.058988764,19.6549988 L10.4737316,19.6549988 L10.4737316,0 L6.87219101,0 Z" id="Shape" fill="#00AEEF"></path>
                    <path d="M16.0891854,1.54220578 C15.848161,0.633544922 15.0209357,0 14.0748112,0 L10.4737316,0 L10.4737316,19.6549988 L20.8880135,19.6549988 L16.0891854,1.54220578 Z" id="Shape" fill="#49C5F4"></path>
                    <path d="M4.22507022,55.8618164 C1.92404761,55.8618164 0.058988764,57.7148438 0.058988764,60 L10.4737316,60 L10.4737316,55.8618164 L4.22507022,55.8618164 Z" id="Shape" fill="#006DF0"></path>
                    <path d="M16.722393,55.8618164 L10.4737316,55.8618164 L10.4737316,60 L20.8880135,60 C20.8880135,57.7148438 19.0229548,55.8618164 16.722393,55.8618164 Z" id="Shape" fill="#2482F2"></path>
                </g>
            </g>
        </g>
    </g>
</svg>