<?xml version="1.0" encoding="UTF-8"?>
<svg width="200px" height="200px" viewBox="0 0 200 200" version="1.1" xmlns="http://www.w3.org/2000/svg" xmlns:xlink="http://www.w3.org/1999/xlink">
    <!-- Generator: Sketch 47.1 (45422) - http://www.bohemiancoding.com/sketch -->
    <title>it</title>
    <desc>Created with Sketch.</desc>
    <defs>
        <circle id="path-1" cx="100" cy="100" r="100"></circle>
        <filter x="-7.8%" y="-7.8%" width="115.5%" height="115.5%" filterUnits="objectBoundingBox" id="filter-2">
            <feGaussianBlur stdDeviation="15" in="SourceAlpha" result="shadowBlurInner1"></feGaussianBlur>
            <feOffset dx="0" dy="1" in="shadowBlurInner1" result="shadowOffsetInner1"></feOffset>
            <feComposite in="shadowOffsetInner1" in2="SourceAlpha" operator="arithmetic" k2="-1" k3="1" result="shadowInnerInner1"></feComposite>
            <feColorMatrix values="0 0 0 0 0   0 0 0 0 0   0 0 0 0 0  0 0 0 0.1 0" type="matrix" in="shadowInnerInner1"></feColorMatrix>
        </filter>
    </defs>
    <g id="Page-1" stroke="none" stroke-width="1" fill="none" fill-rule="evenodd">
        <g id="4-1-about-us" transform="translate(-913.000000, -1075.000000)">
            <g id="it" transform="translate(913.000000, 1075.000000)">
                <g id="Oval-2">
                    <use fill="#7DA5C0" fill-rule="evenodd" xlink:href="#path-1"></use>
                    <use fill="black" fill-opacity="1" filter="url(#filter-2)" xlink:href="#path-1"></use>
                </g>
                <g id="devices" transform="translate(25.000000, 40.000000)" fill-rule="nonzero">
                    <path d="M102.322059,39.9306139 C95.4588515,39.9306139 89.8436436,45.5458218 89.8436436,52.4090297 L89.8436436,119.791842 L7.4870495,119.791842 C3.36918812,119.791525 0,116.422337 0,112.304792 L0,7.4870495 C0,3.36918812 3.36918812,0 7.4870495,0 L122.287208,0 C126.405069,0 129.774257,3.36918812 129.774257,7.4870495 L129.774257,39.9306139 C129.774257,39.9306139 102.322059,39.9306139 102.322059,39.9306139 Z" id="Shape" fill="#E0E9ED"></path>
                    <path d="M102.322059,39.9306139 C95.4588515,39.9306139 89.8436436,45.5458218 89.8436436,52.4090297 L89.8436436,109.809109 L14.974099,109.809109 C12.2287525,109.809109 9.98273267,107.563089 9.98273267,104.817743 L9.98273267,37.4349307 C9.98273267,34.6895842 12.2287525,32.4435644 14.974099,32.4435644 L114.800475,32.4435644 C117.545822,32.4435644 119.791842,34.6895842 119.791842,37.4349307 L119.791842,39.9306139 L102.322059,39.9306139 Z" id="Shape" fill="#FFFFFF"></path>
                    <polygon id="Shape" fill="#4398D1" points="22.4608317 44.9219802 49.9130297 44.9219802 49.9130297 68.6308119 22.4608317 68.6308119"></polygon>
                    <path d="M89.8436436,52.4087129 L89.8436436,68.630495 L57.4000792,68.630495 L57.4000792,44.9216634 L92.3393267,44.9216634 C90.8419802,47.0431683 89.8436436,49.6636832 89.8436436,52.4087129 Z" id="Shape" fill="#E2574C"></path>
                    <path d="M64.8871287,11.2304158 L114.800158,11.2304158 C117.545505,11.2304158 119.791525,13.4764356 119.791525,16.2217822 C119.791525,18.9671287 117.545505,21.2131485 114.800158,21.2131485 L64.8871287,21.2131485 C62.1417822,21.2131485 59.8957624,18.9671287 59.8957624,16.2217822 C59.8957624,13.4764356 62.1417822,11.2304158 64.8871287,11.2304158 Z" id="Shape" fill="#BFC3C5"></path>
                    <path d="M89.8436436,84.8522772 L25.5803564,84.8522772 C23.8333465,84.8522772 22.4608317,83.4797624 22.4608317,81.7327525 C22.4608317,79.9857426 23.8333465,78.6132277 25.5803564,78.6132277 L89.8436436,78.6132277 L89.8436436,84.8522772 L89.8436436,84.8522772 Z M25.5803564,91.0916436 L89.8436436,91.0916436 L89.8436436,97.3306931 L25.5803564,97.3306931 C23.8333465,97.3306931 22.4608317,95.9581782 22.4608317,94.2111683 C22.4608317,92.4641584 23.8336634,91.0916436 25.5803564,91.0916436 Z" id="Shape" fill="#E4E7E7"></path>
                    <path d="M14.974099,11.2304158 C12.2287525,11.2304158 9.98273267,13.4764356 9.98273267,16.2217822 C9.98273267,18.9671287 12.2287525,21.2131485 14.974099,21.2131485 C17.7194455,21.2131485 19.9651485,18.9671287 19.9651485,16.2217822 C19.9651485,13.4764356 17.7191287,11.2304158 14.974099,11.2304158 Z M29.9478812,11.2304158 C27.2025347,11.2304158 24.9565149,13.4764356 24.9565149,16.2217822 C24.9565149,18.9671287 27.2025347,21.2131485 29.9478812,21.2131485 C32.6932277,21.2131485 34.9392475,18.9671287 34.9392475,16.2217822 C34.9392475,13.4764356 32.6932277,11.2304158 29.9478812,11.2304158 Z M44.9219802,11.2304158 C42.1766337,11.2304158 39.9306139,13.4764356 39.9306139,16.2217822 C39.9306139,18.9671287 42.1766337,21.2131485 44.9219802,21.2131485 C47.6673267,21.2131485 49.9133465,18.9671287 49.9133465,16.2217822 C49.9133465,13.4764356 47.6670099,11.2304158 44.9219802,11.2304158 Z" id="Shape" fill="#BFC3C5"></path>
                    <path d="M107.313426,44.9219802 L147.24404,44.9219802 C154.107248,44.9219802 159.722455,50.5371881 159.722455,57.400396 L159.722455,147.24404 C159.722455,154.107248 154.107248,159.722455 147.24404,159.722455 L107.313426,159.722455 C100.450218,159.722455 94.8350099,154.107248 94.8350099,147.24404 L94.8350099,57.4000792 C94.8350099,50.5371881 100.450218,44.9219802 107.313426,44.9219802 Z" id="Shape" fill="#E0E9ED"></path>
                    <path d="M103.569743,62.3914455 L150.987406,62.3914455 C152.359921,62.3914455 153.483089,63.5146139 153.483089,64.8871287 L153.483089,139.75699 C153.483089,141.129505 152.359921,142.252673 150.987406,142.252673 L103.569743,142.252673 C102.197228,142.252673 101.074059,141.129505 101.074059,139.75699 L101.074059,64.8871287 C101.074059,63.5146139 102.197228,62.3914455 103.569743,62.3914455 Z" id="Shape" fill="#FFFFFF"></path>
                    <path d="M127.278574,147.243723 C129.399762,147.243723 131.021941,148.865901 131.021941,150.987089 C131.021941,153.108277 129.399762,154.730455 127.278574,154.730455 C125.157386,154.730455 123.535208,153.108277 123.535208,150.987089 C123.535208,148.990733 125.157386,147.243723 127.278574,147.243723 Z" id="Shape" fill="#BFC3C5"></path>
                    <polygon id="Shape" fill="#4398D1" points="111.056792 72.3741782 143.500356 72.3741782 143.500356 89.8436436 111.056792 89.8436436"></polygon>
                    <polygon id="Shape" fill="#E2574C" points="111.056792 96.0830099 143.500356 96.0830099 143.500356 112.304792 111.056792 112.304792"></polygon>
                    <path d="M113.552475,123.535208 L141.004673,123.535208 C142.377188,123.535208 143.500356,122.41204 143.500356,121.039525 C143.500356,119.66701 142.377188,118.543842 141.004673,118.543842 L113.552475,118.543842 C112.17996,118.543842 111.056792,119.66701 111.056792,121.039525 C111.056792,122.41204 112.17996,123.535208 113.552475,123.535208 Z M141.004673,127.278574 L113.552475,127.278574 C112.17996,127.278574 111.056792,128.401743 111.056792,129.774257 C111.056792,131.146772 112.17996,132.269941 113.552475,132.269941 L141.004673,132.269941 C142.377188,132.269941 143.500356,131.146772 143.500356,129.774257 C143.500356,128.401743 142.377188,127.278574 141.004673,127.278574 Z" id="Shape" fill="#E4E7E7"></path>
                    <path d="M121.663366,52.4087129 L134.141782,52.4087129 C135.140119,52.4087129 136.013624,53.2822178 136.013624,54.2805545 C136.013624,55.2788911 135.140119,56.152396 134.141782,56.152396 L121.663366,56.152396 C120.66503,56.152396 119.791525,55.2788911 119.791525,54.2805545 C119.791525,53.2822178 120.66503,52.4087129 121.663366,52.4087129 Z" id="Shape" fill="#BFC3C5"></path>
                </g>
            </g>
        </g>
    </g>
</svg>