<?xml version="1.0" encoding="UTF-8"?>
<svg width="52px" height="60px" viewBox="0 0 52 60" version="1.1" xmlns="http://www.w3.org/2000/svg" xmlns:xlink="http://www.w3.org/1999/xlink">
    <!-- Generator: Sketch 47.1 (45422) - http://www.bohemiancoding.com/sketch -->
    <title>joy</title>
    <desc>Created with Sketch.</desc>
    <defs></defs>
    <g id="Page-1" stroke="none" stroke-width="1" fill="none" fill-rule="evenodd">
        <g id="2-5-pattaya-guest-houses" transform="translate(-621.000000, -3991.000000)" fill-rule="nonzero">
            <g id="joy" transform="translate(621.000000, 3991.000000)">
                <path d="M11.6724706,21.0688889 C6.24105882,21.0688889 1.82235294,16.6759064 1.82235294,11.2763743 C1.82235294,10.7845614 1.42141176,10.3861988 0.926941176,10.3861988 C0.432470588,10.3861988 0.0315294118,10.7846784 0.0315294118,11.2763743 C0.0315294118,17.6577778 5.25364706,22.8493567 11.6725882,22.8493567 L17.0454118,22.8493567 L17.0454118,21.0688889 L11.6724706,21.0688889 Z" id="Shape" fill="#FFCB63"></path>
                <rect id="Rectangle-path" fill="#FFA754" x="17.0452941" y="21.0688889" width="17.9094118" height="1.78046784"></rect>
                <path d="M51.0731765,10.3860819 C50.5785882,10.3860819 50.1776471,10.7845614 50.1776471,11.2762573 C50.1776471,16.6757895 45.7589412,21.0687719 40.3275294,21.0687719 L34.9547059,21.0687719 L34.9547059,22.8492398 L40.3275294,22.8492398 C46.7464706,22.8492398 51.9685882,17.6576608 51.9685882,11.2762573 C51.9685882,10.7845614 51.5676471,10.3860819 51.0731765,10.3860819 Z" id="Shape" fill="#A45E43"></path>
                <path d="M39.432,32.6416374 L39.432,46.8433918 L48.7372941,50.0207018 C49.0990588,50.1442105 49.3418824,50.4825731 49.3418824,50.8626901 L49.3418824,54.4236257 C49.3418824,54.9154386 48.9409412,55.3139181 48.4464706,55.3139181 C47.9518824,55.3139181 47.5509412,54.9154386 47.5509412,54.4236257 L47.5509412,51.4982456 L38.2456471,48.3209357 C37.8838824,48.1974269 37.6410588,47.8590643 37.6410588,47.4789474 L37.6410588,32.6416374 L39.432,32.6416374 Z" id="Shape" fill="#2DADE3"></path>
                <path d="M27.5077647,58.1480702 L30.4774118,57.1639766 L30.4774118,32.6416374 L32.2683529,32.6416374 L32.2683529,57.805614 C32.2683529,58.1887719 32.0217647,58.5290058 31.6561176,58.6501754 L28.0742353,59.837193 C27.6050588,59.9926316 27.0977647,59.7405848 26.9415294,59.2740351 C26.7855294,58.8076023 27.0385882,58.3033918 27.5077647,58.1480702 Z" id="Shape" fill="#49C9FF"></path>
                <path d="M12.568,32.6416374 L12.568,46.8433918 L3.26270588,50.0207018 C2.90094118,50.1442105 2.65811765,50.4825731 2.65811765,50.8626901 L2.65811765,54.4236257 C2.65811765,54.9154386 3.05905882,55.3139181 3.55352941,55.3139181 C4.048,55.3139181 4.44894118,54.9154386 4.44894118,54.4236257 L4.44894118,51.4982456 L13.7542353,48.3209357 C14.116,48.1974269 14.3588235,47.8590643 14.3588235,47.4789474 L14.3588235,32.6416374 L12.568,32.6416374 Z" id="Shape" fill="#85453D"></path>
                <g id="Group" transform="translate(16.941176, 30.175439)" fill="#60312C">
                    <path d="M7.55105882,27.9726316 L4.58141176,26.988538 L4.58141176,2.46619883 L2.79047059,2.46619883 L2.79047059,27.6301754 C2.79047059,28.0133333 3.03705882,28.3535673 3.40270588,28.4747368 L6.98458824,29.6617544 C7.45376471,29.817193 7.96105882,29.5651462 8.11729412,29.0985965 C8.27329412,28.6321637 8.02023529,28.1279532 7.55105882,27.9726316 Z" id="Shape"></path>
                    <path d="M0.104117647,0.0925146199 L0.104117647,8.9948538 C3.07141176,8.9948538 5.47694118,6.60339181 5.47694118,3.65345029 L0.104117647,0.0925146199 Z" id="Shape"></path>
                </g>
                <path d="M18.8362353,33.8288889 L17.0452941,30.2679532 L11.6724706,33.8288889 C11.6724706,36.7788304 14.078,39.1702924 17.0452941,39.1702924 C18.0343529,39.1702924 18.8362353,36.7788304 18.8362353,33.8288889 Z" id="Shape" fill="#85453D"></path>
                <path d="M20.0302353,19.5851462 L16.4483529,19.5851462 L18.8362353,33.8288889 L22.4181176,33.8288889 L22.4181176,21.9590643 C22.4181176,20.6479532 21.3490588,19.5851462 20.0302353,19.5851462 Z" id="Shape" fill="#FFA754"></path>
                <path d="M16.4483529,19.5851462 L14.0604706,19.5851462 C12.7416471,19.5851462 11.6725882,20.6479532 11.6725882,21.9590643 L11.6725882,33.8288889 L18.8363529,33.8288889 L18.8363529,21.9590643 C18.8362353,20.6479532 17.7671765,19.5851462 16.4483529,19.5851462 Z" id="Shape" fill="#FFCB63"></path>
                <path d="M17.0452941,5.34140351 L17.0452941,16.0242105 C20.0125882,16.0242105 22.4181176,13.6327485 22.4181176,10.682807 C22.4181176,7.7328655 20.0125882,5.34140351 17.0452941,5.34140351 Z" id="Shape" fill="#FF8D7E"></path>
                <path d="M18.8362353,10.682807 C18.8362353,7.7328655 18.0343529,5.34140351 17.0452941,5.34140351 C14.078,5.34140351 11.6724706,7.7328655 11.6724706,10.682807 C11.6724706,13.6327485 14.078,16.0242105 17.0452941,16.0242105 C18.0343529,16.0242105 18.8362353,13.6327485 18.8362353,10.682807 Z" id="Shape" fill="#FFB4A9"></path>
                <path d="M37.9396471,19.5851462 L34.3577647,19.5851462 L34.3577647,33.8288889 L40.3275294,33.8288889 L40.3275294,21.9590643 C40.3275294,20.6479532 39.2584706,19.5851462 37.9396471,19.5851462 Z" id="Shape" fill="#2DADE3"></path>
                <path d="M34.3577647,19.5851462 L31.9698824,19.5851462 C30.6510588,19.5851462 29.582,20.6479532 29.582,21.9590643 L29.582,33.8288889 L36.7457647,33.8288889 L36.7457647,21.9590643 C36.7456471,20.6479532 35.6765882,19.5851462 34.3577647,19.5851462 Z" id="Shape" fill="#49C9FF"></path>
                <path d="M40.3275294,30.2679532 L36.7456471,30.2679532 L38.5365882,40.9507602 L42.1184706,40.9507602 L42.1184706,34.9761404 C42.1184706,33.1705263 41.4414118,31.5231579 40.3275294,30.2679532 Z" id="Shape" fill="#FF4128"></path>
                <path d="M36.7456471,30.2679532 L29.5818824,30.2679532 C28.468,31.5231579 27.7909412,33.1706433 27.7909412,34.9761404 L27.7909412,40.9507602 L38.5365882,40.9507602 L38.5365882,34.9761404 C38.5365882,33.1705263 37.8595294,31.5231579 36.7456471,30.2679532 Z" id="Shape" fill="#FF6337"></path>
                <ellipse id="Oval" fill="#60312C" cx="34.9547059" cy="2.67064327" rx="2.68635294" ry="2.67064327"></ellipse>
                <path d="M39.0445882,7.22093567 C39.0457647,7.21976608 34.9547059,7.22035088 34.9547059,7.22035088 L34.9547059,16.0242105 C37.9216471,16.0242105 40.3275294,13.6323977 40.3275294,10.682807 C40.3275294,9.36292398 39.8445882,8.15274854 39.0445882,7.22093567 Z" id="Shape" fill="#A45E43"></path>
                <path d="M36.6130588,8.66608187 L30.8647059,7.22093567 C30.0647059,8.15274854 29.5817647,9.36280702 29.5817647,10.682807 C29.5817647,13.6323977 31.9876471,16.0242105 34.9545882,16.0242105 C35.9431765,16.0242105 36.7455294,13.6323977 36.7455294,10.682807 C36.7456471,9.96947368 36.6990588,9.28807018 36.6130588,8.66608187 Z" id="Shape" fill="#C27749"></path>
                <path d="M34.9547059,5.34140351 L36.6131765,8.66608187 C37.5027059,8.40140351 38.3414118,7.91883041 39.0447059,7.22093567 C38.0596471,6.07076023 36.5928235,5.34140351 34.9547059,5.34140351 Z" id="Shape" fill="#40211D"></path>
                <path d="M34.9547059,5.34140351 C33.3165882,5.34140351 31.8497647,6.07076023 30.8648235,7.22093567 C32.4217647,8.76877193 34.6430588,9.25122807 36.6131765,8.66608187 C36.3468235,6.71590643 35.7044706,5.34140351 34.9547059,5.34140351 Z" id="Shape" fill="#60312C"></path>
            </g>
        </g>
    </g>
</svg>