<svg xmlns="http://www.w3.org/2000/svg" width="75" height="75" viewBox="0 0 75 75"><g><g><path fill="#d1d1d1" d="M72.661 72.677H52.734V70.32h2.348v-2.333h-2.348V50.983c0-5.497 4.47-9.97 9.964-9.97 5.493 0 9.963 4.473 9.963 9.97v17.005h-3.52v2.333h3.52zm-16.41-46.9h14.076v15.56a12.239 12.239 0 0 0-7.624-2.657c-2.366 0-4.576.673-6.453 1.835zm0-2.338c0-3.88 3.157-7.037 7.038-7.037 3.88 0 7.038 3.157 7.038 7.037v.006H56.25v-.006zm-5.86 44.549h-3.52v2.334h3.52v2.355h-4.698V52.744c0-4.11-3.038-7.523-6.985-8.11V43.36h1.132v-2.333h-1.132v-1.183h2.304V37.51h-2.304v-1.178h-2.333v1.178h-2.393v2.334h2.393v1.183h-1.221v2.333h1.221v1.262c-3.99.55-7.074 3.98-7.074 8.122v19.933h-4.698v-2.356h3.52v-2.333h-3.52V42.194c0-7.114 5.784-12.9 12.894-12.9s12.894 5.786 12.894 12.9zM31.636 52.744v-.006a5.87 5.87 0 0 1 5.861-5.865 5.87 5.87 0 0 1 5.861 5.865v.006zm11.722 19.923h-4.69v-17.59h4.69zm-7.032 0h-4.69v-17.59h4.69zm9.376-52.75v9.45a15.198 15.198 0 0 0-2.353-1.236v-5.864h-2.332v5.105a15.135 15.135 0 0 0-2.354-.367v-4.738H36.33v4.738c-.804.06-1.59.186-2.354.367v-5.105h-2.332v5.865c-.823.344-1.61.758-2.354 1.235v-9.45zm-8.205-9.375c4.129 0 7.553 3.067 8.121 7.043H29.376c.568-3.976 3.993-7.043 8.121-7.043zM22.27 67.988h-2.35v2.333h2.35v2.356H2.333v-2.356h3.522v-2.333H2.333V50.983c0-5.497 4.472-9.97 9.969-9.97 5.496 0 9.968 4.473 9.968 9.97zM4.678 25.778h14.066v14.735a12.212 12.212 0 0 0-6.448-1.833c-2.876 0-5.522.996-7.618 2.658zm0-2.339c0-3.88 3.155-7.037 7.033-7.037 3.878 0 7.033 3.157 7.033 7.037v.006H4.678v-.006zM72.65 43.77V23.44c0-4.757-3.562-8.694-8.159-9.29v-1.264h1.133v-2.333h-1.133V9.37h2.305V7.037h-2.305V5.86h-2.333v1.177h-2.394V9.37h2.394v1.183h-1.222v2.333h1.222v1.253c-4.64.556-8.248 4.513-8.248 9.3v18.945c-.428.437-.823.905-1.183 1.401v-1.594c0-4.31-1.8-8.208-4.688-10.981V18.75c0-5.403-4.087-9.867-9.33-10.47V7.027h1.132V4.694h-1.133V3.51h2.305V1.177h-2.305V0h-2.333v1.177h-2.394v2.334h2.394v1.182h-1.222v2.333h1.222V8.27c-5.287.562-9.42 5.047-9.42 10.481V31.21a15.188 15.188 0 0 0-4.688 10.98v1.595c-.36-.496-.755-.966-1.183-1.403V23.439c0-4.756-3.562-8.693-8.159-9.289v-1.264h1.133v-2.333h-1.133V9.37h2.305V7.037h-2.305V5.86h-2.333v1.177H8.198V9.37h2.394v1.183H9.37v2.333h1.222v1.253c-4.64.556-8.248 4.513-8.248 9.3V43.77A12.23 12.23 0 0 0 0 50.98V75h74.995V50.98c0-2.692-.872-5.182-2.345-7.21z"/></g></g></svg>