<?xml version="1.0" encoding="UTF-8"?>
<svg width="23px" height="22px" viewBox="0 0 23 22" version="1.1" xmlns="http://www.w3.org/2000/svg" xmlns:xlink="http://www.w3.org/1999/xlink">
    <!-- Generator: Sketch 47.1 (45422) - http://www.bohemiancoding.com/sketch -->
    <title>Page 1</title>
    <desc>Created with Sketch.</desc>
    <defs></defs>
    <g id="Page-1" stroke="none" stroke-width="1" fill="none" fill-rule="evenodd">
        <g id="stangher-coworking-apartments" transform="translate(-775.000000, -6081.000000)" fill="#B8B8B8">
            <g id="Page-1" transform="translate(775.000000, 6081.000000)">
                <path d="M7.41905806,7.69798333 L14.8387839,7.69798333 C15.1303645,7.69798333 15.3696387,7.46588333 15.3696387,7.18208333 L15.3696387,6.18328333 C15.3696387,5.89948333 15.1303645,5.66628333 14.8387839,5.66628333 L12.7888161,5.66628333 C12.4972355,5.66628333 12.2590742,5.43418333 12.2590742,5.15038333 L12.2590742,1.24978333 C12.2590742,0.965983333 12.0198,0.732783333 11.7282194,0.732783333 L10.5296226,0.732783333 C10.2380419,0.732783333 9.99988065,0.965983333 9.99988065,1.24978333 L9.99988065,5.15038333 C9.99988065,5.43418333 9.76060645,5.66628333 9.46902581,5.66628333 L7.41905806,5.66628333 C7.12747742,5.66628333 6.88931613,5.89948333 6.88931613,6.18328333 L6.88931613,7.18208333 C6.88931613,7.46588333 7.12747742,7.69798333 7.41905806,7.69798333 L7.41905806,7.69798333 Z M7.7073,15.2054833 C7.7073,14.9502833 7.91986452,14.7434833 8.18139677,14.7434833 L14.0764452,14.7434833 C14.3379774,14.7434833 14.5505419,14.9502833 14.5505419,15.2054833 L14.5505419,20.1906833 C14.5505419,20.4458833 14.3379774,20.6526833 14.0764452,20.6526833 L8.18139677,20.6526833 C7.91986452,20.6526833 7.7073,20.4458833 7.7073,20.1906833 L7.7073,15.2054833 Z M8.52417097,12.6435833 C8.77902581,12.6435833 8.98602581,12.8459833 8.98602581,13.0934833 C8.98602581,13.3420833 8.77902581,13.5444833 8.52417097,13.5444833 C8.26931613,13.5444833 8.06231613,13.3420833 8.06231613,13.0934833 C8.06231613,12.8459833 8.26931613,12.6435833 8.52417097,12.6435833 L8.52417097,12.6435833 Z M10.2614129,12.6435833 C10.5162677,12.6435833 10.7221548,12.8459833 10.7221548,13.0934833 C10.7221548,13.3420833 10.5162677,13.5444833 10.2614129,13.5444833 C10.0054452,13.5444833 9.79844516,13.3420833 9.79844516,13.0934833 C9.79844516,12.8459833 10.0054452,12.6435833 10.2614129,12.6435833 L10.2614129,12.6435833 Z M11.9975419,12.6435833 C12.2523968,12.6435833 12.4593968,12.8459833 12.4593968,13.0934833 C12.4593968,13.3420833 12.2523968,13.5444833 11.9975419,13.5444833 C11.7426871,13.5444833 11.5356871,13.3420833 11.5356871,13.0934833 C11.5356871,12.8459833 11.7426871,12.6435833 11.9975419,12.6435833 L11.9975419,12.6435833 Z M13.733671,12.6435833 C13.9885258,12.6435833 14.1955258,12.8459833 14.1955258,13.0934833 C14.1955258,13.3420833 13.9885258,13.5444833 13.733671,13.5444833 C13.4788161,13.5444833 13.2718161,13.3420833 13.2718161,13.0934833 C13.2718161,12.8459833 13.4788161,12.6435833 13.733671,12.6435833 L13.733671,12.6435833 Z M6.59105806,21.6855833 L15.825929,21.6855833 L15.825929,11.1156833 L6.59105806,11.1156833 L6.59105806,21.6855833 Z M0.00044516129,11.9450833 L0.00044516129,20.8539833 C0.00044516129,21.3126833 0.382170968,21.6855833 0.852929032,21.6855833 L5.64286452,21.6855833 L5.64286452,11.1145833 L0.852929032,11.1145833 C0.382170968,11.1145833 0.00044516129,11.4874833 0.00044516129,11.9450833 L0.00044516129,11.9450833 Z M21.4060258,11.1145833 L16.7730097,11.1145833 L16.7730097,21.6855833 L21.4060258,21.6855833 C21.875671,21.6855833 22.2585097,21.3126833 22.2585097,20.8539833 L22.2585097,11.9450833 C22.2585097,11.4874833 21.875671,11.1145833 21.4060258,11.1145833 L21.4060258,11.1145833 Z M8.65438065,19.7297833 L13.6034613,19.7297833 L13.6034613,15.6674833 L8.65438065,15.6674833 L8.65438065,19.7297833 Z" id="Fill-1"></path>
            </g>
        </g>
    </g>
</svg>