<?xml version="1.0" encoding="UTF-8"?>
<svg width="150px" height="35px" viewBox="0 0 150 35" version="1.1" xmlns="http://www.w3.org/2000/svg" xmlns:xlink="http://www.w3.org/1999/xlink">
    <!-- Generator: Sketch 47.1 (45422) - http://www.bohemiancoding.com/sketch -->
    <title>lex-profit-logo</title>
    <desc>Created with Sketch.</desc>
    <defs>
        <polygon id="path-1" points="33.6452076 33.6489899 5.19031142e-05 33.6489899 5.19031142e-05 0.09225 33.6452076 0.09225 33.6452076 33.6489899"></polygon>
    </defs>
    <g id="Page-1" stroke="none" stroke-width="1" fill="none" fill-rule="evenodd">
        <g id="2-1-projects" transform="translate(-645.000000, -729.000000)">
            <g id="lex-profit-logo" transform="translate(645.000000, 729.000000)">
                <path d="M12.8090138,12.9123598 C12.8079758,8.06794066 16.744827,4.1408447 21.6008824,4.1408447 C26.4553806,4.1408447 30.395346,8.06794066 30.395346,12.9123598 C30.395346,17.7562614 26.4569377,21.6812866 21.6008824,21.6812866 C19.9000173,21.6812866 18.3143772,21.1988119 16.9674913,20.3653523 C17.861263,20.8240139 18.8770069,21.0828523 19.9534775,21.0828523 C23.5680104,21.084923 26.4984602,18.1616023 26.4984602,14.5539129 C26.4958651,10.9503649 23.5680104,8.02756187 19.9534775,8.02756187 C16.3379066,8.02756187 13.4074567,10.9524356 13.4084948,14.5554659 C13.4074567,15.6291275 13.6680104,16.6411856 14.12891,17.532625 C13.2911938,16.1908068 12.8090138,14.609822 12.8090138,12.9123598 Z" id="Fill-1" fill="#669ED1"></path>
                <g id="Group-5" transform="translate(0.000000, 0.425427)">
                    <mask id="mask-2" fill="white">
                        <use xlink:href="#path-1"></use>
                    </mask>
                    <g id="Clip-4"></g>
                    <path d="M31.118564,8.03030556 C31.9978028,9.73656818 32.4991869,11.6726793 32.4991869,13.7242323 C32.4991869,20.6217576 26.8941696,26.212149 19.9770415,26.2131843 C13.0599135,26.2131843 7.45645329,20.624346 7.45541522,13.7242323 C7.45541522,6.82774242 13.0609516,1.23735101 19.9754844,1.23735101 C22.035,1.23735101 23.9746194,1.73432071 25.6879412,2.61230051 C23.1130277,1.01578535 20.0761765,0.09225 16.8239273,0.09225 C7.53223183,0.09225 5.19031142e-05,7.60425758 5.19031142e-05,16.8717071 C5.19031142e-05,26.1370859 7.53223183,33.6490934 16.8218512,33.6490934 C26.1119896,33.6475404 33.6452076,26.1381212 33.6452076,16.868601 C33.6452076,13.6258737 32.7202941,10.5979823 31.118564,8.03030556" id="Fill-3" fill="#64C8D3" mask="url(#mask-2)"></path>
                </g>
                <path d="M21.9833045,15.960803 C21.9833045,14.2778359 20.6141003,12.9122045 18.9236159,12.9122045 C17.2362457,12.9122045 15.8685986,14.2768005 15.8685986,15.960803 C15.8675606,17.6468763 17.2362457,19.0109545 18.9267301,19.0109545 C20.6151384,19.0125076 21.9833045,17.6479116 21.9833045,15.960803" id="Fill-6" fill="#7967AB"></path>
                <path d="M42.8788754,23.0808775 C42.2269723,23.0808775 41.6783564,23.0099558 41.2314706,22.8686301 C40.7845848,22.7267866 40.4274913,22.5124684 40.1596713,22.2241225 C39.8913322,21.9357765 39.6998097,21.5739205 39.5840657,21.139072 C39.4683218,20.7042235 39.4107093,20.1984533 39.4107093,19.6217614 L39.4107093,12.4519381 L42.2799135,12.4519381 L42.2799135,19.3546402 C42.2799135,19.7423801 42.3453114,20.0069129 42.4771453,20.1482386 C42.6084602,20.2900821 42.8575952,20.3610038 43.2255882,20.3610038 L50.6191869,20.3610038 L50.6191869,23.0808775 L42.8788754,23.0808775 Z" id="Fill-8" fill="#828383"></path>
                <path d="M62.9147751,12.4520934 L62.9147751,15.266702 L54.8121799,15.266702 C54.6434948,15.266702 54.5594118,15.3557424 54.5594118,15.5338232 L54.5594118,16.7446692 L62.8675433,16.7446692 L62.8675433,18.7884571 L54.5594118,18.7884571 L54.5594118,20.0774722 C54.5594118,20.2664242 54.6434948,20.3606414 54.8121799,20.3606414 L62.9147751,20.3606414 L62.9147751,23.0810328 L53.2042215,23.0810328 C52.2050865,23.0810328 51.7062976,22.5882045 51.7062976,21.6030657 L51.7062976,13.882952 C51.7062976,12.9293914 52.2107958,12.4520934 53.2197924,12.4520934 L62.9147751,12.4520934 Z" id="Fill-10" fill="#828383"></path>
                <path d="M78.5049654,12.4520934 C78.4105017,12.5778889 78.3051384,12.6933308 78.1899135,12.7979015 L73.4137889,17.4047071 L78.8044464,22.7507551 C78.8573875,22.8035581 78.9046194,22.8584318 78.9466609,22.9158939 C78.9887024,22.9733561 79.0307439,23.0287475 79.0727855,23.0810328 L74.9900865,23.0810328 C74.9163841,22.9655909 74.832301,22.8605025 74.7373183,22.7662854 L71.348564,19.2445303 L67.7698443,22.7662854 C67.7174221,22.8190884 67.6670761,22.8713737 67.6198443,22.9236591 C67.5731315,22.9759444 67.5279758,23.0287475 67.4864533,23.0810328 L63.7343772,23.0810328 C63.7758997,23.0178763 63.8179412,22.9630025 63.8605017,22.9158939 C63.9020242,22.8687854 63.9549654,22.8139116 64.0182872,22.7507551 L69.5200173,17.4047071 L64.7589446,12.7979015 C64.6328201,12.6933308 64.5326471,12.5778889 64.4594637,12.4520934 L68.432128,12.4520934 C68.5053114,12.5675354 68.5945848,12.6829773 68.6999481,12.7979015 L71.5219204,15.6596187 L74.5011592,12.7979015 C74.5639619,12.7456162 74.6194983,12.688154 74.6667301,12.6249975 C74.7139619,12.5623586 74.7585986,12.5048965 74.8006401,12.4520934 L78.5049654,12.4520934 Z" id="Fill-12" fill="#828383"></path>
                <path d="M87.9636332,17.7979343 C88.2786851,17.7979343 88.5340484,17.7534141 88.7286851,17.6643737 C88.9228028,17.5753333 89.077474,17.4521263 89.193218,17.2947525 C89.3608651,17.0747399 89.4454671,16.823149 89.4454671,16.5399798 C89.4454671,16.2361035 89.3561938,15.9689823 89.1776471,15.7380985 C89.0619031,15.591596 88.9067128,15.4766717 88.7120761,15.3922904 C88.5179585,15.3084268 88.2683045,15.2664949 87.9636332,15.2664949 L83.2030796,15.2664949 C83.0660554,15.2664949 82.9980623,15.3400051 82.9980623,15.4865076 L82.9980623,17.7979343 L87.9636332,17.7979343 Z M87.9008304,12.4518864 C88.6575779,12.4518864 89.2907958,12.5543864 89.7999654,12.7588687 C90.310173,12.963351 90.743045,13.2439318 91.1006574,13.6000934 C91.4686505,13.9671263 91.7577509,14.396798 91.9679585,14.8891086 C92.1776471,15.3819369 92.2830104,15.8954722 92.2830104,16.4297146 C92.2830104,16.9018359 92.2015225,17.3553207 92.0390657,17.7901692 C91.8755709,18.2250177 91.6471972,18.6210404 91.3529066,18.977202 C90.9849135,19.4172273 90.5229758,19.7661414 89.9655363,20.0229091 C89.4086159,20.2796768 88.7203806,20.4080606 87.9008304,20.4080606 L82.9980623,20.4080606 L82.9980623,23.0808258 L80.1449481,23.0808258 L80.1449481,13.1124419 C80.1449481,12.6724167 80.375917,12.4518864 80.8383737,12.4518864 L87.9008304,12.4518864 Z" id="Fill-14" fill="#828383"></path>
                <path d="M101.331696,16.8859432 C101.531003,16.8859432 101.693979,16.8543649 101.820104,16.791726 C101.946747,16.7285694 102.051592,16.6452235 102.135675,16.5401351 C102.27218,16.3724078 102.340173,16.1891503 102.340173,15.9898447 C102.340173,15.7486073 102.261799,15.5493018 102.104014,15.3924457 C101.935848,15.2034937 101.678408,15.1092765 101.331696,15.1092765 L96.523391,15.1092765 C96.3661246,15.1092765 96.2867128,15.1879634 96.2867128,15.3453371 L96.2867128,16.8859432 L101.331696,16.8859432 Z M96.2867128,23.0809811 L93.4335986,23.0809811 L93.4335986,13.1125972 C93.4335986,12.6720543 93.6702768,12.4520417 94.1431142,12.4520417 L101.710069,12.4520417 C102.371834,12.4520417 102.918374,12.5441881 103.349689,12.7274457 C103.780484,12.9107033 104.142768,13.154529 104.437059,13.4584053 C104.699689,13.731221 104.907301,14.0480391 105.059896,14.4098952 C105.211972,14.7712336 105.28827,15.1512083 105.28827,15.5493018 C105.28827,15.9794912 105.214567,16.3858674 105.067682,16.7679129 C104.920277,17.1509937 104.657647,17.4781654 104.279792,17.7504634 C104.636367,17.9606402 104.896401,18.2277614 105.059896,18.5528624 C105.222353,18.8779634 105.303841,19.3438725 105.303841,19.9521427 L105.303841,22.0746174 C105.303841,22.3055013 105.306436,22.4939356 105.312145,22.6404381 C105.317336,22.7874583 105.330311,22.9344785 105.351073,23.0809811 L102.466817,23.0809811 C102.435156,22.8500972 102.419585,22.6145543 102.419585,22.3733169 L102.419585,20.2508422 C102.419585,19.9153876 102.329792,19.6746679 102.151246,19.5271301 C101.97218,19.3806275 101.672699,19.3071174 101.252803,19.3071174 L96.2867128,19.3071174 L96.2867128,23.0809811 Z" id="Fill-16" fill="#828383"></path>
                <path d="M111.956626,15.266702 C111.472889,15.266702 111.073754,15.3293409 110.758183,15.4551364 C110.443131,15.5809318 110.170121,15.7486591 109.938633,15.9583182 C109.696765,16.189202 109.505242,16.4615 109.363547,16.7757298 C109.221332,17.0904773 109.150744,17.4259318 109.150744,17.7820934 C109.150744,18.1071944 109.208356,18.4141768 109.3241,18.7020051 C109.439325,18.990351 109.602301,19.2445303 109.812509,19.4645429 C110.043478,19.7161338 110.332578,19.9154394 110.67981,20.0619419 C111.026522,20.2089621 111.452128,20.2819545 111.956626,20.2819545 L114.194689,20.2819545 C114.699187,20.2819545 115.125311,20.2089621 115.472024,20.0619419 C115.818737,19.9154394 116.107837,19.7161338 116.338806,19.4645429 C116.549014,19.2445303 116.71199,18.990351 116.827734,18.7020051 C116.942958,18.4141768 117.00109,18.1071944 117.00109,17.7820934 C117.00109,17.4259318 116.929983,17.0904773 116.788287,16.7757298 C116.646073,16.4615 116.45455,16.189202 116.212682,15.9583182 C115.981713,15.7486591 115.708702,15.5809318 115.393131,15.4551364 C115.07808,15.3293409 114.678426,15.266702 114.194689,15.266702 L111.956626,15.266702 Z M111.956626,23.0810328 C111.000052,23.0810328 110.170121,22.9262475 109.465796,22.6171944 C108.76199,22.3076237 108.163028,21.8862348 107.668391,21.3514747 C107.237595,20.8798712 106.901782,20.3399343 106.659913,19.7316641 C106.418045,19.1239116 106.29763,18.4685328 106.29763,17.7665631 C106.29763,16.9905657 106.449706,16.2678889 106.754377,15.5969798 C107.059048,14.9260707 107.479464,14.344202 108.015623,13.8513737 C108.48846,13.4113485 109.047976,13.0681288 109.694689,12.8217146 C110.340882,12.5753005 111.094516,12.4520934 111.956626,12.4520934 L114.194689,12.4520934 C115.056799,12.4520934 115.810952,12.5753005 116.457145,12.8217146 C117.103339,13.0681288 117.662855,13.4113485 118.135692,13.8513737 C118.67237,14.344202 119.092266,14.9260707 119.397457,15.5969798 C119.702128,16.2678889 119.854204,16.9905657 119.854204,17.7665631 C119.854204,18.4685328 119.73327,19.1239116 119.49192,19.7316641 C119.250052,20.3399343 118.91372,20.8798712 118.482924,21.3514747 C117.988806,21.8862348 117.389844,22.3076237 116.685519,22.6171944 C115.981713,22.9262475 115.151263,23.0810328 114.194689,23.0810328 L111.956626,23.0810328 Z" id="Fill-18" fill="#828383"></path>
                <path d="M132.418339,12.4520934 L132.418339,15.266702 L124.504671,15.266702 C124.209862,15.266702 124.062976,15.4240758 124.062976,15.7383056 L124.062976,16.8859949 L132.371107,16.8859949 L132.371107,19.5271818 L124.062976,19.5271818 L124.062976,23.0810328 L121.209862,23.0810328 L121.209862,14.4016641 C121.209862,13.1022955 121.850865,12.4520934 123.132872,12.4520934 L132.418339,12.4520934 Z" id="Fill-20" fill="#828383"></path>
                <polygon id="Fill-22" fill="#828383" points="133.695156 23.0810328 136.56436 23.0810328 136.56436 12.4520934 133.695156 12.4520934"></polygon>
                <polygon id="Fill-24" fill="#828383" points="149.900657 12.4520934 149.900657 15.266702 145.234567 15.266702 145.234567 23.0810328 142.365363 23.0810328 142.365363 15.266702 137.683702 15.266702 137.683702 12.4520934"></polygon>
            </g>
        </g>
    </g>
</svg>