<?xml version="1.0" encoding="UTF-8"?>
<svg width="208px" height="60px" viewBox="0 0 208 60" version="1.1" xmlns="http://www.w3.org/2000/svg" xmlns:xlink="http://www.w3.org/1999/xlink">
    <!-- Generator: Sketch 47.1 (45422) - http://www.bohemiancoding.com/sketch -->
    <title>lextools-logo</title>
    <desc>Created with Sketch.</desc>
    <defs></defs>
    <g id="Page-1" stroke="none" stroke-width="1" fill="none" fill-rule="evenodd">
        <g id="2-1-projects" transform="translate(-616.000000, -501.000000)">
            <g id="lextools-logo" transform="translate(616.000000, 501.000000)">
                <path d="M6.51158857,48.2917778 L6.51084571,48.291037 C6.51010286,48.2925185 6.50936,48.294 6.50787429,48.2954815 L6.51158857,48.2917778 L6.51158857,48.2917778 Z" id="Fill-1" fill="#1C69FF"></path>
                <path d="M59.6014343,25.8645926 C58.9336057,20.6734815 56.90932,15.6438519 53.5025771,11.3105185 C51.7412629,13.8727407 51.29332,17.229037 52.6044629,20.2994074 C53.8955486,23.3231111 56.5839486,25.3186667 59.6014343,25.8645926" id="Fill-3" fill="#7A1CB7"></path>
                <path d="M20.63984,7.27274074 C23.7836114,5.93792593 25.81384,3.14237037 26.2706971,0.000148148148 C20.7980686,0.688296296 15.7354971,2.64681481 11.3452114,6.15125926 C13.9348114,8.00681481 17.4916114,8.60977778 20.63984,7.27274074" id="Fill-5" fill="#1C69FF"></path>
                <path d="M53.5255314,48.0794815 C56.99096,43.5965185 59.0939886,38.3905926 59.66376,33.0298519 C56.4613029,33.5039259 53.5299886,35.6017037 52.2337029,38.8128148 C50.9322171,42.0357778 51.5287314,45.5224444 53.5255314,48.0794815" id="Fill-7" fill="#AF009A"></path>
                <path d="M0.0773314286,25.966963 C3.21961714,25.4506667 6.02613143,23.3699259 7.30310286,20.2084444 C8.55778857,17.101037 8.06750286,13.7691852 6.23784571,11.2388148 C2.77836,15.6284444 0.716931429,20.7047407 0.0773314286,25.966963" id="Fill-9" fill="#64C8D4"></path>
                <path d="M48.2964857,6.11614815 C43.9686,2.76133333 38.9506,0.675407407 33.7387143,0.0420740741 C34.3144286,3.08948148 36.3795714,5.79022222 39.4780286,7.03466667 C42.5408286,8.2642963 45.7737429,7.8642963 48.2964857,6.11614815" id="Fill-11" fill="#50BA0C"></path>
                <path d="M8.00101714,38.5294815 C6.56878857,35.1754074 3.41164571,33.088 -0.000297142857,32.8405926 C0.577645714,38.3635556 2.71856,43.8665185 6.42764571,48.4154074 C8.65770286,45.788 9.44587429,41.9124444 8.00101714,38.5294815" id="Fill-13" fill="#FF7843"></path>
                <path d="M20.67936,51.790963 C17.3870171,50.4687407 13.8183314,51.1042963 11.2435886,53.185037 C15.9117029,56.8294815 21.0649029,58.8746667 26.4951886,59.4139259 C26.0494743,56.1798519 23.9338171,53.0976296 20.67936,51.790963" id="Fill-16" fill="#DD4545"></path>
                <path d="M39.2057714,51.5412593 C35.8770286,52.9545926 33.7888571,56.0523704 33.5050857,59.4138519 C39.0512571,58.6768148 44.3500571,56.6064444 48.7997714,52.899037 C46.1864,50.8908889 42.4572571,50.1605185 39.2057714,51.5412593" id="Fill-19" fill="#FFAE00"></path>
                <polygon id="Fill-22" fill="#4A5773" points="83.1116 40.3981481 85.5786286 40.3981481 85.5786286 17.0781481 83.1116 17.0781481"></polygon>
                <path d="M92.7862743,31.1659259 L103.454446,31.1659259 C103.305131,29.5688889 102.775474,28.2437037 101.868446,27.1896296 C100.960674,26.1348148 99.7267886,25.6081481 98.1682743,25.6081481 C96.7590743,25.6081481 95.5511886,26.1296296 94.5483314,27.1733333 C93.5439886,28.217037 92.9563886,29.5481481 92.7862743,31.1659259 L92.7862743,31.1659259 Z M92.7862743,33.1466667 C92.9563886,34.8296296 93.5915314,36.1659259 94.6924457,37.1562963 C95.7918743,38.1466667 97.0993029,38.6414815 98.6162171,38.6414815 C100.602617,38.6414815 102.343131,37.8644444 103.838503,36.3096296 L105.376217,37.682963 C103.518331,39.7488889 101.243703,40.7822222 98.5530743,40.7822222 C96.22496,40.7822222 94.2653029,39.9777778 92.6741029,38.3696296 C91.08216,36.7622222 90.2873029,34.6911111 90.2873029,32.1562963 C90.2873029,29.7503704 91.0450171,27.7111111 92.5626743,26.0385185 C94.0781029,24.3674074 95.9679314,23.5311111 98.23216,23.5311111 C100.602617,23.5311111 102.482046,24.3622222 103.870446,26.022963 C105.258846,27.6837037 105.953417,29.7718519 105.953417,32.2844444 C105.953417,32.6037037 105.942274,32.8911111 105.920731,33.1466667 L92.7862743,33.1466667 Z" id="Fill-24" fill="#4A5773"></path>
                <polygon id="Fill-25" fill="#4A5773" points="107.811229 40.3983704 114.314943 31.9968889 108.067514 23.8828148 110.885914 23.8828148 115.788029 30.2717037 120.6894 23.8828148 123.444657 23.8828148 117.165286 31.9331852 123.701686 40.3983704 120.849857 40.3983704 115.724886 33.6583704 110.566486 40.3983704"></polygon>
                <path d="M142.857891,40.6860741 C141.426406,40.6860741 140.289834,40.3082963 139.446691,39.552 C138.602063,38.7964444 138.18012,37.6194074 138.18012,36.0216296 L138.18012,26.054963 L135.874291,26.054963 L135.874291,23.8831111 L138.18012,23.8831111 L138.18012,18.8994074 L140.647891,18.8994074 L140.647891,23.8831111 L145.90212,23.8831111 L145.90212,26.054963 L140.647891,26.054963 L140.647891,35.7031111 C140.647891,37.5342222 141.576463,38.4497778 143.435091,38.4497778 C144.246291,38.4497778 145.047834,38.2579259 145.837491,37.8742222 L145.837491,39.9831111 C144.94012,40.4512593 143.94692,40.6860741 142.857891,40.6860741" id="Fill-26" fill="#4A5773"></path>
                <path d="M157.402811,38.5771852 C159.174526,38.5771852 160.632754,37.9601481 161.775269,36.7245926 C162.917783,35.4897778 163.489783,33.9675556 163.489783,32.1564444 C163.489783,30.3675556 162.896983,28.8453333 161.711383,27.589037 C160.525783,26.332 159.068297,25.7038519 157.338183,25.7038519 C155.565726,25.7038519 154.112697,26.3260741 152.981326,27.572 C151.848469,28.8179259 151.283897,30.3468148 151.283897,32.1564444 C151.283897,33.9453333 151.870754,35.4631111 153.045211,36.709037 C154.219669,37.954963 155.672697,38.5771852 157.402811,38.5771852 M163.520983,38.2423704 C161.855497,39.9357037 159.794069,40.7816296 157.338183,40.7816296 C154.882297,40.7816296 152.837211,39.9408889 151.203669,38.2579259 C149.569383,36.5757037 148.75224,34.5416296 148.75224,32.1564444 C148.75224,29.7927407 149.580526,27.7638519 151.235611,26.0712593 C152.890697,24.3779259 154.946926,23.5312593 157.402811,23.5312593 C159.857954,23.5312593 161.90824,24.3734815 163.553669,26.054963 C165.197611,27.7371852 166.019954,29.7712593 166.019954,32.1564444 C166.019954,34.5208889 165.187954,36.549037 163.520983,38.2423704" id="Fill-27" fill="#4A5773"></path>
                <path d="M177.457577,38.5771852 C179.229291,38.5771852 180.68752,37.9601481 181.830034,36.7245926 C182.972549,35.4897778 183.544549,33.9675556 183.544549,32.1564444 C183.544549,30.3675556 182.951749,28.8453333 181.766149,27.589037 C180.580549,26.332 179.123063,25.7038519 177.392949,25.7038519 C175.620491,25.7038519 174.167463,26.3260741 173.036091,27.572 C171.903234,28.8179259 171.338663,30.3468148 171.338663,32.1564444 C171.338663,33.9453333 171.92552,35.4631111 173.099977,36.709037 C174.274434,37.954963 175.727463,38.5771852 177.457577,38.5771852 M183.575749,38.2423704 C181.910263,39.9357037 179.848834,40.7816296 177.392949,40.7816296 C174.937063,40.7816296 172.891977,39.9408889 171.258434,38.2579259 C169.624149,36.5757037 168.807006,34.5416296 168.807006,32.1564444 C168.807006,29.7927407 169.635291,27.7638519 171.290377,26.0712593 C172.945463,24.3779259 175.001691,23.5312593 177.457577,23.5312593 C179.91272,23.5312593 181.963006,24.3734815 183.608434,26.054963 C185.252377,27.7371852 186.07472,29.7712593 186.07472,32.1564444 C186.07472,34.5208889 185.24272,36.549037 183.575749,38.2423704" id="Fill-28" fill="#4A5773"></path>
                <polygon id="Fill-29" fill="#4A5773" points="189.470914 40.3981481 191.9372 40.3981481 191.9372 17.0781481 189.470914 17.0781481"></polygon>
                <path d="M201.868309,40.7175556 C200.671566,40.7175556 199.459966,40.499037 198.232023,40.0627407 C197.00408,39.6264444 195.931394,39.0353333 195.011737,38.2901481 L196.261966,36.5331111 C198.141394,37.939037 200.052023,38.642 201.99608,38.642 C203.000423,38.642 203.822766,38.3975556 204.463109,37.9064444 C205.104194,37.4168148 205.425109,36.7679259 205.425109,35.9582963 C205.425109,35.2131111 205.076709,34.6375556 204.38288,34.2331111 C203.689051,33.8286667 202.657966,33.4345926 201.291109,33.0508889 C200.459109,32.8175556 199.79648,32.6034815 199.304709,32.4116296 C198.81368,32.2205185 198.258766,31.9486667 197.639966,31.5975556 C197.01968,31.2464444 196.561337,30.799037 196.261966,30.2560741 C195.962594,29.7123704 195.81328,29.0686667 195.81328,28.3227407 C195.81328,26.9175556 196.342937,25.7782963 197.398537,24.9057037 C198.457109,24.0323704 199.80688,23.5953333 201.452309,23.5953333 C203.586537,23.5953333 205.572937,24.202 207.410766,25.4160741 L206.289051,27.2686667 C204.644366,26.204963 203.010823,25.6716296 201.38768,25.6716296 C200.426423,25.6716296 199.651623,25.9012593 199.065509,26.359037 C198.477166,26.8168148 198.183737,27.4079259 198.183737,28.1308889 C198.183737,28.4301481 198.269166,28.7064444 198.440766,28.962 C198.61088,29.2175556 198.80328,29.4301481 199.017223,29.6012593 C199.231166,29.7716296 199.566937,29.9523704 200.026023,30.1442222 C200.485851,30.3360741 200.853566,30.4745926 201.131394,30.559037 C201.40848,30.644963 201.846023,30.7834815 202.445509,30.9745926 C203.235166,31.2094074 203.885909,31.4331111 204.39848,31.6457037 C204.911794,31.8582963 205.456309,32.1464444 206.033509,32.5079259 C206.609966,32.8701481 207.042309,33.3227407 207.33128,33.8657037 C207.618766,34.4086667 207.76288,35.0427407 207.76288,35.7664444 C207.76288,37.2997778 207.207223,38.5086667 206.096651,39.3923704 C204.986823,40.2760741 203.577623,40.7175556 201.868309,40.7175556" id="Fill-30" fill="#4A5773"></path>
            </g>
        </g>
    </g>
</svg>