<?xml version="1.0" encoding="UTF-8"?>
<svg width="80px" height="69px" viewBox="0 0 80 69" version="1.1" xmlns="http://www.w3.org/2000/svg" xmlns:xlink="http://www.w3.org/1999/xlink">
    <!-- Generator: Sketch 47.1 (45422) - http://www.bohemiancoding.com/sketch -->
    <title>lion</title>
    <desc>Created with Sketch.</desc>
    <defs></defs>
    <g id="Page-1" stroke="none" stroke-width="1" fill="none" fill-rule="evenodd">
        <g id="1-1-home" transform="translate(-888.000000, -2461.000000)" fill-rule="nonzero" fill="#D1D1D1">
            <g id="lion" transform="translate(888.000000, 2461.000000)">
                <path d="M25.2150973,5.63439689 C24.0146304,4.46412451 22.3380545,4.21416342 20.4940078,4.93011673 C19.2957198,5.39533074 18.4102724,6.11035019 18.3133074,6.19050584 C17.7568872,6.64949416 17.6737743,7.4711284 18.1270039,8.03190661 L21.6845136,12.4337743 C21.9081712,12.7106615 22.2347082,12.8851362 22.5892607,12.9170428 C22.6287938,12.9207782 22.6681712,12.9223346 22.707393,12.9223346 C23.021323,12.9223346 23.3262257,12.8099611 23.56607,12.6035798 C23.8298833,12.3761868 26.1450584,10.317821 26.2141634,8.06988327 C26.2428016,7.14132296 25.8971206,6.29914397 25.2150973,5.63439689 Z M22.7870817,9.61291829 L21.105214,7.53214008 C21.8412451,7.17821012 22.7766537,6.93136187 23.378677,7.5181323 C23.5557977,7.69089494 23.5891051,7.83066148 23.5847471,7.987393 C23.5716732,8.45011673 23.2189883,9.06225681 22.7870817,9.61291829 Z" id="Shape"></path>
                <path d="M11.1458366,11.406537 C10.3058366,11.406537 9.62225681,12.0888716 9.62225681,12.9276265 C9.62241245,13.76607 10.3058366,14.4484047 11.1458366,14.4484047 C11.9859922,14.4484047 12.6692607,13.76607 12.6692607,12.9276265 C12.6692607,12.0890272 11.9858366,11.406537 11.1458366,11.406537 Z" id="Shape"></path>
                <path d="M76.6784436,46.6871595 C76.4782879,46.0753307 76.250428,45.4628794 76.0107393,44.8267704 C75.28,42.8862257 74.5242023,40.88 74.3526848,38.2233463 C73.968249,32.2650584 71.1055253,27.3027237 66.07393,23.8722179 C62.5875486,21.4954086 59.2207004,20.6384436 58.6423346,20.5033463 C55.0700389,19.2943191 52.1595331,19.6577432 49.1050584,20.0404669 C45.4709728,20.4960311 41.7170428,20.9657588 35.8908949,19.1025681 C35.27393,16.5106615 34.139144,14.2264591 32.5181323,12.32607 C32.903035,12.3259144 33.2684825,12.1570428 33.5182879,11.8639689 C33.768249,11.5707393 33.8770428,11.1828794 33.8160311,10.8024903 C33.8010895,10.7086381 33.4298833,8.4770428 31.8905837,6.0848249 C30.4589883,3.85961089 27.7109728,1.05105058 22.7484825,0.306770428 C17.2099611,-0.524202335 12.5480156,0.414785992 9.62163424,2.95035019 C7.53276265,4.76 6.38241245,7.33167315 6.27392996,10.4129183 C4.91501946,11.7620233 3.4018677,13.3240467 2.17696498,14.7422568 C2.15470817,14.7662257 2.13307393,14.7911284 2.11237354,14.8171206 C1.39330739,15.6535409 0.777431907,16.4371984 0.361089494,17.0916732 C0.108793774,17.4885603 0.0871595331,17.9897276 0.304902724,18.4066926 C0.355642023,18.5039689 1.0088716,19.7397665 2.06287938,21.1382101 C2.07859922,21.1606226 2.09494163,21.1825681 2.11237354,21.2040467 C3.08607004,22.4851362 4.3911284,23.8893385 5.8770428,24.6750195 C5.87750973,24.6751751 5.8781323,24.6753307 5.87859922,24.675642 C5.92326848,24.699144 5.96980545,24.7201556 6.01789883,24.738677 C6.03050584,24.7436576 6.04342412,24.7470817 6.05618677,24.7515953 C6.08202335,24.7607782 6.107393,24.770428 6.13400778,24.7778988 L9.17867704,25.6389105 C8.97774319,26.2370428 8.75533074,27.0032685 8.56715953,27.9058366 C8.41883268,28.616965 8.87486381,29.3137743 9.58614786,29.4621012 C9.67688716,29.4810895 9.76715953,29.4901167 9.85618677,29.4901167 C10.4659922,29.4899611 11.0129183,29.0636576 11.1424125,28.4431128 C11.5399222,26.5377432 12.1067704,25.3562646 12.1108171,25.3477043 C12.2831128,24.9975097 12.2908949,24.5886381 12.1319844,24.2322179 C11.9730739,23.875642 11.6641245,23.6079377 11.2884047,23.5017899 L9.02879377,22.8627237 C10.3442802,21.7251362 12.4894942,20.1635798 15.3833463,19.021323 C17.1164202,18.3371206 18.2110506,16.9814786 18.4655253,15.2042023 C18.8292607,12.6631907 17.4073152,9.5092607 15.084358,7.70521401 C13.4814008,6.46023346 11.7501946,6.1259144 10.2098054,6.7629572 C10.0670817,6.82210117 9.93587549,6.90568093 9.82210117,7.01042802 C9.80046693,7.03019455 9.74054475,7.08544747 9.6536965,7.16622568 C10.0574319,6.30941634 10.6211673,5.5648249 11.3441245,4.93883268 C13.6804669,2.91455253 17.5922179,2.19377432 22.3584436,2.90848249 C27.8090272,3.72607004 29.9785214,7.52466926 30.7844358,9.69571984 L29.1959533,9.69571984 C28.6291051,9.69571984 28.1262257,10.058677 27.9477043,10.5967315 C27.7691829,11.1346304 27.9551751,11.726537 28.4096498,12.0653696 C31.6034241,14.4473152 33.3982879,17.9119066 33.7445914,22.3632685 C33.8536965,23.7674708 33.7950195,25.0583658 33.6873152,26.0949416 C32.8541634,25.4599222 32.0963424,25.0697276 31.9503502,24.9967315 C31.4672374,24.7548638 30.8856031,24.833463 30.4837354,25.1942412 C30.0817121,25.5550195 29.9411673,26.1249805 30.1293385,26.6311284 C30.4705058,27.5494163 30.4401556,28.753463 30.0392218,30.2096498 C29.8463813,30.9098833 30.2578988,31.6340856 30.9581323,31.8269261 C31.0748638,31.8589883 31.1923735,31.8743969 31.3080156,31.8743969 C31.8851362,31.8743969 32.414786,31.4913619 32.5754086,30.9077043 C32.7629572,30.2269261 32.8871595,29.5750973 32.9486381,28.9545525 C33.1237354,29.1463035 33.2745525,29.345214 33.3842802,29.5466148 C33.6412451,30.0174319 34.157821,30.284358 34.6905837,30.2231907 C35.2231907,30.1614008 35.6650584,29.7822568 35.8071595,29.2653696 C35.8420233,29.1385214 36.6583658,26.1140856 36.3741634,22.2499611 C36.3676265,22.1612451 36.357821,22.0740856 36.3501946,21.9859922 C42.0373541,23.5764981 45.9444358,23.0880934 49.4323735,22.6510506 C52.395642,22.2793774 54.8272374,21.9757198 57.8393774,23.0079377 C57.8561868,23.0138521 57.8728405,23.0202335 57.8901167,23.0255253 C58.3842802,23.1970428 58.8935409,23.4031128 59.4242802,23.6521401 C67.3632685,27.378677 65.6963424,38.4091829 64.9962646,41.7010117 C64.7951751,42.6470039 64.7089494,43.5603113 64.7329183,44.4932296 C64.751284,45.2079377 65.3363424,45.7746304 66.0471595,45.7746304 C66.0585214,45.7746304 66.0701946,45.7744747 66.0815564,45.7741634 C66.8077821,45.7553307 67.381323,45.151751 67.3626459,44.4255253 C67.3441245,43.7019455 67.4115175,42.989572 67.5691829,42.248249 C68.0045136,40.2009339 68.6361089,36.1444358 67.9754086,31.9783658 C67.7333852,30.4522957 67.3324514,29.0524514 66.7827237,27.7872374 C69.7920623,30.5831907 71.4533852,34.139144 71.7279377,38.3928405 C71.9245136,41.4407782 72.7877043,43.7322957 73.5492607,45.7543969 C73.7375875,46.2541634 73.9175097,46.7368093 74.0789105,47.2066926 C73.0090272,47.87393 72.2930739,49.0583658 72.2930739,50.4094942 C72.2930739,51.3028794 72.7108171,53.2070039 73.2647471,54.8392218 C74.1755642,57.5228016 75.1523735,58.7195331 76.431284,58.7195331 C78.1508171,58.7195331 78.8532296,56.5740078 79.2731518,54.7045914 C79.6306615,53.1123735 79.8445136,51.2703502 79.8445136,50.4094942 C79.8442023,48.5352529 78.4705058,46.9802335 76.6784436,46.6871595 Z M11.4045136,9.13058366 C12.1990661,8.92466926 13.0283268,9.43922179 13.4706615,9.78272374 C15.0157198,10.9825681 16.0880934,13.2474708 15.861323,14.8311284 C15.7414786,15.6678599 15.2692607,16.237821 14.4172763,16.5740078 C10.3035019,18.1979767 7.55844358,20.5500389 6.28684825,21.808716 C5.76498054,21.4003113 5.26272374,20.8893385 4.8029572,20.351751 C5.42801556,19.3721401 5.68575875,18.3792996 5.56762646,17.389572 C5.48140078,16.6664591 5.20544747,16.0785992 4.90163424,15.627393 C7.32575875,12.9553307 10.5746304,9.90287938 11.4045136,9.13058366 Z M76.3316732,55.4535409 C75.6658366,54.0684825 74.9232685,51.3161089 74.9232685,50.4090272 C74.9232685,49.7777432 75.4368872,49.2638132 76.0684825,49.2638132 C76.7000778,49.2638132 77.2136965,49.7775875 77.2136965,50.4090272 C77.2135409,51.9743191 76.7444358,54.2387549 76.3316732,55.4535409 Z" id="Shape"></path>
                <path d="M69.3360311,54.8325292 C68.9940856,52.3033463 68.5123735,50.3313619 68.1252918,48.7470817 L68.1115953,48.6913619 C67.9392996,47.9856809 67.2277043,47.5540856 66.5218677,47.7256031 C65.8161868,47.8980545 65.3838132,48.6098054 65.5562646,49.3153307 L65.5699611,49.3712062 C65.9617121,50.9750973 66.4057588,52.7928405 66.7290272,55.1853696 C67.3850584,60.0404669 63.8459144,64.7545525 62.6851362,66.1511284 L56.2949416,66.1511284 C56.9819455,65.0417121 58.4390661,64.2333074 60.1947082,63.3536187 C61.6049805,62.6471595 62.8228794,62.0368872 63.330428,61.0221012 C64.0098054,59.6633463 65.0365759,55.9744747 59.9122179,51.0829572 C56.3880156,47.7189105 54.7976654,41.7053696 54.7822568,41.6459144 C54.6550973,41.1525292 54.254786,40.7772763 53.7543969,40.6820233 C53.2538521,40.5867704 52.7435019,40.7889494 52.444358,41.2012451 C52.4136965,41.2435798 52.3799222,41.2854475 52.3455253,41.3271595 C51.8309728,41.9377432 50.4529183,42.9774319 46.7702724,44.0952529 C46.753463,44.1003891 46.7368093,44.1053696 46.7196887,44.1105058 C46.6649027,44.1270039 46.6079377,44.1436576 46.5523735,44.1601556 C42.8829572,45.2404669 38.1228016,46.0801556 33.7698054,46.63393 C33.7624903,46.6337743 33.7551751,46.6328405 33.7477043,46.6328405 C33.6281712,46.6328405 33.5128405,46.6502724 33.4028016,46.6801556 C32.0057588,46.8538521 30.6563424,46.9973541 29.4034241,47.1094163 L29.7880156,44.3402335 C29.8879377,43.6207004 29.3856809,42.9564202 28.6661479,42.8566537 C27.9464591,42.7559533 27.2823346,43.2589883 27.1824125,43.9785214 L24.1027237,66.1514397 L17.0091829,66.1514397 C18.1388327,64.2663035 20.6032685,63.6074708 20.6297276,63.6006226 C21.221323,63.452607 21.6333074,62.9176654 21.6258366,62.3083268 L21.4192996,45.6649027 C22.1581323,44.6563424 23.9803891,42.0056031 24.7195331,39.4578988 C24.7923735,39.5869261 24.8403113,39.726537 24.8521401,39.8759533 C24.8936965,40.4102724 25.2552529,40.8658366 25.7662257,41.027393 C26.2768872,41.1892607 26.8350195,41.0250584 27.1766537,40.6124514 C27.2680156,40.5021012 29.4315953,37.8743969 31.0929183,34.6116732 C31.4224125,33.964358 31.1649805,33.1724514 30.5176654,32.8426459 C29.8705058,32.5133074 29.0784436,32.7705837 28.7486381,33.4178988 C27.9796109,34.928249 27.0759533,36.3123735 26.366537,37.3164202 C25.6611673,36.583035 24.76607,36.1147082 24.1271595,35.9003891 C23.7049027,35.7587549 23.2398444,35.8403113 22.8907393,36.1171984 C22.5419455,36.3940856 22.3568872,36.8286381 22.3992218,37.2720623 C22.5484825,38.8376654 21.0038911,41.656965 19.6877821,43.5629572 C15.1760311,41.0480934 13.72607,36.1214008 13.7120623,36.0719066 C13.5797665,35.5982879 13.1945525,35.237821 12.7129961,35.1377432 C12.231751,35.0379767 11.7344747,35.2146304 11.4242802,35.5959533 L11.1400778,35.9458366 C10.8796887,34.715642 10.7491051,33.4603891 10.751284,32.1929961 C10.7523735,31.4664591 10.1645136,30.8768872 9.4381323,30.875642 C9.43735409,30.875642 9.43673152,30.875642 9.43610895,30.875642 C8.71081712,30.875642 8.12202335,31.4633463 8.12077821,32.1887938 C8.1170428,34.579144 8.52389105,36.9310506 9.32996109,39.1797665 C9.49027237,39.6266148 9.87875486,39.9525292 10.3467704,40.0323735 C10.8144747,40.1115953 11.2896498,39.9336965 11.5889494,39.5651362 L12.0607004,38.9842802 C13.0894942,41.0826459 15.1344747,44.1850584 18.793463,46.0680156 L18.9838132,61.3900389 C18.490428,61.5886381 17.8670817,61.882179 17.2303502,62.2938521 C15.3058366,63.5389883 14.1477043,65.2683268 13.8812451,67.294786 C13.831751,67.6701946 13.9466148,68.0488716 14.1964202,68.3335409 C14.4462257,68.6183658 14.806537,68.7816342 15.1853696,68.7816342 L25.2479377,68.7816342 L30.7313619,68.7816342 C31.3455253,68.7816342 31.8779767,68.3567315 32.0140078,67.757821 L35.0297276,54.486537 C35.0515175,54.3908171 35.0625681,54.2932296 35.0625681,54.1950195 L35.0625681,49.1031907 C36.5140856,48.9094163 38.0963424,48.6747082 39.7067704,48.3947082 C41.2631907,48.1240467 42.6978988,47.8390661 44.0146304,47.5389883 C43.6574319,49.8214786 43.6006226,53.3229572 45.997821,55.3081712 C47.4498054,56.5103502 48.2828016,57.3459922 48.7403891,57.8571206 L46.0224125,61.4371984 C44.5425681,61.9982879 39.7957977,64.0048249 38.7035019,67.0172763 C38.5571984,67.4207004 38.6168093,67.869572 38.863035,68.2207004 C39.1092607,68.5718288 39.511284,68.780856 39.9400778,68.780856 L48.5587549,68.780856 C48.9553307,68.780856 49.3305837,68.6018677 49.5805447,68.2940078 L57.4935409,58.5350973 C57.5657588,58.4457588 57.6261479,58.3478599 57.6729961,58.2428016 L59.397821,54.378677 C61.0943191,56.4415564 61.6866926,58.4107393 60.9831907,59.8337743 C60.7844358,60.1150195 59.7214008,60.6479377 59.0164981,61.0009339 C56.7752529,62.1238911 53.3880156,63.8207004 53.2442023,67.4132296 C53.2298833,67.7710506 53.3620233,68.1189105 53.6099611,68.3771206 C53.8578988,68.6353307 54.2004669,68.7811673 54.5584436,68.7811673 L63.2848249,68.7811673 C63.6477821,68.7811673 63.9947082,68.631284 64.2432685,68.3666926 C64.305214,68.3007004 65.7741634,66.7263813 67.1332296,64.3098833 C68.9705837,61.0428016 69.7321401,57.7656031 69.3360311,54.8325292 Z M29.6815564,66.1514397 L26.7585992,66.1514397 L29.0323735,49.7789883 C29.7637354,49.7137743 30.9562646,49.5993774 32.4320623,49.4301946 L32.4320623,54.0479377 L32.4320623,54.0479377 L29.6815564,66.1514397 Z M55.340856,57.0135409 L47.9316732,66.1511284 L42.7189105,66.1511284 C43.1841245,65.7989105 43.7414786,65.4429572 44.3805447,65.0922957 C45.8627237,64.2784436 47.2564981,63.787393 47.2697276,63.7825681 C47.5142412,63.6975875 47.7279377,63.5419455 47.884358,63.3358755 L51.4428016,58.6485603 C51.7456809,58.2496498 51.795642,57.7131518 51.5716732,57.2650584 C51.4203891,56.9623346 50.6922957,55.7810117 47.6757977,53.2828016 C46.0031128,51.8975875 46.3943969,48.5989105 46.8308171,46.8238132 C48.4838911,46.3531518 49.8877821,45.8494942 51.048249,45.3106615 C51.0491829,45.3101946 51.0501167,45.3097276 51.0510506,45.3092607 C51.1529961,45.2619455 51.2530739,45.2141634 51.3511284,45.166537 C51.3923735,45.1466148 51.4325292,45.1263813 51.4729961,45.1061479 C51.5291829,45.0782879 51.5849027,45.0502724 51.6398444,45.0221012 C51.6971206,44.9926848 51.7536187,44.9631128 51.8096498,44.9336965 C51.8445136,44.9153307 51.8790661,44.8966537 51.913463,44.8782879 C51.9803891,44.842179 52.0466926,44.8059144 52.1115953,44.7694942 C52.1299611,44.7592218 52.1483268,44.7487938 52.166537,44.7382101 C52.4163424,44.5967315 52.6524514,44.4530739 52.871751,44.3067704 C52.8796887,44.3285603 52.888716,44.3525292 52.8968093,44.3744747 C52.9388327,44.4905837 52.9822568,44.608716 53.0284825,44.7316732 C53.0491829,44.7867704 53.0722179,44.8449805 53.0936965,44.901323 C53.1299611,44.9962646 53.1662257,45.0907393 53.2051362,45.1889494 C53.2311284,45.2544747 53.2589883,45.3226459 53.2859144,45.389572 C53.3234241,45.4831128 53.3609339,45.5761868 53.4007782,45.6720623 C53.4303502,45.7438132 53.4617899,45.816965 53.492607,45.8901167 C53.5329183,45.9853696 53.5733852,46.0804669 53.6157198,46.1777432 C53.6488716,46.2536965 53.6831128,46.330428 53.7175097,46.4076265 C53.7607782,46.5049027 53.8048249,46.6024903 53.8502724,46.7014786 C53.8866926,46.780856 53.9238911,46.8605447 53.9617121,46.940856 C54.0085603,47.0404669 54.0561868,47.1405447 54.105214,47.2414008 C54.1444358,47.3226459 54.1841245,47.4035798 54.2247471,47.4854475 C54.275642,47.5880156 54.3279377,47.6910506 54.3810117,47.7943969 C54.4228794,47.8761089 54.4645914,47.9576654 54.5078599,48.0396887 C54.5634241,48.1458366 54.6211673,48.2521401 54.6790661,48.3584436 C54.7228016,48.4389105 54.76607,48.5190661 54.8108949,48.6 C54.8728405,48.7109728 54.936965,48.8221012 55.0014008,48.9332296 C55.0457588,49.0101167 55.0890272,49.086537 55.1346304,49.1632685 C55.2068482,49.2849805 55.282179,49.4063813 55.3571984,49.5279377 C55.397821,49.59393 55.4371984,49.6597665 55.4789105,49.7256031 C55.589572,49.9003891 55.7035019,50.0745525 55.8205447,50.2479377 C55.8286381,50.2599222 55.8359533,50.2719066 55.8440467,50.2838911 C55.9688716,50.4680156 56.0977432,50.6507393 56.2298833,50.8319066 C56.2733074,50.8915175 56.3190661,50.9497276 56.3632685,51.0088716 C56.4536965,51.1301167 56.5444358,51.2510506 56.6382879,51.3702724 C56.6933852,51.44 56.7505058,51.5083268 56.8066926,51.5774319 C56.8930739,51.6838911 56.9796109,51.7901946 57.0689494,51.8944747 C57.1308949,51.9668482 57.1947082,52.037821 57.2578988,52.1091051 C57.3184436,52.1772763 57.3771206,52.2473152 57.4389105,52.3147082 L55.340856,57.0135409 Z" id="Shape"></path>
            </g>
        </g>
    </g>
</svg>