<?xml version="1.0" encoding="UTF-8"?>
<svg width="300px" height="300px" viewBox="0 0 300 300" version="1.1" xmlns="http://www.w3.org/2000/svg" xmlns:xlink="http://www.w3.org/1999/xlink">
    <!-- Generator: Sketch 47.1 (45422) - http://www.bohemiancoding.com/sketch -->
    <title>live-relax</title>
    <desc>Created with Sketch.</desc>
    <defs>
        <circle id="path-1" cx="150" cy="150" r="150"></circle>
        <filter x="-5.2%" y="-5.2%" width="110.3%" height="110.3%" filterUnits="objectBoundingBox" id="filter-3">
            <feGaussianBlur stdDeviation="15" in="SourceAlpha" result="shadowBlurInner1"></feGaussianBlur>
            <feOffset dx="0" dy="1" in="shadowBlurInner1" result="shadowOffsetInner1"></feOffset>
            <feComposite in="shadowOffsetInner1" in2="SourceAlpha" operator="arithmetic" k2="-1" k3="1" result="shadowInnerInner1"></feComposite>
            <feColorMatrix values="0 0 0 0 0   0 0 0 0 0   0 0 0 0 0  0 0 0 0.1 0" type="matrix" in="shadowInnerInner1"></feColorMatrix>
        </filter>
    </defs>
    <g id="Page-1" stroke="none" stroke-width="1" fill="none" fill-rule="evenodd">
        <g id="1-1-home" transform="translate(-247.000000, -3243.000000)">
            <g id="live-relax" transform="translate(247.000000, 3243.000000)">
                <mask id="mask-2" fill="white">
                    <use xlink:href="#path-1"></use>
                </mask>
                <g id="Mask">
                    <use fill="#F8F8F8" fill-rule="evenodd" xlink:href="#path-1"></use>
                    <use fill="black" fill-opacity="1" filter="url(#filter-3)" xlink:href="#path-1"></use>
                </g>
                <g id="sun-umbrella" mask="url(#mask-2)">
                    <g transform="translate(39.000000, 64.000000)">
                        <path d="M112.436123,169.6163 L151.485022,71.6418502 C153.118943,67.5422907 157.76696,65.5431718 161.86652,67.1770925 C165.966079,68.8110132 167.965198,73.4590308 166.331278,77.5585903 L129.039207,171.12511 L112.436123,169.6163 Z" id="Shape" fill="#90A4AE" fill-rule="nonzero"></path>
                        <path d="M127.828634,84.3570507 C127.833134,84.3465507 127.837634,84.3360507 127.842134,84.3255507 C127.837634,84.3260507 127.833134,84.3270507 127.829134,84.3275507 L127.828634,84.3570507 Z" id="Shape" fill="#FFF9C5" fill-rule="nonzero"></path>
                        <path d="M161.867401,67.1770925 C157.767841,65.5431718 153.119824,67.5418502 151.485903,71.6418502 L141.260793,97.2969163 C143.866079,97.7132159 146.457269,98.4242291 149.00837,99.4414097 C151.559471,100.45815 153.939207,101.723789 156.110132,103.205727 L166.332159,77.5590308 C167.965639,73.4585903 165.96696,68.8110132 161.867401,67.1770925 Z" id="Shape" fill="#000000" fill-rule="nonzero" opacity="0.1"></path>
                        <path d="M176.007048,31.7008811 L146.542731,34.8678414 L127.828634,56.6629956 L127.831718,84.3207048 L127.844934,84.3154185 C127.843612,84.3185022 127.842291,84.3220264 127.840529,84.3251101 C136.013216,82.807489 145.112775,83.6035242 153.920705,87.1140969 C162.672687,90.6022026 169.787665,96.2348018 174.673568,102.901322 L174.759031,103.057269 L190.151982,87.8167401 L191.869163,49.7867841 L176.007048,31.7008811 Z" id="Shape" fill="#FFF9C5" fill-rule="nonzero"></path>
                        <path d="M203.353304,186.845374 C192.630837,169.705727 156.315419,157.092511 113.165639,157.092511 C70.0171806,157.092511 33.7030837,169.704846 22.9792952,186.843612 L29.0035242,186.845374 L42.0770925,195.229515 L55.8237885,196.723789 L65.5118943,191.126432 L80.8898678,185.517621 L89.1422907,187.75859 L106.698678,196.723789 L118.278414,194.855947 L133.219824,189.281057 L144.052423,185.891189 L157.873128,189.281057 L169.079295,196.723789 L187.009251,194.482819 L203.353304,186.845374 Z" id="Shape" fill="#FFCA28" fill-rule="nonzero"></path>
                        <path d="M188.267841,193.894714 L203.353744,186.845374 C192.631278,169.706167 156.315859,157.092511 113.166079,157.092511 C103.244934,157.092511 93.6872247,157.760793 84.7171806,158.995595 C129.229075,164.100441 166.45815,176.901762 188.267841,193.894714 Z" id="Shape" fill="#000000" fill-rule="nonzero" opacity="0.1"></path>
                        <path d="M224.095154,188.685463 C213.499119,181.499119 199.805286,181.499119 189.209251,188.685463 C180.87533,194.337445 170.105727,194.337445 161.770925,188.685463 C151.17489,181.499119 137.481057,181.499119 126.885022,188.685463 C118.551101,194.337445 107.781057,194.337445 99.446696,188.685463 C88.8506608,181.499119 75.1568282,181.499119 64.560793,188.685463 C56.2264317,194.337445 45.4568282,194.337445 37.122467,188.685463 C26.5264317,181.499119 12.8325991,181.499119 2.23656388,188.685463 C0.720264317,189.713656 1.93521906,184.535122 1.35286344,193.292952 C0.770507813,202.050781 81.3239847,242.58537 82.8398437,241.557617 C91.1737645,235.905635 135.329701,235.905635 143.664062,241.557617 C145.180803,242.586252 223.950661,194.809251 224.978855,193.292952 C226.007048,191.777093 225.611454,189.714097 224.095154,188.685463 Z" id="Shape" fill="#1EB8E8" fill-rule="nonzero"></path>
                        <g id="Group" stroke-width="1" fill="none" fill-rule="evenodd" transform="translate(80.616740, 26.431718)">
                            <path d="M47.214978,57.8894273 C42.3259912,51.1674009 35.1735683,45.4859031 26.3660793,41.9753304 C17.554185,38.4629956 8.44933921,37.6678414 0.274449339,39.1881057 C0.274449339,39.1881057 39.9422907,-16.8299559 95.3907489,5.26960352 C95.3907489,5.26960352 66.3127753,13.0471366 47.2123348,57.9220264 L47.214978,57.8894273 Z" id="Shape" fill="#EF495B" fill-rule="nonzero"></path>
                            <path d="M94.1625551,76.6008811 C102.335242,75.084141 111.434802,75.8801762 120.242731,79.3907489 C129.054626,82.9030837 136.210573,88.5881057 141.098238,95.314978 C141.098238,95.314978 150.838326,27.3687225 95.3898678,5.26872247 C95.3898678,5.26872247 111.146256,30.9154185 94.1427313,76.6255507 L94.1625551,76.6008811 Z" id="Shape" fill="#EF495B" fill-rule="nonzero"></path>
                        </g>
                        <circle id="Oval" fill="#FFCA28" fill-rule="nonzero" cx="37.7511013" cy="38.1872247" r="18.0726872"></circle>
                        <g id="Group" stroke-width="1" fill="none" fill-rule="evenodd">
                            <path d="M37.7515419,13.7414097 C35.9193833,13.7414097 34.4343612,12.2559471 34.4343612,10.4242291 L34.4343612,3.75110132 C34.4343612,1.91894273 35.9198238,0.433920705 37.7515419,0.433920705 C39.5832599,0.433920705 41.0687225,1.91938326 41.0687225,3.75110132 L41.0687225,10.4242291 C41.0687225,12.2563877 39.5832599,13.7414097 37.7515419,13.7414097 Z" id="Shape" fill="#FF9800" fill-rule="nonzero"></path>
                            <path d="M57.3810573,21.8726872 C56.5321586,21.8726872 55.6832599,21.5488987 55.0356828,20.9008811 C53.7400881,19.6052863 53.7400881,17.5048458 55.0356828,16.2092511 L59.754185,11.4907489 C61.0497797,10.1951542 63.1502203,10.1951542 64.4453744,11.4907489 C65.7409692,12.7863436 65.7409692,14.8867841 64.4453744,16.1823789 L59.7268722,20.9008811 C59.0788546,21.5488987 58.2299559,21.8726872 57.3810573,21.8726872 Z" id="Shape" fill="#FF9800" fill-rule="nonzero"></path>
                            <path d="M72.185022,41.5026432 L65.5123348,41.5026432 C63.6801762,41.5026432 62.1951542,40.0171806 62.1951542,38.1854626 C62.1951542,36.3537445 63.6806167,34.8682819 65.5123348,34.8682819 L72.185022,34.8682819 C74.0171806,34.8682819 75.5022026,36.3537445 75.5022026,38.1854626 C75.5022026,40.0171806 74.0171806,41.5026432 72.185022,41.5026432 Z" id="Shape" fill="#FF9800" fill-rule="nonzero"></path>
                            <path d="M62.0995595,65.8511013 C61.2506608,65.8511013 60.4013216,65.5273128 59.754185,64.8792952 L55.0356828,60.160793 C53.7400881,58.8651982 53.7400881,56.7647577 55.0356828,55.469163 C56.3312775,54.1735683 58.4317181,54.1735683 59.7268722,55.469163 L64.4453744,60.1876652 C65.7409692,61.4832599 65.7409692,63.5837004 64.4453744,64.8792952 C63.7973568,65.5268722 62.9488987,65.8511013 62.0995595,65.8511013 Z" id="Shape" fill="#FF9800" fill-rule="nonzero"></path>
                            <path d="M37.7515419,75.9361233 C35.9193833,75.9361233 34.4343612,74.4506608 34.4343612,72.6189427 L34.4343612,65.945815 C34.4343612,64.1136564 35.9198238,62.6286344 37.7515419,62.6286344 C39.5832599,62.6286344 41.0687225,64.1140969 41.0687225,65.945815 L41.0687225,72.6189427 C41.0687225,74.4515419 39.5832599,75.9361233 37.7515419,75.9361233 Z" id="Shape" fill="#FF9800" fill-rule="nonzero"></path>
                            <path d="M13.4026432,65.8511013 C12.5537445,65.8511013 11.7048458,65.5273128 11.0572687,64.8792952 C9.76167401,63.5837004 9.76167401,61.4832599 11.0572687,60.1876652 L15.7753304,55.469163 C17.0709251,54.1735683 19.1713656,54.1735683 20.4665198,55.469163 C21.7621145,56.7647577 21.7621145,58.8651982 20.4665198,60.160793 L15.7484581,64.8792952 C15.1008811,65.5268722 14.2519824,65.8511013 13.4026432,65.8511013 Z" id="Shape" fill="#FF9800" fill-rule="nonzero"></path>
                            <path d="M9.99030837,41.5026432 L3.31718062,41.5026432 C1.48502203,41.5026432 0,40.0171806 0,38.1854626 C0,36.3537445 1.48546256,34.8682819 3.31718062,34.8682819 L9.99030837,34.8682819 C11.822467,34.8682819 13.307489,36.3537445 13.307489,38.1854626 C13.307489,40.0171806 11.822467,41.5026432 9.99030837,41.5026432 Z" id="Shape" fill="#FF9800" fill-rule="nonzero"></path>
                            <path d="M18.1211454,21.8726872 C17.2722467,21.8726872 16.423348,21.5488987 15.7757709,20.9008811 L11.0572687,16.1828194 C9.76167401,14.8872247 9.76167401,12.7867841 11.0572687,11.4911894 C12.3528634,10.1955947 14.453304,10.1955947 15.7484581,11.4911894 L20.4665198,16.2096916 C21.7621145,17.5052863 21.7621145,19.6057269 20.4665198,20.9013216 C19.8193833,21.5488987 18.9700441,21.8726872 18.1211454,21.8726872 Z" id="Shape" fill="#FF9800" fill-rule="nonzero"></path>
                        </g>
                    </g>
                </g>
            </g>
        </g>
    </g>
</svg>