<?xml version="1.0" encoding="UTF-8"?>
<svg width="76px" height="65px" viewBox="0 0 76 65" version="1.1" xmlns="http://www.w3.org/2000/svg" xmlns:xlink="http://www.w3.org/1999/xlink">
    <!-- Generator: Sketch 47.1 (45422) - http://www.bohemiancoding.com/sketch -->
    <title>livingroom</title>
    <desc>Created with Sketch.</desc>
    <defs></defs>
    <g id="Page-1" stroke="none" stroke-width="1" fill="none" fill-rule="evenodd">
        <g id="2-8-chisinau-apartments-inculet" transform="translate(-244.000000, -1996.000000)" fill-rule="nonzero">
            <g id="Group-4" transform="translate(236.000000, 1996.000000)">
                <g id="livingroom" transform="translate(8.000000, 0.000000)">
                    <path d="M11.6708229,31.2032419 L37.605985,31.2032419 L37.605985,59.7319202 L9.07730673,59.7319202 L9.07730673,33.7967581 C9.07730673,32.3644988 10.2385637,31.2032419 11.6708229,31.2032419 Z" id="Shape" fill="#D9B693"></path>
                    <path d="M37.605985,31.2032419 L63.5411471,31.2032419 C64.9734064,31.2032419 66.1346633,32.3644988 66.1346633,33.7967581 L66.1346633,59.7319202 L37.605985,59.7319202 L37.605985,31.2032419 Z" id="Shape" fill="#D9B693"></path>
                    <path d="M11.6708229,49.3578554 C10.2385637,49.3578554 9.07730673,50.5191123 9.07730673,51.9513716 L9.07730673,59.7319202 L37.605985,59.7319202 L37.605985,49.3578554 L11.6708229,49.3578554 Z" id="Shape" fill="#CBA47C"></path>
                    <path d="M66.1346633,51.9513716 C66.1346633,50.5191123 64.9734064,49.3578554 63.5411471,49.3578554 L37.605985,49.3578554 L37.605985,59.7319202 L66.1346633,59.7319202 L66.1346633,51.9513716 Z" id="Shape" fill="#CBA47C"></path>
                    <path d="M2.59351621,41.5773067 L9.07730673,41.5773067 L9.07730673,59.7319202 L0,59.7319202 L0,44.1708229 C0,42.7385637 1.16125693,41.5773067 2.59351621,41.5773067 Z" id="Shape" fill="#B7926B"></path>
                    <path d="M66.1346633,41.5773067 L72.6184539,41.5773067 C74.0507131,41.5773067 75.2119701,42.7385637 75.2119701,44.1708229 L75.2119701,59.7319202 L66.1346633,59.7319202 L66.1346633,41.5773067 Z" id="Shape" fill="#B7926B"></path>
                    <polygon id="Shape" fill="#995023" points="11.6708229 64.9189526 7.78054863 64.9189526 9.07730673 59.7319202 15.5610973 59.7319202"></polygon>
                    <polygon id="Shape" fill="#995023" points="63.5411471 64.9189526 67.4314214 64.9189526 66.1346633 59.7319202 59.6508728 59.7319202"></polygon>
                    <polygon id="Shape" fill="#B7926B" points="16.8578554 41.5773067 19.4513716 41.5773067 19.4513716 44.1708229 16.8578554 44.1708229"></polygon>
                    <polygon id="Shape" fill="#B7926B" points="27.2306539 41.5773067 29.8241701 41.5773067 29.8241701 44.1708229 27.2306539 44.1708229"></polygon>
                    <polygon id="Shape" fill="#B7926B" points="45.3865337 41.5773067 47.9800499 41.5773067 47.9800499 44.1708229 45.3865337 44.1708229"></polygon>
                    <polygon id="Shape" fill="#B7926B" points="55.7605985 41.5773067 58.3541147 41.5773067 58.3541147 44.1708229 55.7605985 44.1708229"></polygon>
                    <g id="Group" transform="translate(16.857855, 38.902743)" fill="#CBA47C">
                        <polygon id="Shape" points="0 0.0810473815 2.59351621 0.0810473815 2.59351621 2.67456359 0 2.67456359"></polygon>
                        <polygon id="Shape" points="10.3727986 0.0810473815 12.9663148 0.0810473815 12.9663148 2.67456359 10.3727986 2.67456359"></polygon>
                        <polygon id="Shape" points="28.5286783 0.0810473815 31.1221945 0.0810473815 31.1221945 2.67456359 28.5286783 2.67456359"></polygon>
                        <polygon id="Shape" points="38.9027431 0.0810473815 41.4962594 0.0810473815 41.4962594 2.67456359 38.9027431 2.67456359"></polygon>
                    </g>
                    <polygon id="Shape" fill="#995023" points="7.78054863 11.7518703 67.4314214 11.7518703 67.4314214 16.9389027 7.78054863 16.9389027"></polygon>
                    <polygon id="Shape" fill="#995023" points="12.967581 16.9389027 18.1546135 16.9389027 18.1546135 23.4226933 12.967581 23.4226933"></polygon>
                    <polygon id="Shape" fill="#995023" points="57.0573566 16.9389027 62.244389 16.9389027 62.244389 23.4226933 57.0573566 23.4226933"></polygon>
                    <polygon id="Shape" fill="#7A3E1A" points="12.967581 16.9389027 18.1546135 16.9389027 18.1546135 19.532419 12.967581 19.532419"></polygon>
                    <polygon id="Shape" fill="#7A3E1A" points="57.0573566 16.9389027 62.244389 16.9389027 62.244389 19.532419 57.0573566 19.532419"></polygon>
                    <polygon id="Shape" fill="#88B337" points="28.5286783 0.0810473815 33.7157107 0.0810473815 33.7157107 11.7518703 28.5286783 11.7518703"></polygon>
                    <polygon id="Shape" fill="#4398D1" points="37.6591724 0.0810473815 33.7157107 1.96286627 37.5527977 11.7518703 41.4962594 9.87005143"></polygon>
                    <polygon id="Shape" fill="#4398D1" points="23.3416459 0.0810473815 28.5286783 0.0810473815 28.5286783 11.7518703 23.3416459 11.7518703"></polygon>
                    <polygon id="Shape" fill="#DD4A43" points="18.1546135 2.67456359 23.3416459 2.67456359 23.3416459 11.7518703 18.1546135 11.7518703"></polygon>
                    <polygon id="Shape" fill="#4398D1" points="12.967581 0.0810473815 18.1546135 0.0810473815 18.1546135 11.7518703 12.967581 11.7518703"></polygon>
                    <path d="M55.7605985,6.56483791 C56.5774041,4.93249307 56.5774041,3.01015032 55.7605985,1.37780549 L64.8379052,1.37780549 C66.2701645,1.37780549 67.4314214,2.53906242 67.4314214,3.9713217 C67.4314214,5.40358097 66.2701645,6.56483791 64.8379052,6.56483791 L55.7605985,6.56483791 Z" id="Shape" fill="#4398D1"></path>
                    <path d="M55.7605985,11.7518703 C56.5774041,10.1195255 56.5774041,8.19718274 55.7605985,6.56483791 L64.8379052,6.56483791 C66.2701645,6.56483791 67.4314214,7.72609484 67.4314214,9.15835411 C67.4314214,10.5906134 66.2701645,11.7518703 64.8379052,11.7518703 L55.7605985,11.7518703 Z" id="Shape" fill="#DD4A43"></path>
                    <polygon id="Shape" fill="#B7926B" points="36.3092269 31.2032419 38.9027431 31.2032419 38.9027431 49.3578554 36.3092269 49.3578554"></polygon>
                    <polygon id="Shape" fill="#A5815C" points="36.3092269 49.3578554 38.9027431 49.3578554 38.9027431 59.7319202 36.3092269 59.7319202"></polygon>
                    <polygon id="Shape" fill="#7A3E1A" points="15.5610973 59.7319202 9.07730673 59.7319202 8.42892768 62.3254364 13.6159601 62.3254364"></polygon>
                    <polygon id="Shape" fill="#7A3E1A" points="66.1346633 59.7319202 59.6508728 59.7319202 61.59601 62.3254364 66.7830424 62.3254364"></polygon>
                </g>
            </g>
        </g>
    </g>
</svg>