<?xml version="1.0" encoding="UTF-8"?>
<svg width="93px" height="84px" viewBox="0 0 93 84" version="1.1" xmlns="http://www.w3.org/2000/svg" xmlns:xlink="http://www.w3.org/1999/xlink">
    <!-- Generator: Sketch 47.1 (45422) - http://www.bohemiancoding.com/sketch -->
    <title>loft-feature-2</title>
    <desc>Created with Sketch.</desc>
    <defs>
        <linearGradient x1="0%" y1="50%" x2="99.981075%" y2="50%" id="linearGradient-1">
            <stop stop-color="#F47C22" offset="0%"></stop>
            <stop stop-color="#FFCD02" offset="100%"></stop>
        </linearGradient>
        <polygon id="path-2" points="1 58.8672 64.719 58.8672 64.719 50.9172 1 50.9172"></polygon>
        <filter x="-43.2%" y="-220.1%" width="186.3%" height="791.8%" filterUnits="objectBoundingBox" id="filter-3">
            <feOffset dx="0" dy="10" in="SourceAlpha" result="shadowOffsetOuter1"></feOffset>
            <feGaussianBlur stdDeviation="7.5" in="shadowOffsetOuter1" result="shadowBlurOuter1"></feGaussianBlur>
            <feColorMatrix values="0 0 0 0 1   0 0 0 0 0.792156863   0 0 0 0 0.0156862745  0 0 0 0.2 0" type="matrix" in="shadowBlurOuter1"></feColorMatrix>
        </filter>
    </defs>
    <g id="Page-1" stroke="none" stroke-width="1" fill="none" fill-rule="evenodd">
        <g id="3-1-apartments-main-1170" transform="translate(-673.000000, -1311.000000)">
            <g id="loft-feature-2" transform="translate(687.000000, 1311.000000)">
                <polygon id="Fill-1" fill="#D8E9F3" points="3.5 51.0922 61.189 51.0922 61.189 1.0002 3.5 1.0002"></polygon>
                <path d="M4.5,50.0932 L60.188,50.0932 L60.188,2.0002 L4.5,2.0002 L4.5,50.0932 Z M61.188,52.0932 L3.5,52.0932 C2.948,52.0932 2.5,51.6452 2.5,51.0932 L2.5,1.0002 C2.5,0.4472 2.948,0.0002 3.5,0.0002 L61.188,0.0002 C61.741,0.0002 62.188,0.4472 62.188,1.0002 L62.188,51.0932 C62.188,51.6452 61.741,52.0932 61.188,52.0932 L61.188,52.0932 Z" id="Fill-2" fill="#322F31"></path>
                <path d="M32.3442,52.0928 C31.7922,52.0928 31.3442,51.6458 31.3442,51.0928 L31.3442,1.8678 C31.3442,1.3158 31.7922,0.8678 32.3442,0.8678 C32.8962,0.8678 33.3442,1.3158 33.3442,1.8678 L33.3442,51.0928 C33.3442,51.6458 32.8962,52.0928 32.3442,52.0928" id="Fill-4" fill="#322F31"></path>
                <path d="M60.689,26.8447 L4,26.8447 C3.447,26.8447 3,26.3977 3,25.8447 C3,25.2917 3.447,24.8447 4,24.8447 L60.689,24.8447 C61.241,24.8447 61.689,25.2917 61.689,25.8447 C61.689,26.3977 61.241,26.8447 60.689,26.8447" id="Fill-5" fill="#322F31"></path>
                <path d="M42.5156,14.3057 C42.2596,14.3057 42.0036,14.2077 41.8086,14.0127 C41.4176,13.6217 41.4176,12.9897 41.8086,12.5987 L47.4656,6.9427 C47.8566,6.5517 48.4896,6.5517 48.8796,6.9427 C49.2706,7.3327 49.2706,7.9657 48.8796,8.3567 L43.2226,14.0127 C43.0276,14.2077 42.7716,14.3057 42.5156,14.3057" id="Fill-6" fill="#FFFFFF"></path>
                <path d="M43.6743,18.8526 C43.4183,18.8526 43.1623,18.7546 42.9673,18.5596 C42.5763,18.1686 42.5763,17.5366 42.9673,17.1456 L48.6243,11.4886 C49.0143,11.0976 49.6473,11.0976 50.0383,11.4886 C50.4283,11.8786 50.4283,12.5116 50.0383,12.9026 L44.3813,18.5596 C44.1863,18.7546 43.9303,18.8526 43.6743,18.8526" id="Fill-7" fill="#FFFFFF"></path>
                <path d="M14.333,39.5264 C14.077,39.5264 13.821,39.4284 13.626,39.2334 C13.235,38.8424 13.235,38.2104 13.626,37.8194 L19.283,32.1624 C19.673,31.7714 20.306,31.7714 20.697,32.1624 C21.087,32.5524 21.087,33.1854 20.697,33.5764 L15.04,39.2334 C14.845,39.4284 14.589,39.5264 14.333,39.5264" id="Fill-8" fill="#FFFFFF"></path>
                <path d="M15.4917,44.0723 C15.2357,44.0723 14.9797,43.9743 14.7847,43.7793 C14.3937,43.3883 14.3937,42.7563 14.7847,42.3653 L20.4417,36.7093 C20.8317,36.3183 21.4647,36.3183 21.8557,36.7093 C22.2457,37.0993 22.2457,37.7323 21.8557,38.1233 L16.1987,43.7793 C16.0037,43.9743 15.7477,44.0723 15.4917,44.0723" id="Fill-9" fill="#FFFFFF"></path>
                <g id="Fill-10">
                    <use fill="black" fill-opacity="1" filter="url(#filter-3)" xlink:href="#path-2"></use>
                    <use fill="url(#linearGradient-1)" fill-rule="evenodd" xlink:href="#path-2"></use>
                </g>
                <path d="M2,57.8672 L63.719,57.8672 L63.719,51.9172 L2,51.9172 L2,57.8672 Z M64.719,59.8672 L1,59.8672 C0.448,59.8672 0,59.4202 0,58.8672 L0,50.9172 C0,50.3642 0.448,49.9172 1,49.9172 L64.719,49.9172 C65.271,49.9172 65.719,50.3642 65.719,50.9172 L65.719,58.8672 C65.719,59.4202 65.271,59.8672 64.719,59.8672 L64.719,59.8672 Z" id="Fill-11" fill="#322F31"></path>
            </g>
        </g>
    </g>
</svg>