<?xml version="1.0" encoding="UTF-8"?>
<svg width="380px" height="133px" viewBox="0 0 380 133" version="1.1" xmlns="http://www.w3.org/2000/svg" xmlns:xlink="http://www.w3.org/1999/xlink">
    <!-- Generator: Sketch 47.1 (45422) - http://www.bohemiancoding.com/sketch -->
    <title>loft-vector</title>
    <desc>Created with Sketch.</desc>
    <defs></defs>
    <g id="Page-1" stroke="none" stroke-width="1" fill="none" fill-rule="evenodd">
        <g id="3-1-apartments-main-1170" transform="translate(-803.000000, -939.000000)" fill="#C9C9C9">
            <g id="loft-vector" transform="translate(803.000000, 939.000000)">
                <path d="M360.313834,46.5490446 C357.651126,46.5490446 354.261808,46.972283 352.691675,47.9171958 L352.384876,48.101985 L345.271097,71.8872049 L376.09629,71.8872049 L368.957358,48.0174084 L368.543568,47.8514534 C367.046061,47.250533 364.186025,46.5490446 361.053199,46.5490446 L360.313834,46.5490446 Z M348.73127,131.833905 C347.766588,131.833905 347.190896,131.256439 347.190896,130.288783 C347.190896,129.321482 347.766588,128.744015 348.73127,128.744015 L359.266606,128.744015 L359.266606,75.2247831 L352.489386,75.2247831 L352.489386,82.4102422 L353.000246,82.6664596 C354.150566,83.2432153 354.954055,84.6305562 354.954055,86.0395742 C354.954055,88.2549131 353.157188,90.0566083 350.949366,90.0566083 C348.74119,90.0566083 346.944677,88.2549131 346.944677,86.0395742 C346.944677,84.6305562 347.747811,83.2432153 348.898132,82.6664596 L349.408992,82.4102422 L349.408992,75.2247831 L343.309494,75.2247831 C342.574734,75.2247831 342.271123,74.8960715 342.106741,74.6487382 C341.595527,73.8786645 341.641936,73.471062 341.721647,73.2315467 L349.901784,46.3788252 L349.901784,46.2402333 C349.915601,46.1876394 350.007003,46.0266595 350.353127,45.6773368 C352.50214,43.7541071 356.481321,43.2256809 360.100562,42.9648438 L361.759617,42.9648438 C366.151879,43.2828945 369.568477,44.2214107 371.419547,45.6144374 C371.533268,45.819127 371.643801,45.9857927 371.74406,46.1368224 C371.845736,46.2896289 371.935013,46.4239564 372.021809,46.5881346 L379.844486,72.8260765 C379.843069,73.4348149 379.821458,73.9280601 379.506865,74.4014049 C379.342837,74.6487382 379.038872,74.9774498 378.304112,74.9774498 L377.380171,74.9774498 L377.380171,75.2247831 L362.100781,75.2247831 L362.100781,128.744015 L372.635762,128.744015 C373.600445,128.744015 374.176136,129.321482 374.176136,130.288783 C374.176136,131.256439 373.600445,131.833905 372.635762,131.833905 L348.73127,131.833905 Z" id="Fill-1"></path>
                <path d="M15.4551938,40.2989147 L21.5740568,40.2989147 L21.5740568,13.4710078 L15.4551938,13.4710078 L15.4551938,40.2989147 Z M41.6021705,10.354522 C42.5923514,10.354522 43.1604134,10.922584 43.1604134,11.9127649 L43.1604134,40.2989147 L58.2343152,40.2989147 L58.2343152,3.11648579 L6.06108527,3.11648579 C5.32020672,3.11648579 4.58966408,3.52289406 4.20144703,4.15173127 C3.90997416,4.6230491 3.83472868,5.17870801 3.98149871,5.69385013 L3.98149871,40.2989147 L12.3391214,40.2989147 L12.3391214,11.9127649 C12.3391214,10.922584 12.9071835,10.354522 13.8969509,10.354522 L41.6021705,10.354522 Z M61.3503876,40.2989147 L115.883928,40.2989147 L115.883928,5.47638243 C115.883928,4.24103359 114.758966,3.11648579 113.524031,3.11648579 L61.3503876,3.11648579 L61.3503876,40.2989147 Z M24.6905426,40.5783979 L30.8094057,40.5783979 L30.8094057,13.750491 L24.6905426,13.750491 L24.6905426,40.5783979 Z M33.9250646,40.5783979 L40.0439276,40.5783979 L40.0439276,13.750491 L33.9250646,13.750491 L33.9250646,40.5783979 Z M3.70160207,80.3171059 L58.2343152,80.3171059 L58.2343152,43.4149871 L3.70160207,43.4149871 L3.70160207,80.3171059 Z M61.3503876,80.5970026 L70.5481137,80.5970026 L70.5481137,52.2112661 C70.5481137,51.2210853 71.1161757,50.6530233 72.1059432,50.6530233 L100.091473,50.6530233 C100.84062,50.6530233 101.649302,51.2487855 101.649302,52.2112661 L101.649302,80.3171059 L115.883928,80.3171059 L115.883928,43.4149871 L61.3503876,43.4149871 L61.3503876,80.5970026 Z M73.664186,80.5970026 L79.7830491,80.5970026 L79.7830491,53.769509 L73.664186,53.769509 L73.664186,80.5970026 Z M82.8995349,80.5970026 L89.0183979,80.5970026 L89.0183979,53.769509 L82.8995349,53.769509 L82.8995349,80.5970026 Z M92.1340568,80.5970026 L98.2529199,80.5970026 L98.2529199,53.769509 L92.1340568,53.769509 L92.1340568,80.5970026 Z M73.664186,117.537571 L79.7830491,117.537571 L79.7830491,90.7100775 L73.664186,90.7100775 L73.664186,117.537571 Z M100.091473,87.5935917 C101.08124,87.5935917 101.649302,88.1616537 101.649302,89.1518346 L101.649302,117.537571 L113.524031,117.537571 C114.359173,117.537571 115.072351,117.190284 115.431214,116.609406 C115.685891,116.196796 115.744186,115.709767 115.603618,115.233488 L115.603618,83.7134884 L61.3503876,83.7134884 L61.3503876,117.537571 L70.5481137,117.537571 L70.5481137,89.1518346 C70.5481137,88.1616537 71.1161757,87.5935917 72.1059432,87.5935917 L100.091473,87.5935917 Z M3.70160207,115.177674 C3.70160207,116.783876 4.87576227,117.370956 5.50625323,117.686408 L5.76837209,117.817468 L58.2343152,117.817468 L58.2343152,83.7134884 L3.70160207,83.7134884 L3.70160207,115.177674 Z M82.8995349,117.817468 L89.0183979,117.817468 L89.0183979,90.9899742 L82.8995349,90.9899742 L82.8995349,117.817468 Z M92.1340568,117.817468 L98.2529199,117.817468 L98.2529199,90.9899742 L92.1340568,90.9899742 L92.1340568,117.817468 Z M12.097261,129.291163 L107.208372,129.291163 L107.208372,120.933953 L12.097261,120.933953 L12.097261,129.291163 Z M10.5386047,132.127752 C9.54883721,132.127752 8.98077519,131.560103 8.98077519,130.569509 L8.98077519,120.654057 L6.06108527,120.654057 C3.09260982,120.654057 0.585116279,118.14615 0.585116279,115.177674 L0.585116279,5.47638243 C0.585116279,2.50790698 3.09260982,0 6.06108527,0 L113.524031,0 C116.492093,0 119,2.50790698 119,5.47638243 L119,115.177674 C119,118.14615 116.492093,120.654057 113.524031,120.654057 L110.604341,120.654057 L110.604341,130.569509 C110.604341,131.560103 110.036279,132.127752 109.046512,132.127752 L10.5386047,132.127752 Z" id="Fill-13"></path>
                <path d="M241.364725,72.0477939 C234.641354,72.0477939 231.232197,75.4671058 231.232197,82.2112029 L231.232197,98.3447262 L276.721055,98.3447262 L276.721055,82.2112029 C276.721055,75.4671058 273.311897,72.0477939 266.588526,72.0477939 L241.364725,72.0477939 Z M290.395594,72.0477939 C283.672577,72.0477939 280.263773,75.4671058 280.263773,82.2112029 L280.263773,98.3447262 L325.752277,98.3447262 L325.752277,82.2112029 C325.752277,75.4671058 322.34312,72.0477939 315.620103,72.0477939 L290.395594,72.0477939 Z M225.492993,101.898366 C224.625027,101.898366 223.863697,102.662043 223.863697,103.53304 L223.863697,119.169054 C223.863697,120.039695 224.625027,120.803728 225.492993,120.803728 L331.774544,120.803728 C332.642865,120.803728 333.404549,120.039695 333.404549,119.169054 L333.404549,103.53304 C333.404549,102.662043 332.642865,101.898366 331.774544,101.898366 L225.492993,101.898366 Z M327.239865,132.885747 C326.130994,132.885747 325.468506,132.221572 325.468506,131.108927 L325.468506,124.357012 L231.232197,124.357012 L231.232197,131.108927 C231.232197,132.221572 230.570062,132.885747 229.460837,132.885747 C228.351967,132.885747 227.689478,132.221572 227.689478,131.108927 L227.689478,124.357012 L225.209575,124.357012 C222.405868,124.357012 220.037561,121.981049 220.037561,119.168698 L220.037561,103.532684 C220.037561,100.720334 222.405868,98.3443708 225.209575,98.3443708 L227.689478,98.3443708 L227.689478,82.2108475 C227.689478,73.6217008 232.801621,68.493799 241.364725,68.493799 L266.588526,68.493799 C271.666304,68.493799 275.282003,70.0279052 277.641807,73.1846032 L278.455924,74.2730829 L279.315033,73.2201396 C281.83674,70.1281178 285.668899,68.493799 290.395594,68.493799 L315.620103,68.493799 C324.182853,68.493799 329.294642,73.6217008 329.294642,82.2108475 L329.294642,98.3443708 L331.774544,98.3443708 C333.172147,98.3443708 334.513774,98.9328535 335.455429,99.9595 C336.343234,100.927511 336.774029,102.164889 336.667747,103.444199 L336.66385,103.488264 L336.66385,119.168698 C336.66385,121.981049 334.294834,124.357012 331.491127,124.357012 L329.011224,124.357012 L329.011224,131.108927 C329.011224,132.221572 328.34909,132.885747 327.239865,132.885747 L327.239865,132.885747 Z" id="Fill-3"></path>
                <path d="M243.065159,87.3994099 C242.088432,87.3994099 241.2938,86.6023286 241.2938,85.6225902 C241.2938,84.6428518 242.088432,83.8457704 243.065159,83.8457704 C244.041887,83.8457704 244.836519,84.6428518 244.836519,85.6225902 C244.836519,86.6023286 244.041887,87.3994099 243.065159,87.3994099" id="Fill-5"></path>
                <path d="M265.17151,87.3994099 C264.194782,87.3994099 263.40015,86.6023286 263.40015,85.6225902 C263.40015,84.6428518 264.194782,83.8457704 265.17151,83.8457704 C266.148237,83.8457704 266.942869,84.6428518 266.942869,85.6225902 C266.942869,86.6023286 266.148237,87.3994099 265.17151,87.3994099" id="Fill-7"></path>
                <path d="M291.812823,87.3994099 C290.836095,87.3994099 290.041464,86.6023286 290.041464,85.6225902 C290.041464,84.6428518 290.836095,83.8457704 291.812823,83.8457704 C292.78955,83.8457704 293.584182,84.6428518 293.584182,85.6225902 C293.584182,86.6023286 292.78955,87.3994099 291.812823,87.3994099" id="Fill-9"></path>
                <path d="M314.202874,87.3994099 C313.226146,87.3994099 312.431515,86.6023286 312.431515,85.6225902 C312.431515,84.6428518 313.226146,83.8457704 314.202874,83.8457704 C315.179601,83.8457704 315.974233,84.6428518 315.974233,85.6225902 C315.974233,86.6023286 315.179601,87.3994099 314.202874,87.3994099" id="Fill-11"></path>
                <g id="Page-1-Copy" transform="translate(134.664179, 22.000000)">
                    <path d="M71.5364096,83.6249675 C68.3399823,86.1707353 66.5067619,89.8973914 66.5067619,93.8515275 L66.5067619,94.3198685 L58.6219069,94.3198685 L58.6219069,77.3960324 C58.6219069,74.0256499 60.754531,71.0098685 63.9292138,69.8891954 C64.7772456,69.588119 65.6687661,69.4359082 66.5803584,69.4359082 C70.9710551,69.4359082 74.5421551,73.0070083 74.5421551,77.3960324 C74.5421551,79.8347508 73.4465718,82.1045319 71.5364096,83.6249675 L71.5364096,83.6249675 Z M5.70773852,83.6902007 C3.72230726,82.151366 2.59661625,79.8280602 2.62170594,77.317418 C2.66184945,73.0187168 6.19280597,69.4827423 10.4915072,69.4375809 C11.4332071,69.4258723 12.3581805,69.5780832 13.2346472,69.8891954 C16.4076574,71.0098685 18.5402816,74.0256499 18.5402816,77.3960324 L18.5402816,94.3198685 L10.6537539,94.3198685 L10.6537539,93.9970477 C10.6537539,89.9442255 8.80547962,86.0904483 5.70773852,83.6902007 L5.70773852,83.6902007 Z M24.7424544,84.5783759 L52.4180614,84.5783759 C54.3934568,84.5783759 56.00087,86.1841165 56.00087,88.1595118 L56.00087,94.3198685 L21.1613185,94.3198685 L21.1613185,88.1595118 C21.1613185,86.1841165 22.7687316,84.5783759 24.7424544,84.5783759 L24.7424544,84.5783759 Z M61.7413924,107.418362 L59.1303914,107.418362 L59.1303914,102.622885 L62.6128411,102.622885 L61.7413924,107.418362 Z M18.0334697,102.622885 L18.0334697,107.418362 L15.4224687,107.418362 L14.5493473,102.622885 L18.0334697,102.622885 Z M66.5803584,66.8148713 C65.9798783,66.8148713 65.3860888,66.8650507 64.8023352,66.9654095 L64.8023352,58.4984735 C64.8023352,51.6021525 61.0823697,45.1842083 55.0959683,41.7485926 C54.4687259,41.3889737 53.6675283,41.6064177 53.3062367,42.2336601 C52.9466177,42.8609025 53.1640617,43.6621001 53.7913041,44.0217191 C58.966472,46.992339 62.1812984,52.5388345 62.1812984,58.4984735 L62.1812984,67.7732977 C58.4496243,69.479397 56.00087,73.2344882 56.00087,77.3960324 L56.00087,83.1014292 C54.9872463,82.3821912 53.7511606,81.957339 52.4180614,81.957339 L47.174315,81.957339 L50.3205629,74.072484 C50.5881863,73.4000802 50.2620202,72.6373534 49.5896164,72.36973 C48.9172125,72.1021066 48.1544858,72.4282726 47.8868624,73.1006764 L44.3525606,81.957339 L39.8916127,81.957339 L39.8916127,61.2131786 C39.8916127,60.4889227 39.3045138,59.9018238 38.5802579,59.9018238 C37.8576747,59.9018238 37.2705758,60.4889227 37.2705758,61.2131786 L37.2705758,81.957339 L32.8096279,81.957339 L26.3247778,65.7059068 C26.0571544,65.0335029 25.2944277,64.7073369 24.6220238,64.9749603 C23.94962,65.2425837 23.6234539,66.0053105 23.8910774,66.6777143 L29.9878734,81.957339 L24.7424544,81.957339 C23.4093552,81.957339 22.1732695,82.3821912 21.1613185,83.0997565 L21.1613185,77.3960324 C21.1613185,72.9166853 18.3261828,68.907352 14.1077687,67.4186967 C12.9402615,67.005553 11.717557,66.8031628 10.4630722,66.816544 C4.74763949,66.8784319 0.0541937428,71.5768956 0.000669058553,77.2923283 C-0.0311112227,80.6292578 1.46423464,83.7152904 4.10199799,85.7609369 C6.56413347,87.6694264 8.03271699,90.7487684 8.03271699,93.9970477 L8.03271699,101.31153 C8.03271699,102.035786 8.61981587,102.622885 9.34407176,102.622885 L11.8864943,102.622885 L13.0389476,108.963888 C13.1526876,109.586112 13.6962976,110.039399 14.328558,110.039399 L19.3431518,110.039399 C20.0674077,110.039399 20.6545066,109.4523 20.6545066,108.729717 L20.6545066,102.622885 L49.9525807,102.622885 C50.6768365,102.622885 51.2639354,102.035786 51.2639354,101.31153 C51.2639354,100.588947 50.6768365,100.001848 49.9525807,100.001848 L10.6537539,100.001848 L10.6537539,96.9392327 L66.5067619,96.9392327 L66.5067619,100.001848 L54.321533,100.001848 C53.5972771,100.001848 53.0101782,100.588947 53.0101782,101.31153 C53.0101782,102.035786 53.5972771,102.622885 54.321533,102.622885 L56.5093545,102.622885 L56.5093545,108.729717 C56.5093545,109.4523 57.0964534,110.039399 57.8207092,110.039399 L62.8353031,110.039399 C63.4692361,110.039399 64.0111735,109.586112 64.1249135,108.963888 L65.2756942,102.622885 L67.816444,102.622885 C68.5406999,102.622885 69.1261261,102.035786 69.1261261,101.31153 L69.1261261,93.8515275 C69.1261261,90.7002617 70.5997276,87.7196058 73.1689125,85.675632 C75.706317,83.6550751 77.1615194,80.6376211 77.1615194,77.3960324 C77.1615194,71.5618418 72.4145489,66.8148713 66.5803584,66.8148713 L66.5803584,66.8148713 Z" id="Fill-20"></path>
                    <path d="M13.6705389,65.4535044 C14.3947948,65.4535044 14.980221,64.8664056 14.980221,64.1438223 L14.980221,58.4986408 C14.980221,49.302431 22.4619683,41.8206837 31.6581781,41.8206837 L45.5026722,41.8206837 C46.9578746,41.8206837 48.3996958,42.0080201 49.7913375,42.3760023 C50.4905037,42.561666 51.208069,42.1451771 51.3937328,41.4460109 C51.5793965,40.7468447 51.1629076,40.0292794 50.4620687,39.8436157 C48.8529829,39.4170908 47.1836818,39.1996468 45.5026722,39.1996468 L31.6581781,39.1996468 C21.0184745,39.1996468 12.3608568,47.8572645 12.3608568,58.4986408 L12.3608568,64.1438223 C12.3608568,64.8664056 12.946283,65.4535044 13.6705389,65.4535044" id="Fill-21"></path>
                    <path d="M50.8370761,65.7064086 L49.4554701,69.1687866 C49.1878467,69.8411904 49.5140128,70.6022445 50.1864166,70.8715406 C50.3469907,70.9351012 50.51091,70.9652088 50.6714841,70.9652088 C51.1933497,70.9652088 51.6851078,70.6524239 51.8891706,70.1389215 L53.2707765,66.6782161 C53.5400726,66.0058123 53.2122339,65.2430855 52.5398301,64.9754621 C51.8674262,64.706166 51.1046995,65.0340047 50.8370761,65.7064086" id="Fill-22"></path>
                    <path d="M66.7524737,79.0327168 C66.0298904,79.0327168 65.4427915,78.445618 65.4427915,77.7230347 C65.4427915,77.0004515 66.0298904,76.41168 66.7524737,76.41168 C67.4750569,76.41168 68.0621558,77.0004515 68.0621558,77.7230347 C68.0621558,78.445618 67.4750569,79.0327168 66.7524737,79.0327168 M66.7524737,73.7923157 C64.584724,73.7923157 62.8217547,75.555285 62.8217547,77.7230347 C62.8217547,79.8907844 64.584724,81.6537537 66.7524737,81.6537537 C68.9202234,81.6537537 70.6831927,79.8907844 70.6831927,77.7230347 C70.6831927,75.555285 68.9202234,73.7923157 66.7524737,73.7923157" id="Fill-23"></path>
                    <path d="M10.409882,79.0327168 C9.68729879,79.0327168 9.10019991,78.445618 9.10019991,77.7230347 C9.10019991,77.0004515 9.68729879,76.41168 10.409882,76.41168 C11.1324653,76.41168 11.7195642,77.0004515 11.7195642,77.7230347 C11.7195642,78.445618 11.1324653,79.0327168 10.409882,79.0327168 M14.340601,77.7230347 C14.340601,75.555285 12.5776317,73.7923157 10.409882,73.7923157 C8.24213232,73.7923157 6.47916303,75.555285 6.47916303,77.7230347 C6.47916303,79.8907844 8.24213232,81.6537537 10.409882,81.6537537 C12.5776317,81.6537537 14.340601,79.8907844 14.340601,77.7230347" id="Fill-24"></path>
                    <path d="M34.2193342,13.6931276 L36.0391735,8.74376693 L44.4157866,8.74376693 L46.1285765,13.6931276 L34.2193342,13.6931276 Z M40.2341706,2.52988562 C42.4972612,2.52988562 44.2133964,4.13228086 44.2552125,6.26992293 L36.216474,6.26992293 C36.2934158,4.16071584 38.0312954,2.52988562 40.2341706,2.52988562 L40.2341706,2.52988562 Z M49.0339633,14.5261055 L46.6136439,7.52942566 C46.7240386,7.0727932 46.7307292,6.60277956 46.7307292,6.35188261 C46.7307292,2.81925344 43.8771945,0.0526963261 40.2341706,0.0526963261 C36.5928195,0.0526963261 33.7392847,2.84768843 33.7392847,6.41711582 C33.7392847,6.84364064 33.7794282,7.20660491 33.8530247,7.51604449 L31.2838398,14.5026884 C31.1450102,14.8840518 31.2002075,15.3072313 31.4310327,15.6384153 C31.6635306,15.9695993 32.0415487,16.1669716 32.4463291,16.1669716 L47.8647834,16.1669716 C48.2628733,16.1669716 48.6392187,15.9746173 48.8717166,15.6484512 C49.1025418,15.3206125 49.1644297,14.9041236 49.0339633,14.5261055 L49.0339633,14.5261055 Z" id="Fill-27"></path>
                    <path d="M28.3831365,27.3031167 C28.172383,27.3031167 27.9599569,27.249592 27.76593,27.1375247 C27.1738131,26.7963048 26.9697503,26.038596 27.3126428,25.4464792 L29.2646211,22.0677335 C29.605841,21.473944 30.3635498,21.2715538 30.953994,21.6144463 C31.5461108,21.9556662 31.7501737,22.713375 31.4072811,23.3038192 L29.4553028,26.6842375 C29.2261503,27.0823274 28.811334,27.3031167 28.3831365,27.3031167" id="Fill-28"></path>
                    <path d="M51.370483,27.3031167 C50.9422855,27.3031167 50.5274692,27.0823274 50.2983167,26.6842375 L48.3463383,23.3038192 C48.0051185,22.7117024 48.2075087,21.9556662 48.7996255,21.6144463 C49.3900697,21.2715538 50.1461058,21.473944 50.4889983,22.0677335 L52.4409767,25.4464792 C52.7821965,26.0402687 52.5798063,26.7963048 51.9876895,27.1375247 C51.7936625,27.249592 51.5812364,27.3031167 51.370483,27.3031167" id="Fill-29"></path>
                    <path d="M40.2338361,27.3031167 C39.5497237,27.3031167 38.9960778,26.7494707 38.9960778,26.0653584 L38.9960778,22.353756 C38.9960778,21.6713163 39.5497237,21.1159977 40.2338361,21.1159977 C40.9179485,21.1159977 41.4715944,21.6713163 41.4715944,22.353756 L41.4715944,26.0653584 C41.4715944,26.7494707 40.9179485,27.3031167 40.2338361,27.3031167" id="Fill-30"></path>
                </g>
            </g>
        </g>
    </g>
</svg>