<?xml version="1.0" encoding="UTF-8"?>
<svg width="76px" height="75px" viewBox="0 0 76 75" version="1.1" xmlns="http://www.w3.org/2000/svg" xmlns:xlink="http://www.w3.org/1999/xlink">
    <!-- Generator: Sketch 47.1 (45422) - http://www.bohemiancoding.com/sketch -->
    <title>loft-feature-1</title>
    <desc>Created with Sketch.</desc>
    <defs>
        <linearGradient x1="0%" y1="50%" x2="99.981075%" y2="50%" id="linearGradient-1">
            <stop stop-color="#F47C22" offset="0%"></stop>
            <stop stop-color="#FFCD02" offset="100%"></stop>
        </linearGradient>
        <polyline id="path-2" points="57.7583 4.1467 57.7583 0.9997 12.5213 0.9997 12.5213 46.2367 57.7583 46.2367 57.7583 7.4787"></polyline>
        <filter x="-60.8%" y="-38.7%" width="221.6%" height="221.6%" filterUnits="objectBoundingBox" id="filter-3">
            <feOffset dx="0" dy="10" in="SourceAlpha" result="shadowOffsetOuter1"></feOffset>
            <feGaussianBlur stdDeviation="7.5" in="shadowOffsetOuter1" result="shadowBlurOuter1"></feGaussianBlur>
            <feColorMatrix values="0 0 0 0 1   0 0 0 0 0.792156863   0 0 0 0 0.0156862745  0 0 0 0.2 0" type="matrix" in="shadowBlurOuter1"></feColorMatrix>
        </filter>
    </defs>
    <g id="Page-1" stroke="none" stroke-width="1" fill="none" fill-rule="evenodd">
        <g id="3-1-apartments-main-1170" transform="translate(-391.000000, -1308.000000)">
            <g id="loft-feature-1" transform="translate(394.000000, 1312.000000)">
                <polygon id="Fill-1" fill="#322F31" points="7.6664 6.2975 4.3674 0.9995 1.0694 6.2975"></polygon>
                <polygon id="Fill-2" fill="#322F31" points="1.0691 40.9386 4.3681 46.2366 7.6661 40.9386"></polygon>
                <polygon id="Fill-3" fill="#322F31" points="52.461 57.6886 57.758 54.3896 52.461 51.0916"></polygon>
                <polygon id="Fill-4" fill="#322F31" points="12.5217 54.3901 17.8187 57.6891 17.8187 51.0921"></polygon>
                <g id="Fill-5">
                    <use fill="black" fill-opacity="1" filter="url(#filter-3)" xlink:href="#path-2"></use>
                    <use fill="url(#linearGradient-1)" fill-rule="evenodd" xlink:href="#path-2"></use>
                </g>
                <path d="M57.6891,5.1464 C58.2411,5.1464 58.6891,4.6984 58.6891,4.1464 L58.6891,0.9994 C58.6891,0.4474 58.2411,0.0004 57.6891,0.0004 L12.4521,0.0004 C11.9001,0.0004 11.4521,0.4474 11.4521,0.9994 L11.4521,46.2364 C11.4521,46.7884 11.9001,47.2364 12.4521,47.2364 L57.6891,47.2364 C58.2411,47.2364 58.6881,46.7884 58.6881,46.2364 L58.6881,7.4784 C58.6881,6.9264 58.2411,6.4794 57.6891,6.4794 C57.1371,6.4794 56.6891,6.9264 56.6891,7.4784 L56.6891,24.6054 L52.7191,24.6054 C52.1671,24.6054 51.7191,25.0534 51.7191,25.6054 C51.7191,26.1574 52.1671,26.6054 52.7191,26.6054 L56.6891,26.6054 L56.6891,45.2364 L28.1281,45.2364 L28.1281,40.4004 C28.1281,39.8474 27.6811,39.4004 27.1291,39.4004 C26.5771,39.4004 26.1291,39.8474 26.1291,40.4004 L26.1291,45.2364 L13.4521,45.2364 L13.4521,1.9994 L26.1291,1.9994 L26.1291,33.2024 C26.1291,33.7544 26.5771,34.2024 27.1291,34.2024 C27.6811,34.2024 28.1281,33.7544 28.1281,33.2024 L28.1281,26.6054 L45.9221,26.6054 C46.4741,26.6054 46.9211,26.1574 46.9211,25.6054 C46.9211,25.0534 46.4741,24.6054 45.9221,24.6054 L28.1281,24.6054 L28.1281,1.9994 L56.6891,1.9994 L56.6891,4.1464 C56.6891,4.6984 57.1371,5.1464 57.6891,5.1464" id="Fill-6" fill="#322F31"></path>
                <path d="M2.7996,5.2979 L4.2986,2.8909 L5.7966,5.2979 L2.7996,5.2979 Z M5.1466,0.4709 C4.9646,0.1779 4.6436,-0.0001 4.2986,-0.0001 C3.9536,-0.0001 3.6326,0.1779 3.4496,0.4709 L0.1506,5.7689 C-0.0404,6.0779 -0.0504,6.4659 0.1256,6.7829 C0.3016,7.0999 0.6366,7.2969 0.9996,7.2969 L3.2986,7.2969 L3.2986,11.4779 C3.2986,12.0299 3.7466,12.4769 4.2986,12.4769 C4.8506,12.4769 5.2976,12.0299 5.2976,11.4779 L5.2976,7.2969 L7.5966,7.2969 C7.9596,7.2969 8.2946,7.1009 8.4706,6.7829 C8.6476,6.4649 8.6376,6.0769 8.4456,5.7689 L5.1466,0.4709 Z" id="Fill-9" fill="#322F31"></path>
                <path d="M4.2983,44.3452 L2.7993,41.9382 L5.7973,41.9382 L4.2983,44.3452 Z M7.5973,39.9392 L5.2983,39.9392 L5.2983,14.1432 C5.2983,13.5912 4.8503,13.1432 4.2983,13.1432 C3.7463,13.1432 3.2983,13.5912 3.2983,14.1432 L3.2983,39.9392 L0.9993,39.9392 C0.6363,39.9392 0.3023,40.1352 0.1253,40.4532 C-0.0507,40.7702 -0.0407,41.1592 0.1513,41.4672 L3.4493,46.7652 C3.6323,47.0582 3.9533,47.2362 4.2983,47.2362 C4.6433,47.2362 4.9643,47.0582 5.1463,46.7652 L8.4453,41.4672 C8.6373,41.1582 8.6473,40.7702 8.4703,40.4532 C8.2943,40.1362 7.9603,39.9392 7.5973,39.9392 L7.5973,39.9392 Z" id="Fill-11" fill="#322F31"></path>
                <path d="M53.3908,55.889 L53.3908,52.892 L55.7978,54.39 L53.3908,55.889 Z M16.7508,55.889 L14.3438,54.39 L16.7508,52.892 L16.7508,55.889 Z M58.2178,53.542 L52.9198,50.243 C52.6108,50.051 52.2228,50.042 51.9058,50.218 C51.5888,50.394 51.3918,50.729 51.3918,51.092 L51.3918,53.391 L18.7498,53.391 L18.7498,51.092 C18.7498,50.729 18.5528,50.394 18.2358,50.218 C17.9178,50.042 17.5298,50.051 17.2218,50.243 L11.9238,53.542 C11.6308,53.724 11.4528,54.045 11.4528,54.39 C11.4528,54.736 11.6308,55.056 11.9238,55.239 L17.2218,58.538 C17.3828,58.638 17.5668,58.689 17.7498,58.689 C17.9168,58.689 18.0838,58.647 18.2358,58.563 C18.5528,58.387 18.7498,58.052 18.7498,57.689 L18.7498,55.39 L51.3918,55.39 L51.3918,57.689 C51.3918,58.052 51.5888,58.387 51.9058,58.563 C52.0568,58.647 52.2238,58.689 52.3908,58.689 C52.5748,58.689 52.7578,58.638 52.9198,58.538 L58.2178,55.239 C58.5108,55.056 58.6888,54.736 58.6888,54.39 C58.6888,54.045 58.5108,53.724 58.2178,53.542 L58.2178,53.542 Z" id="Fill-14" fill="#322F31"></path>
            </g>
        </g>
    </g>
</svg>