<?xml version="1.0" encoding="UTF-8"?>
<svg width="43px" height="53px" viewBox="0 0 43 53" version="1.1" xmlns="http://www.w3.org/2000/svg" xmlns:xlink="http://www.w3.org/1999/xlink">
    <!-- Generator: Sketch 47.1 (45422) - http://www.bohemiancoding.com/sketch -->
    <title>map-pin</title>
    <desc>Created with Sketch.</desc>
    <defs>
        <filter x="-20.0%" y="-11.1%" width="140.0%" height="131.1%" filterUnits="objectBoundingBox" id="filter-1">
            <feOffset dx="0" dy="2" in="SourceAlpha" result="shadowOffsetOuter1"></feOffset>
            <feGaussianBlur stdDeviation="2" in="shadowOffsetOuter1" result="shadowBlurOuter1"></feGaussianBlur>
            <feColorMatrix values="0 0 0 0 0   0 0 0 0 0   0 0 0 0 0  0 0 0 0.2 0" type="matrix" in="shadowBlurOuter1" result="shadowMatrixOuter1"></feColorMatrix>
            <feMerge>
                <feMergeNode in="shadowMatrixOuter1"></feMergeNode>
                <feMergeNode in="SourceGraphic"></feMergeNode>
            </feMerge>
        </filter>
    </defs>
    <g id="Page-1" stroke="none" stroke-width="1" fill="none" fill-rule="evenodd">
        <g id="3-1-apartments-main-1170" transform="translate(-737.000000, -5365.000000)" fill-rule="nonzero">
            <g id="map-pin" transform="translate(741.000000, 5367.000000)">
                <path d="M17.1386719,0 C7.69901273,0 0,7.78690336 0,17.2265625 C0,20.9704971 1.18652344,24.5304107 3.42773438,27.5097656 L17.1386719,45 L30.8496094,27.5097656 C33.0908203,24.5304107 34.2773438,20.9708404 34.2773438,17.2265625 C34.2773438,7.78690336 26.578331,0 17.1386719,0 Z M17.1386719,28.9991438 L17.1386719,45 L30.8496094,27.5097656 C33.0908203,24.5304107 34.2773438,20.9704971 34.2773438,17.2265625 C34.2773438,7.78690336 26.578331,0 17.1386719,0 L17.1386719,7.00085616 C17.0925158,7.00028594 17.0462913,7 17,7 C10.9248678,7 6,11.9248678 6,18 C6,24.0751322 10.9248678,29 17,29 C17.0462913,29 17.0925158,28.9997141 17.1386719,28.9991438 Z" id="Combined-Shape" fill="#FFFFFF"></path>
                <g id="pin" filter="url(#filter-1)" fill="#FF3364">
                    <path d="M17.1386719,0 C7.69901273,0 0,7.78690336 0,17.2265625 C0,20.9704971 1.18652344,24.5304107 3.42773438,27.5097656 L17.1386719,45 L30.8496094,27.5097656 C33.0908203,24.5304107 34.2773438,20.9708404 34.2773438,17.2265625 C34.2773438,7.78690336 26.578331,0 17.1386719,0 Z M17.1386719,26.4550781 C12.049942,26.4550781 7.91015625,22.3152924 7.91015625,17.2265625 C7.91015625,12.1378326 12.049942,7.91015625 17.1386719,7.91015625 C22.2274018,7.91015625 26.3671875,12.1378326 26.3671875,17.2265625 C26.3671875,22.3152924 22.2274018,26.4550781 17.1386719,26.4550781 Z" id="Shape"></path>
                    <path d="M34.2773438,17.2265625 C34.2773438,20.9704971 33.0908203,24.5304107 30.8496094,27.5097656 L17.1386719,45 L17.1386719,26.4550781 C22.2274018,26.4550781 26.3671875,22.3152924 26.3671875,17.2265625 C26.3671875,12.1378326 22.2274018,7.91015625 17.1386719,7.91015625 L17.1386719,0 C26.578331,0 34.2773438,7.78690336 34.2773438,17.2265625 Z" id="Shape"></path>
                </g>
            </g>
        </g>
    </g>
</svg>