<?xml version="1.0" encoding="UTF-8"?>
<svg width="20px" height="13px" viewBox="0 0 20 13" version="1.1" xmlns="http://www.w3.org/2000/svg" xmlns:xlink="http://www.w3.org/1999/xlink">
    <!-- Generator: Sketch 47.1 (45422) - http://www.bohemiancoding.com/sketch -->
    <title>Page 1</title>
    <desc>Created with Sketch.</desc>
    <defs></defs>
    <g id="Page-1" stroke="none" stroke-width="1" fill="none" fill-rule="evenodd">
        <g id="stangher-coworking-apartments" transform="translate(-965.000000, -6088.000000)" fill="#B8B8B8">
            <g id="Page-1" transform="translate(965.000000, 6088.000000)">
                <path d="M18.6362,3.3699 C17.8832,3.3699 17.2732,3.9859 17.2732,4.7449 L17.2732,6.8989 C16.9812,6.6979 16.6302,6.5799 16.2502,6.5799 L3.7502,6.5799 C3.3702,6.5799 3.0182,6.6979 2.7272,6.8989 L2.7272,4.7449 C2.7272,3.9859 2.1172,3.3699 1.3642,3.3699 C0.6112,3.3699 0.0002,3.9859 0.0002,4.7449 L0.0002,10.7069 C0.0002,11.4669 0.6112,12.0829 1.3642,12.0829 L1.8182,12.0829 C1.8182,12.5889 2.2252,12.9999 2.7272,12.9999 C3.2292,12.9999 3.6362,12.5889 3.6362,12.0829 L16.3642,12.0829 C16.3642,12.5889 16.7702,12.9999 17.2732,12.9999 C17.7752,12.9999 18.1822,12.5889 18.1822,12.0829 L18.6362,12.0829 C19.3892,12.0829 20.0002,11.4669 20.0002,10.7069 L20.0002,4.7449 C20.0002,3.9859 19.3892,3.3699 18.6362,3.3699 M4.2052,5.8229 L8.7502,5.8229 C9.2512,5.8229 9.6592,5.4119 9.6592,4.9049 L9.6592,0.9169 C9.6592,0.4109 9.2512,-0.0001 8.7502,-0.0001 L4.2052,-0.0001 C3.7022,-0.0001 3.2952,0.4109 3.2952,0.9169 L3.2952,4.9049 C3.2952,5.4119 3.7022,5.8229 4.2052,5.8229 M11.2502,5.8229 L15.7952,5.8229 C16.2982,5.8229 16.7052,5.4119 16.7052,4.9049 L16.7052,0.9169 C16.7052,0.4109 16.2982,-0.0001 15.7952,-0.0001 L11.2502,-0.0001 C10.7482,-0.0001 10.3412,0.4109 10.3412,0.9169 L10.3412,4.9049 C10.3412,5.4119 10.7482,5.8229 11.2502,5.8229" id="Fill-1"></path>
            </g>
        </g>
    </g>
</svg>