<?xml version="1.0" encoding="UTF-8"?>
<svg width="100px" height="100px" viewBox="0 0 100 100" version="1.1" xmlns="http://www.w3.org/2000/svg" xmlns:xlink="http://www.w3.org/1999/xlink">
    <!-- Generator: Sketch 47.1 (45422) - http://www.bohemiancoding.com/sketch -->
    <title>moscow</title>
    <desc>Created with Sketch.</desc>
    <defs></defs>
    <g id="Page-1" stroke="none" stroke-width="1" fill="none" fill-rule="evenodd">
        <g id="1-1-home" transform="translate(-574.000000, -1780.000000)" fill-rule="nonzero" fill="#D1D1D1">
            <g id="moscow" transform="translate(574.000000, 1780.000000)">
                <path d="M50.1085938,51.95625 C46.6603516,51.95625 43.8550781,54.7615234 43.8550781,58.2097656 C43.8550781,61.6580078 46.6603516,64.4632812 50.1085938,64.4632812 C53.5566406,64.4630859 56.3619141,61.6578125 56.3619141,58.2097656 C56.3621094,54.7615234 53.5568359,51.95625 50.1085938,51.95625 Z M50.1085938,61.4966797 C48.2960938,61.4964844 46.8216797,60.0220703 46.8216797,58.2097656 C46.8216797,56.93125 47.5568359,55.8240234 48.6251953,55.2806641 L48.6251953,58.2097656 C48.6251953,59.0289062 49.2892578,59.6931641 50.1085938,59.6931641 L53.0376953,59.6931641 C52.4945313,60.7613281 51.3871094,61.4966797 50.1085938,61.4966797 Z M51.5919922,56.7265625 L51.5919922,55.2808594 C52.2140625,55.5970703 52.7212891,56.1046875 53.0376953,56.7265625 L51.5919922,56.7265625 Z" id="Shape"></path>
                <path d="M53.7269531,2.69003906 C53.484375,1.94277344 52.7005859,1.51464844 51.9408203,1.71347656 L51.609375,1.80019531 L51.5894531,1.45820312 C51.54375,0.673828125 50.8943359,0.061328125 50.1087891,0.061328125 C49.3232422,0.061328125 48.6736328,0.673828125 48.6279297,1.45820312 L48.6080078,1.80019531 L48.2765625,1.71347656 C47.5173828,1.51445312 46.7333984,1.94296875 46.4904297,2.69003906 C46.2476562,3.43730469 46.6296875,4.24394531 47.3615234,4.52988281 L47.6804687,4.65449219 L47.4955078,4.94277344 C47.0714844,5.60410156 47.2367187,6.48144531 47.8722656,6.94335937 C48.5080078,7.40527344 49.3933594,7.29121094 49.8914062,6.68359375 L50.1087891,6.41855469 L50.3259766,6.68359375 C50.6183594,7.04023437 51.0439453,7.22675781 51.4740234,7.22675781 C51.7769531,7.22675781 52.0824219,7.13417969 52.3451172,6.94335937 C52.9808594,6.48164062 53.1460937,5.60429687 52.7220703,4.94277344 L52.5371094,4.65449219 L52.8560547,4.52988281 C53.5878906,4.24394531 53.9697266,3.43710937 53.7269531,2.69003906 Z" id="Shape"></path>
                <path d="M98.5166016,96.9722656 L63.8035156,96.9722656 L63.8035156,69.2080078 L64.6595703,69.2080078 C65.4787109,69.2080078 66.1429687,68.5439453 66.1429687,67.7246094 C66.1429687,66.9054687 65.4789063,66.2412109 64.6595703,66.2412109 L62.3203125,66.2412109 L60.0828125,66.2412109 L60.0828125,51.1607422 C60.8396484,51.0935547 61.4332031,50.4583984 61.4332031,49.6841797 C61.4332031,48.8650391 60.7691406,48.2007813 59.9498047,48.2007813 L58.5994141,48.2007813 L57.9839844,48.2007813 L57.9839844,31.4623047 C57.9839844,30.6431641 57.3199219,29.9789063 56.5005859,29.9789063 L55.5683594,29.9789063 L51.5638672,9.69648438 C51.4265625,9.0015625 50.8169922,8.50058594 50.1085937,8.50058594 C49.4001953,8.50058594 48.790625,9.0015625 48.6533203,9.69648438 L44.6486328,29.9789063 L43.7164063,29.9789063 C42.8972656,29.9789063 42.2330078,30.6429688 42.2330078,31.4623047 L42.2330078,48.2007813 L41.6175781,48.2007813 L40.2671875,48.2007813 C39.4480469,48.2007813 38.7837891,48.8648438 38.7837891,49.6841797 C38.7837891,50.4583984 39.3773438,51.0935547 40.1341797,51.1607422 L40.1341797,53.8107422 C40.1341797,54.6298828 40.7982422,55.2941406 41.6175781,55.2941406 C42.4367187,55.2941406 43.1009766,54.6300781 43.1009766,53.8107422 L43.1009766,51.1673828 L57.1160156,51.1673828 L57.1160156,66.2410156 L43.1009766,66.2410156 L43.1009766,58.7552734 C43.1009766,57.9361328 42.4369141,57.271875 41.6175781,57.271875 C40.7984375,57.271875 40.1341797,57.9359375 40.1341797,58.7552734 L40.1341797,66.2410156 L37.8013672,66.2410156 L35.4621094,66.2410156 C34.6429688,66.2410156 33.9787109,66.9050781 33.9787109,67.7244141 C33.9787109,68.54375 34.6427734,69.2078125 35.4621094,69.2078125 L36.3181641,69.2078125 L36.3181641,96.9722656 L1.60527344,96.9722656 C0.786132813,96.9722656 0.121875,97.6363281 0.121875,98.4556641 C0.121875,99.2748047 0.7859375,99.9390625 1.60527344,99.9390625 L37.8015625,99.9390625 L62.3199219,99.9390625 L98.5164063,99.9390625 C99.3355469,99.9390625 99.9998047,99.275 99.9998047,98.4556641 C100,97.6363281 99.3359375,96.9722656 98.5166016,96.9722656 Z M50.1085937,17.6416016 L52.5443359,29.9787109 L47.6724609,29.9787109 L50.1085937,17.6416016 Z M45.2,32.9455078 L45.8748047,32.9455078 C45.8775391,32.9455078 45.8802734,32.9455078 45.8832031,32.9455078 L54.3412109,32.9455078 C54.3433594,32.9455078 54.3455078,32.9457031 54.3476563,32.9457031 C54.3496094,32.9457031 54.3515625,32.9455078 54.3535156,32.9455078 L55.0169922,32.9455078 L55.0169922,41.9994141 L53.8191406,41.9994141 L53.8191406,34.8824219 C53.8193359,34.0632813 53.1552734,33.3990234 52.3359375,33.3990234 C51.5167969,33.3990234 50.8525391,34.0630859 50.8525391,34.8824219 L50.8525391,41.9994141 L49.3644531,41.9994141 L49.3644531,34.8824219 C49.3644531,34.0632813 48.7003906,33.3990234 47.8810547,33.3990234 C47.0619141,33.3990234 46.3976563,34.0630859 46.3976563,34.8824219 L46.3976563,41.9994141 L45.1998047,41.9994141 L45.1998047,32.9455078 L45.2,32.9455078 Z M55.0173828,48.2007813 L45.2,48.2007813 L45.2,44.9664063 L55.0173828,44.9664063 L55.0173828,48.2007813 Z M46.6861328,96.9722656 L46.6861328,91.8027344 C46.6861328,90.5501953 47.3658203,89.3933594 48.4597656,88.7835937 C48.5451172,88.7359375 48.6326172,88.6935547 48.7205078,88.6537109 L48.7205078,96.9722656 L46.6861328,96.9722656 L46.6861328,96.9722656 Z M53.6,96.9722656 L51.6873047,96.9722656 L51.6873047,88.7126953 C51.7300781,88.7339844 51.7730469,88.7548828 51.8150391,88.778125 C51.8185547,88.7800781 51.8220703,88.7820313 51.8257813,88.7839844 C52.9203125,89.3935547 53.6,90.5505859 53.6,91.8033203 L53.6,96.9722656 Z M60.8367187,96.9722656 L56.5666016,96.9722656 L56.5666016,91.8033203 C56.5666016,89.4796875 55.3082031,87.3335938 53.28125,86.1990234 C53.2769531,86.1964844 53.2722656,86.1941406 53.2679687,86.1916016 C51.3103516,85.1009766 48.9730469,85.1013672 47.0158203,86.1923828 C44.9826172,87.3253906 43.7195312,89.4753906 43.7195312,91.8027344 L43.7195312,96.9722656 L39.2851562,96.9722656 L39.2851562,80.7222656 L60.8367187,80.7222656 L60.8367187,96.9722656 L60.8367187,96.9722656 Z M60.8369141,77.7556641 L58.8349609,77.7556641 L58.8349609,73.2207031 C58.8349609,72.4015625 58.1708984,71.7373047 57.3515625,71.7373047 C56.5322266,71.7373047 55.8681641,72.4013672 55.8681641,73.2207031 L55.8681641,77.7556641 L53.8152344,77.7556641 L53.8152344,73.2207031 C53.8152344,72.4015625 53.1511719,71.7373047 52.3318359,71.7373047 C51.5125,71.7373047 50.8484375,72.4013672 50.8484375,73.2207031 L50.8484375,77.7556641 L48.7955078,77.7556641 L48.7955078,73.2207031 C48.7955078,72.4015625 48.1314453,71.7373047 47.3121094,71.7373047 C46.4929687,71.7373047 45.8287109,72.4013672 45.8287109,73.2207031 L45.8287109,77.7556641 L43.7757812,77.7556641 L43.7757812,73.2207031 C43.7757812,72.4015625 43.1117187,71.7373047 42.2923828,71.7373047 C41.4730469,71.7373047 40.8089844,72.4013672 40.8089844,73.2207031 L40.8089844,77.7556641 L39.284375,77.7556641 L39.284375,69.2078125 L41.6171875,69.2078125 L58.5990234,69.2078125 L60.8365234,69.2078125 L60.8365234,77.7556641 L60.8369141,77.7556641 Z" id="Shape"></path>
                <path d="M75.3771484,87.5320313 L72.4105469,87.5320313 C71.5914062,87.5320313 70.9271484,88.1960938 70.9271484,89.0154297 C70.9271484,89.8347656 71.5912109,90.4988281 72.4105469,90.4988281 L75.3771484,90.4988281 C76.1962891,90.4988281 76.8605469,89.8347656 76.8605469,89.0154297 C76.8605469,88.1960938 76.1964844,87.5320313 75.3771484,87.5320313 Z" id="Shape"></path>
                <path d="M84.475,90.4988281 L81.5083984,90.4988281 C80.6892578,90.4988281 80.025,91.1628906 80.025,91.9822266 C80.025,92.8015625 80.6890625,93.465625 81.5083984,93.465625 L84.475,93.465625 C85.2941406,93.465625 85.9583984,92.8015625 85.9583984,91.9822266 C85.9583984,91.1628906 85.2941406,90.4988281 84.475,90.4988281 Z" id="Shape"></path>
                <path d="M13.4726562,86.3453125 L10.5060547,86.3453125 C9.68691406,86.3453125 9.02265625,87.009375 9.02265625,87.8287109 C9.02265625,88.6480469 9.68671875,89.3121094 10.5060547,89.3121094 L13.4726562,89.3121094 C14.2917969,89.3121094 14.9560547,88.6480469 14.9560547,87.8287109 C14.9560547,87.009375 14.2917969,86.3453125 13.4726562,86.3453125 Z" id="Shape"></path>
                <path d="M23.9548828,90.103125 L20.9882812,90.103125 C20.1691406,90.103125 19.5048828,90.7671875 19.5048828,91.5865234 C19.5048828,92.4056641 20.1689453,93.0699219 20.9882812,93.0699219 L23.9548828,93.0699219 C24.7740234,93.0699219 25.4382812,92.4058594 25.4382812,91.5865234 C25.4382812,90.7673828 24.7740234,90.103125 23.9548828,90.103125 Z" id="Shape"></path>
                <path d="M98.3193359,77.5998047 L95.4279297,77.5998047 L95.4279297,67.6619141 C95.4279297,66.8427734 94.7638672,66.1785156 93.9445313,66.1785156 C92.1099609,66.1785156 90.4625,66.9951172 89.3464844,68.2839844 C88.2304688,66.9951172 86.5832031,66.1785156 84.7484375,66.1785156 C83.9292969,66.1785156 83.2650391,66.8425781 83.2650391,67.6619141 L83.2650391,77.6 L80.8917969,77.6 L80.8917969,75.7644531 C80.8917969,74.9453125 80.2277344,74.2810547 79.4083984,74.2810547 C78.5892578,74.2810547 77.925,74.9451172 77.925,75.7644531 L77.925,79.0832031 C77.925,79.9023438 78.5890625,80.5666016 79.4083984,80.5666016 L84.7482422,80.5666016 C85.5673828,80.5666016 86.2316406,79.9025391 86.2316406,79.0832031 L86.2316406,69.5216797 C87.2025391,70.0498047 87.8630859,71.0791016 87.8630859,72.2599609 C87.8630859,73.0791016 88.5271484,73.7433594 89.3464844,73.7433594 C90.165625,73.7433594 90.8298828,73.0792969 90.8298828,72.2599609 C90.8298828,71.0791016 91.4902344,70.0496094 92.4613281,69.5216797 L92.4613281,79.0832031 C92.4613281,79.9023438 93.1253906,80.5666016 93.9447266,80.5666016 L98.3193359,80.5666016 C99.1384766,80.5666016 99.8027344,79.9025391 99.8027344,79.0832031 C99.8027344,78.2638672 99.1384766,77.5998047 98.3193359,77.5998047 Z" id="Shape"></path>
                <path d="M79.4087891,66.1785156 C77.5742187,66.1785156 75.9267578,66.9951172 74.8105469,68.2839844 C73.6945312,66.9951172 72.0470703,66.1785156 70.2125,66.1785156 C69.3933594,66.1785156 68.7291016,66.8425781 68.7291016,67.6619141 L68.7291016,77.6 L66.8505859,77.6 C66.0314453,77.5998047 65.3671875,78.2638672 65.3671875,79.0832031 C65.3671875,79.9025391 66.03125,80.5666016 66.8505859,80.5666016 L70.2125,80.5666016 C71.0316406,80.5666016 71.6958984,79.9025391 71.6958984,79.0832031 L71.6958984,69.5216797 C72.6669922,70.0496094 73.3273437,71.0791016 73.3273437,72.2599609 C73.3273437,73.0791016 73.9914062,73.7433594 74.8107422,73.7433594 C75.6298828,73.7433594 76.2941406,73.0792969 76.2941406,72.2599609 C76.2941406,71.0792969 76.9546875,70.0498047 77.9255859,69.5216797 L77.9255859,70.8199219 C77.9255859,71.6390625 78.5896484,72.3033203 79.4089844,72.3033203 C80.228125,72.3033203 80.8923828,71.6392578 80.8923828,70.8199219 L80.8923828,67.6619141 C80.8919922,66.8427734 80.2279297,66.1785156 79.4087891,66.1785156 Z" id="Shape"></path>
                <path d="M32.9521484,77.5998047 L31.0736328,77.5998047 L31.0736328,67.6619141 C31.0736328,66.8427734 30.4095703,66.1785156 29.5902344,66.1785156 C27.7556641,66.1785156 26.1082031,66.9951172 24.9919922,68.2839844 C23.8759766,66.9951172 22.2287109,66.1785156 20.3939453,66.1785156 C19.5748047,66.1785156 18.9105469,66.8425781 18.9105469,67.6619141 L18.9105469,77.6 L16.5375,77.6 L16.5375,67.6619141 C16.5375,66.8427734 15.8734375,66.1785156 15.0541016,66.1785156 C13.2195312,66.1785156 11.5720703,66.9951172 10.4560547,68.2839844 C9.34003906,66.9951172 7.69257812,66.1785156 5.85800781,66.1785156 C5.03886719,66.1785156 4.37460937,66.8425781 4.37460937,67.6619141 L4.37460937,77.6 L1.48339844,77.6 C0.664257812,77.6 0,78.2640625 0,79.0833984 C0,79.9027344 0.6640625,80.5666016 1.48339844,80.5666016 L5.85800781,80.5666016 C6.67714844,80.5666016 7.34140625,79.9025391 7.34140625,79.0832031 L7.34140625,69.5216797 C8.3125,70.0496094 8.97285156,71.0791016 8.97285156,72.2599609 C8.97285156,73.0791016 9.63691406,73.7433594 10.45625,73.7433594 C11.2755859,73.7433594 11.9396484,73.0792969 11.9396484,72.2599609 C11.9396484,71.0791016 12.6,70.0496094 13.5710937,69.5216797 L13.5710937,79.0832031 C13.5710937,79.9023438 14.2351563,80.5666016 15.0544922,80.5666016 L20.3943359,80.5666016 C21.2134766,80.5666016 21.8777344,79.9025391 21.8777344,79.0832031 L21.8777344,69.5216797 C22.8486328,70.0498047 23.5091797,71.0791016 23.5091797,72.2599609 C23.5091797,73.0791016 24.1732422,73.7433594 24.9925781,73.7433594 C25.8117187,73.7433594 26.4759766,73.0792969 26.4759766,72.2599609 C26.4759766,71.0791016 27.1363281,70.0496094 28.1074219,69.5216797 L28.1074219,79.0832031 C28.1074219,79.9023438 28.7714844,80.5666016 29.5908203,80.5666016 L32.9527344,80.5666016 C33.771875,80.5666016 34.4361328,79.9025391 34.4361328,79.0832031 C34.4361328,78.2638672 33.7714844,77.5998047 32.9521484,77.5998047 Z" id="Shape"></path>
            </g>
        </g>
    </g>
</svg>