<?xml version="1.0" encoding="UTF-8"?>
<svg width="70px" height="70px" viewBox="0 0 70 70" version="1.1" xmlns="http://www.w3.org/2000/svg" xmlns:xlink="http://www.w3.org/1999/xlink">
    <!-- Generator: Sketch 47.1 (45422) - http://www.bohemiancoding.com/sketch -->
    <title>oasis</title>
    <desc>Created with Sketch.</desc>
    <defs></defs>
    <g id="Page-1" stroke="none" stroke-width="1" fill="none" fill-rule="evenodd">
        <g id="2-5-pattaya-guest-houses" transform="translate(-247.000000, -1296.000000)" fill-rule="nonzero">
            <g id="oasis" transform="translate(247.000000, 1296.000000)">
                <path d="M45.9930078,26.5103125 C44.7235742,26.5103125 43.6920312,26.8640039 42.8687109,27.3932422 C42.8920898,25.4110937 42.4716797,23.9726758 41.6118555,23.1129883 C41.1936328,22.6949023 40.515918,22.6949023 40.0979688,23.1129883 C39.6798828,23.5310742 39.6798828,24.2089258 40.0979688,24.6267383 C40.5357422,25.0645117 40.7149805,25.9888672 40.7313867,27.0656641 C40.192168,26.4597266 39.4716602,25.9257031 38.5088867,25.5755664 C37.9528516,25.3736328 37.3391211,25.6601953 37.1369141,26.2156836 C36.9349805,26.7713086 37.221543,27.3854492 37.7770313,27.5875195 C40.1532031,28.451582 40.193125,31.2741406 40.1936719,31.3888477 C40.1908008,31.929707 40.5917969,32.3874414 41.1281445,32.4562109 C41.174082,32.4622266 41.2198828,32.4650977 41.265,32.4650977 C41.7480273,32.4650977 42.1792383,32.1380664 42.3014648,31.6592773 C42.3033789,31.6520312 42.3102148,31.6246875 42.3208789,31.5805273 C42.4308008,31.1654492 43.2117383,28.6516016 45.9930078,28.6516016 C46.5843164,28.6516016 47.0635156,28.1722656 47.0635156,27.5810937 C47.0635156,26.9899219 46.5841797,26.5103125 45.9930078,26.5103125 Z" id="Shape" fill="#499421"></path>
                <g id="Group" transform="translate(0.000000, 25.292969)" fill="#E58B25">
                    <path d="M0.0336328125,0.503398438 C35.222168,-2.64291016 34.9287695,10.1077539 69.9711523,10.1077539 L69.9711523,36.1145313 L0.0336328125,36.1145313 C0.0336328125,36.1145313 0.0336328125,0.503398438 0.0336328125,0.503398438 Z" id="Shape"></path>
                    <path d="M69.9715625,29.8189062 L69.9715625,40.410918 C69.9715625,42.7844922 68.0475195,44.7070312 65.6739453,44.7070312 L4.33029297,44.7070312 C1.95808594,44.7070312 0.0341796875,42.7844922 0.0341796875,40.410918 L0.0341796875,22.9679297 C1.13039062,22.395625 2.22085937,21.8903125 3.30695312,21.4492578 C25.8025195,12.285957 46.3997461,29.8189062 69.9715625,29.8189062 Z" id="Shape"></path>
                </g>
                <g id="Group" transform="translate(3.281250, 44.023438)" fill="#FFCB47">
                    <path d="M66.6903125,11.0884375 L66.6903125,17.3841992 C53.6976562,15.3459961 48.8534375,22.4196875 32.1554297,22.4196875 C15.4560547,22.4196875 0.0255664062,9.14580078 0.0255664062,2.71878906 C22.5212695,-6.44451172 43.1184961,11.0884375 66.6903125,11.0884375 Z" id="Shape"></path>
                    <path d="M5.88505859,22.4511328 C4.91148437,22.4511328 4.45224609,21.1997461 5.18998047,20.5670117 C5.5409375,20.265957 6.06662109,20.2279492 6.45681641,20.4762305 C6.82650391,20.7113867 7.02064453,21.1599609 6.93396484,21.5904883 C6.83470703,22.0843164 6.39037109,22.4511328 5.88505859,22.4511328 Z" id="Shape"></path>
                    <path d="M3.74417969,19.596582 C3.2790625,19.596582 2.85345703,19.2818555 2.72029297,18.8361523 C2.58617187,18.3873047 2.76322266,17.885 3.15875,17.6296094 C3.92451172,17.1350977 4.95824219,17.7996875 4.79800781,18.7085937 C4.70859375,19.2141797 4.25974609,19.596582 3.74417969,19.596582 Z" id="Shape"></path>
                    <path d="M2.31683594,23.1648047 C1.85076172,23.1648047 1.42707031,22.8517187 1.29294922,22.4050586 C1.15910156,21.9594922 1.33369141,21.4626563 1.72169922,21.2035742 C2.51644531,20.6732422 3.58941406,21.4242383 3.35466797,22.3546094 C3.23626953,22.8239648 2.80136719,23.1648047 2.31683594,23.1648047 Z" id="Shape"></path>
                </g>
                <path d="M69.9711523,35.4009961 L69.9711523,40.9675 C37.0706055,37.7417578 20.0215039,44.1932422 20.0215039,44.1932422 C13.4631055,43.7479492 6.8446875,44.7056641 0.0336328125,48.2610352 L0.0336328125,25.7967773 C35.222168,22.6495117 34.9295898,35.4009961 69.9711523,35.4009961 Z" id="Shape" fill="#96C133"></path>
                <path d="M10.479082,31.6767773 C10.276875,31.1211523 9.66328125,30.8344531 9.10710938,31.0366602 C8.14597656,31.38625 7.42628906,31.9193164 6.88720703,32.52375 C6.9059375,31.343457 7.12441406,30.4813086 7.51802734,30.0876953 C7.93611328,29.6696094 7.93611328,28.9917578 7.51802734,28.5739453 C7.09980469,28.1558594 6.42208984,28.1558594 6.00414063,28.5739453 C5.14431641,29.4337695 4.72390625,30.8721875 4.74728516,32.8541992 C3.92369141,32.3249609 2.89228516,31.9712695 1.62298828,31.9712695 C1.03167969,31.9712695 0.552480469,32.4506055 0.552480469,33.0417773 C0.552480469,33.6329492 1.03167969,34.1122852 1.62298828,34.1122852 C4.449375,34.1122852 5.22539063,36.7765234 5.30386719,37.0767578 C5.30960938,37.0998633 5.3134375,37.1151758 5.31466797,37.1200977 C5.3221875,37.1499023 5.33449219,37.1773828 5.34447266,37.205957 C5.35363281,37.232207 5.36087891,37.2594141 5.37167969,37.2845703 C5.38425781,37.313418 5.40052734,37.3395313 5.41529297,37.3667383 C5.42910156,37.392168 5.44140625,37.4186914 5.45712891,37.4426172 C5.47353516,37.4676367 5.49308594,37.4895117 5.51140625,37.5128906 C5.52958984,37.5359961 5.54613281,37.5604688 5.56582031,37.5816602 C5.58646484,37.6039453 5.61025391,37.6230859 5.63267578,37.643457 C5.65332031,37.6623242 5.67259766,37.682832 5.69474609,37.6999219 C5.7203125,37.7198828 5.74861328,37.7358789 5.77595703,37.7535156 C5.79769531,37.7674609 5.81806641,37.7833203 5.84076172,37.795625 C5.87042969,37.8117578 5.90242188,37.8236523 5.93373047,37.8370508 C5.95628906,37.8467578 5.97789063,37.8586523 6.00113281,37.8667188 C6.02957031,37.8765625 6.05951172,37.8820313 6.08876953,37.8894141 C6.11679688,37.8965234 6.14400391,37.905957 6.17271484,37.9108789 C6.18132813,37.9122461 6.19007813,37.9118359 6.19869141,37.9130664 C6.24873047,37.9203125 6.29945313,37.9260547 6.35099609,37.9260547 C6.39392578,37.9260547 6.43740234,37.9229102 6.48087891,37.9175781 C6.48333984,37.9173047 6.48552734,37.9174414 6.48798828,37.917168 C6.52244141,37.912793 6.55621094,37.9066406 6.58943359,37.8991211 C6.59011719,37.8989844 6.59066406,37.8989844 6.59148438,37.8988477 C6.59832031,37.8973438 6.60474609,37.8948828 6.61144531,37.8931055 C6.63796875,37.8864063 6.66435547,37.8794336 6.69019531,37.8708203 C6.70236328,37.8668555 6.71398438,37.8617969 6.72587891,37.8574219 C6.74583984,37.8500391 6.76580078,37.8423828 6.78521484,37.8339063 C6.79916016,37.8277539 6.81255859,37.8207813 6.82623047,37.814082 C6.84263672,37.8058789 6.85890625,37.7978125 6.87490234,37.7889258 C6.88939453,37.7807227 6.90347656,37.7721094 6.91742187,37.7633594 C6.93150391,37.7544727 6.94558594,37.7457227 6.95925781,37.7361523 C6.97320312,37.7264453 6.98701172,37.7164648 7.00041016,37.7062109 C7.01339844,37.6963672 7.02611328,37.68625 7.03855469,37.6757227 C7.05140625,37.6649219 7.06412109,37.6539844 7.07642578,37.6426367 C7.08873047,37.6312891 7.100625,37.6195312 7.11251953,37.6075 C7.12359375,37.5962891 7.13480469,37.5848047 7.14546875,37.5730469 C7.15763672,37.5596484 7.16912109,37.5455664 7.18074219,37.5314844 C7.18990234,37.5204102 7.19919922,37.5091992 7.20767578,37.4977148 C7.21984375,37.4814453 7.23105469,37.4647656 7.24240234,37.4478125 C7.249375,37.4374219 7.25648438,37.4273047 7.26304688,37.4165039 C7.27521484,37.3968164 7.28628906,37.3764453 7.29722656,37.3558008 C7.30173828,37.3470508 7.30679688,37.3388477 7.31117188,37.3300977 C7.32333984,37.3054883 7.33414063,37.280332 7.34453125,37.2547656 C7.34671875,37.2492969 7.34931641,37.2441016 7.35150391,37.2386328 C7.36353516,37.2071875 7.37433594,37.1751953 7.38335938,37.1423828 C7.38458984,37.1380078 7.38527344,37.1333594 7.38650391,37.1288477 C7.39375,37.1013672 7.4003125,37.0736133 7.40550781,37.0453125 C7.40865234,37.0282227 7.41015625,37.0108594 7.41248047,36.9936328 C7.41466797,36.9775 7.41712891,36.9616406 7.41863281,36.9453711 C7.42013672,36.9266406 7.42041016,36.9077734 7.42095703,36.889043 C7.42136719,36.875918 7.42273438,36.8630664 7.42246094,36.8498047 C7.42232422,36.8206836 7.4353125,33.9225195 9.83910156,33.0484766 C10.3944531,32.8466797 10.6810156,32.2325391 10.479082,31.6767773 Z" id="Shape" fill="#499421"></path>
                <path d="M34.8772266,41.071543 C34.8758594,41.071543 34.8743555,41.0729102 34.8729883,41.0729102 C25.0318359,42.2946289 20.0163086,44.1929687 20.0163086,44.1929687 C13.4579102,43.7476758 6.83949219,44.7053906 0.0284375,48.2607617 L0.0284375,41.3969336 L0.0298046875,41.3955664 C2.30494141,37.1136719 14.6652734,33.2599805 25.7981445,33.2599805 C35.5709375,33.2599805 39.5687305,39.5372852 34.8772266,41.071543 Z" id="Shape" fill="#53C9E5"></path>
                <g id="Group" transform="translate(7.109375, 36.640625)" fill="#FFFFFF">
                    <path d="M4.34957031,4.75466797 L1.13818359,4.75466797 C0.546875,4.75466797 0.0676757813,4.27533203 0.0676757813,3.68416016 C0.0676757813,3.09298828 0.546875,2.61365234 1.13818359,2.61365234 L4.34943359,2.61365234 C4.94074219,2.61365234 5.41994141,3.09298828 5.41994141,3.68416016 C5.41994141,4.27533203 4.94087891,4.75466797 4.34957031,4.75466797 Z" id="Shape"></path>
                    <path d="M15.2679297,2.16207031 L12.0566797,2.16207031 C11.4653711,2.16207031 10.9861719,1.68273438 10.9861719,1.0915625 C10.9861719,0.500390625 11.4653711,0.0210546875 12.0566797,0.0210546875 L15.2679297,0.0210546875 C15.8592383,0.0210546875 16.3384375,0.500390625 16.3384375,1.0915625 C16.3384375,1.68273438 15.8591016,2.16207031 15.2679297,2.16207031 Z" id="Shape"></path>
                </g>
                <g id="Group" transform="translate(6.699219, 18.867188)" fill="#FF9A47">
                    <path d="M6.32269531,13.0668945 C5.75353516,13.0668945 5.27994141,12.6185937 5.25423828,12.0445117 C5.25054687,11.9676758 4.90902344,5.86222656 0.477011719,1.95166016 C0.0336328125,1.56064453 -0.00861328125,0.884023437 0.382539062,0.44078125 C0.773828125,-0.00259765625 1.45017578,-0.04484375 1.89341797,0.346308594 C7.02871094,4.87744141 7.38035156,11.6633398 7.39292969,11.9499023 C7.41863281,12.5405273 6.960625,13.0402344 6.37,13.0658008 C6.35414062,13.0663477 6.33841797,13.0668945 6.32269531,13.0668945 Z" id="Shape"></path>
                    <path d="M15.6724805,11.1689648 C15.6034375,11.1689648 15.5333008,11.1622656 15.4628906,11.1483203 C14.8829297,11.0333398 14.5061328,10.4699219 14.6213867,9.88996094 C15.0650391,7.65392578 16.3329688,3.44080078 19.8403516,0.346171875 C20.2838672,-0.04484375 20.9603516,-0.00259765625 21.3512305,0.440644531 C21.7422461,0.884023438 21.7,1.56037109 21.2567578,1.95152344 C18.2216016,4.62957031 17.1124023,8.33574219 16.7213867,10.3066797 C16.6203516,10.8162305 16.1730078,11.1689648 15.6724805,11.1689648 Z" id="Shape"></path>
                </g>
                <g id="Group" transform="translate(20.644531, 15.039062)" fill="#499421">
                    <path d="M6.61174683,5.54791016 C6.57474683,5.54791016 6.64974683,5.54891016 6.61174683,5.54791016 L6.61174683,5.54791016 Z" id="Shape"></path>
                    <path d="M11.8753906,0.766171875 C9.47611328,0.234746094 7.72119141,1.44388672 6.64890625,2.7934375 C5.60533203,1.35556641 3.80871094,-0.0633007812 1.15609375,0.0462109375 C0.565332031,0.0704101563 0.106230469,0.569023438 0.130292969,1.15978516 C0.154492188,1.75041016 0.652011719,2.20992188 1.24386719,2.18544922 C3.50902344,2.09275391 4.71720703,3.62291016 5.24767578,4.57666016 C5.02003906,4.65103516 4.88947266,4.68453125 5.15935547,4.76779297 C5.17890625,4.77380859 5.26339844,4.80087891 5.39123047,4.85160156 C5.51496094,5.10589844 5.57607422,5.28158203 5.58564453,5.31001953 C5.72591797,5.73945313 6.15234375,5.53533203 6.6040625,5.54818359 C6.61705078,5.54818359 6.62990234,5.54886719 6.64289063,5.54927734 C7.5096875,6.19158203 8.42871094,7.28396484 8.40382813,9.025625 C8.39849609,9.39626953 8.58238281,9.72576172 8.86607422,9.92195313 C9.03478516,10.0385742 9.23863281,10.1080273 9.45902344,10.1111719 C10.0501953,10.1196484 10.5362305,9.64714844 10.5445703,9.05597656 C10.5764258,6.80558594 9.52697266,5.20037109 8.31359375,4.15132813 C8.40779297,4.02896484 8.51074219,3.90564453 8.62408203,3.78546875 C9.43605469,2.92496094 10.3476953,2.62076172 11.4124609,2.85660156 C11.9899609,2.98429688 12.5613086,2.62007813 12.6888672,2.04285156 C12.8169727,1.465625 12.4527539,0.894003906 11.8753906,0.766171875 Z" id="Shape"></path>
                    <path d="M1.36992188,7.33208984 C1.09607422,7.33208984 0.821953125,7.22763672 0.612910156,7.01845703 C0.194824219,6.60037109 0.194824219,5.92251953 0.612910156,5.50470703 C2.39914063,3.71847656 6.23287109,3.88363281 6.66462891,3.90824219 C7.25484375,3.94201172 7.70587891,4.44800781 7.67197266,5.03822266 C7.63833984,5.62830078 7.13480469,6.0790625 6.54240234,6.04570313 C5.280625,5.97625 2.96625,6.17900391 2.12679688,7.01845703 C1.91775391,7.2275 1.64363281,7.33208984 1.36992188,7.33208984 Z" id="Shape"></path>
                </g>
                <circle id="Oval" fill="#FF9A47" cx="58.7960352" cy="8.72361328" r="8.72361328"></circle>
                <g id="Group" transform="translate(61.796875, 43.613281)" fill="#FFCB47">
                    <path d="M4.89521484,5.07582031 C3.94324219,5.07582031 3.46650391,3.86681641 4.16869141,3.21945313 C4.51472656,2.90048828 5.04177734,2.84716797 5.44564453,3.08738281 C5.83283203,3.31761719 6.03558594,3.78546875 5.94248047,4.22570313 C5.83898437,4.71501953 5.39683594,5.07582031 4.89521484,5.07582031 Z" id="Shape"></path>
                    <path d="M3.25376953,2.22113281 C2.29236328,2.22113281 1.8221875,0.98765625 2.54583984,0.348632813 C3.25882812,-0.280957031 4.41,0.306113281 4.31908203,1.25548828 C4.26740234,1.79648438 3.79654297,2.22113281 3.25376953,2.22113281 Z" id="Shape"></path>
                    <path d="M1.18425781,5.07582031 C0.736914063,5.07582031 0.327988281,4.78638672 0.177597656,4.36597656 C0.0247460938,3.93914062 0.164609375,3.44490234 0.522402344,3.16490234 C1.30074219,2.55582031 2.45205078,3.28179687 2.22660156,4.24703125 C2.11462891,4.72609375 1.67753906,5.07582031 1.18425781,5.07582031 Z" id="Shape"></path>
                </g>
                <g id="Group" transform="translate(35.136719, 51.132812)" fill="#E58B25">
                    <path d="M1.15541016,2.25066406 C0.18375,2.25066406 -0.280273438,0.996953125 0.460878906,0.366542969 C1.2053125,-0.266738281 2.38423828,0.395253906 2.21060547,1.36404297 C2.1196875,1.87099609 1.67125,2.25066406 1.15541016,2.25066406 Z" id="Shape"></path>
                    <path d="M15.1429688,12.4557617 C14.7151758,12.4557617 14.3170508,12.1886133 14.1538086,11.7934961 C13.9723828,11.3543555 14.1101953,10.8307227 14.4858984,10.5397852 C15.2500195,9.94806641 16.3827344,10.6389062 16.1920117,11.5936133 C16.0931641,12.0874414 15.6469141,12.4557617 15.1429688,12.4557617 Z" id="Shape"></path>
                    <path d="M17.763457,11.4080859 C16.8002734,11.4080859 16.3339258,10.175293 17.0526562,9.53791016 C17.4131836,9.21798828 17.9565039,9.18121094 18.3572266,9.44835938 C18.6975195,9.6753125 18.8833203,10.089707 18.8219336,10.4948047 C18.743457,11.0126953 18.2888672,11.4080859 17.763457,11.4080859 Z" id="Shape"></path>
                </g>
                <path d="M13.3317188,15.0854102 C10.66625,14.9754883 8.87236328,16.4029688 7.83015625,17.8449414 C7.72761719,17.7095898 7.61824219,17.5731445 7.50148438,17.4386133 C6.22083984,15.9619141 4.66115234,15.3864648 3.11021484,15.8193164 C2.54078125,15.9781836 2.20787109,16.5686719 2.36660156,17.1379688 C2.52560547,17.7074023 3.11636719,18.0404492 3.68539062,17.8814453 C4.4865625,17.6580469 5.19955078,18.1137305 5.74943359,18.6992969 C4.05097656,18.7821484 2.05775391,19.4569922 0.68796875,21.49875 C0.358613281,21.989707 0.489589844,22.654707 0.980546875,22.9841992 C1.16361328,23.1069727 1.37087891,23.1657617 1.57595703,23.1657617 C1.92076172,23.1657617 2.25941406,22.999375 2.46585937,22.6914844 C4.24949219,20.0325781 7.41083984,20.9890625 7.55576172,21.0348633 C7.55808594,21.0355469 7.56027344,21.0355469 7.56246094,21.0362305 C7.66513672,21.0686328 7.77300781,21.0864063 7.88388672,21.0864063 C7.89947266,21.0864063 7.91519531,21.0861328 7.93064453,21.0854492 C8.37607422,21.0660352 8.76298828,20.7726367 8.90162109,20.3486719 C8.91214844,20.3159961 10.0001562,17.0914844 13.2433984,17.2245117 C13.8304687,17.2485742 14.3327734,16.7896094 14.3569727,16.1988477 C14.381582,15.6082227 13.922207,15.1096094 13.3317188,15.0854102 Z" id="Shape" fill="#499421"></path>
            </g>
        </g>
    </g>
</svg>