<?xml version="1.0" encoding="UTF-8"?>
<svg width="70px" height="70px" viewBox="0 0 70 70" version="1.1" xmlns="http://www.w3.org/2000/svg" xmlns:xlink="http://www.w3.org/1999/xlink">
    <!-- Generator: Sketch 47.1 (45422) - http://www.bohemiancoding.com/sketch -->
    <title>old-arhitecture</title>
    <desc>Created with Sketch.</desc>
    <defs></defs>
    <g id="Page-1" stroke="none" stroke-width="1" fill="none" fill-rule="evenodd">
        <g id="2-9-2-apartments-lviv" transform="translate(-369.000000, -1809.000000)" fill-rule="nonzero">
            <g id="old-arhitecture" transform="translate(369.000000, 1809.000000)">
                <polygon id="Shape" fill="#CF9E76" points="68.8709677 63.2258065 68.8709677 68.8709677 1.12903226 68.8709677 1.12903226 63.2258065"></polygon>
                <g id="Group" transform="translate(1.129032, 39.516129)" fill="#E6E9ED">
                    <polygon id="Shape" points="49.6774194 0 54.1935484 0 54.1935484 4.51612903 49.6774194 4.51612903"></polygon>
                    <polygon id="Shape" points="45.1612903 0 45.1612903 4.51612903 41.7741935 4.51612903 41.7741935 0"></polygon>
                    <polygon id="Shape" points="58.7096774 0 63.2258065 0 63.2258065 4.51612903 58.7096774 4.51612903"></polygon>
                    <polygon id="Shape" points="63.2258065 0 67.7419355 0 67.7419355 4.51612903 63.2258065 4.51612903"></polygon>
                    <polygon id="Shape" points="54.1935484 0 58.7096774 0 58.7096774 4.51612903 54.1935484 4.51612903"></polygon>
                    <polygon id="Shape" points="45.1612903 0 49.6774194 0 49.6774194 4.51612903 45.1612903 4.51612903"></polygon>
                    <polygon id="Shape" points="30.483871 4.51612903 33.8709677 4.51612903 33.8709677 9.03225806 29.3548387 9.03225806 29.3548387 4.51612903"></polygon>
                    <polygon id="Shape" points="25.9677419 4.51612903 29.3548387 4.51612903 29.3548387 9.03225806 24.8387097 9.03225806 24.8387097 4.51612903"></polygon>
                    <polygon id="Shape" points="42.9032258 4.51612903 42.9032258 9.03225806 38.3870968 9.03225806 38.3870968 4.51612903"></polygon>
                    <polygon id="Shape" points="38.3870968 4.51612903 38.3870968 9.03225806 33.8709677 9.03225806 33.8709677 4.51612903"></polygon>
                    <polygon id="Shape" points="0 0 4.51612903 0 4.51612903 4.51612903 0 4.51612903"></polygon>
                    <polygon id="Shape" points="4.51612903 0 9.03225806 0 9.03225806 4.51612903 4.51612903 4.51612903"></polygon>
                    <polygon id="Shape" points="25.9677419 0 25.9677419 4.51612903 22.5806452 4.51612903 22.5806452 0"></polygon>
                    <polygon id="Shape" points="9.03225806 0 13.5483871 0 13.5483871 4.51612903 9.03225806 4.51612903"></polygon>
                    <polygon id="Shape" points="13.5483871 0 18.0645161 0 18.0645161 4.51612903 13.5483871 4.51612903"></polygon>
                    <polygon id="Shape" points="18.0645161 0 22.5806452 0 22.5806452 4.51612903 18.0645161 4.51612903"></polygon>
                </g>
                <path d="M7.90322581,54.1935484 C6.6611801,54.1935484 5.64516129,55.2095672 5.64516129,56.4516129 L5.64516129,63.2258065 L1.12903226,63.2258065 L1.12903226,44.0322581 L14.6774194,44.0322581 L14.6774194,63.2258065 L10.1612903,63.2258065 L10.1612903,56.4516129 C10.1612903,55.8308656 9.91266063,55.2663495 9.4953377,54.859501 C9.08848923,54.4421781 8.5239731,54.1935484 7.90322581,54.1935484 Z" id="Shape" fill="#CCD1D9"></path>
                <path d="M25.9677419,44.0322581 L25.9677419,56.4516129 C25.9677419,55.8308656 25.7191122,55.2663495 25.3017893,54.859501 C24.8949408,54.4421781 24.3304247,54.1935484 23.7096774,54.1935484 C22.4676317,54.1935484 21.4516129,55.2095672 21.4516129,56.4516129 L21.4516129,63.2258065 L14.6774194,63.2258065 L14.6774194,44.0322581 L25.9677419,44.0322581 Z" id="Shape" fill="#CCD1D9"></path>
                <path d="M44.0322581,56.4516129 L44.0322581,63.2258065 L39.516129,63.2258065 L39.516129,57.5806452 C39.516129,56.3385995 39.0078441,55.2095672 38.1952495,54.3853957 C37.371078,53.5728011 36.2420457,53.0645161 35,53.0645161 C32.5048827,53.0645161 30.483871,55.0855279 30.483871,57.5806452 L30.483871,63.2258065 L25.9677419,63.2258065 L25.9677419,48.5483871 L44.0322581,48.5483871 L44.0322581,56.4516129 Z" id="Shape" fill="#CCD1D9"></path>
                <path d="M62.0967742,54.1935484 C61.4760269,54.1935484 60.9115108,54.4421781 60.5046623,54.859501 C60.0873394,55.2663495 59.8387097,55.8308656 59.8387097,56.4516129 L59.8387097,63.2258065 L55.3225806,63.2258065 L55.3225806,44.0322581 L68.8709677,44.0322581 L68.8709677,63.2258065 L64.3548387,63.2258065 L64.3548387,56.4516129 C64.3548387,55.2095672 63.3388199,54.1935484 62.0967742,54.1935484 Z" id="Shape" fill="#CCD1D9"></path>
                <path d="M46.2903226,44.0322581 L55.3225806,44.0322581 L55.3225806,63.2258065 L48.5483871,63.2258065 L48.5483871,56.4516129 C48.5483871,55.2095672 47.5323683,54.1935484 46.2903226,54.1935484 C45.6695753,54.1935484 45.1050592,54.4421781 44.6982107,54.859501 C44.2808878,55.2663495 44.0322581,55.8308656 44.0322581,56.4516129 L44.0322581,44.0322581 L46.2903226,44.0322581 Z" id="Shape" fill="#CCD1D9"></path>
                <path d="M68.8709677,25.9677419 L68.8709677,39.516129 L55.3225806,39.516129 L55.3225806,25.9677419 L68.8709677,25.9677419 Z M64.3548387,35 L64.3548387,30.483871 L59.8387097,30.483871 L59.8387097,35 L64.3548387,35 Z" id="Shape" fill="#CCD1D9"></path>
                <polygon id="Shape" fill="#CCD1D9" points="41.7741935 25.9677419 55.3225806 25.9677419 55.3225806 39.516129 42.9032258 39.516129 42.9032258 29.3548387 44.0322581 29.3548387 41.5029612 26.1937688"></polygon>
                <path d="M35,32.7419355 C33.12563,32.7419355 31.6129032,34.2546623 31.6129032,36.1290323 L31.6129032,44.0322581 L27.0967742,44.0322581 L27.0967742,29.3548387 L42.9032258,29.3548387 L42.9032258,44.0322581 L38.3870968,44.0322581 L38.3870968,36.1290323 C38.3870968,35.1918473 38.0034022,34.3450731 37.3936808,33.7353515 C36.7839592,33.12563 35.937185,32.7419355 35,32.7419355 Z" id="Shape" fill="#CCD1D9"></path>
                <polygon id="Shape" fill="#CCD1D9" points="28.4970388 26.1937688 25.9677419 29.3548387 27.0967742 29.3548387 27.0967742 39.516129 14.6774194 39.516129 14.6774194 25.9677419 28.2258065 25.9677419"></polygon>
                <path d="M14.6774194,25.9677419 L14.6774194,39.516129 L1.12903226,39.516129 L1.12903226,25.9677419 L14.6774194,25.9677419 Z M10.1612903,35 L10.1612903,30.483871 L5.64516129,30.483871 L5.64516129,35 L10.1612903,35 Z" id="Shape" fill="#CCD1D9"></path>
                <path d="M10.1612903,56.4516129 L10.1612903,63.2258065 L5.64516129,63.2258065 L5.64516129,56.4516129 C5.64516129,55.2095672 6.6611801,54.1935484 7.90322581,54.1935484 C8.5239731,54.1935484 9.08848923,54.4421781 9.4953377,54.859501 C9.91266063,55.2663495 10.1612903,55.8308656 10.1612903,56.4516129 Z" id="Shape" fill="#B27946"></path>
                <path d="M25.9677419,56.4516129 L25.9677419,63.2258065 L21.4516129,63.2258065 L21.4516129,56.4516129 C21.4516129,55.2095672 22.4676317,54.1935484 23.7096774,54.1935484 C24.3304247,54.1935484 24.8949408,54.4421781 25.3017893,54.859501 C25.7191122,55.2663495 25.9677419,55.8308656 25.9677419,56.4516129 Z" id="Shape" fill="#B27946"></path>
                <path d="M39.516129,57.5806452 L39.516129,63.2258065 L30.483871,63.2258065 L30.483871,57.5806452 C30.483871,55.0855279 32.5048827,53.0645161 35,53.0645161 C36.2420457,53.0645161 37.371078,53.5728011 38.1952495,54.3853957 C39.0078441,55.2095672 39.516129,56.3385995 39.516129,57.5806452 Z" id="Shape" fill="#B27946"></path>
                <path d="M48.5483871,56.4516129 L48.5483871,63.2258065 L44.0322581,63.2258065 L44.0322581,56.4516129 C44.0322581,55.8308656 44.2808878,55.2663495 44.6982107,54.859501 C45.1050592,54.4421781 45.6695753,54.1935484 46.2903226,54.1935484 C47.5323683,54.1935484 48.5483871,55.2095672 48.5483871,56.4516129 Z" id="Shape" fill="#B27946"></path>
                <path d="M64.3548387,56.4516129 L64.3548387,63.2258065 L59.8387097,63.2258065 L59.8387097,56.4516129 C59.8387097,55.8308656 60.0873394,55.2663495 60.5046623,54.859501 C60.9115108,54.4421781 61.4760269,54.1935484 62.0967742,54.1935484 C63.3388199,54.1935484 64.3548387,55.2095672 64.3548387,56.4516129 Z" id="Shape" fill="#B27946"></path>
                <polygon id="Shape" fill="#F0D0B4" points="59.8387097 30.483871 64.3548387 30.483871 64.3548387 35 59.8387097 35"></polygon>
                <path d="M38.3870968,36.1290323 L38.3870968,44.0322581 L31.6129032,44.0322581 L31.6129032,36.1290323 C31.6129032,34.2546623 33.12563,32.7419355 35,32.7419355 C35.937185,32.7419355 36.7839592,33.12563 37.3936808,33.7353515 C38.0034022,34.3450731 38.3870968,35.1918473 38.3870968,36.1290323 Z" id="Shape" fill="#B27946"></path>
                <polygon id="Shape" fill="#F0D0B4" points="5.64516129 30.483871 10.1612903 30.483871 10.1612903 35 5.64516129 35"></polygon>
                <polygon id="Shape" fill="#656D78" points="62.0967742 13.5483871 68.8709677 25.9677419 55.3225806 25.9677419"></polygon>
                <polygon id="Shape" fill="#656D78" points="41.5029612 26.1937688 44.0322581 29.3548387 25.9677419 29.3548387 28.4970388 26.1937688 35 18.0645161"></polygon>
                <polygon id="Shape" fill="#656D78" points="48.5483871 9.03225806 48.5483871 13.5483871 21.4516129 13.5483871 21.4516129 9.03225806"></polygon>
                <polygon id="Shape" fill="#656D78" points="48.5483871 13.5483871 55.3225806 25.9677419 41.7741935 25.9677419 41.5029612 26.1937688 35 18.0645161 28.4970388 26.1937688 28.2258065 25.9677419 14.6774194 25.9677419 21.4516129 13.5483871"></polygon>
                <polygon id="Shape" fill="#656D78" points="7.90322581 13.5483871 14.6774194 25.9677419 1.12903226 25.9677419"></polygon>
                <path d="M11.2903226,36.1290323 L11.2903226,29.3548387 L4.51612903,29.3548387 L4.51612903,36.1290323 L11.2903226,36.1290323 Z M6.77419355,31.6129032 L9.03225806,31.6129032 L9.03225806,33.8709677 L6.77419355,33.8709677 L6.77419355,31.6129032 Z" id="Shape" fill="#515B68"></path>
                <path d="M63.2258065,13.2606162 L63.2258065,5.64516129 L60.9677419,5.64516129 L60.9677419,13.2606162 L55.3225806,23.6104461 L49.6774194,13.2606162 L49.6774194,7.90322581 L47.4193548,7.90322581 L47.4193548,0 L45.1612903,0 L45.1612903,7.90322581 L24.8387097,7.90322581 L24.8387097,0 L22.5806452,0 L22.5806452,7.90322581 L20.3225806,7.90322581 L20.3225806,13.2606162 L14.6774194,23.6104461 L9.03225806,13.2606162 L9.03225806,5.64516129 L6.77419355,5.64516129 L6.77419355,13.2606162 L0,25.6799711 L0,70 L70,70 L70,25.6799711 L63.2258065,13.2606162 Z M63.2258065,62.0967742 L60.9677419,62.0967742 L60.9677419,56.4516129 C60.9677419,55.8297631 61.4738219,55.3225806 62.0967742,55.3225806 C62.7197265,55.3225806 63.2258065,55.8297631 63.2258065,56.4516129 L63.2258065,62.0967742 Z M62.0967742,53.0645161 C60.2295709,53.0645161 58.7096774,54.5844096 58.7096774,56.4516129 L58.7096774,62.0967742 L56.4516129,62.0967742 L56.4516129,45.1612903 L67.7419355,45.1612903 L67.7419355,62.0967742 L65.483871,62.0967742 L65.483871,56.4516129 C65.483871,54.5844096 63.9639775,53.0645161 62.0967742,53.0645161 Z M38.3870968,62.0967742 L31.6129032,62.0967742 L31.6129032,57.5806452 C31.6129032,55.7134419 33.1327967,54.1935484 35,54.1935484 C36.8672033,54.1935484 38.3870968,55.7134419 38.3870968,57.5806452 L38.3870968,62.0967742 Z M35,51.9354839 C31.8874432,51.9354839 29.3548387,54.4680884 29.3548387,57.5806452 L29.3548387,62.0967742 L27.0967742,62.0967742 L27.0967742,49.6774194 L42.9032258,49.6774194 L42.9032258,62.0967742 L40.6451613,62.0967742 L40.6451613,57.5806452 C40.6451613,54.4680884 38.1125568,51.9354839 35,51.9354839 Z M9.03225806,62.0967742 L6.77419355,62.0967742 L6.77419355,56.4516129 C6.77419355,55.8297631 7.28027351,55.3225806 7.90322581,55.3225806 C8.5261781,55.3225806 9.03225806,55.8297631 9.03225806,56.4516129 L9.03225806,62.0967742 Z M7.90322581,53.0645161 C6.03602252,53.0645161 4.51612903,54.5844096 4.51612903,56.4516129 L4.51612903,62.0967742 L2.25806452,62.0967742 L2.25806452,45.1612903 L13.5483871,45.1612903 L13.5483871,62.0967742 L11.2903226,62.0967742 L11.2903226,56.4516129 C11.2903226,54.5844096 9.77042909,53.0645161 7.90322581,53.0645161 Z M60.9677419,42.9032258 L60.9677419,40.6451613 L63.2258065,40.6451613 L63.2258065,42.9032258 L60.9677419,42.9032258 Z M58.7096774,42.9032258 L56.4516129,42.9032258 L56.4516129,40.6451613 L58.7096774,40.6451613 L58.7096774,42.9032258 Z M42.9032258,47.4193548 L40.6451613,47.4193548 L40.6451613,45.1612903 L42.9032258,45.1612903 L42.9032258,47.4193548 Z M9.03225806,40.6451613 L9.03225806,42.9032258 L6.77419355,42.9032258 L6.77419355,40.6451613 L9.03225806,40.6451613 Z M11.2903226,40.6451613 L13.5483871,40.6451613 L13.5483871,42.9032258 L11.2903226,42.9032258 L11.2903226,40.6451613 Z M26.3277312,27.0967742 L23.618164,30.483871 L25.9677419,30.483871 L25.9677419,38.3870968 L15.8064516,38.3870968 L15.8064516,27.0967742 L26.3277312,27.0967742 Z M41.7741935,30.483871 L41.7741935,42.9032258 L39.516129,42.9032258 L39.516129,36.1290323 C39.516129,33.6383253 37.490707,31.6129032 35,31.6129032 C32.509293,31.6129032 30.483871,33.6383253 30.483871,36.1290323 L30.483871,42.9032258 L28.2258065,42.9032258 L28.2258065,30.483871 L41.7741935,30.483871 Z M28.3173199,28.2258065 L35,19.8721806 L41.6826801,28.2258065 L28.3173199,28.2258065 Z M44.0322581,40.6451613 L45.1612903,40.6451613 L45.1612903,42.9032258 L44.0322581,42.9032258 L44.0322581,40.6451613 Z M32.7419355,42.9032258 L32.7419355,36.1290323 C32.7419355,34.8836788 33.7546465,33.8709677 35,33.8709677 C36.2453535,33.8709677 37.2580645,34.8836788 37.2580645,36.1290323 L37.2580645,42.9032258 L32.7419355,42.9032258 Z M25.9677419,40.6451613 L25.9677419,42.9032258 L24.8387097,42.9032258 L24.8387097,40.6451613 L25.9677419,40.6451613 Z M15.8064516,40.6451613 L18.0645161,40.6451613 L18.0645161,42.9032258 L15.8064516,42.9032258 L15.8064516,40.6451613 Z M20.3225806,40.6451613 L22.5806452,40.6451613 L22.5806452,42.9032258 L20.3225806,42.9032258 L20.3225806,40.6451613 Z M27.0967742,45.1612903 L29.3548387,45.1612903 L29.3548387,47.4193548 L27.0967742,47.4193548 L27.0967742,45.1612903 Z M31.6129032,45.1612903 L33.8709677,45.1612903 L33.8709677,47.4193548 L31.6129032,47.4193548 L31.6129032,45.1612903 Z M36.1290323,45.1612903 L38.3870968,45.1612903 L38.3870968,47.4193548 L36.1290323,47.4193548 L36.1290323,45.1612903 Z M47.4193548,40.6451613 L49.6774194,40.6451613 L49.6774194,42.9032258 L47.4193548,42.9032258 L47.4193548,40.6451613 Z M51.9354839,40.6451613 L54.1935484,40.6451613 L54.1935484,42.9032258 L51.9354839,42.9032258 L51.9354839,40.6451613 Z M44.0322581,38.3870968 L44.0322581,30.483871 L46.381836,30.483871 L43.6722688,27.0967742 L54.1935484,27.0967742 L54.1935484,38.3870968 L44.0322581,38.3870968 Z M41.865707,24.8387097 L35,16.2568517 L28.134293,24.8387097 L16.5799049,24.8387097 L22.1225271,14.6774194 L47.8774729,14.6774194 L53.4200951,24.8387097 L41.865707,24.8387097 Z M13.5483871,27.0967742 L13.5483871,38.3870968 L2.25806452,38.3870968 L2.25806452,27.0967742 L13.5483871,27.0967742 Z M3.0315178,24.8387097 L7.90322581,15.905683 L12.7749338,24.8387097 L3.0315178,24.8387097 Z M4.51612903,40.6451613 L4.51612903,42.9032258 L2.25806452,42.9032258 L2.25806452,40.6451613 L4.51612903,40.6451613 Z M15.8064516,45.1612903 L24.8387097,45.1612903 L24.8387097,53.2723506 C24.4842332,53.1455551 24.1071541,53.0645161 23.7096774,53.0645161 C21.8424741,53.0645161 20.3225806,54.5844096 20.3225806,56.4516129 L20.3225806,62.0967742 L15.8064516,62.0967742 L15.8064516,45.1612903 Z M22.5806452,56.4516129 C22.5806452,55.8297631 23.0867251,55.3225806 23.7096774,55.3225806 C24.3326297,55.3225806 24.8387097,55.8297631 24.8387097,56.4516129 L24.8387097,62.0967742 L22.5806452,62.0967742 L22.5806452,56.4516129 Z M45.1612903,56.4516129 C45.1612903,55.8297631 45.6673703,55.3225806 46.2903226,55.3225806 C46.9132749,55.3225806 47.4193548,55.8297631 47.4193548,56.4516129 L47.4193548,62.0967742 L45.1612903,62.0967742 L45.1612903,56.4516129 Z M46.2903226,53.0645161 C45.8928459,53.0645161 45.5157668,53.1455551 45.1612903,53.2723506 L45.1612903,45.1612903 L54.1935484,45.1612903 L54.1935484,62.0967742 L49.6774194,62.0967742 L49.6774194,56.4516129 C49.6774194,54.5844096 48.1575259,53.0645161 46.2903226,53.0645161 Z M65.483871,42.9032258 L65.483871,40.6451613 L67.7419355,40.6451613 L67.7419355,42.9032258 L65.483871,42.9032258 Z M56.4516129,38.3870968 L56.4516129,27.0967742 L67.7419355,27.0967742 L67.7419355,38.3870968 L56.4516129,38.3870968 Z M57.2250662,24.8387097 L62.0967742,15.905683 L66.9684822,24.8387097 L57.2250662,24.8387097 Z M22.5806452,10.1612903 L47.4193548,10.1612903 L47.4193548,12.4193548 L22.5806452,12.4193548 L22.5806452,10.1612903 Z M2.25806452,67.7419355 L2.25806452,64.3548387 L67.7419355,64.3548387 L67.7419355,67.7419355 L2.25806452,67.7419355 Z" id="Shape" fill="#515B68"></path>
                <path d="M58.7096774,29.3548387 L58.7096774,36.1290323 L65.483871,36.1290323 L65.483871,29.3548387 L58.7096774,29.3548387 Z M63.2258065,33.8709677 L60.9677419,33.8709677 L60.9677419,31.6129032 L63.2258065,31.6129032 L63.2258065,33.8709677 Z" id="Shape" fill="#515B68"></path>
                <polygon id="Shape" fill="#515B68" points="60.9677419 48.5483871 63.2258065 48.5483871 63.2258065 50.8064516 60.9677419 50.8064516"></polygon>
                <polygon id="Shape" fill="#515B68" points="6.77419355 48.5483871 9.03225806 48.5483871 9.03225806 50.8064516 6.77419355 50.8064516"></polygon>
            </g>
        </g>
    </g>
</svg>