<?xml version="1.0" encoding="UTF-8"?>
<svg width="20px" height="17px" viewBox="0 0 20 17" version="1.1" xmlns="http://www.w3.org/2000/svg" xmlns:xlink="http://www.w3.org/1999/xlink">
    <!-- Generator: Sketch 47.1 (45422) - http://www.bohemiancoding.com/sketch -->
    <title>paper-plane</title>
    <desc>Created with Sketch.</desc>
    <defs></defs>
    <g id="Page-1" stroke="none" stroke-width="1" fill="none" fill-rule="evenodd">
        <g id="1-1-coworking-main-1170" transform="translate(-1150.000000, -7974.000000)" fill-rule="nonzero" fill="#FFFFFF">
            <g id="Group-27" transform="translate(832.000000, 7960.000000)">
                <g id="paper-plane" transform="translate(318.000000, 14.000000)">
                    <path d="M0.00175152749,8.50789858 C0.026191446,8.91285142 0.29910387,9.2536533 0.694215886,9.36992689 L8.00989817,11.5470495 L8.27873727,16.5107288 C8.29095723,16.707191 8.42537678,16.8795967 8.61682281,16.9437476 C8.66977597,16.9637948 8.72680244,16.9718137 8.7797556,16.9718137 C8.92232179,16.9718137 9.05674134,16.9156816 9.15450102,16.8074269 L11.7410591,13.9887948 L15.4070468,16.4866722 C15.5699796,16.5989363 15.7614257,16.6590778 15.9610183,16.6590778 C16.4213035,16.6590778 16.8204888,16.3383231 16.9182485,15.8892665 L19.9610183,0.625351415 C19.9976782,0.448936321 19.9284318,0.264502358 19.7899389,0.152238208 C19.6473727,0.0359646226 19.4559267,0.00789858491 19.2848473,0.0760589623 L0.588309572,7.5656816 C0.209490835,7.73407783 -0.022688391,8.10294575 0.00175152749,8.50789858 Z M9.20745418,15.2798325 L9.04044807,12.1484646 L10.9141752,13.4234646 L9.20745418,15.2798325 Z M15.9447251,15.6607288 L9.27262729,11.1140307 L18.6290428,2.2050684 L15.9447251,15.6607288 Z M17.6025662,1.81214387 L8.35205703,10.6208703 L1.04452138,8.44775708 L17.6025662,1.81214387 Z" id="Shape"></path>
                </g>
            </g>
        </g>
    </g>
</svg>