<?xml version="1.0" encoding="UTF-8"?>
<svg width="91px" height="50px" viewBox="0 0 91 50" version="1.1" xmlns="http://www.w3.org/2000/svg" xmlns:xlink="http://www.w3.org/1999/xlink">
    <!-- Generator: Sketch 47.1 (45422) - http://www.bohemiancoding.com/sketch -->
    <title>park</title>
    <desc>Created with Sketch.</desc>
    <defs></defs>
    <g id="Page-1" stroke="none" stroke-width="1" fill="none" fill-rule="evenodd">
        <g id="2-9-2-apartments-lviv" transform="translate(-589.000000, -1826.000000)" fill-rule="nonzero">
            <g id="park" transform="translate(589.000000, 1826.000000)">
                <rect id="Rectangle-path" fill="#8C5F50" x="78.6760638" y="39.3735816" width="3.02606383" height="9.07801418"></rect>
                <path d="M86.2411348,36.3475177 C86.2411348,39.6898936 83.5315603,42.3994681 80.1891844,42.3994681 C76.8468085,42.3994681 74.1370567,39.6898936 74.1370567,36.3475177 C74.1370567,25.7565603 76.8466312,12.139539 80.1890071,12.139539 C83.531383,12.139539 86.2411348,25.7565603 86.2411348,36.3475177 Z" id="Shape" fill="#92C64B"></path>
                <path d="M78.6760638,36.3475177 C78.6760638,27.6617021 80.043617,16.9546099 81.9182624,13.3781915 C81.3702128,12.593617 80.7904255,12.1393617 80.1890071,12.1393617 C76.8464539,12.1393617 74.1370567,25.756383 74.1370567,36.3473404 C74.1370567,39.6897163 76.8464539,42.3992908 80.1890071,42.3992908 C80.7939716,42.3992908 81.366844,42.2835106 81.9182624,42.1182624 C80.0480496,41.3705674 78.6760638,39.0847518 78.6760638,36.3475177 Z" id="Shape" fill="#8CBE4B"></path>
                <g id="Group" transform="translate(42.198582, 33.156028)" fill="#959CB5">
                    <rect id="Rectangle-path" x="0.165425532" y="0.165425532" width="3.02606383" height="7.56507092"></rect>
                    <rect id="Rectangle-path" x="21.3475177" y="0.165425532" width="3.02606383" height="7.56507092"></rect>
                </g>
                <g id="Group" transform="translate(9.042553, 19.680851)" fill="#8C5F50">
                    <rect id="Rectangle-path" x="39.3735816" y="0.0235815603" width="3.02606383" height="28.7469858"></rect>
                    <rect id="Rectangle-path" x="10.6264184" y="16.6666667" width="3.02606383" height="12.104078"></rect>
                    <rect id="Rectangle-path" x="0.0354609929" y="19.6927305" width="3.02606383" height="9.07801418"></rect>
                </g>
                <g id="Group" transform="translate(33.156028, 34.751773)" fill="#959CB5">
                    <path d="M1.64308511,0.0828014184 C0.806737589,0.0828014184 0.130141844,0.759574468 0.130141844,1.59574468 C0.130141844,2.43191489 0.806914894,3.10868794 1.64308511,3.10868794 C2.47783688,3.10868794 3.15602837,3.78687943 3.15602837,4.62163121 L3.15602837,13.6996454 L6.1820922,13.6996454 L6.1820922,4.62163121 C6.1820922,2.11861702 4.14592199,0.0828014184 1.64308511,0.0828014184 Z" id="Shape"></path>
                    <path d="M40.9810284,0.0828014184 C38.4781915,0.0828014184 36.4420213,2.11897163 36.4420213,4.62180851 L36.4420213,13.6998227 L39.4680851,13.6998227 L39.4680851,4.62180851 C39.4680851,3.78705674 40.1462766,3.10886525 40.9810284,3.10886525 C41.8173759,3.10886525 42.4939716,2.4320922 42.4939716,1.59592199 C42.4939716,0.759751773 41.8171986,0.0828014184 40.9810284,0.0828014184 Z" id="Shape"></path>
                </g>
                <g id="Group" transform="translate(1.418440, 0.000000)" fill="#92C64B">
                    <path d="M30.3546099,28.7824468 C30.3546099,34.6317376 25.6129433,39.3734043 19.7636525,39.3734043 C13.9143617,39.3734043 9.17269504,34.6317376 9.17269504,28.7824468 C9.17269504,15.1654255 13.9143617,0.0354609929 19.7636525,0.0354609929 C25.6129433,0.0354609929 30.3546099,15.1654255 30.3546099,28.7824468 Z" id="Shape"></path>
                    <path d="M18.2505319,33.8452128 C18.2505319,38.5695035 14.1861702,42.3994681 9.17251773,42.3994681 C4.15886525,42.3994681 0.0945035461,38.5696809 0.0945035461,33.8452128 C0.0945035461,22.8468085 4.15886525,10.6264184 9.17251773,10.6264184 C14.1861702,10.6264184 18.2505319,22.8468085 18.2505319,33.8452128 Z" id="Shape"></path>
                    <circle id="Oval" cx="48.5106383" cy="12.139539" r="10.5909574"></circle>
                </g>
                <path d="M89.2671986,49.964539 L1.51294326,49.964539 C0.67677305,49.964539 0,49.287766 0,48.4515957 C0,47.6154255 0.67677305,46.9386525 1.51294326,46.9386525 L89.2670213,46.9386525 C90.1033688,46.9386525 90.7799645,47.6154255 90.7799645,48.4515957 C90.7799645,49.287766 90.1031915,49.964539 89.2671986,49.964539 Z" id="Shape" fill="#8CBE4B"></path>
                <g id="Group" transform="translate(1.418440, 0.000000)" fill="#8CBE4B">
                    <path d="M15.2246454,28.7824468 C15.2246454,16.3618794 17.8551418,2.68847518 21.2765957,0.380496454 C20.7822695,0.158333333 20.2774823,0.0352836879 19.7636525,0.0352836879 C13.9143617,0.0352836879 9.17269504,15.1652482 9.17269504,28.7822695 C9.17269504,34.6315603 13.9143617,39.373227 19.7636525,39.373227 C20.2789007,39.373227 20.7812057,39.3241135 21.2765957,39.2530142 C17.8562057,38.5171986 15.2246454,34.1166667 15.2246454,28.7824468 Z" id="Shape"></path>
                    <path d="M6.14663121,33.8452128 C6.14663121,23.9195035 8.07960993,13.0301418 10.6060284,10.9943262 C10.1379433,10.7742908 9.66152482,10.6264184 9.17269504,10.6264184 C4.15904255,10.6264184 0.0946808511,22.8468085 0.0946808511,33.8452128 C0.0946808511,38.5695035 4.15904255,42.3994681 9.17269504,42.3994681 C9.66152482,42.3994681 10.1379433,42.3528369 10.6060284,42.2826241 C8.07960993,41.6335106 6.14663121,38.1088652 6.14663121,33.8452128 Z" id="Shape"></path>
                    <path d="M43.9716312,12.139539 C43.9716312,7.34255319 47.1629433,3.29539007 51.5367021,1.9929078 C50.577305,1.7070922 49.5629433,1.54840426 48.5106383,1.54840426 C42.6613475,1.54840426 37.9196809,6.29007092 37.9196809,12.1393617 C37.9196809,17.9886525 42.6613475,22.7304965 48.5106383,22.7304965 C49.5629433,22.7304965 50.5771277,22.5718085 51.5367021,22.2859929 C47.162766,20.9833333 43.9716312,16.9365248 43.9716312,12.139539 Z" id="Shape"></path>
                </g>
                <g id="Group" transform="translate(36.170213, 28.723404)" fill="#EBC9A0">
                    <path d="M30.4019504,6.11117021 L6.19379433,6.11117021 C5.35815603,6.11117021 4.68085106,5.43368794 4.68085106,4.59822695 L4.68085106,1.57216312 C4.68085106,0.736524823 5.35833333,0.0592198582 6.19379433,0.0592198582 L30.401773,0.0592198582 C31.2374113,0.0592198582 31.9147163,0.736702128 31.9147163,1.57216312 L31.9147163,4.59822695 C31.9148936,5.43368794 31.2374113,6.11117021 30.4019504,6.11117021 Z" id="Shape"></path>
                    <path d="M34.9409574,13.6760638 L1.65478723,13.6760638 C0.818439716,13.6760638 0.141843972,12.9992908 0.141843972,12.1631206 C0.141843972,11.3269504 0.818617021,10.6501773 1.65478723,10.6501773 L34.9407801,10.6501773 C35.7771277,10.6501773 36.4537234,11.3269504 36.4537234,12.1631206 C36.4537234,12.9992908 35.7771277,13.6760638 34.9409574,13.6760638 Z" id="Shape"></path>
                </g>
            </g>
        </g>
    </g>
</svg>