<?xml version="1.0" encoding="UTF-8"?>
<svg width="16px" height="16px" viewBox="0 0 16 16" version="1.1" xmlns="http://www.w3.org/2000/svg" xmlns:xlink="http://www.w3.org/1999/xlink">
    <!-- Generator: Sketch 47.1 (45422) - http://www.bohemiancoding.com/sketch -->
    <title>phone-pink</title>
    <desc>Created with Sketch.</desc>
    <defs>
        <linearGradient x1="0%" y1="50%" x2="100%" y2="50%" id="linearGradient-1">
            <stop stop-color="#9D1EBB" offset="0%"></stop>
            <stop stop-color="#E756BD" offset="100%"></stop>
        </linearGradient>
    </defs>
    <g id="Page-1" stroke="none" stroke-width="1" fill="none" fill-rule="evenodd">
        <g id="1-1-coworking-main-1170" transform="translate(-607.000000, -149.000000)" fill="url(#linearGradient-1)">
            <path d="M618.644056,165 C618.632397,165 618.620739,165 618.608945,164.999819 C617.506048,164.994351 616.305411,164.714908 615.040155,164.169125 C614.696322,164.020862 614.537984,163.621941 614.686245,163.278239 C614.834325,162.934402 615.233288,162.776063 615.577121,162.924325 C616.658463,163.390893 617.709258,163.639745 618.615813,163.644173 C619.754317,163.649279 620.706287,163.308425 621.365892,162.656224 L621.3691,162.652699 C621.753195,162.224812 621.729698,161.577174 621.315959,161.178072 C619.683915,159.604257 618.919249,159.712077 618.216173,160.397491 L617.057877,161.54735 C616.859322,161.744326 616.560134,161.79941 616.304553,161.685536 C616.238533,161.656073 614.668577,160.945579 612.90237,159.179353 L612.820852,159.098014 C611.054284,157.331426 610.343797,155.761498 610.314516,155.695478 C610.200643,155.439893 610.255546,155.140657 610.452564,154.942281 L611.602365,153.783791 C612.287953,153.080572 612.395635,152.316078 610.821838,150.683971 C610.422876,150.270228 609.775065,150.246956 609.347409,150.630875 L609.343884,150.634038 C608.691645,151.293695 608.350071,152.244229 608.355719,153.384147 C608.3667,155.600312 609.626307,158.17622 611.72505,160.274986 C612.125368,160.675173 612.582713,161.073236 613.084386,161.457832 C613.38145,161.685716 613.437574,162.111118 613.209873,162.408231 C612.981991,162.705298 612.556413,162.761422 612.25953,162.533718 C611.710725,162.113061 611.208554,161.675685 610.766574,161.233473 C608.42088,158.887934 607.012831,155.956169 607.000088,153.39106 C606.992497,151.873866 607.475643,150.584783 608.397563,149.663214 C608.406058,149.654538 608.415051,149.646088 608.424043,149.637954 L608.441892,149.621912 C609.415506,148.747973 610.88962,148.801249 611.797757,149.742972 C612.640101,150.616369 613.126547,151.35 613.329394,152.051456 C613.611094,153.026527 613.355874,153.92871 612.570376,154.732924 C612.569156,154.734325 612.56771,154.73559 612.56649,154.73681 L611.764589,155.54473 C612.067121,156.074788 612.707882,157.067889 613.779147,158.139166 L613.860711,158.22055 C614.931795,159.291646 615.92466,159.93255 616.455254,160.235311 L617.263165,159.433536 L617.267051,159.42965 C618.071256,158.644189 618.973609,158.388921 619.94867,158.670669 C620.650164,158.873293 621.38356,159.359925 622.256948,160.202097 C623.19884,161.110471 623.251981,162.584555 622.378051,163.558225 L622.362145,163.575849 C622.354056,163.585067 622.345561,163.593879 622.33693,163.60251 C621.422196,164.517028 620.145824,165 618.644056,165" id="phone-pink"></path>
        </g>
    </g>
</svg>