<?xml version="1.0" encoding="UTF-8"?>
<svg width="13px" height="16px" viewBox="0 0 13 16" version="1.1" xmlns="http://www.w3.org/2000/svg" xmlns:xlink="http://www.w3.org/1999/xlink">
    <!-- Generator: Sketch 47.1 (45422) - http://www.bohemiancoding.com/sketch -->
    <title>pin-pink</title>
    <desc>Created with Sketch.</desc>
    <defs>
        <linearGradient x1="0%" y1="50%" x2="100%" y2="50%" id="linearGradient-1">
            <stop stop-color="#9D1EBB" offset="0%"></stop>
            <stop stop-color="#E756BD" offset="100%"></stop>
        </linearGradient>
    </defs>
    <g id="Page-1" stroke="none" stroke-width="1" fill="none" fill-rule="evenodd">
        <g id="1-1-coworking-main-1170" transform="translate(-900.000000, -150.000000)" fill="url(#linearGradient-1)">
            <g id="pin-pink" transform="translate(900.000000, 150.000000)">
                <path d="M6.3873291,10.0520313 C4.25864258,10.0520313 2.52680359,8.346875 2.52680359,6.25074219 C2.52680359,4.15480469 4.25864258,2.44964844 6.3873291,2.44964844 C8.51601562,2.44964844 10.2478546,4.15480469 10.2478546,6.25074219 C10.2478546,6.62277344 10.1933044,6.99050781 10.0857513,7.3440625 C9.99136963,7.65410156 9.6595459,7.83003906 9.34482117,7.73710937 C9.02989807,7.64417969 8.85121155,7.3175 8.94559326,7.00757813 C9.01997986,6.76332031 9.05766907,6.50863281 9.05766907,6.25074219 C9.05766907,4.80101562 7.85970764,3.62152344 6.3873291,3.62152344 C4.91479187,3.62152344 3.71683044,4.80101562 3.71683044,6.25074219 C3.71683044,7.70066406 4.91479187,8.88015625 6.3873291,8.88015625 C6.63651428,8.88015625 6.88323975,8.84644531 7.12020569,8.78003906 C7.43647766,8.69140625 7.76548462,8.87191406 7.85554199,9.18320313 C7.94555969,9.49433594 7.76207275,9.81855469 7.44607849,9.90707031 C7.10314636,10.0032031 6.74688416,10.0520313 6.3873291,10.0520313" id="Fill-3"></path>
                <path d="M6.3873291,1.171875 C3.54639587,1.171875 1.23235779,3.44757812 1.22906494,6.24480469 C1.23124695,8.47078125 2.61281433,9.96046875 4.21274109,11.6854688 C4.95430603,12.4850391 5.71753235,13.3082422 6.3873291,14.2566016 C7.05696716,13.3082422 7.82035217,12.4850391 8.56191711,11.6854688 C10.1616852,9.96046875 11.5432526,8.47078125 11.5455933,6.24359375 C11.5423004,3.44757812 9.22826233,1.171875 6.3873291,1.171875 M6.57391052,15.625 L6.20074768,15.625 C5.99663086,15.625 5.80679626,15.5219922 5.69769592,15.3521875 C5.01456909,14.2881641 4.16021423,13.3666797 3.33374939,12.4757422 C2.49272461,11.56875 1.69819641,10.7121094 1.08727417,9.73144531 C0.383081055,8.600625 0.0401489258,7.46015625 0.0388793945,6.24480469 C0.0429260254,2.80074219 2.89084167,0 6.3873291,0 C9.88381653,0 12.7317322,2.80074219 12.7357788,6.2434375 C12.7345093,7.46015625 12.3915771,8.600625 11.687384,9.73128906 C11.0764618,10.7121094 10.2819336,11.56875 9.44090881,12.4757422 C8.61444397,13.3666797 7.76008911,14.2880078 7.07696228,15.3521875 C6.96786194,15.5219922 6.77802734,15.625 6.57391052,15.625" id="Fill-5"></path>
            </g>
        </g>
    </g>
</svg>