<?xml version="1.0" encoding="UTF-8"?>
<svg width="65px" height="65px" viewBox="0 0 65 65" version="1.1" xmlns="http://www.w3.org/2000/svg" xmlns:xlink="http://www.w3.org/1999/xlink">
    <!-- Generator: Sketch 47.1 (45422) - http://www.bohemiancoding.com/sketch -->
    <title>playground</title>
    <desc>Created with Sketch.</desc>
    <defs></defs>
    <g id="Page-1" stroke="none" stroke-width="1" fill="none" fill-rule="evenodd">
        <g id="2-8-chisinau-apartments-inculet" transform="translate(-684.000000, -1815.000000)" fill-rule="nonzero">
            <g id="playground" transform="translate(684.000000, 1815.000000)">
                <path d="M52.631084,64.9983496 C49.5795117,64.9983496 46.8328809,63.185332 45.629873,60.3810645 L40.4360937,44.4556836 C39.8391602,43.0536133 38.4650195,42.1479297 36.936377,42.1479297 L32.3748242,42.1479297 L32.3748242,34.531123 L36.2668262,34.531123 C40.8432324,34.531123 44.9659082,37.2498242 46.7678809,41.4561621 L50.9723145,55.073916 C51.569248,56.4759863 52.9433887,57.3816699 54.4720313,57.3816699 L61.1916602,57.3816699 C63.291084,57.3816699 65,59.0905859 65,61.1900098 C65,63.2894336 63.291084,64.9983496 61.1916602,64.9983496 L52.631084,64.9983496 L52.631084,64.9983496 Z" id="Shape" fill="#48A7E6"></path>
                <rect id="Rectangle-path" fill="#B37447" x="13.3333789" y="49.7643555" width="11.4251465" height="3.80833984"></rect>
                <rect id="Rectangle-path" fill="#995C3D" x="19.0460156" y="49.7643555" width="5.71263672" height="3.80833984"></rect>
                <rect id="Rectangle-path" fill="#B37447" x="13.3333789" y="57.3811621" width="11.4251465" height="3.80833984"></rect>
                <rect id="Rectangle-path" fill="#995C3D" x="19.0460156" y="57.3811621" width="5.71263672" height="3.80833984"></rect>
                <path d="M13.3328711,64.9983496 C12.2803027,64.9983496 11.4287012,64.1466211 11.4287012,63.0941797 L11.4287012,44.0522266 C11.4287012,42.9996582 12.2804297,42.1480566 13.3328711,42.1480566 C14.3853125,42.1480566 15.237041,42.9997852 15.237041,44.0522266 L15.237041,63.0941797 C15.237041,64.146748 14.3854395,64.9983496 13.3328711,64.9983496 Z" id="Shape" fill="#7F838C"></path>
                <g id="Group" transform="translate(22.851562, 42.021484)" fill="#757982">
                    <path d="M1.90645508,22.9768652 C0.853886719,22.9768652 0.00228515625,22.1251367 0.00228515625,21.0726953 L0.00228515625,2.03074219 C0.00228515625,0.978173828 0.854013672,0.126572266 1.90645508,0.126572266 C2.95902344,0.126572266 3.810625,0.978300781 3.810625,2.03074219 L3.810625,21.0726953 C3.81075195,22.1252637 2.95902344,22.9768652 1.90645508,22.9768652 Z" id="Shape"></path>
                    <path d="M13.3317285,19.1685254 L11.4275586,19.1685254 L11.4275586,2.03074219 C11.4275586,0.978173828 10.5758301,0.126572266 9.52338867,0.126572266 C8.47094727,0.126572266 7.61921875,0.978300781 7.61921875,2.03074219 L7.61921875,21.0726953 C7.61921875,22.1252637 8.47094727,22.9768652 9.52338867,22.9768652 L13.3317285,22.9768652 C14.3842969,22.9768652 15.2358984,22.1251367 15.2358984,21.0726953 C15.2358984,20.020127 14.3841699,19.1685254 13.3317285,19.1685254 Z" id="Shape"></path>
                </g>
                <path d="M5.71606445,42.1479297 C4.66349609,42.1479297 3.81189453,42.9996582 3.81189453,44.0520996 L3.81189453,61.1898828 L1.90772461,61.1898828 C0.85515625,61.1898828 0.0035546875,62.0416113 0.0035546875,63.0940527 C0.0035546875,64.1466211 0.855283203,64.9982227 1.90772461,64.9982227 L5.71606445,64.9982227 C6.76863281,64.9982227 7.62023437,64.1464941 7.62023437,63.0940527 L7.62023437,44.0522266 C7.62023437,42.9996582 6.76863281,42.1479297 5.71606445,42.1479297 Z" id="Shape" fill="#7F838C"></path>
                <rect id="Rectangle-path" fill="#F9BC35" x="3.81240234" y="15.4887891" width="30.4672266" height="30.4672266"></rect>
                <rect id="Rectangle-path" fill="#F39E31" x="19.0460156" y="15.4887891" width="15.2336133" height="30.4672266"></rect>
                <path d="M19.0455078,23.1059766 C14.8564355,23.1059766 11.4287012,26.533457 11.4287012,30.7227832 C11.4287012,34.9118555 14.8564355,38.3395898 19.0455078,38.3395898 C23.2345801,38.3395898 26.6623145,34.9118555 26.6623145,30.7227832 C26.6623145,26.533457 23.2345801,23.1059766 19.0455078,23.1059766 Z" id="Shape" fill="#995C3D"></path>
                <path d="M26.6623145,30.7227832 C26.6623145,34.9118555 23.2345801,38.3395898 19.0455078,38.3395898 L19.0455078,23.1059766 C23.2345801,23.1059766 26.6623145,26.533457 26.6623145,30.7227832 Z" id="Shape" fill="#804D33"></path>
                <path d="M37.44,15.9842871 L20.3022168,0.496767578 C19.9593164,0.153867188 19.5022852,0.00165039063 19.0453809,0.00165039063 C18.5884766,0.00165039063 18.1313184,0.153867188 17.7885449,0.496767578 L0.650634766,15.9842871 C0.0413867188,16.4794043 -0.149042969,17.317041 0.117558594,18.0788867 C0.422119141,18.8025195 1.10753906,19.2976367 1.90734375,19.2976367 L36.1829102,19.2976367 C36.9828418,19.2976367 37.6681348,18.8025195 37.9726953,18.0788867 C38.2396777,17.317041 38.049248,16.4794043 37.44,15.9842871 Z" id="Shape" fill="#E55639"></path>
                <path d="M37.9730762,18.0788867 C37.6685156,18.8025195 36.9830957,19.2976367 36.183291,19.2976367 L19.0455078,19.2976367 L19.0455078,0.00165039063 C19.5025391,0.00165039063 19.9595703,0.153867188 20.3023437,0.496767578 L37.440127,15.9842871 C38.049248,16.4794043 38.2396777,17.317041 37.9730762,18.0788867 Z" id="Shape" fill="#CF4529"></path>
            </g>
        </g>
    </g>
</svg>