<?xml version="1.0" encoding="UTF-8"?>
<svg width="149px" height="150px" viewBox="0 0 149 150" version="1.1" xmlns="http://www.w3.org/2000/svg" xmlns:xlink="http://www.w3.org/1999/xlink">
    <!-- Generator: Sketch 47.1 (45422) - http://www.bohemiancoding.com/sketch -->
    <title>projects</title>
    <desc>Created with Sketch.</desc>
    <defs></defs>
    <g id="Page-1" stroke="none" stroke-width="1" fill="none" fill-rule="evenodd">
        <g id="2-1-projects" transform="translate(-157.000000, -106.000000)">
            <g id="projects" transform="translate(156.000000, 106.000000)">
                <g id="light-bulb" transform="translate(31.497076, 27.906977)" fill-rule="nonzero">
                    <path d="M49.4635227,110.433021 L38.0494124,110.433021 C36.9978874,110.433021 36.1470606,111.284578 36.1470606,112.337005 L36.1470606,114.24099 C36.1470606,118.44118 39.5598796,121.856929 43.7564675,121.856929 C47.9530554,121.856929 51.3658744,118.44118 51.3658744,114.24099 L51.3658744,112.337005 C51.3658744,111.284578 50.5150476,110.433021 49.4635227,110.433021 Z" id="Shape" fill="#868491"></path>
                    <path d="M43.7545652,110.433021 L38.0494124,110.433021 C36.9978874,110.433021 36.1470606,111.284578 36.1470606,112.337005 L36.1470606,114.24099 C36.1470606,118.440704 39.5586907,121.855739 43.7545652,121.856691 L43.7545652,110.433021 L43.7545652,110.433021 Z" id="Shape" fill="#5C546A"></path>
                    <path d="M73.7120867,11.874915 C64.8207325,3.51142391 53.1745353,-0.677580579 40.9597727,0.089249286 C18.6998796,1.4755882 0.716711011,20.0599075 0.0218770448,42.3991228 C-0.490806744,58.9511764 8.19604459,74.1904325 22.6941049,82.1726506 C26.2981102,84.1585067 28.5367026,87.9719502 28.5367026,92.127635 L28.5367026,106.625051 C28.5367026,110.825241 31.9495216,114.24099 36.1461095,114.24099 L51.3649232,114.24099 C55.5615111,114.24099 58.9743301,110.825241 58.9743301,106.625051 L58.9743301,92.127635 C58.9743301,87.9757582 61.2295681,84.1527948 64.8635354,82.1483748 C78.8320285,74.4358085 87.5096059,59.7394261 87.5096059,43.7935537 C87.5096059,31.756086 82.4807391,20.122025 73.7120867,11.874915 Z" id="Shape" fill="#FFCD00"></path>
                    <ellipse id="Oval" fill="#FFE671" cx="43.7545652" cy="43.7935537" rx="30.4376275" ry="30.4637563"></ellipse>
                    <path d="M50.4089915,55.2174623 C47.8805283,55.2174623 46.5876425,53.7411601 45.6457406,52.6644567 C44.815364,51.7162723 44.4845926,51.4094927 43.7433888,51.4094927 C43.005752,51.4094927 42.6771207,51.7162723 41.8503111,52.6627907 C40.9623884,53.6797566 39.6190903,55.2174623 37.0906271,55.2174623 C34.5640662,55.2174623 33.2210059,53.6797566 32.3328454,52.6627907 C31.5060358,51.7162723 31.1774046,51.4094927 30.4397677,51.4094927 C29.3882428,51.4094927 28.537416,50.5579355 28.537416,49.505508 C28.537416,48.4530804 29.3882428,47.6015232 30.4397677,47.6015232 C32.9663286,47.6015232 34.3093889,49.1392289 35.1975493,50.1561948 C36.0243589,51.1027132 36.3529902,51.4094927 37.0906271,51.4094927 C37.828264,51.4094927 38.1587976,51.1027132 38.9856072,50.1561948 C39.8735299,49.1392289 41.216828,47.6015232 43.7433888,47.6015232 C46.2718521,47.6015232 47.5647379,49.0778254 48.5066398,50.1545288 C49.3370163,51.1027132 49.6677877,51.4094927 50.4089915,51.4094927 C51.1482929,51.4094927 51.4790643,51.1027132 52.3094409,50.1561948 C53.1992659,49.1392289 54.542564,47.6015232 57.0726918,47.6015232 C58.1242167,47.6015232 58.9750435,48.4530804 58.9750435,49.505508 C58.9750435,50.5579355 58.1242167,51.4094927 57.0726918,51.4094927 C56.331488,51.4094927 56.0007166,51.7162723 55.17034,52.6644567 C54.280515,53.6816605 52.9374547,55.2174623 50.4089915,55.2174623 Z" id="Shape" fill="#FFFFFF"></path>
                    <path d="M38.04751,91.3931729 C37.1724282,91.3931729 36.3848546,90.7850877 36.1896258,89.8944988 L26.6778672,46.1028492 C26.4548164,45.0746974 27.1070853,44.0613015 28.1324528,43.8363933 C29.1654298,43.6095811 30.1722495,44.2659799 30.3969648,45.2922277 L39.9087234,89.0838773 C40.1317741,90.1120291 39.4795053,91.125425 38.4541377,91.3503332 C38.3169306,91.380321 38.1811502,91.3931729 38.04751,91.3931729 Z" id="Shape" fill="#5C546A"></path>
                    <path d="M49.4651872,91.3931729 C49.3313092,91.3931729 49.1957667,91.380083 49.0583218,91.3503332 C48.0327164,91.125425 47.3806853,90.1120291 47.6037361,89.0838773 L57.1154947,45.2922277 C57.34021,44.2657419 58.3434627,43.6112471 59.3800066,43.8363933 C60.405612,44.0613015 61.057643,45.0746974 60.8345923,46.1028492 L51.3228337,89.8944988 C51.1280804,90.7853257 50.340269,91.3931729 49.4651872,91.3931729 Z" id="Shape" fill="#5C546A"></path>
                    <path d="M28.2102115,89.4891881 C28.4125741,90.3443152 28.5369404,91.2249082 28.5369404,92.127635 L28.5369404,106.625051 C28.5369404,110.825241 31.9497594,114.24099 36.1463473,114.24099 L51.365161,114.24099 C55.5617489,114.24099 58.9745679,110.825241 58.9745679,106.625051 L58.9745679,92.127635 C58.9745679,91.2256222 59.0998853,90.3447912 59.3036747,89.4891881 L28.2102115,89.4891881 Z" id="Shape" fill="#B4B6BC"></path>
                    <path d="M43.7545652,89.4891881 L28.2102115,89.4891881 C28.4125741,90.3443152 28.5369404,91.2249082 28.5369404,92.127635 L28.5369404,106.625051 C28.5369404,110.825241 31.9497594,114.24099 36.1463473,114.24099 L43.7545652,114.24099 L43.7545652,89.4891881 Z" id="Shape" fill="#868491"></path>
                    <rect id="Rectangle-path" fill="#868491" x="43.7545652" y="95.2011424" width="15.2188138" height="3.80796954"></rect>
                    <rect id="Rectangle-path" fill="#868491" x="43.7555163" y="102.817081" width="15.2188138" height="3.80796954"></rect>
                    <rect id="Rectangle-path" fill="#5C546A" x="28.5357514" y="95.2011424" width="15.2188138" height="3.80796954"></rect>
                    <rect id="Rectangle-path" fill="#5C546A" x="28.5357514" y="102.817081" width="15.2188138" height="3.80796954"></rect>
                </g>
                <rect id="Rectangle-6" fill="#FFE671" x="71.5789474" y="0" width="6.97076023" height="21.8023256" rx="3.48538012"></rect>
                <rect id="Rectangle-6-Copy-3" fill="#FFE671" transform="translate(123.569719, 27.616798) rotate(-315.000000) translate(-123.569719, -27.616798) " x="120.084339" y="16.7156354" width="6.97076023" height="21.8023256" rx="3.48538012"></rect>
                <rect id="Rectangle-6-Copy-4" fill="#FFE671" transform="translate(25.979076, 26.744705) scale(-1, 1) rotate(-315.000000) translate(-25.979076, -26.744705) " x="22.493696" y="15.8435423" width="6.97076023" height="21.8023256" rx="3.48538012"></rect>
                <rect id="Rectangle-6-Copy" fill="#FFE671" transform="translate(139.108187, 75.000000) rotate(-270.000000) translate(-139.108187, -75.000000) " x="135.622807" y="64.0988372" width="6.97076023" height="21.8023256" rx="3.48538012"></rect>
                <rect id="Rectangle-6-Copy-2" fill="#FFE671" transform="translate(11.891813, 75.000000) rotate(-270.000000) translate(-11.891813, -75.000000) " x="8.40643275" y="64.0988372" width="6.97076023" height="21.8023256" rx="3.48538012"></rect>
            </g>
        </g>
    </g>
</svg>