<?xml version="1.0" encoding="UTF-8"?>
<svg width="200px" height="56px" viewBox="0 0 200 56" version="1.1" xmlns="http://www.w3.org/2000/svg" xmlns:xlink="http://www.w3.org/1999/xlink">
    <!-- Generator: Sketch 47.1 (45422) - http://www.bohemiancoding.com/sketch -->
    <title>rentabelno-logo</title>
    <desc>Created with Sketch.</desc>
    <defs></defs>
    <g id="Page-1" stroke="none" stroke-width="1" fill="none" fill-rule="evenodd">
        <g id="2-1-projects" transform="translate(-620.000000, -1323.000000)" fill-rule="nonzero">
            <g id="rentabelno-logo" transform="translate(620.000000, 1323.000000)">
                <path d="M77.7181818,52.107541 C77.5243421,52.3871966 77.2651674,52.6142342 76.9636364,52.7685246 C76.5539317,52.9701082 76.100734,53.0647956 75.6454545,53.0439344 C75.2864635,53.0455129 74.9319042,52.9638531 74.6090909,52.8052459 C74.3064953,52.6612678 74.0440831,52.4435948 73.8454545,52.1718033 C73.65286,51.906043 73.553674,51.582941 73.5636364,51.2537705 C73.5555471,50.750886 73.789358,50.2752426 74.1909091,49.9777049 C74.6880151,49.6170995 75.2720913,49.3982949 75.8818182,49.3442623 L77.7,49.0872131 L77.7,48.6557377 C77.7055875,48.3110766 77.5708456,47.9792054 77.3272727,47.7377049 C76.9805998,47.4820055 76.5555123,47.3584282 76.1272727,47.3888525 C75.7873013,47.3749357 75.4502843,47.4576332 75.1545455,47.627541 C74.9310032,47.7521109 74.7598057,47.9543494 74.6727273,48.1967213 C74.6536407,48.2694936 74.6160317,48.3359567 74.5636364,48.3895082 C74.5143097,48.4278931 74.4531199,48.4474063 74.3909091,48.4445902 L74.2272727,48.4445902 C74.0886854,48.439842 73.9774292,48.3274914 73.9727273,48.187541 C73.9914066,47.9666397 74.0735566,47.7560541 74.2090909,47.5816393 C74.3981016,47.3219828 74.6480033,47.1137859 74.9363636,46.9757377 C75.3099883,46.7935995 75.7216906,46.7054097 76.1363636,46.7186885 C76.8012083,46.6404299 77.4664081,46.862105 77.9545455,47.3245902 C78.3052694,47.727207 78.4934531,48.2481641 78.4818182,48.7842623 L78.4818182,52.7134426 C78.4843971,52.7823817 78.4584081,52.8492873 78.4101012,52.8980694 C78.3617942,52.9468515 78.2955404,52.9730961 78.2272727,52.9704918 L78.0272727,52.9704918 C77.9590051,52.9730961 77.8927512,52.9468515 77.8444443,52.8980694 C77.7961374,52.8492873 77.7701483,52.7823817 77.7727273,52.7134426 L77.7181818,52.107541 Z M77.7181818,49.757377 L76.2090909,49.9685246 C75.7013763,50.0145028 75.2089064,50.167763 74.7636364,50.4183607 C74.4550777,50.5736583 74.2600601,50.8918507 74.2600601,51.24 C74.2600601,51.5881493 74.4550777,51.9063417 74.7636364,52.0616393 C75.5470674,52.5370127 76.5486171,52.424217 77.2090909,51.7862295 C77.598147,51.339678 77.7945055,50.7547226 77.7545455,50.1613115 L77.7181818,49.757377 Z" id="Shape" fill="#223A43"></path>
                <path d="M80.7727273,54.907541 C80.7753062,54.9764801 80.7493172,55.0433857 80.7010103,55.0921677 C80.6527033,55.1409498 80.5864494,55.1671945 80.5181818,55.1645902 L80.3181818,55.1645902 C80.2499142,55.1671945 80.1836603,55.1409498 80.1353534,55.0921677 C80.0870464,55.0433857 80.0610574,54.9764801 80.0636364,54.907541 L80.0636364,47.0491803 C80.0610574,46.9802412 80.0870464,46.9133357 80.1353534,46.8645536 C80.1836603,46.8157715 80.2499142,46.7895269 80.3181818,46.7921311 L80.5181818,46.7921311 C80.5864494,46.7895269 80.6527033,46.8157715 80.7010103,46.8645536 C80.7493172,46.9133357 80.7753062,46.9802412 80.7727273,47.0491803 L80.7727273,47.6 C81.2328386,46.9801109 81.9706157,46.6351878 82.7363636,46.6819672 C83.4512975,46.6256159 84.1480058,46.9276324 84.6,47.4898361 C85.0150598,48.0693878 85.2378192,48.7667341 85.2363636,49.4819672 C85.2363636,49.5645902 85.2363636,49.6931148 85.2363636,49.867541 C85.2363636,50.0419672 85.2363636,50.1796721 85.2363636,50.2531148 C85.2378192,50.9683479 85.0150598,51.6656941 84.6,52.2452459 C84.1480058,52.8074496 83.4512975,53.109466 82.7363636,53.0531148 C81.9712428,53.0965591 81.2349511,52.7523304 80.7727273,52.135082 L80.7727273,54.907541 Z M80.9909091,51.3180328 C81.1282931,51.6219135 81.3451704,51.882187 81.6181818,52.0708197 C81.9263554,52.2721313 82.287647,52.374544 82.6545455,52.3645902 C83.1863821,52.4079263 83.704614,52.1806912 84.0363636,51.7586885 C84.3464611,51.2986483 84.511275,50.754534 84.5090909,50.1980328 C84.5090909,50.1154098 84.5090909,50.0052459 84.5090909,49.867541 C84.5414706,49.2281584 84.3966532,48.5923245 84.0909091,48.0314754 C83.7740006,47.5467903 83.2179849,47.2784076 82.6454545,47.3337705 C82.1099806,47.2960136 81.5902188,47.5258605 81.2545455,47.9488525 C80.940965,48.370713 80.7661129,48.8811666 80.7545455,49.4085246 L80.7545455,50.3265574 C80.7627002,50.6673126 80.8433096,51.0023143 80.9909091,51.3088525 L80.9909091,51.3180328 Z" id="Shape" fill="#223A43"></path>
                <path d="M90.7545455,47.4806557 C91.2407626,48.1169099 91.4829062,48.9091719 91.4363636,49.7114754 L91.4363636,49.8859016 C91.4410134,49.9577828 91.4144676,50.0281509 91.3636364,50.0786885 C91.3118261,50.1272224 91.2433828,50.1535525 91.1727273,50.1521311 L87.0090909,50.1521311 L87.0090909,50.2714754 C87.0259179,50.628884 87.1156719,50.9789298 87.2727273,51.2996721 C87.4144264,51.6084906 87.633846,51.874384 87.9090909,52.0708197 C88.1900312,52.2640273 88.5238305,52.3635469 88.8636364,52.3554098 C89.2290728,52.3701877 89.5912843,52.2811296 89.9090909,52.0983607 C90.1358701,51.9690712 90.3339085,51.7940832 90.4909091,51.5842623 C90.5314522,51.5198137 90.5803733,51.4611485 90.6363636,51.4098361 C90.6989209,51.3930996 90.7647155,51.3930996 90.8272727,51.4098361 L91.0181818,51.4098361 C91.0803927,51.4070199 91.1415824,51.4265331 91.1909091,51.464918 C91.2393457,51.5014878 91.2666056,51.5599849 91.2636364,51.6209836 C91.2334514,51.8504555 91.123984,52.0617898 90.9545455,52.2177049 C90.7135344,52.4763376 90.42274,52.6825207 90.1,52.8236066 C89.7110277,52.9982301 89.2892824,53.0859141 88.8636364,53.0806557 C88.179906,53.1190483 87.5143499,52.8502073 87.0454545,52.3462295 C86.5701037,51.7980317 86.2971011,51.1007038 86.2727273,50.372459 L86.2727273,49.4544262 C86.2967688,48.7277798 86.566231,48.0313011 87.0363636,47.4806557 C87.5028603,46.972221 88.1691647,46.6997134 88.8545455,46.7370492 C89.5667943,46.6810013 90.2657215,46.9545418 90.7545455,47.4806557 L90.7545455,47.4806557 Z M90.7545455,49.4819672 L90.7545455,49.4360656 C90.7741763,48.8908192 90.5927723,48.3576103 90.2454545,47.9396721 C89.9022703,47.5456763 89.4009564,47.3296785 88.8818182,47.3521311 C88.3679621,47.3299211 87.8722905,47.5463738 87.5363636,47.9396721 C87.1945842,48.3602147 87.016766,48.8923866 87.0363636,49.4360656 L87.0363636,49.4819672 L90.7545455,49.4819672 Z" id="Shape" fill="#223A43"></path>
                <path d="M97.1090909,49.4452459 L97.1090909,47.0491803 C97.106512,46.9802412 97.132501,46.9133357 97.1808079,46.8645536 C97.2291149,46.8157715 97.2953687,46.7895269 97.3636364,46.7921311 L97.5636364,46.7921311 C97.631904,46.7895269 97.6981579,46.8157715 97.7464648,46.8645536 C97.7947717,46.9133357 97.8207607,46.9802412 97.8181818,47.0491803 L97.8181818,52.667541 C97.8207607,52.7364801 97.7947717,52.8033857 97.7464648,52.8521677 C97.6981579,52.9009498 97.631904,52.9271945 97.5636364,52.9245902 L97.3636364,52.9245902 C97.2953687,52.9271945 97.2291149,52.9009498 97.1808079,52.8521677 C97.132501,52.8033857 97.106512,52.7364801 97.1090909,52.667541 L97.1090909,50.1245902 L93.4727273,50.1245902 L93.4727273,52.6583607 C93.4753062,52.7272998 93.4493172,52.7942053 93.4010103,52.8429874 C93.3527033,52.8917695 93.2864494,52.9180141 93.2181818,52.9154098 L93.0181818,52.9154098 C92.9499142,52.9180141 92.8836603,52.8917695 92.8353534,52.8429874 C92.7870464,52.7942053 92.7610574,52.7272998 92.7636364,52.6583607 L92.7636364,47.0491803 C92.7610574,46.9802412 92.7870464,46.9133357 92.8353534,46.8645536 C92.8836603,46.8157715 92.9499142,46.7895269 93.0181818,46.7921311 L93.2181818,46.7921311 C93.2864494,46.7895269 93.3527033,46.8157715 93.4010103,46.8645536 C93.4493172,46.9133357 93.4753062,46.9802412 93.4727273,47.0491803 L93.4727273,49.4452459 L97.1090909,49.4452459 Z" id="Shape" fill="#223A43"></path>
                <path d="M103.945455,54.1639344 C103.894765,54.2142604 103.825545,54.2408891 103.754545,54.237377 L103.554545,54.237377 C103.486278,54.2399813 103.420024,54.2137367 103.371717,54.1649546 C103.32341,54.1161725 103.297421,54.049267 103.3,53.9803279 L103.3,52.9245902 L99.4909091,52.9245902 L99.4909091,53.9619672 C99.493488,54.0309063 99.467499,54.0978119 99.4191921,54.146594 C99.3708851,54.195376 99.3046313,54.2216207 99.2363636,54.2190164 L99.0363636,54.2190164 C98.968096,54.2216207 98.9018421,54.195376 98.8535352,54.146594 C98.8052283,54.0978119 98.7792393,54.0309063 98.7818182,53.9619672 L98.7818182,52.5022951 C98.7762657,52.432553 98.8012949,52.3638627 98.8502873,52.3143884 C98.8992796,52.2649142 98.9673009,52.2396388 99.0363636,52.2452459 L99.2363636,52.2452459 C99.4618582,52.2616782 99.6825533,52.1738825 99.8363636,52.0065574 C99.9859976,51.7257439 100.04631,51.4051893 100.009091,51.0885246 L100.009091,47.0491803 C100.006512,46.9802412 100.032501,46.9133357 100.080808,46.8645536 C100.129115,46.8157715 100.195369,46.7895269 100.263636,46.7921311 L103.263636,46.7921311 C103.332699,46.786524 103.40072,46.8117995 103.449713,46.8612737 C103.498705,46.9107479 103.523734,46.9794382 103.518182,47.0491803 L103.518182,52.2177049 L103.754545,52.2177049 C103.822813,52.2151006 103.889067,52.2413453 103.937374,52.2901273 C103.985681,52.3389094 104.01167,52.405815 104.009091,52.4747541 L104.009091,53.9619672 C104.017629,54.0353986 103.994443,54.108987 103.945455,54.1639344 L103.945455,54.1639344 Z M102.809091,52.2544262 L102.809091,47.4714754 L100.718182,47.4714754 L100.718182,51.4098361 C100.720884,51.5519807 100.705609,51.6938923 100.672727,51.8321311 C100.651665,51.9221794 100.617992,52.0087339 100.572727,52.0891803 L100.509091,52.1993443 L102.809091,52.2544262 Z" id="Shape" fill="#223A43"></path>
                <path d="M105.645455,54.4760656 C105.816185,54.480982 105.983298,54.4258114 106.118182,54.32 C106.251737,54.2099915 106.360258,54.0722221 106.436364,53.9160656 C106.521212,53.7446995 106.630303,53.4937705 106.763636,53.1632787 L107.036364,52.5390164 L104.772727,47.2511475 C104.736649,47.1757654 104.712127,47.0952834 104.7,47.012459 C104.7,46.880635 104.805824,46.7737705 104.936364,46.7737705 L105.154545,46.7737705 C105.272692,46.7683635 105.381613,46.8380252 105.427273,46.9481967 L107.418182,51.6209836 L109.409091,46.9481967 C109.454751,46.8380252 109.563672,46.7683635 109.681818,46.7737705 L109.890909,46.7737705 C109.953597,46.7737705 110.013717,46.798918 110.058043,46.8436807 C110.10237,46.8884435 110.127273,46.9491549 110.127273,47.012459 C110.115146,47.0952834 110.090624,47.1757654 110.054545,47.2511475 L107.836364,52.5114754 L107.672727,52.9154098 C107.484848,53.3805464 107.315152,53.76 107.163636,54.0537705 C107.016504,54.3411829 106.822941,54.6018065 106.590909,54.824918 C106.37832,55.038048 106.090468,55.1569639 105.790909,55.1554098 L105.390909,55.1554098 C105.319909,55.1589219 105.25069,55.1322932 105.2,55.0819672 C105.150164,55.0307788 105.123795,54.9608784 105.127273,54.8891803 L105.127273,54.7239344 C105.124694,54.6549953 105.150683,54.5880898 105.19899,54.5393077 C105.247297,54.4905256 105.313551,54.464281 105.381818,54.4668852 L105.645455,54.4760656 Z" id="Shape" fill="#223A43"></path>
                <path d="M116.190909,52.8511475 C116.140864,52.9024788 116.071181,52.9292857 116,52.9245902 L115.8,52.9245902 C115.731732,52.9271945 115.665478,52.9009498 115.617172,52.8521677 C115.568865,52.8033857 115.542876,52.7364801 115.545455,52.667541 L115.545455,48.077377 L111.909091,52.7868852 C111.843514,52.8912396 111.731384,52.9564342 111.609091,52.9613115 L111.390909,52.9613115 C111.260369,52.9613115 111.154545,52.854447 111.154545,52.722623 L111.154545,47.0491803 C111.151967,46.9802412 111.177956,46.9133357 111.226262,46.8645536 C111.274569,46.8157715 111.340823,46.7895269 111.409091,46.7921311 L111.609091,46.7921311 C111.677359,46.7895269 111.743612,46.8157715 111.791919,46.8645536 C111.840226,46.9133357 111.866215,46.9802412 111.863636,47.0491803 L111.863636,51.6393443 L115.5,46.9298361 C115.565577,46.8254817 115.677707,46.7602871 115.8,46.7554098 L116.018182,46.7554098 C116.080621,46.7551176 116.140192,46.7818541 116.181818,46.8288525 C116.226956,46.8680474 116.253409,46.9248133 116.254545,46.984918 L116.254545,52.64 C116.265857,52.7164652 116.242486,52.7940108 116.190909,52.8511475 L116.190909,52.8511475 Z M112.836364,44.3685246 C112.897604,44.3646611 112.957434,44.3881572 113,44.4327869 C113.03677,44.4761479 113.056217,44.5317906 113.054545,44.5888525 C113.054545,45.109071 113.275758,45.3691803 113.718182,45.3691803 C114.160606,45.3691803 114.381818,45.109071 114.381818,44.5888525 C114.380147,44.5317906 114.399594,44.4761479 114.436364,44.4327869 C114.478929,44.3881572 114.538759,44.3646611 114.6,44.3685246 L114.772727,44.3685246 C114.833968,44.3646611 114.893798,44.3881572 114.936364,44.4327869 C114.973133,44.4761479 114.99258,44.5317906 114.990909,44.5888525 C115.004837,44.9398457 114.902469,45.2855078 114.7,45.5711475 C114.136859,46.092724 113.272232,46.092724 112.709091,45.5711475 C112.506622,45.2855078 112.404253,44.9398457 112.418182,44.5888525 C112.41651,44.5317906 112.435958,44.4761479 112.472727,44.4327869 C112.515293,44.3881572 112.575123,44.3646611 112.636364,44.3685246 L112.836364,44.3685246 Z" id="Shape" fill="#223A43"></path>
                <path d="M121.427273,54.907541 C121.429852,54.9764801 121.403863,55.0433857 121.355556,55.0921677 C121.307249,55.1409498 121.240995,55.1671945 121.172727,55.1645902 L120.972727,55.1645902 C120.90446,55.1671945 120.838206,55.1409498 120.789899,55.0921677 C120.741592,55.0433857 120.715603,54.9764801 120.718182,54.907541 L120.718182,47.0491803 C120.715603,46.9802412 120.741592,46.9133357 120.789899,46.8645536 C120.838206,46.8157715 120.90446,46.7895269 120.972727,46.7921311 L121.172727,46.7921311 C121.240995,46.7895269 121.307249,46.8157715 121.355556,46.8645536 C121.403863,46.9133357 121.429852,46.9802412 121.427273,47.0491803 L121.427273,47.6 C121.887384,46.9801109 122.625161,46.6351878 123.390909,46.6819672 C124.105843,46.6256159 124.802551,46.9276324 125.254545,47.4898361 C125.669605,48.0693878 125.892365,48.7667341 125.890909,49.4819672 C125.890909,49.5645902 125.890909,49.6931148 125.890909,49.867541 C125.890909,50.0419672 125.890909,50.1796721 125.890909,50.2531148 C125.892365,50.9683479 125.669605,51.6656941 125.254545,52.2452459 C124.802551,52.8074496 124.105843,53.109466 123.390909,53.0531148 C122.625788,53.0965591 121.889497,52.7523304 121.427273,52.135082 L121.427273,54.907541 Z M121.645455,51.3180328 C121.782839,51.6219135 121.999716,51.882187 122.272727,52.0708197 C122.580901,52.2721313 122.942192,52.374544 123.309091,52.3645902 C123.840928,52.4079263 124.359159,52.1806912 124.690909,51.7586885 C125.001007,51.2986483 125.16582,50.754534 125.163636,50.1980328 C125.163636,50.1154098 125.163636,50.0052459 125.163636,49.867541 C125.196016,49.2281584 125.051199,48.5923245 124.745455,48.0314754 C124.428546,47.5467903 123.87253,47.2784076 123.3,47.3337705 C122.764526,47.2960136 122.244764,47.5258605 121.909091,47.9488525 C121.59551,48.370713 121.420658,48.8811666 121.409091,49.4085246 L121.409091,50.3265574 C121.417246,50.6673126 121.497855,51.0023143 121.645455,51.3088525 L121.645455,51.3180328 Z" id="Shape" fill="#223A43"></path>
                <path d="M130.963636,52.107541 C130.769797,52.3871966 130.510622,52.6142342 130.209091,52.7685246 C129.799386,52.9701082 129.346189,53.0647956 128.890909,53.0439344 C128.531918,53.0455129 128.177359,52.9638531 127.854545,52.8052459 C127.55195,52.6612678 127.289538,52.4435948 127.090909,52.1718033 C126.898315,51.906043 126.799129,51.582941 126.809091,51.2537705 C126.801002,50.750886 127.034813,50.2752426 127.436364,49.9777049 C127.93347,49.6170995 128.517546,49.3982949 129.127273,49.3442623 L130.945455,49.0872131 L130.945455,48.6557377 C130.970104,48.2799028 130.826654,47.9126956 130.554545,47.655082 C130.207872,47.3993826 129.782785,47.2758052 129.354545,47.3062295 C129.014574,47.2923127 128.677557,47.3750102 128.381818,47.544918 C128.158276,47.6694879 127.987078,47.8717265 127.9,48.1140984 C127.880913,48.1868707 127.843304,48.2533337 127.790909,48.3068852 C127.741582,48.3452702 127.680393,48.3647833 127.618182,48.3619672 L127.454545,48.3619672 C127.315958,48.3572191 127.204702,48.2448685 127.2,48.104918 C127.218679,47.8840167 127.300829,47.6734311 127.436364,47.4990164 C127.625374,47.2393599 127.875276,47.031163 128.163636,46.8931148 C128.537261,46.7109766 128.948963,46.6227868 129.363636,46.6360656 C130.028481,46.5578069 130.693681,46.779482 131.181818,47.2419672 C131.532542,47.644584 131.720726,48.1655412 131.709091,48.7016393 L131.709091,52.6308197 C131.71167,52.6997588 131.685681,52.7666643 131.637374,52.8154464 C131.589067,52.8642285 131.522813,52.8904731 131.454545,52.8878689 L131.254545,52.8878689 C131.186278,52.8904731 131.120024,52.8642285 131.071717,52.8154464 C131.02341,52.7666643 130.997421,52.6997588 131,52.6308197 L130.963636,52.107541 Z M130.963636,49.757377 L129.454545,49.9685246 C128.946831,50.0145028 128.454361,50.167763 128.009091,50.4183607 C127.700532,50.5736583 127.505515,50.8918507 127.505515,51.24 C127.505515,51.5881493 127.700532,51.9063417 128.009091,52.0616393 C128.792522,52.5370127 129.794072,52.424217 130.454545,51.7862295 C130.843602,51.339678 131.03996,50.7547226 131,50.1613115 L130.963636,49.757377 Z" id="Shape" fill="#223A43"></path>
                <path d="M137.645455,52.2360656 L137.645455,47.0491803 C137.642876,46.9802412 137.668865,46.9133357 137.717172,46.8645536 C137.765478,46.8157715 137.831732,46.7895269 137.9,46.7921311 L138.1,46.7921311 C138.168268,46.7895269 138.234522,46.8157715 138.282828,46.8645536 C138.331135,46.9133357 138.357124,46.9802412 138.354545,47.0491803 L138.354545,52.2360656 L138.590909,52.2360656 C138.659972,52.2304584 138.727993,52.2557339 138.776985,52.3052081 C138.825978,52.3546823 138.851007,52.4233727 138.845455,52.4931148 L138.845455,53.9527869 C138.851007,54.022529 138.825978,54.0912193 138.776985,54.1406935 C138.727993,54.1901677 138.659972,54.2154432 138.590909,54.2098361 L138.390909,54.2098361 C138.321846,54.2154432 138.253825,54.1901677 138.204833,54.1406935 C138.15584,54.0912193 138.130811,54.022529 138.136364,53.9527869 L138.136364,52.9245902 L133.545455,52.9245902 C133.477187,52.9271945 133.410933,52.9009498 133.362626,52.8521677 C133.314319,52.8033857 133.28833,52.7364801 133.290909,52.667541 L133.290909,47.0491803 C133.28833,46.9802412 133.314319,46.9133357 133.362626,46.8645536 C133.410933,46.8157715 133.477187,46.7895269 133.545455,46.7921311 L133.745455,46.7921311 C133.813722,46.7895269 133.879976,46.8157715 133.928283,46.8645536 C133.97659,46.9133357 134.002579,46.9802412 134,47.0491803 L134,52.2360656 L137.645455,52.2360656 Z" id="Shape" fill="#223A43"></path>
                <path d="M145.136364,52.8511475 C145.086318,52.9024788 145.016636,52.9292857 144.945455,52.9245902 L144.745455,52.9245902 C144.677187,52.9271945 144.610933,52.9009498 144.562626,52.8521677 C144.514319,52.8033857 144.48833,52.7364801 144.490909,52.667541 L144.490909,48.077377 L140.854545,52.7868852 C140.788969,52.8912396 140.676839,52.9564342 140.554545,52.9613115 L140.336364,52.9613115 C140.205824,52.9613115 140.1,52.854447 140.1,52.722623 L140.1,47.0491803 C140.097421,46.9802412 140.12341,46.9133357 140.171717,46.8645536 C140.220024,46.8157715 140.286278,46.7895269 140.354545,46.7921311 L140.554545,46.7921311 C140.622813,46.7895269 140.689067,46.8157715 140.737374,46.8645536 C140.785681,46.9133357 140.81167,46.9802412 140.809091,47.0491803 L140.809091,51.6393443 L144.445455,46.9298361 C144.511031,46.8254817 144.623161,46.7602871 144.745455,46.7554098 L144.963636,46.7554098 C145.026076,46.7551176 145.085647,46.7818541 145.127273,46.8288525 C145.17241,46.8680474 145.198863,46.9248133 145.2,46.984918 L145.2,52.64 C145.211312,52.7164652 145.187941,52.7940108 145.136364,52.8511475 Z" id="Shape" fill="#223A43"></path>
                <path d="M151.818182,49.8583607 C151.818182,50.1062295 151.818182,50.2714754 151.818182,50.3540984 C151.823423,51.06546 151.57127,51.7542757 151.109091,52.2911475 C150.056415,53.3631454 148.345336,53.3795237 147.272727,52.3278689 C146.810549,51.790997 146.558395,51.1021813 146.563636,50.3908197 L146.563636,49.362623 C146.558395,48.6512613 146.810549,47.9624456 147.272727,47.4255738 C148.327464,46.4055177 149.990718,46.4055177 151.045455,47.4255738 C151.507633,47.9624456 151.759786,48.6512613 151.754545,49.362623 C151.818182,49.4360656 151.818182,49.5737705 151.818182,49.8583607 Z M147.872727,47.8937705 C147.50759,48.3180268 147.312997,48.8649723 147.327273,49.4268852 L147.327273,50.344918 C147.312997,50.906831 147.50759,51.4537764 147.872727,51.8780328 C148.622646,52.5938327 149.795535,52.5938327 150.545455,51.8780328 C150.910591,51.4537764 151.105185,50.906831 151.090909,50.344918 C151.090909,50.2622951 151.090909,50.1245902 151.090909,49.9042623 C151.090909,49.6839344 151.090909,49.5462295 151.090909,49.4636066 C151.105185,48.9016936 150.910591,48.3547482 150.545455,47.9304918 C149.795535,47.2146919 148.622646,47.2146919 147.872727,47.9304918 L147.872727,47.8937705 Z" id="Shape" fill="#223A43"></path>
                <path d="M157.509091,49.4452459 L157.509091,47.0491803 C157.506512,46.9802412 157.532501,46.9133357 157.580808,46.8645536 C157.629115,46.8157715 157.695369,46.7895269 157.763636,46.7921311 L157.963636,46.7921311 C158.031904,46.7895269 158.098158,46.8157715 158.146465,46.8645536 C158.194772,46.9133357 158.220761,46.9802412 158.218182,47.0491803 L158.218182,52.667541 C158.220761,52.7364801 158.194772,52.8033857 158.146465,52.8521677 C158.098158,52.9009498 158.031904,52.9271945 157.963636,52.9245902 L157.763636,52.9245902 C157.695369,52.9271945 157.629115,52.9009498 157.580808,52.8521677 C157.532501,52.8033857 157.506512,52.7364801 157.509091,52.667541 L157.509091,50.1245902 L153.872727,50.1245902 L153.872727,52.6583607 C153.875306,52.7272998 153.849317,52.7942053 153.80101,52.8429874 C153.752703,52.8917695 153.686449,52.9180141 153.618182,52.9154098 L153.418182,52.9154098 C153.349914,52.9180141 153.28366,52.8917695 153.235353,52.8429874 C153.187046,52.7942053 153.161057,52.7272998 153.163636,52.6583607 L153.163636,47.0491803 C153.161057,46.9802412 153.187046,46.9133357 153.235353,46.8645536 C153.28366,46.8157715 153.349914,46.7895269 153.418182,46.7921311 L153.636364,46.7921311 C153.704631,46.7895269 153.770885,46.8157715 153.819192,46.8645536 C153.867499,46.9133357 153.893488,46.9802412 153.890909,47.0491803 L153.890909,49.4452459 L157.509091,49.4452459 Z" id="Shape" fill="#223A43"></path>
                <path d="M163.590909,52.107541 C163.397069,52.3871966 163.137895,52.6142342 162.836364,52.7685246 C162.426659,52.9701082 161.973461,53.0647956 161.518182,53.0439344 C161.159191,53.0455129 160.804632,52.9638531 160.481818,52.8052459 C160.179223,52.6612678 159.91681,52.4435948 159.718182,52.1718033 C159.525587,51.906043 159.426401,51.582941 159.436364,51.2537705 C159.428274,50.750886 159.662085,50.2752426 160.063636,49.9777049 C160.560742,49.6170995 161.144819,49.3982949 161.754545,49.3442623 L163.572727,49.0872131 L163.572727,48.6557377 C163.597377,48.2799028 163.453926,47.9126956 163.181818,47.655082 C162.835145,47.3993826 162.410058,47.2758052 161.981818,47.3062295 C161.641847,47.2923127 161.30483,47.3750102 161.009091,47.544918 C160.785549,47.6694879 160.614351,47.8717265 160.527273,48.1140984 C160.508186,48.1868707 160.470577,48.2533337 160.418182,48.3068852 C160.368855,48.3452702 160.307665,48.3647833 160.245455,48.3619672 L160.081818,48.3619672 C159.943231,48.3572191 159.831975,48.2448685 159.827273,48.104918 C159.845952,47.8840167 159.928102,47.6734311 160.063636,47.4990164 C160.252647,47.2393599 160.502549,47.031163 160.790909,46.8931148 C161.164534,46.7109766 161.576236,46.6227868 161.990909,46.6360656 C162.655754,46.5578069 163.320954,46.779482 163.809091,47.2419672 C164.159815,47.644584 164.347999,48.1655412 164.336364,48.7016393 L164.336364,52.6308197 C164.338943,52.6997588 164.312954,52.7666643 164.264647,52.8154464 C164.21634,52.8642285 164.150086,52.8904731 164.081818,52.8878689 L163.881818,52.8878689 C163.813551,52.8904731 163.747297,52.8642285 163.69899,52.8154464 C163.650683,52.7666643 163.624694,52.6997588 163.627273,52.6308197 L163.590909,52.107541 Z M163.590909,49.757377 L162.081818,49.9685246 C161.574104,50.0145028 161.081634,50.167763 160.636364,50.4183607 C160.327805,50.5736583 160.132787,50.8918507 160.132787,51.24 C160.132787,51.5881493 160.327805,51.9063417 160.636364,52.0616393 C161.419795,52.5370127 162.421344,52.424217 163.081818,51.7862295 C163.470874,51.339678 163.667233,50.7547226 163.627273,50.1613115 L163.590909,49.757377 Z" id="Shape" fill="#223A43"></path>
                <path d="M166.609091,46.8196721 C166.659136,46.7683409 166.728819,46.741534 166.8,46.7462295 L170.718182,46.7462295 C170.786449,46.7436252 170.852703,46.7698699 170.90101,46.8186519 C170.949317,46.867434 170.975306,46.9343396 170.972727,47.0032787 L170.972727,52.6216393 C170.975306,52.6905785 170.949317,52.757484 170.90101,52.8062661 C170.852703,52.8550482 170.786449,52.8812928 170.718182,52.8786885 L170.518182,52.8786885 C170.449914,52.8812928 170.38366,52.8550482 170.335353,52.8062661 C170.287046,52.757484 170.261057,52.6905785 170.263636,52.6216393 L170.263636,47.4714754 L167.272727,47.4714754 L167.272727,51.0518033 C167.299789,51.5665604 167.183249,52.0786551 166.936364,52.5298361 C166.637675,52.9139434 166.161866,53.1124066 165.681818,53.0531148 L165.454545,53.0531148 C165.385483,53.0587219 165.317461,53.0334464 165.268469,52.9839722 C165.219477,52.934498 165.194447,52.8658077 165.2,52.7960656 L165.2,52.6308197 C165.182634,52.5545814 165.201926,52.4745383 165.252046,52.4148877 C165.302166,52.3552371 165.377229,52.3229804 165.454545,52.3278689 L165.627273,52.3278689 C165.917436,52.3673522 166.205126,52.2398071 166.372727,51.997377 C166.515101,51.6972144 166.580736,51.3658136 166.563636,51.0334426 L166.563636,47.0491803 C166.541418,46.9697451 166.558328,46.8843676 166.609091,46.8196721 L166.609091,46.8196721 Z" id="Shape" fill="#223A43"></path>
                <path d="M174.736364,48.4721311 C175.381637,48.4337219 176.015724,48.6548646 176.5,49.0872131 C176.930536,49.5133295 177.161822,50.103904 177.136364,50.7121311 C177.173462,51.3286522 176.932937,51.9291318 176.481818,52.3462295 C175.928482,52.7646443 175.243942,52.9668089 174.554545,52.9154098 L172.890909,52.9154098 C172.822641,52.9180141 172.756388,52.8917695 172.708081,52.8429874 C172.659774,52.7942053 172.633785,52.7272998 172.636364,52.6583607 L172.636364,47.0491803 C172.633785,46.9802412 172.659774,46.9133357 172.708081,46.8645536 C172.756388,46.8157715 172.822641,46.7895269 172.890909,46.7921311 L173.090909,46.7921311 C173.159177,46.7895269 173.225431,46.8157715 173.273738,46.8645536 C173.322044,46.9133357 173.348033,46.9802412 173.345455,47.0491803 L173.345455,48.4721311 L174.736364,48.4721311 Z M173.345455,52.2360656 L174.663636,52.2360656 C175.136239,52.2734892 175.605824,52.1328632 175.981818,51.8413115 C176.284549,51.5479783 176.444143,51.1349961 176.418182,50.7121311 C176.418182,49.671694 175.833333,49.1514754 174.663636,49.1514754 L173.345455,49.1514754 L173.345455,52.2360656 Z" id="Shape" fill="#223A43"></path>
                <path d="M182.654545,49.4452459 L182.654545,47.0491803 C182.651967,46.9802412 182.677956,46.9133357 182.726262,46.8645536 C182.774569,46.8157715 182.840823,46.7895269 182.909091,46.7921311 L183.109091,46.7921311 C183.177359,46.7895269 183.243612,46.8157715 183.291919,46.8645536 C183.340226,46.9133357 183.366215,46.9802412 183.363636,47.0491803 L183.363636,52.667541 C183.366215,52.7364801 183.340226,52.8033857 183.291919,52.8521677 C183.243612,52.9009498 183.177359,52.9271945 183.109091,52.9245902 L182.909091,52.9245902 C182.840823,52.9271945 182.774569,52.9009498 182.726262,52.8521677 C182.677956,52.8033857 182.651967,52.7364801 182.654545,52.667541 L182.654545,50.1245902 L179.018182,50.1245902 L179.018182,52.6583607 C179.020761,52.7272998 178.994772,52.7942053 178.946465,52.8429874 C178.898158,52.8917695 178.831904,52.9180141 178.763636,52.9154098 L178.563636,52.9154098 C178.495369,52.9180141 178.429115,52.8917695 178.380808,52.8429874 C178.332501,52.7942053 178.306512,52.7272998 178.309091,52.6583607 L178.309091,47.0491803 C178.306512,46.9802412 178.332501,46.9133357 178.380808,46.8645536 C178.429115,46.8157715 178.495369,46.7895269 178.563636,46.7921311 L178.763636,46.7921311 C178.831904,46.7895269 178.898158,46.8157715 178.946465,46.8645536 C178.994772,46.9133357 179.020761,46.9802412 179.018182,47.0491803 L179.018182,49.4452459 L182.654545,49.4452459 Z" id="Shape" fill="#223A43"></path>
                <path d="M189.945455,49.8583607 C189.945455,50.1062295 189.945455,50.2714754 189.945455,50.3540984 C189.950695,51.06546 189.698542,51.7542757 189.236364,52.2911475 C188.190242,53.327397 186.520205,53.343613 185.454545,52.3278689 C184.992367,51.790997 184.740214,51.1021813 184.745455,50.3908197 L184.745455,49.362623 C184.740214,48.6512613 184.992367,47.9624456 185.454545,47.4255738 C186.509282,46.4055177 188.172536,46.4055177 189.227273,47.4255738 C189.689451,47.9624456 189.941605,48.6512613 189.936364,49.362623 C189.945455,49.4360656 189.945455,49.5737705 189.945455,49.8583607 Z M186,47.8937705 C185.634863,48.3180268 185.44027,48.8649723 185.454545,49.4268852 L185.454545,50.344918 C185.44027,50.906831 185.634863,51.4537764 186,51.8780328 C186.749919,52.5938327 187.922808,52.5938327 188.672727,51.8780328 C189.037864,51.4537764 189.232457,50.906831 189.218182,50.344918 C189.218182,50.2622951 189.218182,50.1245902 189.218182,49.9042623 C189.218182,49.6839344 189.218182,49.5462295 189.218182,49.4636066 C189.232457,48.9016936 189.037864,48.3547482 188.672727,47.9304918 C187.922808,47.2146919 186.749919,47.2146919 186,47.9304918 L186,47.8937705 Z" id="Shape" fill="#223A43"></path>
                <rect id="Rectangle-path" fill="#FCB842" x="1.7" y="0.780327869" width="195.536364" height="40.4852459"></rect>
                <path d="M101.9,20.9862295 C101.209289,19.9717998 100.247849,19.1759831 99.1272727,18.6911475 C97.942108,18.1763756 96.6627401,17.9198621 95.3727273,17.9383607 C94.7500653,17.9430877 94.1280465,17.9798567 93.5090909,18.0485246 C93.6218971,17.8406129 93.7660448,17.6516874 93.9363636,17.4885246 C94.2449114,17.2076417 94.61602,17.0060907 95.0181818,16.9009836 C95.6138451,16.7443122 96.2224336,16.6429074 96.8363636,16.5980328 C98.0545455,16.4511475 99.0454545,16.295082 99.7727273,16.1390164 C100.5,15.9829508 101.509091,15.7718033 101.772727,15.1567213 C102.154545,14.2386885 101.772727,11.1816393 101.772727,11.1816393 C101.749155,10.8623561 101.543085,10.5863983 101.245583,10.4757141 C100.94808,10.3650298 100.613974,10.4400181 100.390909,10.667541 C100.056436,10.9474641 99.6552858,11.1341882 99.2272727,11.2091803 C98.4138529,11.3951788 97.5915742,11.5391908 96.7636364,11.6406557 C95.9909091,11.7416393 95.2363636,11.8701639 94.5363636,12.0078689 C93.8015579,12.1536123 93.0892389,12.3975038 92.4181818,12.7331148 C91.7383302,13.079431 91.1231441,13.5422527 90.6,14.1009836 C90.0093305,14.7538952 89.5466125,15.5139866 89.2363636,16.3409836 C88.8479131,17.3755419 88.5883464,18.4548588 88.4636364,19.5540984 C88.34243,20.5684304 88.2847396,21.5894763 88.2909091,22.6111475 C88.2917491,22.7085766 88.3102353,22.8050282 88.3454545,22.8957377 C88.3454545,23.4190164 88.2727273,23.9514754 88.2727273,24.5206557 C88.2230229,25.8974378 88.5535222,27.2610454 89.2272727,28.4590164 C89.8392355,29.4949927 90.740579,30.3253589 91.8181818,30.8459016 C92.9593972,31.3689167 94.2014816,31.6291843 95.4545455,31.6078689 C96.7355387,31.6157458 98.0033525,31.3465418 99.1727273,30.8183607 C100.282526,30.3225918 101.228809,29.5167099 101.9,28.4957377 C102.606162,27.3732837 102.958057,26.0607051 102.909091,24.7318033 C102.958387,23.4086283 102.606319,22.1018108 101.9,20.9862295 L101.9,20.9862295 Z M95.4545455,27.2013115 C94.0242424,27.2013115 93.3060606,26.3965027 93.3,24.7868852 C93.2939394,23.1772678 94.0121212,22.3663388 95.4545455,22.3540984 C96.8848485,22.3540984 97.6030303,23.1589071 97.6090909,24.7685246 C97.6151515,26.3781421 96.8969697,27.189071 95.4545455,27.2013115 Z" id="Shape" fill="#223A43"></path>
                <path d="M23.5909091,12.6780328 C25.0381845,13.9261112 25.8167027,15.7911515 25.6909091,17.7088525 C25.8123808,19.6284649 25.0349028,21.494412 23.5909091,22.7488525 C21.9124454,23.9893038 19.8580721,24.5996655 17.7818182,24.4747541 L14.1454545,24.4747541 L14.1454545,30.3501639 C14.1405441,30.7790563 13.7974421,31.125533 13.3727273,31.1304918 L9.61818182,31.1304918 C9.19346695,31.125533 8.85036503,30.7790563 8.84545455,30.3501639 L8.84545455,11.7416393 C8.85036503,11.312747 9.19346695,10.9662703 9.61818182,10.9613115 L17.8,10.9613115 C19.8685179,10.8426721 21.9141366,11.449098 23.5909091,12.6780328 Z M17.6363636,20.0222951 C18.3482389,20.0583801 19.0527,19.8620235 19.6454545,19.4622951 C20.1650824,19.0532078 20.4481617,18.4091535 20.4,17.7455738 C20.4481617,17.0819941 20.1650824,16.4379398 19.6454545,16.0288525 C19.0527,15.629124 18.3482389,15.4327674 17.6363636,15.4688525 L14.1272727,15.4688525 L14.1272727,20.0590164 L17.6363636,20.0222951 Z" id="Shape" fill="#223A43"></path>
                <path d="M31.5909091,27.0177049 C32.1299854,27.3751999 32.7643804,27.5577809 33.4090909,27.5409836 C33.8518004,27.5522953 34.2935285,27.4934384 34.7181818,27.3665574 C35.0497349,27.2657949 35.358565,27.1005049 35.6272727,26.88 C35.7681163,26.7555922 35.920311,26.6449342 36.0818182,26.5495082 C36.2356286,26.4914946 36.399722,26.4664822 36.5636364,26.4760656 L40.2727273,26.4760656 C40.4421688,26.4651678 40.6080655,26.5283977 40.7281216,26.6496346 C40.8481776,26.7708715 40.9107916,26.9384 40.9,27.1095082 C40.7745992,27.7324692 40.4600051,28.3004576 40,28.7344262 C39.293779,29.521986 38.4290024,30.1479951 37.4636364,30.5704918 C36.1814149,31.150074 34.7860185,31.4293877 33.3818182,31.387541 C31.295151,31.531406 29.2413768,30.804685 27.7,29.3770492 C26.2926656,27.8229807 25.5679664,25.759956 25.6909091,23.6577049 C25.6665025,22.2568807 25.978424,20.8709266 26.6,19.6183607 C27.1885356,18.4563748 28.1063014,17.4976234 29.2363636,16.8642623 C30.5152167,16.1736753 31.9503471,15.8319316 33.4,15.8727869 C34.9395,15.8105565 36.4631863,16.2063978 37.7818182,17.0111475 C38.8905952,17.7197413 39.7692712,18.7411153 40.3090909,19.9488525 C40.8383095,21.1315959 41.1110694,22.414909 41.1090909,23.7127869 L41.1090909,24.5206557 C41.1041804,24.9495481 40.7610785,25.2960248 40.3363636,25.3009836 L30.8272727,25.3009836 C30.7673422,25.9686487 31.0568484,26.6194838 31.5909091,27.0177049 L31.5909091,27.0177049 Z M35.9545455,22.0878689 C35.8902446,21.4598684 35.6142316,20.8732434 35.1727273,20.4262295 C34.1490826,19.5341601 32.6327356,19.5341601 31.6090909,20.4262295 C31.1675866,20.8732434 30.8915736,21.4598684 30.8272727,22.0878689 L35.9545455,22.0878689 Z" id="Shape" fill="#223A43"></path>
                <path d="M56.9909091,16.3868852 C57.138571,16.5310366 57.2207977,16.7303219 57.2181818,16.9377049 L57.2181818,30.3685246 C57.2132713,30.797417 56.8701694,31.1438937 56.4454545,31.1488525 L52.8090909,31.1488525 C52.384376,31.1438937 52.0412741,30.797417 52.0363636,30.3685246 L52.0363636,25.9619672 L47.1181818,25.9619672 L47.1181818,30.3685246 C47.1132713,30.797417 46.7701694,31.1438937 46.3454545,31.1488525 L42.7272727,31.1488525 C42.5236348,31.1517989 42.3272679,31.0724796 42.1818182,30.9285246 C42.0298794,30.7835201 41.9470796,30.5795015 41.9545455,30.3685246 L41.9545455,16.9377049 C41.9594559,16.5088125 42.3025579,16.1623358 42.7272727,16.157377 L46.3636364,16.157377 C46.7883512,16.1623358 47.1314531,16.5088125 47.1363636,16.9377049 L47.1363636,21.5278689 L52.1,21.5278689 L52.1,16.9377049 C52.1049105,16.5088125 52.4480124,16.1623358 52.8727273,16.157377 L56.5090909,16.157377 C56.6922083,16.171338 56.8637791,16.2530637 56.9909091,16.3868852 Z" id="Shape" fill="#223A43"></path>
                <path d="M72.9818182,16.3868852 C73.1294801,16.5310366 73.2117068,16.7303219 73.2090909,16.9377049 L73.2090909,19.8478689 C73.2041804,20.2767612 72.8610785,20.6232379 72.4363636,20.6281967 L68.1818182,20.6281967 L68.1818182,30.3685246 C68.1769077,30.797417 67.8338058,31.1438937 67.4090909,31.1488525 L63.7727273,31.1488525 C63.3480124,31.1438937 63.0049105,30.797417 63,30.3685246 L63,20.6190164 L58.7909091,20.6190164 C58.3661942,20.6140576 58.0230923,20.2675809 58.0181818,19.8386885 L58.0181818,16.9377049 C58.0230923,16.5088125 58.3661942,16.1623358 58.7909091,16.157377 L72.4272727,16.157377 C72.6357756,16.1521715 72.8369027,16.2354114 72.9818182,16.3868852 Z" id="Shape" fill="#223A43"></path>
                <path d="M82.5090909,21.3442623 C82.5090909,20.2854645 81.9575758,19.7560656 80.8545455,19.7560656 C80.2931658,19.732397 79.7428749,19.9187212 79.3090909,20.2793443 C79.1856807,20.4137656 79.02865,20.5120823 78.8545455,20.5639344 C78.6665416,20.6055966 78.4742299,20.6240922 78.2818182,20.6190164 L74.6454545,20.6190164 C74.4714656,20.6248307 74.3020189,20.5623085 74.1727273,20.4445902 C74.0498956,20.3263668 73.9921658,20.1549031 74.0181818,19.9855738 C74.138626,19.2818775 74.4833796,18.6371651 75,18.1495082 C75.6949308,17.4383637 76.531596,16.8844883 77.4545455,16.5245902 C78.5335698,16.0807856 79.6895321,15.8591797 80.8545455,15.8727869 C83.1212121,15.8727869 84.8181818,16.3930055 85.9454545,17.4334426 C87.0957495,18.5150821 87.7173462,20.0524699 87.6454545,21.6380328 L87.6454545,30.3685246 C87.6405441,30.797417 87.2974421,31.1438937 86.8727273,31.1488525 L83.2363636,31.1488525 C82.8116488,31.1438937 82.4685469,30.797417 82.4636364,30.3685246 L82.4636364,29.5606557 C81.988486,30.1589431 81.3814282,30.6367912 80.6909091,30.9560656 C79.8678825,31.3006482 78.9813736,31.463417 78.0909091,31.4334426 C76.7244604,31.5157291 75.379345,31.0618508 74.3363636,30.1665574 C73.4324751,29.3224886 72.9378771,28.1224367 72.9818182,26.88 C72.9731624,25.6303437 73.5536896,24.4510523 74.5454545,23.7036066 C75.9226257,22.720009 77.5238044,22.1041868 79.2,21.9134426 L82.5090909,21.3442623 Z M79.8818182,25.1816393 C79.4293858,25.2451338 78.998924,25.4183821 78.6272727,25.6865574 C78.3327039,25.8960656 78.1619601,26.2409122 78.1727273,26.6045902 C78.1787879,27.2288525 78.6363636,27.5409836 79.5454545,27.5409836 C80.3261185,27.5609771 81.0833953,27.2709088 81.6545455,26.7331148 C82.2035643,26.2388549 82.5149783,25.5296085 82.5090909,24.7868852 L79.8818182,25.1816393 Z" id="Shape" fill="#223A43"></path>
                <path d="M109.454545,27.0177049 C109.993622,27.3751999 110.628017,27.5577809 111.272727,27.5409836 C111.715437,27.5522953 112.157165,27.4934384 112.581818,27.3665574 C112.913371,27.2657949 113.222201,27.1005049 113.490909,26.88 C113.631753,26.7555922 113.783947,26.6449342 113.945455,26.5495082 C114.099265,26.4914946 114.263358,26.4664822 114.427273,26.4760656 L118.136364,26.4760656 C118.305805,26.4651678 118.471702,26.5283977 118.591758,26.6496346 C118.711814,26.7708715 118.774428,26.9384 118.763636,27.1095082 C118.650777,27.7269102 118.352413,28.2942503 117.909091,28.7344262 C117.20287,29.521986 116.338093,30.1479951 115.372727,30.5704918 C114.090506,31.150074 112.695109,31.4293877 111.290909,31.387541 C109.185797,31.5468716 107.109285,30.8190916 105.554545,29.3770492 C104.147211,27.8229807 103.422512,25.759956 103.545455,23.6577049 C103.521048,22.2568807 103.832969,20.8709266 104.454545,19.6183607 C105.043081,18.4563748 105.960847,17.4976234 107.090909,16.8642623 C108.369762,16.1736753 109.804893,15.8319316 111.254545,15.8727869 C112.794045,15.8105565 114.317732,16.2063978 115.636364,17.0111475 C116.745141,17.7197413 117.623817,18.7411153 118.163636,19.9488525 C118.692855,21.1315959 118.965615,22.414909 118.963636,23.7127869 L118.963636,24.5206557 C118.958726,24.9495481 118.615624,25.2960248 118.190909,25.3009836 L108.681818,25.3009836 C108.623943,25.9703855 108.917059,26.6215835 109.454545,27.0177049 L109.454545,27.0177049 Z M113.818182,22.0878689 C113.753881,21.4598684 113.477868,20.8732434 113.036364,20.4262295 C112.012719,19.5341601 110.496372,19.5341601 109.472727,20.4262295 C109.031223,20.8732434 108.75521,21.4598684 108.690909,22.0878689 L113.818182,22.0878689 Z" id="Shape" fill="#223A43"></path>
                <path d="M127.009091,25.3193443 C127.137196,27.0415719 126.485277,28.7296002 125.236364,29.9095082 C123.801112,31.0219415 122.014572,31.5700263 120.209091,31.4518033 L119.754545,31.4518033 C119.329831,31.4468445 118.986729,31.1003678 118.981818,30.6714754 L118.981818,27.7429508 C118.986729,27.3140584 119.329831,26.9675817 119.754545,26.962623 C120.337229,27.0215985 120.923878,26.8999124 121.436364,26.6137705 C121.776121,26.2170206 121.931622,25.6924725 121.863636,25.172459 L121.863636,16.9101639 C121.868547,16.4812715 122.211649,16.1347949 122.636364,16.1298361 L134.081818,16.1298361 C134.506533,16.1347949 134.849635,16.4812715 134.854545,16.9101639 L134.854545,30.3685246 C134.849635,30.797417 134.506533,31.1438937 134.081818,31.1488525 L130.445455,31.1488525 C130.02074,31.1438937 129.677638,30.797417 129.672727,30.3685246 L129.672727,20.6190164 L126.945455,20.6190164 L127.009091,25.3193443 Z" id="Shape" fill="#223A43"></path>
                <path d="M136.936364,31.1396721 C136.511649,31.1347133 136.168547,30.7882367 136.163636,30.3593443 L136.163636,16.9377049 C136.168547,16.5088125 136.511649,16.1623358 136.936364,16.157377 L140.572727,16.157377 C140.997442,16.1623358 141.340544,16.5088125 141.345455,16.9377049 L141.345455,19.067541 L144.2,19.067541 C145.36213,19.0499503 146.511806,19.3110932 147.554545,19.8295082 C148.51846,20.3072192 149.333194,21.0441973 149.909091,21.9593443 C150.799378,23.3694924 151.051343,25.0963217 150.601661,26.705852 C150.151979,28.3153822 149.043406,29.6545807 147.554545,30.3868852 C146.509788,30.8985272 145.361012,31.1563219 144.2,31.1396721 L136.936364,31.1396721 Z M143.636364,26.6780328 C144.139453,26.7069889 144.638805,26.5753021 145.063636,26.3016393 C145.423485,26.0207113 145.61842,25.575204 145.581818,25.117377 C145.614935,24.6575446 145.420995,24.2108742 145.063636,23.9239344 C144.641979,23.6422714 144.140964,23.5069236 143.636364,23.5383607 L141.3,23.5383607 L141.3,26.6780328 L143.636364,26.6780328 Z" id="Shape" fill="#223A43"></path>
                <path d="M166.309091,16.3868852 C166.456753,16.5310366 166.53898,16.7303219 166.536364,16.9377049 L166.536364,30.3685246 C166.531453,30.797417 166.188351,31.1438937 165.763636,31.1488525 L162.127273,31.1488525 C161.702558,31.1438937 161.359456,30.797417 161.354545,30.3685246 L161.354545,25.9619672 L156.390909,25.9619672 L156.390909,30.3685246 C156.385999,30.797417 156.042897,31.1438937 155.618182,31.1488525 L151.981818,31.1488525 C151.77818,31.1517989 151.581813,31.0724796 151.436364,30.9285246 C151.284425,30.7835201 151.201625,30.5795015 151.209091,30.3685246 L151.209091,16.9377049 C151.214001,16.5088125 151.557103,16.1623358 151.981818,16.157377 L155.618182,16.157377 C156.042897,16.1623358 156.385999,16.5088125 156.390909,16.9377049 L156.390909,21.5278689 L161.354545,21.5278689 L161.354545,16.9377049 C161.359456,16.5088125 161.702558,16.1623358 162.127273,16.157377 L165.763636,16.157377 C165.968999,16.1547354 166.166344,16.237771 166.309091,16.3868852 L166.309091,16.3868852 Z" id="Shape" fill="#223A43"></path>
                <path d="M181.972727,28.1285246 C181.29424,29.1632401 180.3521,29.9941349 179.245455,30.5337705 C176.71244,31.7250824 173.78756,31.7250824 171.254545,30.5337705 C170.1479,29.9941349 169.20576,29.1632401 168.527273,28.1285246 C167.895042,27.1274785 167.540291,25.9735002 167.5,24.7868852 L167.5,23.6668852 L167.5,22.5744262 C167.529002,21.3773223 167.884465,20.211499 168.527273,19.2052459 C169.200835,18.1616402 170.143854,17.323621 171.254545,16.7816393 C173.797154,15.5905966 176.730118,15.5905966 179.272727,16.7816393 C180.383419,17.323621 181.326438,18.1616402 182,19.2052459 C182.642378,20.2117011 182.997802,21.3773994 183.027273,22.5744262 C183.027273,22.764153 183.027273,23.128306 183.027273,23.6668852 C183.027273,24.2054645 183.027273,24.5787978 183.027273,24.7868852 C182.978367,25.9760194 182.614172,27.1300789 181.972727,28.1285246 L181.972727,28.1285246 Z M177.109091,26.3383607 C177.588108,25.8958727 177.870005,25.2768826 177.890909,24.6216393 C177.927273,24.2360656 177.945455,23.9086339 177.945455,23.6393443 C177.945455,23.3700546 177.927273,23.042623 177.890909,22.6570492 C177.870005,22.0018059 177.588108,21.3828158 177.109091,20.9403279 C176.018688,20.1125651 174.517675,20.1125651 173.427273,20.9403279 C172.948255,21.3828158 172.666359,22.0018059 172.645455,22.6570492 C172.645455,22.8498361 172.645455,23.1803279 172.645455,23.6393443 C172.645455,24.0983607 172.645455,24.4288525 172.645455,24.6216393 C172.666359,25.2768826 172.948255,25.8958727 173.427273,26.3383607 C174.517675,27.1661234 176.018688,27.1661234 177.109091,26.3383607 L177.109091,26.3383607 Z" id="Shape" fill="#223A43"></path>
                <path d="M190.209091,23.6393443 C190.073021,23.8074336 189.869537,23.9051235 189.654545,23.9055738 L185.954545,23.9055738 C185.739554,23.9051235 185.53607,23.8074336 185.4,23.6393443 C185.241998,23.4639926 185.157299,23.2337134 185.163636,22.9967213 L185.163636,8.50098361 C185.157299,8.26399148 185.241998,8.03371237 185.4,7.85836066 C185.53607,7.6902713 185.739554,7.59258145 185.954545,7.59213115 L189.654545,7.59213115 C189.869537,7.59258145 190.073021,7.6902713 190.209091,7.85836066 C190.367092,8.03371237 190.451792,8.26399148 190.445455,8.50098361 L190.445455,23.0059016 C190.449445,23.2397448 190.364904,23.4663094 190.209091,23.6393443 L190.209091,23.6393443 Z M190.209091,30.8734426 C190.073021,31.041532 189.869537,31.1392218 189.654545,31.1396721 L185.954545,31.1396721 C185.739554,31.1392218 185.53607,31.041532 185.4,30.8734426 C185.241998,30.6980909 185.157299,30.4678118 185.163636,30.2308197 L185.163636,26.8340984 C185.157299,26.5971062 185.241998,26.3668271 185.4,26.1914754 C185.53607,26.023386 185.739554,25.9256962 185.954545,25.9252459 L189.654545,25.9252459 C189.869537,25.9256962 190.073021,26.023386 190.209091,26.1914754 C190.367092,26.3668271 190.451792,26.5971062 190.445455,26.8340984 L190.445455,30.2308197 C190.451792,30.4678118 190.367092,30.6980909 190.209091,30.8734426 L190.209091,30.8734426 Z" id="Shape" fill="#223A43"></path>
                <path d="M197.336364,0 L1.7,0 C0.445454545,0 0,1.83606557 0,3.07540984 L0,38.9704918 C0,40.237377 0.445454545,41.3114754 1.7,41.3114754 L197.336364,41.3114754 C198.680963,41.3188541 199.821652,40.3163392 200,38.9704918 L200,3.07540984 C200,1.83606557 198.6,0 197.336364,0 Z M195.454545,36.7213115 L4.54545455,36.7213115 L4.54545455,4.59016393 L195.454545,4.59016393 L195.454545,36.7213115 Z" id="Shape" fill="#223A43"></path>
            </g>
        </g>
    </g>
</svg>