<svg xmlns="http://www.w3.org/2000/svg" width="75" height="80" viewBox="0 0 75 80"><g><g><path fill="#d1d1d1" d="M33.39 80c-1.972-.327-4.004-.454-5.903-1.024-3.414-1.025-6.748-2.316-10.24-3.54-.235 2.13-2.148 1.827-3.952 1.782a96.142 96.142 0 0 0-3.91-.003c-1.112.018-1.625-.495-1.62-1.61.017-2.844.04-5.689-.007-8.532-.029-1.832 1.41-1.54 2.438-1.755-.353-2.037-.66-4.011-1.066-5.964-.07-.333-.564-.58-.869-.86-.033-.03-.115-.004-.173-.012-1.589-.208-3.846.132-4.588-.771-.832-1.014-.293-3.153-.355-4.803-.01-.29-.04-.58-.027-.392C1.886 51.747.184 51.207.142 50.56c-.12-1.88 1.865-.937 2.918-1.511v-2.47c-.643-.042-1.29.068-1.779-.16-.507-.238-.86-.803-1.281-1.226.43-.398.82-.864 1.31-1.167.259-.161.693-.045 1.048-.045 8.175-.001 16.349-.004 24.524.001 2.239.002 2.314.081 2.32 2.287.008 2.252-.027 4.504.012 6.755.037 2.07.864 2.859 2.951 2.9 1.066.02 2.132 0 3.198-.015.173-.002.346-.063.658-.125V36.398c-4.69 2.354-6.625 1.996-10.003-1.933-.422.472-.824.934-1.238 1.385-2.519 2.746-6.683 2.727-9.057-.112-1.026-1.226-1.836-2.617-3.808-2.325-.263.04-.92-.688-.89-1.011.046-.472.459-1.085.885-1.297.484-.24 1.155-.13 1.745-.13 7.4-.005 14.8-.004 22.354-.004v-5.983c-.981.439-1.94 1.081-2.987 1.293-2.607.528-4.777-.318-6.365-2.519-.69-.955-1.322-1.87-2.813-1.746-.556.046-1.184-.773-1.78-1.198.608-.422 1.203-1.188 1.825-1.21 3.372-.121 6.751-.058 10.128-.058h2.031v-4.991c-.156-.095-.251-.201-.35-.205-3.988-.166-3.34.432-4.052-3.69-.717-4.15-.647-4.16 3.574-4.305.23-.008.46-.056.943-.119 0-1.405-.083-2.812.035-4.201.059-.696.486-1.36.746-2.039h1.067c.227 1.297.497 2.59.663 3.894.094.745.017 1.511.017 2.473 1.206 0 2.254-.003 3.302 0 1.326.004 1.775.658 1.527 1.944a47.199 47.199 0 0 0-.586 3.856c-.168 1.552-.843 2.394-2.526 2.137-.459-.07-.937-.01-1.562-.01v5.256h10.979c.533 0 1.145-.153 1.577.058.496.242 1.122.795 1.148 1.245.023.385-.774 1.207-1.117 1.16-1.793-.244-2.616.838-3.568 2.049-2.103 2.67-5.316 3.116-8.23 1.3-.232-.144-.46-.292-.854-.544v6.153h5.707c5.685 0 11.369-.004 17.054.008.524 0 1.136-.04 1.547.206.375.224.843.99.721 1.204-.27.474-.885 1.052-1.36 1.052-1.183-.001-1.932.395-2.657 1.347-3.156 4.151-7.064 4.197-10.486.201-.148-.173-.22-.41-.33-.62-4.013 4.083-5.917 4.441-10.162 1.98v19.514c3.377 0 6.78.064 10.176-.07.509-.02.971-.98 1.473-1.488.566-.573 1.067-1.473 1.741-1.638C59.03 51 65.887 49.473 72.723 47.851c1.01-.24 1.97-.233 2.08.84.051.49-.907 1.381-1.566 1.59-1.907.603-3.914.884-5.837 1.444-.511.149-1.188.813-1.239 1.297-1.515 14.473-11.302 24.735-25.54 26.702-.285.04-.555.182-.833.276zm-11.945-5.696c3.913 2.023 8.16 2.617 12.476 3.057 12.26 1.25 23.746-5.658 27.989-17.08.887-2.388 1.304-4.952 2.023-7.769-3.755.86-6.974 1.56-10.165 2.368-.465.117-.906.693-1.171 1.163-.863 1.532-2.134 2.38-3.874 2.39-5.742.03-11.486.08-17.227-.009-2.774-.042-4.56-1.935-4.806-4.72-.05-.57-.06-1.145-.091-1.763H5.807v3.989c5.7 0 11.263-.003 16.826.003.53 0 1.139-.103 1.57.117.44.224.973.79.97 1.204-.002.393-.578.928-1.024 1.132-.446.204-1.045.09-1.577.09-3.546.005-7.092.003-10.94.003.606 7.157 3.492 12.556 9.813 15.825zM5.77 49.194h20.804v-2.592H5.769zm4.656 25.472c1.182 0 2.247.08 3.289-.037.47-.052 1.067-.403 1.29-.797.17-.301-.04-.962-.284-1.325a59.926 59.926 0 0 0-2.808-3.825c-.303-.38-.816-.594-1.487-1.061zM33.993 8.972l.412 2.661h5.986l.425-2.661zm-5.167 24.69c1.833 2.226 4.14 2.188 5.536 0zm-11.287-.05c1.486 2.306 4.169 2.282 5.408 0m28.777-.032c1.502 2.349 4.203 2.313 5.452 0m-17.01.029c1.952 2.297 4.28 2.238 5.602 0m-5.516-11.473c1.729 2.403 4.4 2.324 5.504 0m-16.75.12c1.375 2.186 3.63 2.245 5.514 0z"/></g></g></svg>