<?xml version="1.0" encoding="UTF-8"?>
<svg width="16px" height="20px" viewBox="0 0 16 20" version="1.1" xmlns="http://www.w3.org/2000/svg" xmlns:xlink="http://www.w3.org/1999/xlink">
    <!-- Generator: Sketch 47.1 (45422) - http://www.bohemiancoding.com/sketch -->
    <title>shower</title>
    <desc>Created with Sketch.</desc>
    <defs></defs>
    <g id="Page-1" stroke="none" stroke-width="1" fill="none" fill-rule="evenodd">
        <g id="stangher-coworking-apartments" transform="translate(-969.000000, -6122.000000)" fill-rule="nonzero" fill="#B8B8B8">
            <g id="shower" transform="translate(969.000000, 6122.000000)">
                <path d="M8.90705882,16.9872689 C8.90705882,17.5926471 9.39739496,18.0830252 10.0027731,18.0830252 C10.6081513,18.0830252 11.0984874,17.5926471 11.0984874,16.9872689 C11.0984874,16.5910504 10.6931513,16.1261765 10.3711345,15.6586555 C10.1947479,15.402605 9.81802521,15.4026891 9.64138655,15.6586134 C9.31932773,16.1252101 8.90705882,16.5918908 8.90705882,16.9872689 Z" id="XMLID_137_"></path>
                <path d="M11.9306723,14.4313025 C11.9306723,15.0366807 12.4210084,15.5269748 13.0263866,15.5269748 C13.6317647,15.5269748 14.1221008,15.0366807 14.1221008,14.4313025 C14.1221008,14.0352941 13.7168067,13.5703361 13.3947059,13.1027731 C13.2183193,12.8466807 12.8415546,12.8467647 12.664916,13.1026891 C12.3428992,13.5693697 11.9306723,14.0361345 11.9306723,14.4313025 Z" id="XMLID_138_"></path>
                <path d="M5.88344538,14.4313025 C5.88344538,15.0366807 6.37378151,15.5269748 6.97915966,15.5269748 C7.58453782,15.5269748 8.07487395,15.0366807 8.07487395,14.4313025 C8.07487395,14.0352941 7.66957983,13.5703361 7.34752101,13.1027731 C7.17113445,12.8466807 6.79432773,12.8467647 6.61773109,13.1026891 C6.29571429,13.5693697 5.88344538,14.0361345 5.88344538,14.4313025 Z" id="XMLID_139_"></path>
                <path d="M8.85558824,4.6902521 C6.57920168,5.10235294 4.85605042,6.7094958 4.74630252,8.66142857 C4.74365546,8.71294118 4.76163866,8.76344538 4.79718487,8.80088235 C4.83260504,8.83836134 4.88210084,8.85970588 4.93361345,8.85970588 L15.0720168,8.85970588 C15.1234874,8.85970588 15.1730252,8.83831933 15.2077311,8.80088235 C15.2432353,8.76340336 15.2619328,8.71294118 15.2592857,8.66142857 C15.1462605,6.65428571 13.3293697,5.01071429 10.9567227,4.65747899 C10.5433193,2.02352941 8.26563025,0 5.51697479,0 C2.47663866,0 0.00352941176,2.47344538 0.00352941176,5.51340336 L0.00352941176,18.9539076 C0.00352941176,19.5215546 0.463781513,19.9813866 1.0310084,19.9813866 C1.59831933,19.9813866 2.05848739,19.5215546 2.05848739,18.9539076 L2.05848739,5.51340336 C2.05848739,3.6062605 3.60978992,2.05495798 5.51693277,2.05495798 C7.12705882,2.05495798 8.47226891,3.16642857 8.85558824,4.6902521 Z" id="XMLID_140_"></path>
                <path d="M15.2592857,9.83197479 L4.74630252,9.83197479 C4.36764706,9.83197479 4.06134454,10.1386975 4.06134454,10.5169328 C4.06134454,10.8952941 4.36764706,11.2019328 4.74630252,11.2019328 L15.2592857,11.2019328 C15.6379412,11.2019328 15.9442857,10.8952941 15.9442857,10.5169328 C15.9442857,10.1387395 15.6379412,9.83197479 15.2592857,9.83197479 Z" id="XMLID_141_"></path>
            </g>
        </g>
    </g>
</svg>