<svg xmlns="http://www.w3.org/2000/svg" xmlns:xlink="http://www.w3.org/1999/xlink" width="260" height="45" viewBox="0 0 260 45"><defs><path id="4rjca" d="M150.64 140.116l3.22-3.827c2.08 1.662 4.332 2.493 6.752 2.493.762 0 1.345-.128 1.75-.384s.608-.625.608-1.108c0-.445-.239-.808-.716-1.088s-1.4-.58-2.77-.899a56.317 56.317 0 0 1-1.835-.456c-.52-.14-1.07-.316-1.652-.53a9.88 9.88 0 0 1-1.485-.666 7.895 7.895 0 0 1-1.194-.84 4.404 4.404 0 0 1-.931-1.066 5.209 5.209 0 0 1-.561-1.34 6.34 6.34 0 0 1-.21-1.682c0-1.961.729-3.56 2.188-4.798 1.46-1.236 3.42-1.855 5.883-1.855 3.414 0 6.268.918 8.56 2.753l-2.893 4.074c-1.942-1.362-3.88-2.044-5.812-2.044-.675 0-1.19.128-1.548.384-.357.257-.535.592-.535 1.008 0 .483.24.857.716 1.123.477.265 1.434.563 2.871.892 1.273.28 2.355.586 3.247.92a10.58 10.58 0 0 1 2.406 1.254c.712.502 1.243 1.113 1.592 1.834.349.72.523 1.562.523 2.529 0 2.097-.764 3.75-2.293 4.957-1.53 1.208-3.571 1.811-6.126 1.811-1.878 0-3.66-.292-5.343-.877-1.685-.584-3.155-1.441-4.412-2.572"/><path id="4rjcb" d="M169.73 131.69v-4.552h1.9v-4.058h5.64v4.058h3.742v4.552h-3.741v5.447c0 .562.126.97.377 1.227.251.257.643.385 1.175.385.686 0 1.396-.18 2.131-.537v4.399c-1.112.614-2.417.922-3.915.922-1.76 0-3.101-.422-4.025-1.267-.923-.845-1.385-2.193-1.385-4.047v-6.529z"/><path id="4rjcc" d="M182.34 138.535c0-1.624.566-2.87 1.697-3.74 1.13-.869 2.663-1.304 4.597-1.304 1.44 0 2.731.207 3.871.623v-.26c0-1.74-1.072-2.61-3.219-2.61-1.47 0-2.944.294-4.423.884l-1.16-3.97c2.04-.833 4.21-1.248 6.511-1.248 2.775 0 4.815.653 6.12 1.956 1.15 1.122 1.726 2.822 1.726 5.103v9.233h-5.583v-1.667c-1.228 1.353-2.804 2.029-4.728 2.029-1.586 0-2.883-.442-3.893-1.326-1.011-.884-1.516-2.118-1.516-3.703m5.438-.26c0 .54.183.968.55 1.281.367.315.844.471 1.432.471.83 0 1.503-.24 2.02-.724.516-.483.773-1.121.773-1.913v-.754c-.656-.27-1.389-.406-2.199-.406-.81 0-1.442.184-1.896.551-.454.367-.68.865-.68 1.493"/><path id="4rjcd" d="M200.62 143.203v-16.06h5.641v2.275c1.377-1.759 2.982-2.638 4.815-2.638 1.702 0 3.038.527 4.01 1.58.971 1.053 1.457 2.498 1.457 4.334v10.509h-5.641v-8.675c0-.857-.206-1.52-.619-1.988-.412-.467-.962-.7-1.65-.7-.709 0-1.28.235-1.717.708-.436.472-.655 1.132-.655 1.98v8.675z"/><path id="4rjce" d="M218.77 132.784c0-1.494.283-2.905.849-4.23a10.436 10.436 0 0 1 2.327-3.428c.986-.96 2.173-1.719 3.56-2.278 1.388-.559 2.874-.838 4.46-.838 1.754 0 3.305.259 4.655.777 1.35.517 2.603 1.28 3.76 2.286l-3.376 4.054c-.772-.648-1.555-1.131-2.346-1.45-.792-.319-1.68-.479-2.665-.479-1.498 0-2.76.548-3.785 1.643-1.025 1.096-1.537 2.438-1.537 4.029 0 1.696.53 3.094 1.588 4.198 1.059 1.103 2.41 1.654 4.054 1.654 1.343 0 2.455-.3 3.335-.9v-2.608h-4.133v-4.16h9.571v9.387c-2.602 2.12-5.604 3.18-9.005 3.18-2.137 0-4.066-.457-5.787-1.372a10.172 10.172 0 0 1-4.053-3.857c-.981-1.657-1.472-3.526-1.472-5.608"/><path id="4rjcf" d="M241.68 143.2v-21.64h5.641v7.798c1.348-1.72 2.953-2.58 4.815-2.58 1.702 0 3.038.527 4.01 1.58.971 1.053 1.457 2.498 1.457 4.333v10.51h-5.641v-8.675c0-.858-.206-1.52-.619-1.988-.412-.468-.962-.701-1.65-.701-.709 0-1.28.236-1.717.709-.436.472-.655 1.131-.655 1.98v8.674z"/><path id="4rjcg" d="M258.96 135.187c0-1.16.2-2.256.602-3.29a8.137 8.137 0 0 1 1.66-2.674 7.719 7.719 0 0 1 2.574-1.783c1.01-.44 2.1-.66 3.27-.66 1.344 0 2.543.235 3.597.703 1.053.47 1.904 1.112 2.552 1.928a8.701 8.701 0 0 1 1.472 2.79c.333 1.044.5 2.17.5 3.378 0 .512-.01.899-.029 1.159h-10.76c.222.879.635 1.548 1.24 2.007.604.46 1.35.689 2.24.689 1.257 0 2.446-.557 3.568-1.674l3.117 2.603c-1.71 2.154-4.04 3.231-6.99 3.231-1.672 0-3.16-.348-4.466-1.043a7.526 7.526 0 0 1-3.052-2.958c-.73-1.275-1.095-2.744-1.095-4.406m5.35-1.333h5.584c-.106-.899-.406-1.61-.9-2.131-.492-.522-1.12-.783-1.884-.783-.725 0-1.337.264-1.835.79-.498.527-.819 1.235-.964 2.124"/><path id="4rjch" d="M277.28 143.2v-16.06h5.641v3.233c.97-2.328 2.57-3.493 4.8-3.493h.29v5.928h-.48c-3.073 0-4.61 1.802-4.61 5.407v4.986z"/><path id="4rjci" d="M181.022 160.629c.23.196.53.294.898.294.52 0 .942-.151 1.265-.453.323-.302.485-.702.485-1.197v-.471a3.6 3.6 0 0 0-1.378-.254c-.508 0-.905.116-1.188.345-.284.23-.426.54-.426.933 0 .339.114.606.344.803zm-2.892-7.129c1.275-.52 2.632-.78 4.07-.78 1.736 0 3.011.409 3.828 1.224.72.701 1.079 1.764 1.079 3.19v5.774h-3.492v-1.042c-.767.846-1.753 1.269-2.955 1.269-.992 0-1.803-.277-2.435-.83-.632-.552-.948-1.324-.948-2.315 0-1.016.354-1.795 1.06-2.339.708-.544 1.666-.815 2.875-.815.901 0 1.708.129 2.421.39v-.164c0-1.088-.67-1.632-2.012-1.632-.92 0-1.841.185-2.766.553zm17.288-.798v3.707h-.3c-1.922 0-2.884 1.127-2.884 3.381v3.118h-3.526v-10.043h3.526v2.021c.607-1.455 1.608-2.184 3.002-2.184zm57.991.853c.744-.593 1.714-.89 2.911-.89.738 0 1.47.107 2.195.32a7.142 7.142 0 0 1 1.95.888l-1.207 2.235a8.855 8.855 0 0 0-1.577-.656c-.533-.16-.998-.242-1.397-.242-.266 0-.47.045-.607.133a.413.413 0 0 0-.21.37c0 .176.12.32.36.435.238.115.662.26 1.273.436.447.123.828.24 1.143.351.314.113.635.257.96.432.327.177.589.367.785.573.197.205.358.459.486.76.127.303.19.642.19 1.018 0 1.096-.37 1.937-1.107 2.525-.737.588-1.735.882-2.992.882-1.795 0-3.382-.51-4.76-1.529l1.323-2.133c1.161.745 2.312 1.117 3.456 1.117.592 0 .887-.185.887-.555 0-.175-.12-.32-.362-.435-.242-.114-.66-.249-1.25-.4-.45-.118-.83-.23-1.144-.335a6.22 6.22 0 0 1-.96-.422 3.152 3.152 0 0 1-.785-.573 2.419 2.419 0 0 1-.485-.774 2.74 2.74 0 0 1-.191-1.048c0-1.063.372-1.89 1.115-2.483zm-83.958 5.977c.396.433.881.648 1.455.648.586 0 1.076-.214 1.47-.644.392-.429.588-.988.588-1.676 0-.653-.198-1.194-.593-1.622a1.914 1.914 0 0 0-1.465-.644c-.574 0-1.06.215-1.455.647-.396.433-.594.985-.594 1.654 0 .66.198 1.205.594 1.637zm.796-6.481c.467-.274 1.046-.412 1.736-.412.596 0 1.163.122 1.699.367a4.424 4.424 0 0 1 1.419 1.029c.41.44.733.994.971 1.658.238.665.357 1.393.357 2.185 0 .791-.119 1.52-.357 2.189-.238.668-.56 1.223-.967 1.667a4.346 4.346 0 0 1-1.413 1.034c-.537.245-1.1.367-1.69.367-.697 0-1.286-.13-1.768-.39a4.51 4.51 0 0 1-1.296-1.06v4.196h-3.527v-13.016h3.527v1.333c.407-.49.843-.871 1.31-1.147zm44.953.007c.536-.28 1.153-.42 1.854-.42 1.077 0 1.918.322 2.526.966.607.643.912 1.548.912 2.715v6.59h-3.528v-5.443c0-.537-.123-.948-.367-1.234-.245-.286-.579-.43-1.003-.43-.429 0-.777.145-1.047.434-.268.29-.403.7-.403 1.23v5.442h-3.527v-5.442c0-.537-.125-.948-.374-1.234-.248-.286-.585-.43-1.01-.43-.43 0-.776.145-1.037.434-.26.29-.391.7-.391 1.23v5.442h-3.527v-10.043h3.527v1.386c.843-1.074 1.84-1.612 2.993-1.612.664 0 1.248.143 1.75.428.501.286.885.693 1.151 1.222.466-.541.967-.952 1.5-1.23zm10.46 2.676c-.311.33-.512.772-.603 1.328h3.491c-.066-.562-.254-1.006-.561-1.332-.309-.327-.702-.49-1.18-.49a1.52 1.52 0 0 0-1.147.494zm-.925-2.683a5.087 5.087 0 0 1 2.045-.412c.84 0 1.59.147 2.25.44.658.293 1.19.695 1.595 1.205.406.51.712 1.092.92 1.745.21.652.313 1.356.313 2.111 0 .321-.006.562-.018.726h-6.728c.139.55.397.968.775 1.255.378.287.845.43 1.401.43.786 0 1.53-.348 2.23-1.046l1.95 1.628c-1.07 1.346-2.527 2.02-4.37 2.02-1.046 0-1.977-.218-2.793-.653a4.71 4.71 0 0 1-1.91-1.85c-.455-.796-.683-1.715-.683-2.755 0-.724.125-1.41.375-2.056a5.1 5.1 0 0 1 1.039-1.673c.44-.468.978-.84 1.61-1.115zm11.961 1.238c.862-1.1 1.865-1.65 3.011-1.65 1.064 0 1.9.33 2.507.988.608.658.912 1.562.912 2.71v6.571h-3.528v-5.424c0-.536-.129-.95-.386-1.244-.258-.292-.602-.438-1.033-.438-.442 0-.8.148-1.073.443-.273.295-.41.708-.41 1.24v5.423h-3.527v-10.043h3.527zm-36.087-3.962v2.538h2.34v2.847h-2.34v3.406c0 .351.079.607.236.767.157.16.403.241.735.241.429 0 .873-.112 1.333-.336v2.75c-.696.384-1.512.576-2.449.576-1.1 0-1.94-.263-2.516-.792-.578-.527-.866-1.371-.866-2.53v-4.082h-1.188v-2.847h1.188v-2.538zm48.288 0v2.538h2.34v2.847h-2.34v3.406c0 .351.08.607.237.767.157.16.402.241.734.241.43 0 .874-.112 1.333-.336v2.75c-.695.384-1.511.576-2.448.576-1.1 0-1.939-.263-2.516-.792-.578-.527-.867-1.371-.867-2.53v-4.082h-1.188v-2.847h1.188v-2.538zm-93.12 7.46h2.92l-1.451-3.698zm3.236-7.967l5.532 13.088h-3.863l-.952-2.32h-5.015l-.924 2.32H150l5.541-13.088z"/><path id="4rjck" d="M269.44 157.423c0-1.105.212-2.157.635-3.156.423-1 .995-1.865 1.718-2.595.723-.73 1.594-1.312 2.616-1.744a8.28 8.28 0 0 1 3.256-.648c1.124 0 2.187.197 3.187.593 1 .397 1.85.923 2.548 1.582a7.449 7.449 0 0 1 1.66 2.305c.408.879.612 1.79.612 2.732 0 .81-.11 1.54-.33 2.19-.222.65-.518 1.174-.89 1.569a3.893 3.893 0 0 1-1.26.907 3.58 3.58 0 0 1-1.474.313c-1.366 0-2.321-.469-2.866-1.406-.791.913-1.701 1.37-2.73 1.37-.978 0-1.789-.343-2.43-1.026-.64-.685-.96-1.586-.96-2.706 0-.875.186-1.687.557-2.435.372-.748.874-1.339 1.505-1.774.633-.435 1.311-.652 2.037-.652 1.082 0 1.913.466 2.493 1.398l.218-1.15 2.883.45-.852 4.802a4.305 4.305 0 0 0-.082.819c0 .323.109.587.327.794.217.207.51.31.88.31.628 0 1.15-.33 1.569-.993.416-.662.625-1.589.625-2.78 0-.852-.18-1.67-.54-2.455a6.598 6.598 0 0 0-1.478-2.065c-.625-.593-1.392-1.065-2.298-1.42a7.96 7.96 0 0 0-2.911-.528 7.657 7.657 0 0 0-2.984.583c-.93.39-1.72.915-2.367 1.577a7.316 7.316 0 0 0-1.532 2.354 7.496 7.496 0 0 0-.562 2.885c0 1.028.186 1.994.558 2.898a7.157 7.157 0 0 0 1.536 2.345c.653.66 1.448 1.178 2.386 1.56a7.956 7.956 0 0 0 3.028.571c.889 0 1.687-.101 2.394-.303a9.461 9.461 0 0 0 2.15-.938l.371.589c-1.53.93-3.168 1.396-4.915 1.396a8.83 8.83 0 0 1-2.698-.41 7.815 7.815 0 0 1-2.294-1.155 8.391 8.391 0 0 1-1.755-1.75 7.687 7.687 0 0 1-1.142-2.236 8.286 8.286 0 0 1-.399-2.567zm6.257.054c0 .453.127.807.38 1.063.253.256.578.383.976.383.494 0 .912-.207 1.256-.623.344-.415.515-.919.515-1.51 0-.427-.124-.768-.375-1.022-.25-.252-.573-.379-.971-.379-.501 0-.923.202-1.266.606-.343.404-.515.898-.515 1.482z"/><path id="4rjcl" d="M292.44 162.528V149.53h10.4v3.163h-6.8v2.203h6.148v2.991h-6.149v4.64z"/><path id="4rjcm" d="M303.85 156.038c0-.92.18-1.795.54-2.626.36-.831.848-1.55 1.465-2.154a6.855 6.855 0 0 1 2.23-1.443 7.284 7.284 0 0 1 2.784-.535c.985 0 1.91.177 2.775.531a6.766 6.766 0 0 1 2.214 1.434 6.582 6.582 0 0 1 1.447 2.149c.352.83.528 1.712.528 2.644 0 .917-.179 1.793-.538 2.626a6.705 6.705 0 0 1-1.46 2.156 6.855 6.855 0 0 1-2.226 1.44 7.255 7.255 0 0 1-2.776.535c-1.312 0-2.503-.3-3.573-.902a6.563 6.563 0 0 1-2.507-2.445c-.602-1.03-.903-2.166-.903-3.41m3.69 0c0 .961.315 1.788.944 2.477.628.69 1.424 1.035 2.385 1.035.973 0 1.769-.34 2.385-1.021.617-.68.925-1.511.925-2.491 0-.963-.315-1.789-.944-2.478-.628-.69-1.43-1.034-2.402-1.034-.961 0-1.75.34-2.367 1.02-.616.681-.925 1.511-.925 2.492"/><path id="4rjcn" d="M319.53 162.528V149.53h6.133c1.888 0 3.296.468 4.225 1.405.766.771 1.149 1.805 1.149 3.098 0 .952-.234 1.76-.702 2.423-.468.665-1.12 1.173-1.953 1.526l3.101 4.546h-4.155l-2.62-3.952h-1.579v3.952zm3.6-6.743h2.376c.61 0 1.084-.138 1.423-.416.339-.278.508-.662.508-1.151 0-.496-.17-.874-.513-1.135-.34-.26-.82-.39-1.437-.39h-2.358z"/><path id="4rjco" d="M332.53 156.827v-7.297h3.655v7.23c0 .914.211 1.604.634 2.07.424.465 1.01.698 1.76.698s1.336-.225 1.759-.672c.423-.447.635-1.116.635-2.004v-7.322h3.654v7.206c0 1.034-.142 1.937-.426 2.71-.283.774-.694 1.402-1.231 1.886a5.225 5.225 0 0 1-1.915 1.083c-.74.238-1.577.357-2.512.357-1.905 0-3.383-.493-4.434-1.48-1.052-.99-1.579-2.477-1.579-4.465"/><path id="4rjcp" d="M346.58 162.528V149.53h3.809l3.1 5.03 3.102-5.03h3.817v12.998h-3.6v-7.46l-3.319 5.084h-.072l-3.31-5.048v7.424z"/><path id="4rjcq" d="M361.74 164.227c.604-.073 1.066-.251 1.383-.535.317-.284.476-.662.476-1.133v-.073h-1.442v-3.616h3.691v2.945c0 1.312-.33 2.26-.989 2.843-.659.582-1.605.892-2.838.928z"/><path id="4rjcr" d="M372.55 162.528V149.53h3.6v9.834h6.303v3.164z"/><path id="4rjcs" d="M381.62 152.48h3.718l1.932 5.864 1.931-5.864h3.663l-4.017 10.115h-3.21z"/><path id="4rjct" d="M393.8 151.582h3.682v-2.602H393.8zm.082 10.949h3.527v-10.043h-3.527z"/><path id="4rjcu" d="M398.42 152.48h3.718l1.932 5.864L406 152.48h3.663l-4.017 10.115h-3.21z"/><linearGradient id="4rjcj" x1="150" x2="260.64" y1="157.85" y2="157.85" gradientUnits="userSpaceOnUse"><stop offset="0" stop-color="#f47c22"/><stop offset="1" stop-color="#ffcd02"/></linearGradient></defs><g><g transform="translate(-150 -121)"><g><g><use fill="#322f31" xlink:href="#4rjca"/></g><g><use fill="#322f31" xlink:href="#4rjcb"/></g><g><use fill="#322f31" xlink:href="#4rjcc"/></g><g><use fill="#322f31" xlink:href="#4rjcd"/></g><g><use fill="#322f31" xlink:href="#4rjce"/></g><g><use fill="#322f31" xlink:href="#4rjcf"/></g><g><use fill="#322f31" xlink:href="#4rjcg"/></g><g><use fill="#322f31" xlink:href="#4rjch"/></g></g><g><g><use fill="url(#4rjcj)" xlink:href="#4rjci"/></g></g><g><use fill="#727272" xlink:href="#4rjck"/></g><g><use fill="#727272" xlink:href="#4rjcl"/></g><g><use fill="#727272" xlink:href="#4rjcm"/></g><g><use fill="#727272" xlink:href="#4rjcn"/></g><g><use fill="#727272" xlink:href="#4rjco"/></g><g><use fill="#727272" xlink:href="#4rjcp"/></g><g><use fill="#727272" xlink:href="#4rjcq"/></g><g><use fill="#727272" xlink:href="#4rjcr"/></g><g><use fill="#727272" xlink:href="#4rjcs"/></g><g><use fill="#727272" xlink:href="#4rjct"/></g><g><use fill="#727272" xlink:href="#4rjcu"/></g></g></g></svg>