<svg xmlns="http://www.w3.org/2000/svg" xmlns:xlink="http://www.w3.org/1999/xlink" width="239" height="45" viewBox="0 0 239 45"><defs><path id="uoaua" d="M251.6 9251.728c0-1.064.204-2.078.612-3.042a7.887 7.887 0 0 1 1.655-2.5 7.729 7.729 0 0 1 2.52-1.681 7.974 7.974 0 0 1 3.137-.625 8.26 8.26 0 0 1 3.07.572c.964.382 1.782.89 2.455 1.524a7.18 7.18 0 0 1 1.599 2.222c.393.847.59 1.725.59 2.634 0 .78-.107 1.484-.319 2.11-.213.627-.498 1.131-.856 1.512a3.75 3.75 0 0 1-1.215.875 3.448 3.448 0 0 1-1.42.301c-1.316 0-2.236-.451-2.76-1.355-.763.88-1.64 1.32-2.63 1.32-.943 0-1.724-.33-2.341-.988-.617-.66-.926-1.529-.926-2.609 0-.843.18-1.626.537-2.346.359-.721.842-1.291 1.45-1.71.61-.42 1.263-.628 1.962-.628 1.042 0 1.843.448 2.402 1.346l.21-1.107 2.778.434-.821 4.628a4.153 4.153 0 0 0-.079.789c0 .31.105.566.314.765.21.2.493.299.848.299.606 0 1.11-.319 1.512-.957.401-.638.602-1.532.602-2.68 0-.82-.173-1.61-.52-2.366a6.36 6.36 0 0 0-1.423-1.99c-.603-.572-1.342-1.027-2.215-1.368a7.665 7.665 0 0 0-2.804-.51c-1.02 0-1.977.187-2.875.563-.897.375-1.657.881-2.28 1.519a7.052 7.052 0 0 0-1.476 2.27 7.228 7.228 0 0 0-.542 2.78c0 .99.18 1.921.538 2.793a6.898 6.898 0 0 0 1.48 2.26c.629.635 1.395 1.136 2.298 1.503.903.368 1.875.551 2.918.551.856 0 1.624-.097 2.306-.292a9.113 9.113 0 0 0 2.071-.904l.358.567c-1.474.897-3.052 1.346-4.735 1.346a8.504 8.504 0 0 1-2.6-.394 7.527 7.527 0 0 1-2.21-1.114 8.086 8.086 0 0 1-1.69-1.688 7.41 7.41 0 0 1-1.1-2.154 7.99 7.99 0 0 1-.385-2.475zm6.028.047c0 .435.122.775.367 1.021.244.247.559.369.943.369.478 0 .882-.2 1.215-.599.332-.4.497-.883.497-1.451 0-.41-.12-.738-.362-.982-.242-.243-.554-.364-.939-.364-.484 0-.892.193-1.223.581-.332.389-.498.863-.498 1.425z"/><path id="uoaub" d="M273.77 9256.648v-12.528h10.02v3.05h-6.552v2.122h5.923v2.883h-5.923v4.473z"/><path id="uoauc" d="M284.75 9250.394c0-.887.173-1.73.52-2.531a6.472 6.472 0 0 1 1.411-2.077 6.604 6.604 0 0 1 2.149-1.39 7.014 7.014 0 0 1 2.682-.516c.95 0 1.84.17 2.673.512a6.518 6.518 0 0 1 2.134 1.382 6.344 6.344 0 0 1 1.393 2.07c.34.802.51 1.652.51 2.55 0 .884-.173 1.728-.519 2.531a6.463 6.463 0 0 1-1.408 2.078 6.604 6.604 0 0 1-2.143 1.389 6.987 6.987 0 0 1-2.675.514c-1.264 0-2.411-.29-3.442-.868a6.324 6.324 0 0 1-2.415-2.358c-.58-.992-.87-2.088-.87-3.286m3.556 0c0 .926.303 1.723.908 2.387.606.665 1.372.997 2.298.997.938 0 1.704-.327 2.298-.984.594-.655.89-1.456.89-2.4 0-.928-.303-1.724-.908-2.389-.606-.664-1.377-.997-2.315-.997-.926 0-1.686.328-2.28.984-.594.656-.891 1.457-.891 2.402"/><path id="uoaud" d="M299.86 9256.648v-12.528h5.909c1.818 0 3.174.451 4.07 1.354.738.744 1.107 1.74 1.107 2.987 0 .917-.226 1.695-.676 2.335-.451.64-1.079 1.13-1.882 1.47l2.988 4.382h-4.003l-2.525-3.809h-1.52v3.81zm3.468-6.508h2.289c.588 0 1.045-.134 1.371-.4.326-.267.49-.636.49-1.106 0-.477-.165-.84-.494-1.09-.329-.25-.79-.375-1.385-.375h-2.271z"/><path id="uoaue" d="M312.39 9251.153v-7.033h3.52v6.97c0 .88.205 1.544.612 1.993.408.45.973.674 1.695.674.722 0 1.287-.217 1.695-.648.408-.43.612-1.076.612-1.932v-7.057h3.52v6.946c0 .996-.137 1.866-.41 2.612-.273.745-.668 1.351-1.186 1.817a5.033 5.033 0 0 1-1.845 1.044c-.713.23-1.52.345-2.42.345-1.835 0-3.259-.476-4.272-1.428-1.014-.953-1.521-2.387-1.521-4.303"/><path id="uoauf" d="M325.92 9256.648v-12.528h3.67l2.986 4.849 2.989-4.849h3.677v12.528h-3.468v-7.19l-3.198 4.9h-.07l-3.188-4.865v7.155z"/><path id="uoaug" d="M340.53 9258.293c.582-.07 1.027-.242 1.332-.516.306-.273.46-.637.46-1.091v-.07h-1.39v-3.486h3.556v2.839c0 1.264-.318 2.177-.953 2.74-.635.56-1.547.86-2.734.894z"/><path id="uoauh" d="M350.94 9256.648v-12.528h3.468v9.479h6.072v3.049z"/><path id="uoaui" d="M359.68 9246.97h3.582l1.86 5.652 1.862-5.652h3.529l-3.87 9.75h-3.092z"/><path id="uoauj" d="M371.42 9246.098h3.547v-2.508h-3.547zm.078 10.553h3.4v-9.68h-3.4z"/><path id="uoauk" d="M375.87 9246.97h3.582l1.86 5.652 1.862-5.652h3.529l-3.87 9.75h-3.092z"/><path id="uoaul" d="M148 9233.423l3.102-3.688c2.005 1.602 4.173 2.403 6.505 2.403.734 0 1.296-.123 1.686-.37.39-.247.585-.603.585-1.069 0-.428-.23-.778-.69-1.048-.459-.27-1.349-.559-2.667-.866a54.22 54.22 0 0 1-1.768-.44c-.5-.135-1.03-.305-1.592-.51a9.517 9.517 0 0 1-1.43-.642 7.606 7.606 0 0 1-1.15-.81 4.244 4.244 0 0 1-.898-1.028 5.022 5.022 0 0 1-.54-1.292 6.114 6.114 0 0 1-.203-1.62c0-1.89.702-3.433 2.108-4.625 1.406-1.192 3.295-1.788 5.667-1.788 3.29 0 6.039.885 8.248 2.654l-2.787 3.926c-1.872-1.313-3.738-1.97-5.6-1.97-.65 0-1.147.124-1.49.37-.345.248-.517.571-.517.971 0 .467.23.827.69 1.083.46.256 1.382.543 2.766.86 1.226.27 2.27.565 3.128.886.859.322 1.632.725 2.318 1.21.686.483 1.197 1.072 1.534 1.767.336.693.504 1.506.504 2.438 0 2.02-.736 3.614-2.21 4.777-1.473 1.165-3.44 1.746-5.901 1.746-1.81 0-3.525-.281-5.148-.845-1.623-.563-3.04-1.39-4.25-2.48"/><path id="uoaum" d="M166.4 9225.309v-4.387h1.83v-3.912h5.435v3.912h3.604v4.387h-3.604v5.25c0 .541.121.935.363 1.183.242.247.62.37 1.132.37.66 0 1.345-.172 2.054-.517v4.24c-1.072.592-2.33.888-3.773.888-1.695 0-2.987-.406-3.877-1.22-.89-.815-1.334-2.115-1.334-3.901v-6.293z"/><path id="uoaun" d="M178.54 9231.904c0-1.564.545-2.766 1.635-3.604 1.09-.838 2.565-1.257 4.429-1.257 1.387 0 2.63.2 3.73.6v-.25c0-1.677-1.034-2.516-3.102-2.516-1.416 0-2.836.284-4.26.853l-1.119-3.828c1.965-.802 4.056-1.202 6.273-1.202 2.673 0 4.638.629 5.896 1.886 1.108 1.08 1.662 2.72 1.662 4.918v8.9h-5.378v-1.608c-1.183 1.305-2.702 1.956-4.555 1.956-1.528 0-2.778-.426-3.75-1.278-.975-.852-1.461-2.042-1.461-3.57m5.242-.25c0 .521.177.934.53 1.235.354.303.814.454 1.381.454.8 0 1.45-.232 1.947-.698.497-.465.746-1.08.746-1.844v-.726c-.633-.261-1.34-.392-2.12-.392-.782 0-1.39.177-1.828.532-.437.353-.656.833-.656 1.438"/><path id="uoauo" d="M196.15 9236.4v-15.48h5.435v2.192c1.326-1.695 2.872-2.542 4.638-2.542 1.64 0 2.927.508 3.863 1.523.936 1.015 1.404 2.408 1.404 4.177v10.13h-5.435v-8.362c0-.826-.198-1.466-.595-1.916-.397-.45-.928-.676-1.59-.676-.683 0-1.234.228-1.654.683-.42.455-.631 1.091-.631 1.91v8.36z"/><path id="uoaup" d="M213.64 9226.365c0-1.44.272-2.8.818-4.078a10.06 10.06 0 0 1 2.242-3.303c.95-.925 2.093-1.657 3.43-2.196 1.336-.54 2.768-.808 4.296-.808 1.69 0 3.185.25 4.485.749 1.3.499 2.507 1.233 3.621 2.203l-3.252 3.908c-.743-.625-1.497-1.09-2.26-1.398-.762-.307-1.618-.461-2.566-.461-1.444 0-2.66.528-3.647 1.583-.987 1.056-1.48 2.35-1.48 3.883 0 1.635.51 2.983 1.53 4.046 1.02 1.064 2.32 1.595 3.904 1.595 1.294 0 2.365-.29 3.213-.867v-2.514h-3.981v-4.01h9.22v9.048c-2.507 2.043-5.399 3.065-8.675 3.065-2.059 0-3.918-.44-5.575-1.323a9.802 9.802 0 0 1-3.905-3.717c-.945-1.597-1.418-3.399-1.418-5.405"/><path id="uoauq" d="M235.71 9236.398v-20.858h5.435v7.517c1.298-1.659 2.844-2.488 4.638-2.488 1.64 0 2.927.508 3.863 1.523.936 1.015 1.404 2.408 1.404 4.177v10.13h-5.435v-8.361c0-.827-.198-1.466-.595-1.917-.397-.45-.928-.676-1.59-.676-.683 0-1.234.228-1.654.684-.42.454-.631 1.09-.631 1.909v8.36z"/><path id="uoaur" d="M252.35 9228.673c0-1.117.193-2.174.58-3.17a7.843 7.843 0 0 1 1.599-2.578 7.436 7.436 0 0 1 2.48-1.718 7.793 7.793 0 0 1 3.15-.637c1.295 0 2.45.227 3.465.678 1.015.452 1.835 1.071 2.46 1.858a8.388 8.388 0 0 1 1.417 2.69c.321 1.005.482 2.09.482 3.255 0 .494-.01.866-.028 1.117H257.59c.214.847.612 1.492 1.194 1.934.582.444 1.302.665 2.159.665 1.21 0 2.356-.538 3.437-1.614l3.003 2.51c-1.648 2.075-3.893 3.114-6.734 3.114-1.61 0-3.045-.336-4.303-1.006a7.252 7.252 0 0 1-2.94-2.85c-.704-1.23-1.055-2.646-1.055-4.248m5.158-1.285h5.373c-.103-.866-.391-1.55-.866-2.054-.474-.503-1.079-.754-1.813-.754a2.33 2.33 0 0 0-1.766.762c-.479.507-.788 1.19-.928 2.046"/><path id="uoaus" d="M270.01 9236.401v-15.48h5.435v3.115c.934-2.243 2.475-3.366 4.623-3.366h.28v5.714h-.462c-2.96 0-4.441 1.737-4.441 5.211v4.806z"/><path id="uoaut" d="M216.746 9246.721h3.389v9.68h-3.389zm-36.283-.035l1.504 4.936 1.31-4.901h3.28l-2.991 9.75h-2.938l-1.573-5.024-1.617 5.024h-2.92l-2.946-9.75h3.33l1.269 4.865 1.485-4.9zm24.605-.122v3.573h-.29c-1.855 0-2.782 1.086-2.782 3.259v3.005h-3.403v-9.68h3.403v1.947c.585-1.403 1.55-2.104 2.896-2.104zm-40.39 6.539c.392.427.882.64 1.469.64.598 0 1.084-.209 1.456-.628.371-.418.557-.935.557-1.55 0-.6-.194-1.112-.583-1.539a1.9 1.9 0 0 0-1.465-.64c-.598 0-1.085.21-1.46.632-.375.42-.562.936-.562 1.546 0 .599.196 1.112.588 1.539zm-.685-6.194a5.702 5.702 0 0 1 2.154-.407c1.01 0 1.926.228 2.745.683a4.952 4.952 0 0 1 2.597 4.389c0 .682-.136 1.334-.407 1.955a5.114 5.114 0 0 1-1.108 1.618 5.187 5.187 0 0 1-1.707 1.093 5.698 5.698 0 0 1-2.155.406 5.695 5.695 0 0 1-2.14-.402 5.163 5.163 0 0 1-1.705-1.084 4.982 4.982 0 0 1-1.103-1.618 4.926 4.926 0 0 1-.403-1.968c0-.682.136-1.333.407-1.954a5.077 5.077 0 0 1 1.113-1.618 5.228 5.228 0 0 1 1.712-1.093zm26.57 6.194c.392.427.882.64 1.47.64.598 0 1.083-.209 1.455-.628.372-.418.558-.935.558-1.55 0-.6-.195-1.112-.584-1.539a1.9 1.9 0 0 0-1.465-.64c-.598 0-1.085.21-1.46.632-.375.42-.562.936-.562 1.546 0 .599.196 1.112.588 1.539zm-.688-6.194a5.692 5.692 0 0 1 2.152-.407c1.01 0 1.924.228 2.743.683a4.952 4.952 0 0 1 2.595 4.389 4.83 4.83 0 0 1-.408 1.955c-.27.621-.64 1.16-1.106 1.618a5.176 5.176 0 0 1-1.706 1.093 5.686 5.686 0 0 1-2.153.406 5.685 5.685 0 0 1-2.139-.402 5.163 5.163 0 0 1-1.702-1.084 4.983 4.983 0 0 1-1.102-1.618 4.93 4.93 0 0 1-.402-1.968c0-.682.135-1.333.406-1.954a5.077 5.077 0 0 1 1.111-1.618 5.223 5.223 0 0 1 1.711-1.093zm35.38 1.184c.83-1.06 1.798-1.59 2.904-1.59 1.026 0 1.832.317 2.418.952.586.634.88 1.505.88 2.612v6.334h-3.403v-5.23c0-.516-.124-.916-.373-1.197-.248-.281-.58-.422-.995-.422-.427 0-.773.142-1.036.426-.263.285-.395.683-.395 1.194v5.229h-3.4v-9.68h3.4zm11.289 4.304c.373.357.85.535 1.432.535.571 0 1.042-.183 1.411-.548.37-.365.555-.827.555-1.387 0-.543-.185-.992-.555-1.348-.37-.357-.84-.534-1.411-.534-.582 0-1.06.182-1.432.548-.373.365-.56.827-.56 1.387 0 .542.187.99.56 1.347zm-1.293-5.578a4.121 4.121 0 0 1 1.598-.317c.67 0 1.24.117 1.708.349a4.94 4.94 0 0 1 1.333.994v-1.124h3.38v7.356c0 1.741-.414 3.028-1.245 3.861-.906.91-2.322 1.363-4.25 1.363-1.788 0-3.404-.37-4.848-1.11l1.092-2.254c1.094.606 2.222.909 3.381.909.844 0 1.48-.204 1.904-.612.425-.408.638-1.002.638-1.783v-.38c-.39.457-.823.815-1.297 1.078-.475.263-1.039.395-1.69.395-1.224 0-2.246-.415-3.067-1.245-.821-.831-1.231-1.936-1.231-3.316 0-.67.113-1.29.34-1.86a4.1 4.1 0 0 1 .918-1.42c.383-.379.83-.674 1.336-.884zm-83.072-2.684a6.837 6.837 0 0 1 2.628-.507c2.23 0 3.984.873 5.259 2.616l-2.542 1.976c-.775-.979-1.695-1.467-2.76-1.467-.869 0-1.584.326-2.145.976-.563.65-.844 1.453-.844 2.408 0 .959.281 1.762.844 2.41.561.648 1.276.972 2.144.972.612 0 1.131-.129 1.56-.384.428-.257.852-.64 1.271-1.153l2.612 1.873a8.144 8.144 0 0 1-1.35 1.446c-.475.39-1.071.711-1.791.964-.718.253-1.521.379-2.406.379-1.183 0-2.265-.278-3.246-.833a6.14 6.14 0 0 1-2.332-2.33c-.574-.997-.861-2.112-.861-3.344 0-.904.167-1.755.5-2.556.333-.8.788-1.49 1.365-2.07a6.296 6.296 0 0 1 2.094-1.376zm57.286-.795v6.622l2.63-3.241h3.843l-3.363 3.879 3.45 5.8h-3.738l-1.948-3.293-.874 1.022v2.272h-3.398v-13.061zm7.203 0h3.547v2.508h-3.547z"/><linearGradient id="uoauu" x1="148.22" x2="243.27" y1="9251.32" y2="9251.32" gradientUnits="userSpaceOnUse"><stop offset="0" stop-color="#9d1ebb"/><stop offset="1" stop-color="#e756bd"/></linearGradient></defs><g><g transform="translate(-148 -9215)"><g><g><use fill="#c6c8cc" xlink:href="#uoaua"/></g><g><use fill="#c6c8cc" xlink:href="#uoaub"/></g><g><use fill="#c6c8cc" xlink:href="#uoauc"/></g><g><use fill="#c6c8cc" xlink:href="#uoaud"/></g><g><use fill="#c6c8cc" xlink:href="#uoaue"/></g><g><use fill="#c6c8cc" xlink:href="#uoauf"/></g><g><use fill="#c6c8cc" xlink:href="#uoaug"/></g><g><use fill="#c6c8cc" xlink:href="#uoauh"/></g><g><use fill="#c6c8cc" xlink:href="#uoaui"/></g><g><use fill="#c6c8cc" xlink:href="#uoauj"/></g><g><use fill="#c6c8cc" xlink:href="#uoauk"/></g><g><use fill="#fff" xlink:href="#uoaul"/></g><g><use fill="#fff" xlink:href="#uoaum"/></g><g><use fill="#fff" xlink:href="#uoaun"/></g><g><use fill="#fff" xlink:href="#uoauo"/></g><g><use fill="#fff" xlink:href="#uoaup"/></g><g><use fill="#fff" xlink:href="#uoauq"/></g><g><use fill="#fff" xlink:href="#uoaur"/></g><g><use fill="#fff" xlink:href="#uoaus"/></g></g><g><use fill="url(#uoauu)" xlink:href="#uoaut"/></g></g></g></svg>