<svg xmlns="http://www.w3.org/2000/svg" xmlns:xlink="http://www.w3.org/1999/xlink" width="325" height="45" viewBox="0 0 325 45"><defs><path id="t0x7a" d="M749 4239.556l3.218-3.827c2.08 1.662 4.33 2.493 6.75 2.493.761 0 1.344-.128 1.749-.384.404-.256.607-.625.607-1.108 0-.445-.239-.808-.716-1.088s-1.4-.58-2.768-.899a56.267 56.267 0 0 1-1.834-.456c-.52-.14-1.07-.317-1.652-.53a9.874 9.874 0 0 1-1.484-.666 7.856 7.856 0 0 1-1.193-.84 4.401 4.401 0 0 1-.931-1.066 5.215 5.215 0 0 1-.56-1.341 6.336 6.336 0 0 1-.211-1.681c0-1.962.729-3.56 2.187-4.798 1.459-1.236 3.419-1.855 5.88-1.855 3.413 0 6.265.918 8.557 2.753l-2.892 4.074c-1.942-1.362-3.878-2.044-5.81-2.044-.674 0-1.19.128-1.546.384-.357.257-.535.592-.535 1.008 0 .483.239.857.715 1.123.477.265 1.434.563 2.87.891 1.272.281 2.354.587 3.245.92.891.334 1.693.752 2.406 1.254.711.503 1.242 1.114 1.59 1.834.349.72.523 1.563.523 2.53 0 2.096-.763 3.749-2.292 4.957-1.529 1.208-3.569 1.811-6.123 1.811-1.877 0-3.657-.292-5.34-.877-1.684-.584-3.154-1.441-4.41-2.572"/><path id="t0x7b" d="M768.09 4231.13v-4.552h1.898v-4.058h5.639v4.058h3.74v4.552h-3.74v5.447c0 .561.126.97.377 1.227.251.257.643.385 1.174.385.686 0 1.396-.18 2.131-.537v4.398c-1.111.615-2.416.922-3.914.922-1.759 0-3.1-.422-4.022-1.266-.923-.845-1.385-2.194-1.385-4.047v-6.529z"/><path id="t0x7c" d="M780.69 4237.975c0-1.624.565-2.87 1.696-3.74 1.13-.87 2.662-1.304 4.595-1.304 1.44 0 2.73.207 3.87.622v-.26c0-1.74-1.073-2.609-3.218-2.609-1.47 0-2.942.294-4.42.884l-1.16-3.972c2.038-.83 4.207-1.246 6.508-1.246 2.773 0 4.812.652 6.117 1.956 1.15 1.122 1.724 2.822 1.724 5.103v9.233h-5.58v-1.667c-1.228 1.353-2.803 2.029-4.725 2.029-1.585 0-2.882-.442-3.892-1.326-1.01-.884-1.515-2.119-1.515-3.703m5.435-.261c0 .541.184.969.551 1.282.367.315.846.472 1.435.472.831 0 1.505-.242 2.022-.725.517-.483.775-1.121.775-1.913v-.754c-.657-.27-1.39-.406-2.202-.406s-1.445.183-1.9.55c-.454.368-.68.866-.68 1.494"/><path id="t0x7d" d="M798.96 4242.643v-16.06h5.638v2.275c1.377-1.759 2.98-2.638 4.813-2.638 1.7 0 3.037.526 4.008 1.58.97 1.053 1.456 2.498 1.456 4.334v10.509h-5.638v-8.675c0-.858-.206-1.52-.618-1.988-.412-.467-.962-.701-1.65-.701-.708 0-1.28.236-1.716.708-.436.472-.655 1.133-.655 1.98v8.676z"/><path id="t0x7e" d="M817.1 4232.225c0-1.495.282-2.905.848-4.23a10.425 10.425 0 0 1 2.327-3.428c.985-.96 2.171-1.72 3.558-2.278 1.387-.56 2.872-.839 4.457-.839 1.754 0 3.304.26 4.653.777a12.546 12.546 0 0 1 3.758 2.286l-3.374 4.054c-.772-.647-1.554-1.13-2.345-1.45-.79-.318-1.679-.478-2.663-.478-1.498 0-2.758.548-3.783 1.643s-1.536 2.437-1.536 4.028c0 1.696.529 3.095 1.587 4.198 1.058 1.103 2.408 1.654 4.05 1.654 1.344 0 2.455-.3 3.335-.899v-2.608h-4.131v-4.16h9.566v9.386c-2.6 2.12-5.601 3.18-9.001 3.18-2.136 0-4.064-.457-5.783-1.372a10.164 10.164 0 0 1-4.051-3.857c-.981-1.656-1.472-3.525-1.472-5.607"/><path id="t0x7f" d="M840 4242.641V4221h5.639v7.8c1.347-1.722 2.95-2.582 4.812-2.582 1.7 0 3.037.527 4.008 1.58.97 1.053 1.456 2.498 1.456 4.334v10.51h-5.638v-8.676c0-.858-.207-1.52-.618-1.988-.413-.467-.962-.701-1.65-.701-.708 0-1.28.236-1.716.709-.436.472-.654 1.132-.654 1.98v8.675z"/><path id="t0x7g" d="M857.27 4234.627c0-1.16.2-2.256.602-3.29a8.14 8.14 0 0 1 1.66-2.674 7.719 7.719 0 0 1 2.572-1.783 8.092 8.092 0 0 1 3.269-.66c1.343 0 2.541.235 3.594.703 1.053.47 1.904 1.111 2.551 1.928a8.701 8.701 0 0 1 1.472 2.79c.333 1.044.5 2.17.5 3.377 0 .513-.01.899-.03 1.16h-10.755c.223.879.635 1.548 1.24 2.007.604.46 1.35.689 2.24.689 1.256 0 2.444-.557 3.565-1.674l3.116 2.603c-1.71 2.154-4.039 3.23-6.986 3.23-1.672 0-3.16-.347-4.464-1.043a7.512 7.512 0 0 1-3.051-2.957c-.73-1.275-1.095-2.744-1.095-4.406m5.349-1.334h5.58c-.106-.898-.406-1.608-.9-2.13-.491-.522-1.12-.783-1.883-.783-.724 0-1.336.263-1.834.79-.497.527-.818 1.235-.963 2.123"/><path id="t0x7h" d="M875.58 4242.641v-16.06h5.638v3.232c.97-2.328 2.568-3.493 4.798-3.493h.29v5.928h-.48c-3.071 0-4.608 1.803-4.608 5.407v4.986z"/><path id="t0x7i" d="M769.906 4253.349v5.424c0 .53-.137.944-.412 1.238-.275.296-.628.444-1.057.444-.436 0-.783-.147-1.044-.44-.26-.291-.39-.705-.39-1.242v-5.424h-3.529v6.571c0 1.148.304 2.051.912 2.71.608.658 1.444.988 2.508.988 1.167 0 2.171-.538 3.012-1.613v1.386h3.53v-10.042zm70.47 0v5.424c0 .53-.137.944-.412 1.238-.275.296-.628.444-1.056.444-.435 0-.782-.147-1.042-.44-.26-.291-.39-.705-.39-1.242v-5.424h-3.526v6.571c0 1.148.304 2.051.911 2.71.608.658 1.443.988 2.506.988 1.166 0 2.169-.538 3.009-1.613v1.386h3.526v-10.042zm-54.478 3.175c0 .388.063.738.19 1.049.127.312.29.57.485.776.197.205.458.396.785.572.326.176.646.317.96.423.314.105.695.217 1.142.335.592.152 1.01.286 1.251.4.241.115.362.26.362.437 0 .37-.296.555-.887.555-1.143 0-2.294-.373-3.454-1.12l-1.323 2.137c1.377 1.02 2.964 1.53 4.758 1.53 1.257 0 2.254-.295 2.991-.883.737-.588 1.106-1.43 1.106-2.527a2.61 2.61 0 0 0-.19-1.018 2.486 2.486 0 0 0-.485-.763 3.153 3.153 0 0 0-.784-.572 6.825 6.825 0 0 0-.961-.431c-.314-.112-.695-.23-1.142-.353-.61-.176-1.035-.322-1.273-.436-.24-.115-.358-.26-.358-.436 0-.16.069-.283.208-.37.139-.089.341-.133.607-.133.4 0 .864.081 1.396.243.532.161 1.057.38 1.577.656l1.206-2.238a7.12 7.12 0 0 0-1.949-.89 7.782 7.782 0 0 0-2.194-.318c-1.195 0-2.166.297-2.91.89-.742.593-1.114 1.422-1.114 2.485zm59.433 0c0 .388.062.738.19 1.049.127.312.29.57.485.776.197.205.459.396.786.572.326.176.647.317.96.423.316.105.696.217 1.145.335.592.152 1.01.286 1.251.4.242.115.363.26.363.437 0 .37-.296.555-.888.555-1.144 0-2.296-.373-3.458-1.12l-1.325 2.137c1.38 1.02 2.968 1.53 4.764 1.53 1.258 0 2.256-.295 2.995-.883.737-.588 1.106-1.43 1.106-2.527 0-.377-.063-.716-.19-1.018a2.467 2.467 0 0 0-.486-.763 3.132 3.132 0 0 0-.785-.572 6.808 6.808 0 0 0-.961-.431 16.86 16.86 0 0 0-1.144-.353c-.61-.176-1.036-.322-1.274-.436-.24-.115-.359-.26-.359-.436 0-.16.07-.283.21-.37.138-.089.34-.133.607-.133.4 0 .865.081 1.397.243.533.161 1.059.38 1.58.656l1.206-2.238a7.12 7.12 0 0 0-1.951-.89 7.788 7.788 0 0 0-2.195-.318c-1.199 0-2.17.297-2.914.89-.743.593-1.115 1.422-1.115 2.485zm-65.52-.801c.477 0 .87.164 1.18.492.307.328.494.775.56 1.34h-3.489c.09-.559.291-1.004.602-1.335.312-.33.695-.497 1.147-.497zm-3.68-1.072a5.103 5.103 0 0 0-1.038 1.673 5.673 5.673 0 0 0-.375 2.06c0 1.04.228 1.96.683 2.758a4.714 4.714 0 0 0 1.909 1.851c.816.435 1.746.653 2.791.653 1.843 0 3.3-.674 4.37-2.022l-1.95-1.63c-.7.699-1.444 1.048-2.23 1.048-.555 0-1.022-.143-1.4-.431-.377-.287-.635-.706-.774-1.256h6.725a10.9 10.9 0 0 0 .018-.726c0-.756-.104-1.46-.313-2.114a5.469 5.469 0 0 0-.92-1.747c-.405-.51-.936-.913-1.595-1.206-.659-.293-1.408-.44-2.248-.44-.73 0-1.412.138-2.044.413a4.821 4.821 0 0 0-1.608 1.116zm48.95 3.729c0-.636.196-1.172.585-1.61.39-.437.896-.657 1.52-.657.61 0 1.116.222 1.522.666.405.445.607.978.607 1.6 0 .64-.193 1.178-.58 1.613-.387.436-.892.653-1.514.653a1.99 1.99 0 0 1-1.528-.666 2.28 2.28 0 0 1-.612-1.6zm-1.877-3.703a5.256 5.256 0 0 0-1.153 1.68 5.004 5.004 0 0 0-.423 2.028c0 .713.14 1.393.418 2.04.279.647.66 1.207 1.145 1.679a5.36 5.36 0 0 0 1.767 1.125 5.912 5.912 0 0 0 2.222.417 5.91 5.91 0 0 0 2.235-.422 5.354 5.354 0 0 0 1.771-1.134 5.272 5.272 0 0 0 1.15-1.679c.282-.643.423-1.32.423-2.026a5.145 5.145 0 0 0-2.695-4.554c-.85-.473-1.8-.71-2.848-.71-.794 0-1.539.142-2.235.423a5.435 5.435 0 0 0-1.777 1.133zm36.432 1.046c.478 0 .871.164 1.18.492.307.328.494.775.561 1.34h-3.49c.091-.559.292-1.004.604-1.335.31-.33.693-.497 1.145-.497zm-3.678-1.072a5.1 5.1 0 0 0-1.038 1.673 5.657 5.657 0 0 0-.376 2.06c0 1.04.228 1.96.684 2.758a4.715 4.715 0 0 0 1.91 1.851c.816.435 1.748.653 2.794.653 1.845 0 3.303-.674 4.374-2.022l-1.951-1.63c-.702.699-1.446 1.048-2.232 1.048-.557 0-1.024-.143-1.402-.431-.378-.287-.636-.706-.776-1.256h6.732c.012-.164.018-.406.018-.726 0-.756-.104-1.46-.312-2.114a5.48 5.48 0 0 0-.921-1.747c-.406-.51-.938-.913-1.597-1.206-.66-.293-1.41-.44-2.25-.44-.732 0-1.414.138-2.046.413a4.832 4.832 0 0 0-1.61 1.116zm-60.003-3.84v2.537h-1.188v2.846h1.188v4.084c0 1.158.288 2.002.865 2.53s1.415.792 2.515.792c.937 0 1.752-.192 2.448-.577v-2.75c-.46.224-.904.336-1.333.336-.332 0-.577-.08-.733-.24-.158-.16-.237-.417-.237-.768v-3.407h2.339v-2.846h-2.34v-2.538zm20.574-.417v4.894h-4.622v-4.894h-3.599v12.997h3.599v-4.939h4.622v4.94h3.6v-12.998zm-65.314 1.694c-.616.6-1.1 1.316-1.455 2.144-.353.83-.53 1.71-.53 2.645 0 1.303.307 2.471.92 3.507a6.353 6.353 0 0 0 2.534 2.412c1.075.572 2.28.858 3.616.858 2.126 0 4.002-.663 5.629-1.988v-5.87h-5.983v2.6h2.583v1.632c-.55.375-1.245.563-2.084.563-1.027 0-1.871-.345-2.534-1.035-.66-.69-.992-1.565-.992-2.625 0-.994.32-1.834.961-2.52a3.112 3.112 0 0 1 2.366-1.027c.615 0 1.17.101 1.665.3.495.2.983.501 1.467.906l2.108-2.534a7.829 7.829 0 0 0-2.35-1.43c-.842-.324-1.812-.486-2.908-.486-.992 0-1.92.175-2.788.525-.867.35-1.609.824-2.226 1.423z"/><path id="t0x7k" d="M873.87 4257.723c0-1.106.211-2.158.634-3.157a8.198 8.198 0 0 1 1.718-2.595c.722-.731 1.593-1.312 2.615-1.744a8.272 8.272 0 0 1 3.254-.647 8.58 8.58 0 0 1 3.185.593c1 .396 1.85.923 2.547 1.581a7.445 7.445 0 0 1 1.66 2.306c.407.879.611 1.79.611 2.731 0 .81-.11 1.54-.33 2.191-.222.65-.518 1.172-.889 1.569a3.905 3.905 0 0 1-1.26.906c-.468.209-.96.313-1.473.313-1.366 0-2.32-.469-2.864-1.406-.792.914-1.701 1.37-2.728 1.37-.98 0-1.79-.342-2.43-1.026-.64-.683-.96-1.585-.96-2.705 0-.875.186-1.688.557-2.436.372-.747.873-1.34 1.505-1.773.632-.435 1.31-.652 2.035-.652 1.081 0 1.912.466 2.492 1.397l.218-1.15 2.882.451-.852 4.802a4.303 4.303 0 0 0-.082.819c0 .322.109.587.327.793.217.208.51.311.879.311.629 0 1.15-.331 1.569-.993.416-.662.625-1.59.625-2.78 0-.852-.18-1.67-.54-2.456a6.613 6.613 0 0 0-1.477-2.066c-.626-.591-1.392-1.064-2.298-1.417a7.93 7.93 0 0 0-2.91-.53 7.65 7.65 0 0 0-2.981.584c-.93.39-1.72.915-2.366 1.576a7.316 7.316 0 0 0-1.531 2.355 7.498 7.498 0 0 0-.562 2.885c0 1.027.185 1.994.557 2.898a7.157 7.157 0 0 0 1.536 2.344c.652.66 1.447 1.18 2.384 1.56a7.96 7.96 0 0 0 3.027.572c.888 0 1.686-.102 2.393-.304a9.426 9.426 0 0 0 2.149-.938l.37.59c-1.528.93-3.166 1.395-4.912 1.395a8.856 8.856 0 0 1-2.697-.408 7.812 7.812 0 0 1-2.292-1.157 8.373 8.373 0 0 1-1.754-1.75 7.681 7.681 0 0 1-1.142-2.236 8.286 8.286 0 0 1-.399-2.566zm6.254.049c0 .452.127.806.38 1.062.254.255.58.384.98.384.495 0 .915-.208 1.26-.624.344-.415.516-.918.516-1.509 0-.427-.125-.768-.376-1.02-.25-.254-.575-.38-.974-.38-.502 0-.925.201-1.27.605-.344.404-.516.898-.516 1.482z"/><path id="t0x7l" d="M896.42 4256.327c0-.937.173-1.822.519-2.653a6.61 6.61 0 0 1 1.415-2.15 6.532 6.532 0 0 1 2.174-1.428 7.076 7.076 0 0 1 2.726-.526c2.314 0 4.133.906 5.457 2.716l-2.638 2.051c-.804-1.015-1.759-1.522-2.864-1.522-.9 0-1.643.338-2.225 1.013-.584.676-.875 1.509-.875 2.499 0 .996.291 1.831.875 2.503.582.673 1.324 1.009 2.225 1.009.634 0 1.173-.133 1.618-.399.443-.266.884-.664 1.319-1.197l2.71 1.944a8.373 8.373 0 0 1-1.4 1.502c-.494.406-1.112.74-1.86 1.001-.745.262-1.578.394-2.496.394-1.227 0-2.35-.288-3.367-.865a6.376 6.376 0 0 1-2.42-2.418c-.595-1.036-.893-2.194-.893-3.474"/><path id="t0x7m" d="M910.02 4262.825v-10.042h3.526v2.021c.606-1.456 1.606-2.184 3-2.184h.181v3.707h-.3c-1.92 0-2.881 1.127-2.881 3.38v3.118z"/><path id="t0x7n" d="M917.77 4251.881h3.68v-2.601h-3.68zm.081 10.95h3.526v-10.044h-3.526z"/><path id="t0x7o" d="M923.15 4262.822v-13.532h3.526v4.877c.842-1.076 1.845-1.614 3.009-1.614 1.063 0 1.899.33 2.506.988.607.66.91 1.562.91 2.71v6.571h-3.525v-5.424c0-.537-.129-.95-.386-1.244-.258-.292-.602-.438-1.032-.438-.443 0-.8.149-1.073.443-.273.296-.41.708-.41 1.239v5.424z"/><path id="t0x7p" d="M934.23 4259.91c0-1.016.354-1.795 1.06-2.34.708-.543 1.665-.814 2.874-.814.9 0 1.707.13 2.42.39v-.164c0-1.088-.67-1.631-2.012-1.631-.919 0-1.84.184-2.764.552l-.725-2.483a10.67 10.67 0 0 1 4.069-.78c1.734 0 3.01.408 3.825 1.224.719.7 1.078 1.765 1.078 3.19v5.774h-3.489v-1.042c-.768.846-1.753 1.269-2.955 1.269-.99 0-1.802-.276-2.433-.83-.632-.553-.948-1.324-.948-2.315m3.4-.164c0 .339.114.606.343.802.23.197.53.295.898.295.52 0 .941-.15 1.264-.453.324-.302.485-.701.485-1.196v-.472c-.41-.169-.87-.253-1.378-.253-.507 0-.903.114-1.186.344-.285.23-.427.541-.427.933"/><path id="t0x7q" d="M945.66 4262.829v-10.043h3.526v1.423c.86-1.099 1.863-1.649 3.009-1.649 1.063 0 1.899.33 2.506.988.607.659.91 1.562.91 2.71v6.571h-3.525v-5.424c0-.537-.129-.95-.386-1.244-.258-.292-.602-.438-1.032-.438-.443 0-.8.148-1.073.443-.273.296-.41.708-.41 1.239v5.424z"/><path id="t0x7r" d="M961.49 4257.764l6.734-8.024h3.635v7.877h1.658v2.728h-1.658v2.483h-3.49v-2.483h-6.29zm3.78-.13h3.1v-3.734z"/><path id="t0x7s" d="M974.44 4262.824v-2.727l4.879-3.693c.613-.457 1.045-.86 1.297-1.212.252-.351.377-.723.377-1.113 0-.403-.13-.72-.394-.955-.263-.234-.612-.351-1.047-.351-.423 0-.828.126-1.214.378-.387.252-.843.679-1.369 1.278l-2.429-2.013c.743-.975 1.509-1.687 2.298-2.134.788-.448 1.784-.672 2.986-.672 1.416 0 2.564.388 3.445 1.165.882.778 1.322 1.79 1.322 3.034 0 .504-.061.962-.185 1.373a3.55 3.55 0 0 1-.599 1.153 6.941 6.941 0 0 1-.92.982c-.338.296-.773.631-1.305 1.004l-2.23 1.549h5.367v2.954z"/><path id="t0x7t" d="M985.62 4264.526c.604-.072 1.065-.25 1.382-.534.317-.284.477-.662.477-1.134v-.072h-1.442v-3.616h3.69v2.946c0 1.31-.33 2.258-.99 2.841-.658.583-1.604.893-2.836.93z"/><path id="t0x7u" d="M995.98 4256.327c0-.937.173-1.822.519-2.653a6.61 6.61 0 0 1 1.415-2.15 6.532 6.532 0 0 1 2.174-1.428 7.076 7.076 0 0 1 2.726-.526c2.315 0 4.133.906 5.457 2.716l-2.638 2.051c-.804-1.015-1.759-1.522-2.864-1.522-.9 0-1.643.338-2.225 1.013-.584.676-.875 1.509-.875 2.499 0 .996.291 1.831.875 2.503.582.673 1.324 1.009 2.225 1.009.634 0 1.173-.133 1.618-.399.443-.266.884-.664 1.319-1.197l2.71 1.944a8.373 8.373 0 0 1-1.4 1.502c-.494.406-1.112.74-1.86 1.001-.745.262-1.578.394-2.496.394-1.227 0-2.35-.288-3.367-.865a6.376 6.376 0 0 1-2.42-2.418c-.595-1.036-.893-2.194-.893-3.474"/><path id="t0x7v" d="M1009.58 4262.822v-13.532h3.526v4.877c.842-1.076 1.845-1.614 3.009-1.614 1.063 0 1.899.33 2.506.988.607.66.91 1.562.91 2.71v6.571h-3.525v-5.424c0-.537-.129-.95-.386-1.244-.258-.292-.602-.438-1.032-.438-.443 0-.8.149-1.073.443-.273.296-.41.708-.41 1.239v5.424z"/><path id="t0x7w" d="M1021.16 4251.881h3.68v-2.601h-3.68zm.082 10.95h3.526v-10.044h-3.526z"/><path id="t0x7x" d="M1025.78 4261.519l1.324-2.136c1.16.746 2.31 1.118 3.453 1.118.591 0 .887-.184.887-.554 0-.177-.12-.322-.362-.436-.242-.115-.659-.25-1.25-.401a17.45 17.45 0 0 1-1.143-.336 6.056 6.056 0 0 1-.96-.422 3.153 3.153 0 0 1-.785-.573 2.454 2.454 0 0 1-.484-.776 2.738 2.738 0 0 1-.19-1.048c0-1.063.371-1.892 1.114-2.485.744-.593 1.713-.89 2.91-.89.737 0 1.468.106 2.193.318.725.213 1.374.51 1.95.89l-1.207 2.237a8.89 8.89 0 0 0-1.577-.656c-.532-.162-.997-.242-1.396-.242-.266 0-.468.044-.606.132a.414.414 0 0 0-.21.37c0 .176.12.322.359.436.238.115.663.26 1.273.436.447.124.828.241 1.142.353.314.111.634.256.96.432.328.176.589.367.785.572.197.206.358.46.485.763a2.6 2.6 0 0 1 .19 1.017c0 1.097-.369 1.94-1.105 2.528-.738.588-1.735.883-2.992.883-1.794 0-3.38-.511-4.758-1.53"/><path id="t0x7y" d="M1035.89 4251.881h3.68v-2.601h-3.68zm.081 10.95h3.526v-10.044h-3.526z"/><path id="t0x7z" d="M1041.27 4262.829v-10.043h3.526v1.423c.86-1.099 1.863-1.649 3.009-1.649 1.063 0 1.899.33 2.506.988.607.659.91 1.562.91 2.71v6.571h-3.525v-5.424c0-.537-.129-.95-.386-1.244-.258-.292-.602-.438-1.032-.438-.443 0-.8.148-1.073.443-.273.296-.41.708-.41 1.239v5.424z"/><path id="t0x7A" d="M1052.35 4259.91c0-1.016.354-1.795 1.06-2.34.708-.543 1.665-.814 2.874-.814.9 0 1.707.13 2.42.39v-.164c0-1.088-.67-1.631-2.012-1.631-.919 0-1.84.184-2.764.552l-.725-2.483a10.67 10.67 0 0 1 4.069-.78c1.734 0 3.01.408 3.825 1.224.719.7 1.078 1.765 1.078 3.19v5.774h-3.489v-1.042c-.768.846-1.753 1.269-2.955 1.269-.99 0-1.802-.276-2.433-.83-.632-.553-.948-1.324-.948-2.315m3.396-.164c0 .339.115.606.345.802.23.197.53.295.9.295.52 0 .943-.15 1.266-.453.325-.302.486-.701.486-1.196v-.472a3.598 3.598 0 0 0-1.38-.253c-.509 0-.906.114-1.19.344-.285.23-.427.541-.427.933"/><path id="t0x7B" d="M1063.7 4259.352v-6.572h3.526v5.425c0 .536.13.95.39 1.243.26.292.607.438 1.042.438.429 0 .78-.147 1.056-.443.275-.295.412-.708.412-1.238v-5.425h3.526v10.043h-3.526v-1.386c-.84 1.075-1.843 1.613-3.01 1.613-1.062 0-1.898-.33-2.505-.989-.607-.658-.911-1.561-.911-2.71"/><linearGradient id="t0x7j" x1="749.23" x2="864.67" y1="4256.9" y2="4256.9" gradientUnits="userSpaceOnUse"><stop offset="0" stop-color="#f47c22"/><stop offset="1" stop-color="#ffcd02"/></linearGradient></defs><g><g transform="translate(-749 -4221)"><g><use fill="#322f31" xlink:href="#t0x7a"/></g><g><use fill="#322f31" xlink:href="#t0x7b"/></g><g><use fill="#322f31" xlink:href="#t0x7c"/></g><g><use fill="#322f31" xlink:href="#t0x7d"/></g><g><use fill="#322f31" xlink:href="#t0x7e"/></g><g><use fill="#322f31" xlink:href="#t0x7f"/></g><g><use fill="#322f31" xlink:href="#t0x7g"/></g><g><use fill="#322f31" xlink:href="#t0x7h"/></g><g><use fill="url(#t0x7j)" xlink:href="#t0x7i"/></g><g><use fill="#626366" xlink:href="#t0x7k"/></g><g><use fill="#626366" xlink:href="#t0x7l"/></g><g><use fill="#626366" xlink:href="#t0x7m"/></g><g><use fill="#626366" xlink:href="#t0x7n"/></g><g><use fill="#626366" xlink:href="#t0x7o"/></g><g><use fill="#626366" xlink:href="#t0x7p"/></g><g><use fill="#626366" xlink:href="#t0x7q"/></g><g><use fill="#626366" xlink:href="#t0x7r"/></g><g><use fill="#626366" xlink:href="#t0x7s"/></g><g><use fill="#626366" xlink:href="#t0x7t"/></g><g><use fill="#626366" xlink:href="#t0x7u"/></g><g><use fill="#626366" xlink:href="#t0x7v"/></g><g><use fill="#626366" xlink:href="#t0x7w"/></g><g><use fill="#626366" xlink:href="#t0x7x"/></g><g><use fill="#626366" xlink:href="#t0x7y"/></g><g><use fill="#626366" xlink:href="#t0x7z"/></g><g><use fill="#626366" xlink:href="#t0x7A"/></g><g><use fill="#626366" xlink:href="#t0x7B"/></g></g></g></svg>