<svg xmlns="http://www.w3.org/2000/svg" xmlns:xlink="http://www.w3.org/1999/xlink" width="201" height="55" viewBox="0 0 201 55"><defs><path id="9741a" d="M647.949 166.672V159.3h-1.169v-1.1h1.169v-.74c0-.963.247-1.69.74-2.183.439-.438 1.048-.657 1.826-.657.539 0 1.005.071 1.4.214v1.1c-.493-.143-.905-.213-1.234-.213-.989 0-1.481.602-1.481 1.805v.69h2.699v1.084h-2.684v7.372z"/><path id="9741b" d="M656.479 166.859c-1.01 0-1.805-.31-2.387-.928-.581-.619-.872-1.442-.872-2.47v-5.271h1.267v4.957c0 .8.206 1.427.618 1.882.411.453.99.68 1.735.68.736 0 1.345-.246 1.828-.738.482-.493.724-1.134.724-1.921v-4.86h1.252v8.488h-1.252V165.2c-.691 1.106-1.662 1.659-2.913 1.659"/><path id="9741c" d="M663.32 166.67v-8.489h1.267v1.477c.67-1.105 1.64-1.658 2.914-1.658 1.01 0 1.804.31 2.386.928.582.618.872 1.442.872 2.471v5.27h-1.267v-4.959c0-.798-.205-1.425-.617-1.879-.411-.454-.99-.68-1.736-.68-.736 0-1.345.245-1.827.738-.483.492-.725 1.132-.725 1.92v4.86z"/><path id="9741d" d="M676.866 166.856c-1.086 0-2.036-.403-2.847-1.207-.812-.805-1.219-1.88-1.219-3.227 0-1.323.407-2.391 1.219-3.2.811-.81 1.761-1.216 2.847-1.216 1.338 0 2.425.602 3.26 1.806v-5.122h1.267v11.985h-1.268v-1.707c-.856 1.258-1.942 1.888-3.259 1.888m.23-1.132c.823 0 1.541-.313 2.155-.938.615-.623.922-1.417.922-2.382 0-.941-.307-1.722-.922-2.341-.614-.619-1.332-.928-2.154-.928-.857 0-1.569.3-2.139.896-.57.597-.856 1.399-.856 2.407 0 .975.291 1.766.873 2.374.581.608 1.288.912 2.122.912"/><path id="9741e" d="M695.897 165.56c-.856.87-1.915 1.306-3.177 1.306-1.261 0-2.312-.432-3.152-1.297-.84-.865-1.258-1.91-1.258-3.136 0-1.215.425-2.258 1.275-3.128.85-.87 1.907-1.305 3.169-1.305s2.315.433 3.16 1.297c.845.864 1.267 1.91 1.267 3.136 0 1.215-.428 2.257-1.284 3.127m-3.143.163c.91 0 1.66-.317 2.246-.951.588-.634.88-1.415.88-2.344 0-.918-.303-1.7-.913-2.344a2.972 2.972 0 0 0-2.247-.968c-.91 0-1.656.32-2.237.96-.582.64-.873 1.424-.873 2.352 0 .918.301 1.697.905 2.336.604.64 1.35.959 2.239.959"/><path id="9741f" d="M699.779 166.672V159.3h-1.169v-1.1h1.169v-.74c0-.963.247-1.69.74-2.183.44-.438 1.049-.657 1.827-.657.538 0 1.004.071 1.4.214v1.1c-.494-.143-.905-.213-1.235-.213-.988 0-1.481.602-1.481 1.805v.69h2.7v1.084h-2.684v7.372z"/><path id="9741g" d="M713.723 169.338c-1.438 0-2.727-.394-3.868-1.183l.576-.984c.998.723 2.09 1.084 3.276 1.084.954 0 1.708-.26 2.263-.78.554-.52.83-1.268.83-2.241v-1.002c-.9 1.193-2.014 1.79-3.341 1.79-1.075 0-2.01-.37-2.807-1.108-.795-.74-1.192-1.704-1.192-2.899 0-1.193.4-2.158 1.202-2.898.8-.738 1.733-1.107 2.797-1.107 1.362 0 2.469.569 3.325 1.707v-1.526h1.267v7.01c0 1.28-.361 2.282-1.086 3.004-.757.755-1.837 1.133-3.242 1.133m-.016-4.429c.833 0 1.563-.274 2.189-.821.625-.548.938-1.244.938-2.088 0-.842-.31-1.532-.93-2.07-.62-.536-1.353-.805-2.197-.805-.835 0-1.534.266-2.1.797-.564.531-.847 1.23-.847 2.095 0 .833.288 1.523.864 2.07.576.548 1.27.822 2.083.822"/><path id="9741h" d="M727.777 165.56c-.856.87-1.914 1.306-3.176 1.306-1.261 0-2.313-.432-3.152-1.297-.84-.865-1.259-1.91-1.259-3.136 0-1.215.425-2.258 1.275-3.128.85-.87 1.907-1.305 3.168-1.305 1.262 0 2.315.433 3.16 1.297.846.864 1.269 1.91 1.269 3.136 0 1.215-.43 2.257-1.285 3.127m-3.144.163c.911 0 1.661-.317 2.247-.951.587-.634.881-1.415.881-2.344 0-.918-.304-1.7-.914-2.344a2.969 2.969 0 0 0-2.246-.968c-.91 0-1.657.32-2.24.96-.581.64-.87 1.424-.87 2.352 0 .918.3 1.697.904 2.336.604.64 1.35.959 2.238.959"/><path id="9741i" d="M738.247 165.56c-.856.87-1.915 1.306-3.177 1.306-1.261 0-2.312-.432-3.152-1.297-.84-.865-1.258-1.91-1.258-3.136 0-1.215.425-2.258 1.275-3.128.85-.87 1.907-1.305 3.169-1.305s2.315.433 3.16 1.297c.845.864 1.267 1.91 1.267 3.136 0 1.215-.428 2.257-1.284 3.127m-3.143.163c.91 0 1.66-.317 2.246-.951.588-.634.88-1.415.88-2.344 0-.918-.303-1.7-.913-2.344a2.972 2.972 0 0 0-2.247-.968c-.91 0-1.656.32-2.237.96-.582.64-.873 1.424-.873 2.352 0 .918.301 1.697.905 2.336.604.64 1.35.959 2.239.959"/><path id="9741j" d="M745.225 166.856c-1.086 0-2.035-.403-2.846-1.207-.813-.805-1.219-1.88-1.219-3.227 0-1.323.406-2.391 1.219-3.2.811-.81 1.76-1.216 2.846-1.216 1.34 0 2.426.602 3.26 1.806v-5.122h1.267v11.985h-1.267v-1.707c-.856 1.258-1.943 1.888-3.26 1.888m.23-1.132c.824 0 1.542-.313 2.157-.938.614-.623.922-1.417.922-2.382 0-.941-.308-1.722-.922-2.341-.615-.619-1.333-.928-2.156-.928-.856 0-1.57.3-2.14.896-.571.597-.856 1.399-.856 2.407 0 .975.292 1.766.873 2.374.581.608 1.29.912 2.123.912"/><path id="9741k" d="M757.22 156.326h1.448v-1.396h-1.448zm.082 10.344h1.268v-8.488h-1.268z"/><path id="9741l" d="M764.925 166.856c-1.086 0-2.035-.403-2.846-1.207-.813-.805-1.219-1.88-1.219-3.227 0-1.323.406-2.391 1.219-3.2.811-.81 1.76-1.216 2.846-1.216 1.34 0 2.426.602 3.26 1.806v-5.122h1.267v11.985h-1.267v-1.707c-.856 1.258-1.943 1.888-3.26 1.888m.23-1.132c.824 0 1.542-.313 2.157-.938.614-.623.922-1.417.922-2.382 0-.941-.308-1.722-.922-2.341-.615-.619-1.333-.928-2.156-.928-.856 0-1.57.3-2.14.896-.571.597-.856 1.399-.856 2.407 0 .975.292 1.766.873 2.374.581.608 1.29.912 2.123.912"/><path id="9741m" d="M772.875 162.951c.087.866.414 1.552.978 2.061a2.915 2.915 0 0 0 2.017.764c1.02 0 1.915-.4 2.683-1.199l.79.705c-.955 1.063-2.124 1.594-3.506 1.594-1.196 0-2.203-.413-3.02-1.24-.817-.827-1.227-1.891-1.227-3.193 0-1.237.39-2.285 1.169-3.144.78-.86 1.75-1.289 2.914-1.289 1.218 0 2.183.426 2.897 1.28.713.854 1.07 1.926 1.07 3.219 0 .163-.006.31-.018.442zm0-1.022h5.49c-.077-.82-.349-1.5-.816-2.041-.466-.541-1.102-.811-1.905-.811-.725 0-1.345.267-1.862.803-.517.535-.82 1.219-.907 2.05z"/><path id="9741n" d="M784.227 166.85c-.868 0-1.613-.236-2.239-.707-.624-.47-.938-1.127-.938-1.97 0-.887.33-1.57.988-2.053.658-.48 1.542-.72 2.65-.72.878 0 1.745.12 2.6.36v-.263c0-.745-.22-1.313-.657-1.708-.44-.394-1.06-.59-1.861-.59-.833 0-1.695.202-2.583.607l-.38-1.035c1.054-.481 2.085-.721 3.095-.721 1.206 0 2.124.31 2.748.935.593.591.889 1.423.889 2.496v5.188h-1.25v-1.265c-.758.963-1.778 1.445-3.062 1.445m.247-1.018c.79 0 1.459-.213 2.008-.64.549-.427.823-.974.823-1.642v-.787a8.906 8.906 0 0 0-2.486-.363c-.778 0-1.388.158-1.827.469a1.482 1.482 0 0 0-.658 1.272c0 .515.206.925.617 1.232.412.306.92.46 1.523.46"/><path id="9741o" d="M793.871 166.84a5.56 5.56 0 0 1-1.868-.337 5.513 5.513 0 0 1-1.653-.91l.641-.903c.966.722 1.948 1.083 2.946 1.083.516 0 .94-.126 1.268-.378.33-.251.494-.585.494-1 0-.384-.178-.68-.535-.888-.357-.207-.886-.41-1.588-.607-.429-.12-.769-.23-1.021-.328a7.01 7.01 0 0 1-.856-.418 1.795 1.795 0 0 1-.708-.69c-.154-.28-.23-.61-.23-.994 0-.723.272-1.309.815-1.757.543-.448 1.236-.673 2.082-.673 1.097 0 2.117.312 3.062.936l-.577.952c-.845-.547-1.685-.82-2.518-.82-.493 0-.892.117-1.194.352-.302.236-.452.54-.452.911 0 .154.044.296.131.428.088.131.187.24.297.328.11.087.282.18.519.28.235.097.425.17.568.213.141.043.366.114.674.213.406.12.74.236 1.004.344.263.11.543.258.84.444.296.187.518.418.666.698.148.28.222.604.222.976 0 .788-.285 1.41-.855 1.864-.571.454-1.296.681-2.174.681"/><path id="9741p" d="M620 142.076l4.708-5.585c3.044 2.426 6.335 3.639 9.875 3.639 1.114 0 1.967-.187 2.56-.561.592-.373.887-.913.887-1.618 0-.648-.348-1.177-1.046-1.586-.698-.409-2.049-.846-4.05-1.312a82.267 82.267 0 0 1-2.684-.666 29.418 29.418 0 0 1-2.416-.772c-.852-.311-1.576-.635-2.172-.973a11.454 11.454 0 0 1-1.745-1.227 6.427 6.427 0 0 1-1.363-1.555 7.6 7.6 0 0 1-.82-1.957 9.228 9.228 0 0 1-.308-2.453c0-2.863 1.066-5.197 3.2-7.002 2.135-1.805 5.002-2.708 8.603-2.708 4.994 0 9.166 1.34 12.518 4.02l-4.23 5.943c-2.84-1.988-5.673-2.982-8.5-2.982-.986 0-1.74.187-2.262.56-.521.375-.783.864-.783 1.47 0 .706.35 1.252 1.048 1.64.697.388 2.096.822 4.198 1.301 1.861.41 3.444.856 4.747 1.342a15.499 15.499 0 0 1 3.52 1.831c1.041.733 1.816 1.625 2.327 2.676.509 1.05.765 2.28.765 3.692 0 3.06-1.118 5.471-3.354 7.233-2.236 1.764-5.221 2.645-8.957 2.645-2.747 0-5.352-.427-7.815-1.28-2.462-.853-4.613-2.105-6.451-3.755"/><path id="9741q" d="M647.92 129.785v-6.642h2.778v-5.923h8.25v5.923h5.472v6.642h-5.472v7.948c0 .82.183 1.417.551 1.792.368.374.94.562 1.718.562 1.004 0 2.042-.262 3.117-.784v6.418c-1.626.898-3.535 1.347-5.725 1.347-2.574 0-4.536-.617-5.885-1.849-1.35-1.233-2.026-3.201-2.026-5.905v-9.529z"/><path id="9741r" d="M666.36 139.775c0-2.37.827-4.189 2.481-5.459 1.654-1.268 3.895-1.902 6.723-1.902 2.106 0 3.994.303 5.661.908v-.38c0-2.539-1.57-3.807-4.706-3.807-2.15 0-4.307.43-6.469 1.29l-1.697-5.796c2.984-1.213 6.157-1.819 9.522-1.819 4.057 0 7.04.951 8.95 2.855 1.681 1.636 2.524 4.118 2.524 7.446v13.475h-8.166v-2.433c-1.795 1.975-4.1 2.961-6.913 2.961-2.319 0-4.217-.644-5.694-1.935-1.478-1.29-2.216-3.092-2.216-5.404m7.952-.381c0 .79.269 1.414.806 1.871.537.46 1.237.688 2.1.688 1.216 0 2.202-.353 2.958-1.058.756-.704 1.134-1.635 1.134-2.79v-1.102c-.961-.395-2.035-.592-3.223-.592-1.187 0-2.113.268-2.778.804s-.997 1.263-.997 2.179"/><path id="9741s" d="M693.09 146.586v-23.437h8.25v3.32c2.013-2.567 4.36-3.849 7.04-3.849 2.489 0 4.443.768 5.864 2.305 1.42 1.538 2.131 3.646 2.131 6.325v15.336h-8.249v-12.659c0-1.252-.302-2.22-.905-2.901-.603-.683-1.407-1.024-2.414-1.024-1.036 0-1.872.345-2.51 1.035-.638.688-.958 1.651-.958 2.89v12.659z"/><path id="9741t" d="M719.64 131.384c0-2.18.414-4.239 1.241-6.174.827-1.935 1.962-3.602 3.404-5.002s3.177-2.508 5.206-3.324c2.029-.816 4.201-1.224 6.521-1.224 2.565 0 4.834.378 6.808 1.134 1.972.755 3.805 1.868 5.498 3.337l-4.936 5.915c-1.13-.945-2.274-1.65-3.431-2.115-1.159-.465-2.457-.698-3.898-.698-2.19 0-4.036.798-5.533 2.397-1.5 1.599-2.25 3.558-2.25 5.878 0 2.475.776 4.518 2.324 6.127 1.547 1.61 3.523 2.415 5.927 2.415 1.964 0 3.59-.438 4.877-1.313v-3.806h-6.043v-6.072h13.996v13.698c-3.806 3.095-8.195 4.643-13.17 4.643-3.124 0-5.944-.669-8.462-2.004-2.516-1.337-4.493-3.212-5.926-5.628-1.435-2.419-2.153-5.146-2.153-8.184"/><path id="9741u" d="M753.13 146.581V115h8.249v11.382c1.97-2.511 4.319-3.767 7.04-3.767 2.489 0 4.443.769 5.864 2.306 1.421 1.537 2.131 3.646 2.131 6.325v15.335h-8.248v-12.659c0-1.251-.302-2.22-.905-2.9-.603-.684-1.407-1.024-2.414-1.024-1.036 0-1.872.345-2.51 1.034-.638.689-.958 1.652-.958 2.89v12.66z"/><path id="9741v" d="M778.4 134.888c0-1.69.293-3.292.88-4.801.586-1.509 1.396-2.81 2.428-3.903 1.032-1.091 2.287-1.96 3.765-2.601 1.477-.643 3.07-.963 4.781-.963 1.964 0 3.718.342 5.26 1.026 1.54.685 2.785 1.621 3.732 2.814a12.686 12.686 0 0 1 2.152 4.071c.488 1.523.732 3.166.732 4.929 0 .748-.014 1.311-.042 1.692h-15.736c.325 1.283.93 2.26 1.813 2.93.884.67 1.975 1.005 3.277 1.005 1.837 0 3.577-.814 5.216-2.444l4.56 3.8c-2.502 3.142-5.91 4.714-10.222 4.714-2.445 0-4.622-.507-6.532-1.522a10.987 10.987 0 0 1-4.463-4.316c-1.068-1.86-1.601-4.005-1.601-6.43m7.825-1.94h8.175c-.156-1.315-.595-2.353-1.317-3.116-.722-.763-1.642-1.145-2.76-1.145-1.061 0-1.957.385-2.686 1.156-.73.77-1.2 1.804-1.412 3.105"/><path id="9741w" d="M805.2 146.578v-23.437h8.249v4.717c1.418-3.398 3.757-5.098 7.018-5.098h.425v8.651h-.7c-4.496 0-6.743 2.631-6.743 7.892v7.275z"/></defs><g><g transform="translate(-620 -115)"><g><use fill="#b1b1b1" xlink:href="#9741a"/></g><g><use fill="#b1b1b1" xlink:href="#9741b"/></g><g><use fill="#b1b1b1" xlink:href="#9741c"/></g><g><use fill="#b1b1b1" xlink:href="#9741d"/></g><g><use fill="#b1b1b1" xlink:href="#9741e"/></g><g><use fill="#b1b1b1" xlink:href="#9741f"/></g><g><use fill="#b1b1b1" xlink:href="#9741g"/></g><g><use fill="#b1b1b1" xlink:href="#9741h"/></g><g><use fill="#b1b1b1" xlink:href="#9741i"/></g><g><use fill="#b1b1b1" xlink:href="#9741j"/></g><g><use fill="#b1b1b1" xlink:href="#9741k"/></g><g><use fill="#b1b1b1" xlink:href="#9741l"/></g><g><use fill="#b1b1b1" xlink:href="#9741m"/></g><g><use fill="#b1b1b1" xlink:href="#9741n"/></g><g><use fill="#b1b1b1" xlink:href="#9741o"/></g><g><use fill="#b1b1b1" xlink:href="#9741p"/></g><g><use fill="#b1b1b1" xlink:href="#9741q"/></g><g><use fill="#b1b1b1" xlink:href="#9741r"/></g><g><use fill="#b1b1b1" xlink:href="#9741s"/></g><g><use fill="#b1b1b1" xlink:href="#9741t"/></g><g><use fill="#b1b1b1" xlink:href="#9741u"/></g><g><use fill="#b1b1b1" xlink:href="#9741v"/></g><g><use fill="#b1b1b1" xlink:href="#9741w"/></g></g></g></svg>