<?xml version="1.0" encoding="UTF-8"?>
<svg width="68px" height="60px" viewBox="0 0 68 60" version="1.1" xmlns="http://www.w3.org/2000/svg" xmlns:xlink="http://www.w3.org/1999/xlink">
    <!-- Generator: Sketch 47.1 (45422) - http://www.bohemiancoding.com/sketch -->
    <title>sun-umbrella</title>
    <desc>Created with Sketch.</desc>
    <defs></defs>
    <g id="Page-1" stroke="none" stroke-width="1" fill="none" fill-rule="evenodd">
        <g id="2-6-1-alicante-guest-houses" transform="translate(-605.000000, -6499.000000)" fill-rule="nonzero">
            <g id="sun-umbrella" transform="translate(605.000000, 6499.000000)">
                <path d="M33.8316569,50.8848899 L45.5813411,21.4925551 C46.0729825,20.2626872 47.4715556,19.6629515 48.7050994,20.1531278 C49.9386433,20.643304 50.5401715,22.0377093 50.0485302,23.2675771 L38.8274698,51.337533 L33.8316569,50.8848899 Z" id="Shape" fill="#90A4AE"></path>
                <path d="M38.4632125,25.3291652 C38.4677125,25.3186652 38.4722125,25.3081652 38.4767125,25.2976652 C38.4722125,25.2981652 38.4677125,25.2991652 38.4637125,25.2996652 L38.4632125,25.3291652 Z" id="Shape" fill="#FFF9C5"></path>
                <path d="M48.7053645,20.1531278 C47.4718207,19.6629515 46.0732476,20.2625551 45.5816062,21.4925551 L42.5049045,29.1890749 C43.2888265,29.3139648 44.0685068,29.5272687 44.8361248,29.8324229 C45.6037427,30.1374449 46.3197973,30.5171366 46.9730214,30.9617181 L50.0487953,23.2677093 C50.5403041,22.0375771 49.9389084,20.643304 48.7053645,20.1531278 Z" id="Shape" fill="#000000" opacity="0.1"></path>
                <path d="M52.9599376,9.51026432 L44.0942222,10.4603524 L38.4632125,16.9988987 L38.4641404,25.2962115 L38.468117,25.2946256 C38.4677193,25.2955507 38.4673216,25.2966079 38.4667914,25.297533 C40.9259259,24.8422467 43.6639532,25.0810573 46.31423,26.1342291 C48.9476725,27.1806608 51.0885458,28.8704405 52.5586979,30.8703965 L52.5844133,30.9171806 L57.2161014,26.345022 L57.7327953,14.9360352 L52.9599376,9.51026432 Z" id="Shape" fill="#FFF9C5"></path>
                <path d="M61.1883353,56.0536123 C57.9619805,50.9117181 47.0347914,47.1277533 34.0511657,47.1277533 C21.0679376,47.1277533 10.1411462,50.9114537 6.91439376,56.0530837 L8.72706433,56.0536123 L12.6608577,58.5688546 L16.797193,59.0171366 L19.7123119,57.3379295 L24.3394932,55.6552863 L26.8226199,56.3275771 L32.1052788,59.0171366 L35.5895828,58.4567841 L40.0854035,56.7843172 L43.3448967,55.7673568 L47.503501,56.7843172 L50.8753996,59.0171366 L56.2704639,58.3448458 L61.1883353,56.0536123 Z" id="Shape" fill="#FFCA28"></path>
                <path d="M56.6491696,58.1684141 L61.1884678,56.0536123 C57.9621131,50.9118502 47.034924,47.1277533 34.0512982,47.1277533 C31.0660585,47.1277533 28.1901754,47.3282379 25.4911189,47.6986784 C38.8846004,49.2301322 50.0867057,53.0705286 56.6491696,58.1684141 Z" id="Shape" fill="#000000" opacity="0.1"></path>
                <path d="M67.4294893,56.6056388 C64.2411774,54.4497357 60.1207485,54.4497357 56.9324366,56.6056388 C54.4247875,58.3012335 51.1842495,58.3012335 48.6763353,56.6056388 C45.4880234,54.4497357 41.3675945,54.4497357 38.1792827,56.6056388 C35.6716335,58.3012335 32.430963,58.3012335 29.9231813,56.6056388 C26.7348694,54.4497357 22.6144405,54.4497357 19.4261287,56.6056388 C16.918347,58.3012335 13.677809,58.3012335 11.1700273,56.6056388 C7.9817154,54.4497357 3.86128655,54.4497357 0.672974659,56.6056388 C0.216725146,56.9140969 0.0976920078,57.5329956 0.407072125,57.9878855 C0.716452242,58.4427753 1.33733333,58.5613216 1.79345029,58.2529956 C4.30109942,56.5574009 7.54176998,56.5572687 10.0495517,58.2529956 C13.2379961,60.4087665 17.358425,60.4087665 20.5466043,58.2529956 C23.0542534,56.5574009 26.294924,56.5572687 28.8027057,58.2529956 C31.9911501,60.4087665 36.1115789,60.4087665 39.2997583,58.2529956 C41.8074074,56.5574009 45.048078,56.5572687 47.5558596,58.2529956 C49.1500819,59.3308811 50.9773333,59.8698238 52.8044522,59.8698238 C54.6315712,59.8698238 56.4588226,59.3308811 58.0529123,58.2529956 C60.5605614,56.5574009 63.801232,56.5574009 66.3090136,58.2529956 C66.7653957,58.5615859 67.3860117,58.4427753 67.6953918,57.9878855 C68.0047719,57.5331278 67.8857388,56.9142291 67.4294893,56.6056388 Z" id="Shape" fill="#1EB8E8"></path>
                <g id="Group" transform="translate(24.257310, 7.929515)" fill="#EF495B">
                    <path d="M14.2068304,17.3668282 C12.7357505,15.3502203 10.5836101,13.6457709 7.93346589,12.5925991 C5.2819961,11.5388987 2.54237817,11.3003524 0.0825808967,11.7564317 C0.0825808967,11.7564317 12.0185029,-5.04898678 28.7027602,1.58088106 C28.7027602,1.58088106 19.9532943,3.91414097 14.2060351,17.3766079 L14.2068304,17.3668282 Z" id="Shape"></path>
                    <path d="M28.3332008,22.9802643 C30.7923353,22.5252423 33.5303626,22.7640529 36.1806394,23.8172247 C38.8321092,24.8709251 40.9853099,26.5764317 42.4559922,28.5944934 C42.4559922,28.5944934 45.3867524,8.21061674 28.7024951,1.58061674 C28.7024951,1.58061674 33.44354,9.27462555 28.3272359,22.9876652 L28.3332008,22.9802643 Z" id="Shape"></path>
                </g>
                <ellipse id="Oval" fill="#FFCA28" cx="11.3591813" cy="11.4561674" rx="5.4380117" ry="5.42180617"></ellipse>
                <g id="Group" fill="#FF9800">
                    <path d="M11.3593138,4.12242291 C10.8080234,4.12242291 10.3611852,3.67678414 10.3611852,3.12726872 L10.3611852,1.1253304 C10.3611852,0.575682819 10.8081559,0.130176211 11.3593138,0.130176211 C11.9104717,0.130176211 12.3574425,0.575814978 12.3574425,1.1253304 L12.3574425,3.12726872 C12.3574425,3.6769163 11.9104717,4.12242291 11.3593138,4.12242291 Z" id="Shape"></path>
                    <path d="M17.26577,6.56180617 C17.0103392,6.56180617 16.7549084,6.4646696 16.5600546,6.27026432 C16.1702144,5.8815859 16.1702144,5.25145374 16.5600546,4.86277533 L17.9798363,3.44722467 C18.3696764,3.05854626 19.001692,3.05854626 19.3913996,3.44722467 C19.7812398,3.83590308 19.7812398,4.46603524 19.3913996,4.85471366 L17.9716179,6.27026432 C17.7766316,6.4646696 17.5212008,6.56180617 17.26577,6.56180617 Z" id="Shape"></path>
                    <path d="M21.7202339,12.450793 L19.7124444,12.450793 C19.161154,12.450793 18.7143158,12.0051542 18.7143158,11.4556388 C18.7143158,10.9061233 19.1612865,10.4604846 19.7124444,10.4604846 L21.7202339,10.4604846 C22.2715244,10.4604846 22.7183626,10.9061233 22.7183626,11.4556388 C22.7183626,12.0051542 22.2715244,12.450793 21.7202339,12.450793 Z" id="Shape"></path>
                    <path d="M18.6855517,19.7553304 C18.4301209,19.7553304 18.1745575,19.6581938 17.9798363,19.4637885 L16.5600546,18.0482379 C16.1702144,17.6595595 16.1702144,17.0294273 16.5600546,16.6407489 C16.9498947,16.2520705 17.5819103,16.2520705 17.9716179,16.6407489 L19.3913996,18.0562996 C19.7812398,18.444978 19.7812398,19.0751101 19.3913996,19.4637885 C19.1964133,19.6580617 18.941115,19.7553304 18.6855517,19.7553304 Z" id="Shape"></path>
                    <path d="M11.3593138,22.780837 C10.8080234,22.780837 10.3611852,22.3351982 10.3611852,21.7856828 L10.3611852,19.7837445 C10.3611852,19.2340969 10.8081559,18.7885903 11.3593138,18.7885903 C11.9104717,18.7885903 12.3574425,19.2342291 12.3574425,19.7837445 L12.3574425,21.7856828 C12.3574425,22.3354626 11.9104717,22.780837 11.3593138,22.780837 Z" id="Shape"></path>
                    <path d="M4.03281092,19.7553304 C3.77738012,19.7553304 3.52194932,19.6581938 3.32709552,19.4637885 C2.93725536,19.0751101 2.93725536,18.444978 3.32709552,18.0562996 L4.74674464,16.6407489 C5.1365848,16.2520705 5.76860039,16.2520705 6.15830799,16.6407489 C6.54814815,17.0294273 6.54814815,17.6595595 6.15830799,18.0482379 L4.73865887,19.4637885 C4.54380507,19.6580617 4.28837427,19.7553304 4.03281092,19.7553304 Z" id="Shape"></path>
                    <path d="M3.00605068,12.450793 L0.998128655,12.450793 C0.446838207,12.450793 0,12.0051542 0,11.4556388 C0,10.9061233 0.44697076,10.4604846 0.998128655,10.4604846 L3.00605068,10.4604846 C3.55734113,10.4604846 4.00417934,10.9061233 4.00417934,11.4556388 C4.00417934,12.0051542 3.55734113,12.450793 3.00605068,12.450793 Z" id="Shape"></path>
                    <path d="M5.45259259,6.56180617 C5.19716179,6.56180617 4.94173099,6.4646696 4.74687719,6.27026432 L3.32709552,4.85484581 C2.93725536,4.4661674 2.93725536,3.83603524 3.32709552,3.44735683 C3.71693567,3.05867841 4.34895127,3.05867841 4.73865887,3.44735683 L6.15830799,4.86290749 C6.54814815,5.2515859 6.54814815,5.88171806 6.15830799,6.27039648 C5.96358674,6.4646696 5.70802339,6.56180617 5.45259259,6.56180617 Z" id="Shape"></path>
                </g>
            </g>
        </g>
    </g>
</svg>