<?xml version="1.0" encoding="UTF-8"?>
<svg width="60px" height="60px" viewBox="0 0 60 60" version="1.1" xmlns="http://www.w3.org/2000/svg" xmlns:xlink="http://www.w3.org/1999/xlink">
    <!-- Generator: Sketch 47.1 (45422) - http://www.bohemiancoding.com/sketch -->
    <title>techno-loft-icon</title>
    <desc>Created with Sketch.</desc>
    <defs></defs>
    <g id="Page-1" stroke="none" stroke-width="1" fill="none" fill-rule="evenodd">
        <g id="2-1-projects" transform="translate(-1077.000000, -5274.000000)">
            <g id="Group-12" transform="translate(930.000000, 5190.000000)">
                <g id="Group-11" transform="translate(92.000000, 84.000000)">
                    <g id="techno-loft-icon" transform="translate(55.000000, 0.000000)">
                        <path d="M49.8336,59.4336 L9.6,59.4336 C4.32,59.4336 0,55.1136 0,49.8336 L0,9.6 C0,4.32 4.32,0 9.6,0 L49.8336,0 C55.1136,0 59.4336,4.32 59.4336,9.6 L59.4336,49.8336 C59.4336,55.1136 55.1136,59.4336 49.8336,59.4336" id="Fill-1-Copy" fill="#FECD01"></path>
                        <path d="M45.4014286,11 C45.7890496,11 46.1238081,11.140951 46.4057143,11.4228571 C46.6876205,11.7047633 46.8285714,12.0395219 46.8285714,12.4271429 L46.8285714,20.9371429 C46.8285714,21.3247638 46.6876205,21.6595224 46.4057143,21.9414286 C46.1238081,22.2233347 45.7890496,22.3642857 45.4014286,22.3642857 L36.6271429,22.3642857 L36.6271429,46.5728571 C36.6271429,46.9604781 36.4861919,47.2952367 36.2042857,47.5771429 C35.9223795,47.859049 35.587621,48 35.2,48 L24.6285714,48 C24.2409504,48 23.9061919,47.859049 23.6242857,47.5771429 C23.3423795,47.2952367 23.2014286,46.9604781 23.2014286,46.5728571 L23.2014286,22.3642857 L14.4271429,22.3642857 C14.0395219,22.3642857 13.7047633,22.2233347 13.4228571,21.9414286 C13.140951,21.6595224 13,21.3247638 13,20.9371429 L13,12.4271429 C13,12.0395219 13.140951,11.7047633 13.4228571,11.4228571 C13.7047633,11.140951 14.0395219,11 14.4271429,11 L45.4014286,11 Z" id="T" fill="#231F20"></path>
                    </g>
                </g>
            </g>
        </g>
    </g>
</svg>