<?xml version="1.0" encoding="UTF-8"?>
<svg width="23px" height="15px" viewBox="0 0 23 15" version="1.1" xmlns="http://www.w3.org/2000/svg" xmlns:xlink="http://www.w3.org/1999/xlink">
    <!-- Generator: Sketch 47.1 (45422) - http://www.bohemiancoding.com/sketch -->
    <title>us</title>
    <desc>Created with Sketch.</desc>
    <defs></defs>
    <g id="Page-1" stroke="none" stroke-width="1" fill="none" fill-rule="evenodd">
        <g id="us">
            <path d="M22.49995,15 L0.39495,15 C0.17695,15 -5e-05,14.823 -5e-05,14.605 L-5e-05,0.395 C-5e-05,0.177 0.17695,0 0.39495,0 L22.49995,0 C22.71795,0 22.89495,0.177 22.89495,0.395 L22.89495,14.605 C22.89495,14.8235 22.71795,15 22.49995,15" id="Fill-1" fill="#F5F5F5"></path>
            <path d="M22.8947,1.1539 L0.0002,1.1539 L0.0002,0.3949 C0.0002,0.1769 0.1767,-0.0001 0.3947,-0.0001 L22.5002,-0.0001 C22.7182,-0.0001 22.8947,0.1769 22.8947,0.3949 L22.8947,1.1539 Z" id="Fill-4" fill="#FF4B55"></path>
            <polygon id="Fill-7" fill="#FF4B55" points="0 5.7695 22.8945 5.7695 22.8945 4.6155 0 4.6155"></polygon>
            <polygon id="Fill-9" fill="#FF4B55" points="0 3.4615 22.8945 3.4615 22.8945 2.3075 0 2.3075"></polygon>
            <path d="M22.8947,8.07695 L0.3947,8.07695 C0.1767,8.07695 0.0002,7.89995 0.0002,7.68195 L0.0002,6.92295 L22.8947,6.92295 L22.8947,8.07695 Z" id="Fill-10" fill="#FF4B55"></path>
            <polygon id="Fill-11" fill="#FF4B55" points="0 12.693 22.8945 12.693 22.8945 11.539 0 11.539"></polygon>
            <path d="M22.49995,15 L0.39495,15 C0.17695,15 -5e-05,14.823 -5e-05,14.605 L-5e-05,13.846 L22.89495,13.846 L22.89495,14.6055 C22.89495,14.8235 22.71795,15 22.49995,15" id="Fill-12" fill="#FF4B55"></path>
            <polygon id="Fill-13" fill="#FF4B55" points="0 10.385 22.8945 10.385 22.8945 9.231 0 9.231"></polygon>
            <path d="M10.2631,5e-05 L0.3946,5e-05 C0.1766,5e-05 0.0001,0.17655 0.0001,0.39455 L0.0001,7.68205 C0.0001,7.90005 0.1766,8.07705 0.3946,8.07705 L10.2631,8.07705 C10.4811,8.07705 10.6581,7.90005 10.6581,7.68205 L10.6581,0.39455 C10.6581,0.17655 10.4811,5e-05 10.2631,5e-05" id="Fill-14" fill="#41479B"></path>
            <path d="M1.10845,0.90605 L1.19595,1.16805 L1.47195,1.17005 C1.50795,1.17055 1.52245,1.21605 1.49395,1.23755 L1.27145,1.40155 L1.35495,1.66455 C1.36595,1.69905 1.32695,1.72705 1.29795,1.70605 L1.07295,1.54555 L0.84845,1.70655 C0.81945,1.72705 0.78045,1.69905 0.79145,1.66505 L0.87445,1.40155 L0.65245,1.23755 C0.62395,1.21605 0.63845,1.17055 0.67445,1.17005 L0.95045,1.16805 L1.03795,0.90605 C1.04895,0.87205 1.09695,0.87205 1.10845,0.90605" id="Fill-15" fill="#F5F5F5"></path>
            <path d="M1.10845,2.27675 L1.19595,2.53875 L1.47195,2.54075 C1.50795,2.54125 1.52245,2.58675 1.49395,2.60825 L1.27145,2.77225 L1.35495,3.03525 C1.36595,3.06975 1.32695,3.09775 1.29795,3.07675 L1.07295,2.91625 L0.84845,3.07725 C0.81945,3.09775 0.78045,3.06975 0.79145,3.03575 L0.87445,2.77225 L0.65245,2.60825 C0.62395,2.58675 0.63845,2.54125 0.67445,2.54075 L0.95045,2.53875 L1.03795,2.27675 C1.04895,2.24275 1.09695,2.24275 1.10845,2.27675" id="Fill-16" fill="#F5F5F5"></path>
            <path d="M1.10845,3.6475 L1.19595,3.9095 L1.47195,3.9115 C1.50795,3.912 1.52245,3.9575 1.49395,3.979 L1.27145,4.143 L1.35495,4.406 C1.36595,4.4405 1.32695,4.4685 1.29795,4.4475 L1.07295,4.287 L0.84845,4.448 C0.81945,4.4685 0.78045,4.4405 0.79145,4.4065 L0.87445,4.143 L0.65245,3.979 C0.62395,3.9575 0.63845,3.912 0.67445,3.9115 L0.95045,3.9095 L1.03795,3.6475 C1.04895,3.6135 1.09695,3.6135 1.10845,3.6475" id="Fill-17" fill="#F5F5F5"></path>
            <path d="M1.10845,5.01825 L1.19595,5.28025 L1.47195,5.28225 C1.50795,5.28275 1.52245,5.32825 1.49395,5.34975 L1.27145,5.51375 L1.35495,5.77675 C1.36595,5.81125 1.32695,5.83925 1.29795,5.81825 L1.07295,5.65775 L0.84845,5.81875 C0.81945,5.83925 0.78045,5.81125 0.79145,5.77725 L0.87445,5.51375 L0.65245,5.34975 C0.62395,5.32825 0.63845,5.28275 0.67445,5.28225 L0.95045,5.28025 L1.03795,5.01825 C1.04895,4.98425 1.09695,4.98425 1.10845,5.01825" id="Fill-18" fill="#F5F5F5"></path>
            <path d="M1.10845,6.389 L1.19595,6.651 L1.47195,6.653 C1.50795,6.6535 1.52245,6.699 1.49395,6.7205 L1.27145,6.8845 L1.35495,7.148 C1.36595,7.182 1.32695,7.21 1.29795,7.189 L1.07295,7.0285 L0.84845,7.1895 C0.81945,7.21 0.78045,7.182 0.79145,7.148 L0.87445,6.8845 L0.65245,6.7205 C0.62395,6.699 0.63845,6.6535 0.67445,6.653 L0.95045,6.651 L1.03795,6.389 C1.04895,6.355 1.09695,6.355 1.10845,6.389" id="Fill-19" fill="#F5F5F5"></path>
            <path d="M2.1724,1.5781 L2.2599,1.8401 L2.5359,1.8421 C2.5719,1.8426 2.5864,1.8881 2.5579,1.9096 L2.3354,2.0736 L2.4189,2.3366 C2.4299,2.3711 2.3909,2.3991 2.3619,2.3781 L2.1369,2.2176 L1.9124,2.3781 C1.8834,2.3991 1.8444,2.3711 1.8554,2.3366 L1.9384,2.0736 L1.7164,1.9096 C1.6879,1.8881 1.7024,1.8426 1.7384,1.8421 L2.0144,1.8401 L2.1019,1.5781 C2.1129,1.5441 2.1609,1.5441 2.1724,1.5781" id="Fill-20" fill="#F5F5F5"></path>
            <path d="M2.1724,2.94885 L2.2599,3.21085 L2.5359,3.21285 C2.5719,3.21335 2.5864,3.25885 2.5579,3.28035 L2.3354,3.44435 L2.4189,3.70735 C2.4299,3.74185 2.3909,3.76985 2.3619,3.74885 L2.1369,3.58835 L1.9124,3.74885 C1.8834,3.76985 1.8444,3.74185 1.8554,3.70735 L1.9384,3.44435 L1.7164,3.28035 C1.6879,3.25885 1.7024,3.21335 1.7384,3.21285 L2.0144,3.21085 L2.1019,2.94885 C2.1129,2.91485 2.1609,2.91485 2.1724,2.94885" id="Fill-21" fill="#F5F5F5"></path>
            <path d="M2.1724,4.3196 L2.2599,4.5816 L2.5359,4.5836 C2.5719,4.5841 2.5864,4.6296 2.5579,4.6511 L2.3354,4.8151 L2.4189,5.0786 C2.4299,5.1126 2.3909,5.1406 2.3619,5.1196 L2.1369,4.9591 L1.9124,5.1196 C1.8834,5.1406 1.8444,5.1126 1.8554,5.0786 L1.9384,4.8151 L1.7164,4.6511 C1.6879,4.6296 1.7024,4.5841 1.7384,4.5836 L2.0144,4.5816 L2.1019,4.3196 C2.1129,4.2856 2.1609,4.2856 2.1724,4.3196" id="Fill-22" fill="#F5F5F5"></path>
            <path d="M2.1724,5.6903 L2.2599,5.9523 L2.5359,5.9543 C2.5719,5.9548 2.5864,6.0003 2.5579,6.0218 L2.3354,6.1858 L2.4189,6.4488 C2.4299,6.4833 2.3909,6.5113 2.3619,6.4903 L2.1369,6.3298 L1.9124,6.4903 C1.8834,6.5113 1.8444,6.4833 1.8554,6.4488 L1.9384,6.1858 L1.7164,6.0218 C1.6879,6.0003 1.7024,5.9548 1.7384,5.9543 L2.0144,5.9523 L2.1019,5.6903 C2.1129,5.6563 2.1609,5.6563 2.1724,5.6903" id="Fill-23" fill="#F5F5F5"></path>
            <path d="M3.23635,0.90605 L3.32385,1.16805 L3.59985,1.17005 C3.63585,1.17055 3.65035,1.21605 3.62185,1.23755 L3.39935,1.40155 L3.48285,1.66455 C3.49385,1.69905 3.45485,1.72705 3.42585,1.70605 L3.20085,1.54555 L2.97635,1.70605 C2.94735,1.72705 2.90835,1.69905 2.91935,1.66455 L3.00235,1.40155 L2.78035,1.23755 C2.75185,1.21605 2.76635,1.17055 2.80235,1.17005 L3.07835,1.16805 L3.16585,0.90605 C3.17685,0.87205 3.22485,0.87205 3.23635,0.90605" id="Fill-24" fill="#F5F5F5"></path>
            <path d="M3.23635,2.27675 L3.32385,2.53875 L3.59985,2.54075 C3.63585,2.54125 3.65035,2.58675 3.62185,2.60825 L3.39935,2.77225 L3.48285,3.03525 C3.49385,3.06975 3.45485,3.09775 3.42585,3.07675 L3.20085,2.91625 L2.97635,3.07675 C2.94735,3.09775 2.90835,3.06975 2.91935,3.03525 L3.00235,2.77225 L2.78035,2.60825 C2.75185,2.58675 2.76635,2.54125 2.80235,2.54075 L3.07835,2.53875 L3.16585,2.27675 C3.17685,2.24275 3.22485,2.24275 3.23635,2.27675" id="Fill-25" fill="#F5F5F5"></path>
            <path d="M3.23635,3.6475 L3.32385,3.9095 L3.59985,3.9115 C3.63585,3.912 3.65035,3.9575 3.62185,3.979 L3.39935,4.143 L3.48285,4.406 C3.49385,4.4405 3.45485,4.4685 3.42585,4.4475 L3.20085,4.287 L2.97635,4.4475 C2.94735,4.4685 2.90835,4.4405 2.91935,4.406 L3.00235,4.143 L2.78035,3.979 C2.75185,3.9575 2.76635,3.912 2.80235,3.9115 L3.07835,3.9095 L3.16585,3.6475 C3.17685,3.6135 3.22485,3.6135 3.23635,3.6475" id="Fill-26" fill="#F5F5F5"></path>
            <path d="M3.23635,5.01825 L3.32385,5.28025 L3.59985,5.28225 C3.63585,5.28275 3.65035,5.32825 3.62185,5.34975 L3.39935,5.51375 L3.48285,5.77675 C3.49385,5.81125 3.45485,5.83925 3.42585,5.81825 L3.20085,5.65775 L2.97635,5.81825 C2.94735,5.83925 2.90835,5.81125 2.91935,5.77675 L3.00235,5.51375 L2.78035,5.34975 C2.75185,5.32825 2.76635,5.28275 2.80235,5.28225 L3.07835,5.28025 L3.16585,5.01825 C3.17685,4.98425 3.22485,4.98425 3.23635,5.01825" id="Fill-27" fill="#F5F5F5"></path>
            <path d="M3.23635,6.389 L3.32385,6.651 L3.59985,6.653 C3.63585,6.6535 3.65035,6.699 3.62185,6.7205 L3.39935,6.8845 L3.48285,7.148 C3.49385,7.182 3.45485,7.21 3.42585,7.189 L3.20085,7.0285 L2.97635,7.189 C2.94735,7.21 2.90835,7.182 2.91935,7.148 L3.00235,6.8845 L2.78035,6.7205 C2.75185,6.699 2.76635,6.6535 2.80235,6.653 L3.07835,6.651 L3.16585,6.389 C3.17685,6.355 3.22485,6.355 3.23635,6.389" id="Fill-28" fill="#F5F5F5"></path>
            <path d="M4.3003,1.5781 L4.3878,1.8401 L4.6638,1.8421 C4.6998,1.8426 4.7143,1.8881 4.6858,1.9096 L4.4633,2.0736 L4.5468,2.3366 C4.5578,2.3711 4.5188,2.3991 4.4898,2.3781 L4.2648,2.2176 L4.0403,2.3781 C4.0113,2.3991 3.9723,2.3711 3.9833,2.3366 L4.0663,2.0736 L3.8443,1.9096 C3.8158,1.8881 3.8303,1.8426 3.8663,1.8421 L4.1423,1.8401 L4.2298,1.5781 C4.2408,1.5441 4.2888,1.5441 4.3003,1.5781" id="Fill-29" fill="#F5F5F5"></path>
            <path d="M4.3003,2.94885 L4.3878,3.21085 L4.6638,3.21285 C4.6998,3.21335 4.7143,3.25885 4.6858,3.28035 L4.4633,3.44435 L4.5468,3.70735 C4.5578,3.74185 4.5188,3.76985 4.4898,3.74885 L4.2648,3.58835 L4.0403,3.74885 C4.0113,3.76985 3.9723,3.74185 3.9833,3.70735 L4.0663,3.44435 L3.8443,3.28035 C3.8158,3.25885 3.8303,3.21335 3.8663,3.21285 L4.1423,3.21085 L4.2298,2.94885 C4.2408,2.91485 4.2888,2.91485 4.3003,2.94885" id="Fill-30" fill="#F5F5F5"></path>
            <path d="M4.3003,4.3196 L4.3878,4.5816 L4.6638,4.5836 C4.6998,4.5841 4.7143,4.6296 4.6858,4.6511 L4.4633,4.8151 L4.5468,5.0786 C4.5578,5.1126 4.5188,5.1406 4.4898,5.1196 L4.2648,4.9591 L4.0403,5.1196 C4.0113,5.1406 3.9723,5.1126 3.9833,5.0786 L4.0663,4.8151 L3.8443,4.6511 C3.8158,4.6296 3.8303,4.5841 3.8663,4.5836 L4.1423,4.5816 L4.2298,4.3196 C4.2408,4.2856 4.2888,4.2856 4.3003,4.3196" id="Fill-31" fill="#F5F5F5"></path>
            <path d="M4.3003,5.6903 L4.3878,5.9523 L4.6638,5.9543 C4.6998,5.9548 4.7143,6.0003 4.6858,6.0218 L4.4633,6.1858 L4.5468,6.4488 C4.5578,6.4833 4.5188,6.5113 4.4898,6.4903 L4.2648,6.3298 L4.0403,6.4903 C4.0113,6.5113 3.9723,6.4833 3.9833,6.4488 L4.0663,6.1858 L3.8443,6.0218 C3.8158,6.0003 3.8303,5.9548 3.8663,5.9543 L4.1423,5.9523 L4.2298,5.6903 C4.2408,5.6563 4.2888,5.6563 4.3003,5.6903" id="Fill-32" fill="#F5F5F5"></path>
            <path d="M5.36425,0.90605 L5.45175,1.16805 L5.72775,1.17005 C5.76375,1.17055 5.77825,1.21605 5.74975,1.23755 L5.52725,1.40155 L5.61075,1.66455 C5.62175,1.69905 5.58275,1.72705 5.55375,1.70605 L5.32875,1.54555 L5.10425,1.70605 C5.07525,1.72705 5.03625,1.69905 5.04725,1.66455 L5.13025,1.40155 L4.90825,1.23755 C4.87925,1.21605 4.89425,1.17055 4.93025,1.17005 L5.20625,1.16805 L5.29375,0.90605 C5.30475,0.87205 5.35275,0.87205 5.36425,0.90605" id="Fill-33" fill="#F5F5F5"></path>
            <path d="M5.36425,2.27675 L5.45175,2.53875 L5.72775,2.54075 C5.76375,2.54125 5.77825,2.58675 5.74975,2.60825 L5.52725,2.77225 L5.61075,3.03525 C5.62175,3.06975 5.58275,3.09775 5.55375,3.07675 L5.32875,2.91625 L5.10425,3.07675 C5.07525,3.09775 5.03625,3.06975 5.04725,3.03525 L5.13025,2.77225 L4.90825,2.60825 C4.87925,2.58675 4.89425,2.54125 4.93025,2.54075 L5.20625,2.53875 L5.29375,2.27675 C5.30475,2.24275 5.35275,2.24275 5.36425,2.27675" id="Fill-34" fill="#F5F5F5"></path>
            <path d="M5.36425,3.6475 L5.45175,3.9095 L5.72775,3.9115 C5.76375,3.912 5.77825,3.9575 5.74975,3.979 L5.52725,4.143 L5.61075,4.406 C5.62175,4.4405 5.58275,4.4685 5.55375,4.4475 L5.32875,4.287 L5.10425,4.4475 C5.07525,4.4685 5.03625,4.4405 5.04725,4.406 L5.13025,4.143 L4.90825,3.979 C4.87925,3.9575 4.89425,3.912 4.93025,3.9115 L5.20625,3.9095 L5.29375,3.6475 C5.30475,3.6135 5.35275,3.6135 5.36425,3.6475" id="Fill-35" fill="#F5F5F5"></path>
            <path d="M5.36425,5.01825 L5.45175,5.28025 L5.72775,5.28225 C5.76375,5.28275 5.77825,5.32825 5.74975,5.34975 L5.52725,5.51375 L5.61075,5.77675 C5.62175,5.81125 5.58275,5.83925 5.55375,5.81825 L5.32875,5.65775 L5.10425,5.81825 C5.07525,5.83925 5.03625,5.81125 5.04725,5.77675 L5.13025,5.51375 L4.90825,5.34975 C4.87925,5.32825 4.89425,5.28275 4.93025,5.28225 L5.20625,5.28025 L5.29375,5.01825 C5.30475,4.98425 5.35275,4.98425 5.36425,5.01825" id="Fill-36" fill="#F5F5F5"></path>
            <path d="M5.36425,6.389 L5.45175,6.651 L5.72775,6.653 C5.76375,6.6535 5.77825,6.699 5.74975,6.7205 L5.52725,6.8845 L5.61075,7.148 C5.62175,7.182 5.58275,7.21 5.55375,7.189 L5.32875,7.0285 L5.10425,7.189 C5.07525,7.21 5.03625,7.182 5.04725,7.148 L5.13025,6.8845 L4.90825,6.7205 C4.87925,6.699 4.89425,6.6535 4.93025,6.653 L5.20625,6.651 L5.29375,6.389 C5.30475,6.355 5.35275,6.355 5.36425,6.389" id="Fill-37" fill="#F5F5F5"></path>
            <path d="M6.4282,1.5781 L6.5157,1.8401 L6.7917,1.8421 C6.8277,1.8426 6.8422,1.8881 6.8137,1.9096 L6.5912,2.0736 L6.6747,2.3366 C6.6857,2.3711 6.6467,2.3991 6.6177,2.3781 L6.3927,2.2176 L6.1682,2.3781 C6.1392,2.3991 6.1002,2.3711 6.1112,2.3366 L6.1942,2.0736 L5.9722,1.9096 C5.9437,1.8881 5.9582,1.8426 5.9942,1.8421 L6.2702,1.8401 L6.3577,1.5781 C6.3692,1.5441 6.4167,1.5441 6.4282,1.5781" id="Fill-38" fill="#F5F5F5"></path>
            <path d="M6.4282,2.94885 L6.5157,3.21085 L6.7917,3.21285 C6.8277,3.21335 6.8422,3.25885 6.8137,3.28035 L6.5912,3.44435 L6.6747,3.70735 C6.6857,3.74185 6.6467,3.76985 6.6177,3.74885 L6.3927,3.58835 L6.1682,3.74885 C6.1392,3.76985 6.1002,3.74185 6.1112,3.70735 L6.1942,3.44435 L5.9722,3.28035 C5.9437,3.25885 5.9582,3.21335 5.9942,3.21285 L6.2702,3.21085 L6.3577,2.94885 C6.3692,2.91485 6.4167,2.91485 6.4282,2.94885" id="Fill-39" fill="#F5F5F5"></path>
            <path d="M6.4282,4.3196 L6.5157,4.5816 L6.7917,4.5836 C6.8277,4.5841 6.8422,4.6296 6.8137,4.6511 L6.5912,4.8151 L6.6747,5.0786 C6.6857,5.1126 6.6467,5.1406 6.6177,5.1196 L6.3927,4.9591 L6.1682,5.1196 C6.1392,5.1406 6.1002,5.1126 6.1112,5.0786 L6.1942,4.8151 L5.9722,4.6511 C5.9437,4.6296 5.9582,4.5841 5.9942,4.5836 L6.2702,4.5816 L6.3577,4.3196 C6.3692,4.2856 6.4167,4.2856 6.4282,4.3196" id="Fill-40" fill="#F5F5F5"></path>
            <path d="M6.4282,5.6903 L6.5157,5.9523 L6.7917,5.9543 C6.8277,5.9548 6.8422,6.0003 6.8137,6.0218 L6.5912,6.1858 L6.6747,6.4488 C6.6857,6.4833 6.6467,6.5113 6.6177,6.4903 L6.3927,6.3298 L6.1682,6.4903 C6.1392,6.5113 6.1002,6.4833 6.1112,6.4488 L6.1942,6.1858 L5.9722,6.0218 C5.9437,6.0003 5.9582,5.9548 5.9942,5.9543 L6.2702,5.9523 L6.3577,5.6903 C6.3692,5.6563 6.4167,5.6563 6.4282,5.6903" id="Fill-41" fill="#F5F5F5"></path>
            <path d="M7.49215,0.90605 L7.57965,1.16805 L7.85565,1.17005 C7.89165,1.17055 7.90615,1.21605 7.87765,1.23755 L7.65515,1.40155 L7.73865,1.66455 C7.74965,1.69905 7.71065,1.72705 7.68165,1.70605 L7.45665,1.54555 L7.23215,1.70605 C7.20315,1.72705 7.16415,1.69905 7.17515,1.66455 L7.25815,1.40155 L7.03615,1.23755 C7.00765,1.21605 7.02215,1.17055 7.05815,1.17005 L7.33415,1.16805 L7.42165,0.90605 C7.43265,0.87205 7.48065,0.87205 7.49215,0.90605" id="Fill-42" fill="#F5F5F5"></path>
            <path d="M7.49215,2.27675 L7.57965,2.53875 L7.85565,2.54075 C7.89165,2.54125 7.90615,2.58675 7.87765,2.60825 L7.65515,2.77225 L7.73865,3.03525 C7.74965,3.06975 7.71065,3.09775 7.68165,3.07675 L7.45665,2.91625 L7.23215,3.07675 C7.20315,3.09775 7.16415,3.06975 7.17515,3.03525 L7.25815,2.77225 L7.03615,2.60825 C7.00765,2.58675 7.02215,2.54125 7.05815,2.54075 L7.33415,2.53875 L7.42165,2.27675 C7.43265,2.24275 7.48065,2.24275 7.49215,2.27675" id="Fill-43" fill="#F5F5F5"></path>
            <path d="M7.49215,3.6475 L7.57965,3.9095 L7.85565,3.9115 C7.89165,3.912 7.90615,3.9575 7.87765,3.979 L7.65515,4.143 L7.73865,4.406 C7.74965,4.4405 7.71065,4.4685 7.68165,4.4475 L7.45665,4.287 L7.23215,4.4475 C7.20315,4.4685 7.16415,4.4405 7.17515,4.406 L7.25815,4.143 L7.03615,3.979 C7.00765,3.9575 7.02215,3.912 7.05815,3.9115 L7.33415,3.9095 L7.42165,3.6475 C7.43265,3.6135 7.48065,3.6135 7.49215,3.6475" id="Fill-44" fill="#F5F5F5"></path>
            <path d="M7.49215,5.01825 L7.57965,5.28025 L7.85565,5.28225 C7.89165,5.28275 7.90615,5.32825 7.87765,5.34975 L7.65515,5.51375 L7.73865,5.77675 C7.74965,5.81125 7.71065,5.83925 7.68165,5.81825 L7.45665,5.65775 L7.23215,5.81825 C7.20315,5.83925 7.16415,5.81125 7.17515,5.77675 L7.25815,5.51375 L7.03615,5.34975 C7.00765,5.32825 7.02215,5.28275 7.05815,5.28225 L7.33415,5.28025 L7.42165,5.01825 C7.43265,4.98425 7.48065,4.98425 7.49215,5.01825" id="Fill-45" fill="#F5F5F5"></path>
            <path d="M7.49215,6.389 L7.57965,6.651 L7.85565,6.653 C7.89165,6.6535 7.90615,6.699 7.87765,6.7205 L7.65515,6.8845 L7.73865,7.148 C7.74965,7.182 7.71065,7.21 7.68165,7.189 L7.45665,7.0285 L7.23215,7.189 C7.20315,7.21 7.16415,7.182 7.17515,7.148 L7.25815,6.8845 L7.03615,6.7205 C7.00765,6.699 7.02215,6.6535 7.05815,6.653 L7.33415,6.651 L7.42165,6.389 C7.43265,6.355 7.48065,6.355 7.49215,6.389" id="Fill-46" fill="#F5F5F5"></path>
            <path d="M8.5561,1.5781 L8.6436,1.8401 L8.9196,1.8421 C8.9556,1.8426 8.9701,1.8881 8.9416,1.9096 L8.7191,2.0736 L8.8026,2.3366 C8.8136,2.3711 8.7746,2.3991 8.7456,2.3781 L8.5206,2.2176 L8.2961,2.3781 C8.2671,2.3991 8.2281,2.3711 8.2391,2.3366 L8.3221,2.0736 L8.1001,1.9096 C8.0716,1.8881 8.0861,1.8426 8.1221,1.8421 L8.3981,1.8401 L8.4856,1.5781 C8.4966,1.5441 8.5446,1.5441 8.5561,1.5781" id="Fill-47" fill="#F5F5F5"></path>
            <path d="M8.5561,2.94885 L8.6436,3.21085 L8.9196,3.21285 C8.9556,3.21335 8.9701,3.25885 8.9416,3.28035 L8.7191,3.44435 L8.8026,3.70735 C8.8136,3.74185 8.7746,3.76985 8.7456,3.74885 L8.5206,3.58835 L8.2961,3.74885 C8.2671,3.76985 8.2281,3.74185 8.2391,3.70735 L8.3221,3.44435 L8.1001,3.28035 C8.0716,3.25885 8.0861,3.21335 8.1221,3.21285 L8.3981,3.21085 L8.4856,2.94885 C8.4966,2.91485 8.5446,2.91485 8.5561,2.94885" id="Fill-48" fill="#F5F5F5"></path>
            <path d="M8.5561,4.3196 L8.6436,4.5816 L8.9196,4.5836 C8.9556,4.5841 8.9701,4.6296 8.9416,4.6511 L8.7191,4.8151 L8.8026,5.0786 C8.8136,5.1126 8.7746,5.1406 8.7456,5.1196 L8.5206,4.9591 L8.2961,5.1196 C8.2671,5.1406 8.2281,5.1126 8.2391,5.0786 L8.3221,4.8151 L8.1001,4.6511 C8.0716,4.6296 8.0861,4.5841 8.1221,4.5836 L8.3981,4.5816 L8.4856,4.3196 C8.4966,4.2856 8.5446,4.2856 8.5561,4.3196" id="Fill-49" fill="#F5F5F5"></path>
            <path d="M8.5561,5.6903 L8.6436,5.9523 L8.9196,5.9543 C8.9556,5.9548 8.9701,6.0003 8.9416,6.0218 L8.7191,6.1858 L8.8026,6.4488 C8.8136,6.4833 8.7746,6.5113 8.7456,6.4903 L8.5206,6.3298 L8.2961,6.4903 C8.2671,6.5113 8.2281,6.4833 8.2391,6.4488 L8.3221,6.1858 L8.1001,6.0218 C8.0716,6.0003 8.0861,5.9548 8.1221,5.9543 L8.3981,5.9523 L8.4856,5.6903 C8.4966,5.6563 8.5446,5.6563 8.5561,5.6903" id="Fill-50" fill="#F5F5F5"></path>
            <path d="M9.62005,0.90605 L9.70755,1.16805 L9.98355,1.17005 C10.01955,1.17055 10.03405,1.21605 10.00555,1.23755 L9.78305,1.40155 L9.86655,1.66455 C9.87755,1.69905 9.83855,1.72705 9.80955,1.70605 L9.58455,1.54555 L9.36005,1.70605 C9.33105,1.72705 9.29205,1.69905 9.30305,1.66455 L9.38605,1.40155 L9.16405,1.23755 C9.13555,1.21605 9.15005,1.17055 9.18605,1.17005 L9.46205,1.16805 L9.54955,0.90605 C9.56055,0.87205 9.60855,0.87205 9.62005,0.90605" id="Fill-51" fill="#F5F5F5"></path>
            <path d="M9.62005,2.27675 L9.70755,2.53875 L9.98355,2.54075 C10.01955,2.54125 10.03405,2.58675 10.00555,2.60825 L9.78305,2.77225 L9.86655,3.03525 C9.87755,3.06975 9.83855,3.09775 9.80955,3.07675 L9.58455,2.91625 L9.36005,3.07675 C9.33105,3.09775 9.29205,3.06975 9.30305,3.03525 L9.38605,2.77225 L9.16405,2.60825 C9.13555,2.58675 9.15005,2.54125 9.18605,2.54075 L9.46205,2.53875 L9.54955,2.27675 C9.56055,2.24275 9.60855,2.24275 9.62005,2.27675" id="Fill-52" fill="#F5F5F5"></path>
            <path d="M9.62005,3.6475 L9.70755,3.9095 L9.98355,3.9115 C10.01955,3.912 10.03405,3.9575 10.00555,3.979 L9.78305,4.143 L9.86655,4.406 C9.87755,4.4405 9.83855,4.4685 9.80955,4.4475 L9.58455,4.287 L9.36005,4.4475 C9.33105,4.4685 9.29205,4.4405 9.30305,4.406 L9.38605,4.143 L9.16405,3.979 C9.13555,3.9575 9.15005,3.912 9.18605,3.9115 L9.46205,3.9095 L9.54955,3.6475 C9.56055,3.6135 9.60855,3.6135 9.62005,3.6475" id="Fill-53" fill="#F5F5F5"></path>
            <path d="M9.62005,5.01825 L9.70755,5.28025 L9.98355,5.28225 C10.01955,5.28275 10.03405,5.32825 10.00555,5.34975 L9.78305,5.51375 L9.86655,5.77675 C9.87755,5.81125 9.83855,5.83925 9.80955,5.81825 L9.58455,5.65775 L9.36005,5.81825 C9.33105,5.83925 9.29205,5.81125 9.30305,5.77675 L9.38605,5.51375 L9.16405,5.34975 C9.13555,5.32825 9.15005,5.28275 9.18605,5.28225 L9.46205,5.28025 L9.54955,5.01825 C9.56055,4.98425 9.60855,4.98425 9.62005,5.01825" id="Fill-54" fill="#F5F5F5"></path>
            <path d="M9.62005,6.389 L9.70755,6.651 L9.98355,6.653 C10.01955,6.6535 10.03405,6.699 10.00555,6.7205 L9.78305,6.8845 L9.86655,7.148 C9.87755,7.182 9.83855,7.21 9.80955,7.189 L9.58455,7.0285 L9.36005,7.189 C9.33105,7.21 9.29205,7.182 9.30305,7.148 L9.38605,6.8845 L9.16405,6.7205 C9.13555,6.699 9.15005,6.6535 9.18605,6.653 L9.46205,6.651 L9.54955,6.389 C9.56055,6.355 9.60855,6.355 9.62005,6.389" id="Fill-55" fill="#F5F5F5"></path>
        </g>
    </g>
</svg>