<?xml version="1.0" encoding="UTF-8"?>
<svg width="11px" height="20px" viewBox="0 0 11 20" version="1.1" xmlns="http://www.w3.org/2000/svg" xmlns:xlink="http://www.w3.org/1999/xlink">
    <!-- Generator: Sketch 47.1 (45422) - http://www.bohemiancoding.com/sketch -->
    <title>walking</title>
    <desc>Created with Sketch.</desc>
    <defs></defs>
    <g id="Page-1" stroke="none" stroke-width="1" fill="none" fill-rule="evenodd">
        <g id="2-7-1-chisinau-guest-house-crihan" transform="translate(-493.000000, -5843.000000)" fill-rule="nonzero" fill="#A0ABBC">
            <g id="Group-3" transform="translate(477.000000, 5836.000000)">
                <g id="walking" transform="translate(16.000000, 7.000000)">
                    <path d="M4.74823779,3.2281104 C5.18700637,3.21397028 5.55503185,3.0441189 5.85227176,2.71855626 C6.14951168,2.39299363 6.29104034,2.01082803 6.27690021,1.57205945 C6.26276008,1.13320594 6.09995754,0.758131635 5.78857749,0.446794055 C5.47719745,0.135414013 5.10208068,-0.0132059448 4.6633121,0.00093418259 C4.22454352,0.01507431 3.85651805,0.18492569 3.55927813,0.510488323 C3.26203822,0.836050955 3.11341826,1.21821656 3.11341826,1.65698514 C3.11341826,2.09575372 3.27617834,2.47087049 3.60174098,2.78225053 C3.92730361,3.09363057 4.30946921,3.24225053 4.74823779,3.2281104 Z" id="Shape"></path>
                    <path d="M10.1197877,8.5996603 L7.78433121,7.32577495 L5.87350318,4.26845011 C5.50547771,3.81549894 5.052569,3.58904459 4.51469214,3.58904459 C4.14666667,3.58904459 3.79282378,3.74475584 3.45312102,4.05613588 L0.565647558,6.98607219 C0.480721868,7.09932059 0.424118896,7.22670913 0.395796178,7.36823779 L0.0136305732,10.6378769 L0.0136305732,10.7228025 C0.0136305732,10.9209342 0.0844161359,11.0907856 0.225944798,11.2323567 C0.367473461,11.3738429 0.537324841,11.4446709 0.735498938,11.4446709 C0.933673036,11.4446709 1.09643312,11.3738429 1.22382166,11.2323567 C1.35121019,11.0907856 1.42904459,10.9351168 1.4573673,10.7652654 L1.75460722,7.96271762 L2.7737155,6.94360934 L1.83953291,14.7567728 L0.183481953,18.4510828 C0.126878981,18.6209342 0.0985562633,18.7762633 0.0985562633,18.918259 C0.0985562633,19.229172 0.204713376,19.4915074 0.417027601,19.7038217 C0.629341826,19.9161359 0.891210191,20.0080255 1.20259023,19.9798301 C1.62721868,19.9798301 1.93859873,19.781189 2.13677282,19.3853503 L3.92021231,15.393758 C3.92021231,15.3653079 3.93435244,15.3158386 3.96267516,15.245138 C3.99104034,15.1742251 4.01936306,15.1105308 4.04760085,15.0540552 C4.07592357,14.9973673 4.09006369,14.9406794 4.09006369,14.8842038 L4.30237792,12.9733333 L6.12828025,19.2579618 C6.32645435,19.7675159 6.68029724,20.0081104 7.18985138,19.9798301 C7.47295117,19.9798301 7.72063694,19.873673 7.93295117,19.6613588 C8.14526539,19.4490446 8.25142251,19.1867091 8.25142251,18.8757962 C8.25142251,18.8470064 8.24433121,18.8121019 8.23019108,18.7696391 C8.21605096,18.7271762 8.20895966,18.6916773 8.20895966,18.663397 L5.66118896,9.95847134 L5.95842887,7.11346072 L6.68029724,8.25995754 C6.73690021,8.34488323 6.80768577,8.41566879 6.89261146,8.47227176 L9.39791932,9.87354565 C9.5677707,9.93014862 9.68101911,9.95847134 9.73762208,9.95847134 C9.93579618,9.95847134 10.1056476,9.88063694 10.2471762,9.72492569 C10.3887049,9.56917197 10.4594904,9.39227176 10.4594904,9.19414013 C10.4594904,8.93936306 10.346242,8.74118896 10.1197877,8.5996603 Z" id="Shape"></path>
                </g>
            </g>
        </g>
    </g>
</svg>