<?xml version="1.0" encoding="UTF-8"?>
<svg width="300px" height="300px" viewBox="0 0 300 300" version="1.1" xmlns="http://www.w3.org/2000/svg" xmlns:xlink="http://www.w3.org/1999/xlink">
    <!-- Generator: Sketch 47.1 (45422) - http://www.bohemiancoding.com/sketch -->
    <title>work-share</title>
    <desc>Created with Sketch.</desc>
    <defs>
        <circle id="path-1" cx="150" cy="150" r="150"></circle>
        <filter x="-5.2%" y="-5.2%" width="110.3%" height="110.3%" filterUnits="objectBoundingBox" id="filter-3">
            <feGaussianBlur stdDeviation="15" in="SourceAlpha" result="shadowBlurInner1"></feGaussianBlur>
            <feOffset dx="0" dy="1" in="shadowBlurInner1" result="shadowOffsetInner1"></feOffset>
            <feComposite in="shadowOffsetInner1" in2="SourceAlpha" operator="arithmetic" k2="-1" k3="1" result="shadowInnerInner1"></feComposite>
            <feColorMatrix values="0 0 0 0 0   0 0 0 0 0   0 0 0 0 0  0 0 0 0.1 0" type="matrix" in="shadowInnerInner1"></feColorMatrix>
        </filter>
    </defs>
    <g id="Page-1" stroke="none" stroke-width="1" fill="none" fill-rule="evenodd">
        <g id="1-1-home" transform="translate(-893.000000, -2903.000000)">
            <g id="work-share" transform="translate(893.000000, 2903.000000)">
                <mask id="mask-2" fill="white">
                    <use xlink:href="#path-1"></use>
                </mask>
                <g id="Mask">
                    <use fill="#F8F8F8" fill-rule="evenodd" xlink:href="#path-1"></use>
                    <use fill="black" fill-opacity="1" filter="url(#filter-3)" xlink:href="#path-1"></use>
                </g>
                <g id="Group-35" mask="url(#mask-2)">
                    <g transform="translate(15.000000, 12.000000)">
                        <path d="M134.122772,25.08808 C114.524722,25.3788985 98.3965116,41.24737 97.8059946,60.8365408 C97.3397975,76.3253944 106.421766,89.7474398 119.608493,95.6570466 C122.0416,96.7470606 123.635551,99.1313276 123.635551,101.797533 L123.635551,110.957201 L145.724427,110.957201 L145.724427,101.795313 C145.724427,99.1424274 147.298399,96.7559406 149.722625,95.6725866 C162.598554,89.9161589 171.573964,76.9958309 171.573964,61.9776148 C171.573964,41.4160891 154.753117,24.7839418 134.122772,25.08808 L134.122772,25.08808 Z" id="Shape" fill="#FECA57" fill-rule="nonzero"></path>
                        <path d="M136.657998,95.6570466 C123.473492,89.7496597 114.389302,76.3276148 114.8555,60.8365408 C115.363877,43.9668547 127.40065,29.8677138 143.244701,26.0892946 C140.323198,25.3944386 137.268495,25.0414604 134.122772,25.08808 C114.524722,25.3788985 98.3965116,41.24737 97.8059946,60.8365408 C97.3397975,76.3253944 106.421766,89.7474398 119.608493,95.6570466 C122.0416,96.7470606 123.635551,99.1313276 123.635551,101.797533 L123.635551,110.957201 L140.687276,110.957201 L140.687276,101.797533 C140.687276,99.1313276 139.093325,96.7492805 136.657998,95.6570466 L136.657998,95.6570466 Z" id="Shape" fill="#F4B537" fill-rule="nonzero"></path>
                        <path d="M134.679989,134.62005 C139.690501,134.62005 143.750858,130.89269 143.750858,122.785295 L125.61134,122.785295 C125.60912,130.89269 129.671697,134.62005 134.679989,134.62005 L134.679989,134.62005 Z" id="Shape" fill="#54A0FF" fill-rule="nonzero"></path>
                        <path d="M138.942366,122.785295 L125.61134,122.785295 C125.61134,130.89269 129.671697,134.62005 134.682209,134.62005 C137.321774,134.62005 139.690501,133.574435 141.348832,131.407727 C139.85922,129.463018 138.942366,126.619214 138.942366,122.785295 Z" id="Shape" fill="#338DEF" fill-rule="nonzero"></path>
                        <path d="M146.980941,109.254471 L122.381258,109.254471 C120.665207,109.254471 119.271055,110.646403 119.271055,112.364674 L119.271055,120.394369 C119.271055,122.11264 120.662987,123.504571 122.381258,123.504571 L146.980941,123.504571 C148.696991,123.504571 150.088923,122.11264 150.088923,120.394369 L150.088923,112.364674 C150.088923,110.646403 148.696991,109.254471 146.980941,109.254471 Z" id="Shape" fill="#E4EAF8" fill-rule="nonzero"></path>
                        <path d="M132.604301,120.394369 L132.604301,112.364674 C132.604301,110.646403 133.996233,109.254471 135.714503,109.254471 L122.381258,109.254471 C120.665207,109.254471 119.271055,110.646403 119.271055,112.364674 L119.271055,120.394369 C119.271055,122.11264 120.662987,123.504571 122.381258,123.504571 L135.714503,123.504571 C133.998453,123.504571 132.604301,122.11264 132.604301,120.394369 Z" id="Shape" fill="#D8DCE5" fill-rule="nonzero"></path>
                        <path d="M67.7229422,83.3694149 C48.4112703,83.3694149 32.7559175,99.0247682 32.7559175,118.33644 L32.7559175,132.566561 C35.0935644,130.399853 38.8586634,129.223259 42.1020651,129.656157 L42.1020651,127.913467 C42.1020651,126.528195 43.2853184,125.435961 44.657271,125.53808 C58.176996,126.510435 71.4947013,122.214759 81.8975636,115.419377 C82.867698,114.78446 84.1552908,114.942079 84.9433866,115.790115 C93.8366567,125.349381 93.3438198,124.980863 93.3438198,126.228496 L93.3438198,129.649497 C96.9002396,129.1167 100.49662,130.215594 102.687748,132.253543 L102.687748,118.33644 C102.687748,99.0247682 87.0346146,83.3694149 67.7229422,83.3694149 Z" id="Shape" fill="#576574" fill-rule="nonzero"></path>
                        <path d="M49.0239868,118.33644 C49.0239868,101.826392 60.4680232,87.9980896 75.854757,84.33067 C73.2440515,83.7090735 70.5245668,83.3694149 67.7229422,83.3694149 C48.4090504,83.3694149 32.7559175,99.0247682 32.7559175,118.33644 L32.7559175,132.566561 C35.0935644,130.399853 38.8564435,129.223259 42.1020651,129.656157 L42.1020651,127.913467 C42.1020651,126.528195 43.2853184,125.433741 44.657271,125.53808 C46.1158028,125.64242 47.5721146,125.68238 49.0217664,125.669059 L49.0217664,118.33644 L49.0239868,118.33644 Z" id="Shape" fill="#3E4B5A" fill-rule="nonzero"></path>
                        <path d="M93.7123374,128.270885 L93.7123374,147.538158 C93.7123374,147.746836 93.7012376,147.953295 93.6967979,148.159754 C100.514379,149.192048 105.85345,144.265896 105.85345,138.216429 C105.85345,132.155863 100.50994,127.25413 93.7123374,128.270885 L93.7123374,128.270885 Z" id="Shape" fill="#FFBEAB" fill-rule="nonzero"></path>
                        <path d="M41.9022665,147.666917 L41.9022665,128.142125 C35.88388,127.33849 29.5924347,131.956064 29.5924347,138.216429 C29.5924347,144.341375 34.9936651,149.345227 41.917806,148.297393 C41.9133663,148.086494 41.9022665,147.877816 41.9022665,147.666917 Z" id="Shape" fill="#FFBEAB" fill-rule="nonzero"></path>
                        <path d="M102.705507,130.92377 C100.49884,128.852521 97.3109372,127.733648 93.7123374,128.273105 L93.7123374,147.538158 C93.7123374,147.746836 93.7012376,147.953295 93.6967979,148.161974 C97.3042777,148.708091 100.49662,147.584777 102.705507,145.511309 L102.705507,130.92377 Z" id="Shape" fill="#F7AF9F" fill-rule="nonzero"></path>
                        <path d="M41.9022665,145.724427 C39.8354579,143.846318 38.5833849,141.162353 38.5833849,138.216429 C38.5833849,135.354866 39.8998374,132.83962 41.9022665,131.025889 L41.9022665,128.142125 C35.88388,127.33849 29.5924347,131.956064 29.5924347,138.216429 C29.5924347,144.341375 34.9936651,149.345227 41.917806,148.297393 C41.9133663,148.086494 41.9022665,147.877816 41.9022665,147.666917 L41.9022665,145.724427 Z" id="Shape" fill="#F7AF9F" fill-rule="nonzero"></path>
                        <path d="M68.0959001,172.293239 C62.4460317,172.293239 57.4821394,170.741468 53.4217822,168.146303 L53.4217822,181.777026 L68.0315206,199.812206 L82.6434794,181.777026 L82.6434794,167.760025 C78.5032021,170.614929 73.4926901,172.293239 68.0959001,172.293239 Z" id="Shape" fill="#FFBEAB" fill-rule="nonzero"></path>
                        <path d="M69.6876316,172.23774 C69.1614941,172.27104 68.6309175,172.291019 68.0959001,172.291019 C62.4460317,172.291019 57.4821394,170.741468 53.4217822,168.146303 L53.4217822,181.774806 L68.0315206,199.809986 L69.6876316,197.765377 L69.6876316,172.23774 Z" id="Shape" fill="#F7AF9F" fill-rule="nonzero"></path>
                        <path d="M121.295684,195.865068 L82.6434794,180.895691 L68.0315206,198.930871 L53.4217822,180.895691 L14.8095376,195.865068 C14.8095376,195.865068 0.515037129,201.743595 0.515037129,218.040524 L0.515037129,281.973948 C0.515037129,284.604633 2.64622525,286.738041 5.27691044,286.738041 L130.828311,286.738041 C133.458996,286.738041 135.592404,284.604633 135.592404,281.973948 C135.592404,270.061494 135.592404,232.785682 135.592404,218.040524 C135.590184,201.743595 121.295684,195.865068 121.295684,195.865068 Z" id="Shape" fill="#E4EAF8" fill-rule="nonzero"></path>
                        <g id="Group" stroke-width="1" fill="none" fill-rule="evenodd" transform="translate(0.000000, 180.724752)">
                            <path d="M16.7808866,101.249196 C16.7808866,89.3367417 16.7808866,45.0124691 16.7808866,30.2650911 C16.7808866,19.5403308 22.9724319,13.3288057 27.2059485,10.3340425 L14.8095376,15.1403156 C14.8095376,15.1403156 0.512817283,21.0188428 0.512817283,37.3157718 L0.512817283,101.249196 C0.512817283,103.879881 2.64622525,106.013289 5.27691044,106.013289 L21.5449797,106.013289 C18.9142946,106.013289 16.7808866,103.879881 16.7808866,101.249196 Z" id="Shape" fill="#D8DCE5" fill-rule="nonzero"></path>
                            <path d="M85.6737624,27.4745668 L96.5983213,5.57660891 L82.6434794,0.170938905 L68.0315206,18.2061184 L82.2771816,28.3226024 C83.4293547,29.1417777 85.041066,28.7377396 85.6737624,27.4745668 L85.6737624,27.4745668 Z" id="Shape" fill="#D8DCE5" fill-rule="nonzero"></path>
                            <path d="M50.411479,27.4745668 L39.48692,5.57660891 L53.4417619,0.170938905 L68.0537207,18.2061184 L53.8080603,28.3226024 C52.6536667,29.1417777 51.0419554,28.7377396 50.411479,27.4745668 L50.411479,27.4745668 Z" id="Shape" fill="#D8DCE5" fill-rule="nonzero"></path>
                        </g>
                        <polygon id="Shape" fill="#EE5253" fill-rule="nonzero" points="68.0515009 198.944191 68.0515009 198.930871 68.0426204 198.937531 68.033741 198.930871 68.033741 198.944191 57.6730586 206.30345 62.570351 213.673809 73.5148903 213.673809 78.4121827 206.30345"></polygon>
                        <path d="M82.892118,269.07582 L73.5148903,213.673809 L62.570351,213.673809 L53.1931233,269.07582 C53.0954439,269.790656 53.304123,270.514372 53.7503403,271.007209 L68.033741,286.718061 L68.033741,286.738041 L68.0426204,286.729162 L68.0515009,286.738041 L68.0515009,286.718061 L82.334901,271.007209 C82.7811184,270.514372 82.9897975,269.790656 82.892118,269.07582 Z" id="Shape" fill="#FF6B6B" fill-rule="nonzero"></path>
                        <path d="M72.1029782,205.295575 L74.5494043,203.559545 L68.0515009,198.944191 L68.0515009,198.930871 L68.0426204,198.937531 L68.033741,198.930871 L68.033741,198.944191 L57.6730586,206.30345 L62.570351,213.673809 L73.5148903,213.673809 L74.5494043,212.115377 L71.6501007,207.750882 C71.1128634,206.942806 71.3148824,205.857232 72.1029782,205.295575 L72.1029782,205.295575 Z" id="Shape" fill="#D83941" fill-rule="nonzero"></path>
                        <path d="M66.206691,269.07582 L74.5494043,219.785435 L73.5148903,213.673809 L62.570351,213.673809 L53.1931233,269.07582 C53.093224,269.790656 53.304123,270.514372 53.7503403,271.007209 L68.033741,286.720281 L68.033741,286.738041 L68.0426204,286.729162 L68.0515009,286.738041 L68.0515009,286.720281 L74.5494043,279.571922 L66.7639075,271.007209 C66.3176901,270.514372 66.1090116,269.790656 66.206691,269.07582 L66.206691,269.07582 Z" id="Shape" fill="#EE5253" fill-rule="nonzero"></path>
                        <path d="M84.9433866,114.471442 C84.1552908,113.623407 82.867698,113.463568 81.8975636,114.098484 C71.4947013,120.896086 57.7374381,125.191762 44.2177138,124.219408 C42.8457611,124.115068 41.6625079,125.209522 41.6625079,126.594794 L41.6625079,147.482658 C41.6625079,160.909143 52.1830288,173.172355 68.0959001,173.172355 C82.2594217,173.172355 93.783377,161.648399 93.783377,147.482658 L93.783377,124.907604 C93.783377,123.659971 93.8366567,124.030709 84.9433866,114.471442 Z" id="Shape" fill="#FFCDBF" fill-rule="nonzero"></path>
                        <path d="M57.9305772,147.482658 L57.9305772,123.493472 C53.4262219,124.270467 48.8086476,124.547966 44.2177138,124.219408 C42.8457611,124.115068 41.6625079,125.209522 41.6625079,126.594794 L41.6625079,147.482658 C41.6625079,160.909143 52.1830288,173.172355 68.0959001,173.172355 C70.8398054,173.172355 73.4815903,172.735017 75.9635362,171.933601 C64.8547187,168.49928 57.9305772,158.376137 57.9305772,147.482658 Z" id="Shape" fill="#FFBEAB" fill-rule="nonzero"></path>
                        <path d="M202.64935,83.3694149 C183.337678,83.3694149 167.682325,99.0247682 167.682325,118.33644 L167.682325,132.566561 C170.019972,130.399853 173.785071,129.223259 177.030693,129.656157 L177.030693,127.913467 C177.030693,126.528195 178.211726,125.435961 179.583679,125.53808 C193.103403,126.510435 206.421109,122.214759 216.823971,115.419377 C217.796326,114.78446 219.081699,114.942079 219.869794,115.790115 C228.763065,125.349381 228.270227,124.980863 228.270227,126.228496 L228.270227,129.649497 C231.828868,129.1167 235.423028,130.215594 237.616375,132.253543 L237.616375,118.33644 C237.616375,99.0247682 221.961023,83.3694149 202.64935,83.3694149 Z" id="Shape" fill="#764E18" fill-rule="nonzero"></path>
                        <path d="M183.950394,118.33644 C183.950394,101.826392 195.394431,87.9980896 210.783385,84.33067 C208.17046,83.7090735 205.450974,83.3694149 202.64935,83.3694149 C183.337678,83.3694149 167.682325,99.0247682 167.682325,118.33644 L167.682325,132.566561 C170.019972,130.399853 173.782851,129.223259 177.028473,129.656157 L177.028473,127.913467 C177.028473,126.528195 178.211726,125.433741 179.583679,125.53808 C181.042211,125.64242 182.498523,125.68238 183.950394,125.669059 L183.950394,118.33644 Z" id="Shape" fill="#644316" fill-rule="nonzero"></path>
                        <path d="M228.638746,128.270885 L228.638746,147.538158 C228.638746,147.746836 228.627645,147.953295 228.623205,148.159754 C235.440788,149.192048 240.782078,144.265896 240.782078,138.216429 C240.782078,132.155863 235.436347,127.25413 228.638746,128.270885 L228.638746,128.270885 Z" id="Shape" fill="#F0C087" fill-rule="nonzero"></path>
                        <path d="M176.828674,147.666917 L176.828674,128.142125 C170.810288,127.33849 164.518843,131.956064 164.518843,138.216429 C164.518843,144.341375 169.920073,149.345227 176.844214,148.297393 C176.839774,148.086494 176.828674,147.877816 176.828674,147.666917 Z" id="Shape" fill="#F0C087" fill-rule="nonzero"></path>
                        <path d="M237.631915,130.92377 C235.425248,128.852521 232.237345,127.733648 228.638746,128.273105 L228.638746,147.538158 C228.638746,147.746836 228.627645,147.953295 228.623205,148.161974 C232.230685,148.708091 235.423028,147.584777 237.631915,145.511309 L237.631915,130.92377 Z" id="Shape" fill="#F0C087" fill-rule="nonzero"></path>
                        <path d="M176.828674,145.724427 C174.761865,143.846318 173.509793,141.162353 173.509793,138.216429 C173.509793,135.354866 174.826246,132.83962 176.828674,131.025889 L176.828674,128.142125 C170.810288,127.33849 164.518843,131.956064 164.518843,138.216429 C164.518843,144.341375 169.920073,149.345227 176.844214,148.297393 C176.839774,148.086494 176.828674,147.877816 176.828674,147.666917 L176.828674,145.724427 Z" id="Shape" fill="#F0C087" fill-rule="nonzero"></path>
                        <path d="M203.022308,172.293239 C197.37244,172.293239 192.408547,170.741468 188.34819,168.146303 L188.34819,181.777026 L202.957929,199.812206 L217.569887,181.777026 L217.569887,167.760025 C213.42961,170.614929 208.419098,172.293239 203.022308,172.293239 Z" id="Shape" fill="#E6AF78" fill-rule="nonzero"></path>
                        <path d="M204.616259,172.23774 C204.087902,172.27104 203.557325,172.291019 203.022308,172.291019 C197.37244,172.291019 192.408547,170.741468 188.34819,168.146303 L188.34819,181.774806 L202.957929,199.809986 L204.616259,197.765377 L204.616259,172.23774 Z" id="Shape" fill="#D29B6E" fill-rule="nonzero"></path>
                        <path d="M256.222092,195.865068 L217.569887,180.895691 L202.957929,198.930871 L188.34819,180.895691 L149.735945,195.865068 C149.735945,195.865068 135.441445,201.743595 135.441445,218.040524 L135.441445,281.973948 C135.441445,284.604633 137.572633,286.738041 140.205538,286.738041 L265.754719,286.738041 C268.385404,286.738041 270.518812,284.604633 270.518812,281.973948 C270.518812,270.061494 270.518812,232.785682 270.518812,218.040524 C270.518812,201.743595 256.222092,195.865068 256.222092,195.865068 L256.222092,195.865068 Z" id="Shape" fill="#E4EAF8" fill-rule="nonzero"></path>
                        <path d="M151.707294,281.973948 C151.707294,270.061494 151.707294,225.737222 151.707294,210.989844 C151.707294,200.265083 157.89884,194.053558 162.132356,191.058795 L149.735945,195.865068 C149.735945,195.865068 135.439225,201.743595 135.439225,218.040524 L135.439225,281.973948 C135.439225,284.604633 137.572633,286.738041 140.203319,286.738041 L156.471388,286.738041 C153.840702,286.738041 151.707294,284.604633 151.707294,281.973948 Z" id="Shape" fill="#D8DCE5" fill-rule="nonzero"></path>
                        <path d="M220.60017,208.199319 L231.524729,186.301361 L217.569887,180.895691 L202.957929,198.930871 L217.203589,209.047355 C218.355763,209.86653 219.969694,209.462492 220.60017,208.199319 L220.60017,208.199319 Z" id="Shape" fill="#D8DCE5" fill-rule="nonzero"></path>
                        <path d="M185.337887,208.199319 L174.413328,186.301361 L188.36817,180.895691 L202.980128,198.930871 L188.734468,209.047355 C187.580074,209.86653 185.968363,209.462492 185.337887,208.199319 L185.337887,208.199319 Z" id="Shape" fill="#D8DCE5" fill-rule="nonzero"></path>
                        <polygon id="Shape" fill="#515262" fill-rule="nonzero" points="202.977908 198.944191 202.977908 198.930871 202.969028 198.937531 202.960149 198.930871 202.960149 198.944191 192.599466 206.30345 197.496759 213.673809 208.441298 213.673809 213.338591 206.30345"></polygon>
                        <path d="M217.818526,269.07582 L208.441298,213.673809 L197.496759,213.673809 L188.119531,269.07582 C188.021852,269.790656 188.23053,270.514372 188.676748,271.007209 L202.960149,286.718061 L202.960149,286.738041 L202.969028,286.729162 L202.977908,286.738041 L202.977908,286.718061 L217.261309,271.007209 C217.707526,270.514372 217.916205,269.790656 217.818526,269.07582 L217.818526,269.07582 Z" id="Shape" fill="#5B5D6E" fill-rule="nonzero"></path>
                        <path d="M207.029386,205.295575 L209.475812,203.559545 L202.977908,198.944191 L202.977908,198.930871 L202.969028,198.937531 L202.960149,198.930871 L202.960149,198.944191 L192.599466,206.30345 L197.496759,213.673809 L208.441298,213.673809 L209.475812,212.115377 L206.576508,207.750882 C206.039271,206.942806 206.241291,205.857232 207.029386,205.295575 L207.029386,205.295575 Z" id="Shape" fill="#5B5D6E" fill-rule="nonzero"></path>
                        <path d="M201.133099,269.07582 L209.475812,219.785435 L208.441298,213.673809 L197.496759,213.673809 L188.119531,269.07582 C188.019632,269.790656 188.23053,270.514372 188.676748,271.007209 L202.960149,286.720281 L202.960149,286.738041 L202.969028,286.729162 L202.977908,286.738041 L202.977908,286.720281 L209.475812,279.571922 L201.690316,271.007209 C201.244098,270.514372 201.035419,269.790656 201.133099,269.07582 L201.133099,269.07582 Z" id="Shape" fill="#515262" fill-rule="nonzero"></path>
                        <path d="M219.869794,114.471442 C219.081699,113.623407 217.796326,113.463568 216.823971,114.098484 C206.421109,120.896086 192.663846,125.191762 179.144121,124.219408 C177.772169,124.115068 176.588915,125.209522 176.588915,126.594794 L176.588915,147.482658 C176.588915,160.909143 187.109437,173.172355 203.022308,173.172355 C217.185829,173.172355 228.709785,161.648399 228.709785,147.482658 L228.709785,124.907604 C228.709785,123.659971 228.763065,124.030709 219.869794,114.471442 Z" id="Shape" fill="#F0C087" fill-rule="nonzero"></path>
                        <path d="M192.856985,147.482658 L192.856985,123.493472 C188.35263,124.270467 183.735056,124.547966 179.144121,124.219408 C177.772169,124.115068 176.588915,125.209522 176.588915,126.594794 L176.588915,147.482658 C176.588915,160.909143 187.109437,173.172355 203.022308,173.172355 C205.766213,173.172355 208.407998,172.735017 210.889944,171.933601 C199.781126,168.49928 192.856985,158.376137 192.856985,147.482658 L192.856985,147.482658 Z" id="Shape" fill="#E6AF78" fill-rule="nonzero"></path>
                        <path d="M181.888026,66.2177908 L192.288668,66.2177908 C194.644075,66.2177908 196.551044,64.3086015 196.551044,61.9531948 C196.551044,59.6000079 194.644075,57.6908185 192.288668,57.6908185 L181.888026,57.6908185 C179.534839,57.6908185 177.62565,59.6000079 177.62565,61.9531948 C177.62565,64.3086015 179.534839,66.2177908 181.888026,66.2177908 Z" id="Shape" fill="#FECA57" fill-rule="nonzero"></path>
                        <path d="M87.3054534,57.6908185 L76.904811,57.6908185 C74.5494043,57.6908185 72.6424347,59.6000079 72.6424347,61.9531948 C72.6424347,64.3086015 74.5494043,66.2177908 76.904811,66.2177908 L87.3054534,66.2177908 C89.6586403,66.2177908 91.5678297,64.3086015 91.5678297,61.9531948 C91.5678297,59.6000079 89.6586403,57.6908185 87.3054534,57.6908185 Z" id="Shape" fill="#FECA57" fill-rule="nonzero"></path>
                        <path d="M104.170699,31.5282639 C105.83569,29.8632735 105.83569,27.1637686 104.170699,25.4987781 L96.8158804,18.1461791 C95.1531098,16.4811881 92.4536049,16.4811881 90.7886139,18.1461791 C89.1236229,19.8111696 89.1236229,22.5106745 90.7886139,24.1756649 L98.1434327,31.5282639 C99.8062039,33.1910351 102.505709,33.193255 104.170699,31.5282639 Z" id="Shape" fill="#FECA57" fill-rule="nonzero"></path>
                        <path d="M138.860226,14.6630181 L138.860226,4.26237624 C138.860226,1.90918936 136.951036,0 134.59785,0 C132.242443,0 130.335474,1.90918936 130.335474,4.26237624 L130.335474,14.6630181 C130.335474,17.016205 132.242443,18.9253944 134.59785,18.9253944 C136.951036,18.9253944 138.860226,17.016205 138.860226,14.6630181 Z" id="Shape" fill="#FECA57" fill-rule="nonzero"></path>
                        <path d="M178.404866,18.1461791 C176.739875,16.4811881 174.04259,16.4811881 172.377599,18.1461791 L165.02278,25.4987781 C163.360009,27.1637686 163.360009,29.8632735 165.02278,31.5282639 C166.689991,33.193255 169.387276,33.193255 171.052267,31.5282639 L178.404866,24.1734451 C180.069856,22.5084547 180.069856,19.8111696 178.404866,18.1461791 L178.404866,18.1461791 Z" id="Shape" fill="#FECA57" fill-rule="nonzero"></path>
                    </g>
                </g>
            </g>
        </g>
    </g>
</svg>