<?xml version="1.0" encoding="UTF-8"?>
<svg width="200px" height="34px" viewBox="0 0 200 34" version="1.1" xmlns="http://www.w3.org/2000/svg" xmlns:xlink="http://www.w3.org/1999/xlink">
    <!-- Generator: Sketch 47.1 (45422) - http://www.bohemiancoding.com/sketch -->
    <title>zakon-partner-logo</title>
    <desc>Created with Sketch.</desc>
    <defs></defs>
    <g id="Page-1" stroke="none" stroke-width="1" fill="none" fill-rule="evenodd">
        <g id="2-1-projects" transform="translate(-229.000000, -729.000000)">
            <g id="zakon-partner-logo" transform="translate(229.000000, 729.000000)">
                <path d="M12.2185127,4.26336552 L20.9922896,4.26336552 L20.9922896,3.52748046 L20.9922896,3.51145747 L20.9922896,3.49543448 C20.9828963,3.1655954 20.8427789,2.86467586 20.6239922,2.64621609 C20.3981605,2.42072184 20.0846575,2.27885977 19.741409,2.27885977 L13.469002,2.27885977 C13.1257534,2.27885977 12.8126419,2.42072184 12.5864188,2.64621609 C12.3676321,2.86467586 12.2275147,3.1655954 12.2185127,3.49543448 L12.2185127,3.51145747 L12.2185127,3.52748046 L12.2185127,4.26336552 Z M21.8854403,3.50012414 L21.8854403,3.52748046 L21.8854403,4.70927356 L21.8854403,5.15557241 L21.8854403,6.09623908 L21.8854403,6.54214713 L21.438865,6.54214713 L11.7719374,6.54214713 L11.325362,6.54214713 L11.325362,6.09623908 L11.325362,5.15557241 L11.325362,4.70927356 L11.325362,3.52748046 L11.325362,3.50012414 L11.325362,2.14051494 C11.325362,1.5507908 11.5672407,1.01421609 11.9539335,0.628101149 C12.3406262,0.241595402 12.8787867,7.81609195e-05 13.469002,7.81609195e-05 L19.741409,7.81609195e-05 C20.3320157,7.81609195e-05 20.8697847,0.241595402 21.2564775,0.628101149 C21.6431703,1.01421609 21.8854403,1.5507908 21.8854403,2.14051494 L21.8854403,3.50012414 Z" id="Fill-1" fill="#2A1112"></path>
                <path d="M13.4691194,0.929333333 L19.7415264,0.929333333 C20.1794912,0.929333333 20.587319,1.0622069 20.927045,1.28770115 C20.8644227,1.10245977 20.7591389,0.936367816 20.6241096,0.801931034 C20.3982779,0.576045977 20.0843836,0.434183908 19.7415264,0.434183908 L13.4691194,0.434183908 C13.1258708,0.434183908 12.8127593,0.576045977 12.5865362,0.801931034 C12.4518982,0.936367816 12.3462231,1.10245977 12.2836008,1.28770115 C12.6233268,1.0622069 13.031546,0.929333333 13.4691194,0.929333333" id="Fill-3" fill="#A61E22"></path>
                <path d="M31.9417221,3.27111264 C32.8297847,3.27111264 33.5562035,4.01754943 33.5562035,4.92304368 L33.5562035,12.652377 C33.5562035,13.5566989 32.8473973,14.0608368 31.9417221,14.304308 L16.7777299,18.3749287 L1.61412916,14.304308 C0.708454012,14.0608368 3.91389432e-05,13.5566989 3.91389432e-05,12.652377 L3.91389432e-05,4.92304368 C3.91389432e-05,4.01754943 0.726066536,3.27111264 1.61412916,3.27111264 L31.9417221,3.27111264 Z" id="Fill-5" fill="#D92226"></path>
                <path d="M16.6506849,18.375046 L1.61428571,14.3384253 C0.708610568,14.094954 0.000195694716,13.5908161 0.000195694716,12.6864943 L0.000195694716,4.95716092 C0.000195694716,4.05166667 0.725831703,3.30522989 1.61428571,3.30522989 L16.6506849,3.30522989 L16.6506849,18.375046 Z" id="Fill-7" fill="#F17323"></path>
                <path d="M32.7380431,13.9203425 L32.7380431,24.4138368 C32.7380431,30.1942276 18.8609393,31.6519287 16.7779648,33.9404805 C14.6949902,31.6519287 0.818277886,30.1954 0.818277886,24.4138368 L0.818277886,13.9203425 C0.931389432,13.961377 1.05037182,13.9977218 1.17287671,14.0297678 L16.7129941,18.1007793 L32.3834442,14.0297678 C32.5055577,13.9977218 32.6245401,13.961377 32.7380431,13.9203425" id="Fill-9" fill="#D92226"></path>
                <path d="M16.7780431,33.9078092 C14.4931115,31.6563839 0.88332681,30.1724989 0.88332681,24.4464299 L0.88332681,13.9529356 C0.996829746,13.9943609 1.11542074,14.0307057 1.23792564,14.0627517 L16.7780431,18.1337632 L16.7780431,33.9078092 Z" id="Fill-11" fill="#EF4E23"></path>
                <polygon id="Fill-13" fill="#A8632D" points="16.7388258 18.2831287 0.818277886 14.0956575 0.809667319 13.8033356 16.8174951 17.9841632"></polygon>
                <polygon id="Fill-15" fill="#A8632D" points="16.94818 18.2831287 16.8695108 17.9841632 32.7380039 13.8103701 32.7380039 14.1300483"></polygon>
                <path d="M18.5680235,17.3644644 C18.5680235,17.2265103 18.5245793,17.0998897 18.452955,17.0084414 L18.4533464,17.007269 C18.3828963,16.9166023 18.2838748,16.8595448 18.1758513,16.8595448 L15.1281018,16.8595448 C15.0192955,16.8595448 14.9214481,16.9166023 14.850998,17.007269 L14.8517808,17.0084414 C14.7801566,17.0998897 14.7363209,17.2265103 14.7363209,17.3644644 L14.7363209,19.2399356 C14.7363209,19.3778897 14.7805479,19.505292 14.8517808,19.5967402 L14.850998,19.597131 C14.9214481,19.6881885 15.0192955,19.7448552 15.1281018,19.7448552 L18.1758513,19.7448552 C18.2838748,19.7448552 18.3828963,19.6881885 18.4533464,19.597131 L18.452955,19.5967402 C18.5241879,19.505292 18.5680235,19.3778897 18.5680235,19.2399356 L18.5680235,17.3644644 Z" id="Fill-17" fill="#E3B123"></path>
                <path d="M14.7363209,18.3021609 L18.5680235,18.3021609 L18.5680235,17.3646207 C18.5680235,17.2266667 18.5245793,17.0996552 18.452955,17.0082069 L18.4533464,17.0070345 C18.3828963,16.9163678 18.2838748,16.8593103 18.1758513,16.8593103 L15.1281018,16.8593103 C15.0192955,16.8593103 14.9214481,16.9163678 14.850998,17.0070345 L14.8517808,17.0082069 C14.7801566,17.0996552 14.7363209,17.2266667 14.7363209,17.3646207 L14.7363209,18.3021609 Z" id="Fill-19" fill="#D88C28"></path>
                <path d="M58.0169863,15.907154 C59.9297065,16.7809931 60.3676712,18.1613149 60.3676712,19.8183264 C60.3676712,23.0158897 58.3163992,24.8104644 53.8467319,24.8104644 C49.8373386,24.8104644 47.4416438,23.3609701 46.4737378,20.7847862 C46.2436008,20.1169011 46.4048532,19.7718207 47.096047,19.5420276 L49.354364,18.7365793 C50.0451663,18.4833379 50.3449706,18.6443494 50.5978082,19.3579586 C50.9899804,20.3474759 51.9113112,20.8535678 53.4784344,20.8535678 C55.0674755,20.8535678 55.575499,20.4158667 55.575499,19.4963034 C55.575499,18.5298437 55.1371429,18.1382575 54.1465362,18.1382575 L51.9571037,18.1382575 C51.2201174,18.1382575 50.9664971,17.8857977 50.9664971,17.1717977 L50.9664971,15.263108 C50.9664971,14.5264414 51.2201174,14.2735908 51.9571037,14.2735908 L53.7782387,14.2735908 C54.7222701,14.2735908 55.1829354,13.9285103 55.1829354,13.0081655 C55.1829354,12.1339356 54.5837182,11.7423494 53.3856751,11.7423494 C51.8882192,11.7423494 51.058865,12.2027172 50.6674755,13.2379586 C50.3907632,13.9515678 50.1140509,14.0899126 49.4228571,13.8593379 L47.1418395,13.0538897 C46.4737378,12.8240966 46.2893933,12.4790161 46.5426223,11.8119126 C47.4874364,9.23494713 49.8142466,7.78545287 53.8240313,7.78545287 C57.7410568,7.78545287 59.8142466,9.39595862 59.8142466,12.5708552 C59.8142466,14.2040276 59.2385127,15.2400506 58.0169863,15.907154" id="Fill-21" fill="#DD2F26"></path>
                <path d="M67.1837573,15.0330805 L67.0048924,15.0330805 C67.0048924,15.0330805 67.0232877,16.3184368 66.6651663,17.5146897 L66.0037182,19.6211264 L68.2389432,19.6211264 L67.5771037,17.5322759 C67.2193738,16.3184368 67.1837573,15.0330805 67.1837573,15.0330805 M72.7254403,24.4581149 L70.7951076,24.4581149 C69.8655577,24.4581149 69.5966732,24.261931 69.4545988,23.7089425 L69.0424658,22.4235862 L65.1818004,22.4235862 L64.7708415,23.7089425 C64.5919765,24.261931 64.3594912,24.4581149 63.4651663,24.4581149 L61.5888454,24.4581149 C61.0338552,24.4581149 60.9273973,24.208 61.1054795,23.7261379 L65.2174168,12.4092184 C65.3962818,11.8917931 65.6287671,11.7843218 66.1469667,11.7843218 L68.1845401,11.7843218 C68.7031311,11.7843218 68.9360078,11.9089885 69.11409,12.3736552 L73.2436399,23.7261379 C73.4225049,24.208 73.2620352,24.4581149 72.7254403,24.4581149" id="Fill-23" fill="#DD2F26"></path>
                <path d="M84.946771,24.4494391 L83.0164384,24.4494391 C82.0684932,24.4494391 81.7291585,24.3247724 81.4254403,23.6998759 L79.8700587,20.5046575 C79.583953,19.9329103 79.3334638,19.6124506 78.6544031,19.6124506 L78.332681,19.6124506 L78.332681,23.6998759 C78.332681,24.2532552 78.1534247,24.4494391 77.5819961,24.4494391 L75.5616438,24.4494391 C74.9902153,24.4494391 74.792955,24.2532552 74.792955,23.6998759 L74.792955,12.5252092 C74.792955,11.9718299 74.9902153,11.775646 75.5616438,11.775646 L77.5819961,11.775646 C78.1534247,11.775646 78.332681,11.9718299 78.332681,12.5252092 L78.332681,16.4883586 L78.7260274,16.4883586 L81.3005871,12.4361057 C81.6399217,11.8831172 81.8007828,11.775646 82.7299413,11.775646 L84.7863014,11.775646 C85.3228963,11.775646 85.5009785,12.0972782 85.2156556,12.5607724 L81.9612524,17.7377609 C82.409002,18.0593931 82.7483366,18.505692 83.0520548,19.1122207 L85.4117417,23.5744276 C85.6622309,24.0562897 85.5365949,24.4494391 84.946771,24.4494391" id="Fill-25" fill="#DD2F26"></path>
                <path d="M92.0479452,14.6409471 C90.7962818,14.6409471 90.0816047,15.2298897 90.0816047,16.3542345 L90.0816047,19.8886713 C90.0816047,21.0134069 90.7962818,21.6015678 92.0479452,21.6015678 C93.2819961,21.6015678 93.9966732,21.0134069 93.9966732,19.8886713 L93.9966732,16.3542345 C93.9966732,15.2298897 93.2819961,14.6409471 92.0479452,14.6409471 M92.0479452,11.5168552 C95.5700587,11.5168552 97.5363992,13.427108 97.5363992,16.5144644 L97.5363992,19.7280506 C97.5363992,22.8154069 95.5700587,24.7256598 92.0479452,24.7256598 C88.5082192,24.7256598 86.5418787,22.8154069 86.5418787,19.7280506 L86.5418787,16.5144644 C86.5418787,13.427108 88.5082192,11.5168552 92.0479452,11.5168552" id="Fill-27" fill="#DD2F26"></path>
                <path d="M110.275616,12.5338851 L110.275616,23.7085517 C110.275616,24.261931 110.079139,24.4581149 109.524932,24.4581149 L107.486575,24.4581149 C106.932368,24.4581149 106.73589,24.261931 106.73589,23.7085517 L106.73589,19.6027586 L103.267789,19.6027586 L103.267789,23.7085517 C103.267789,24.261931 103.088924,24.4581149 102.517104,24.4581149 L100.497143,24.4581149 C99.9253229,24.4581149 99.7280626,24.261931 99.7280626,23.7085517 L99.7280626,12.5338851 C99.7280626,11.9629195 99.9253229,11.7671264 100.497143,11.7671264 L102.517104,11.7671264 C103.088924,11.7671264 103.267789,11.9629195 103.267789,12.5338851 L103.267789,16.4786667 L106.73589,16.4786667 L106.73589,12.5338851 C106.73589,11.9629195 106.932368,11.7671264 107.486575,11.7671264 L109.524932,11.7671264 C110.079139,11.7671264 110.275616,11.9629195 110.275616,12.5338851" id="Fill-29" fill="#DD2F26"></path>
                <path d="M126.280939,9.09683678 L126.280939,23.4991586 C126.280939,24.2119862 126.02771,24.4656184 125.313033,24.4656184 L122.686419,24.4656184 C121.972524,24.4656184 121.718513,24.2119862 121.718513,23.4991586 L121.718513,12.1568368 L117.364305,12.1568368 L117.364305,23.4991586 C117.364305,24.2119862 117.133386,24.4656184 116.396399,24.4656184 L113.792877,24.4656184 C113.05589,24.4656184 112.801879,24.2119862 112.801879,23.4991586 L112.801879,9.09683678 C112.801879,8.3840092 113.05589,8.13037701 113.792877,8.13037701 L125.313033,8.13037701 C126.02771,8.13037701 126.280939,8.3840092 126.280939,9.09683678" id="Fill-31" fill="#EF4E23"></path>
                <path d="M134.172955,14.8606575 L133.99409,14.8606575 C133.99409,14.8606575 134.012094,16.1471862 133.653973,17.3446115 L132.992133,19.4526115 L135.228924,19.4526115 L134.567084,17.3621977 C134.208571,16.1471862 134.172955,14.8606575 134.172955,14.8606575 M139.719726,24.2942897 L137.787436,24.2942897 C136.857104,24.2942897 136.588219,24.0981057 136.445753,23.5439448 L136.03362,22.2578069 L132.169041,22.2578069 L131.757691,23.5439448 C131.578826,24.0981057 131.346341,24.2942897 130.451233,24.2942897 L128.572955,24.2942897 C128.017573,24.2942897 127.911115,24.0437839 128.089198,23.561531 L132.205049,12.2344506 C132.383914,11.7162437 132.616399,11.6091632 133.135382,11.6091632 L135.174912,11.6091632 C135.693503,11.6091632 135.926771,11.7338299 136.105245,12.1988874 L140.238317,23.561531 C140.417573,24.0437839 140.256712,24.2942897 139.719726,24.2942897" id="Fill-33" fill="#EF4E23"></path>
                <path d="M148.096243,16.049446 C148.096243,15.2627563 147.595656,14.727354 146.75456,14.727354 L144.983131,14.727354 L144.983131,17.3531701 L146.75456,17.3531701 C147.595656,17.3531701 148.096243,16.835354 148.096243,16.049446 M151.765127,16.0666414 C151.765127,18.8902046 149.957691,20.4799977 147.184305,20.4799977 L144.983131,20.4799977 L144.983131,23.535308 C144.983131,24.0890782 144.804266,24.2852621 144.232055,24.2852621 L142.209746,24.2852621 C141.637926,24.2852621 141.440274,24.0890782 141.440274,23.535308 L141.440274,12.3504805 C141.440274,11.7967103 141.637926,11.6005264 142.209746,11.6005264 L147.148689,11.6005264 C149.939295,11.6005264 151.765127,13.2262736 151.765127,16.0666414" id="Fill-35" fill="#EF4E23"></path>
                <path d="M163.27456,12.3592345 L163.27456,13.9673954 C163.27456,14.5395333 163.077299,14.736108 162.505088,14.736108 L159.856556,14.736108 L159.856556,23.5440621 C159.856556,24.0978322 159.660078,24.2940161 159.087084,24.2940161 L157.065949,24.2940161 C156.492955,24.2940161 156.313699,24.0978322 156.313699,23.5440621 L156.313699,14.736108 L153.647945,14.736108 C153.075734,14.736108 152.896477,14.5395333 152.896477,13.9673954 L152.896477,12.3592345 C152.896477,11.8054644 153.075734,11.6092805 153.647945,11.6092805 L162.505088,11.6092805 C163.077299,11.6092805 163.27456,11.8054644 163.27456,12.3592345" id="Fill-37" fill="#EF4E23"></path>
                <path d="M175.644384,12.3592345 L175.644384,23.5440621 C175.644384,24.0978322 175.447906,24.2940161 174.893307,24.2940161 L172.852603,24.2940161 C172.298004,24.2940161 172.101526,24.0978322 172.101526,23.5440621 L172.101526,19.4343609 L168.630294,19.4343609 L168.630294,23.5440621 C168.630294,24.0978322 168.451429,24.2940161 167.879217,24.2940161 L165.856908,24.2940161 C165.284697,24.2940161 165.087436,24.0978322 165.087436,23.5440621 L165.087436,12.3592345 C165.087436,11.7878782 165.284697,11.5916943 165.856908,11.5916943 L167.879217,11.5916943 C168.451429,11.5916943 168.630294,11.7878782 168.630294,12.3592345 L168.630294,16.3075333 L172.101526,16.3075333 L172.101526,12.3592345 C172.101526,11.7878782 172.298004,11.5916943 172.852603,11.5916943 L174.893307,11.5916943 C175.447906,11.5916943 175.644384,11.7878782 175.644384,12.3592345" id="Fill-39" fill="#EF4E23"></path>
                <path d="M187.30364,12.3592345 L187.30364,13.9673954 C187.30364,14.5395333 187.107162,14.736108 186.534168,14.736108 L181.810489,14.736108 L181.810489,16.3259011 L185.58544,16.3259011 C186.158434,16.3259011 186.354912,16.5220851 186.354912,17.0758552 L186.354912,18.6844069 C186.354912,19.2553724 186.158434,19.4527287 185.58544,19.4527287 L181.810489,19.4527287 L181.810489,21.1671885 L186.695029,21.1671885 C187.249628,21.1671885 187.446888,21.346177 187.446888,21.9183149 L187.446888,23.5440621 C187.446888,24.0978322 187.249628,24.2940161 186.695029,24.2940161 L179.037104,24.2940161 C178.464892,24.2940161 178.267632,24.0978322 178.267632,23.5440621 L178.267632,12.3592345 C178.267632,11.8054644 178.464892,11.6092805 179.037104,11.6092805 L186.534168,11.6092805 C187.107162,11.6092805 187.30364,11.8054644 187.30364,12.3592345" id="Fill-41" fill="#EF4E23"></path>
                <path d="M196.032368,16.0581609 C196.032368,15.2714713 195.531781,14.736069 194.690685,14.736069 L192.919256,14.736069 L192.919256,17.3622759 L194.690685,17.3622759 C195.531781,17.3622759 196.032368,16.844069 196.032368,16.0581609 M199.701252,16.0757471 C199.701252,18.8989195 197.893816,20.4887126 195.120431,20.4887126 L192.919256,20.4887126 L192.919256,23.544023 C192.919256,24.0977931 192.740391,24.293977 192.16818,24.293977 L190.145871,24.293977 C189.574051,24.293977 189.376399,24.0977931 189.376399,23.544023 L189.376399,12.3591954 C189.376399,11.8054253 189.574051,11.6092414 190.145871,11.6092414 L195.084814,11.6092414 C197.875421,11.6092414 199.701252,13.2349885 199.701252,16.0757471" id="Fill-43" fill="#EF4E23"></path>
            </g>
        </g>
    </g>
</svg>